M48
;GenerationSoftware,Autodesk,EAGLE,9.6.1*%
;CreationDate,2024-02-13T07:23:33Z*%
FMAT,2
ICI,OFF
METRIC,TZ,000.000
T5C0.250
T4C0.300
T3C0.350
T2C0.813
T1C1.016
%
G90
M71
T1
X-9779Y12827
X8128Y11557
X-9779Y17907
X-9779Y15367
T2
X-2413Y19431
X127Y16891
X2667Y19431
X127Y21971
T3
X-4318Y6731
X3556Y5842
X4699Y5969
X11303Y16510
X11303Y14986
X9017Y15240
X9017Y16637
X2286Y8890
X6731Y10033
X-3429Y24511
X-5588Y11811
X-3429Y23622
X-5969Y17272
X-4826Y17145
X-2032Y13081
X-2032Y11938
X-5842Y10160
X-5080Y7747
X1270Y8890
T4
X-2362Y27848
X-10247Y9156
X-9685Y22784
X13956Y10700
X2399Y2154
X10225Y20881
X-1502Y6350
T5
X4572Y8841
M30