G04 EAGLE Gerber RS-274X export*
G75*
%MOMM*%
%FSLAX34Y34*%
%LPD*%
%INBottom Copper*%
%IPPOS*%
%AMOC8*
5,1,8,0,0,1.08239X$1,22.5*%
G01*
%ADD10R,1.500000X1.300000*%
%ADD11C,0.124994*%
%ADD12R,5.699988X5.699988*%
%ADD13R,1.399997X0.400000*%
%ADD14R,1.300000X1.500000*%
%ADD15R,1.000000X1.100000*%
%ADD16R,1.100000X1.000000*%
%ADD17C,0.499997*%
%ADD18C,1.000000*%
%ADD19P,1.814519X8X202.500000*%
%ADD20C,0.254000*%
%ADD21C,0.756400*%
%ADD22C,0.177800*%
%ADD23C,0.660400*%
%ADD24C,0.406400*%

G36*
X278630Y195708D02*
X278630Y195708D01*
X278658Y195706D01*
X278726Y195728D01*
X278797Y195742D01*
X278820Y195758D01*
X278847Y195767D01*
X278902Y195814D01*
X278961Y195855D01*
X278976Y195879D01*
X278998Y195897D01*
X279029Y195962D01*
X279068Y196022D01*
X279073Y196050D01*
X279085Y196076D01*
X279094Y196177D01*
X279101Y196219D01*
X279099Y196229D01*
X279100Y196242D01*
X278857Y199292D01*
X278848Y199324D01*
X278844Y199371D01*
X278751Y199751D01*
X324767Y199751D01*
X324833Y199759D01*
X324900Y199758D01*
X324990Y199779D01*
X325082Y199791D01*
X325144Y199815D01*
X325210Y199830D01*
X325292Y199873D01*
X325378Y199908D01*
X325432Y199947D01*
X325491Y199978D01*
X325560Y200040D01*
X325635Y200094D01*
X325678Y200146D01*
X325728Y200191D01*
X325779Y200268D01*
X325838Y200339D01*
X325867Y200400D01*
X325904Y200456D01*
X325934Y200543D01*
X325974Y200627D01*
X325986Y200693D01*
X326008Y200756D01*
X326015Y200799D01*
X326047Y200834D01*
X326079Y200895D01*
X326120Y200950D01*
X326154Y201034D01*
X326197Y201114D01*
X326213Y201181D01*
X326239Y201245D01*
X326251Y201335D01*
X326272Y201423D01*
X326271Y201492D01*
X326281Y201560D01*
X326270Y201650D01*
X326269Y201741D01*
X326264Y201759D01*
X326713Y202782D01*
X326720Y202805D01*
X326732Y202827D01*
X326781Y202980D01*
X327056Y204067D01*
X327084Y204088D01*
X327126Y204143D01*
X327175Y204191D01*
X327223Y204269D01*
X327278Y204340D01*
X327305Y204403D01*
X327341Y204462D01*
X327368Y204549D01*
X327403Y204632D01*
X327414Y204701D01*
X327434Y204766D01*
X327438Y204857D01*
X327452Y204947D01*
X327451Y204964D01*
X328062Y205900D01*
X328072Y205922D01*
X328088Y205941D01*
X328161Y206084D01*
X328612Y207111D01*
X328643Y207127D01*
X328693Y207174D01*
X328750Y207214D01*
X328809Y207282D01*
X328876Y207344D01*
X328913Y207402D01*
X328958Y207454D01*
X328998Y207535D01*
X329047Y207612D01*
X329069Y207677D01*
X329100Y207739D01*
X329119Y207827D01*
X329147Y207913D01*
X329149Y207931D01*
X329905Y208753D01*
X329920Y208773D01*
X329938Y208790D01*
X330034Y208919D01*
X330647Y209857D01*
X330680Y209869D01*
X330738Y209907D01*
X330800Y209936D01*
X330870Y209994D01*
X330946Y210044D01*
X330992Y210095D01*
X331045Y210139D01*
X331098Y210212D01*
X331159Y210279D01*
X331191Y210340D01*
X331232Y210396D01*
X331265Y210481D01*
X331308Y210561D01*
X331312Y210578D01*
X332194Y211265D01*
X332211Y211282D01*
X332231Y211295D01*
X332348Y211407D01*
X333107Y212231D01*
X333142Y212237D01*
X333205Y212265D01*
X333271Y212284D01*
X333349Y212329D01*
X333432Y212366D01*
X333486Y212409D01*
X333546Y212443D01*
X333610Y212507D01*
X333682Y212563D01*
X333723Y212618D01*
X333772Y212667D01*
X333819Y212744D01*
X333874Y212817D01*
X333881Y212833D01*
X334864Y213365D01*
X334884Y213379D01*
X334906Y213389D01*
X335039Y213480D01*
X335924Y214168D01*
X335959Y214168D01*
X336026Y214185D01*
X336094Y214193D01*
X336179Y214225D01*
X336267Y214248D01*
X336327Y214281D01*
X336392Y214305D01*
X336466Y214357D01*
X336545Y214401D01*
X336596Y214448D01*
X336652Y214488D01*
X336711Y214557D01*
X336777Y214619D01*
X336786Y214634D01*
X337843Y214997D01*
X337865Y215008D01*
X337889Y215014D01*
X338035Y215081D01*
X339021Y215615D01*
X339056Y215609D01*
X339124Y215615D01*
X339193Y215611D01*
X339282Y215629D01*
X339373Y215637D01*
X339438Y215660D01*
X339505Y215673D01*
X339587Y215712D01*
X339673Y215742D01*
X339730Y215781D01*
X339792Y215810D01*
X339861Y215869D01*
X339937Y215919D01*
X339949Y215933D01*
X341051Y216116D01*
X341074Y216123D01*
X341099Y216125D01*
X341254Y216168D01*
X342314Y216532D01*
X342347Y216520D01*
X342416Y216515D01*
X342483Y216500D01*
X342574Y216503D01*
X342665Y216496D01*
X342732Y216508D01*
X342801Y216510D01*
X342888Y216535D01*
X342978Y216550D01*
X343041Y216579D01*
X343107Y216598D01*
X343185Y216644D01*
X343268Y216681D01*
X343282Y216693D01*
X344399Y216693D01*
X344423Y216696D01*
X344448Y216694D01*
X344608Y216710D01*
X345713Y216894D01*
X345744Y216878D01*
X345811Y216861D01*
X345875Y216835D01*
X345965Y216823D01*
X346053Y216801D01*
X346122Y216802D01*
X346190Y216792D01*
X346280Y216803D01*
X346371Y216804D01*
X346438Y216821D01*
X346506Y216829D01*
X346591Y216862D01*
X346678Y216885D01*
X346694Y216894D01*
X347123Y216822D01*
X347168Y216821D01*
X347211Y216811D01*
X347326Y216814D01*
X347441Y216810D01*
X347484Y216819D01*
X347529Y216820D01*
X347639Y216852D01*
X347751Y216876D01*
X347791Y216896D01*
X347835Y216909D01*
X347933Y216967D01*
X348036Y217018D01*
X348070Y217048D01*
X348108Y217070D01*
X348229Y217177D01*
X348398Y217345D01*
X348458Y217423D01*
X348526Y217496D01*
X348555Y217549D01*
X348593Y217597D01*
X348632Y217687D01*
X348680Y217774D01*
X348695Y217833D01*
X348719Y217888D01*
X348734Y217986D01*
X348759Y218082D01*
X348765Y218182D01*
X348769Y218202D01*
X348767Y218215D01*
X348769Y218243D01*
X348769Y219799D01*
X349809Y222309D01*
X351731Y224231D01*
X354241Y225271D01*
X356959Y225271D01*
X359469Y224231D01*
X361391Y222309D01*
X362431Y219799D01*
X362431Y217081D01*
X361391Y214571D01*
X360040Y213220D01*
X359983Y213147D01*
X359919Y213080D01*
X359886Y213022D01*
X359845Y212969D01*
X359809Y212884D01*
X359763Y212803D01*
X359746Y212738D01*
X359719Y212677D01*
X359705Y212585D01*
X359680Y212496D01*
X359680Y212429D01*
X359669Y212363D01*
X359678Y212270D01*
X359677Y212178D01*
X359693Y212113D01*
X359699Y212046D01*
X359731Y211959D01*
X359753Y211869D01*
X359784Y211810D01*
X359807Y211747D01*
X359859Y211670D01*
X359903Y211588D01*
X359976Y211498D01*
X359985Y211484D01*
X359992Y211478D01*
X360004Y211463D01*
X360056Y211407D01*
X360075Y211391D01*
X360090Y211371D01*
X360210Y211265D01*
X361095Y210576D01*
X361104Y210542D01*
X361137Y210482D01*
X361161Y210417D01*
X361213Y210343D01*
X361256Y210263D01*
X361303Y210213D01*
X361343Y210156D01*
X361412Y210097D01*
X361474Y210031D01*
X361532Y209994D01*
X361584Y209949D01*
X361665Y209909D01*
X361742Y209860D01*
X361759Y209854D01*
X362370Y208919D01*
X362386Y208900D01*
X362397Y208878D01*
X362499Y208753D01*
X363258Y207929D01*
X363261Y207894D01*
X363283Y207829D01*
X363297Y207761D01*
X363335Y207679D01*
X363365Y207593D01*
X363404Y207536D01*
X363433Y207474D01*
X363491Y207404D01*
X363541Y207329D01*
X363593Y207282D01*
X363637Y207229D01*
X363710Y207176D01*
X363778Y207116D01*
X363794Y207107D01*
X364243Y206084D01*
X364255Y206063D01*
X364263Y206040D01*
X364342Y205900D01*
X364955Y204962D01*
X364952Y204926D01*
X364964Y204859D01*
X364966Y204790D01*
X364991Y204702D01*
X365006Y204613D01*
X365034Y204550D01*
X365053Y204484D01*
X365099Y204406D01*
X365136Y204323D01*
X365179Y204269D01*
X365214Y204209D01*
X365278Y204145D01*
X365335Y204074D01*
X365349Y204063D01*
X365623Y202980D01*
X365632Y202957D01*
X365636Y202933D01*
X365691Y202782D01*
X366141Y201756D01*
X366133Y201721D01*
X366133Y201652D01*
X366124Y201584D01*
X366134Y201494D01*
X366134Y201403D01*
X366152Y201337D01*
X366159Y201268D01*
X366192Y201183D01*
X366215Y201096D01*
X366248Y201035D01*
X366273Y200971D01*
X366325Y200897D01*
X366369Y200818D01*
X366390Y200796D01*
X366390Y200783D01*
X366419Y200695D01*
X366438Y200604D01*
X366468Y200544D01*
X366488Y200481D01*
X366538Y200402D01*
X366579Y200319D01*
X366623Y200268D01*
X366659Y200212D01*
X366726Y200148D01*
X366787Y200078D01*
X366841Y200040D01*
X366890Y199994D01*
X366971Y199949D01*
X367047Y199896D01*
X367110Y199873D01*
X367169Y199840D01*
X367258Y199817D01*
X367345Y199785D01*
X367412Y199778D01*
X367477Y199761D01*
X367637Y199751D01*
X413653Y199751D01*
X413560Y199371D01*
X413558Y199337D01*
X413547Y199292D01*
X413304Y196242D01*
X413308Y196213D01*
X413303Y196185D01*
X413320Y196116D01*
X413328Y196044D01*
X413343Y196020D01*
X413349Y195992D01*
X413392Y195934D01*
X413428Y195872D01*
X413450Y195855D01*
X413467Y195832D01*
X413529Y195795D01*
X413586Y195752D01*
X413614Y195745D01*
X413638Y195730D01*
X413738Y195714D01*
X413779Y195703D01*
X413789Y195705D01*
X413802Y195703D01*
X432802Y195703D01*
X432878Y195718D01*
X432956Y195727D01*
X432975Y195738D01*
X432997Y195742D01*
X433061Y195786D01*
X433129Y195825D01*
X433145Y195844D01*
X433161Y195855D01*
X433185Y195893D01*
X433235Y195953D01*
X442735Y212453D01*
X442744Y212480D01*
X442760Y212504D01*
X442775Y212574D01*
X442798Y212642D01*
X442795Y212670D01*
X442801Y212698D01*
X442788Y212769D01*
X442782Y212840D01*
X442769Y212865D01*
X442763Y212893D01*
X442723Y212953D01*
X442690Y213016D01*
X442668Y213034D01*
X442652Y213058D01*
X442569Y213116D01*
X442537Y213143D01*
X442526Y213146D01*
X442516Y213153D01*
X439750Y214462D01*
X439717Y214470D01*
X439674Y214490D01*
X439321Y214592D01*
X462322Y254431D01*
X462348Y254493D01*
X462382Y254549D01*
X462409Y254638D01*
X462445Y254724D01*
X462455Y254790D01*
X462474Y254854D01*
X462478Y254947D01*
X462492Y255039D01*
X462485Y255105D01*
X462488Y255171D01*
X462468Y255263D01*
X462459Y255355D01*
X462435Y255418D01*
X462422Y255483D01*
X462380Y255566D01*
X462348Y255653D01*
X462310Y255708D01*
X462280Y255768D01*
X462220Y255838D01*
X462166Y255915D01*
X462116Y255958D01*
X462073Y256008D01*
X462029Y256043D01*
X462016Y256085D01*
X461979Y256144D01*
X461952Y256207D01*
X461896Y256278D01*
X461848Y256355D01*
X461798Y256403D01*
X461756Y256457D01*
X461684Y256513D01*
X461618Y256576D01*
X461558Y256609D01*
X461504Y256651D01*
X461420Y256687D01*
X461341Y256732D01*
X461326Y256736D01*
X460665Y257637D01*
X460648Y257655D01*
X460635Y257676D01*
X460527Y257795D01*
X459724Y258577D01*
X459720Y258610D01*
X459693Y258674D01*
X459677Y258740D01*
X459633Y258820D01*
X459599Y258904D01*
X459557Y258959D01*
X459525Y259020D01*
X459463Y259086D01*
X459408Y259159D01*
X459355Y259202D01*
X459308Y259253D01*
X459232Y259302D01*
X459161Y259359D01*
X459147Y259365D01*
X458643Y260363D01*
X458629Y260383D01*
X458620Y260406D01*
X458533Y260541D01*
X457870Y261445D01*
X457870Y261478D01*
X457855Y261545D01*
X457849Y261614D01*
X457820Y261700D01*
X457800Y261788D01*
X457768Y261849D01*
X457746Y261915D01*
X457696Y261990D01*
X457654Y262071D01*
X457608Y262122D01*
X457570Y262180D01*
X457503Y262241D01*
X457443Y262309D01*
X457430Y262317D01*
X457097Y263384D01*
X457086Y263407D01*
X457081Y263431D01*
X457018Y263579D01*
X456512Y264579D01*
X456519Y264612D01*
X456515Y264681D01*
X456520Y264749D01*
X456505Y264838D01*
X456500Y264929D01*
X456479Y264995D01*
X456467Y265063D01*
X456430Y265146D01*
X456403Y265232D01*
X456366Y265290D01*
X456338Y265353D01*
X456282Y265424D01*
X456233Y265501D01*
X456222Y265512D01*
X456069Y266619D01*
X456063Y266643D01*
X456062Y266667D01*
X456023Y266824D01*
X455689Y267894D01*
X455701Y267925D01*
X455708Y267993D01*
X455725Y268060D01*
X455725Y268151D01*
X455735Y268241D01*
X455725Y268309D01*
X455725Y268378D01*
X455702Y268466D01*
X455689Y268556D01*
X455662Y268619D01*
X455645Y268686D01*
X455601Y268765D01*
X455566Y268849D01*
X455556Y268862D01*
X455588Y269979D01*
X455586Y270003D01*
X455588Y270027D01*
X455577Y270188D01*
X455423Y271299D01*
X455440Y271327D01*
X455458Y271394D01*
X455486Y271457D01*
X455501Y271546D01*
X455525Y271634D01*
X455526Y271703D01*
X455538Y271771D01*
X455530Y271861D01*
X455532Y271952D01*
X455516Y272019D01*
X455510Y272087D01*
X455479Y272173D01*
X455459Y272261D01*
X455451Y272275D01*
X455567Y272862D01*
X455571Y272925D01*
X455585Y272986D01*
X455582Y273083D01*
X455588Y273180D01*
X455577Y273241D01*
X455575Y273304D01*
X455548Y273397D01*
X455530Y273492D01*
X455504Y273549D01*
X455486Y273609D01*
X455437Y273693D01*
X455396Y273781D01*
X455357Y273829D01*
X455325Y273883D01*
X455219Y274004D01*
X453243Y275980D01*
X453165Y276040D01*
X453092Y276108D01*
X453039Y276137D01*
X452992Y276174D01*
X452901Y276214D01*
X452814Y276262D01*
X452755Y276277D01*
X452700Y276301D01*
X452602Y276316D01*
X452506Y276341D01*
X452406Y276347D01*
X452386Y276351D01*
X452373Y276349D01*
X452345Y276351D01*
X431281Y276351D01*
X429395Y278237D01*
X429286Y278322D01*
X429179Y278411D01*
X429160Y278419D01*
X429144Y278432D01*
X429016Y278487D01*
X428891Y278546D01*
X428871Y278550D01*
X428852Y278558D01*
X428714Y278580D01*
X428578Y278606D01*
X428558Y278605D01*
X428538Y278608D01*
X428399Y278595D01*
X428261Y278586D01*
X428242Y278580D01*
X428222Y278578D01*
X428090Y278531D01*
X427959Y278488D01*
X427941Y278478D01*
X427922Y278471D01*
X427807Y278393D01*
X427690Y278318D01*
X427676Y278303D01*
X427659Y278292D01*
X427567Y278188D01*
X427472Y278087D01*
X427462Y278069D01*
X427449Y278054D01*
X427385Y277930D01*
X427318Y277808D01*
X427313Y277788D01*
X427304Y277770D01*
X427274Y277635D01*
X427239Y277500D01*
X427237Y277472D01*
X427234Y277460D01*
X427235Y277440D01*
X427229Y277339D01*
X427229Y257327D01*
X427241Y257229D01*
X427244Y257130D01*
X427261Y257072D01*
X427269Y257012D01*
X427305Y256919D01*
X427333Y256824D01*
X427363Y256772D01*
X427386Y256716D01*
X427444Y256636D01*
X427494Y256550D01*
X427560Y256475D01*
X427572Y256459D01*
X427582Y256451D01*
X427600Y256430D01*
X428701Y255329D01*
X429741Y252819D01*
X429741Y250101D01*
X428701Y247591D01*
X426779Y245669D01*
X424269Y244629D01*
X421551Y244629D01*
X419041Y245669D01*
X417119Y247591D01*
X416463Y249176D01*
X416394Y249296D01*
X416329Y249419D01*
X416315Y249434D01*
X416305Y249452D01*
X416208Y249552D01*
X416115Y249655D01*
X416098Y249666D01*
X416084Y249680D01*
X415965Y249753D01*
X415849Y249830D01*
X415830Y249836D01*
X415813Y249847D01*
X415680Y249888D01*
X415548Y249933D01*
X415528Y249934D01*
X415509Y249940D01*
X415370Y249947D01*
X415231Y249958D01*
X415211Y249954D01*
X415191Y249955D01*
X415055Y249927D01*
X414918Y249904D01*
X414899Y249895D01*
X414880Y249891D01*
X414754Y249830D01*
X414628Y249773D01*
X414612Y249760D01*
X414594Y249751D01*
X414488Y249661D01*
X414380Y249574D01*
X414367Y249558D01*
X414352Y249545D01*
X414272Y249431D01*
X414188Y249320D01*
X414176Y249295D01*
X414169Y249285D01*
X414162Y249266D01*
X414117Y249176D01*
X413461Y247591D01*
X411539Y245669D01*
X409029Y244629D01*
X406311Y244629D01*
X403801Y245669D01*
X401879Y247591D01*
X400839Y250101D01*
X400839Y252819D01*
X401879Y255329D01*
X403801Y257251D01*
X403838Y257266D01*
X403863Y257281D01*
X403891Y257290D01*
X404001Y257359D01*
X404114Y257424D01*
X404135Y257444D01*
X404160Y257460D01*
X404249Y257555D01*
X404342Y257645D01*
X404358Y257670D01*
X404378Y257692D01*
X404441Y257805D01*
X404509Y257916D01*
X404517Y257944D01*
X404532Y257970D01*
X404564Y258096D01*
X404602Y258220D01*
X404604Y258250D01*
X404611Y258278D01*
X404621Y258439D01*
X404621Y280895D01*
X404609Y280994D01*
X404606Y281093D01*
X404589Y281151D01*
X404581Y281211D01*
X404545Y281303D01*
X404517Y281398D01*
X404487Y281450D01*
X404464Y281507D01*
X404406Y281587D01*
X404356Y281672D01*
X404290Y281747D01*
X404278Y281764D01*
X404268Y281772D01*
X404250Y281793D01*
X384437Y301605D01*
X384328Y301690D01*
X384221Y301779D01*
X384202Y301787D01*
X384186Y301800D01*
X384058Y301855D01*
X383933Y301914D01*
X383913Y301918D01*
X383894Y301926D01*
X383756Y301948D01*
X383620Y301974D01*
X383600Y301973D01*
X383580Y301976D01*
X383441Y301963D01*
X383303Y301954D01*
X383284Y301948D01*
X383264Y301946D01*
X383132Y301899D01*
X383001Y301856D01*
X382983Y301846D01*
X382964Y301839D01*
X382849Y301761D01*
X382732Y301686D01*
X382718Y301671D01*
X382701Y301660D01*
X382609Y301556D01*
X382514Y301455D01*
X382504Y301437D01*
X382491Y301422D01*
X382427Y301298D01*
X382360Y301176D01*
X382355Y301156D01*
X382346Y301138D01*
X382316Y301003D01*
X382281Y300868D01*
X382279Y300840D01*
X382276Y300828D01*
X382277Y300808D01*
X382271Y300707D01*
X382271Y291175D01*
X375575Y284479D01*
X366105Y284479D01*
X359409Y291175D01*
X359409Y300645D01*
X366105Y307341D01*
X375637Y307341D01*
X375775Y307358D01*
X375914Y307371D01*
X375933Y307378D01*
X375953Y307381D01*
X376082Y307432D01*
X376213Y307479D01*
X376230Y307490D01*
X376249Y307498D01*
X376361Y307579D01*
X376476Y307657D01*
X376490Y307673D01*
X376506Y307684D01*
X376595Y307792D01*
X376687Y307896D01*
X376696Y307914D01*
X376709Y307929D01*
X376768Y308055D01*
X376831Y308179D01*
X376836Y308199D01*
X376844Y308217D01*
X376870Y308353D01*
X376901Y308489D01*
X376900Y308510D01*
X376904Y308529D01*
X376895Y308668D01*
X376891Y308807D01*
X376886Y308827D01*
X376884Y308847D01*
X376842Y308979D01*
X376803Y309113D01*
X376793Y309130D01*
X376786Y309149D01*
X376712Y309267D01*
X376641Y309387D01*
X376623Y309408D01*
X376616Y309418D01*
X376601Y309432D01*
X376535Y309507D01*
X356843Y329199D01*
X356843Y349199D01*
X356826Y349336D01*
X356813Y349475D01*
X356806Y349494D01*
X356803Y349514D01*
X356752Y349643D01*
X356705Y349775D01*
X356694Y349791D01*
X356686Y349810D01*
X356605Y349923D01*
X356527Y350038D01*
X356511Y350051D01*
X356500Y350068D01*
X356392Y350156D01*
X356288Y350248D01*
X356270Y350257D01*
X356255Y350270D01*
X356129Y350330D01*
X356005Y350393D01*
X355985Y350397D01*
X355967Y350406D01*
X355830Y350432D01*
X355695Y350462D01*
X355674Y350462D01*
X355655Y350466D01*
X355516Y350457D01*
X355377Y350453D01*
X355357Y350447D01*
X355337Y350446D01*
X355205Y350403D01*
X355071Y350364D01*
X355054Y350354D01*
X355035Y350348D01*
X354917Y350273D01*
X354797Y350203D01*
X354776Y350184D01*
X354766Y350178D01*
X354752Y350163D01*
X354677Y350096D01*
X353119Y348539D01*
X350609Y347499D01*
X347891Y347499D01*
X345381Y348539D01*
X344280Y349640D01*
X344202Y349700D01*
X344130Y349768D01*
X344077Y349797D01*
X344029Y349834D01*
X343938Y349874D01*
X343852Y349922D01*
X343793Y349937D01*
X343737Y349961D01*
X343639Y349976D01*
X343544Y350001D01*
X343444Y350007D01*
X343423Y350011D01*
X343411Y350009D01*
X343383Y350011D01*
X341905Y350011D01*
X341787Y349996D01*
X341668Y349989D01*
X341630Y349976D01*
X341590Y349971D01*
X341479Y349928D01*
X341366Y349891D01*
X341331Y349869D01*
X341294Y349854D01*
X341198Y349785D01*
X341097Y349721D01*
X341069Y349691D01*
X341036Y349668D01*
X340961Y349576D01*
X340879Y349489D01*
X340859Y349454D01*
X340834Y349423D01*
X340783Y349315D01*
X340725Y349211D01*
X340715Y349171D01*
X340698Y349135D01*
X340676Y349018D01*
X340646Y348903D01*
X340642Y348843D01*
X340638Y348823D01*
X340640Y348802D01*
X340636Y348742D01*
X340636Y347686D01*
X339596Y345176D01*
X337674Y343254D01*
X335164Y342214D01*
X332446Y342214D01*
X329936Y343254D01*
X328014Y345176D01*
X326974Y347686D01*
X326974Y350404D01*
X327328Y351257D01*
X327335Y351285D01*
X327349Y351311D01*
X327377Y351438D01*
X327412Y351563D01*
X327412Y351593D01*
X327418Y351622D01*
X327415Y351752D01*
X327417Y351881D01*
X327410Y351910D01*
X327409Y351940D01*
X327373Y352064D01*
X327342Y352191D01*
X327329Y352217D01*
X327320Y352245D01*
X327254Y352357D01*
X327194Y352472D01*
X327174Y352494D01*
X327159Y352519D01*
X327052Y352640D01*
X321829Y357863D01*
X321826Y357888D01*
X321813Y358026D01*
X321806Y358045D01*
X321803Y358066D01*
X321752Y358195D01*
X321705Y358326D01*
X321694Y358342D01*
X321686Y358361D01*
X321605Y358474D01*
X321527Y358589D01*
X321511Y358602D01*
X321500Y358619D01*
X321392Y358707D01*
X321288Y358799D01*
X321270Y358808D01*
X321255Y358821D01*
X321129Y358881D01*
X321005Y358944D01*
X320985Y358948D01*
X320967Y358957D01*
X320831Y358983D01*
X320695Y359013D01*
X320674Y359013D01*
X320655Y359017D01*
X320516Y359008D01*
X320377Y359004D01*
X320357Y358998D01*
X320337Y358997D01*
X320205Y358954D01*
X320071Y358915D01*
X320054Y358905D01*
X320035Y358899D01*
X319917Y358824D01*
X319797Y358754D01*
X319776Y358735D01*
X319766Y358729D01*
X319752Y358714D01*
X319677Y358647D01*
X314062Y353033D01*
X314002Y352955D01*
X313934Y352883D01*
X313904Y352830D01*
X313867Y352782D01*
X313828Y352691D01*
X313780Y352604D01*
X313765Y352546D01*
X313741Y352490D01*
X313725Y352392D01*
X313701Y352296D01*
X313694Y352196D01*
X313691Y352176D01*
X313692Y352164D01*
X313690Y352136D01*
X313690Y341417D01*
X312089Y339816D01*
X312016Y339722D01*
X311938Y339633D01*
X311919Y339597D01*
X311894Y339565D01*
X311847Y339456D01*
X311793Y339350D01*
X311784Y339310D01*
X311768Y339273D01*
X311749Y339155D01*
X311723Y339040D01*
X311725Y338999D01*
X311718Y338959D01*
X311729Y338841D01*
X311733Y338722D01*
X311744Y338683D01*
X311748Y338643D01*
X311788Y338530D01*
X311821Y338416D01*
X311842Y338381D01*
X311856Y338343D01*
X311923Y338245D01*
X311983Y338142D01*
X312023Y338097D01*
X312034Y338080D01*
X312050Y338067D01*
X312089Y338021D01*
X313876Y336235D01*
X313876Y318709D01*
X312090Y316923D01*
X296564Y316923D01*
X294778Y318709D01*
X294778Y319532D01*
X294763Y319650D01*
X294756Y319769D01*
X294744Y319807D01*
X294739Y319848D01*
X294695Y319958D01*
X294658Y320071D01*
X294636Y320106D01*
X294622Y320143D01*
X294552Y320239D01*
X294488Y320340D01*
X294458Y320368D01*
X294435Y320401D01*
X294343Y320477D01*
X294256Y320558D01*
X294221Y320578D01*
X294190Y320603D01*
X294082Y320654D01*
X293978Y320712D01*
X293939Y320722D01*
X293902Y320739D01*
X293785Y320761D01*
X293670Y320791D01*
X293610Y320795D01*
X293590Y320799D01*
X293569Y320797D01*
X293509Y320801D01*
X292887Y320801D01*
X292789Y320789D01*
X292690Y320786D01*
X292632Y320769D01*
X292572Y320761D01*
X292479Y320725D01*
X292384Y320697D01*
X292332Y320667D01*
X292276Y320644D01*
X292196Y320586D01*
X292110Y320536D01*
X292035Y320470D01*
X292019Y320458D01*
X292011Y320448D01*
X291990Y320430D01*
X290889Y319329D01*
X288379Y318289D01*
X285661Y318289D01*
X283151Y319329D01*
X281229Y321251D01*
X280189Y323761D01*
X280189Y326479D01*
X281229Y328989D01*
X283151Y330911D01*
X285661Y331951D01*
X288379Y331951D01*
X290889Y330911D01*
X291990Y329810D01*
X292068Y329750D01*
X292140Y329682D01*
X292193Y329653D01*
X292241Y329616D01*
X292332Y329576D01*
X292418Y329528D01*
X292477Y329513D01*
X292533Y329489D01*
X292631Y329474D01*
X292726Y329449D01*
X292826Y329443D01*
X292847Y329439D01*
X292859Y329441D01*
X292887Y329439D01*
X293509Y329439D01*
X293627Y329454D01*
X293746Y329461D01*
X293785Y329474D01*
X293825Y329479D01*
X293935Y329522D01*
X294049Y329559D01*
X294083Y329581D01*
X294120Y329596D01*
X294217Y329665D01*
X294317Y329729D01*
X294345Y329759D01*
X294378Y329782D01*
X294454Y329874D01*
X294535Y329961D01*
X294555Y329996D01*
X294581Y330027D01*
X294631Y330135D01*
X294689Y330239D01*
X294699Y330279D01*
X294716Y330315D01*
X294738Y330432D01*
X294768Y330547D01*
X294772Y330607D01*
X294776Y330627D01*
X294775Y330648D01*
X294778Y330708D01*
X294778Y336235D01*
X296564Y338021D01*
X296925Y338021D01*
X297063Y338038D01*
X297202Y338051D01*
X297221Y338058D01*
X297241Y338061D01*
X297370Y338112D01*
X297501Y338159D01*
X297518Y338170D01*
X297537Y338178D01*
X297649Y338259D01*
X297764Y338337D01*
X297778Y338353D01*
X297794Y338365D01*
X297883Y338472D01*
X297975Y338576D01*
X297984Y338594D01*
X297997Y338610D01*
X298056Y338735D01*
X298119Y338859D01*
X298124Y338879D01*
X298132Y338897D01*
X298158Y339034D01*
X298189Y339169D01*
X298188Y339190D01*
X298192Y339210D01*
X298184Y339348D01*
X298179Y339487D01*
X298174Y339507D01*
X298172Y339527D01*
X298130Y339659D01*
X298091Y339793D01*
X298081Y339810D01*
X298074Y339830D01*
X298000Y339947D01*
X297929Y340067D01*
X297911Y340088D01*
X297904Y340098D01*
X297889Y340112D01*
X297823Y340188D01*
X296593Y341417D01*
X296593Y348381D01*
X296576Y348519D01*
X296563Y348658D01*
X296556Y348677D01*
X296553Y348697D01*
X296502Y348826D01*
X296455Y348957D01*
X296444Y348974D01*
X296436Y348992D01*
X296355Y349104D01*
X296276Y349220D01*
X296261Y349233D01*
X296249Y349250D01*
X296142Y349338D01*
X296038Y349430D01*
X296020Y349440D01*
X296004Y349453D01*
X295879Y349512D01*
X295755Y349575D01*
X295735Y349579D01*
X295717Y349588D01*
X295580Y349614D01*
X295444Y349645D01*
X295424Y349644D01*
X295404Y349648D01*
X295266Y349639D01*
X295127Y349635D01*
X295107Y349629D01*
X295087Y349628D01*
X294955Y349585D01*
X294821Y349547D01*
X294804Y349536D01*
X294784Y349530D01*
X294667Y349456D01*
X294547Y349385D01*
X294526Y349366D01*
X294516Y349360D01*
X294502Y349345D01*
X294426Y349279D01*
X276470Y331323D01*
X273569Y328421D01*
X252505Y328421D01*
X252406Y328409D01*
X252307Y328406D01*
X252249Y328389D01*
X252189Y328381D01*
X252097Y328345D01*
X252002Y328317D01*
X251950Y328287D01*
X251893Y328264D01*
X251813Y328206D01*
X251728Y328156D01*
X251653Y328090D01*
X251636Y328078D01*
X251628Y328068D01*
X251607Y328050D01*
X251070Y327513D01*
X251010Y327435D01*
X250942Y327362D01*
X250913Y327309D01*
X250876Y327262D01*
X250836Y327171D01*
X250788Y327084D01*
X250773Y327025D01*
X250749Y326970D01*
X250734Y326872D01*
X250709Y326776D01*
X250703Y326676D01*
X250699Y326656D01*
X250701Y326643D01*
X250699Y326615D01*
X250699Y303305D01*
X250711Y303206D01*
X250714Y303107D01*
X250731Y303049D01*
X250739Y302989D01*
X250775Y302897D01*
X250803Y302802D01*
X250833Y302750D01*
X250856Y302693D01*
X250914Y302613D01*
X250964Y302528D01*
X251030Y302453D01*
X251042Y302436D01*
X251052Y302428D01*
X251070Y302407D01*
X269387Y284090D01*
X269465Y284030D01*
X269538Y283962D01*
X269591Y283933D01*
X269638Y283896D01*
X269729Y283856D01*
X269816Y283808D01*
X269875Y283793D01*
X269930Y283769D01*
X270028Y283754D01*
X270124Y283729D01*
X270224Y283723D01*
X270244Y283719D01*
X270257Y283721D01*
X270285Y283719D01*
X283693Y283719D01*
X283791Y283731D01*
X283890Y283734D01*
X283948Y283751D01*
X284008Y283759D01*
X284101Y283795D01*
X284196Y283823D01*
X284248Y283853D01*
X284304Y283876D01*
X284384Y283934D01*
X284470Y283984D01*
X284545Y284050D01*
X284561Y284062D01*
X284569Y284072D01*
X284590Y284090D01*
X285691Y285191D01*
X288201Y286231D01*
X290919Y286231D01*
X293429Y285191D01*
X295351Y283269D01*
X296391Y280759D01*
X296391Y278041D01*
X295273Y275342D01*
X295246Y275246D01*
X295211Y275154D01*
X295205Y275093D01*
X295189Y275035D01*
X295187Y274936D01*
X295176Y274838D01*
X295184Y274778D01*
X295184Y274717D01*
X295207Y274621D01*
X295220Y274523D01*
X295253Y274428D01*
X295258Y274408D01*
X295263Y274397D01*
X295273Y274370D01*
X296391Y271671D01*
X296391Y268953D01*
X295351Y266443D01*
X293429Y264521D01*
X290919Y263481D01*
X288201Y263481D01*
X285691Y264521D01*
X284392Y265820D01*
X284314Y265880D01*
X284242Y265948D01*
X284189Y265977D01*
X284141Y266014D01*
X284050Y266054D01*
X283964Y266102D01*
X283905Y266117D01*
X283849Y266141D01*
X283751Y266156D01*
X283656Y266181D01*
X283556Y266187D01*
X283535Y266191D01*
X283523Y266189D01*
X283495Y266191D01*
X264911Y266191D01*
X234441Y296661D01*
X234441Y331989D01*
X245861Y343409D01*
X268195Y343409D01*
X268294Y343421D01*
X268393Y343424D01*
X268451Y343441D01*
X268511Y343449D01*
X268603Y343485D01*
X268698Y343513D01*
X268750Y343543D01*
X268807Y343566D01*
X268887Y343624D01*
X268972Y343674D01*
X269047Y343740D01*
X269064Y343752D01*
X269072Y343762D01*
X269093Y343780D01*
X278237Y352925D01*
X278322Y353034D01*
X278411Y353141D01*
X278419Y353160D01*
X278432Y353176D01*
X278487Y353304D01*
X278546Y353429D01*
X278550Y353449D01*
X278558Y353468D01*
X278580Y353606D01*
X278606Y353742D01*
X278605Y353762D01*
X278608Y353782D01*
X278595Y353921D01*
X278586Y354059D01*
X278580Y354078D01*
X278578Y354098D01*
X278531Y354230D01*
X278488Y354361D01*
X278478Y354379D01*
X278471Y354398D01*
X278393Y354513D01*
X278318Y354630D01*
X278303Y354644D01*
X278292Y354661D01*
X278188Y354753D01*
X278087Y354848D01*
X278069Y354858D01*
X278054Y354871D01*
X277930Y354935D01*
X277808Y355002D01*
X277788Y355007D01*
X277770Y355016D01*
X277635Y355046D01*
X277500Y355081D01*
X277472Y355083D01*
X277460Y355086D01*
X277440Y355085D01*
X277339Y355091D01*
X240371Y355091D01*
X219295Y376168D01*
X219295Y393680D01*
X219282Y393778D01*
X219279Y393877D01*
X219263Y393935D01*
X219255Y393995D01*
X219219Y394087D01*
X219191Y394182D01*
X219160Y394234D01*
X219138Y394291D01*
X219080Y394371D01*
X219029Y394456D01*
X218963Y394532D01*
X218951Y394548D01*
X218942Y394556D01*
X218923Y394577D01*
X217823Y395677D01*
X216783Y398188D01*
X216783Y399386D01*
X216763Y399540D01*
X216746Y399691D01*
X216744Y399696D01*
X216743Y399702D01*
X216687Y399844D01*
X216631Y399987D01*
X216628Y399992D01*
X216626Y399997D01*
X216536Y400121D01*
X216447Y400246D01*
X216442Y400250D01*
X216439Y400255D01*
X216321Y400352D01*
X216204Y400451D01*
X216199Y400454D01*
X216194Y400458D01*
X216056Y400522D01*
X215917Y400590D01*
X215911Y400591D01*
X215906Y400593D01*
X215757Y400622D01*
X215605Y400652D01*
X215598Y400652D01*
X215594Y400653D01*
X215585Y400652D01*
X215444Y400654D01*
X214498Y400602D01*
X214471Y400621D01*
X214406Y400645D01*
X214346Y400677D01*
X214258Y400700D01*
X214172Y400731D01*
X214104Y400738D01*
X214037Y400755D01*
X213946Y400754D01*
X213856Y400764D01*
X213788Y400754D01*
X213719Y400753D01*
X213631Y400730D01*
X213542Y400717D01*
X213527Y400711D01*
X212452Y401015D01*
X212428Y401019D01*
X212405Y401028D01*
X212246Y401056D01*
X211132Y401180D01*
X211108Y401203D01*
X211048Y401237D01*
X210994Y401279D01*
X210911Y401316D01*
X210832Y401361D01*
X210766Y401379D01*
X210703Y401407D01*
X210613Y401421D01*
X210525Y401445D01*
X210456Y401446D01*
X210389Y401457D01*
X210298Y401449D01*
X210207Y401450D01*
X210180Y401444D01*
X210094Y401462D01*
X210006Y401491D01*
X209939Y401495D01*
X209873Y401509D01*
X209781Y401505D01*
X209689Y401511D01*
X209623Y401499D01*
X209555Y401496D01*
X209467Y401470D01*
X209376Y401452D01*
X209315Y401424D01*
X209251Y401405D01*
X209172Y401357D01*
X209088Y401318D01*
X209036Y401275D01*
X208979Y401240D01*
X208914Y401174D01*
X208843Y401116D01*
X208803Y401061D01*
X208756Y401013D01*
X208667Y400879D01*
X185665Y361038D01*
X185371Y361320D01*
X185343Y361338D01*
X185309Y361371D01*
X182786Y363113D01*
X182759Y363124D01*
X182737Y363143D01*
X182668Y363163D01*
X182603Y363191D01*
X182574Y363191D01*
X182546Y363199D01*
X182475Y363191D01*
X182404Y363192D01*
X182377Y363180D01*
X182348Y363177D01*
X182286Y363142D01*
X182221Y363114D01*
X182200Y363094D01*
X182175Y363079D01*
X182112Y363002D01*
X182082Y362972D01*
X182078Y362962D01*
X182069Y362951D01*
X172569Y346451D01*
X172545Y346378D01*
X172514Y346308D01*
X172514Y346284D01*
X172506Y346262D01*
X172513Y346186D01*
X172512Y346109D01*
X172521Y346085D01*
X172522Y346064D01*
X172543Y346025D01*
X172562Y345973D01*
X172563Y345967D01*
X172565Y345965D01*
X172569Y345953D01*
X182069Y329453D01*
X182088Y329431D01*
X182101Y329405D01*
X182154Y329357D01*
X182201Y329304D01*
X182227Y329291D01*
X182249Y329272D01*
X182316Y329249D01*
X182380Y329218D01*
X182409Y329217D01*
X182436Y329207D01*
X182508Y329212D01*
X182579Y329209D01*
X182606Y329219D01*
X182635Y329221D01*
X182725Y329263D01*
X182765Y329278D01*
X182773Y329285D01*
X182786Y329291D01*
X185309Y331033D01*
X185333Y331057D01*
X185371Y331084D01*
X185665Y331366D01*
X206587Y295128D01*
X206621Y295083D01*
X206647Y295033D01*
X206716Y294957D01*
X206779Y294874D01*
X206823Y294839D01*
X206861Y294798D01*
X206947Y294741D01*
X207028Y294677D01*
X207080Y294654D01*
X207127Y294623D01*
X207224Y294589D01*
X207319Y294547D01*
X207374Y294538D01*
X207427Y294520D01*
X207530Y294511D01*
X207632Y294494D01*
X207688Y294499D01*
X207744Y294494D01*
X207846Y294512D01*
X207949Y294521D01*
X208002Y294539D01*
X208058Y294549D01*
X208152Y294591D01*
X208249Y294625D01*
X208296Y294656D01*
X208348Y294679D01*
X208428Y294744D01*
X208514Y294801D01*
X208552Y294843D01*
X208596Y294878D01*
X208658Y294960D01*
X208727Y295037D01*
X208754Y295087D01*
X208787Y295132D01*
X208858Y295277D01*
X209935Y297876D01*
X211857Y299798D01*
X214367Y300838D01*
X217085Y300838D01*
X219595Y299798D01*
X221517Y297876D01*
X222557Y295366D01*
X222557Y292648D01*
X222427Y292334D01*
X222408Y292267D01*
X222381Y292203D01*
X222366Y292114D01*
X222343Y292027D01*
X222342Y291958D01*
X222331Y291889D01*
X222339Y291799D01*
X222338Y291709D01*
X222354Y291641D01*
X222360Y291572D01*
X222391Y291488D01*
X222412Y291400D01*
X222444Y291339D01*
X222468Y291273D01*
X222518Y291198D01*
X222560Y291119D01*
X222607Y291067D01*
X222646Y291010D01*
X222714Y290950D01*
X222774Y290884D01*
X222832Y290845D01*
X222885Y290799D01*
X222965Y290758D01*
X223040Y290709D01*
X223106Y290686D01*
X223168Y290655D01*
X223322Y290610D01*
X223618Y290544D01*
X223639Y290518D01*
X223694Y290478D01*
X223744Y290430D01*
X223823Y290384D01*
X223896Y290331D01*
X223960Y290306D01*
X224020Y290272D01*
X224107Y290247D01*
X224192Y290214D01*
X224260Y290205D01*
X224327Y290187D01*
X224417Y290186D01*
X224507Y290174D01*
X224523Y290176D01*
X225475Y289591D01*
X225498Y289581D01*
X225518Y289567D01*
X225663Y289497D01*
X226702Y289076D01*
X226718Y289047D01*
X226766Y288998D01*
X226807Y288942D01*
X226878Y288885D01*
X226941Y288820D01*
X227000Y288785D01*
X227053Y288741D01*
X227136Y288703D01*
X227213Y288656D01*
X227280Y288636D01*
X227342Y288607D01*
X227431Y288591D01*
X227518Y288565D01*
X227534Y288564D01*
X228377Y287831D01*
X228397Y287817D01*
X228414Y287799D01*
X228546Y287707D01*
X229502Y287120D01*
X229513Y287089D01*
X229553Y287033D01*
X229584Y286971D01*
X229644Y286903D01*
X229696Y286829D01*
X229748Y286784D01*
X229794Y286732D01*
X229869Y286681D01*
X229938Y286622D01*
X229999Y286592D01*
X230056Y286553D01*
X230142Y286522D01*
X230223Y286482D01*
X230238Y286479D01*
X230949Y285616D01*
X230967Y285600D01*
X230981Y285579D01*
X231096Y285466D01*
X231942Y284730D01*
X231948Y284698D01*
X231978Y284636D01*
X231998Y284570D01*
X232046Y284493D01*
X232085Y284411D01*
X232130Y284358D01*
X232166Y284300D01*
X232231Y284237D01*
X232290Y284167D01*
X232346Y284127D01*
X232395Y284080D01*
X232474Y284035D01*
X232548Y283982D01*
X232563Y283976D01*
X233122Y283009D01*
X233137Y282989D01*
X233147Y282967D01*
X233242Y282837D01*
X233955Y281972D01*
X233956Y281939D01*
X233975Y281873D01*
X233985Y281804D01*
X234019Y281720D01*
X234044Y281633D01*
X234079Y281574D01*
X234105Y281510D01*
X234159Y281437D01*
X234206Y281359D01*
X234254Y281310D01*
X234295Y281255D01*
X234366Y281198D01*
X234430Y281134D01*
X234444Y281126D01*
X234836Y280079D01*
X234848Y280058D01*
X234854Y280034D01*
X234926Y279890D01*
X235487Y278919D01*
X235482Y278887D01*
X235490Y278818D01*
X235489Y278749D01*
X235509Y278661D01*
X235519Y278571D01*
X235544Y278506D01*
X235559Y278439D01*
X235601Y278359D01*
X235633Y278274D01*
X235673Y278218D01*
X235705Y278156D01*
X235765Y278088D01*
X235818Y278015D01*
X235829Y278005D01*
X236044Y276908D01*
X236052Y276884D01*
X236055Y276860D01*
X236102Y276706D01*
X236495Y275656D01*
X236486Y275625D01*
X236482Y275556D01*
X236469Y275488D01*
X236474Y275398D01*
X236470Y275307D01*
X236484Y275240D01*
X236488Y275171D01*
X236515Y275084D01*
X236534Y274996D01*
X236564Y274934D01*
X236585Y274868D01*
X236633Y274791D01*
X236673Y274710D01*
X236683Y274698D01*
X236714Y273580D01*
X236718Y273556D01*
X236717Y273532D01*
X236738Y273372D01*
X236953Y272272D01*
X236938Y272242D01*
X236924Y272175D01*
X236900Y272110D01*
X236890Y272020D01*
X236871Y271932D01*
X236873Y271863D01*
X236866Y271794D01*
X236879Y271705D01*
X236882Y271614D01*
X236902Y271548D01*
X236911Y271480D01*
X236946Y271396D01*
X236972Y271309D01*
X236980Y271295D01*
X236827Y270188D01*
X236827Y270163D01*
X236822Y270140D01*
X236816Y269979D01*
X236848Y268858D01*
X236828Y268832D01*
X236803Y268767D01*
X236768Y268708D01*
X236744Y268621D01*
X236710Y268536D01*
X236701Y268468D01*
X236683Y268402D01*
X236681Y268311D01*
X236669Y268221D01*
X236678Y268152D01*
X236676Y268084D01*
X236697Y267995D01*
X236708Y267905D01*
X236714Y267891D01*
X236381Y266824D01*
X236376Y266800D01*
X236367Y266777D01*
X236335Y266619D01*
X236182Y265508D01*
X236158Y265485D01*
X236122Y265426D01*
X236078Y265373D01*
X236040Y265291D01*
X235993Y265214D01*
X235973Y265148D01*
X235944Y265085D01*
X235927Y264996D01*
X235901Y264909D01*
X235898Y264840D01*
X235885Y264773D01*
X235891Y264682D01*
X235887Y264591D01*
X235890Y264576D01*
X235386Y263579D01*
X235378Y263556D01*
X235365Y263535D01*
X235307Y263384D01*
X234973Y262314D01*
X234946Y262295D01*
X234901Y262243D01*
X234849Y262198D01*
X234798Y262123D01*
X234739Y262054D01*
X234708Y261992D01*
X234669Y261936D01*
X234638Y261851D01*
X234598Y261769D01*
X234583Y261702D01*
X234560Y261637D01*
X234551Y261547D01*
X234532Y261458D01*
X234532Y261442D01*
X233871Y260541D01*
X233859Y260520D01*
X233843Y260501D01*
X233761Y260363D01*
X233256Y259362D01*
X233226Y259348D01*
X233173Y259304D01*
X233114Y259268D01*
X233051Y259202D01*
X232982Y259144D01*
X232941Y259088D01*
X232893Y259039D01*
X232849Y258960D01*
X232795Y258886D01*
X232770Y258822D01*
X232736Y258762D01*
X232712Y258675D01*
X232679Y258590D01*
X232677Y258575D01*
X231877Y257795D01*
X231861Y257776D01*
X231842Y257760D01*
X231739Y257637D01*
X231076Y256733D01*
X231044Y256724D01*
X230984Y256689D01*
X230921Y256663D01*
X230848Y256609D01*
X230769Y256563D01*
X230720Y256515D01*
X230665Y256474D01*
X230608Y256403D01*
X230543Y256340D01*
X230508Y256280D01*
X230465Y256227D01*
X230427Y256145D01*
X230380Y256067D01*
X230372Y256040D01*
X230353Y256027D01*
X230290Y255958D01*
X230221Y255896D01*
X230184Y255841D01*
X230140Y255791D01*
X230096Y255709D01*
X230045Y255631D01*
X230023Y255568D01*
X229992Y255509D01*
X229971Y255419D01*
X229940Y255331D01*
X229934Y255265D01*
X229919Y255200D01*
X229921Y255107D01*
X229913Y255014D01*
X229924Y254948D01*
X229925Y254882D01*
X229950Y254792D01*
X229966Y254700D01*
X229993Y254640D01*
X230010Y254576D01*
X230082Y254431D01*
X253083Y214592D01*
X252730Y214490D01*
X252700Y214474D01*
X252655Y214462D01*
X249889Y213153D01*
X249866Y213136D01*
X249839Y213126D01*
X249787Y213077D01*
X249729Y213034D01*
X249715Y213009D01*
X249694Y212990D01*
X249665Y212924D01*
X249629Y212862D01*
X249626Y212834D01*
X249614Y212808D01*
X249613Y212736D01*
X249604Y212665D01*
X249612Y212638D01*
X249612Y212609D01*
X249647Y212514D01*
X249658Y212474D01*
X249665Y212465D01*
X249669Y212453D01*
X259169Y195953D01*
X259221Y195895D01*
X259267Y195832D01*
X259286Y195821D01*
X259301Y195804D01*
X259371Y195770D01*
X259438Y195730D01*
X259463Y195726D01*
X259480Y195718D01*
X259525Y195716D01*
X259602Y195703D01*
X278602Y195703D01*
X278630Y195708D01*
G37*
G36*
X463228Y287510D02*
X463228Y287510D01*
X463378Y287517D01*
X463387Y287520D01*
X463397Y287520D01*
X463538Y287566D01*
X463682Y287610D01*
X463693Y287617D01*
X463699Y287619D01*
X463711Y287626D01*
X463824Y287686D01*
X463858Y287707D01*
X463877Y287722D01*
X463899Y287733D01*
X464027Y287831D01*
X464873Y288566D01*
X464906Y288568D01*
X464972Y288589D01*
X465039Y288600D01*
X465122Y288637D01*
X465209Y288664D01*
X465267Y288701D01*
X465330Y288729D01*
X465402Y288785D01*
X465479Y288833D01*
X465526Y288883D01*
X465580Y288925D01*
X465636Y288998D01*
X465698Y289063D01*
X465706Y289077D01*
X466741Y289497D01*
X466763Y289509D01*
X466786Y289516D01*
X466929Y289591D01*
X467884Y290178D01*
X467917Y290174D01*
X467985Y290184D01*
X468054Y290184D01*
X468142Y290206D01*
X468232Y290219D01*
X468295Y290246D01*
X468362Y290263D01*
X468442Y290306D01*
X468526Y290341D01*
X468581Y290382D01*
X468641Y290416D01*
X468707Y290478D01*
X468780Y290532D01*
X468790Y290544D01*
X469880Y290788D01*
X469904Y290796D01*
X469928Y290800D01*
X470081Y290850D01*
X471120Y291272D01*
X471151Y291263D01*
X471220Y291261D01*
X471288Y291250D01*
X471379Y291257D01*
X471469Y291255D01*
X471536Y291271D01*
X471605Y291277D01*
X471691Y291307D01*
X471779Y291327D01*
X471840Y291359D01*
X471905Y291382D01*
X471981Y291432D01*
X472061Y291474D01*
X472073Y291484D01*
X473189Y291545D01*
X473213Y291549D01*
X473238Y291549D01*
X473397Y291574D01*
X474491Y291818D01*
X474521Y291804D01*
X474588Y291791D01*
X474654Y291769D01*
X474744Y291761D01*
X474833Y291744D01*
X474902Y291749D01*
X474971Y291743D01*
X475060Y291758D01*
X475150Y291764D01*
X475216Y291785D01*
X475284Y291797D01*
X475367Y291834D01*
X475453Y291862D01*
X475466Y291871D01*
X476577Y291747D01*
X476602Y291747D01*
X476626Y291742D01*
X476787Y291741D01*
X477906Y291802D01*
X477933Y291783D01*
X477998Y291759D01*
X478058Y291727D01*
X478146Y291704D01*
X478232Y291673D01*
X478300Y291666D01*
X478367Y291649D01*
X478458Y291650D01*
X478548Y291640D01*
X478616Y291650D01*
X478685Y291651D01*
X478773Y291674D01*
X478862Y291687D01*
X478877Y291693D01*
X479952Y291389D01*
X479976Y291385D01*
X479999Y291376D01*
X480158Y291348D01*
X481272Y291224D01*
X481296Y291201D01*
X481356Y291167D01*
X481410Y291125D01*
X481493Y291088D01*
X481572Y291043D01*
X481638Y291025D01*
X481701Y290997D01*
X481791Y290983D01*
X481879Y290959D01*
X481948Y290958D01*
X482015Y290947D01*
X482106Y290955D01*
X482197Y290954D01*
X482224Y290960D01*
X482310Y290942D01*
X482398Y290913D01*
X482465Y290909D01*
X482531Y290895D01*
X482623Y290899D01*
X482715Y290893D01*
X482781Y290905D01*
X482849Y290908D01*
X482937Y290934D01*
X483028Y290952D01*
X483089Y290980D01*
X483153Y290999D01*
X483232Y291047D01*
X483316Y291086D01*
X483368Y291129D01*
X483425Y291164D01*
X483490Y291230D01*
X483561Y291288D01*
X483601Y291343D01*
X483648Y291391D01*
X483737Y291525D01*
X506739Y331366D01*
X507033Y331084D01*
X507061Y331066D01*
X507095Y331033D01*
X509618Y329291D01*
X509645Y329280D01*
X509667Y329261D01*
X509736Y329241D01*
X509801Y329213D01*
X509830Y329213D01*
X509858Y329205D01*
X509929Y329213D01*
X510000Y329213D01*
X510027Y329224D01*
X510056Y329227D01*
X510118Y329262D01*
X510183Y329290D01*
X510204Y329310D01*
X510229Y329325D01*
X510292Y329402D01*
X510322Y329432D01*
X510326Y329442D01*
X510335Y329453D01*
X519835Y345953D01*
X519845Y345985D01*
X519854Y345998D01*
X519858Y346022D01*
X519859Y346026D01*
X519890Y346096D01*
X519890Y346120D01*
X519898Y346142D01*
X519892Y346218D01*
X519893Y346295D01*
X519883Y346319D01*
X519882Y346340D01*
X519861Y346379D01*
X519835Y346451D01*
X510335Y362951D01*
X510316Y362973D01*
X510303Y362999D01*
X510250Y363047D01*
X510203Y363100D01*
X510177Y363113D01*
X510156Y363132D01*
X510088Y363155D01*
X510024Y363186D01*
X509995Y363188D01*
X509968Y363197D01*
X509896Y363192D01*
X509825Y363195D01*
X509798Y363185D01*
X509769Y363183D01*
X509679Y363141D01*
X509639Y363126D01*
X509631Y363119D01*
X509618Y363113D01*
X507095Y361371D01*
X507071Y361347D01*
X507033Y361320D01*
X506739Y361038D01*
X483737Y400879D01*
X483697Y400933D01*
X483664Y400992D01*
X483601Y401059D01*
X483545Y401132D01*
X483492Y401174D01*
X483446Y401223D01*
X483368Y401273D01*
X483296Y401330D01*
X483234Y401357D01*
X483178Y401393D01*
X483090Y401422D01*
X483005Y401459D01*
X482939Y401471D01*
X482875Y401491D01*
X482783Y401497D01*
X482692Y401513D01*
X482625Y401507D01*
X482558Y401511D01*
X482467Y401494D01*
X482375Y401486D01*
X482311Y401464D01*
X482245Y401451D01*
X482222Y401442D01*
X482176Y401452D01*
X482108Y401450D01*
X482039Y401458D01*
X481949Y401445D01*
X481859Y401442D01*
X481792Y401423D01*
X481724Y401413D01*
X481640Y401378D01*
X481553Y401353D01*
X481494Y401318D01*
X481430Y401291D01*
X481358Y401237D01*
X481280Y401191D01*
X481269Y401179D01*
X480158Y401056D01*
X480134Y401050D01*
X480110Y401049D01*
X479952Y401015D01*
X478874Y400710D01*
X478843Y400722D01*
X478775Y400731D01*
X478708Y400750D01*
X478618Y400752D01*
X478528Y400764D01*
X478459Y400756D01*
X478390Y400757D01*
X478302Y400737D01*
X478212Y400726D01*
X478148Y400701D01*
X478080Y400686D01*
X478000Y400644D01*
X477915Y400611D01*
X477903Y400602D01*
X476787Y400663D01*
X476762Y400661D01*
X476738Y400665D01*
X476577Y400657D01*
X475463Y400533D01*
X475435Y400550D01*
X475369Y400570D01*
X475306Y400600D01*
X475217Y400617D01*
X475131Y400643D01*
X475062Y400647D01*
X474994Y400660D01*
X474903Y400654D01*
X474813Y400658D01*
X474745Y400644D01*
X474677Y400640D01*
X474590Y400612D01*
X474502Y400594D01*
X474487Y400587D01*
X473397Y400830D01*
X473372Y400833D01*
X473349Y400840D01*
X473189Y400859D01*
X472070Y400920D01*
X472045Y400942D01*
X471983Y400973D01*
X471926Y401012D01*
X471841Y401043D01*
X471760Y401084D01*
X471693Y401098D01*
X471628Y401122D01*
X471538Y401132D01*
X471449Y401151D01*
X471380Y401148D01*
X471312Y401155D01*
X471222Y401142D01*
X471131Y401138D01*
X471116Y401134D01*
X470081Y401554D01*
X470057Y401560D01*
X470035Y401571D01*
X469880Y401616D01*
X468786Y401860D01*
X468765Y401886D01*
X468710Y401926D01*
X468660Y401974D01*
X468581Y402020D01*
X468508Y402073D01*
X468444Y402098D01*
X468384Y402132D01*
X468297Y402157D01*
X468212Y402190D01*
X468144Y402199D01*
X468077Y402217D01*
X467987Y402218D01*
X467897Y402230D01*
X467881Y402228D01*
X466929Y402813D01*
X466906Y402823D01*
X466886Y402837D01*
X466741Y402907D01*
X465702Y403328D01*
X465686Y403357D01*
X465638Y403406D01*
X465597Y403462D01*
X465526Y403519D01*
X465463Y403584D01*
X465404Y403619D01*
X465351Y403663D01*
X465268Y403701D01*
X465191Y403748D01*
X465124Y403768D01*
X465062Y403797D01*
X464973Y403813D01*
X464886Y403839D01*
X464870Y403840D01*
X464027Y404573D01*
X464007Y404587D01*
X463990Y404605D01*
X463858Y404697D01*
X462554Y405498D01*
X462435Y405551D01*
X462321Y405610D01*
X462291Y405617D01*
X462264Y405629D01*
X462136Y405651D01*
X462010Y405680D01*
X461980Y405679D01*
X461951Y405684D01*
X461822Y405674D01*
X461692Y405670D01*
X461664Y405662D01*
X461634Y405659D01*
X461511Y405618D01*
X461387Y405582D01*
X461361Y405566D01*
X461333Y405557D01*
X461224Y405486D01*
X461113Y405420D01*
X461081Y405392D01*
X461067Y405382D01*
X461052Y405366D01*
X460992Y405314D01*
X460251Y404572D01*
X457917Y403606D01*
X455390Y403606D01*
X453056Y404572D01*
X451270Y406359D01*
X450303Y408693D01*
X450303Y411220D01*
X451270Y413554D01*
X453056Y415340D01*
X454949Y416124D01*
X454990Y416148D01*
X455035Y416164D01*
X455128Y416226D01*
X455225Y416282D01*
X455259Y416315D01*
X455298Y416341D01*
X455373Y416425D01*
X455453Y416503D01*
X455478Y416543D01*
X455510Y416579D01*
X455561Y416679D01*
X455620Y416774D01*
X455634Y416819D01*
X455655Y416862D01*
X455680Y416971D01*
X455713Y417078D01*
X455716Y417125D01*
X455726Y417172D01*
X455732Y417333D01*
X455690Y418824D01*
X455686Y418848D01*
X455687Y418872D01*
X455666Y419032D01*
X455451Y420132D01*
X455466Y420162D01*
X455480Y420229D01*
X455504Y420294D01*
X455514Y420384D01*
X455533Y420472D01*
X455531Y420541D01*
X455538Y420610D01*
X455525Y420699D01*
X455522Y420790D01*
X455502Y420856D01*
X455493Y420924D01*
X455458Y421008D01*
X455432Y421095D01*
X455424Y421109D01*
X455577Y422216D01*
X455577Y422241D01*
X455582Y422264D01*
X455588Y422425D01*
X455556Y423546D01*
X455576Y423572D01*
X455601Y423637D01*
X455636Y423696D01*
X455660Y423783D01*
X455694Y423868D01*
X455703Y423936D01*
X455721Y424002D01*
X455723Y424093D01*
X455735Y424183D01*
X455726Y424252D01*
X455728Y424320D01*
X455707Y424409D01*
X455696Y424499D01*
X455690Y424513D01*
X456023Y425580D01*
X456028Y425604D01*
X456037Y425627D01*
X456069Y425785D01*
X456222Y426896D01*
X456246Y426919D01*
X456282Y426978D01*
X456326Y427031D01*
X456364Y427113D01*
X456411Y427190D01*
X456431Y427256D01*
X456460Y427319D01*
X456477Y427408D01*
X456503Y427495D01*
X456506Y427564D01*
X456519Y427631D01*
X456513Y427722D01*
X456517Y427813D01*
X456514Y427828D01*
X457018Y428825D01*
X457026Y428849D01*
X457039Y428869D01*
X457097Y429020D01*
X457431Y430090D01*
X457458Y430109D01*
X457503Y430161D01*
X457555Y430206D01*
X457606Y430281D01*
X457665Y430350D01*
X457696Y430412D01*
X457735Y430468D01*
X457766Y430553D01*
X457806Y430635D01*
X457821Y430702D01*
X457844Y430767D01*
X457853Y430857D01*
X457872Y430946D01*
X457872Y430962D01*
X458533Y431863D01*
X458545Y431884D01*
X458561Y431903D01*
X458643Y432041D01*
X459148Y433042D01*
X459178Y433056D01*
X459231Y433100D01*
X459290Y433136D01*
X459353Y433202D01*
X459422Y433260D01*
X459463Y433316D01*
X459511Y433365D01*
X459555Y433444D01*
X459609Y433518D01*
X459634Y433582D01*
X459668Y433642D01*
X459692Y433729D01*
X459725Y433814D01*
X459727Y433829D01*
X460527Y434609D01*
X460543Y434628D01*
X460562Y434644D01*
X460665Y434767D01*
X461328Y435671D01*
X461360Y435680D01*
X461420Y435715D01*
X461483Y435741D01*
X461556Y435795D01*
X461635Y435841D01*
X461684Y435889D01*
X461739Y435930D01*
X461796Y436001D01*
X461861Y436064D01*
X461896Y436124D01*
X461939Y436177D01*
X461977Y436259D01*
X462024Y436337D01*
X462032Y436364D01*
X462051Y436377D01*
X462114Y436446D01*
X462183Y436508D01*
X462220Y436563D01*
X462264Y436613D01*
X462308Y436695D01*
X462359Y436773D01*
X462381Y436836D01*
X462412Y436895D01*
X462433Y436985D01*
X462464Y437073D01*
X462470Y437139D01*
X462485Y437204D01*
X462483Y437297D01*
X462491Y437390D01*
X462480Y437456D01*
X462479Y437522D01*
X462454Y437612D01*
X462438Y437704D01*
X462411Y437764D01*
X462394Y437828D01*
X462322Y437973D01*
X439321Y477812D01*
X439674Y477914D01*
X439704Y477930D01*
X439750Y477942D01*
X442516Y479251D01*
X442538Y479268D01*
X442565Y479278D01*
X442617Y479327D01*
X442675Y479370D01*
X442689Y479395D01*
X442710Y479414D01*
X442739Y479480D01*
X442775Y479542D01*
X442778Y479570D01*
X442790Y479596D01*
X442791Y479668D01*
X442800Y479739D01*
X442792Y479766D01*
X442793Y479795D01*
X442757Y479890D01*
X442746Y479930D01*
X442739Y479939D01*
X442735Y479951D01*
X433235Y496451D01*
X433183Y496510D01*
X433137Y496572D01*
X433118Y496583D01*
X433103Y496600D01*
X433033Y496634D01*
X432966Y496674D01*
X432942Y496678D01*
X432924Y496686D01*
X432879Y496688D01*
X432802Y496701D01*
X413802Y496701D01*
X413774Y496696D01*
X413746Y496698D01*
X413678Y496676D01*
X413607Y496662D01*
X413584Y496646D01*
X413557Y496637D01*
X413502Y496590D01*
X413443Y496549D01*
X413428Y496525D01*
X413407Y496507D01*
X413375Y496442D01*
X413336Y496382D01*
X413331Y496354D01*
X413319Y496328D01*
X413310Y496227D01*
X413303Y496185D01*
X413305Y496175D01*
X413304Y496162D01*
X413547Y493112D01*
X413556Y493080D01*
X413560Y493033D01*
X413653Y492653D01*
X380985Y492653D01*
X380936Y492647D01*
X380886Y492649D01*
X380779Y492627D01*
X380670Y492613D01*
X380623Y492595D01*
X380575Y492585D01*
X380476Y492537D01*
X380374Y492496D01*
X380334Y492467D01*
X380289Y492445D01*
X380206Y492374D01*
X380116Y492310D01*
X380085Y492271D01*
X380047Y492239D01*
X379984Y492149D01*
X379914Y492065D01*
X379892Y492020D01*
X379864Y491979D01*
X379825Y491876D01*
X379778Y491777D01*
X379769Y491728D01*
X379751Y491682D01*
X379739Y491572D01*
X379718Y491465D01*
X379721Y491415D01*
X379716Y491366D01*
X379731Y491257D01*
X379738Y491147D01*
X379753Y491100D01*
X379760Y491051D01*
X379812Y490898D01*
X380846Y488404D01*
X380846Y485686D01*
X379779Y483112D01*
X379748Y482997D01*
X379709Y482885D01*
X379706Y482844D01*
X379695Y482805D01*
X379694Y482686D01*
X379684Y482568D01*
X379691Y482528D01*
X379690Y482487D01*
X379718Y482371D01*
X379739Y482254D01*
X379755Y482217D01*
X379765Y482178D01*
X379820Y482073D01*
X379869Y481964D01*
X379894Y481933D01*
X379913Y481897D01*
X379993Y481809D01*
X380068Y481716D01*
X380100Y481691D01*
X380127Y481662D01*
X380227Y481596D01*
X380322Y481525D01*
X380376Y481498D01*
X380393Y481487D01*
X380412Y481480D01*
X380466Y481454D01*
X381769Y480914D01*
X383330Y479353D01*
X384175Y477314D01*
X384175Y470106D01*
X383330Y468067D01*
X381769Y466506D01*
X379730Y465661D01*
X366522Y465661D01*
X364483Y466506D01*
X362922Y468067D01*
X362756Y468467D01*
X362732Y468510D01*
X362715Y468557D01*
X362653Y468648D01*
X362599Y468743D01*
X362564Y468779D01*
X362536Y468820D01*
X362454Y468893D01*
X362378Y468972D01*
X362335Y468997D01*
X362298Y469030D01*
X362200Y469080D01*
X362106Y469138D01*
X362059Y469152D01*
X362015Y469175D01*
X361907Y469199D01*
X361802Y469231D01*
X361753Y469234D01*
X361704Y469245D01*
X361595Y469241D01*
X361485Y469247D01*
X361436Y469236D01*
X361387Y469235D01*
X361281Y469204D01*
X361173Y469182D01*
X361129Y469160D01*
X361081Y469147D01*
X360987Y469091D01*
X360888Y469043D01*
X360850Y469010D01*
X360807Y468985D01*
X360686Y468879D01*
X346320Y454513D01*
X346260Y454435D01*
X346192Y454362D01*
X346163Y454309D01*
X346126Y454262D01*
X346086Y454171D01*
X346038Y454084D01*
X346023Y454025D01*
X345999Y453970D01*
X345984Y453872D01*
X345959Y453776D01*
X345954Y453694D01*
X345951Y453681D01*
X345952Y453672D01*
X345949Y453656D01*
X345951Y453643D01*
X345949Y453615D01*
X345949Y449355D01*
X345961Y449256D01*
X345964Y449157D01*
X345981Y449099D01*
X345989Y449039D01*
X346025Y448947D01*
X346053Y448852D01*
X346083Y448800D01*
X346106Y448743D01*
X346164Y448663D01*
X346214Y448578D01*
X346280Y448503D01*
X346292Y448486D01*
X346302Y448478D01*
X346320Y448457D01*
X347083Y447694D01*
X347161Y447634D01*
X347234Y447566D01*
X347287Y447537D01*
X347334Y447500D01*
X347425Y447460D01*
X347512Y447412D01*
X347571Y447397D01*
X347626Y447373D01*
X347724Y447358D01*
X347820Y447333D01*
X347920Y447327D01*
X347940Y447323D01*
X347953Y447325D01*
X347981Y447323D01*
X352951Y447323D01*
X355481Y444793D01*
X355481Y433176D01*
X355471Y433138D01*
X355465Y433038D01*
X355461Y433018D01*
X355462Y433005D01*
X355461Y432977D01*
X355461Y430915D01*
X353309Y428763D01*
X316980Y428763D01*
X316862Y428748D01*
X316743Y428741D01*
X316705Y428729D01*
X316664Y428723D01*
X316554Y428680D01*
X316440Y428643D01*
X316406Y428621D01*
X316369Y428606D01*
X316272Y428537D01*
X316172Y428473D01*
X316144Y428443D01*
X316111Y428420D01*
X316035Y428328D01*
X315954Y428241D01*
X315934Y428206D01*
X315909Y428175D01*
X315858Y428067D01*
X315800Y427963D01*
X315790Y427923D01*
X315773Y427887D01*
X315751Y427770D01*
X315721Y427655D01*
X315717Y427595D01*
X315713Y427575D01*
X315714Y427554D01*
X315711Y427494D01*
X315711Y426165D01*
X313755Y424209D01*
X313682Y424115D01*
X313603Y424026D01*
X313585Y423990D01*
X313560Y423958D01*
X313513Y423849D01*
X313458Y423743D01*
X313450Y423704D01*
X313434Y423666D01*
X313415Y423549D01*
X313389Y423433D01*
X313390Y423392D01*
X313384Y423352D01*
X313395Y423234D01*
X313398Y423115D01*
X313410Y423076D01*
X313414Y423036D01*
X313454Y422924D01*
X313487Y422809D01*
X313507Y422774D01*
X313521Y422736D01*
X313588Y422638D01*
X313648Y422535D01*
X313688Y422490D01*
X313700Y422473D01*
X313715Y422460D01*
X313755Y422414D01*
X315711Y420459D01*
X315711Y374130D01*
X315726Y374012D01*
X315733Y373893D01*
X315745Y373855D01*
X315751Y373814D01*
X315794Y373704D01*
X315831Y373590D01*
X315853Y373556D01*
X315868Y373519D01*
X315937Y373422D01*
X316001Y373322D01*
X316031Y373294D01*
X316054Y373261D01*
X316146Y373185D01*
X316233Y373104D01*
X316268Y373084D01*
X316299Y373059D01*
X316407Y373008D01*
X316511Y372950D01*
X316551Y372940D01*
X316587Y372923D01*
X316704Y372901D01*
X316819Y372871D01*
X316879Y372867D01*
X316899Y372863D01*
X316920Y372864D01*
X316980Y372861D01*
X318309Y372861D01*
X320265Y370905D01*
X320359Y370832D01*
X320448Y370753D01*
X320484Y370735D01*
X320516Y370710D01*
X320625Y370663D01*
X320731Y370608D01*
X320770Y370600D01*
X320808Y370584D01*
X320925Y370565D01*
X321041Y370539D01*
X321082Y370540D01*
X321122Y370534D01*
X321240Y370545D01*
X321359Y370548D01*
X321398Y370560D01*
X321438Y370564D01*
X321550Y370604D01*
X321665Y370637D01*
X321700Y370657D01*
X321738Y370671D01*
X321836Y370738D01*
X321939Y370798D01*
X321984Y370838D01*
X322001Y370850D01*
X322014Y370865D01*
X322060Y370905D01*
X324015Y372861D01*
X370344Y372861D01*
X370462Y372876D01*
X370581Y372883D01*
X370619Y372895D01*
X370660Y372901D01*
X370770Y372944D01*
X370884Y372981D01*
X370918Y373003D01*
X370955Y373018D01*
X371052Y373087D01*
X371152Y373151D01*
X371180Y373181D01*
X371213Y373204D01*
X371289Y373296D01*
X371370Y373383D01*
X371390Y373418D01*
X371415Y373449D01*
X371466Y373557D01*
X371524Y373661D01*
X371534Y373701D01*
X371551Y373737D01*
X371573Y373854D01*
X371603Y373969D01*
X371607Y374029D01*
X371611Y374049D01*
X371610Y374070D01*
X371613Y374130D01*
X371613Y427494D01*
X371598Y427612D01*
X371591Y427731D01*
X371579Y427769D01*
X371573Y427810D01*
X371530Y427920D01*
X371493Y428034D01*
X371471Y428068D01*
X371456Y428105D01*
X371387Y428202D01*
X371323Y428302D01*
X371293Y428330D01*
X371270Y428363D01*
X371178Y428439D01*
X371091Y428520D01*
X371056Y428540D01*
X371025Y428565D01*
X370917Y428616D01*
X370813Y428674D01*
X370773Y428684D01*
X370737Y428701D01*
X370620Y428723D01*
X370505Y428753D01*
X370445Y428757D01*
X370425Y428761D01*
X370404Y428760D01*
X370344Y428763D01*
X369015Y428763D01*
X366863Y430915D01*
X366863Y432977D01*
X366851Y433076D01*
X366848Y433175D01*
X366843Y433191D01*
X366843Y437455D01*
X366853Y437493D01*
X366859Y437593D01*
X366863Y437613D01*
X366862Y437625D01*
X366863Y437653D01*
X366863Y439709D01*
X369015Y441861D01*
X371071Y441861D01*
X371169Y441873D01*
X371268Y441876D01*
X371326Y441893D01*
X371386Y441901D01*
X371478Y441937D01*
X371573Y441965D01*
X371626Y441995D01*
X371682Y442018D01*
X371762Y442076D01*
X371847Y442126D01*
X371923Y442193D01*
X371939Y442205D01*
X371947Y442214D01*
X371968Y442233D01*
X375736Y446000D01*
X375796Y446078D01*
X375864Y446150D01*
X375894Y446203D01*
X375931Y446251D01*
X375970Y446342D01*
X376018Y446429D01*
X376033Y446487D01*
X376057Y446543D01*
X376073Y446641D01*
X376097Y446737D01*
X376104Y446837D01*
X376107Y446857D01*
X376106Y446870D01*
X376107Y446898D01*
X376107Y455076D01*
X377893Y456862D01*
X391419Y456862D01*
X393313Y454968D01*
X393343Y454884D01*
X393354Y454867D01*
X393362Y454848D01*
X393443Y454736D01*
X393522Y454620D01*
X393537Y454607D01*
X393549Y454591D01*
X393656Y454502D01*
X393760Y454410D01*
X393778Y454401D01*
X393794Y454388D01*
X393919Y454329D01*
X394043Y454265D01*
X394063Y454261D01*
X394081Y454252D01*
X394218Y454226D01*
X394354Y454196D01*
X394374Y454196D01*
X394394Y454193D01*
X394532Y454201D01*
X394671Y454205D01*
X394691Y454211D01*
X394711Y454212D01*
X394843Y454255D01*
X394977Y454294D01*
X394994Y454304D01*
X395014Y454310D01*
X395131Y454385D01*
X395251Y454455D01*
X395272Y454474D01*
X395282Y454481D01*
X395296Y454495D01*
X395372Y454562D01*
X396181Y455371D01*
X398691Y456411D01*
X401409Y456411D01*
X403919Y455371D01*
X405841Y453449D01*
X406881Y450939D01*
X406881Y448221D01*
X405841Y445711D01*
X405835Y445705D01*
X405762Y445611D01*
X405683Y445521D01*
X405664Y445485D01*
X405640Y445453D01*
X405592Y445344D01*
X405538Y445238D01*
X405529Y445199D01*
X405513Y445161D01*
X405495Y445044D01*
X405469Y444928D01*
X405470Y444887D01*
X405463Y444847D01*
X405475Y444729D01*
X405478Y444610D01*
X405489Y444571D01*
X405493Y444531D01*
X405533Y444419D01*
X405567Y444304D01*
X405587Y444269D01*
X405601Y444231D01*
X405668Y444133D01*
X405728Y444030D01*
X405768Y443985D01*
X405779Y443968D01*
X405795Y443955D01*
X405835Y443909D01*
X407477Y442267D01*
X407477Y429741D01*
X405692Y427955D01*
X397513Y427955D01*
X397415Y427943D01*
X397316Y427940D01*
X397258Y427923D01*
X397198Y427915D01*
X397106Y427879D01*
X397011Y427851D01*
X396958Y427820D01*
X396902Y427798D01*
X396822Y427740D01*
X396737Y427690D01*
X396661Y427623D01*
X396645Y427611D01*
X396637Y427602D01*
X396616Y427583D01*
X393026Y423993D01*
X385980Y423993D01*
X385862Y423978D01*
X385743Y423971D01*
X385705Y423958D01*
X385665Y423953D01*
X385554Y423910D01*
X385441Y423873D01*
X385406Y423851D01*
X385369Y423836D01*
X385273Y423767D01*
X385172Y423703D01*
X385144Y423673D01*
X385111Y423650D01*
X385036Y423558D01*
X384954Y423471D01*
X384934Y423436D01*
X384909Y423405D01*
X384858Y423297D01*
X384800Y423193D01*
X384790Y423153D01*
X384773Y423117D01*
X384751Y423000D01*
X384721Y422885D01*
X384717Y422825D01*
X384713Y422805D01*
X384715Y422784D01*
X384711Y422724D01*
X384711Y413900D01*
X384726Y413782D01*
X384733Y413663D01*
X384746Y413625D01*
X384751Y413584D01*
X384794Y413474D01*
X384831Y413361D01*
X384853Y413326D01*
X384868Y413289D01*
X384938Y413193D01*
X385001Y413092D01*
X385031Y413064D01*
X385055Y413031D01*
X385146Y412955D01*
X385233Y412874D01*
X385268Y412854D01*
X385299Y412829D01*
X385407Y412778D01*
X385511Y412720D01*
X385551Y412710D01*
X385587Y412693D01*
X385704Y412671D01*
X385819Y412641D01*
X385880Y412637D01*
X385900Y412633D01*
X385920Y412635D01*
X385980Y412631D01*
X390757Y412631D01*
X390856Y412643D01*
X390955Y412646D01*
X391013Y412663D01*
X391073Y412671D01*
X391165Y412707D01*
X391260Y412735D01*
X391312Y412765D01*
X391369Y412788D01*
X391449Y412846D01*
X391534Y412896D01*
X391609Y412962D01*
X391626Y412974D01*
X391634Y412984D01*
X391655Y413002D01*
X400801Y422149D01*
X402647Y422149D01*
X402745Y422161D01*
X402844Y422164D01*
X402902Y422181D01*
X402962Y422189D01*
X403054Y422225D01*
X403149Y422253D01*
X403202Y422283D01*
X403258Y422306D01*
X403338Y422364D01*
X403423Y422414D01*
X403499Y422480D01*
X403515Y422492D01*
X403523Y422502D01*
X403544Y422521D01*
X403692Y422669D01*
X420218Y422669D01*
X422004Y420883D01*
X422004Y414357D01*
X420218Y412571D01*
X403965Y412571D01*
X403867Y412559D01*
X403768Y412556D01*
X403709Y412539D01*
X403649Y412532D01*
X403557Y412495D01*
X403462Y412468D01*
X403410Y412437D01*
X403354Y412415D01*
X403274Y412356D01*
X403188Y412306D01*
X403113Y412240D01*
X403096Y412228D01*
X403088Y412218D01*
X403067Y412200D01*
X397530Y406663D01*
X397457Y406568D01*
X397378Y406479D01*
X397360Y406443D01*
X397335Y406411D01*
X397288Y406302D01*
X397234Y406196D01*
X397225Y406157D01*
X397209Y406119D01*
X397190Y406002D01*
X397164Y405886D01*
X397165Y405845D01*
X397159Y405805D01*
X397170Y405687D01*
X397174Y405568D01*
X397185Y405529D01*
X397189Y405489D01*
X397229Y405376D01*
X397262Y405262D01*
X397283Y405228D01*
X397296Y405189D01*
X397363Y405091D01*
X397424Y404988D01*
X397464Y404943D01*
X397475Y404926D01*
X397490Y404913D01*
X397530Y404868D01*
X403357Y399041D01*
X403435Y398980D01*
X403507Y398912D01*
X403560Y398883D01*
X403608Y398846D01*
X403699Y398806D01*
X403786Y398759D01*
X403844Y398744D01*
X403900Y398719D01*
X403998Y398704D01*
X404094Y398679D01*
X404194Y398673D01*
X404214Y398670D01*
X404226Y398671D01*
X404254Y398669D01*
X420218Y398669D01*
X422004Y396883D01*
X422004Y390357D01*
X420402Y388755D01*
X420317Y388646D01*
X420228Y388539D01*
X420219Y388520D01*
X420207Y388504D01*
X420152Y388376D01*
X420093Y388251D01*
X420089Y388231D01*
X420081Y388212D01*
X420059Y388074D01*
X420033Y387938D01*
X420034Y387918D01*
X420031Y387898D01*
X420044Y387759D01*
X420053Y387621D01*
X420059Y387602D01*
X420061Y387582D01*
X420108Y387450D01*
X420151Y387319D01*
X420161Y387301D01*
X420168Y387282D01*
X420246Y387167D01*
X420321Y387050D01*
X420336Y387036D01*
X420347Y387019D01*
X420451Y386927D01*
X420552Y386832D01*
X420570Y386822D01*
X420585Y386809D01*
X420709Y386745D01*
X420831Y386678D01*
X420850Y386673D01*
X420869Y386664D01*
X421004Y386634D01*
X421139Y386599D01*
X421167Y386597D01*
X421179Y386594D01*
X421199Y386595D01*
X421299Y386589D01*
X446411Y386589D01*
X446441Y386592D01*
X446470Y386590D01*
X446598Y386612D01*
X446727Y386629D01*
X446754Y386639D01*
X446783Y386645D01*
X446902Y386698D01*
X447022Y386746D01*
X447046Y386763D01*
X447073Y386775D01*
X447175Y386856D01*
X447280Y386932D01*
X447299Y386955D01*
X447322Y386974D01*
X447400Y387077D01*
X447483Y387177D01*
X447495Y387204D01*
X447513Y387228D01*
X447584Y387372D01*
X447599Y387409D01*
X449521Y389331D01*
X452031Y390371D01*
X454749Y390371D01*
X457259Y389331D01*
X458360Y388230D01*
X458438Y388170D01*
X458510Y388102D01*
X458563Y388073D01*
X458611Y388036D01*
X458702Y387996D01*
X458788Y387948D01*
X458847Y387933D01*
X458903Y387909D01*
X459001Y387894D01*
X459096Y387869D01*
X459196Y387863D01*
X459217Y387859D01*
X459229Y387861D01*
X459257Y387859D01*
X461347Y387859D01*
X461377Y387862D01*
X461406Y387860D01*
X461534Y387882D01*
X461663Y387899D01*
X461690Y387909D01*
X461719Y387914D01*
X461838Y387968D01*
X461959Y388016D01*
X461982Y388033D01*
X462009Y388045D01*
X462111Y388126D01*
X462216Y388202D01*
X462235Y388225D01*
X462258Y388244D01*
X462336Y388347D01*
X462419Y388447D01*
X462431Y388474D01*
X462449Y388498D01*
X462520Y388642D01*
X462744Y389183D01*
X464305Y390744D01*
X466344Y391589D01*
X479552Y391589D01*
X481591Y390744D01*
X483152Y389183D01*
X483997Y387144D01*
X483997Y379936D01*
X483152Y377897D01*
X481591Y376336D01*
X479552Y375491D01*
X466344Y375491D01*
X465126Y375996D01*
X465078Y376009D01*
X465033Y376030D01*
X464926Y376051D01*
X464819Y376080D01*
X464770Y376081D01*
X464721Y376090D01*
X464612Y376083D01*
X464502Y376085D01*
X464453Y376073D01*
X464404Y376070D01*
X464299Y376036D01*
X464192Y376011D01*
X464148Y375987D01*
X464101Y375972D01*
X464008Y375913D01*
X463911Y375862D01*
X463874Y375829D01*
X463832Y375802D01*
X463757Y375722D01*
X463676Y375648D01*
X463649Y375607D01*
X463614Y375570D01*
X463561Y375474D01*
X463501Y375382D01*
X463485Y375335D01*
X463461Y375292D01*
X463434Y375186D01*
X463398Y375082D01*
X463394Y375032D01*
X463381Y374984D01*
X463371Y374823D01*
X463371Y363694D01*
X461585Y361908D01*
X448060Y361908D01*
X446303Y363665D01*
X446193Y363751D01*
X446086Y363839D01*
X446068Y363848D01*
X446052Y363860D01*
X445924Y363916D01*
X445798Y363975D01*
X445778Y363978D01*
X445760Y363987D01*
X445622Y364008D01*
X445486Y364034D01*
X445466Y364033D01*
X445446Y364036D01*
X445307Y364023D01*
X445168Y364015D01*
X445149Y364009D01*
X445129Y364007D01*
X444998Y363959D01*
X444866Y363917D01*
X444849Y363906D01*
X444830Y363899D01*
X444715Y363821D01*
X444597Y363747D01*
X444583Y363732D01*
X444567Y363720D01*
X444475Y363616D01*
X444379Y363515D01*
X444370Y363497D01*
X444356Y363482D01*
X444293Y363358D01*
X444226Y363236D01*
X444221Y363217D01*
X444212Y363199D01*
X444181Y363063D01*
X444180Y363059D01*
X443296Y362175D01*
X443223Y362081D01*
X443145Y361992D01*
X443126Y361956D01*
X443102Y361924D01*
X443054Y361815D01*
X443000Y361709D01*
X442991Y361670D01*
X442975Y361632D01*
X442956Y361514D01*
X442930Y361399D01*
X442932Y361358D01*
X442925Y361318D01*
X442936Y361200D01*
X442940Y361081D01*
X442951Y361042D01*
X442955Y361002D01*
X442995Y360890D01*
X443029Y360775D01*
X443049Y360740D01*
X443063Y360702D01*
X443130Y360604D01*
X443190Y360501D01*
X443230Y360456D01*
X443241Y360439D01*
X443257Y360426D01*
X443296Y360380D01*
X444136Y359541D01*
X444136Y344015D01*
X442350Y342229D01*
X439175Y342229D01*
X439057Y342214D01*
X438938Y342207D01*
X438900Y342194D01*
X438860Y342189D01*
X438749Y342146D01*
X438636Y342109D01*
X438602Y342087D01*
X438564Y342072D01*
X438468Y342002D01*
X438367Y341939D01*
X438340Y341909D01*
X438307Y341886D01*
X438231Y341794D01*
X438149Y341707D01*
X438130Y341672D01*
X438104Y341641D01*
X438053Y341533D01*
X437996Y341429D01*
X437986Y341389D01*
X437968Y341353D01*
X437946Y341236D01*
X437916Y341121D01*
X437913Y341060D01*
X437909Y341040D01*
X437910Y341020D01*
X437906Y340960D01*
X437906Y331469D01*
X427769Y321331D01*
X427751Y321308D01*
X427728Y321289D01*
X427654Y321183D01*
X427574Y321080D01*
X427562Y321053D01*
X427545Y321029D01*
X427499Y320907D01*
X427447Y320788D01*
X427443Y320759D01*
X427432Y320731D01*
X427418Y320602D01*
X427398Y320474D01*
X427400Y320444D01*
X427397Y320415D01*
X427415Y320287D01*
X427427Y320157D01*
X427437Y320129D01*
X427441Y320100D01*
X427494Y319948D01*
X428471Y317589D01*
X428471Y314871D01*
X427431Y312361D01*
X425509Y310439D01*
X422999Y309399D01*
X422403Y309399D01*
X422265Y309382D01*
X422126Y309369D01*
X422107Y309362D01*
X422087Y309359D01*
X421958Y309308D01*
X421827Y309261D01*
X421810Y309250D01*
X421791Y309242D01*
X421679Y309161D01*
X421564Y309083D01*
X421550Y309067D01*
X421534Y309056D01*
X421445Y308948D01*
X421353Y308844D01*
X421344Y308826D01*
X421331Y308811D01*
X421272Y308685D01*
X421209Y308561D01*
X421204Y308541D01*
X421196Y308523D01*
X421170Y308387D01*
X421139Y308251D01*
X421140Y308230D01*
X421136Y308211D01*
X421145Y308072D01*
X421149Y307933D01*
X421154Y307913D01*
X421156Y307893D01*
X421198Y307761D01*
X421237Y307627D01*
X421247Y307610D01*
X421254Y307591D01*
X421328Y307473D01*
X421399Y307353D01*
X421417Y307332D01*
X421424Y307322D01*
X421439Y307308D01*
X421505Y307233D01*
X435733Y293005D01*
X435811Y292944D01*
X435883Y292876D01*
X435936Y292847D01*
X435984Y292810D01*
X436075Y292771D01*
X436161Y292723D01*
X436220Y292708D01*
X436276Y292684D01*
X436374Y292668D01*
X436469Y292644D01*
X436569Y292637D01*
X436590Y292634D01*
X436602Y292635D01*
X436630Y292633D01*
X449193Y292633D01*
X449291Y292646D01*
X449390Y292649D01*
X449448Y292666D01*
X449508Y292673D01*
X449600Y292710D01*
X449695Y292737D01*
X449748Y292768D01*
X449804Y292790D01*
X449884Y292848D01*
X449969Y292899D01*
X450045Y292965D01*
X450061Y292977D01*
X450069Y292986D01*
X450090Y293005D01*
X451191Y294105D01*
X453701Y295145D01*
X456419Y295145D01*
X458929Y294105D01*
X460851Y292184D01*
X461891Y289673D01*
X461891Y288767D01*
X461909Y288619D01*
X461926Y288471D01*
X461929Y288462D01*
X461930Y288452D01*
X461985Y288313D01*
X462038Y288173D01*
X462044Y288165D01*
X462047Y288156D01*
X462135Y288035D01*
X462221Y287913D01*
X462229Y287907D01*
X462234Y287899D01*
X462350Y287803D01*
X462463Y287707D01*
X462472Y287702D01*
X462479Y287696D01*
X462614Y287632D01*
X462749Y287567D01*
X462758Y287565D01*
X462767Y287561D01*
X462913Y287533D01*
X463060Y287502D01*
X463070Y287503D01*
X463079Y287501D01*
X463228Y287510D01*
G37*
G36*
X265491Y370085D02*
X265491Y370085D01*
X265541Y370083D01*
X265648Y370105D01*
X265757Y370119D01*
X265804Y370137D01*
X265852Y370147D01*
X265951Y370195D01*
X266053Y370236D01*
X266093Y370265D01*
X266138Y370287D01*
X266221Y370358D01*
X266310Y370422D01*
X266342Y370461D01*
X266380Y370493D01*
X266443Y370583D01*
X266513Y370667D01*
X266534Y370712D01*
X266563Y370753D01*
X266602Y370856D01*
X266649Y370955D01*
X266658Y371004D01*
X266676Y371050D01*
X266688Y371160D01*
X266708Y371267D01*
X266705Y371317D01*
X266711Y371366D01*
X266695Y371475D01*
X266689Y371585D01*
X266673Y371632D01*
X266666Y371681D01*
X266614Y371834D01*
X265763Y373888D01*
X265763Y387096D01*
X266608Y389135D01*
X267943Y390470D01*
X267961Y390493D01*
X267983Y390512D01*
X268058Y390618D01*
X268137Y390721D01*
X268149Y390748D01*
X268166Y390772D01*
X268212Y390894D01*
X268264Y391013D01*
X268268Y391042D01*
X268279Y391069D01*
X268293Y391198D01*
X268314Y391327D01*
X268311Y391356D01*
X268314Y391386D01*
X268296Y391514D01*
X268284Y391643D01*
X268274Y391671D01*
X268270Y391700D01*
X268218Y391853D01*
X267489Y393611D01*
X267489Y396329D01*
X268529Y398839D01*
X269122Y399432D01*
X269182Y399510D01*
X269250Y399582D01*
X269279Y399635D01*
X269316Y399683D01*
X269356Y399774D01*
X269404Y399860D01*
X269419Y399919D01*
X269443Y399975D01*
X269458Y400073D01*
X269483Y400168D01*
X269489Y400268D01*
X269493Y400289D01*
X269491Y400301D01*
X269493Y400329D01*
X269493Y401331D01*
X290793Y422631D01*
X299717Y422631D01*
X299855Y422648D01*
X299994Y422661D01*
X300013Y422668D01*
X300033Y422671D01*
X300162Y422722D01*
X300293Y422769D01*
X300310Y422780D01*
X300329Y422788D01*
X300441Y422869D01*
X300556Y422947D01*
X300570Y422963D01*
X300586Y422974D01*
X300675Y423082D01*
X300767Y423186D01*
X300776Y423204D01*
X300789Y423219D01*
X300848Y423345D01*
X300911Y423469D01*
X300916Y423489D01*
X300924Y423507D01*
X300950Y423643D01*
X300981Y423779D01*
X300980Y423800D01*
X300984Y423819D01*
X300976Y423957D01*
X300971Y424097D01*
X300966Y424117D01*
X300964Y424137D01*
X300922Y424269D01*
X300883Y424403D01*
X300873Y424420D01*
X300866Y424439D01*
X300792Y424557D01*
X300721Y424677D01*
X300703Y424698D01*
X300696Y424708D01*
X300681Y424722D01*
X300615Y424797D01*
X298889Y426523D01*
X298889Y426536D01*
X298877Y426634D01*
X298874Y426733D01*
X298857Y426792D01*
X298849Y426852D01*
X298813Y426944D01*
X298785Y427039D01*
X298755Y427091D01*
X298732Y427147D01*
X298674Y427227D01*
X298624Y427313D01*
X298558Y427388D01*
X298546Y427405D01*
X298536Y427413D01*
X298518Y427434D01*
X295782Y430169D01*
X295782Y434757D01*
X295767Y434875D01*
X295760Y434994D01*
X295747Y435032D01*
X295742Y435072D01*
X295699Y435183D01*
X295662Y435296D01*
X295640Y435330D01*
X295625Y435368D01*
X295556Y435464D01*
X295492Y435565D01*
X295462Y435593D01*
X295439Y435625D01*
X295347Y435701D01*
X295260Y435783D01*
X295225Y435802D01*
X295194Y435828D01*
X295086Y435879D01*
X294982Y435936D01*
X294942Y435947D01*
X294906Y435964D01*
X294789Y435986D01*
X294674Y436016D01*
X294614Y436020D01*
X294594Y436024D01*
X294573Y436022D01*
X294513Y436026D01*
X291128Y436026D01*
X291030Y436014D01*
X290931Y436011D01*
X290873Y435994D01*
X290813Y435986D01*
X290720Y435950D01*
X290676Y435937D01*
X286787Y435937D01*
X286731Y435952D01*
X286675Y435976D01*
X286577Y435991D01*
X286481Y436016D01*
X286381Y436022D01*
X286361Y436025D01*
X286349Y436024D01*
X286321Y436026D01*
X282462Y436026D01*
X281132Y437355D01*
X281023Y437440D01*
X280916Y437529D01*
X280897Y437538D01*
X280881Y437550D01*
X280753Y437606D01*
X280628Y437665D01*
X280608Y437668D01*
X280589Y437677D01*
X280451Y437698D01*
X280315Y437724D01*
X280295Y437723D01*
X280275Y437726D01*
X280136Y437713D01*
X279998Y437705D01*
X279979Y437698D01*
X279959Y437697D01*
X279827Y437649D01*
X279696Y437607D01*
X279678Y437596D01*
X279659Y437589D01*
X279544Y437511D01*
X279427Y437436D01*
X279413Y437422D01*
X279396Y437410D01*
X279304Y437306D01*
X279209Y437205D01*
X279199Y437187D01*
X279186Y437172D01*
X279122Y437048D01*
X279055Y436926D01*
X279050Y436907D01*
X279041Y436889D01*
X279011Y436753D01*
X278976Y436618D01*
X278974Y436590D01*
X278971Y436578D01*
X278972Y436558D01*
X278966Y436458D01*
X278966Y432659D01*
X277180Y430873D01*
X259654Y430873D01*
X257858Y432669D01*
X257853Y432708D01*
X257846Y432827D01*
X257833Y432865D01*
X257828Y432906D01*
X257785Y433016D01*
X257748Y433129D01*
X257726Y433164D01*
X257711Y433201D01*
X257641Y433297D01*
X257578Y433398D01*
X257548Y433426D01*
X257525Y433459D01*
X257433Y433535D01*
X257346Y433616D01*
X257311Y433636D01*
X257280Y433661D01*
X257172Y433712D01*
X257068Y433770D01*
X257028Y433780D01*
X256992Y433797D01*
X256875Y433819D01*
X256760Y433849D01*
X256699Y433853D01*
X256679Y433857D01*
X256659Y433855D01*
X256599Y433859D01*
X253911Y433859D01*
X251401Y434899D01*
X249479Y436821D01*
X248439Y439331D01*
X248439Y442049D01*
X249479Y444559D01*
X251401Y446481D01*
X253911Y447521D01*
X256679Y447521D01*
X256777Y447533D01*
X256876Y447536D01*
X256934Y447553D01*
X256994Y447561D01*
X257087Y447597D01*
X257182Y447625D01*
X257234Y447655D01*
X257290Y447678D01*
X257370Y447736D01*
X257456Y447786D01*
X257531Y447852D01*
X257547Y447864D01*
X257555Y447874D01*
X257576Y447892D01*
X259654Y449970D01*
X277180Y449970D01*
X277885Y449265D01*
X277963Y449205D01*
X278035Y449137D01*
X278088Y449107D01*
X278136Y449070D01*
X278227Y449031D01*
X278314Y448983D01*
X278372Y448968D01*
X278428Y448944D01*
X278526Y448929D01*
X278621Y448904D01*
X278721Y448897D01*
X278742Y448894D01*
X278754Y448895D01*
X278782Y448894D01*
X279406Y448894D01*
X279525Y448909D01*
X279643Y448916D01*
X279682Y448928D01*
X279722Y448933D01*
X279833Y448977D01*
X279946Y449014D01*
X279980Y449036D01*
X280018Y449050D01*
X280114Y449120D01*
X280215Y449184D01*
X280242Y449214D01*
X280275Y449237D01*
X280351Y449329D01*
X280432Y449416D01*
X280452Y449451D01*
X280478Y449482D01*
X280528Y449590D01*
X280586Y449694D01*
X280596Y449733D01*
X280613Y449770D01*
X280636Y449887D01*
X280665Y450002D01*
X280669Y450062D01*
X280673Y450082D01*
X280672Y450103D01*
X280676Y450163D01*
X280676Y451338D01*
X282462Y453124D01*
X294987Y453124D01*
X296773Y451338D01*
X296773Y449707D01*
X296788Y449589D01*
X296795Y449470D01*
X296808Y449432D01*
X296813Y449391D01*
X296857Y449281D01*
X296893Y449168D01*
X296915Y449133D01*
X296930Y449096D01*
X297000Y449000D01*
X297064Y448899D01*
X297093Y448871D01*
X297117Y448838D01*
X297209Y448762D01*
X297295Y448681D01*
X297301Y448678D01*
X303658Y442321D01*
X303658Y433957D01*
X303670Y433859D01*
X303673Y433760D01*
X303690Y433701D01*
X303698Y433641D01*
X303734Y433549D01*
X303762Y433454D01*
X303792Y433402D01*
X303815Y433346D01*
X303873Y433266D01*
X303923Y433180D01*
X303989Y433105D01*
X304001Y433088D01*
X304011Y433080D01*
X304029Y433059D01*
X304086Y433002D01*
X304165Y432942D01*
X304237Y432874D01*
X304290Y432845D01*
X304338Y432808D01*
X304429Y432768D01*
X304515Y432720D01*
X304574Y432705D01*
X304629Y432681D01*
X304727Y432666D01*
X304823Y432641D01*
X304923Y432635D01*
X304944Y432631D01*
X304956Y432633D01*
X304984Y432631D01*
X310574Y432631D01*
X310692Y432646D01*
X310811Y432653D01*
X310849Y432666D01*
X310890Y432671D01*
X311000Y432714D01*
X311113Y432751D01*
X311148Y432773D01*
X311185Y432788D01*
X311281Y432857D01*
X311382Y432921D01*
X311410Y432951D01*
X311443Y432974D01*
X311519Y433066D01*
X311600Y433153D01*
X311620Y433188D01*
X311645Y433219D01*
X311696Y433327D01*
X311754Y433431D01*
X311764Y433471D01*
X311781Y433507D01*
X311803Y433624D01*
X311833Y433739D01*
X311837Y433799D01*
X311841Y433819D01*
X311839Y433840D01*
X311843Y433900D01*
X311843Y447927D01*
X311840Y447956D01*
X311842Y447986D01*
X311820Y448114D01*
X311803Y448243D01*
X311793Y448270D01*
X311788Y448299D01*
X311734Y448418D01*
X311686Y448538D01*
X311669Y448562D01*
X311657Y448589D01*
X311576Y448691D01*
X311500Y448796D01*
X311477Y448815D01*
X311458Y448838D01*
X311355Y448916D01*
X311255Y448999D01*
X311228Y449011D01*
X311204Y449029D01*
X311060Y449100D01*
X308551Y450139D01*
X306629Y452061D01*
X305589Y454571D01*
X305589Y457289D01*
X306629Y459799D01*
X308551Y461721D01*
X311061Y462761D01*
X313779Y462761D01*
X316289Y461721D01*
X318211Y459799D01*
X319251Y457289D01*
X319251Y455733D01*
X319263Y455634D01*
X319266Y455536D01*
X319283Y455477D01*
X319291Y455417D01*
X319327Y455325D01*
X319354Y455230D01*
X319385Y455178D01*
X319408Y455121D01*
X319466Y455042D01*
X319516Y454956D01*
X319583Y454881D01*
X319594Y454864D01*
X319604Y454856D01*
X319622Y454835D01*
X319676Y454781D01*
X319786Y454696D01*
X319893Y454607D01*
X319912Y454599D01*
X319927Y454586D01*
X320056Y454531D01*
X320181Y454472D01*
X320201Y454468D01*
X320219Y454460D01*
X320357Y454438D01*
X320494Y454412D01*
X320514Y454413D01*
X320533Y454410D01*
X320672Y454423D01*
X320811Y454432D01*
X320830Y454438D01*
X320850Y454440D01*
X320981Y454487D01*
X321113Y454530D01*
X321130Y454540D01*
X321149Y454547D01*
X321264Y454625D01*
X321382Y454700D01*
X321396Y454714D01*
X321413Y454726D01*
X321505Y454830D01*
X321600Y454931D01*
X321610Y454949D01*
X321623Y454964D01*
X321686Y455088D01*
X321754Y455210D01*
X321759Y455229D01*
X321768Y455247D01*
X321798Y455383D01*
X321833Y455518D01*
X321835Y455546D01*
X321837Y455558D01*
X321837Y455578D01*
X321843Y455679D01*
X321843Y478451D01*
X321831Y478549D01*
X321828Y478648D01*
X321811Y478706D01*
X321803Y478766D01*
X321767Y478858D01*
X321739Y478953D01*
X321709Y479006D01*
X321686Y479062D01*
X321628Y479142D01*
X321578Y479227D01*
X321512Y479303D01*
X321500Y479319D01*
X321490Y479327D01*
X321472Y479348D01*
X321139Y479681D01*
X320099Y482191D01*
X320099Y484909D01*
X321139Y487419D01*
X323061Y489341D01*
X325163Y490211D01*
X325223Y490246D01*
X325288Y490272D01*
X325361Y490324D01*
X325439Y490369D01*
X325489Y490418D01*
X325546Y490458D01*
X325603Y490528D01*
X325667Y490590D01*
X325704Y490650D01*
X325748Y490703D01*
X325787Y490785D01*
X325834Y490861D01*
X325854Y490928D01*
X325884Y490991D01*
X325901Y491079D01*
X325927Y491165D01*
X325931Y491235D01*
X325944Y491304D01*
X325938Y491393D01*
X325942Y491483D01*
X325928Y491551D01*
X325924Y491621D01*
X325896Y491706D01*
X325878Y491794D01*
X325847Y491857D01*
X325826Y491923D01*
X325778Y491999D01*
X325738Y492080D01*
X325693Y492133D01*
X325656Y492192D01*
X325590Y492254D01*
X325532Y492322D01*
X325475Y492362D01*
X325424Y492410D01*
X325346Y492453D01*
X325272Y492505D01*
X325207Y492530D01*
X325146Y492564D01*
X325059Y492586D01*
X324975Y492618D01*
X324905Y492626D01*
X324838Y492643D01*
X324677Y492653D01*
X278751Y492653D01*
X278844Y493033D01*
X278846Y493067D01*
X278857Y493112D01*
X279100Y496162D01*
X279096Y496191D01*
X279101Y496219D01*
X279084Y496288D01*
X279076Y496360D01*
X279062Y496384D01*
X279055Y496412D01*
X279012Y496470D01*
X278977Y496532D01*
X278954Y496549D01*
X278937Y496572D01*
X278875Y496609D01*
X278818Y496652D01*
X278790Y496659D01*
X278766Y496674D01*
X278666Y496690D01*
X278625Y496701D01*
X278615Y496699D01*
X278602Y496701D01*
X259602Y496701D01*
X259526Y496686D01*
X259448Y496677D01*
X259429Y496666D01*
X259407Y496662D01*
X259343Y496618D01*
X259275Y496579D01*
X259259Y496560D01*
X259243Y496549D01*
X259219Y496511D01*
X259169Y496451D01*
X249669Y479951D01*
X249660Y479924D01*
X249644Y479900D01*
X249629Y479830D01*
X249606Y479762D01*
X249609Y479734D01*
X249603Y479706D01*
X249617Y479636D01*
X249622Y479564D01*
X249635Y479539D01*
X249641Y479511D01*
X249681Y479451D01*
X249714Y479388D01*
X249736Y479370D01*
X249752Y479346D01*
X249835Y479288D01*
X249867Y479261D01*
X249878Y479258D01*
X249889Y479251D01*
X252655Y477942D01*
X252688Y477934D01*
X252730Y477914D01*
X253083Y477812D01*
X230082Y437973D01*
X230056Y437911D01*
X230022Y437855D01*
X229995Y437766D01*
X229959Y437680D01*
X229949Y437614D01*
X229930Y437550D01*
X229926Y437457D01*
X229912Y437365D01*
X229919Y437299D01*
X229916Y437232D01*
X229936Y437141D01*
X229945Y437049D01*
X229969Y436986D01*
X229982Y436921D01*
X230024Y436838D01*
X230056Y436751D01*
X230094Y436696D01*
X230124Y436636D01*
X230184Y436566D01*
X230237Y436489D01*
X230288Y436446D01*
X230331Y436396D01*
X230375Y436361D01*
X230388Y436319D01*
X230425Y436260D01*
X230452Y436197D01*
X230508Y436126D01*
X230556Y436049D01*
X230606Y436001D01*
X230648Y435947D01*
X230720Y435891D01*
X230786Y435828D01*
X230846Y435795D01*
X230900Y435753D01*
X230984Y435717D01*
X231063Y435672D01*
X231078Y435668D01*
X231739Y434767D01*
X231756Y434749D01*
X231769Y434728D01*
X231877Y434609D01*
X232680Y433827D01*
X232684Y433794D01*
X232711Y433730D01*
X232727Y433664D01*
X232771Y433584D01*
X232805Y433500D01*
X232847Y433445D01*
X232879Y433384D01*
X232941Y433318D01*
X232996Y433245D01*
X233049Y433202D01*
X233096Y433151D01*
X233172Y433102D01*
X233243Y433045D01*
X233257Y433039D01*
X233761Y432041D01*
X233775Y432021D01*
X233784Y431998D01*
X233871Y431863D01*
X234534Y430959D01*
X234534Y430926D01*
X234549Y430859D01*
X234555Y430790D01*
X234584Y430704D01*
X234604Y430616D01*
X234636Y430555D01*
X234658Y430489D01*
X234708Y430414D01*
X234750Y430333D01*
X234796Y430282D01*
X234834Y430224D01*
X234901Y430163D01*
X234961Y430095D01*
X234974Y430087D01*
X235307Y429020D01*
X235317Y428998D01*
X235323Y428973D01*
X235386Y428825D01*
X235892Y427825D01*
X235885Y427792D01*
X235889Y427723D01*
X235884Y427655D01*
X235899Y427566D01*
X235904Y427475D01*
X235925Y427409D01*
X235937Y427341D01*
X235974Y427258D01*
X236001Y427172D01*
X236038Y427114D01*
X236066Y427051D01*
X236122Y426980D01*
X236171Y426903D01*
X236182Y426892D01*
X236335Y425785D01*
X236341Y425761D01*
X236342Y425737D01*
X236381Y425580D01*
X236715Y424510D01*
X236703Y424479D01*
X236696Y424411D01*
X236679Y424344D01*
X236679Y424253D01*
X236669Y424163D01*
X236679Y424095D01*
X236679Y424026D01*
X236702Y423938D01*
X236715Y423848D01*
X236742Y423785D01*
X236759Y423718D01*
X236803Y423639D01*
X236838Y423555D01*
X236848Y423542D01*
X236816Y422425D01*
X236818Y422401D01*
X236816Y422377D01*
X236827Y422216D01*
X236981Y421105D01*
X236964Y421077D01*
X236946Y421010D01*
X236918Y420947D01*
X236903Y420858D01*
X236879Y420770D01*
X236878Y420701D01*
X236866Y420633D01*
X236874Y420543D01*
X236872Y420452D01*
X236888Y420385D01*
X236894Y420317D01*
X236925Y420231D01*
X236945Y420143D01*
X236953Y420129D01*
X236738Y419032D01*
X236736Y419008D01*
X236729Y418984D01*
X236714Y418824D01*
X236683Y417703D01*
X236662Y417678D01*
X236633Y417615D01*
X236595Y417557D01*
X236566Y417472D01*
X236527Y417389D01*
X236515Y417322D01*
X236492Y417256D01*
X236485Y417166D01*
X236469Y417077D01*
X236473Y417008D01*
X236468Y416939D01*
X236483Y416850D01*
X236489Y416759D01*
X236494Y416745D01*
X236102Y415698D01*
X236096Y415674D01*
X236085Y415652D01*
X236044Y415496D01*
X235829Y414396D01*
X235804Y414374D01*
X235765Y414318D01*
X235718Y414267D01*
X235675Y414187D01*
X235624Y414112D01*
X235600Y414048D01*
X235567Y413987D01*
X235546Y413899D01*
X235514Y413814D01*
X235508Y413745D01*
X235491Y413678D01*
X235492Y413587D01*
X235483Y413497D01*
X235485Y413482D01*
X234927Y412516D01*
X234883Y412412D01*
X234832Y412312D01*
X234822Y412266D01*
X234803Y412223D01*
X234787Y412112D01*
X234762Y412002D01*
X234764Y411955D01*
X234757Y411909D01*
X234768Y411797D01*
X234772Y411684D01*
X234785Y411639D01*
X234790Y411592D01*
X234829Y411486D01*
X234860Y411378D01*
X234884Y411338D01*
X234900Y411294D01*
X234965Y411201D01*
X235022Y411104D01*
X235069Y411050D01*
X235081Y411033D01*
X235095Y411021D01*
X235128Y410983D01*
X235511Y410601D01*
X235511Y381993D01*
X235523Y381894D01*
X235526Y381795D01*
X235543Y381737D01*
X235551Y381677D01*
X235587Y381585D01*
X235615Y381490D01*
X235645Y381438D01*
X235668Y381381D01*
X235726Y381301D01*
X235776Y381216D01*
X235842Y381141D01*
X235854Y381124D01*
X235864Y381116D01*
X235882Y381095D01*
X238197Y378781D01*
X238306Y378696D01*
X238413Y378607D01*
X238432Y378599D01*
X238448Y378586D01*
X238576Y378531D01*
X238701Y378472D01*
X238721Y378468D01*
X238740Y378460D01*
X238878Y378438D01*
X239014Y378412D01*
X239034Y378413D01*
X239054Y378410D01*
X239193Y378423D01*
X239331Y378432D01*
X239350Y378438D01*
X239370Y378440D01*
X239502Y378487D01*
X239633Y378530D01*
X239651Y378540D01*
X239670Y378547D01*
X239785Y378625D01*
X239902Y378700D01*
X239916Y378715D01*
X239933Y378726D01*
X240025Y378830D01*
X240120Y378931D01*
X240130Y378949D01*
X240143Y378964D01*
X240207Y379088D01*
X240274Y379210D01*
X240279Y379229D01*
X240288Y379248D01*
X240318Y379383D01*
X240353Y379518D01*
X240355Y379546D01*
X240358Y379558D01*
X240357Y379578D01*
X240363Y379679D01*
X240363Y387096D01*
X241208Y389135D01*
X241644Y389572D01*
X241663Y389595D01*
X241685Y389614D01*
X241760Y389720D01*
X241839Y389823D01*
X241851Y389850D01*
X241868Y389874D01*
X241914Y389995D01*
X241966Y390115D01*
X241970Y390144D01*
X241981Y390171D01*
X241995Y390300D01*
X242016Y390429D01*
X242013Y390458D01*
X242016Y390488D01*
X241998Y390616D01*
X241986Y390745D01*
X241976Y390773D01*
X241972Y390802D01*
X241920Y390955D01*
X240819Y393611D01*
X240819Y396329D01*
X241859Y398839D01*
X243781Y400761D01*
X246291Y401801D01*
X249009Y401801D01*
X251519Y400761D01*
X253441Y398839D01*
X254481Y396329D01*
X254481Y393611D01*
X253827Y392032D01*
X253819Y392004D01*
X253806Y391978D01*
X253777Y391851D01*
X253743Y391726D01*
X253742Y391696D01*
X253736Y391667D01*
X253740Y391538D01*
X253738Y391408D01*
X253745Y391379D01*
X253746Y391349D01*
X253782Y391225D01*
X253812Y391098D01*
X253826Y391072D01*
X253834Y391044D01*
X253900Y390932D01*
X253961Y390817D01*
X253981Y390795D01*
X253995Y390770D01*
X254102Y390649D01*
X255616Y389135D01*
X256461Y387096D01*
X256461Y373888D01*
X255610Y371834D01*
X255597Y371786D01*
X255575Y371741D01*
X255555Y371633D01*
X255526Y371527D01*
X255525Y371477D01*
X255516Y371428D01*
X255522Y371319D01*
X255521Y371209D01*
X255532Y371161D01*
X255535Y371111D01*
X255569Y371007D01*
X255595Y370900D01*
X255618Y370856D01*
X255633Y370809D01*
X255692Y370716D01*
X255744Y370619D01*
X255777Y370582D01*
X255804Y370540D01*
X255884Y370465D01*
X255957Y370383D01*
X255999Y370356D01*
X256035Y370322D01*
X256131Y370269D01*
X256223Y370209D01*
X256270Y370192D01*
X256314Y370168D01*
X256420Y370141D01*
X256524Y370105D01*
X256574Y370101D01*
X256622Y370089D01*
X256782Y370079D01*
X265442Y370079D01*
X265491Y370085D01*
G37*
G36*
X363231Y195709D02*
X363231Y195709D01*
X363260Y195706D01*
X363327Y195728D01*
X363397Y195742D01*
X363421Y195759D01*
X363449Y195768D01*
X363502Y195815D01*
X363561Y195855D01*
X363577Y195879D01*
X363599Y195899D01*
X363630Y195963D01*
X363668Y196022D01*
X363673Y196051D01*
X363685Y196077D01*
X363694Y196177D01*
X363701Y196219D01*
X363698Y196229D01*
X363700Y196243D01*
X363468Y199041D01*
X363458Y199075D01*
X363454Y199123D01*
X362765Y201844D01*
X362750Y201876D01*
X362738Y201922D01*
X361610Y204494D01*
X361590Y204522D01*
X361571Y204566D01*
X360035Y206917D01*
X360011Y206941D01*
X359985Y206982D01*
X358083Y209047D01*
X358055Y209068D01*
X358022Y209103D01*
X355807Y210828D01*
X355776Y210843D01*
X355738Y210873D01*
X353268Y212209D01*
X353235Y212219D01*
X353193Y212242D01*
X352007Y212650D01*
X350553Y213149D01*
X350537Y213154D01*
X350503Y213159D01*
X350457Y213174D01*
X347688Y213636D01*
X347653Y213635D01*
X347606Y213643D01*
X344798Y213643D01*
X344764Y213636D01*
X344716Y213636D01*
X341947Y213174D01*
X341914Y213162D01*
X341867Y213154D01*
X339211Y212242D01*
X339181Y212225D01*
X339136Y212209D01*
X336666Y210873D01*
X336640Y210851D01*
X336597Y210828D01*
X334382Y209103D01*
X334359Y209077D01*
X334321Y209047D01*
X332419Y206982D01*
X332401Y206952D01*
X332369Y206917D01*
X330833Y204566D01*
X330820Y204534D01*
X330794Y204494D01*
X329666Y201922D01*
X329659Y201889D01*
X329656Y201882D01*
X329650Y201873D01*
X329649Y201867D01*
X329639Y201844D01*
X328950Y199123D01*
X328948Y199088D01*
X328936Y199041D01*
X328704Y196243D01*
X328708Y196214D01*
X328703Y196185D01*
X328720Y196116D01*
X328728Y196046D01*
X328742Y196020D01*
X328749Y195992D01*
X328791Y195935D01*
X328826Y195873D01*
X328850Y195855D01*
X328867Y195832D01*
X328928Y195796D01*
X328985Y195753D01*
X329013Y195745D01*
X329038Y195730D01*
X329136Y195714D01*
X329177Y195703D01*
X329188Y195705D01*
X329202Y195703D01*
X363202Y195703D01*
X363231Y195709D01*
G37*
G36*
X347640Y478768D02*
X347640Y478768D01*
X347688Y478768D01*
X350457Y479230D01*
X350490Y479242D01*
X350537Y479250D01*
X353193Y480162D01*
X353223Y480179D01*
X353268Y480195D01*
X355738Y481531D01*
X355764Y481553D01*
X355807Y481576D01*
X358022Y483301D01*
X358045Y483327D01*
X358083Y483357D01*
X359985Y485422D01*
X360003Y485452D01*
X360035Y485487D01*
X361571Y487838D01*
X361584Y487870D01*
X361610Y487910D01*
X362738Y490482D01*
X362745Y490515D01*
X362765Y490560D01*
X363454Y493281D01*
X363456Y493316D01*
X363468Y493363D01*
X363700Y496161D01*
X363696Y496190D01*
X363701Y496219D01*
X363685Y496288D01*
X363676Y496358D01*
X363662Y496384D01*
X363655Y496412D01*
X363613Y496469D01*
X363578Y496531D01*
X363554Y496549D01*
X363537Y496572D01*
X363476Y496608D01*
X363419Y496651D01*
X363391Y496659D01*
X363366Y496674D01*
X363268Y496690D01*
X363227Y496701D01*
X363216Y496699D01*
X363202Y496701D01*
X329202Y496701D01*
X329173Y496695D01*
X329144Y496698D01*
X329077Y496676D01*
X329007Y496662D01*
X328983Y496645D01*
X328955Y496636D01*
X328902Y496589D01*
X328843Y496549D01*
X328828Y496525D01*
X328806Y496505D01*
X328774Y496441D01*
X328736Y496382D01*
X328731Y496353D01*
X328719Y496327D01*
X328710Y496227D01*
X328703Y496185D01*
X328706Y496175D01*
X328704Y496161D01*
X328936Y493363D01*
X328946Y493329D01*
X328950Y493281D01*
X329639Y490560D01*
X329654Y490528D01*
X329666Y490482D01*
X330794Y487910D01*
X330814Y487882D01*
X330833Y487838D01*
X332369Y485487D01*
X332393Y485463D01*
X332419Y485422D01*
X334321Y483357D01*
X334349Y483336D01*
X334382Y483301D01*
X336597Y481576D01*
X336628Y481561D01*
X336666Y481531D01*
X339136Y480195D01*
X339169Y480185D01*
X339211Y480162D01*
X341867Y479250D01*
X341901Y479246D01*
X341947Y479230D01*
X344716Y478768D01*
X344751Y478769D01*
X344798Y478761D01*
X347606Y478761D01*
X347640Y478768D01*
G37*
G36*
X224809Y256012D02*
X224809Y256012D01*
X224880Y256009D01*
X224907Y256019D01*
X224936Y256021D01*
X225026Y256063D01*
X225066Y256078D01*
X225074Y256086D01*
X225087Y256092D01*
X227390Y257691D01*
X227414Y257717D01*
X227454Y257744D01*
X229463Y259701D01*
X229482Y259730D01*
X229517Y259763D01*
X231176Y262024D01*
X231191Y262055D01*
X231220Y262094D01*
X232484Y264597D01*
X232493Y264631D01*
X232515Y264674D01*
X233351Y267351D01*
X233354Y267385D01*
X233369Y267431D01*
X233752Y270210D01*
X233750Y270244D01*
X233756Y270292D01*
X233677Y273095D01*
X233669Y273129D01*
X233668Y273177D01*
X233129Y275929D01*
X233115Y275961D01*
X233106Y276009D01*
X232121Y278634D01*
X232106Y278659D01*
X232101Y278679D01*
X232093Y278690D01*
X232086Y278709D01*
X230682Y281137D01*
X230659Y281163D01*
X230635Y281205D01*
X228851Y283368D01*
X228824Y283390D01*
X228793Y283427D01*
X226677Y285268D01*
X226647Y285285D01*
X226611Y285317D01*
X224220Y286784D01*
X224188Y286795D01*
X224147Y286821D01*
X221548Y287874D01*
X221514Y287881D01*
X221469Y287899D01*
X218732Y288510D01*
X218697Y288511D01*
X218650Y288522D01*
X215850Y288674D01*
X215816Y288669D01*
X215768Y288672D01*
X212980Y288362D01*
X212947Y288351D01*
X212899Y288346D01*
X210201Y287581D01*
X210171Y287565D01*
X210124Y287552D01*
X207589Y286353D01*
X207565Y286336D01*
X207538Y286326D01*
X207486Y286277D01*
X207429Y286234D01*
X207415Y286209D01*
X207394Y286189D01*
X207365Y286124D01*
X207329Y286063D01*
X207326Y286034D01*
X207314Y286007D01*
X207313Y285936D01*
X207304Y285865D01*
X207312Y285837D01*
X207312Y285808D01*
X207346Y285715D01*
X207358Y285674D01*
X207365Y285665D01*
X207370Y285652D01*
X224370Y256252D01*
X224389Y256230D01*
X224402Y256204D01*
X224455Y256156D01*
X224502Y256103D01*
X224528Y256091D01*
X224550Y256071D01*
X224617Y256048D01*
X224681Y256018D01*
X224710Y256016D01*
X224738Y256007D01*
X224809Y256012D01*
G37*
G36*
X476588Y403735D02*
X476588Y403735D01*
X476636Y403732D01*
X479424Y404042D01*
X479457Y404053D01*
X479505Y404058D01*
X482203Y404823D01*
X482233Y404839D01*
X482280Y404852D01*
X484815Y406051D01*
X484839Y406068D01*
X484866Y406078D01*
X484918Y406127D01*
X484975Y406170D01*
X484989Y406195D01*
X485011Y406215D01*
X485039Y406280D01*
X485075Y406342D01*
X485078Y406370D01*
X485090Y406397D01*
X485091Y406468D01*
X485100Y406539D01*
X485092Y406567D01*
X485092Y406596D01*
X485058Y406689D01*
X485046Y406730D01*
X485039Y406739D01*
X485034Y406752D01*
X468034Y436152D01*
X468015Y436174D01*
X468002Y436200D01*
X467949Y436248D01*
X467902Y436301D01*
X467876Y436313D01*
X467854Y436333D01*
X467787Y436356D01*
X467723Y436386D01*
X467694Y436388D01*
X467666Y436397D01*
X467595Y436392D01*
X467524Y436395D01*
X467497Y436385D01*
X467468Y436383D01*
X467378Y436341D01*
X467338Y436326D01*
X467330Y436318D01*
X467317Y436312D01*
X465014Y434713D01*
X464990Y434688D01*
X464950Y434660D01*
X462941Y432703D01*
X462922Y432674D01*
X462887Y432641D01*
X461228Y430380D01*
X461213Y430349D01*
X461184Y430310D01*
X459920Y427807D01*
X459911Y427773D01*
X459889Y427730D01*
X459053Y425053D01*
X459050Y425019D01*
X459035Y424973D01*
X458652Y422194D01*
X458654Y422160D01*
X458648Y422112D01*
X458727Y419309D01*
X458735Y419275D01*
X458736Y419227D01*
X459275Y416475D01*
X459289Y416443D01*
X459298Y416395D01*
X460283Y413770D01*
X460301Y413740D01*
X460318Y413695D01*
X461722Y411267D01*
X461745Y411241D01*
X461769Y411200D01*
X463553Y409036D01*
X463580Y409014D01*
X463611Y408977D01*
X465727Y407136D01*
X465757Y407119D01*
X465793Y407088D01*
X468184Y405620D01*
X468216Y405609D01*
X468257Y405583D01*
X470856Y404530D01*
X470890Y404523D01*
X470935Y404505D01*
X473672Y403894D01*
X473707Y403893D01*
X473754Y403882D01*
X476554Y403730D01*
X476588Y403735D01*
G37*
G36*
X467628Y256013D02*
X467628Y256013D01*
X467699Y256012D01*
X467726Y256023D01*
X467755Y256027D01*
X467817Y256061D01*
X467882Y256089D01*
X467903Y256110D01*
X467928Y256124D01*
X467991Y256200D01*
X468021Y256231D01*
X468025Y256241D01*
X468034Y256252D01*
X485034Y285652D01*
X485043Y285680D01*
X485060Y285704D01*
X485075Y285773D01*
X485097Y285841D01*
X485095Y285870D01*
X485101Y285898D01*
X485088Y285968D01*
X485082Y286039D01*
X485069Y286065D01*
X485063Y286093D01*
X485023Y286152D01*
X484991Y286215D01*
X484968Y286234D01*
X484952Y286258D01*
X484870Y286315D01*
X484837Y286342D01*
X484827Y286345D01*
X484815Y286353D01*
X482280Y287552D01*
X482246Y287560D01*
X482203Y287581D01*
X479505Y288346D01*
X479470Y288348D01*
X479424Y288362D01*
X476636Y288672D01*
X476602Y288669D01*
X476554Y288674D01*
X473754Y288522D01*
X473720Y288513D01*
X473672Y288510D01*
X470935Y287899D01*
X470903Y287885D01*
X470856Y287874D01*
X468257Y286821D01*
X468228Y286802D01*
X468184Y286784D01*
X465793Y285317D01*
X465768Y285293D01*
X465727Y285268D01*
X463611Y283427D01*
X463590Y283400D01*
X463553Y283368D01*
X461769Y281205D01*
X461753Y281174D01*
X461722Y281137D01*
X460318Y278709D01*
X460307Y278676D01*
X460300Y278663D01*
X460290Y278649D01*
X460290Y278646D01*
X460283Y278634D01*
X459298Y276009D01*
X459292Y275974D01*
X459275Y275929D01*
X458736Y273177D01*
X458736Y273143D01*
X458727Y273095D01*
X458648Y270292D01*
X458654Y270258D01*
X458652Y270210D01*
X459035Y267431D01*
X459047Y267399D01*
X459053Y267351D01*
X459889Y264674D01*
X459906Y264643D01*
X459920Y264597D01*
X461184Y262094D01*
X461206Y262067D01*
X461228Y262024D01*
X462887Y259763D01*
X462913Y259740D01*
X462941Y259701D01*
X464950Y257744D01*
X464979Y257725D01*
X465014Y257691D01*
X467317Y256092D01*
X467344Y256080D01*
X467367Y256062D01*
X467435Y256041D01*
X467500Y256013D01*
X467529Y256013D01*
X467557Y256005D01*
X467628Y256013D01*
G37*
G36*
X218650Y403882D02*
X218650Y403882D01*
X218684Y403891D01*
X218732Y403894D01*
X221469Y404505D01*
X221501Y404519D01*
X221548Y404530D01*
X224147Y405583D01*
X224176Y405602D01*
X224220Y405620D01*
X226611Y407088D01*
X226636Y407111D01*
X226677Y407136D01*
X228793Y408977D01*
X228814Y409004D01*
X228851Y409036D01*
X230635Y411200D01*
X230651Y411230D01*
X230682Y411267D01*
X232086Y413695D01*
X232097Y413728D01*
X232121Y413770D01*
X233106Y416395D01*
X233112Y416430D01*
X233129Y416475D01*
X233668Y419227D01*
X233668Y419262D01*
X233677Y419309D01*
X233756Y422112D01*
X233751Y422146D01*
X233752Y422194D01*
X233369Y424973D01*
X233357Y425005D01*
X233351Y425053D01*
X232515Y427730D01*
X232498Y427761D01*
X232484Y427807D01*
X231220Y430310D01*
X231198Y430337D01*
X231176Y430380D01*
X229517Y432641D01*
X229491Y432664D01*
X229463Y432703D01*
X227454Y434660D01*
X227425Y434679D01*
X227390Y434713D01*
X225087Y436312D01*
X225060Y436324D01*
X225037Y436342D01*
X224969Y436363D01*
X224904Y436391D01*
X224875Y436391D01*
X224847Y436399D01*
X224776Y436391D01*
X224705Y436392D01*
X224678Y436381D01*
X224649Y436377D01*
X224587Y436343D01*
X224522Y436315D01*
X224501Y436294D01*
X224476Y436280D01*
X224413Y436204D01*
X224383Y436173D01*
X224379Y436163D01*
X224370Y436152D01*
X207370Y406752D01*
X207361Y406724D01*
X207344Y406700D01*
X207329Y406631D01*
X207307Y406563D01*
X207309Y406534D01*
X207303Y406506D01*
X207316Y406436D01*
X207322Y406365D01*
X207335Y406339D01*
X207341Y406311D01*
X207381Y406252D01*
X207413Y406189D01*
X207436Y406170D01*
X207452Y406146D01*
X207534Y406089D01*
X207567Y406062D01*
X207577Y406059D01*
X207589Y406051D01*
X210124Y404852D01*
X210158Y404844D01*
X210201Y404823D01*
X212899Y404058D01*
X212934Y404056D01*
X212980Y404042D01*
X215768Y403732D01*
X215802Y403735D01*
X215850Y403730D01*
X218650Y403882D01*
G37*
G36*
X413639Y315737D02*
X413639Y315737D01*
X413777Y315746D01*
X413796Y315752D01*
X413816Y315754D01*
X413948Y315801D01*
X414079Y315844D01*
X414097Y315854D01*
X414116Y315861D01*
X414231Y315939D01*
X414348Y316014D01*
X414362Y316029D01*
X414379Y316040D01*
X414471Y316144D01*
X414566Y316245D01*
X414576Y316263D01*
X414589Y316278D01*
X414653Y316402D01*
X414720Y316524D01*
X414725Y316544D01*
X414734Y316562D01*
X414764Y316697D01*
X414799Y316832D01*
X414801Y316860D01*
X414804Y316872D01*
X414803Y316892D01*
X414809Y316993D01*
X414809Y317589D01*
X415849Y320099D01*
X416950Y321200D01*
X417010Y321278D01*
X417078Y321350D01*
X417107Y321403D01*
X417144Y321451D01*
X417184Y321542D01*
X417232Y321628D01*
X417247Y321687D01*
X417271Y321743D01*
X417286Y321841D01*
X417311Y321936D01*
X417317Y322036D01*
X417321Y322057D01*
X417319Y322069D01*
X417321Y322097D01*
X417321Y323099D01*
X428897Y334675D01*
X428958Y334753D01*
X429025Y334825D01*
X429049Y334868D01*
X429059Y334880D01*
X429064Y334890D01*
X429092Y334926D01*
X429131Y335017D01*
X429179Y335103D01*
X429194Y335162D01*
X429218Y335218D01*
X429234Y335316D01*
X429258Y335411D01*
X429265Y335511D01*
X429268Y335532D01*
X429267Y335544D01*
X429269Y335572D01*
X429269Y340960D01*
X429254Y341078D01*
X429246Y341197D01*
X429234Y341235D01*
X429229Y341276D01*
X429185Y341386D01*
X429148Y341499D01*
X429127Y341534D01*
X429112Y341571D01*
X429042Y341667D01*
X428978Y341768D01*
X428949Y341796D01*
X428925Y341829D01*
X428833Y341904D01*
X428747Y341986D01*
X428711Y342006D01*
X428680Y342031D01*
X428572Y342082D01*
X428468Y342140D01*
X428429Y342150D01*
X428392Y342167D01*
X428275Y342189D01*
X428160Y342219D01*
X428100Y342223D01*
X428080Y342227D01*
X428060Y342225D01*
X427999Y342229D01*
X424825Y342229D01*
X423039Y344015D01*
X423039Y346190D01*
X423024Y346308D01*
X423016Y346427D01*
X423004Y346465D01*
X422999Y346506D01*
X422955Y346616D01*
X422918Y346729D01*
X422897Y346764D01*
X422882Y346801D01*
X422812Y346897D01*
X422748Y346998D01*
X422719Y347026D01*
X422695Y347059D01*
X422603Y347134D01*
X422517Y347216D01*
X422481Y347236D01*
X422450Y347261D01*
X422342Y347312D01*
X422238Y347370D01*
X422199Y347380D01*
X422162Y347397D01*
X422045Y347419D01*
X421930Y347449D01*
X421870Y347453D01*
X421850Y347457D01*
X421830Y347455D01*
X421769Y347459D01*
X421269Y347459D01*
X421171Y347447D01*
X421072Y347444D01*
X421014Y347427D01*
X420953Y347419D01*
X420861Y347383D01*
X420766Y347355D01*
X420714Y347325D01*
X420658Y347302D01*
X420578Y347244D01*
X420492Y347194D01*
X420417Y347128D01*
X420400Y347116D01*
X420393Y347106D01*
X420371Y347087D01*
X418609Y345325D01*
X407611Y345325D01*
X407474Y345308D01*
X407335Y345295D01*
X407316Y345288D01*
X407296Y345285D01*
X407167Y345234D01*
X407036Y345187D01*
X407019Y345176D01*
X407000Y345168D01*
X406888Y345086D01*
X406773Y345008D01*
X406759Y344993D01*
X406743Y344981D01*
X406654Y344874D01*
X406562Y344770D01*
X406553Y344752D01*
X406540Y344736D01*
X406481Y344610D01*
X406418Y344487D01*
X406413Y344467D01*
X406404Y344449D01*
X406378Y344312D01*
X406348Y344176D01*
X406348Y344156D01*
X406345Y344136D01*
X406353Y343997D01*
X406358Y343858D01*
X406363Y343839D01*
X406364Y343819D01*
X406407Y343687D01*
X406446Y343553D01*
X406456Y343536D01*
X406462Y343516D01*
X406537Y343398D01*
X406607Y343279D01*
X406626Y343258D01*
X406633Y343248D01*
X406648Y343233D01*
X406714Y343158D01*
X408381Y341491D01*
X409421Y338981D01*
X409421Y336263D01*
X408381Y333753D01*
X406459Y331831D01*
X403949Y330791D01*
X401011Y330791D01*
X400873Y330774D01*
X400734Y330761D01*
X400715Y330754D01*
X400695Y330751D01*
X400566Y330700D01*
X400435Y330653D01*
X400418Y330642D01*
X400399Y330634D01*
X400287Y330553D01*
X400172Y330475D01*
X400158Y330459D01*
X400142Y330448D01*
X400053Y330340D01*
X399961Y330236D01*
X399952Y330218D01*
X399939Y330203D01*
X399880Y330077D01*
X399817Y329953D01*
X399812Y329933D01*
X399804Y329915D01*
X399778Y329779D01*
X399747Y329643D01*
X399748Y329622D01*
X399744Y329603D01*
X399753Y329464D01*
X399757Y329325D01*
X399762Y329305D01*
X399764Y329285D01*
X399806Y329153D01*
X399845Y329019D01*
X399855Y329002D01*
X399862Y328983D01*
X399936Y328865D01*
X400007Y328745D01*
X400025Y328724D01*
X400032Y328714D01*
X400047Y328700D01*
X400113Y328625D01*
X412643Y316095D01*
X412752Y316010D01*
X412859Y315921D01*
X412878Y315913D01*
X412894Y315900D01*
X413022Y315845D01*
X413147Y315786D01*
X413167Y315782D01*
X413186Y315774D01*
X413324Y315752D01*
X413460Y315726D01*
X413480Y315727D01*
X413500Y315724D01*
X413639Y315737D01*
G37*
%LPC*%
G36*
X315305Y284479D02*
X315305Y284479D01*
X308609Y291175D01*
X308609Y300645D01*
X315305Y307341D01*
X324775Y307341D01*
X331471Y300645D01*
X331471Y291175D01*
X324775Y284479D01*
X315305Y284479D01*
G37*
%LPD*%
%LPC*%
G36*
X340705Y259079D02*
X340705Y259079D01*
X334009Y265775D01*
X334009Y275245D01*
X340705Y281941D01*
X350175Y281941D01*
X356871Y275245D01*
X356871Y265775D01*
X350175Y259079D01*
X340705Y259079D01*
G37*
%LPD*%
D10*
X433587Y351778D03*
X433587Y370778D03*
D11*
X375287Y427687D02*
X375287Y428937D01*
X381037Y428937D01*
X381037Y427687D01*
X375287Y427687D01*
X375287Y428874D02*
X381037Y428874D01*
X375287Y423937D02*
X375287Y422687D01*
X375287Y423937D02*
X381037Y423937D01*
X381037Y422687D01*
X375287Y422687D01*
X375287Y423874D02*
X381037Y423874D01*
X375287Y418937D02*
X375287Y417687D01*
X375287Y418937D02*
X381037Y418937D01*
X381037Y417687D01*
X375287Y417687D01*
X375287Y418874D02*
X381037Y418874D01*
X375287Y413937D02*
X375287Y412687D01*
X375287Y413937D02*
X381037Y413937D01*
X381037Y412687D01*
X375287Y412687D01*
X375287Y413874D02*
X381037Y413874D01*
X375287Y408937D02*
X375287Y407687D01*
X375287Y408937D02*
X381037Y408937D01*
X381037Y407687D01*
X375287Y407687D01*
X375287Y408874D02*
X381037Y408874D01*
X375287Y403937D02*
X375287Y402687D01*
X375287Y403937D02*
X381037Y403937D01*
X381037Y402687D01*
X375287Y402687D01*
X375287Y403874D02*
X381037Y403874D01*
X375287Y398937D02*
X375287Y397687D01*
X375287Y398937D02*
X381037Y398937D01*
X381037Y397687D01*
X375287Y397687D01*
X375287Y398874D02*
X381037Y398874D01*
X375287Y393937D02*
X375287Y392687D01*
X375287Y393937D02*
X381037Y393937D01*
X381037Y392687D01*
X375287Y392687D01*
X375287Y393874D02*
X381037Y393874D01*
X375287Y388937D02*
X375287Y387687D01*
X375287Y388937D02*
X381037Y388937D01*
X381037Y387687D01*
X375287Y387687D01*
X375287Y388874D02*
X381037Y388874D01*
X375287Y383937D02*
X375287Y382687D01*
X375287Y383937D02*
X381037Y383937D01*
X381037Y382687D01*
X375287Y382687D01*
X375287Y383874D02*
X381037Y383874D01*
X375287Y378937D02*
X375287Y377687D01*
X375287Y378937D02*
X381037Y378937D01*
X381037Y377687D01*
X375287Y377687D01*
X375287Y378874D02*
X381037Y378874D01*
X375287Y373937D02*
X375287Y372687D01*
X375287Y373937D02*
X381037Y373937D01*
X381037Y372687D01*
X375287Y372687D01*
X375287Y373874D02*
X381037Y373874D01*
X371787Y369187D02*
X370537Y369187D01*
X371787Y369187D02*
X371787Y363437D01*
X370537Y363437D01*
X370537Y369187D01*
X370537Y364624D02*
X371787Y364624D01*
X371787Y365811D02*
X370537Y365811D01*
X370537Y366998D02*
X371787Y366998D01*
X371787Y368185D02*
X370537Y368185D01*
X366787Y369187D02*
X365537Y369187D01*
X366787Y369187D02*
X366787Y363437D01*
X365537Y363437D01*
X365537Y369187D01*
X365537Y364624D02*
X366787Y364624D01*
X366787Y365811D02*
X365537Y365811D01*
X365537Y366998D02*
X366787Y366998D01*
X366787Y368185D02*
X365537Y368185D01*
X361787Y369187D02*
X360537Y369187D01*
X361787Y369187D02*
X361787Y363437D01*
X360537Y363437D01*
X360537Y369187D01*
X360537Y364624D02*
X361787Y364624D01*
X361787Y365811D02*
X360537Y365811D01*
X360537Y366998D02*
X361787Y366998D01*
X361787Y368185D02*
X360537Y368185D01*
X356787Y369187D02*
X355537Y369187D01*
X356787Y369187D02*
X356787Y363437D01*
X355537Y363437D01*
X355537Y369187D01*
X355537Y364624D02*
X356787Y364624D01*
X356787Y365811D02*
X355537Y365811D01*
X355537Y366998D02*
X356787Y366998D01*
X356787Y368185D02*
X355537Y368185D01*
X351787Y369187D02*
X350537Y369187D01*
X351787Y369187D02*
X351787Y363437D01*
X350537Y363437D01*
X350537Y369187D01*
X350537Y364624D02*
X351787Y364624D01*
X351787Y365811D02*
X350537Y365811D01*
X350537Y366998D02*
X351787Y366998D01*
X351787Y368185D02*
X350537Y368185D01*
X346787Y369187D02*
X345537Y369187D01*
X346787Y369187D02*
X346787Y363437D01*
X345537Y363437D01*
X345537Y369187D01*
X345537Y364624D02*
X346787Y364624D01*
X346787Y365811D02*
X345537Y365811D01*
X345537Y366998D02*
X346787Y366998D01*
X346787Y368185D02*
X345537Y368185D01*
X341787Y369187D02*
X340537Y369187D01*
X341787Y369187D02*
X341787Y363437D01*
X340537Y363437D01*
X340537Y369187D01*
X340537Y364624D02*
X341787Y364624D01*
X341787Y365811D02*
X340537Y365811D01*
X340537Y366998D02*
X341787Y366998D01*
X341787Y368185D02*
X340537Y368185D01*
X336787Y369187D02*
X335537Y369187D01*
X336787Y369187D02*
X336787Y363437D01*
X335537Y363437D01*
X335537Y369187D01*
X335537Y364624D02*
X336787Y364624D01*
X336787Y365811D02*
X335537Y365811D01*
X335537Y366998D02*
X336787Y366998D01*
X336787Y368185D02*
X335537Y368185D01*
X331787Y369187D02*
X330537Y369187D01*
X331787Y369187D02*
X331787Y363437D01*
X330537Y363437D01*
X330537Y369187D01*
X330537Y364624D02*
X331787Y364624D01*
X331787Y365811D02*
X330537Y365811D01*
X330537Y366998D02*
X331787Y366998D01*
X331787Y368185D02*
X330537Y368185D01*
X326787Y369187D02*
X325537Y369187D01*
X326787Y369187D02*
X326787Y363437D01*
X325537Y363437D01*
X325537Y369187D01*
X325537Y364624D02*
X326787Y364624D01*
X326787Y365811D02*
X325537Y365811D01*
X325537Y366998D02*
X326787Y366998D01*
X326787Y368185D02*
X325537Y368185D01*
X321787Y369187D02*
X320537Y369187D01*
X321787Y369187D02*
X321787Y363437D01*
X320537Y363437D01*
X320537Y369187D01*
X320537Y364624D02*
X321787Y364624D01*
X321787Y365811D02*
X320537Y365811D01*
X320537Y366998D02*
X321787Y366998D01*
X321787Y368185D02*
X320537Y368185D01*
X316787Y369187D02*
X315537Y369187D01*
X316787Y369187D02*
X316787Y363437D01*
X315537Y363437D01*
X315537Y369187D01*
X315537Y364624D02*
X316787Y364624D01*
X316787Y365811D02*
X315537Y365811D01*
X315537Y366998D02*
X316787Y366998D01*
X316787Y368185D02*
X315537Y368185D01*
X312037Y372687D02*
X312037Y373937D01*
X312037Y372687D02*
X306287Y372687D01*
X306287Y373937D01*
X312037Y373937D01*
X312037Y373874D02*
X306287Y373874D01*
X312037Y377687D02*
X312037Y378937D01*
X312037Y377687D02*
X306287Y377687D01*
X306287Y378937D01*
X312037Y378937D01*
X312037Y378874D02*
X306287Y378874D01*
X312037Y382687D02*
X312037Y383937D01*
X312037Y382687D02*
X306287Y382687D01*
X306287Y383937D01*
X312037Y383937D01*
X312037Y383874D02*
X306287Y383874D01*
X312037Y387687D02*
X312037Y388937D01*
X312037Y387687D02*
X306287Y387687D01*
X306287Y388937D01*
X312037Y388937D01*
X312037Y388874D02*
X306287Y388874D01*
X312037Y392687D02*
X312037Y393937D01*
X312037Y392687D02*
X306287Y392687D01*
X306287Y393937D01*
X312037Y393937D01*
X312037Y393874D02*
X306287Y393874D01*
X312037Y397687D02*
X312037Y398937D01*
X312037Y397687D02*
X306287Y397687D01*
X306287Y398937D01*
X312037Y398937D01*
X312037Y398874D02*
X306287Y398874D01*
X312037Y402687D02*
X312037Y403937D01*
X312037Y402687D02*
X306287Y402687D01*
X306287Y403937D01*
X312037Y403937D01*
X312037Y403874D02*
X306287Y403874D01*
X312037Y407687D02*
X312037Y408937D01*
X312037Y407687D02*
X306287Y407687D01*
X306287Y408937D01*
X312037Y408937D01*
X312037Y408874D02*
X306287Y408874D01*
X312037Y412687D02*
X312037Y413937D01*
X312037Y412687D02*
X306287Y412687D01*
X306287Y413937D01*
X312037Y413937D01*
X312037Y413874D02*
X306287Y413874D01*
X312037Y417687D02*
X312037Y418937D01*
X312037Y417687D02*
X306287Y417687D01*
X306287Y418937D01*
X312037Y418937D01*
X312037Y418874D02*
X306287Y418874D01*
X312037Y422687D02*
X312037Y423937D01*
X312037Y422687D02*
X306287Y422687D01*
X306287Y423937D01*
X312037Y423937D01*
X312037Y423874D02*
X306287Y423874D01*
X312037Y427687D02*
X312037Y428937D01*
X312037Y427687D02*
X306287Y427687D01*
X306287Y428937D01*
X312037Y428937D01*
X312037Y428874D02*
X306287Y428874D01*
X315537Y432437D02*
X316787Y432437D01*
X315537Y432437D02*
X315537Y438187D01*
X316787Y438187D01*
X316787Y432437D01*
X316787Y433624D02*
X315537Y433624D01*
X315537Y434811D02*
X316787Y434811D01*
X316787Y435998D02*
X315537Y435998D01*
X315537Y437185D02*
X316787Y437185D01*
X320537Y432437D02*
X321787Y432437D01*
X320537Y432437D02*
X320537Y438187D01*
X321787Y438187D01*
X321787Y432437D01*
X321787Y433624D02*
X320537Y433624D01*
X320537Y434811D02*
X321787Y434811D01*
X321787Y435998D02*
X320537Y435998D01*
X320537Y437185D02*
X321787Y437185D01*
X325537Y432437D02*
X326787Y432437D01*
X325537Y432437D02*
X325537Y438187D01*
X326787Y438187D01*
X326787Y432437D01*
X326787Y433624D02*
X325537Y433624D01*
X325537Y434811D02*
X326787Y434811D01*
X326787Y435998D02*
X325537Y435998D01*
X325537Y437185D02*
X326787Y437185D01*
X330537Y432437D02*
X331787Y432437D01*
X330537Y432437D02*
X330537Y438187D01*
X331787Y438187D01*
X331787Y432437D01*
X331787Y433624D02*
X330537Y433624D01*
X330537Y434811D02*
X331787Y434811D01*
X331787Y435998D02*
X330537Y435998D01*
X330537Y437185D02*
X331787Y437185D01*
X335537Y432437D02*
X336787Y432437D01*
X335537Y432437D02*
X335537Y438187D01*
X336787Y438187D01*
X336787Y432437D01*
X336787Y433624D02*
X335537Y433624D01*
X335537Y434811D02*
X336787Y434811D01*
X336787Y435998D02*
X335537Y435998D01*
X335537Y437185D02*
X336787Y437185D01*
X340537Y432437D02*
X341787Y432437D01*
X340537Y432437D02*
X340537Y438187D01*
X341787Y438187D01*
X341787Y432437D01*
X341787Y433624D02*
X340537Y433624D01*
X340537Y434811D02*
X341787Y434811D01*
X341787Y435998D02*
X340537Y435998D01*
X340537Y437185D02*
X341787Y437185D01*
X345537Y432437D02*
X346787Y432437D01*
X345537Y432437D02*
X345537Y438187D01*
X346787Y438187D01*
X346787Y432437D01*
X346787Y433624D02*
X345537Y433624D01*
X345537Y434811D02*
X346787Y434811D01*
X346787Y435998D02*
X345537Y435998D01*
X345537Y437185D02*
X346787Y437185D01*
X350537Y432437D02*
X351787Y432437D01*
X350537Y432437D02*
X350537Y438187D01*
X351787Y438187D01*
X351787Y432437D01*
X351787Y433624D02*
X350537Y433624D01*
X350537Y434811D02*
X351787Y434811D01*
X351787Y435998D02*
X350537Y435998D01*
X350537Y437185D02*
X351787Y437185D01*
X355537Y432437D02*
X356787Y432437D01*
X355537Y432437D02*
X355537Y438187D01*
X356787Y438187D01*
X356787Y432437D01*
X356787Y433624D02*
X355537Y433624D01*
X355537Y434811D02*
X356787Y434811D01*
X356787Y435998D02*
X355537Y435998D01*
X355537Y437185D02*
X356787Y437185D01*
X360537Y432437D02*
X361787Y432437D01*
X360537Y432437D02*
X360537Y438187D01*
X361787Y438187D01*
X361787Y432437D01*
X361787Y433624D02*
X360537Y433624D01*
X360537Y434811D02*
X361787Y434811D01*
X361787Y435998D02*
X360537Y435998D01*
X360537Y437185D02*
X361787Y437185D01*
X365537Y432437D02*
X366787Y432437D01*
X365537Y432437D02*
X365537Y438187D01*
X366787Y438187D01*
X366787Y432437D01*
X366787Y433624D02*
X365537Y433624D01*
X365537Y434811D02*
X366787Y434811D01*
X366787Y435998D02*
X365537Y435998D01*
X365537Y437185D02*
X366787Y437185D01*
X370537Y432437D02*
X371787Y432437D01*
X370537Y432437D02*
X370537Y438187D01*
X371787Y438187D01*
X371787Y432437D01*
X371787Y433624D02*
X370537Y433624D01*
X370537Y434811D02*
X371787Y434811D01*
X371787Y435998D02*
X370537Y435998D01*
X370537Y437185D02*
X371787Y437185D01*
D12*
X343662Y400812D03*
D13*
X411955Y417620D03*
X411955Y405620D03*
X411955Y393620D03*
D14*
X304327Y327472D03*
X323327Y327472D03*
D10*
X268417Y440421D03*
X268417Y421421D03*
D15*
X412346Y353874D03*
X412346Y370874D03*
D16*
X384656Y448813D03*
X367656Y448813D03*
D15*
X288724Y444575D03*
X288724Y427575D03*
D16*
X305142Y347680D03*
X322142Y347680D03*
X398929Y436004D03*
X415929Y436004D03*
X454823Y352957D03*
X454823Y369957D03*
D17*
X276312Y374992D02*
X276312Y385992D01*
X276312Y374992D02*
X271312Y374992D01*
X271312Y385992D01*
X276312Y385992D01*
X276312Y379742D02*
X271312Y379742D01*
X271312Y384492D02*
X276312Y384492D01*
X245912Y385992D02*
X245912Y374992D01*
X245912Y385992D02*
X250912Y385992D01*
X250912Y374992D01*
X245912Y374992D01*
X245912Y379742D02*
X250912Y379742D01*
X250912Y384492D02*
X245912Y384492D01*
X367626Y476210D02*
X378626Y476210D01*
X378626Y471210D01*
X367626Y471210D01*
X367626Y476210D01*
X367626Y475960D02*
X378626Y475960D01*
X467448Y381040D02*
X478448Y381040D01*
X467448Y381040D02*
X467448Y386040D01*
X478448Y386040D01*
X478448Y381040D01*
X478448Y385790D02*
X467448Y385790D01*
D18*
X428802Y489302D03*
X511402Y346202D03*
X428802Y203102D03*
X263602Y203102D03*
X181002Y346202D03*
X263602Y489302D03*
X470102Y417702D03*
X470102Y274702D03*
X346202Y203102D03*
X222302Y274702D03*
X222302Y417702D03*
X346202Y489302D03*
D19*
X345440Y321310D03*
X320040Y295910D03*
X345440Y270510D03*
X370840Y295910D03*
D20*
X289579Y426720D02*
X288724Y427575D01*
X268614Y421225D02*
X268417Y421421D01*
D21*
X351790Y453390D03*
D20*
X356367Y448813D01*
X367656Y448813D01*
D21*
X415290Y328930D03*
D20*
X414020Y327660D01*
X408940Y327660D01*
D21*
X424180Y455930D03*
D20*
X426720Y453390D01*
X438150Y453390D01*
D21*
X254000Y406400D03*
D20*
X321162Y366312D02*
X321162Y348660D01*
X322142Y347680D01*
X321162Y366312D02*
X321162Y375772D01*
X330200Y384810D02*
X330200Y391160D01*
X339852Y400812D01*
X343662Y400812D01*
X330200Y384810D02*
X321162Y375772D01*
X309162Y423312D02*
X336148Y423312D01*
X350520Y408940D02*
X350520Y401320D01*
X350012Y400812D01*
X343662Y400812D01*
X350520Y408940D02*
X336148Y423312D01*
X309162Y423312D02*
X292987Y423312D01*
X288724Y427575D01*
D21*
X450850Y344170D03*
D20*
X454660Y344170D01*
X309162Y428312D02*
X303208Y428312D01*
X288724Y440256D02*
X288724Y444500D01*
X288724Y444575D01*
X272570Y444575D01*
X268417Y440421D01*
X316162Y366312D02*
X316162Y361241D01*
X305142Y350220D02*
X305142Y347680D01*
X305142Y350220D02*
X316162Y361241D01*
X305142Y347680D02*
X304327Y346866D01*
X304327Y327472D01*
X378162Y428312D02*
X391237Y428312D01*
X398929Y436004D01*
X371162Y435312D02*
X371162Y435319D01*
X384656Y448813D01*
D22*
X386120Y448813D02*
X398929Y436004D01*
X386120Y448813D02*
X384656Y448813D01*
X303208Y428312D02*
X299720Y431800D01*
X299720Y440690D02*
X295910Y444500D01*
X288724Y444500D01*
X299720Y440690D02*
X299720Y431800D01*
D20*
X268417Y440421D02*
X255539Y440421D01*
X255270Y440690D01*
D21*
X255270Y440690D03*
D20*
X304327Y327472D02*
X301975Y325120D01*
X287020Y325120D01*
D21*
X287020Y325120D03*
D20*
X384656Y448813D02*
X385423Y449580D01*
X400050Y449580D01*
D21*
X400050Y449580D03*
D20*
X331162Y366312D02*
X331162Y362258D01*
X339090Y354330D02*
X349250Y354330D01*
D21*
X349250Y354330D03*
D20*
X339090Y354330D02*
X331162Y362258D01*
X309162Y398312D02*
X295442Y398312D01*
X290830Y393700D01*
X290830Y372110D01*
X278130Y359410D01*
X242160Y359410D01*
X223614Y377957D01*
X223614Y399547D01*
D21*
X223614Y399547D03*
D20*
X326162Y366312D02*
X326162Y359638D01*
X333805Y351995D02*
X333805Y349045D01*
X333805Y351995D02*
X326162Y359638D01*
D21*
X333805Y349045D03*
X215726Y294007D03*
D20*
X215726Y279574D01*
X220598Y274702D02*
X222302Y274702D01*
X220598Y274702D02*
X215726Y279574D01*
X290282Y403312D02*
X309162Y403312D01*
X290282Y403312D02*
X284480Y397510D01*
X284480Y373380D01*
X276860Y365760D01*
X245110Y365760D01*
X231192Y379678D01*
X231192Y408812D02*
X222302Y417702D01*
X231192Y408812D02*
X231192Y379678D01*
X296538Y408312D02*
X309162Y408312D01*
X296538Y408312D02*
X294962Y409888D01*
X294640Y409888D01*
D21*
X294640Y409888D03*
D20*
X378162Y388312D02*
X386388Y388312D01*
X401320Y373380D01*
X402590Y353874D02*
X412346Y353874D01*
X401320Y355144D02*
X401320Y373380D01*
X401320Y355144D02*
X402590Y353874D01*
X414442Y351778D02*
X433587Y351778D01*
X414442Y351778D02*
X412346Y353874D01*
X433587Y351778D02*
X433587Y333257D01*
X421640Y321310D01*
X421640Y316230D01*
D21*
X421640Y316230D03*
D20*
X326162Y435312D02*
X326162Y482372D01*
X327660Y483870D01*
X327250Y483870D01*
X326930Y483550D01*
D21*
X326930Y483550D03*
D20*
X331162Y478482D02*
X331162Y435312D01*
X341982Y489302D02*
X346202Y489302D01*
X341982Y489302D02*
X331162Y478482D01*
X378162Y408312D02*
X393072Y408312D01*
X402590Y417830D01*
X411745Y417830D01*
X411955Y417620D01*
X392978Y403312D02*
X378162Y403312D01*
X402670Y393620D02*
X411955Y393620D01*
X402670Y393620D02*
X392978Y403312D01*
X351162Y435312D02*
X351162Y443004D01*
X345666Y443004D01*
X341630Y447040D01*
X373126Y473710D02*
X373126Y487426D01*
X373380Y487680D01*
X374015Y487045D01*
D21*
X374015Y487045D03*
D20*
X341630Y455930D02*
X341630Y447040D01*
X341630Y455930D02*
X359410Y473710D01*
X373126Y473710D01*
D21*
X453390Y383540D03*
D20*
X472948Y383540D01*
X390358Y398312D02*
X378162Y398312D01*
X390358Y398312D02*
X406400Y382270D01*
X452120Y382270D01*
X453390Y383540D01*
X387738Y393312D02*
X378162Y393312D01*
X410176Y370874D02*
X412346Y370874D01*
X410176Y370874D02*
X387738Y393312D01*
X412346Y370874D02*
X433492Y370874D01*
X433587Y370778D01*
X434408Y369957D02*
X454823Y369957D01*
X434408Y369957D02*
X433587Y370778D01*
X382338Y373312D02*
X378162Y373312D01*
X382338Y373312D02*
X384810Y370840D01*
X384810Y337820D01*
D21*
X455060Y288315D03*
D20*
X434315Y288315D02*
X384810Y337820D01*
X434315Y288315D02*
X455060Y288315D01*
X366162Y336148D02*
X366162Y366312D01*
D21*
X422910Y251460D03*
D20*
X422910Y279400D02*
X366162Y336148D01*
X422910Y279400D02*
X422910Y251460D01*
X377512Y352342D02*
X371162Y358692D01*
X371162Y366312D01*
X377512Y352342D02*
X377512Y336228D01*
X470282Y274522D02*
X471372Y274522D01*
X470282Y274522D02*
X470102Y274702D01*
X454660Y280670D02*
X433070Y280670D01*
X454660Y280670D02*
X463550Y271780D01*
X463550Y270510D01*
X465910Y270510D01*
X470102Y274702D01*
X433070Y280670D02*
X377512Y336228D01*
X361162Y330988D02*
X361162Y366312D01*
X361162Y330988D02*
X408940Y283210D01*
X408940Y251460D01*
X407670Y251460D01*
D21*
X407670Y251460D03*
X355600Y218440D03*
D20*
X346202Y209042D01*
X346202Y203102D01*
X378162Y383312D02*
X385038Y383312D01*
X394970Y373380D02*
X394970Y350520D01*
X397510Y347980D01*
D21*
X397510Y347980D03*
D20*
X394970Y373380D02*
X385038Y383312D01*
X383688Y378312D02*
X378162Y378312D01*
X383688Y378312D02*
X389890Y372110D01*
D23*
X456654Y409956D03*
D20*
X464399Y417702D01*
X470102Y417702D01*
X389890Y341630D02*
X394970Y336550D01*
X402590Y336550D01*
X402590Y337622D01*
D21*
X402590Y337622D03*
D20*
X389890Y341630D02*
X389890Y372110D01*
X309162Y418312D02*
X292582Y418312D01*
X273812Y399542D02*
X273812Y394462D01*
X273812Y380492D01*
X273812Y399542D02*
X292582Y418312D01*
D21*
X274320Y394970D03*
D20*
X273812Y394462D01*
X316162Y435312D02*
X316162Y452188D01*
X312420Y455930D01*
D21*
X312420Y455930D03*
X247650Y394970D03*
D20*
X247650Y381254D01*
X248412Y380492D01*
X302112Y378312D02*
X309162Y378312D01*
X302112Y378312D02*
X300990Y377190D01*
X300990Y361950D01*
X271780Y332740D01*
X250190Y332740D01*
X246380Y328930D01*
X246380Y300990D01*
X267970Y279400D01*
X289560Y279400D01*
D21*
X289560Y279400D03*
D20*
X298222Y383312D02*
X309162Y383312D01*
X298222Y383312D02*
X295910Y381000D01*
X295910Y364490D01*
X270510Y339090D02*
X247650Y339090D01*
X238760Y330200D02*
X238760Y298450D01*
X270510Y339090D02*
X295910Y364490D01*
X247650Y339090D02*
X238760Y330200D01*
X266700Y270510D02*
X289560Y270510D01*
X266700Y270510D02*
X238760Y298450D01*
D24*
X289560Y270510D02*
X289560Y270312D01*
D21*
X289560Y270312D03*
M02*
