G04 EAGLE Gerber RS-274X export*
G75*
%MOMM*%
%FSLAX34Y34*%
%LPD*%
%INSilkscreen Top*%
%IPPOS*%
%AMOC8*
5,1,8,0,0,1.08239X$1,22.5*%
G01*
%ADD10C,0.101600*%
%ADD11C,0.152400*%
%ADD12R,0.014731X0.014731*%
%ADD13R,0.147319X0.014731*%
%ADD14R,0.265175X0.014731*%
%ADD15R,0.383031X0.014731*%
%ADD16R,0.515619X0.014731*%
%ADD17R,0.633475X0.014731*%
%ADD18R,0.751331X0.014731*%
%ADD19R,0.883919X0.014731*%
%ADD20R,1.001775X0.014731*%
%ADD21R,1.119631X0.014731*%
%ADD22R,1.134363X0.014731*%
%ADD23R,1.149094X0.014731*%
%ADD24R,1.163825X0.014731*%
%ADD25R,1.178556X0.014731*%
%ADD26R,1.193288X0.014731*%
%ADD27R,1.222756X0.014731*%
%ADD28R,1.237488X0.014731*%
%ADD29R,1.266950X0.014731*%
%ADD30R,1.281681X0.014731*%
%ADD31R,1.311144X0.014731*%
%ADD32R,1.325881X0.014731*%
%ADD33R,1.355344X0.014731*%
%ADD34R,1.370075X0.014731*%
%ADD35R,1.384806X0.014731*%
%ADD36R,1.399538X0.014731*%
%ADD37R,1.414275X0.014731*%
%ADD38R,1.443738X0.014731*%
%ADD39R,1.458469X0.014731*%
%ADD40R,1.487931X0.014731*%
%ADD41R,1.502663X0.014731*%
%ADD42R,1.517394X0.014731*%
%ADD43R,1.532125X0.014731*%
%ADD44R,1.546856X0.014731*%
%ADD45R,1.576319X0.014731*%
%ADD46R,1.605788X0.014731*%
%ADD47R,1.620519X0.014731*%
%ADD48R,1.649981X0.014731*%
%ADD49R,1.664713X0.014731*%
%ADD50R,1.694175X0.014731*%
%ADD51R,1.708913X0.014731*%
%ADD52R,1.738375X0.014731*%
%ADD53R,1.753106X0.014731*%
%ADD54R,1.767838X0.014731*%
%ADD55R,1.782569X0.014731*%
%ADD56R,1.797306X0.014731*%
%ADD57R,0.117856X0.014731*%
%ADD58R,1.826769X0.014731*%
%ADD59R,0.235713X0.014731*%
%ADD60R,0.353569X0.014731*%
%ADD61R,1.856231X0.014731*%
%ADD62R,0.486156X0.014731*%
%ADD63R,1.870963X0.014731*%
%ADD64R,0.604013X0.014731*%
%ADD65R,0.721869X0.014731*%
%ADD66R,1.885694X0.014731*%
%ADD67R,0.839719X0.014731*%
%ADD68R,0.972306X0.014731*%
%ADD69R,1.090169X0.014731*%
%ADD70R,1.208025X0.014731*%
%ADD71R,1.252219X0.014731*%
%ADD72R,1.296412X0.014731*%
%ADD73R,1.340612X0.014731*%
%ADD74R,1.826763X0.014731*%
%ADD75R,1.414269X0.014731*%
%ADD76R,1.812031X0.014731*%
%ADD77R,1.429000X0.014731*%
%ADD78R,1.458462X0.014731*%
%ADD79R,1.473200X0.014731*%
%ADD80R,1.723644X0.014731*%
%ADD81R,1.694181X0.014731*%
%ADD82R,1.679450X0.014731*%
%ADD83R,1.561594X0.014731*%
%ADD84R,1.576325X0.014731*%
%ADD85R,1.591056X0.014731*%
%ADD86R,1.635250X0.014731*%
%ADD87R,1.561588X0.014731*%
%ADD88R,1.443731X0.014731*%
%ADD89R,1.797300X0.014731*%
%ADD90R,1.841500X0.014731*%
%ADD91R,1.311150X0.014731*%
%ADD92R,1.296419X0.014731*%
%ADD93R,1.193294X0.014731*%
%ADD94R,0.957575X0.014731*%
%ADD95R,0.589281X0.014731*%
%ADD96R,0.471425X0.014731*%
%ADD97R,0.220975X0.014731*%
%ADD98R,1.812038X0.014731*%
%ADD99R,0.103119X0.014731*%
%ADD100R,0.029463X0.014731*%
%ADD101R,0.162050X0.014731*%
%ADD102R,0.397763X0.014731*%
%ADD103R,0.648206X0.014731*%
%ADD104R,1.679444X0.014731*%
%ADD105R,1.016506X0.014731*%
%ADD106R,1.104900X0.014731*%
%ADD107R,1.222750X0.014731*%
%ADD108R,1.429006X0.014731*%
%ADD109R,1.208019X0.014731*%
%ADD110R,0.987044X0.014731*%
%ADD111R,0.854456X0.014731*%
%ADD112R,0.618744X0.014731*%
%ADD113R,0.500888X0.014731*%
%ADD114R,0.368300X0.014731*%
%ADD115R,0.132587X0.014731*%
%ADD116R,1.664719X0.014731*%
%ADD117R,1.075438X0.014731*%
%ADD118R,0.942844X0.014731*%
%ADD119R,0.707131X0.014731*%
%ADD120R,0.456694X0.014731*%
%ADD121R,0.088388X0.014731*%
%ADD122C,0.076200*%
%ADD123C,0.127000*%
%ADD124C,0.050800*%


D10*
X403428Y475532D02*
X406086Y473670D01*
X406180Y473607D01*
X406276Y473547D01*
X406374Y473490D01*
X406474Y473437D01*
X406576Y473387D01*
X406680Y473341D01*
X406785Y473299D01*
X406891Y473260D01*
X406999Y473225D01*
X407108Y473194D01*
X407218Y473166D01*
X407329Y473143D01*
X407440Y473123D01*
X407552Y473107D01*
X407665Y473095D01*
X407778Y473087D01*
X407891Y473083D01*
X408005Y473083D01*
X408118Y473087D01*
X408231Y473095D01*
X408344Y473107D01*
X408456Y473123D01*
X408567Y473143D01*
X408678Y473166D01*
X408788Y473194D01*
X408897Y473225D01*
X409005Y473260D01*
X409111Y473299D01*
X409216Y473341D01*
X409320Y473387D01*
X409422Y473437D01*
X409522Y473490D01*
X409620Y473547D01*
X409716Y473607D01*
X409810Y473670D01*
X409901Y473737D01*
X409991Y473806D01*
X410078Y473879D01*
X410162Y473955D01*
X410243Y474034D01*
X410322Y474115D01*
X410398Y474199D01*
X410471Y474286D01*
X410540Y474376D01*
X410607Y474467D01*
X410670Y474561D01*
X410730Y474657D01*
X410787Y474755D01*
X410840Y474855D01*
X410890Y474957D01*
X410936Y475061D01*
X410978Y475166D01*
X411017Y475272D01*
X411052Y475380D01*
X411083Y475489D01*
X411111Y475599D01*
X411134Y475710D01*
X411154Y475821D01*
X411170Y475933D01*
X411182Y476046D01*
X411190Y476159D01*
X411194Y476272D01*
X411194Y476386D01*
X411190Y476499D01*
X411182Y476612D01*
X411170Y476725D01*
X411154Y476837D01*
X411134Y476948D01*
X411111Y477059D01*
X411083Y477169D01*
X411052Y477278D01*
X411017Y477386D01*
X410978Y477492D01*
X410936Y477597D01*
X410890Y477701D01*
X410840Y477803D01*
X410787Y477903D01*
X410730Y478001D01*
X410670Y478097D01*
X410607Y478191D01*
X410540Y478282D01*
X410471Y478372D01*
X410398Y478459D01*
X410322Y478543D01*
X410243Y478624D01*
X410162Y478703D01*
X410078Y478779D01*
X409991Y478852D01*
X409902Y478921D01*
X409810Y478988D01*
X413320Y482869D02*
X410129Y485103D01*
X413319Y482869D02*
X413400Y482809D01*
X413479Y482747D01*
X413556Y482681D01*
X413630Y482613D01*
X413701Y482542D01*
X413769Y482468D01*
X413835Y482391D01*
X413897Y482312D01*
X413957Y482231D01*
X414013Y482147D01*
X414066Y482062D01*
X414115Y481974D01*
X414161Y481885D01*
X414204Y481793D01*
X414243Y481700D01*
X414278Y481606D01*
X414310Y481511D01*
X414338Y481414D01*
X414362Y481316D01*
X414382Y481218D01*
X414399Y481118D01*
X414411Y481018D01*
X414420Y480918D01*
X414425Y480818D01*
X414426Y480717D01*
X414423Y480616D01*
X414416Y480516D01*
X414405Y480416D01*
X414391Y480316D01*
X414372Y480217D01*
X414350Y480119D01*
X414324Y480022D01*
X414294Y479925D01*
X414261Y479831D01*
X414224Y479737D01*
X414183Y479645D01*
X414138Y479554D01*
X414091Y479466D01*
X414039Y479379D01*
X413985Y479295D01*
X413927Y479212D01*
X413866Y479132D01*
X413802Y479054D01*
X413735Y478979D01*
X413666Y478906D01*
X413593Y478837D01*
X413518Y478770D01*
X413440Y478706D01*
X413360Y478645D01*
X413277Y478587D01*
X413193Y478533D01*
X413106Y478481D01*
X413018Y478434D01*
X412927Y478389D01*
X412835Y478348D01*
X412741Y478311D01*
X412647Y478278D01*
X412550Y478248D01*
X412453Y478222D01*
X412355Y478200D01*
X412256Y478181D01*
X412156Y478167D01*
X412056Y478156D01*
X411956Y478149D01*
X411855Y478146D01*
X411754Y478147D01*
X411654Y478152D01*
X411554Y478161D01*
X411454Y478173D01*
X411354Y478190D01*
X411256Y478210D01*
X411158Y478234D01*
X411061Y478262D01*
X410966Y478294D01*
X410872Y478329D01*
X410779Y478368D01*
X410687Y478411D01*
X410598Y478457D01*
X410510Y478506D01*
X410425Y478559D01*
X410341Y478615D01*
X408214Y480105D01*
X418960Y478919D02*
X415449Y467114D01*
X425341Y474452D01*
X422153Y462420D02*
X424812Y460558D01*
X424906Y460495D01*
X425002Y460435D01*
X425100Y460378D01*
X425200Y460325D01*
X425302Y460275D01*
X425406Y460229D01*
X425511Y460187D01*
X425617Y460148D01*
X425725Y460113D01*
X425834Y460082D01*
X425944Y460054D01*
X426055Y460031D01*
X426166Y460011D01*
X426278Y459995D01*
X426391Y459983D01*
X426504Y459975D01*
X426617Y459971D01*
X426731Y459971D01*
X426844Y459975D01*
X426957Y459983D01*
X427070Y459995D01*
X427182Y460011D01*
X427293Y460031D01*
X427404Y460054D01*
X427514Y460082D01*
X427623Y460113D01*
X427731Y460148D01*
X427837Y460187D01*
X427942Y460229D01*
X428046Y460275D01*
X428148Y460325D01*
X428248Y460378D01*
X428346Y460435D01*
X428442Y460495D01*
X428536Y460558D01*
X428627Y460625D01*
X428717Y460694D01*
X428804Y460767D01*
X428888Y460843D01*
X428969Y460922D01*
X429048Y461003D01*
X429124Y461087D01*
X429197Y461174D01*
X429266Y461264D01*
X429333Y461355D01*
X429396Y461449D01*
X429456Y461545D01*
X429513Y461643D01*
X429566Y461743D01*
X429616Y461845D01*
X429662Y461949D01*
X429704Y462054D01*
X429743Y462160D01*
X429778Y462268D01*
X429809Y462377D01*
X429837Y462487D01*
X429860Y462598D01*
X429880Y462709D01*
X429896Y462821D01*
X429908Y462934D01*
X429916Y463047D01*
X429920Y463160D01*
X429920Y463274D01*
X429916Y463387D01*
X429908Y463500D01*
X429896Y463613D01*
X429880Y463725D01*
X429860Y463836D01*
X429837Y463947D01*
X429809Y464057D01*
X429778Y464166D01*
X429743Y464274D01*
X429704Y464380D01*
X429662Y464485D01*
X429616Y464589D01*
X429566Y464691D01*
X429513Y464791D01*
X429456Y464889D01*
X429396Y464985D01*
X429333Y465079D01*
X429266Y465170D01*
X429197Y465260D01*
X429124Y465347D01*
X429048Y465431D01*
X428969Y465512D01*
X428888Y465591D01*
X428804Y465667D01*
X428717Y465740D01*
X428628Y465809D01*
X428536Y465876D01*
X432045Y469757D02*
X428855Y471991D01*
X432045Y469757D02*
X432126Y469697D01*
X432205Y469635D01*
X432282Y469569D01*
X432356Y469501D01*
X432427Y469430D01*
X432495Y469356D01*
X432561Y469279D01*
X432623Y469200D01*
X432683Y469119D01*
X432739Y469035D01*
X432792Y468950D01*
X432841Y468862D01*
X432887Y468773D01*
X432930Y468681D01*
X432969Y468588D01*
X433004Y468494D01*
X433036Y468399D01*
X433064Y468302D01*
X433088Y468204D01*
X433108Y468106D01*
X433125Y468006D01*
X433137Y467906D01*
X433146Y467806D01*
X433151Y467706D01*
X433152Y467605D01*
X433149Y467504D01*
X433142Y467404D01*
X433131Y467304D01*
X433117Y467204D01*
X433098Y467105D01*
X433076Y467007D01*
X433050Y466910D01*
X433020Y466813D01*
X432987Y466719D01*
X432950Y466625D01*
X432909Y466533D01*
X432864Y466442D01*
X432817Y466354D01*
X432765Y466267D01*
X432711Y466183D01*
X432653Y466100D01*
X432592Y466020D01*
X432528Y465942D01*
X432461Y465867D01*
X432392Y465794D01*
X432319Y465725D01*
X432244Y465658D01*
X432166Y465594D01*
X432086Y465533D01*
X432003Y465475D01*
X431919Y465421D01*
X431832Y465369D01*
X431744Y465322D01*
X431653Y465277D01*
X431561Y465236D01*
X431467Y465199D01*
X431373Y465166D01*
X431276Y465136D01*
X431179Y465110D01*
X431081Y465088D01*
X430982Y465069D01*
X430882Y465055D01*
X430782Y465044D01*
X430682Y465037D01*
X430581Y465034D01*
X430480Y465035D01*
X430380Y465040D01*
X430280Y465049D01*
X430180Y465061D01*
X430080Y465078D01*
X429982Y465098D01*
X429884Y465122D01*
X429787Y465150D01*
X429692Y465182D01*
X429598Y465217D01*
X429505Y465256D01*
X429413Y465299D01*
X429324Y465345D01*
X429236Y465394D01*
X429151Y465447D01*
X429067Y465503D01*
X426940Y466993D01*
X497242Y334770D02*
X497242Y331524D01*
X497242Y334770D02*
X497240Y334883D01*
X497234Y334996D01*
X497224Y335109D01*
X497210Y335222D01*
X497193Y335334D01*
X497171Y335445D01*
X497146Y335555D01*
X497116Y335665D01*
X497083Y335773D01*
X497046Y335880D01*
X497006Y335986D01*
X496961Y336090D01*
X496913Y336193D01*
X496862Y336294D01*
X496807Y336393D01*
X496749Y336490D01*
X496687Y336585D01*
X496622Y336678D01*
X496554Y336768D01*
X496483Y336856D01*
X496408Y336942D01*
X496331Y337025D01*
X496251Y337105D01*
X496168Y337182D01*
X496082Y337257D01*
X495994Y337328D01*
X495904Y337396D01*
X495811Y337461D01*
X495716Y337523D01*
X495619Y337581D01*
X495520Y337636D01*
X495419Y337687D01*
X495316Y337735D01*
X495212Y337780D01*
X495106Y337820D01*
X494999Y337857D01*
X494891Y337890D01*
X494781Y337920D01*
X494671Y337945D01*
X494560Y337967D01*
X494448Y337984D01*
X494335Y337998D01*
X494222Y338008D01*
X494109Y338014D01*
X493996Y338016D01*
X493883Y338014D01*
X493770Y338008D01*
X493657Y337998D01*
X493544Y337984D01*
X493432Y337967D01*
X493321Y337945D01*
X493211Y337920D01*
X493101Y337890D01*
X492993Y337857D01*
X492886Y337820D01*
X492780Y337780D01*
X492676Y337735D01*
X492573Y337687D01*
X492472Y337636D01*
X492373Y337581D01*
X492276Y337523D01*
X492181Y337461D01*
X492088Y337396D01*
X491998Y337328D01*
X491910Y337257D01*
X491824Y337182D01*
X491741Y337105D01*
X491661Y337025D01*
X491584Y336942D01*
X491509Y336856D01*
X491438Y336768D01*
X491370Y336678D01*
X491305Y336585D01*
X491243Y336490D01*
X491185Y336393D01*
X491130Y336294D01*
X491079Y336193D01*
X491031Y336090D01*
X490986Y335986D01*
X490946Y335880D01*
X490909Y335773D01*
X490876Y335665D01*
X490846Y335555D01*
X490821Y335445D01*
X490799Y335334D01*
X490782Y335222D01*
X490768Y335109D01*
X490758Y334996D01*
X490752Y334883D01*
X490750Y334770D01*
X485558Y335419D02*
X485558Y331524D01*
X485558Y335419D02*
X485560Y335520D01*
X485566Y335620D01*
X485576Y335720D01*
X485589Y335820D01*
X485607Y335919D01*
X485628Y336018D01*
X485653Y336115D01*
X485682Y336212D01*
X485715Y336307D01*
X485751Y336401D01*
X485791Y336493D01*
X485834Y336584D01*
X485881Y336673D01*
X485931Y336760D01*
X485985Y336846D01*
X486042Y336929D01*
X486102Y337009D01*
X486165Y337088D01*
X486232Y337164D01*
X486301Y337237D01*
X486373Y337307D01*
X486447Y337375D01*
X486524Y337440D01*
X486604Y337501D01*
X486686Y337560D01*
X486770Y337615D01*
X486856Y337667D01*
X486944Y337716D01*
X487034Y337761D01*
X487126Y337803D01*
X487219Y337841D01*
X487314Y337875D01*
X487409Y337906D01*
X487506Y337933D01*
X487604Y337956D01*
X487703Y337976D01*
X487803Y337991D01*
X487903Y338003D01*
X488003Y338011D01*
X488104Y338015D01*
X488204Y338015D01*
X488305Y338011D01*
X488405Y338003D01*
X488505Y337991D01*
X488605Y337976D01*
X488704Y337956D01*
X488802Y337933D01*
X488899Y337906D01*
X488994Y337875D01*
X489089Y337841D01*
X489182Y337803D01*
X489274Y337761D01*
X489364Y337716D01*
X489452Y337667D01*
X489538Y337615D01*
X489622Y337560D01*
X489704Y337501D01*
X489784Y337440D01*
X489861Y337375D01*
X489935Y337307D01*
X490007Y337237D01*
X490076Y337164D01*
X490143Y337088D01*
X490206Y337009D01*
X490266Y336929D01*
X490323Y336846D01*
X490377Y336760D01*
X490427Y336673D01*
X490474Y336584D01*
X490517Y336493D01*
X490557Y336401D01*
X490593Y336307D01*
X490626Y336212D01*
X490655Y336115D01*
X490680Y336018D01*
X490701Y335919D01*
X490719Y335820D01*
X490732Y335720D01*
X490742Y335620D01*
X490748Y335520D01*
X490750Y335419D01*
X490751Y335419D02*
X490751Y332823D01*
X485558Y342305D02*
X497242Y346200D01*
X485558Y350095D01*
X497242Y354384D02*
X497242Y357630D01*
X497240Y357743D01*
X497234Y357856D01*
X497224Y357969D01*
X497210Y358082D01*
X497193Y358194D01*
X497171Y358305D01*
X497146Y358415D01*
X497116Y358525D01*
X497083Y358633D01*
X497046Y358740D01*
X497006Y358846D01*
X496961Y358950D01*
X496913Y359053D01*
X496862Y359154D01*
X496807Y359253D01*
X496749Y359350D01*
X496687Y359445D01*
X496622Y359538D01*
X496554Y359628D01*
X496483Y359716D01*
X496408Y359802D01*
X496331Y359885D01*
X496251Y359965D01*
X496168Y360042D01*
X496082Y360117D01*
X495994Y360188D01*
X495904Y360256D01*
X495811Y360321D01*
X495716Y360383D01*
X495619Y360441D01*
X495520Y360496D01*
X495419Y360547D01*
X495316Y360595D01*
X495212Y360640D01*
X495106Y360680D01*
X494999Y360717D01*
X494891Y360750D01*
X494781Y360780D01*
X494671Y360805D01*
X494560Y360827D01*
X494448Y360844D01*
X494335Y360858D01*
X494222Y360868D01*
X494109Y360874D01*
X493996Y360876D01*
X493883Y360874D01*
X493770Y360868D01*
X493657Y360858D01*
X493544Y360844D01*
X493432Y360827D01*
X493321Y360805D01*
X493211Y360780D01*
X493101Y360750D01*
X492993Y360717D01*
X492886Y360680D01*
X492780Y360640D01*
X492676Y360595D01*
X492573Y360547D01*
X492472Y360496D01*
X492373Y360441D01*
X492276Y360383D01*
X492181Y360321D01*
X492088Y360256D01*
X491998Y360188D01*
X491910Y360117D01*
X491824Y360042D01*
X491741Y359965D01*
X491661Y359885D01*
X491584Y359802D01*
X491509Y359716D01*
X491438Y359628D01*
X491370Y359538D01*
X491305Y359445D01*
X491243Y359350D01*
X491185Y359253D01*
X491130Y359154D01*
X491079Y359053D01*
X491031Y358950D01*
X490986Y358846D01*
X490946Y358740D01*
X490909Y358633D01*
X490876Y358525D01*
X490846Y358415D01*
X490821Y358305D01*
X490799Y358194D01*
X490782Y358082D01*
X490768Y357969D01*
X490758Y357856D01*
X490752Y357743D01*
X490750Y357630D01*
X485558Y358279D02*
X485558Y354384D01*
X485558Y358279D02*
X485560Y358380D01*
X485566Y358480D01*
X485576Y358580D01*
X485589Y358680D01*
X485607Y358779D01*
X485628Y358878D01*
X485653Y358975D01*
X485682Y359072D01*
X485715Y359167D01*
X485751Y359261D01*
X485791Y359353D01*
X485834Y359444D01*
X485881Y359533D01*
X485931Y359620D01*
X485985Y359706D01*
X486042Y359789D01*
X486102Y359869D01*
X486165Y359948D01*
X486232Y360024D01*
X486301Y360097D01*
X486373Y360167D01*
X486447Y360235D01*
X486524Y360300D01*
X486604Y360361D01*
X486686Y360420D01*
X486770Y360475D01*
X486856Y360527D01*
X486944Y360576D01*
X487034Y360621D01*
X487126Y360663D01*
X487219Y360701D01*
X487314Y360735D01*
X487409Y360766D01*
X487506Y360793D01*
X487604Y360816D01*
X487703Y360836D01*
X487803Y360851D01*
X487903Y360863D01*
X488003Y360871D01*
X488104Y360875D01*
X488204Y360875D01*
X488305Y360871D01*
X488405Y360863D01*
X488505Y360851D01*
X488605Y360836D01*
X488704Y360816D01*
X488802Y360793D01*
X488899Y360766D01*
X488994Y360735D01*
X489089Y360701D01*
X489182Y360663D01*
X489274Y360621D01*
X489364Y360576D01*
X489452Y360527D01*
X489538Y360475D01*
X489622Y360420D01*
X489704Y360361D01*
X489784Y360300D01*
X489861Y360235D01*
X489935Y360167D01*
X490007Y360097D01*
X490076Y360024D01*
X490143Y359948D01*
X490206Y359869D01*
X490266Y359789D01*
X490323Y359706D01*
X490377Y359620D01*
X490427Y359533D01*
X490474Y359444D01*
X490517Y359353D01*
X490557Y359261D01*
X490593Y359167D01*
X490626Y359072D01*
X490655Y358975D01*
X490680Y358878D01*
X490701Y358779D01*
X490719Y358680D01*
X490732Y358580D01*
X490742Y358480D01*
X490748Y358380D01*
X490750Y358279D01*
X490751Y358279D02*
X490751Y355683D01*
X412788Y209159D02*
X410129Y207297D01*
X412788Y209158D02*
X412879Y209225D01*
X412969Y209294D01*
X413056Y209367D01*
X413140Y209443D01*
X413221Y209522D01*
X413300Y209603D01*
X413376Y209687D01*
X413449Y209774D01*
X413518Y209864D01*
X413585Y209955D01*
X413648Y210049D01*
X413708Y210145D01*
X413765Y210243D01*
X413818Y210343D01*
X413868Y210445D01*
X413914Y210549D01*
X413956Y210654D01*
X413995Y210760D01*
X414030Y210868D01*
X414061Y210977D01*
X414089Y211087D01*
X414112Y211198D01*
X414132Y211309D01*
X414148Y211421D01*
X414160Y211534D01*
X414168Y211647D01*
X414172Y211760D01*
X414172Y211874D01*
X414168Y211987D01*
X414160Y212100D01*
X414148Y212213D01*
X414132Y212325D01*
X414112Y212436D01*
X414089Y212547D01*
X414061Y212657D01*
X414030Y212766D01*
X413995Y212874D01*
X413956Y212980D01*
X413914Y213085D01*
X413868Y213189D01*
X413818Y213291D01*
X413765Y213391D01*
X413708Y213489D01*
X413648Y213585D01*
X413585Y213679D01*
X413518Y213770D01*
X413449Y213860D01*
X413376Y213947D01*
X413300Y214031D01*
X413221Y214112D01*
X413140Y214191D01*
X413056Y214267D01*
X412969Y214340D01*
X412880Y214409D01*
X412788Y214476D01*
X412694Y214539D01*
X412598Y214599D01*
X412500Y214656D01*
X412400Y214709D01*
X412298Y214759D01*
X412194Y214805D01*
X412089Y214847D01*
X411983Y214886D01*
X411875Y214921D01*
X411766Y214952D01*
X411656Y214980D01*
X411545Y215003D01*
X411434Y215023D01*
X411322Y215039D01*
X411209Y215051D01*
X411096Y215059D01*
X410983Y215063D01*
X410869Y215063D01*
X410756Y215059D01*
X410643Y215051D01*
X410530Y215039D01*
X410418Y215023D01*
X410307Y215003D01*
X410196Y214980D01*
X410086Y214952D01*
X409977Y214921D01*
X409869Y214886D01*
X409763Y214847D01*
X409658Y214805D01*
X409554Y214759D01*
X409452Y214709D01*
X409352Y214656D01*
X409254Y214599D01*
X409158Y214539D01*
X409064Y214476D01*
X406618Y219102D02*
X403428Y216868D01*
X406618Y219102D02*
X406702Y219158D01*
X406787Y219211D01*
X406875Y219260D01*
X406964Y219306D01*
X407056Y219349D01*
X407149Y219388D01*
X407243Y219423D01*
X407338Y219455D01*
X407435Y219483D01*
X407533Y219507D01*
X407631Y219527D01*
X407731Y219544D01*
X407831Y219556D01*
X407931Y219565D01*
X408032Y219570D01*
X408132Y219571D01*
X408233Y219568D01*
X408333Y219561D01*
X408433Y219550D01*
X408533Y219536D01*
X408632Y219517D01*
X408730Y219495D01*
X408827Y219469D01*
X408924Y219439D01*
X409019Y219406D01*
X409112Y219369D01*
X409204Y219328D01*
X409295Y219283D01*
X409383Y219236D01*
X409470Y219184D01*
X409554Y219130D01*
X409637Y219072D01*
X409717Y219011D01*
X409795Y218947D01*
X409870Y218880D01*
X409943Y218811D01*
X410012Y218738D01*
X410079Y218663D01*
X410143Y218585D01*
X410204Y218505D01*
X410262Y218422D01*
X410316Y218338D01*
X410368Y218251D01*
X410415Y218163D01*
X410460Y218072D01*
X410501Y217980D01*
X410538Y217886D01*
X410571Y217792D01*
X410601Y217695D01*
X410627Y217598D01*
X410649Y217500D01*
X410668Y217401D01*
X410682Y217301D01*
X410693Y217201D01*
X410700Y217101D01*
X410703Y217000D01*
X410702Y216900D01*
X410697Y216799D01*
X410688Y216699D01*
X410676Y216599D01*
X410659Y216499D01*
X410639Y216401D01*
X410615Y216303D01*
X410587Y216206D01*
X410555Y216111D01*
X410520Y216017D01*
X410481Y215924D01*
X410438Y215832D01*
X410392Y215743D01*
X410343Y215655D01*
X410290Y215570D01*
X410234Y215486D01*
X410174Y215405D01*
X410112Y215326D01*
X410046Y215249D01*
X409978Y215175D01*
X409907Y215104D01*
X409833Y215036D01*
X409756Y214970D01*
X409677Y214908D01*
X409596Y214848D01*
X407470Y213359D01*
X412259Y223052D02*
X422151Y215714D01*
X418639Y227519D01*
X428855Y220409D02*
X431514Y222270D01*
X431605Y222337D01*
X431695Y222406D01*
X431782Y222479D01*
X431866Y222555D01*
X431947Y222634D01*
X432026Y222715D01*
X432102Y222799D01*
X432175Y222886D01*
X432244Y222976D01*
X432311Y223067D01*
X432374Y223161D01*
X432434Y223257D01*
X432491Y223355D01*
X432544Y223455D01*
X432594Y223557D01*
X432640Y223661D01*
X432682Y223766D01*
X432721Y223872D01*
X432756Y223980D01*
X432787Y224089D01*
X432815Y224199D01*
X432838Y224310D01*
X432858Y224421D01*
X432874Y224533D01*
X432886Y224646D01*
X432894Y224759D01*
X432898Y224872D01*
X432898Y224986D01*
X432894Y225099D01*
X432886Y225212D01*
X432874Y225325D01*
X432858Y225437D01*
X432838Y225548D01*
X432815Y225659D01*
X432787Y225769D01*
X432756Y225878D01*
X432721Y225986D01*
X432682Y226092D01*
X432640Y226197D01*
X432594Y226301D01*
X432544Y226403D01*
X432491Y226503D01*
X432434Y226601D01*
X432374Y226697D01*
X432311Y226791D01*
X432244Y226882D01*
X432175Y226972D01*
X432102Y227059D01*
X432026Y227143D01*
X431947Y227224D01*
X431866Y227303D01*
X431782Y227379D01*
X431695Y227452D01*
X431606Y227521D01*
X431514Y227588D01*
X431420Y227651D01*
X431324Y227711D01*
X431226Y227768D01*
X431126Y227821D01*
X431024Y227871D01*
X430920Y227917D01*
X430815Y227959D01*
X430709Y227998D01*
X430601Y228033D01*
X430492Y228064D01*
X430382Y228092D01*
X430271Y228115D01*
X430160Y228135D01*
X430048Y228151D01*
X429935Y228163D01*
X429822Y228171D01*
X429709Y228175D01*
X429595Y228175D01*
X429482Y228171D01*
X429369Y228163D01*
X429256Y228151D01*
X429144Y228135D01*
X429033Y228115D01*
X428922Y228092D01*
X428812Y228064D01*
X428703Y228033D01*
X428595Y227998D01*
X428489Y227959D01*
X428384Y227917D01*
X428280Y227871D01*
X428178Y227821D01*
X428078Y227768D01*
X427980Y227711D01*
X427884Y227651D01*
X427790Y227588D01*
X425344Y232214D02*
X422153Y229980D01*
X425344Y232214D02*
X425428Y232270D01*
X425513Y232323D01*
X425601Y232372D01*
X425690Y232418D01*
X425782Y232461D01*
X425875Y232500D01*
X425969Y232535D01*
X426064Y232567D01*
X426161Y232595D01*
X426259Y232619D01*
X426357Y232639D01*
X426457Y232656D01*
X426557Y232668D01*
X426657Y232677D01*
X426758Y232682D01*
X426858Y232683D01*
X426959Y232680D01*
X427059Y232673D01*
X427159Y232662D01*
X427259Y232648D01*
X427358Y232629D01*
X427456Y232607D01*
X427553Y232581D01*
X427650Y232551D01*
X427745Y232518D01*
X427838Y232481D01*
X427930Y232440D01*
X428021Y232395D01*
X428109Y232348D01*
X428196Y232296D01*
X428280Y232242D01*
X428363Y232184D01*
X428443Y232123D01*
X428521Y232059D01*
X428596Y231992D01*
X428669Y231923D01*
X428738Y231850D01*
X428805Y231775D01*
X428869Y231697D01*
X428930Y231617D01*
X428988Y231534D01*
X429042Y231450D01*
X429094Y231363D01*
X429141Y231275D01*
X429186Y231184D01*
X429227Y231092D01*
X429264Y230998D01*
X429297Y230904D01*
X429327Y230807D01*
X429353Y230710D01*
X429375Y230612D01*
X429394Y230513D01*
X429408Y230413D01*
X429419Y230313D01*
X429426Y230213D01*
X429429Y230112D01*
X429428Y230012D01*
X429423Y229911D01*
X429414Y229811D01*
X429402Y229711D01*
X429385Y229611D01*
X429365Y229513D01*
X429341Y229415D01*
X429313Y229318D01*
X429281Y229223D01*
X429246Y229129D01*
X429207Y229036D01*
X429164Y228944D01*
X429118Y228855D01*
X429069Y228767D01*
X429016Y228682D01*
X428960Y228598D01*
X428900Y228517D01*
X428838Y228438D01*
X428772Y228361D01*
X428704Y228287D01*
X428633Y228216D01*
X428559Y228148D01*
X428482Y228082D01*
X428403Y228020D01*
X428322Y227960D01*
X426195Y226471D01*
X260886Y222270D02*
X258228Y224132D01*
X260886Y222270D02*
X260980Y222207D01*
X261076Y222147D01*
X261174Y222090D01*
X261274Y222037D01*
X261376Y221987D01*
X261480Y221941D01*
X261585Y221899D01*
X261691Y221860D01*
X261799Y221825D01*
X261908Y221794D01*
X262018Y221766D01*
X262129Y221743D01*
X262240Y221723D01*
X262352Y221707D01*
X262465Y221695D01*
X262578Y221687D01*
X262691Y221683D01*
X262805Y221683D01*
X262918Y221687D01*
X263031Y221695D01*
X263144Y221707D01*
X263256Y221723D01*
X263367Y221743D01*
X263478Y221766D01*
X263588Y221794D01*
X263697Y221825D01*
X263805Y221860D01*
X263911Y221899D01*
X264016Y221941D01*
X264120Y221987D01*
X264222Y222037D01*
X264322Y222090D01*
X264420Y222147D01*
X264516Y222207D01*
X264610Y222270D01*
X264701Y222337D01*
X264791Y222406D01*
X264878Y222479D01*
X264962Y222555D01*
X265043Y222634D01*
X265122Y222715D01*
X265198Y222799D01*
X265271Y222886D01*
X265340Y222976D01*
X265407Y223067D01*
X265470Y223161D01*
X265530Y223257D01*
X265587Y223355D01*
X265640Y223455D01*
X265690Y223557D01*
X265736Y223661D01*
X265778Y223766D01*
X265817Y223872D01*
X265852Y223980D01*
X265883Y224089D01*
X265911Y224199D01*
X265934Y224310D01*
X265954Y224421D01*
X265970Y224533D01*
X265982Y224646D01*
X265990Y224759D01*
X265994Y224872D01*
X265994Y224986D01*
X265990Y225099D01*
X265982Y225212D01*
X265970Y225325D01*
X265954Y225437D01*
X265934Y225548D01*
X265911Y225659D01*
X265883Y225769D01*
X265852Y225878D01*
X265817Y225986D01*
X265778Y226092D01*
X265736Y226197D01*
X265690Y226301D01*
X265640Y226403D01*
X265587Y226503D01*
X265530Y226601D01*
X265470Y226697D01*
X265407Y226791D01*
X265340Y226882D01*
X265271Y226972D01*
X265198Y227059D01*
X265122Y227143D01*
X265043Y227224D01*
X264962Y227303D01*
X264878Y227379D01*
X264791Y227452D01*
X264702Y227521D01*
X264610Y227588D01*
X268120Y231469D02*
X264929Y233703D01*
X268119Y231469D02*
X268200Y231409D01*
X268279Y231347D01*
X268356Y231281D01*
X268430Y231213D01*
X268501Y231142D01*
X268569Y231068D01*
X268635Y230991D01*
X268697Y230912D01*
X268757Y230831D01*
X268813Y230747D01*
X268866Y230662D01*
X268915Y230574D01*
X268961Y230485D01*
X269004Y230393D01*
X269043Y230300D01*
X269078Y230206D01*
X269110Y230111D01*
X269138Y230014D01*
X269162Y229916D01*
X269182Y229818D01*
X269199Y229718D01*
X269211Y229618D01*
X269220Y229518D01*
X269225Y229418D01*
X269226Y229317D01*
X269223Y229216D01*
X269216Y229116D01*
X269205Y229016D01*
X269191Y228916D01*
X269172Y228817D01*
X269150Y228719D01*
X269124Y228622D01*
X269094Y228525D01*
X269061Y228431D01*
X269024Y228337D01*
X268983Y228245D01*
X268938Y228154D01*
X268891Y228066D01*
X268839Y227979D01*
X268785Y227895D01*
X268727Y227812D01*
X268666Y227732D01*
X268602Y227654D01*
X268535Y227579D01*
X268466Y227506D01*
X268393Y227437D01*
X268318Y227370D01*
X268240Y227306D01*
X268160Y227245D01*
X268077Y227187D01*
X267993Y227133D01*
X267906Y227081D01*
X267818Y227034D01*
X267727Y226989D01*
X267635Y226948D01*
X267541Y226911D01*
X267447Y226878D01*
X267350Y226848D01*
X267253Y226822D01*
X267155Y226800D01*
X267056Y226781D01*
X266956Y226767D01*
X266856Y226756D01*
X266756Y226749D01*
X266655Y226746D01*
X266554Y226747D01*
X266454Y226752D01*
X266354Y226761D01*
X266254Y226773D01*
X266154Y226790D01*
X266056Y226810D01*
X265958Y226834D01*
X265861Y226862D01*
X265766Y226894D01*
X265672Y226929D01*
X265579Y226968D01*
X265487Y227011D01*
X265398Y227057D01*
X265310Y227106D01*
X265225Y227159D01*
X265141Y227215D01*
X263014Y228705D01*
X273760Y227519D02*
X270249Y215714D01*
X280141Y223052D01*
X276953Y211020D02*
X279612Y209158D01*
X279706Y209095D01*
X279802Y209035D01*
X279900Y208978D01*
X280000Y208925D01*
X280102Y208875D01*
X280206Y208829D01*
X280311Y208787D01*
X280417Y208748D01*
X280525Y208713D01*
X280634Y208682D01*
X280744Y208654D01*
X280855Y208631D01*
X280966Y208611D01*
X281078Y208595D01*
X281191Y208583D01*
X281304Y208575D01*
X281417Y208571D01*
X281531Y208571D01*
X281644Y208575D01*
X281757Y208583D01*
X281870Y208595D01*
X281982Y208611D01*
X282093Y208631D01*
X282204Y208654D01*
X282314Y208682D01*
X282423Y208713D01*
X282531Y208748D01*
X282637Y208787D01*
X282742Y208829D01*
X282846Y208875D01*
X282948Y208925D01*
X283048Y208978D01*
X283146Y209035D01*
X283242Y209095D01*
X283336Y209158D01*
X283427Y209225D01*
X283517Y209294D01*
X283604Y209367D01*
X283688Y209443D01*
X283769Y209522D01*
X283848Y209603D01*
X283924Y209687D01*
X283997Y209774D01*
X284066Y209864D01*
X284133Y209955D01*
X284196Y210049D01*
X284256Y210145D01*
X284313Y210243D01*
X284366Y210343D01*
X284416Y210445D01*
X284462Y210549D01*
X284504Y210654D01*
X284543Y210760D01*
X284578Y210868D01*
X284609Y210977D01*
X284637Y211087D01*
X284660Y211198D01*
X284680Y211309D01*
X284696Y211421D01*
X284708Y211534D01*
X284716Y211647D01*
X284720Y211760D01*
X284720Y211874D01*
X284716Y211987D01*
X284708Y212100D01*
X284696Y212213D01*
X284680Y212325D01*
X284660Y212436D01*
X284637Y212547D01*
X284609Y212657D01*
X284578Y212766D01*
X284543Y212874D01*
X284504Y212980D01*
X284462Y213085D01*
X284416Y213189D01*
X284366Y213291D01*
X284313Y213391D01*
X284256Y213489D01*
X284196Y213585D01*
X284133Y213679D01*
X284066Y213770D01*
X283997Y213860D01*
X283924Y213947D01*
X283848Y214031D01*
X283769Y214112D01*
X283688Y214191D01*
X283604Y214267D01*
X283517Y214340D01*
X283428Y214409D01*
X283336Y214476D01*
X286845Y218357D02*
X283655Y220591D01*
X286845Y218357D02*
X286926Y218297D01*
X287005Y218235D01*
X287082Y218169D01*
X287156Y218101D01*
X287227Y218030D01*
X287295Y217956D01*
X287361Y217879D01*
X287423Y217800D01*
X287483Y217719D01*
X287539Y217635D01*
X287592Y217550D01*
X287641Y217462D01*
X287687Y217373D01*
X287730Y217281D01*
X287769Y217188D01*
X287804Y217094D01*
X287836Y216999D01*
X287864Y216902D01*
X287888Y216804D01*
X287908Y216706D01*
X287925Y216606D01*
X287937Y216506D01*
X287946Y216406D01*
X287951Y216306D01*
X287952Y216205D01*
X287949Y216104D01*
X287942Y216004D01*
X287931Y215904D01*
X287917Y215804D01*
X287898Y215705D01*
X287876Y215607D01*
X287850Y215510D01*
X287820Y215413D01*
X287787Y215319D01*
X287750Y215225D01*
X287709Y215133D01*
X287664Y215042D01*
X287617Y214954D01*
X287565Y214867D01*
X287511Y214783D01*
X287453Y214700D01*
X287392Y214620D01*
X287328Y214542D01*
X287261Y214467D01*
X287192Y214394D01*
X287119Y214325D01*
X287044Y214258D01*
X286966Y214194D01*
X286886Y214133D01*
X286803Y214075D01*
X286719Y214021D01*
X286632Y213969D01*
X286544Y213922D01*
X286453Y213877D01*
X286361Y213836D01*
X286267Y213799D01*
X286173Y213766D01*
X286076Y213736D01*
X285979Y213710D01*
X285881Y213688D01*
X285782Y213669D01*
X285682Y213655D01*
X285582Y213644D01*
X285482Y213637D01*
X285381Y213634D01*
X285280Y213635D01*
X285180Y213640D01*
X285080Y213649D01*
X284980Y213661D01*
X284880Y213678D01*
X284782Y213698D01*
X284684Y213722D01*
X284587Y213750D01*
X284492Y213782D01*
X284398Y213817D01*
X284305Y213856D01*
X284213Y213899D01*
X284124Y213945D01*
X284036Y213994D01*
X283951Y214047D01*
X283867Y214103D01*
X281740Y215593D01*
X206842Y331524D02*
X206842Y334770D01*
X206840Y334883D01*
X206834Y334996D01*
X206824Y335109D01*
X206810Y335222D01*
X206793Y335334D01*
X206771Y335445D01*
X206746Y335555D01*
X206716Y335665D01*
X206683Y335773D01*
X206646Y335880D01*
X206606Y335986D01*
X206561Y336090D01*
X206513Y336193D01*
X206462Y336294D01*
X206407Y336393D01*
X206349Y336490D01*
X206287Y336585D01*
X206222Y336678D01*
X206154Y336768D01*
X206083Y336856D01*
X206008Y336942D01*
X205931Y337025D01*
X205851Y337105D01*
X205768Y337182D01*
X205682Y337257D01*
X205594Y337328D01*
X205504Y337396D01*
X205411Y337461D01*
X205316Y337523D01*
X205219Y337581D01*
X205120Y337636D01*
X205019Y337687D01*
X204916Y337735D01*
X204812Y337780D01*
X204706Y337820D01*
X204599Y337857D01*
X204491Y337890D01*
X204381Y337920D01*
X204271Y337945D01*
X204160Y337967D01*
X204048Y337984D01*
X203935Y337998D01*
X203822Y338008D01*
X203709Y338014D01*
X203596Y338016D01*
X203483Y338014D01*
X203370Y338008D01*
X203257Y337998D01*
X203144Y337984D01*
X203032Y337967D01*
X202921Y337945D01*
X202811Y337920D01*
X202701Y337890D01*
X202593Y337857D01*
X202486Y337820D01*
X202380Y337780D01*
X202276Y337735D01*
X202173Y337687D01*
X202072Y337636D01*
X201973Y337581D01*
X201876Y337523D01*
X201781Y337461D01*
X201688Y337396D01*
X201598Y337328D01*
X201510Y337257D01*
X201424Y337182D01*
X201341Y337105D01*
X201261Y337025D01*
X201184Y336942D01*
X201109Y336856D01*
X201038Y336768D01*
X200970Y336678D01*
X200905Y336585D01*
X200843Y336490D01*
X200785Y336393D01*
X200730Y336294D01*
X200679Y336193D01*
X200631Y336090D01*
X200586Y335986D01*
X200546Y335880D01*
X200509Y335773D01*
X200476Y335665D01*
X200446Y335555D01*
X200421Y335445D01*
X200399Y335334D01*
X200382Y335222D01*
X200368Y335109D01*
X200358Y334996D01*
X200352Y334883D01*
X200350Y334770D01*
X195158Y335419D02*
X195158Y331524D01*
X195158Y335419D02*
X195160Y335520D01*
X195166Y335620D01*
X195176Y335720D01*
X195189Y335820D01*
X195207Y335919D01*
X195228Y336018D01*
X195253Y336115D01*
X195282Y336212D01*
X195315Y336307D01*
X195351Y336401D01*
X195391Y336493D01*
X195434Y336584D01*
X195481Y336673D01*
X195531Y336760D01*
X195585Y336846D01*
X195642Y336929D01*
X195702Y337009D01*
X195765Y337088D01*
X195832Y337164D01*
X195901Y337237D01*
X195973Y337307D01*
X196047Y337375D01*
X196124Y337440D01*
X196204Y337501D01*
X196286Y337560D01*
X196370Y337615D01*
X196456Y337667D01*
X196544Y337716D01*
X196634Y337761D01*
X196726Y337803D01*
X196819Y337841D01*
X196914Y337875D01*
X197009Y337906D01*
X197106Y337933D01*
X197204Y337956D01*
X197303Y337976D01*
X197403Y337991D01*
X197503Y338003D01*
X197603Y338011D01*
X197704Y338015D01*
X197804Y338015D01*
X197905Y338011D01*
X198005Y338003D01*
X198105Y337991D01*
X198205Y337976D01*
X198304Y337956D01*
X198402Y337933D01*
X198499Y337906D01*
X198594Y337875D01*
X198689Y337841D01*
X198782Y337803D01*
X198874Y337761D01*
X198964Y337716D01*
X199052Y337667D01*
X199138Y337615D01*
X199222Y337560D01*
X199304Y337501D01*
X199384Y337440D01*
X199461Y337375D01*
X199535Y337307D01*
X199607Y337237D01*
X199676Y337164D01*
X199743Y337088D01*
X199806Y337009D01*
X199866Y336929D01*
X199923Y336846D01*
X199977Y336760D01*
X200027Y336673D01*
X200074Y336584D01*
X200117Y336493D01*
X200157Y336401D01*
X200193Y336307D01*
X200226Y336212D01*
X200255Y336115D01*
X200280Y336018D01*
X200301Y335919D01*
X200319Y335820D01*
X200332Y335720D01*
X200342Y335620D01*
X200348Y335520D01*
X200350Y335419D01*
X200351Y335419D02*
X200351Y332823D01*
X195158Y342305D02*
X206842Y346200D01*
X195158Y350095D01*
X206842Y354384D02*
X206842Y357630D01*
X206840Y357743D01*
X206834Y357856D01*
X206824Y357969D01*
X206810Y358082D01*
X206793Y358194D01*
X206771Y358305D01*
X206746Y358415D01*
X206716Y358525D01*
X206683Y358633D01*
X206646Y358740D01*
X206606Y358846D01*
X206561Y358950D01*
X206513Y359053D01*
X206462Y359154D01*
X206407Y359253D01*
X206349Y359350D01*
X206287Y359445D01*
X206222Y359538D01*
X206154Y359628D01*
X206083Y359716D01*
X206008Y359802D01*
X205931Y359885D01*
X205851Y359965D01*
X205768Y360042D01*
X205682Y360117D01*
X205594Y360188D01*
X205504Y360256D01*
X205411Y360321D01*
X205316Y360383D01*
X205219Y360441D01*
X205120Y360496D01*
X205019Y360547D01*
X204916Y360595D01*
X204812Y360640D01*
X204706Y360680D01*
X204599Y360717D01*
X204491Y360750D01*
X204381Y360780D01*
X204271Y360805D01*
X204160Y360827D01*
X204048Y360844D01*
X203935Y360858D01*
X203822Y360868D01*
X203709Y360874D01*
X203596Y360876D01*
X203483Y360874D01*
X203370Y360868D01*
X203257Y360858D01*
X203144Y360844D01*
X203032Y360827D01*
X202921Y360805D01*
X202811Y360780D01*
X202701Y360750D01*
X202593Y360717D01*
X202486Y360680D01*
X202380Y360640D01*
X202276Y360595D01*
X202173Y360547D01*
X202072Y360496D01*
X201973Y360441D01*
X201876Y360383D01*
X201781Y360321D01*
X201688Y360256D01*
X201598Y360188D01*
X201510Y360117D01*
X201424Y360042D01*
X201341Y359965D01*
X201261Y359885D01*
X201184Y359802D01*
X201109Y359716D01*
X201038Y359628D01*
X200970Y359538D01*
X200905Y359445D01*
X200843Y359350D01*
X200785Y359253D01*
X200730Y359154D01*
X200679Y359053D01*
X200631Y358950D01*
X200586Y358846D01*
X200546Y358740D01*
X200509Y358633D01*
X200476Y358525D01*
X200446Y358415D01*
X200421Y358305D01*
X200399Y358194D01*
X200382Y358082D01*
X200368Y357969D01*
X200358Y357856D01*
X200352Y357743D01*
X200350Y357630D01*
X195158Y358279D02*
X195158Y354384D01*
X195158Y358279D02*
X195160Y358380D01*
X195166Y358480D01*
X195176Y358580D01*
X195189Y358680D01*
X195207Y358779D01*
X195228Y358878D01*
X195253Y358975D01*
X195282Y359072D01*
X195315Y359167D01*
X195351Y359261D01*
X195391Y359353D01*
X195434Y359444D01*
X195481Y359533D01*
X195531Y359620D01*
X195585Y359706D01*
X195642Y359789D01*
X195702Y359869D01*
X195765Y359948D01*
X195832Y360024D01*
X195901Y360097D01*
X195973Y360167D01*
X196047Y360235D01*
X196124Y360300D01*
X196204Y360361D01*
X196286Y360420D01*
X196370Y360475D01*
X196456Y360527D01*
X196544Y360576D01*
X196634Y360621D01*
X196726Y360663D01*
X196819Y360701D01*
X196914Y360735D01*
X197009Y360766D01*
X197106Y360793D01*
X197204Y360816D01*
X197303Y360836D01*
X197403Y360851D01*
X197503Y360863D01*
X197603Y360871D01*
X197704Y360875D01*
X197804Y360875D01*
X197905Y360871D01*
X198005Y360863D01*
X198105Y360851D01*
X198205Y360836D01*
X198304Y360816D01*
X198402Y360793D01*
X198499Y360766D01*
X198594Y360735D01*
X198689Y360701D01*
X198782Y360663D01*
X198874Y360621D01*
X198964Y360576D01*
X199052Y360527D01*
X199138Y360475D01*
X199222Y360420D01*
X199304Y360361D01*
X199384Y360300D01*
X199461Y360235D01*
X199535Y360167D01*
X199607Y360097D01*
X199676Y360024D01*
X199743Y359948D01*
X199806Y359869D01*
X199866Y359789D01*
X199923Y359706D01*
X199977Y359620D01*
X200027Y359533D01*
X200074Y359444D01*
X200117Y359353D01*
X200157Y359261D01*
X200193Y359167D01*
X200226Y359072D01*
X200255Y358975D01*
X200280Y358878D01*
X200301Y358779D01*
X200319Y358680D01*
X200332Y358580D01*
X200342Y358480D01*
X200348Y358380D01*
X200350Y358279D01*
X200351Y358279D02*
X200351Y355683D01*
X264929Y458697D02*
X267588Y460559D01*
X267588Y460558D02*
X267679Y460625D01*
X267769Y460694D01*
X267856Y460767D01*
X267940Y460843D01*
X268021Y460922D01*
X268100Y461003D01*
X268176Y461087D01*
X268249Y461174D01*
X268318Y461264D01*
X268385Y461355D01*
X268448Y461449D01*
X268508Y461545D01*
X268565Y461643D01*
X268618Y461743D01*
X268668Y461845D01*
X268714Y461949D01*
X268756Y462054D01*
X268795Y462160D01*
X268830Y462268D01*
X268861Y462377D01*
X268889Y462487D01*
X268912Y462598D01*
X268932Y462709D01*
X268948Y462821D01*
X268960Y462934D01*
X268968Y463047D01*
X268972Y463160D01*
X268972Y463274D01*
X268968Y463387D01*
X268960Y463500D01*
X268948Y463613D01*
X268932Y463725D01*
X268912Y463836D01*
X268889Y463947D01*
X268861Y464057D01*
X268830Y464166D01*
X268795Y464274D01*
X268756Y464380D01*
X268714Y464485D01*
X268668Y464589D01*
X268618Y464691D01*
X268565Y464791D01*
X268508Y464889D01*
X268448Y464985D01*
X268385Y465079D01*
X268318Y465170D01*
X268249Y465260D01*
X268176Y465347D01*
X268100Y465431D01*
X268021Y465512D01*
X267940Y465591D01*
X267856Y465667D01*
X267769Y465740D01*
X267680Y465809D01*
X267588Y465876D01*
X267494Y465939D01*
X267398Y465999D01*
X267300Y466056D01*
X267200Y466109D01*
X267098Y466159D01*
X266994Y466205D01*
X266889Y466247D01*
X266783Y466286D01*
X266675Y466321D01*
X266566Y466352D01*
X266456Y466380D01*
X266345Y466403D01*
X266234Y466423D01*
X266122Y466439D01*
X266009Y466451D01*
X265896Y466459D01*
X265783Y466463D01*
X265669Y466463D01*
X265556Y466459D01*
X265443Y466451D01*
X265330Y466439D01*
X265218Y466423D01*
X265107Y466403D01*
X264996Y466380D01*
X264886Y466352D01*
X264777Y466321D01*
X264669Y466286D01*
X264563Y466247D01*
X264458Y466205D01*
X264354Y466159D01*
X264252Y466109D01*
X264152Y466056D01*
X264054Y465999D01*
X263958Y465939D01*
X263864Y465876D01*
X261418Y470502D02*
X258228Y468268D01*
X261418Y470502D02*
X261502Y470558D01*
X261587Y470611D01*
X261675Y470660D01*
X261764Y470706D01*
X261856Y470749D01*
X261949Y470788D01*
X262043Y470823D01*
X262138Y470855D01*
X262235Y470883D01*
X262333Y470907D01*
X262431Y470927D01*
X262531Y470944D01*
X262631Y470956D01*
X262731Y470965D01*
X262832Y470970D01*
X262932Y470971D01*
X263033Y470968D01*
X263133Y470961D01*
X263233Y470950D01*
X263333Y470936D01*
X263432Y470917D01*
X263530Y470895D01*
X263627Y470869D01*
X263724Y470839D01*
X263819Y470806D01*
X263912Y470769D01*
X264004Y470728D01*
X264095Y470683D01*
X264183Y470636D01*
X264270Y470584D01*
X264354Y470530D01*
X264437Y470472D01*
X264517Y470411D01*
X264595Y470347D01*
X264670Y470280D01*
X264743Y470211D01*
X264812Y470138D01*
X264879Y470063D01*
X264943Y469985D01*
X265004Y469905D01*
X265062Y469822D01*
X265116Y469738D01*
X265168Y469651D01*
X265215Y469563D01*
X265260Y469472D01*
X265301Y469380D01*
X265338Y469286D01*
X265371Y469192D01*
X265401Y469095D01*
X265427Y468998D01*
X265449Y468900D01*
X265468Y468801D01*
X265482Y468701D01*
X265493Y468601D01*
X265500Y468501D01*
X265503Y468400D01*
X265502Y468300D01*
X265497Y468199D01*
X265488Y468099D01*
X265476Y467999D01*
X265459Y467899D01*
X265439Y467801D01*
X265415Y467703D01*
X265387Y467606D01*
X265355Y467511D01*
X265320Y467417D01*
X265281Y467324D01*
X265238Y467232D01*
X265192Y467143D01*
X265143Y467055D01*
X265090Y466970D01*
X265034Y466886D01*
X264974Y466805D01*
X264912Y466726D01*
X264846Y466649D01*
X264778Y466575D01*
X264707Y466504D01*
X264633Y466436D01*
X264556Y466370D01*
X264477Y466308D01*
X264396Y466248D01*
X262270Y464759D01*
X267059Y474452D02*
X276951Y467114D01*
X273439Y478919D01*
X283655Y471809D02*
X286314Y473670D01*
X286405Y473737D01*
X286495Y473806D01*
X286582Y473879D01*
X286666Y473955D01*
X286747Y474034D01*
X286826Y474115D01*
X286902Y474199D01*
X286975Y474286D01*
X287044Y474376D01*
X287111Y474467D01*
X287174Y474561D01*
X287234Y474657D01*
X287291Y474755D01*
X287344Y474855D01*
X287394Y474957D01*
X287440Y475061D01*
X287482Y475166D01*
X287521Y475272D01*
X287556Y475380D01*
X287587Y475489D01*
X287615Y475599D01*
X287638Y475710D01*
X287658Y475821D01*
X287674Y475933D01*
X287686Y476046D01*
X287694Y476159D01*
X287698Y476272D01*
X287698Y476386D01*
X287694Y476499D01*
X287686Y476612D01*
X287674Y476725D01*
X287658Y476837D01*
X287638Y476948D01*
X287615Y477059D01*
X287587Y477169D01*
X287556Y477278D01*
X287521Y477386D01*
X287482Y477492D01*
X287440Y477597D01*
X287394Y477701D01*
X287344Y477803D01*
X287291Y477903D01*
X287234Y478001D01*
X287174Y478097D01*
X287111Y478191D01*
X287044Y478282D01*
X286975Y478372D01*
X286902Y478459D01*
X286826Y478543D01*
X286747Y478624D01*
X286666Y478703D01*
X286582Y478779D01*
X286495Y478852D01*
X286406Y478921D01*
X286314Y478988D01*
X286220Y479051D01*
X286124Y479111D01*
X286026Y479168D01*
X285926Y479221D01*
X285824Y479271D01*
X285720Y479317D01*
X285615Y479359D01*
X285509Y479398D01*
X285401Y479433D01*
X285292Y479464D01*
X285182Y479492D01*
X285071Y479515D01*
X284960Y479535D01*
X284848Y479551D01*
X284735Y479563D01*
X284622Y479571D01*
X284509Y479575D01*
X284395Y479575D01*
X284282Y479571D01*
X284169Y479563D01*
X284056Y479551D01*
X283944Y479535D01*
X283833Y479515D01*
X283722Y479492D01*
X283612Y479464D01*
X283503Y479433D01*
X283395Y479398D01*
X283289Y479359D01*
X283184Y479317D01*
X283080Y479271D01*
X282978Y479221D01*
X282878Y479168D01*
X282780Y479111D01*
X282684Y479051D01*
X282590Y478988D01*
X280144Y483614D02*
X276953Y481380D01*
X280144Y483614D02*
X280228Y483670D01*
X280313Y483723D01*
X280401Y483772D01*
X280490Y483818D01*
X280582Y483861D01*
X280675Y483900D01*
X280769Y483935D01*
X280864Y483967D01*
X280961Y483995D01*
X281059Y484019D01*
X281157Y484039D01*
X281257Y484056D01*
X281357Y484068D01*
X281457Y484077D01*
X281558Y484082D01*
X281658Y484083D01*
X281759Y484080D01*
X281859Y484073D01*
X281959Y484062D01*
X282059Y484048D01*
X282158Y484029D01*
X282256Y484007D01*
X282353Y483981D01*
X282450Y483951D01*
X282545Y483918D01*
X282638Y483881D01*
X282730Y483840D01*
X282821Y483795D01*
X282909Y483748D01*
X282996Y483696D01*
X283080Y483642D01*
X283163Y483584D01*
X283243Y483523D01*
X283321Y483459D01*
X283396Y483392D01*
X283469Y483323D01*
X283538Y483250D01*
X283605Y483175D01*
X283669Y483097D01*
X283730Y483017D01*
X283788Y482934D01*
X283842Y482850D01*
X283894Y482763D01*
X283941Y482675D01*
X283986Y482584D01*
X284027Y482492D01*
X284064Y482398D01*
X284097Y482304D01*
X284127Y482207D01*
X284153Y482110D01*
X284175Y482012D01*
X284194Y481913D01*
X284208Y481813D01*
X284219Y481713D01*
X284226Y481613D01*
X284229Y481512D01*
X284228Y481412D01*
X284223Y481311D01*
X284214Y481211D01*
X284202Y481111D01*
X284185Y481011D01*
X284165Y480913D01*
X284141Y480815D01*
X284113Y480718D01*
X284081Y480623D01*
X284046Y480529D01*
X284007Y480436D01*
X283964Y480344D01*
X283918Y480255D01*
X283869Y480167D01*
X283816Y480082D01*
X283760Y479998D01*
X283700Y479917D01*
X283638Y479838D01*
X283572Y479761D01*
X283504Y479687D01*
X283433Y479616D01*
X283359Y479548D01*
X283282Y479482D01*
X283203Y479420D01*
X283122Y479360D01*
X280995Y477871D01*
D11*
X432934Y419510D02*
X432934Y401730D01*
X432934Y419510D02*
X437873Y419510D01*
X438013Y419508D01*
X438152Y419502D01*
X438292Y419492D01*
X438431Y419478D01*
X438570Y419461D01*
X438708Y419439D01*
X438845Y419413D01*
X438982Y419384D01*
X439118Y419351D01*
X439252Y419314D01*
X439386Y419273D01*
X439518Y419228D01*
X439650Y419179D01*
X439779Y419127D01*
X439907Y419072D01*
X440034Y419012D01*
X440159Y418949D01*
X440282Y418883D01*
X440403Y418813D01*
X440522Y418740D01*
X440639Y418663D01*
X440753Y418583D01*
X440866Y418500D01*
X440976Y418414D01*
X441083Y418324D01*
X441188Y418232D01*
X441290Y418137D01*
X441390Y418039D01*
X441487Y417938D01*
X441581Y417834D01*
X441671Y417728D01*
X441759Y417619D01*
X441844Y417508D01*
X441925Y417394D01*
X442004Y417279D01*
X442079Y417161D01*
X442150Y417041D01*
X442218Y416918D01*
X442283Y416795D01*
X442344Y416669D01*
X442402Y416541D01*
X442456Y416413D01*
X442506Y416282D01*
X442553Y416150D01*
X442596Y416017D01*
X442635Y415883D01*
X442670Y415748D01*
X442701Y415612D01*
X442729Y415474D01*
X442752Y415337D01*
X442772Y415198D01*
X442788Y415059D01*
X442800Y414920D01*
X442808Y414781D01*
X442812Y414641D01*
X442812Y414501D01*
X442808Y414361D01*
X442800Y414222D01*
X442788Y414083D01*
X442772Y413944D01*
X442752Y413805D01*
X442729Y413668D01*
X442701Y413530D01*
X442670Y413394D01*
X442635Y413259D01*
X442596Y413125D01*
X442553Y412992D01*
X442506Y412860D01*
X442456Y412729D01*
X442402Y412601D01*
X442344Y412473D01*
X442283Y412347D01*
X442218Y412224D01*
X442150Y412102D01*
X442079Y411981D01*
X442004Y411863D01*
X441925Y411748D01*
X441844Y411634D01*
X441759Y411523D01*
X441671Y411414D01*
X441581Y411308D01*
X441487Y411204D01*
X441390Y411103D01*
X441290Y411005D01*
X441188Y410910D01*
X441083Y410818D01*
X440976Y410728D01*
X440866Y410642D01*
X440753Y410559D01*
X440639Y410479D01*
X440522Y410402D01*
X440403Y410329D01*
X440282Y410259D01*
X440159Y410193D01*
X440034Y410130D01*
X439907Y410070D01*
X439779Y410015D01*
X439650Y409963D01*
X439518Y409914D01*
X439386Y409869D01*
X439252Y409828D01*
X439118Y409791D01*
X438982Y409758D01*
X438845Y409729D01*
X438708Y409703D01*
X438570Y409681D01*
X438431Y409664D01*
X438292Y409650D01*
X438152Y409640D01*
X438013Y409634D01*
X437873Y409632D01*
X432934Y409632D01*
X448929Y415559D02*
X453868Y419510D01*
X453868Y401730D01*
X458806Y401730D02*
X448929Y401730D01*
X415866Y288663D02*
X415866Y270883D01*
X415866Y288663D02*
X420805Y288663D01*
X420805Y288664D02*
X420945Y288662D01*
X421084Y288656D01*
X421224Y288646D01*
X421363Y288632D01*
X421502Y288615D01*
X421640Y288593D01*
X421777Y288567D01*
X421914Y288538D01*
X422050Y288505D01*
X422184Y288468D01*
X422318Y288427D01*
X422450Y288382D01*
X422582Y288333D01*
X422711Y288281D01*
X422839Y288226D01*
X422966Y288166D01*
X423091Y288103D01*
X423214Y288037D01*
X423335Y287967D01*
X423454Y287894D01*
X423571Y287817D01*
X423685Y287737D01*
X423798Y287654D01*
X423908Y287568D01*
X424015Y287478D01*
X424120Y287386D01*
X424222Y287291D01*
X424322Y287193D01*
X424419Y287092D01*
X424513Y286988D01*
X424603Y286882D01*
X424691Y286773D01*
X424776Y286662D01*
X424857Y286548D01*
X424936Y286433D01*
X425011Y286315D01*
X425082Y286195D01*
X425150Y286072D01*
X425215Y285949D01*
X425276Y285823D01*
X425334Y285695D01*
X425388Y285567D01*
X425438Y285436D01*
X425485Y285304D01*
X425528Y285171D01*
X425567Y285037D01*
X425602Y284902D01*
X425633Y284766D01*
X425661Y284628D01*
X425684Y284491D01*
X425704Y284352D01*
X425720Y284213D01*
X425732Y284074D01*
X425740Y283935D01*
X425744Y283795D01*
X425744Y283655D01*
X425740Y283515D01*
X425732Y283376D01*
X425720Y283237D01*
X425704Y283098D01*
X425684Y282959D01*
X425661Y282822D01*
X425633Y282684D01*
X425602Y282548D01*
X425567Y282413D01*
X425528Y282279D01*
X425485Y282146D01*
X425438Y282014D01*
X425388Y281883D01*
X425334Y281755D01*
X425276Y281627D01*
X425215Y281501D01*
X425150Y281378D01*
X425082Y281256D01*
X425011Y281135D01*
X424936Y281017D01*
X424857Y280902D01*
X424776Y280788D01*
X424691Y280677D01*
X424603Y280568D01*
X424513Y280462D01*
X424419Y280358D01*
X424322Y280257D01*
X424222Y280159D01*
X424120Y280064D01*
X424015Y279972D01*
X423908Y279882D01*
X423798Y279796D01*
X423685Y279713D01*
X423571Y279633D01*
X423454Y279556D01*
X423335Y279483D01*
X423214Y279413D01*
X423091Y279347D01*
X422966Y279284D01*
X422839Y279224D01*
X422711Y279169D01*
X422582Y279117D01*
X422450Y279068D01*
X422318Y279023D01*
X422184Y278982D01*
X422050Y278945D01*
X421914Y278912D01*
X421777Y278883D01*
X421640Y278857D01*
X421502Y278835D01*
X421363Y278818D01*
X421224Y278804D01*
X421084Y278794D01*
X420945Y278788D01*
X420805Y278786D01*
X415866Y278786D01*
X437294Y288663D02*
X437426Y288661D01*
X437557Y288655D01*
X437689Y288645D01*
X437820Y288632D01*
X437950Y288614D01*
X438080Y288593D01*
X438210Y288568D01*
X438338Y288539D01*
X438466Y288506D01*
X438592Y288469D01*
X438718Y288429D01*
X438842Y288385D01*
X438965Y288337D01*
X439086Y288286D01*
X439206Y288231D01*
X439324Y288173D01*
X439440Y288111D01*
X439554Y288045D01*
X439667Y287977D01*
X439777Y287905D01*
X439885Y287830D01*
X439991Y287751D01*
X440095Y287670D01*
X440196Y287585D01*
X440294Y287498D01*
X440390Y287407D01*
X440483Y287314D01*
X440574Y287218D01*
X440661Y287120D01*
X440746Y287019D01*
X440827Y286915D01*
X440906Y286809D01*
X440981Y286701D01*
X441053Y286591D01*
X441121Y286478D01*
X441187Y286364D01*
X441249Y286248D01*
X441307Y286130D01*
X441362Y286010D01*
X441413Y285889D01*
X441461Y285766D01*
X441505Y285642D01*
X441545Y285516D01*
X441582Y285390D01*
X441615Y285262D01*
X441644Y285134D01*
X441669Y285004D01*
X441690Y284874D01*
X441708Y284744D01*
X441721Y284613D01*
X441731Y284481D01*
X441737Y284350D01*
X441739Y284218D01*
X437294Y288664D02*
X437144Y288662D01*
X436995Y288656D01*
X436846Y288646D01*
X436697Y288633D01*
X436548Y288615D01*
X436400Y288594D01*
X436252Y288568D01*
X436106Y288539D01*
X435960Y288506D01*
X435815Y288469D01*
X435671Y288428D01*
X435528Y288384D01*
X435386Y288336D01*
X435246Y288284D01*
X435107Y288229D01*
X434969Y288170D01*
X434834Y288107D01*
X434699Y288041D01*
X434567Y287971D01*
X434437Y287898D01*
X434308Y287821D01*
X434181Y287741D01*
X434057Y287658D01*
X433935Y287572D01*
X433815Y287482D01*
X433698Y287389D01*
X433583Y287294D01*
X433470Y287195D01*
X433360Y287093D01*
X433253Y286989D01*
X433149Y286882D01*
X433047Y286772D01*
X432949Y286659D01*
X432853Y286544D01*
X432761Y286426D01*
X432671Y286306D01*
X432585Y286184D01*
X432502Y286060D01*
X432422Y285933D01*
X432346Y285805D01*
X432273Y285674D01*
X432203Y285541D01*
X432137Y285407D01*
X432075Y285271D01*
X432016Y285134D01*
X431960Y284995D01*
X431909Y284854D01*
X431861Y284713D01*
X440257Y280761D02*
X440353Y280854D01*
X440445Y280950D01*
X440535Y281049D01*
X440622Y281150D01*
X440707Y281253D01*
X440788Y281358D01*
X440866Y281466D01*
X440941Y281576D01*
X441014Y281688D01*
X441083Y281802D01*
X441149Y281918D01*
X441211Y282036D01*
X441270Y282155D01*
X441326Y282276D01*
X441379Y282399D01*
X441428Y282523D01*
X441473Y282648D01*
X441516Y282775D01*
X441554Y282902D01*
X441589Y283031D01*
X441620Y283160D01*
X441648Y283291D01*
X441672Y283422D01*
X441693Y283554D01*
X441709Y283686D01*
X441722Y283819D01*
X441732Y283952D01*
X441737Y284085D01*
X441739Y284218D01*
X440257Y280761D02*
X431861Y270883D01*
X441739Y270883D01*
X454109Y277798D02*
X454109Y283725D01*
X454109Y277798D02*
X457566Y273353D01*
X454109Y277798D02*
X450652Y273353D01*
X454109Y277798D02*
X459542Y279773D01*
X454109Y277798D02*
X448676Y279773D01*
X333264Y233490D02*
X333264Y215710D01*
X333264Y233490D02*
X338203Y233490D01*
X338343Y233488D01*
X338482Y233482D01*
X338622Y233472D01*
X338761Y233458D01*
X338900Y233441D01*
X339038Y233419D01*
X339175Y233393D01*
X339312Y233364D01*
X339448Y233331D01*
X339582Y233294D01*
X339716Y233253D01*
X339848Y233208D01*
X339980Y233159D01*
X340109Y233107D01*
X340237Y233052D01*
X340364Y232992D01*
X340489Y232929D01*
X340612Y232863D01*
X340733Y232793D01*
X340852Y232720D01*
X340969Y232643D01*
X341083Y232563D01*
X341196Y232480D01*
X341306Y232394D01*
X341413Y232304D01*
X341518Y232212D01*
X341620Y232117D01*
X341720Y232019D01*
X341817Y231918D01*
X341911Y231814D01*
X342001Y231708D01*
X342089Y231599D01*
X342174Y231488D01*
X342255Y231374D01*
X342334Y231259D01*
X342409Y231141D01*
X342480Y231021D01*
X342548Y230898D01*
X342613Y230775D01*
X342674Y230649D01*
X342732Y230521D01*
X342786Y230393D01*
X342836Y230262D01*
X342883Y230130D01*
X342926Y229997D01*
X342965Y229863D01*
X343000Y229728D01*
X343031Y229592D01*
X343059Y229454D01*
X343082Y229317D01*
X343102Y229178D01*
X343118Y229039D01*
X343130Y228900D01*
X343138Y228761D01*
X343142Y228621D01*
X343142Y228481D01*
X343138Y228341D01*
X343130Y228202D01*
X343118Y228063D01*
X343102Y227924D01*
X343082Y227785D01*
X343059Y227648D01*
X343031Y227510D01*
X343000Y227374D01*
X342965Y227239D01*
X342926Y227105D01*
X342883Y226972D01*
X342836Y226840D01*
X342786Y226709D01*
X342732Y226581D01*
X342674Y226453D01*
X342613Y226327D01*
X342548Y226204D01*
X342480Y226082D01*
X342409Y225961D01*
X342334Y225843D01*
X342255Y225728D01*
X342174Y225614D01*
X342089Y225503D01*
X342001Y225394D01*
X341911Y225288D01*
X341817Y225184D01*
X341720Y225083D01*
X341620Y224985D01*
X341518Y224890D01*
X341413Y224798D01*
X341306Y224708D01*
X341196Y224622D01*
X341083Y224539D01*
X340969Y224459D01*
X340852Y224382D01*
X340733Y224309D01*
X340612Y224239D01*
X340489Y224173D01*
X340364Y224110D01*
X340237Y224050D01*
X340109Y223995D01*
X339980Y223943D01*
X339848Y223894D01*
X339716Y223849D01*
X339582Y223808D01*
X339448Y223771D01*
X339312Y223738D01*
X339175Y223709D01*
X339038Y223683D01*
X338900Y223661D01*
X338761Y223644D01*
X338622Y223630D01*
X338482Y223620D01*
X338343Y223614D01*
X338203Y223612D01*
X333264Y223612D01*
X349259Y215710D02*
X354198Y215710D01*
X354338Y215712D01*
X354477Y215718D01*
X354617Y215728D01*
X354756Y215742D01*
X354895Y215759D01*
X355033Y215781D01*
X355170Y215807D01*
X355307Y215836D01*
X355443Y215869D01*
X355577Y215906D01*
X355711Y215947D01*
X355843Y215992D01*
X355975Y216041D01*
X356104Y216093D01*
X356232Y216148D01*
X356359Y216208D01*
X356484Y216271D01*
X356607Y216337D01*
X356728Y216407D01*
X356847Y216480D01*
X356964Y216557D01*
X357078Y216637D01*
X357191Y216720D01*
X357301Y216806D01*
X357408Y216896D01*
X357513Y216988D01*
X357615Y217083D01*
X357715Y217181D01*
X357812Y217282D01*
X357906Y217386D01*
X357996Y217492D01*
X358084Y217601D01*
X358169Y217712D01*
X358250Y217826D01*
X358329Y217941D01*
X358404Y218059D01*
X358475Y218180D01*
X358543Y218302D01*
X358608Y218425D01*
X358669Y218551D01*
X358727Y218679D01*
X358781Y218807D01*
X358831Y218938D01*
X358878Y219070D01*
X358921Y219203D01*
X358960Y219337D01*
X358995Y219472D01*
X359026Y219608D01*
X359054Y219746D01*
X359077Y219883D01*
X359097Y220022D01*
X359113Y220161D01*
X359125Y220300D01*
X359133Y220439D01*
X359137Y220579D01*
X359137Y220719D01*
X359133Y220859D01*
X359125Y220998D01*
X359113Y221137D01*
X359097Y221276D01*
X359077Y221415D01*
X359054Y221552D01*
X359026Y221690D01*
X358995Y221826D01*
X358960Y221961D01*
X358921Y222095D01*
X358878Y222228D01*
X358831Y222360D01*
X358781Y222491D01*
X358727Y222619D01*
X358669Y222747D01*
X358608Y222873D01*
X358543Y222996D01*
X358475Y223119D01*
X358404Y223239D01*
X358329Y223357D01*
X358250Y223472D01*
X358169Y223586D01*
X358084Y223697D01*
X357996Y223806D01*
X357906Y223912D01*
X357812Y224016D01*
X357715Y224117D01*
X357615Y224215D01*
X357513Y224310D01*
X357408Y224402D01*
X357301Y224492D01*
X357191Y224578D01*
X357078Y224661D01*
X356964Y224741D01*
X356847Y224818D01*
X356728Y224891D01*
X356607Y224961D01*
X356484Y225027D01*
X356359Y225090D01*
X356232Y225150D01*
X356104Y225205D01*
X355975Y225257D01*
X355843Y225306D01*
X355711Y225351D01*
X355577Y225392D01*
X355443Y225429D01*
X355307Y225462D01*
X355170Y225491D01*
X355033Y225517D01*
X354895Y225539D01*
X354756Y225556D01*
X354617Y225570D01*
X354477Y225580D01*
X354338Y225586D01*
X354198Y225588D01*
X355185Y233490D02*
X349259Y233490D01*
X355185Y233490D02*
X355309Y233488D01*
X355433Y233482D01*
X355557Y233472D01*
X355680Y233459D01*
X355803Y233441D01*
X355925Y233420D01*
X356047Y233395D01*
X356168Y233366D01*
X356287Y233333D01*
X356406Y233297D01*
X356523Y233256D01*
X356639Y233213D01*
X356754Y233165D01*
X356867Y233114D01*
X356979Y233059D01*
X357088Y233001D01*
X357196Y232940D01*
X357302Y232875D01*
X357406Y232807D01*
X357507Y232735D01*
X357607Y232661D01*
X357703Y232583D01*
X357798Y232503D01*
X357890Y232419D01*
X357979Y232333D01*
X358065Y232244D01*
X358149Y232152D01*
X358229Y232057D01*
X358307Y231961D01*
X358381Y231861D01*
X358453Y231760D01*
X358521Y231656D01*
X358586Y231550D01*
X358647Y231442D01*
X358705Y231333D01*
X358760Y231221D01*
X358811Y231108D01*
X358859Y230993D01*
X358902Y230877D01*
X358943Y230760D01*
X358979Y230641D01*
X359012Y230522D01*
X359041Y230401D01*
X359066Y230279D01*
X359087Y230157D01*
X359105Y230034D01*
X359118Y229911D01*
X359128Y229787D01*
X359134Y229663D01*
X359136Y229539D01*
X359134Y229415D01*
X359128Y229291D01*
X359118Y229167D01*
X359105Y229044D01*
X359087Y228921D01*
X359066Y228799D01*
X359041Y228677D01*
X359012Y228556D01*
X358979Y228437D01*
X358943Y228318D01*
X358902Y228201D01*
X358859Y228085D01*
X358811Y227970D01*
X358760Y227857D01*
X358705Y227745D01*
X358647Y227636D01*
X358586Y227528D01*
X358521Y227422D01*
X358453Y227318D01*
X358381Y227217D01*
X358307Y227117D01*
X358229Y227021D01*
X358149Y226926D01*
X358065Y226834D01*
X357979Y226745D01*
X357890Y226659D01*
X357798Y226575D01*
X357703Y226495D01*
X357607Y226417D01*
X357507Y226343D01*
X357406Y226271D01*
X357302Y226203D01*
X357196Y226138D01*
X357088Y226077D01*
X356979Y226019D01*
X356867Y225964D01*
X356754Y225913D01*
X356639Y225865D01*
X356523Y225822D01*
X356406Y225781D01*
X356287Y225745D01*
X356168Y225712D01*
X356047Y225683D01*
X355925Y225658D01*
X355803Y225637D01*
X355680Y225619D01*
X355557Y225606D01*
X355433Y225596D01*
X355309Y225590D01*
X355185Y225588D01*
X351234Y225588D01*
X236388Y270871D02*
X236388Y288651D01*
X241327Y288651D01*
X241467Y288649D01*
X241606Y288643D01*
X241746Y288633D01*
X241885Y288619D01*
X242024Y288602D01*
X242162Y288580D01*
X242299Y288554D01*
X242436Y288525D01*
X242572Y288492D01*
X242706Y288455D01*
X242840Y288414D01*
X242972Y288369D01*
X243104Y288320D01*
X243233Y288268D01*
X243361Y288213D01*
X243488Y288153D01*
X243613Y288090D01*
X243736Y288024D01*
X243857Y287954D01*
X243976Y287881D01*
X244093Y287804D01*
X244207Y287724D01*
X244320Y287641D01*
X244430Y287555D01*
X244537Y287465D01*
X244642Y287373D01*
X244744Y287278D01*
X244844Y287180D01*
X244941Y287079D01*
X245035Y286975D01*
X245125Y286869D01*
X245213Y286760D01*
X245298Y286649D01*
X245379Y286535D01*
X245458Y286420D01*
X245533Y286302D01*
X245604Y286182D01*
X245672Y286059D01*
X245737Y285936D01*
X245798Y285810D01*
X245856Y285682D01*
X245910Y285554D01*
X245960Y285423D01*
X246007Y285291D01*
X246050Y285158D01*
X246089Y285024D01*
X246124Y284889D01*
X246155Y284753D01*
X246183Y284615D01*
X246206Y284478D01*
X246226Y284339D01*
X246242Y284200D01*
X246254Y284061D01*
X246262Y283922D01*
X246266Y283782D01*
X246266Y283642D01*
X246262Y283502D01*
X246254Y283363D01*
X246242Y283224D01*
X246226Y283085D01*
X246206Y282946D01*
X246183Y282809D01*
X246155Y282671D01*
X246124Y282535D01*
X246089Y282400D01*
X246050Y282266D01*
X246007Y282133D01*
X245960Y282001D01*
X245910Y281870D01*
X245856Y281742D01*
X245798Y281614D01*
X245737Y281488D01*
X245672Y281365D01*
X245604Y281243D01*
X245533Y281122D01*
X245458Y281004D01*
X245379Y280889D01*
X245298Y280775D01*
X245213Y280664D01*
X245125Y280555D01*
X245035Y280449D01*
X244941Y280345D01*
X244844Y280244D01*
X244744Y280146D01*
X244642Y280051D01*
X244537Y279959D01*
X244430Y279869D01*
X244320Y279783D01*
X244207Y279700D01*
X244093Y279620D01*
X243976Y279543D01*
X243857Y279470D01*
X243736Y279400D01*
X243613Y279334D01*
X243488Y279271D01*
X243361Y279211D01*
X243233Y279156D01*
X243104Y279104D01*
X242972Y279055D01*
X242840Y279010D01*
X242706Y278969D01*
X242572Y278932D01*
X242436Y278899D01*
X242299Y278870D01*
X242162Y278844D01*
X242024Y278822D01*
X241885Y278805D01*
X241746Y278791D01*
X241606Y278781D01*
X241467Y278775D01*
X241327Y278773D01*
X236388Y278773D01*
X252383Y274822D02*
X256334Y288651D01*
X252383Y274822D02*
X262260Y274822D01*
X259297Y278773D02*
X259297Y270871D01*
X229784Y390300D02*
X229784Y408080D01*
X234723Y408080D01*
X234863Y408078D01*
X235002Y408072D01*
X235142Y408062D01*
X235281Y408048D01*
X235420Y408031D01*
X235558Y408009D01*
X235695Y407983D01*
X235832Y407954D01*
X235968Y407921D01*
X236102Y407884D01*
X236236Y407843D01*
X236368Y407798D01*
X236500Y407749D01*
X236629Y407697D01*
X236757Y407642D01*
X236884Y407582D01*
X237009Y407519D01*
X237132Y407453D01*
X237253Y407383D01*
X237372Y407310D01*
X237489Y407233D01*
X237603Y407153D01*
X237716Y407070D01*
X237826Y406984D01*
X237933Y406894D01*
X238038Y406802D01*
X238140Y406707D01*
X238240Y406609D01*
X238337Y406508D01*
X238431Y406404D01*
X238521Y406298D01*
X238609Y406189D01*
X238694Y406078D01*
X238775Y405964D01*
X238854Y405849D01*
X238929Y405731D01*
X239000Y405611D01*
X239068Y405488D01*
X239133Y405365D01*
X239194Y405239D01*
X239252Y405111D01*
X239306Y404983D01*
X239356Y404852D01*
X239403Y404720D01*
X239446Y404587D01*
X239485Y404453D01*
X239520Y404318D01*
X239551Y404182D01*
X239579Y404044D01*
X239602Y403907D01*
X239622Y403768D01*
X239638Y403629D01*
X239650Y403490D01*
X239658Y403351D01*
X239662Y403211D01*
X239662Y403071D01*
X239658Y402931D01*
X239650Y402792D01*
X239638Y402653D01*
X239622Y402514D01*
X239602Y402375D01*
X239579Y402238D01*
X239551Y402100D01*
X239520Y401964D01*
X239485Y401829D01*
X239446Y401695D01*
X239403Y401562D01*
X239356Y401430D01*
X239306Y401299D01*
X239252Y401171D01*
X239194Y401043D01*
X239133Y400917D01*
X239068Y400794D01*
X239000Y400672D01*
X238929Y400551D01*
X238854Y400433D01*
X238775Y400318D01*
X238694Y400204D01*
X238609Y400093D01*
X238521Y399984D01*
X238431Y399878D01*
X238337Y399774D01*
X238240Y399673D01*
X238140Y399575D01*
X238038Y399480D01*
X237933Y399388D01*
X237826Y399298D01*
X237716Y399212D01*
X237603Y399129D01*
X237489Y399049D01*
X237372Y398972D01*
X237253Y398899D01*
X237132Y398829D01*
X237009Y398763D01*
X236884Y398700D01*
X236757Y398640D01*
X236629Y398585D01*
X236500Y398533D01*
X236368Y398484D01*
X236236Y398439D01*
X236102Y398398D01*
X235968Y398361D01*
X235832Y398328D01*
X235695Y398299D01*
X235558Y398273D01*
X235420Y398251D01*
X235281Y398234D01*
X235142Y398220D01*
X235002Y398210D01*
X234863Y398204D01*
X234723Y398202D01*
X229784Y398202D01*
X245779Y390300D02*
X251705Y390300D01*
X251829Y390302D01*
X251953Y390308D01*
X252077Y390318D01*
X252200Y390331D01*
X252323Y390349D01*
X252445Y390370D01*
X252567Y390395D01*
X252688Y390424D01*
X252807Y390457D01*
X252926Y390493D01*
X253043Y390534D01*
X253159Y390577D01*
X253274Y390625D01*
X253387Y390676D01*
X253499Y390731D01*
X253608Y390789D01*
X253716Y390850D01*
X253822Y390915D01*
X253926Y390983D01*
X254027Y391055D01*
X254127Y391129D01*
X254223Y391207D01*
X254318Y391287D01*
X254410Y391371D01*
X254499Y391457D01*
X254585Y391546D01*
X254669Y391638D01*
X254749Y391733D01*
X254827Y391829D01*
X254901Y391929D01*
X254973Y392030D01*
X255041Y392134D01*
X255106Y392240D01*
X255167Y392348D01*
X255225Y392457D01*
X255280Y392569D01*
X255331Y392682D01*
X255379Y392797D01*
X255422Y392913D01*
X255463Y393030D01*
X255499Y393149D01*
X255532Y393268D01*
X255561Y393389D01*
X255586Y393511D01*
X255607Y393633D01*
X255625Y393756D01*
X255638Y393879D01*
X255648Y394003D01*
X255654Y394127D01*
X255656Y394251D01*
X255656Y396227D01*
X255654Y396351D01*
X255648Y396475D01*
X255638Y396599D01*
X255625Y396722D01*
X255607Y396845D01*
X255586Y396967D01*
X255561Y397089D01*
X255532Y397210D01*
X255499Y397329D01*
X255463Y397448D01*
X255422Y397565D01*
X255379Y397681D01*
X255331Y397796D01*
X255280Y397909D01*
X255225Y398021D01*
X255167Y398130D01*
X255106Y398238D01*
X255041Y398344D01*
X254973Y398448D01*
X254901Y398549D01*
X254827Y398649D01*
X254749Y398745D01*
X254669Y398840D01*
X254585Y398932D01*
X254499Y399021D01*
X254410Y399107D01*
X254318Y399191D01*
X254223Y399271D01*
X254127Y399349D01*
X254027Y399423D01*
X253926Y399495D01*
X253822Y399563D01*
X253716Y399628D01*
X253608Y399689D01*
X253499Y399747D01*
X253387Y399802D01*
X253274Y399853D01*
X253159Y399901D01*
X253043Y399944D01*
X252926Y399985D01*
X252807Y400021D01*
X252688Y400054D01*
X252567Y400083D01*
X252445Y400108D01*
X252323Y400129D01*
X252200Y400147D01*
X252077Y400160D01*
X251953Y400170D01*
X251829Y400176D01*
X251705Y400178D01*
X245779Y400178D01*
X245779Y408080D01*
X255656Y408080D01*
X333264Y458910D02*
X333264Y476690D01*
X338203Y476690D01*
X338343Y476688D01*
X338482Y476682D01*
X338622Y476672D01*
X338761Y476658D01*
X338900Y476641D01*
X339038Y476619D01*
X339175Y476593D01*
X339312Y476564D01*
X339448Y476531D01*
X339582Y476494D01*
X339716Y476453D01*
X339848Y476408D01*
X339980Y476359D01*
X340109Y476307D01*
X340237Y476252D01*
X340364Y476192D01*
X340489Y476129D01*
X340612Y476063D01*
X340733Y475993D01*
X340852Y475920D01*
X340969Y475843D01*
X341083Y475763D01*
X341196Y475680D01*
X341306Y475594D01*
X341413Y475504D01*
X341518Y475412D01*
X341620Y475317D01*
X341720Y475219D01*
X341817Y475118D01*
X341911Y475014D01*
X342001Y474908D01*
X342089Y474799D01*
X342174Y474688D01*
X342255Y474574D01*
X342334Y474459D01*
X342409Y474341D01*
X342480Y474221D01*
X342548Y474098D01*
X342613Y473975D01*
X342674Y473849D01*
X342732Y473721D01*
X342786Y473593D01*
X342836Y473462D01*
X342883Y473330D01*
X342926Y473197D01*
X342965Y473063D01*
X343000Y472928D01*
X343031Y472792D01*
X343059Y472654D01*
X343082Y472517D01*
X343102Y472378D01*
X343118Y472239D01*
X343130Y472100D01*
X343138Y471961D01*
X343142Y471821D01*
X343142Y471681D01*
X343138Y471541D01*
X343130Y471402D01*
X343118Y471263D01*
X343102Y471124D01*
X343082Y470985D01*
X343059Y470848D01*
X343031Y470710D01*
X343000Y470574D01*
X342965Y470439D01*
X342926Y470305D01*
X342883Y470172D01*
X342836Y470040D01*
X342786Y469909D01*
X342732Y469781D01*
X342674Y469653D01*
X342613Y469527D01*
X342548Y469404D01*
X342480Y469282D01*
X342409Y469161D01*
X342334Y469043D01*
X342255Y468928D01*
X342174Y468814D01*
X342089Y468703D01*
X342001Y468594D01*
X341911Y468488D01*
X341817Y468384D01*
X341720Y468283D01*
X341620Y468185D01*
X341518Y468090D01*
X341413Y467998D01*
X341306Y467908D01*
X341196Y467822D01*
X341083Y467739D01*
X340969Y467659D01*
X340852Y467582D01*
X340733Y467509D01*
X340612Y467439D01*
X340489Y467373D01*
X340364Y467310D01*
X340237Y467250D01*
X340109Y467195D01*
X339980Y467143D01*
X339848Y467094D01*
X339716Y467049D01*
X339582Y467008D01*
X339448Y466971D01*
X339312Y466938D01*
X339175Y466909D01*
X339038Y466883D01*
X338900Y466861D01*
X338761Y466844D01*
X338622Y466830D01*
X338482Y466820D01*
X338343Y466814D01*
X338203Y466812D01*
X333264Y466812D01*
X349259Y468788D02*
X355185Y468788D01*
X355309Y468786D01*
X355433Y468780D01*
X355557Y468770D01*
X355680Y468757D01*
X355803Y468739D01*
X355925Y468718D01*
X356047Y468693D01*
X356168Y468664D01*
X356287Y468631D01*
X356406Y468595D01*
X356523Y468554D01*
X356639Y468511D01*
X356754Y468463D01*
X356867Y468412D01*
X356979Y468357D01*
X357088Y468299D01*
X357196Y468238D01*
X357302Y468173D01*
X357406Y468105D01*
X357507Y468033D01*
X357607Y467959D01*
X357703Y467881D01*
X357798Y467801D01*
X357890Y467717D01*
X357979Y467631D01*
X358065Y467542D01*
X358149Y467450D01*
X358229Y467355D01*
X358307Y467259D01*
X358381Y467159D01*
X358453Y467058D01*
X358521Y466954D01*
X358586Y466848D01*
X358647Y466740D01*
X358705Y466631D01*
X358760Y466519D01*
X358811Y466406D01*
X358859Y466291D01*
X358902Y466175D01*
X358943Y466058D01*
X358979Y465939D01*
X359012Y465820D01*
X359041Y465699D01*
X359066Y465577D01*
X359087Y465455D01*
X359105Y465332D01*
X359118Y465209D01*
X359128Y465085D01*
X359134Y464961D01*
X359136Y464837D01*
X359136Y463849D01*
X359137Y463849D02*
X359135Y463709D01*
X359129Y463570D01*
X359119Y463430D01*
X359105Y463291D01*
X359088Y463152D01*
X359066Y463014D01*
X359040Y462877D01*
X359011Y462740D01*
X358978Y462604D01*
X358941Y462470D01*
X358900Y462336D01*
X358855Y462204D01*
X358806Y462072D01*
X358754Y461943D01*
X358699Y461815D01*
X358639Y461688D01*
X358576Y461563D01*
X358510Y461440D01*
X358440Y461319D01*
X358367Y461200D01*
X358290Y461083D01*
X358210Y460969D01*
X358127Y460856D01*
X358041Y460746D01*
X357951Y460639D01*
X357859Y460534D01*
X357764Y460432D01*
X357666Y460332D01*
X357565Y460235D01*
X357461Y460141D01*
X357355Y460051D01*
X357246Y459963D01*
X357135Y459878D01*
X357021Y459797D01*
X356906Y459718D01*
X356788Y459643D01*
X356668Y459572D01*
X356545Y459504D01*
X356422Y459439D01*
X356296Y459378D01*
X356168Y459320D01*
X356040Y459266D01*
X355909Y459216D01*
X355777Y459169D01*
X355644Y459126D01*
X355510Y459087D01*
X355375Y459052D01*
X355239Y459021D01*
X355101Y458993D01*
X354964Y458970D01*
X354825Y458950D01*
X354686Y458934D01*
X354547Y458922D01*
X354408Y458914D01*
X354268Y458910D01*
X354128Y458910D01*
X353988Y458914D01*
X353849Y458922D01*
X353710Y458934D01*
X353571Y458950D01*
X353432Y458970D01*
X353295Y458993D01*
X353157Y459021D01*
X353021Y459052D01*
X352886Y459087D01*
X352752Y459126D01*
X352619Y459169D01*
X352487Y459216D01*
X352356Y459266D01*
X352228Y459320D01*
X352100Y459378D01*
X351974Y459439D01*
X351851Y459504D01*
X351729Y459572D01*
X351608Y459643D01*
X351490Y459718D01*
X351375Y459797D01*
X351261Y459878D01*
X351150Y459963D01*
X351041Y460051D01*
X350935Y460141D01*
X350831Y460235D01*
X350730Y460332D01*
X350632Y460432D01*
X350537Y460534D01*
X350445Y460639D01*
X350355Y460746D01*
X350269Y460856D01*
X350186Y460969D01*
X350106Y461083D01*
X350029Y461200D01*
X349956Y461319D01*
X349886Y461440D01*
X349820Y461563D01*
X349757Y461688D01*
X349697Y461815D01*
X349642Y461943D01*
X349590Y462072D01*
X349541Y462204D01*
X349496Y462336D01*
X349455Y462470D01*
X349418Y462604D01*
X349385Y462740D01*
X349356Y462877D01*
X349330Y463014D01*
X349308Y463152D01*
X349291Y463291D01*
X349277Y463430D01*
X349267Y463570D01*
X349261Y463709D01*
X349259Y463849D01*
X349259Y468788D01*
X349261Y468982D01*
X349269Y469176D01*
X349280Y469369D01*
X349297Y469563D01*
X349318Y469755D01*
X349345Y469947D01*
X349375Y470139D01*
X349411Y470330D01*
X349451Y470519D01*
X349496Y470708D01*
X349545Y470896D01*
X349599Y471082D01*
X349658Y471267D01*
X349721Y471450D01*
X349788Y471632D01*
X349861Y471812D01*
X349937Y471990D01*
X350018Y472167D01*
X350103Y472341D01*
X350192Y472513D01*
X350286Y472683D01*
X350383Y472850D01*
X350485Y473016D01*
X350591Y473178D01*
X350700Y473338D01*
X350814Y473495D01*
X350931Y473650D01*
X351053Y473801D01*
X351178Y473949D01*
X351306Y474095D01*
X351438Y474237D01*
X351573Y474376D01*
X351712Y474511D01*
X351854Y474643D01*
X352000Y474771D01*
X352148Y474896D01*
X352299Y475018D01*
X352454Y475135D01*
X352611Y475249D01*
X352771Y475358D01*
X352933Y475464D01*
X353099Y475566D01*
X353266Y475663D01*
X353436Y475757D01*
X353608Y475846D01*
X353782Y475931D01*
X353959Y476012D01*
X354137Y476088D01*
X354317Y476161D01*
X354499Y476228D01*
X354682Y476291D01*
X354867Y476350D01*
X355053Y476404D01*
X355241Y476453D01*
X355430Y476498D01*
X355619Y476538D01*
X355810Y476574D01*
X356002Y476604D01*
X356194Y476631D01*
X356386Y476652D01*
X356580Y476669D01*
X356773Y476680D01*
X356967Y476688D01*
X357161Y476690D01*
D12*
X273810Y239502D03*
D13*
X273294Y239649D03*
D14*
X272705Y239796D03*
D15*
X272263Y239944D03*
D16*
X271747Y240091D03*
D17*
X271305Y240238D03*
D18*
X270716Y240386D03*
D19*
X270200Y240533D03*
D20*
X269758Y240680D03*
D21*
X269316Y240828D03*
D22*
X269243Y240975D03*
D23*
X269316Y241122D03*
D24*
X269390Y241270D03*
D25*
X269316Y241417D03*
D26*
X269390Y241564D03*
D27*
X269390Y241711D03*
D28*
X269464Y241859D03*
X269464Y242006D03*
D29*
X269464Y242153D03*
D30*
X269537Y242301D03*
D31*
X269537Y242448D03*
X269537Y242595D03*
D32*
X269611Y242743D03*
D33*
X269611Y242890D03*
D34*
X269685Y243037D03*
D35*
X269611Y243185D03*
D36*
X269685Y243332D03*
D37*
X269758Y243479D03*
D38*
X269758Y243627D03*
X269758Y243774D03*
D39*
X269832Y243921D03*
D40*
X269832Y244069D03*
D41*
X269906Y244216D03*
D42*
X269832Y244363D03*
D43*
X269906Y244511D03*
D44*
X269979Y244658D03*
D45*
X269979Y244805D03*
X269979Y244953D03*
D46*
X269979Y245100D03*
D47*
X270053Y245247D03*
X270053Y245394D03*
D48*
X270053Y245542D03*
D49*
X270127Y245689D03*
D50*
X270127Y245836D03*
X270127Y245984D03*
D51*
X270200Y246131D03*
D52*
X270200Y246278D03*
D53*
X270274Y246426D03*
D54*
X270200Y246573D03*
D55*
X270274Y246720D03*
D56*
X270348Y246868D03*
D57*
X290825Y246868D03*
D58*
X270348Y247015D03*
D59*
X290236Y247015D03*
D58*
X270348Y247162D03*
D60*
X289794Y247162D03*
D61*
X270348Y247310D03*
D62*
X289278Y247310D03*
D63*
X270421Y247457D03*
D64*
X288836Y247457D03*
D63*
X270421Y247604D03*
D65*
X288247Y247604D03*
D66*
X270348Y247752D03*
D67*
X287805Y247752D03*
D66*
X270348Y247899D03*
D68*
X287289Y247899D03*
D63*
X270274Y248046D03*
D69*
X286847Y248046D03*
D66*
X270200Y248194D03*
D21*
X286700Y248194D03*
D66*
X270200Y248341D03*
D23*
X286700Y248341D03*
D66*
X270053Y248488D03*
D24*
X286774Y248488D03*
D66*
X270053Y248636D03*
D25*
X286847Y248636D03*
D63*
X269979Y248783D03*
D26*
X286774Y248783D03*
D66*
X269906Y248930D03*
D70*
X286847Y248930D03*
D66*
X269906Y249077D03*
D28*
X286847Y249077D03*
D66*
X269758Y249225D03*
D71*
X286921Y249225D03*
D66*
X269758Y249372D03*
D71*
X286921Y249372D03*
D63*
X269685Y249519D03*
D30*
X286921Y249519D03*
D66*
X269611Y249667D03*
D72*
X286995Y249667D03*
D66*
X269611Y249814D03*
D32*
X286995Y249814D03*
D66*
X269464Y249961D03*
D32*
X286995Y249961D03*
D66*
X269464Y250109D03*
D73*
X287068Y250109D03*
D63*
X269390Y250256D03*
D34*
X287068Y250256D03*
D61*
X269464Y250403D03*
D35*
X287142Y250403D03*
D61*
X269464Y250551D03*
D36*
X287068Y250551D03*
D74*
X269464Y250698D03*
D75*
X287142Y250698D03*
D76*
X269537Y250845D03*
D77*
X287216Y250845D03*
D55*
X269537Y250993D03*
D78*
X287216Y250993D03*
D55*
X269537Y251140D03*
D78*
X287216Y251140D03*
D54*
X269611Y251287D03*
D79*
X287289Y251287D03*
D52*
X269611Y251435D03*
D41*
X287289Y251435D03*
D80*
X269685Y251582D03*
D41*
X287289Y251582D03*
D51*
X269611Y251729D03*
D43*
X287289Y251729D03*
D81*
X269685Y251877D03*
D44*
X287363Y251877D03*
D82*
X269758Y252024D03*
D83*
X287437Y252024D03*
D48*
X269758Y252171D03*
D84*
X287363Y252171D03*
D48*
X269758Y252319D03*
D85*
X287437Y252319D03*
D86*
X269832Y252466D03*
D47*
X287437Y252466D03*
D46*
X269832Y252613D03*
D86*
X287510Y252613D03*
D46*
X269832Y252760D03*
D86*
X287510Y252760D03*
D84*
X269832Y252908D03*
D49*
X287510Y252908D03*
D87*
X269906Y253055D03*
D82*
X287584Y253055D03*
D44*
X269979Y253202D03*
D51*
X287584Y253202D03*
D43*
X269906Y253350D03*
D51*
X287584Y253350D03*
D42*
X269979Y253497D03*
D80*
X287658Y253497D03*
D40*
X269979Y253644D03*
D53*
X287658Y253644D03*
D79*
X270053Y253792D03*
D54*
X287731Y253792D03*
D79*
X270053Y253939D03*
D55*
X287658Y253939D03*
D88*
X270053Y254086D03*
D89*
X287731Y254086D03*
D77*
X270127Y254234D03*
D76*
X287805Y254234D03*
D36*
X270127Y254381D03*
D90*
X287805Y254381D03*
D36*
X270127Y254528D03*
D90*
X287805Y254528D03*
D35*
X270200Y254676D03*
D63*
X287805Y254676D03*
D33*
X270200Y254823D03*
D66*
X287879Y254823D03*
D73*
X270274Y254970D03*
D63*
X287805Y254970D03*
D32*
X270200Y255118D03*
D66*
X287731Y255118D03*
D91*
X270274Y255265D03*
D66*
X287731Y255265D03*
D92*
X270348Y255412D03*
D63*
X287658Y255412D03*
D29*
X270348Y255560D03*
D66*
X287584Y255560D03*
D29*
X270348Y255707D03*
D66*
X287584Y255707D03*
D71*
X270421Y255854D03*
D66*
X287437Y255854D03*
D27*
X270421Y256002D03*
D66*
X287437Y256002D03*
D70*
X270495Y256149D03*
D63*
X287363Y256149D03*
D93*
X270421Y256296D03*
D66*
X287289Y256296D03*
D25*
X270495Y256443D03*
D66*
X287289Y256443D03*
D24*
X270568Y256591D03*
D66*
X287142Y256591D03*
D23*
X270495Y256738D03*
D66*
X287142Y256738D03*
D22*
X270568Y256885D03*
D63*
X287068Y256885D03*
D69*
X270495Y257033D03*
D66*
X286995Y257033D03*
D94*
X269979Y257180D03*
D66*
X286995Y257180D03*
D67*
X269390Y257327D03*
D66*
X286847Y257327D03*
D65*
X268948Y257475D03*
D66*
X286847Y257475D03*
D95*
X268432Y257622D03*
D61*
X286847Y257622D03*
D96*
X267990Y257769D03*
D90*
X286921Y257769D03*
D60*
X267401Y257917D03*
D90*
X286921Y257917D03*
D97*
X266885Y258064D03*
D98*
X286921Y258064D03*
D99*
X266444Y258211D03*
D56*
X286995Y258211D03*
D100*
X276240Y258359D03*
D55*
X286921Y258359D03*
D101*
X275725Y258506D03*
D54*
X286995Y258506D03*
D14*
X275209Y258653D03*
D53*
X287068Y258653D03*
D102*
X274693Y258801D03*
D80*
X287068Y258801D03*
D16*
X274251Y258948D03*
D80*
X287068Y258948D03*
D103*
X273736Y259095D03*
D81*
X287068Y259095D03*
D18*
X273220Y259243D03*
D104*
X287142Y259243D03*
D19*
X272705Y259390D03*
D49*
X287216Y259390D03*
D105*
X272189Y259537D03*
D48*
X287142Y259537D03*
D106*
X271747Y259685D03*
D86*
X287216Y259685D03*
D22*
X271747Y259832D03*
D47*
X287289Y259832D03*
D23*
X271821Y259979D03*
D85*
X287289Y259979D03*
D24*
X271894Y260126D03*
D85*
X287289Y260126D03*
D25*
X271821Y260274D03*
D87*
X287289Y260274D03*
D26*
X271894Y260421D03*
D44*
X287363Y260421D03*
D107*
X271894Y260568D03*
D43*
X287437Y260568D03*
D28*
X271968Y260716D03*
D42*
X287363Y260716D03*
D28*
X271968Y260863D03*
D41*
X287437Y260863D03*
D29*
X271968Y261010D03*
D79*
X287437Y261010D03*
D30*
X272042Y261158D03*
D39*
X287510Y261158D03*
D31*
X272042Y261305D03*
D39*
X287510Y261305D03*
D31*
X272042Y261452D03*
D108*
X287510Y261452D03*
D32*
X272115Y261600D03*
D75*
X287584Y261600D03*
D33*
X272115Y261747D03*
D35*
X287584Y261747D03*
D34*
X272189Y261894D03*
D35*
X287584Y261894D03*
X272115Y262042D03*
D34*
X287658Y262042D03*
D36*
X272189Y262189D03*
D73*
X287658Y262189D03*
D75*
X272263Y262336D03*
D73*
X287658Y262336D03*
D38*
X272263Y262484D03*
D91*
X287658Y262484D03*
D38*
X272263Y262631D03*
D72*
X287731Y262631D03*
D79*
X272263Y262778D03*
D30*
X287805Y262778D03*
D40*
X272336Y262926D03*
D29*
X287731Y262926D03*
D41*
X272410Y263073D03*
D71*
X287805Y263073D03*
D42*
X272336Y263220D03*
D27*
X287805Y263220D03*
D43*
X272410Y263368D03*
D109*
X287879Y263368D03*
D87*
X272410Y263515D03*
D109*
X287879Y263515D03*
D45*
X272484Y263662D03*
D25*
X287879Y263662D03*
D45*
X272484Y263809D03*
D24*
X287952Y263809D03*
D46*
X272484Y263957D03*
D23*
X288026Y263957D03*
D47*
X272557Y264104D03*
D22*
X287952Y264104D03*
D47*
X272557Y264251D03*
D106*
X287952Y264251D03*
D48*
X272557Y264399D03*
D110*
X287510Y264399D03*
D49*
X272631Y264546D03*
D111*
X286995Y264546D03*
D50*
X272631Y264693D03*
D18*
X286479Y264693D03*
D50*
X272631Y264841D03*
D112*
X285963Y264841D03*
D51*
X272705Y264988D03*
D113*
X285521Y264988D03*
D52*
X272705Y265135D03*
D114*
X285006Y265135D03*
D53*
X272778Y265283D03*
D14*
X284490Y265283D03*
D54*
X272705Y265430D03*
D115*
X283975Y265430D03*
D55*
X272778Y265577D03*
D12*
X283533Y265577D03*
D56*
X272852Y265725D03*
D58*
X272852Y265872D03*
X272852Y266019D03*
D61*
X272852Y266167D03*
D63*
X272926Y266314D03*
X272926Y266461D03*
D66*
X272852Y266609D03*
X272852Y266756D03*
X272705Y266903D03*
X272705Y267051D03*
D63*
X272631Y267198D03*
D66*
X272557Y267345D03*
X272557Y267492D03*
X272410Y267640D03*
X272410Y267787D03*
D63*
X272336Y267934D03*
D66*
X272263Y268082D03*
X272263Y268229D03*
D63*
X272189Y268376D03*
D66*
X272115Y268524D03*
X272115Y268671D03*
X271968Y268818D03*
X271968Y268966D03*
D63*
X271894Y269113D03*
D61*
X271968Y269260D03*
X271968Y269408D03*
D74*
X271968Y269555D03*
D76*
X272042Y269702D03*
D55*
X272042Y269850D03*
X272042Y269997D03*
D54*
X272115Y270144D03*
D52*
X272115Y270292D03*
D80*
X272189Y270439D03*
D51*
X272115Y270586D03*
D81*
X272189Y270734D03*
D82*
X272263Y270881D03*
D116*
X272189Y271028D03*
D48*
X272263Y271175D03*
D47*
X272263Y271323D03*
D46*
X272336Y271470D03*
X272336Y271617D03*
D84*
X272336Y271765D03*
D87*
X272410Y271912D03*
D43*
X272410Y272059D03*
X272410Y272207D03*
D42*
X272484Y272354D03*
D40*
X272484Y272501D03*
D79*
X272557Y272649D03*
X272557Y272796D03*
D88*
X272557Y272943D03*
D77*
X272631Y273091D03*
D36*
X272631Y273238D03*
X272631Y273385D03*
D35*
X272705Y273533D03*
D33*
X272705Y273680D03*
D73*
X272778Y273827D03*
D32*
X272705Y273975D03*
D91*
X272778Y274122D03*
D92*
X272852Y274269D03*
D29*
X272852Y274417D03*
X272852Y274564D03*
D28*
X272852Y274711D03*
D27*
X272926Y274858D03*
D70*
X272999Y275006D03*
D93*
X272926Y275153D03*
D25*
X272999Y275300D03*
D23*
X272999Y275448D03*
X272999Y275595D03*
D22*
X273073Y275742D03*
D117*
X272926Y275890D03*
D118*
X272410Y276037D03*
D67*
X271894Y276184D03*
D119*
X271379Y276332D03*
D95*
X270937Y276479D03*
D120*
X270421Y276626D03*
D60*
X269906Y276774D03*
D97*
X269390Y276921D03*
D121*
X268874Y277068D03*
D122*
X419193Y327225D02*
X421281Y327225D01*
X419193Y327226D02*
X419104Y327228D01*
X419016Y327234D01*
X418928Y327243D01*
X418840Y327256D01*
X418753Y327273D01*
X418667Y327293D01*
X418582Y327318D01*
X418497Y327345D01*
X418414Y327377D01*
X418333Y327411D01*
X418253Y327450D01*
X418175Y327491D01*
X418098Y327536D01*
X418024Y327584D01*
X417951Y327635D01*
X417881Y327689D01*
X417814Y327747D01*
X417748Y327807D01*
X417686Y327869D01*
X417626Y327935D01*
X417568Y328002D01*
X417514Y328072D01*
X417463Y328145D01*
X417415Y328219D01*
X417370Y328296D01*
X417329Y328374D01*
X417290Y328454D01*
X417256Y328535D01*
X417224Y328618D01*
X417197Y328703D01*
X417172Y328788D01*
X417152Y328874D01*
X417135Y328961D01*
X417122Y329049D01*
X417113Y329137D01*
X417107Y329225D01*
X417105Y329314D01*
X417104Y329314D02*
X417104Y334535D01*
X417105Y334535D02*
X417107Y334626D01*
X417113Y334717D01*
X417123Y334808D01*
X417137Y334898D01*
X417154Y334987D01*
X417176Y335075D01*
X417202Y335163D01*
X417231Y335249D01*
X417264Y335334D01*
X417301Y335417D01*
X417341Y335499D01*
X417385Y335579D01*
X417432Y335657D01*
X417483Y335733D01*
X417536Y335806D01*
X417593Y335877D01*
X417654Y335946D01*
X417717Y336011D01*
X417782Y336074D01*
X417851Y336134D01*
X417922Y336192D01*
X417995Y336245D01*
X418071Y336296D01*
X418149Y336343D01*
X418229Y336387D01*
X418311Y336427D01*
X418394Y336464D01*
X418479Y336497D01*
X418565Y336526D01*
X418653Y336552D01*
X418741Y336574D01*
X418830Y336591D01*
X418920Y336605D01*
X419011Y336615D01*
X419102Y336621D01*
X419193Y336623D01*
X421281Y336623D01*
X424750Y334535D02*
X427361Y336623D01*
X427361Y327225D01*
X429971Y327225D02*
X424750Y327225D01*
D123*
X253911Y420379D02*
X251411Y420379D01*
X253911Y420379D02*
X256411Y420379D01*
X253911Y420379D02*
X251411Y425379D01*
X256411Y425379D02*
X253911Y420379D01*
X256411Y425379D02*
X251411Y425379D01*
X248911Y435379D02*
X258911Y435379D01*
X258911Y410379D01*
X248911Y410379D01*
X248911Y435379D01*
D122*
X250448Y441503D02*
X259846Y441503D01*
X250448Y441503D02*
X250448Y444113D01*
X250447Y444113D02*
X250449Y444213D01*
X250455Y444313D01*
X250464Y444412D01*
X250478Y444512D01*
X250495Y444610D01*
X250516Y444708D01*
X250540Y444805D01*
X250569Y444901D01*
X250601Y444996D01*
X250636Y445089D01*
X250675Y445181D01*
X250718Y445272D01*
X250764Y445360D01*
X250814Y445447D01*
X250866Y445532D01*
X250922Y445615D01*
X250981Y445696D01*
X251044Y445774D01*
X251109Y445850D01*
X251177Y445924D01*
X251247Y445994D01*
X251321Y446062D01*
X251397Y446127D01*
X251475Y446190D01*
X251556Y446249D01*
X251639Y446305D01*
X251724Y446357D01*
X251811Y446407D01*
X251899Y446453D01*
X251990Y446496D01*
X252082Y446535D01*
X252175Y446570D01*
X252270Y446602D01*
X252366Y446631D01*
X252463Y446655D01*
X252561Y446676D01*
X252659Y446693D01*
X252759Y446707D01*
X252858Y446716D01*
X252958Y446722D01*
X253058Y446724D01*
X257235Y446724D01*
X257335Y446722D01*
X257435Y446716D01*
X257534Y446707D01*
X257634Y446693D01*
X257732Y446676D01*
X257830Y446655D01*
X257927Y446631D01*
X258023Y446602D01*
X258118Y446570D01*
X258211Y446535D01*
X258303Y446496D01*
X258394Y446453D01*
X258482Y446407D01*
X258569Y446357D01*
X258654Y446305D01*
X258737Y446249D01*
X258818Y446190D01*
X258896Y446127D01*
X258972Y446062D01*
X259046Y445994D01*
X259116Y445924D01*
X259184Y445850D01*
X259249Y445774D01*
X259312Y445696D01*
X259371Y445615D01*
X259427Y445532D01*
X259479Y445447D01*
X259529Y445360D01*
X259575Y445272D01*
X259618Y445181D01*
X259657Y445089D01*
X259692Y444996D01*
X259724Y444901D01*
X259753Y444805D01*
X259777Y444708D01*
X259798Y444610D01*
X259815Y444512D01*
X259829Y444412D01*
X259838Y444313D01*
X259844Y444213D01*
X259846Y444113D01*
X259846Y441503D01*
X252536Y450952D02*
X250448Y453562D01*
X259846Y453562D01*
X259846Y450952D02*
X259846Y456173D01*
X399721Y312379D02*
X399721Y302981D01*
X399721Y312379D02*
X403897Y312379D01*
X403897Y308202D02*
X399721Y308202D01*
X407759Y308202D02*
X410370Y308202D01*
X410370Y308203D02*
X410471Y308201D01*
X410572Y308195D01*
X410673Y308185D01*
X410773Y308172D01*
X410873Y308154D01*
X410972Y308133D01*
X411070Y308107D01*
X411167Y308078D01*
X411263Y308046D01*
X411357Y308009D01*
X411450Y307969D01*
X411542Y307925D01*
X411631Y307878D01*
X411719Y307827D01*
X411805Y307773D01*
X411888Y307716D01*
X411970Y307656D01*
X412048Y307592D01*
X412125Y307526D01*
X412198Y307456D01*
X412269Y307384D01*
X412337Y307309D01*
X412402Y307231D01*
X412464Y307151D01*
X412523Y307069D01*
X412579Y306984D01*
X412631Y306897D01*
X412680Y306809D01*
X412726Y306718D01*
X412767Y306626D01*
X412806Y306532D01*
X412840Y306437D01*
X412871Y306341D01*
X412898Y306243D01*
X412922Y306145D01*
X412941Y306045D01*
X412957Y305945D01*
X412969Y305845D01*
X412977Y305744D01*
X412981Y305643D01*
X412981Y305541D01*
X412977Y305440D01*
X412969Y305339D01*
X412957Y305239D01*
X412941Y305139D01*
X412922Y305039D01*
X412898Y304941D01*
X412871Y304843D01*
X412840Y304747D01*
X412806Y304652D01*
X412767Y304558D01*
X412726Y304466D01*
X412680Y304375D01*
X412631Y304287D01*
X412579Y304200D01*
X412523Y304115D01*
X412464Y304033D01*
X412402Y303953D01*
X412337Y303875D01*
X412269Y303800D01*
X412198Y303728D01*
X412125Y303658D01*
X412048Y303592D01*
X411970Y303528D01*
X411888Y303468D01*
X411805Y303411D01*
X411719Y303357D01*
X411631Y303306D01*
X411542Y303259D01*
X411450Y303215D01*
X411357Y303175D01*
X411263Y303138D01*
X411167Y303106D01*
X411070Y303077D01*
X410972Y303051D01*
X410873Y303030D01*
X410773Y303012D01*
X410673Y302999D01*
X410572Y302989D01*
X410471Y302983D01*
X410370Y302981D01*
X407759Y302981D01*
X407759Y312379D01*
X410370Y312379D01*
X410460Y312377D01*
X410549Y312371D01*
X410639Y312362D01*
X410728Y312348D01*
X410816Y312331D01*
X410903Y312310D01*
X410990Y312285D01*
X411075Y312256D01*
X411159Y312224D01*
X411241Y312189D01*
X411322Y312149D01*
X411401Y312107D01*
X411478Y312061D01*
X411553Y312011D01*
X411626Y311959D01*
X411697Y311903D01*
X411765Y311845D01*
X411830Y311783D01*
X411893Y311719D01*
X411953Y311652D01*
X412010Y311583D01*
X412064Y311511D01*
X412115Y311437D01*
X412163Y311361D01*
X412207Y311283D01*
X412248Y311203D01*
X412286Y311121D01*
X412320Y311038D01*
X412350Y310953D01*
X412377Y310867D01*
X412400Y310781D01*
X412419Y310693D01*
X412434Y310604D01*
X412446Y310515D01*
X412454Y310426D01*
X412458Y310336D01*
X412458Y310246D01*
X412454Y310156D01*
X412446Y310067D01*
X412434Y309978D01*
X412419Y309889D01*
X412400Y309801D01*
X412377Y309715D01*
X412350Y309629D01*
X412320Y309544D01*
X412286Y309461D01*
X412248Y309379D01*
X412207Y309299D01*
X412163Y309221D01*
X412115Y309145D01*
X412064Y309071D01*
X412010Y308999D01*
X411953Y308930D01*
X411893Y308863D01*
X411830Y308799D01*
X411765Y308737D01*
X411697Y308679D01*
X411626Y308623D01*
X411553Y308571D01*
X411478Y308521D01*
X411401Y308475D01*
X411322Y308433D01*
X411241Y308393D01*
X411159Y308358D01*
X411075Y308326D01*
X410990Y308297D01*
X410903Y308272D01*
X410816Y308251D01*
X410728Y308234D01*
X410639Y308220D01*
X410549Y308211D01*
X410460Y308205D01*
X410370Y308203D01*
X416467Y310291D02*
X419078Y312379D01*
X419078Y302981D01*
X421688Y302981D02*
X416467Y302981D01*
X281702Y442658D02*
X272304Y442658D01*
X272304Y445269D01*
X272306Y445370D01*
X272312Y445471D01*
X272322Y445572D01*
X272335Y445672D01*
X272353Y445772D01*
X272374Y445871D01*
X272400Y445969D01*
X272429Y446066D01*
X272461Y446162D01*
X272498Y446256D01*
X272538Y446349D01*
X272582Y446441D01*
X272629Y446530D01*
X272680Y446618D01*
X272734Y446704D01*
X272791Y446787D01*
X272851Y446869D01*
X272915Y446947D01*
X272981Y447024D01*
X273051Y447097D01*
X273123Y447168D01*
X273198Y447236D01*
X273276Y447301D01*
X273356Y447363D01*
X273438Y447422D01*
X273523Y447478D01*
X273610Y447530D01*
X273698Y447579D01*
X273789Y447625D01*
X273881Y447666D01*
X273975Y447705D01*
X274070Y447739D01*
X274166Y447770D01*
X274264Y447797D01*
X274362Y447821D01*
X274462Y447840D01*
X274562Y447856D01*
X274662Y447868D01*
X274763Y447876D01*
X274864Y447880D01*
X274966Y447880D01*
X275067Y447876D01*
X275168Y447868D01*
X275268Y447856D01*
X275368Y447840D01*
X275468Y447821D01*
X275566Y447797D01*
X275664Y447770D01*
X275760Y447739D01*
X275855Y447705D01*
X275949Y447666D01*
X276041Y447625D01*
X276132Y447579D01*
X276221Y447530D01*
X276307Y447478D01*
X276392Y447422D01*
X276474Y447363D01*
X276554Y447301D01*
X276632Y447236D01*
X276707Y447168D01*
X276779Y447097D01*
X276849Y447024D01*
X276915Y446947D01*
X276979Y446869D01*
X277039Y446787D01*
X277096Y446704D01*
X277150Y446618D01*
X277201Y446530D01*
X277248Y446441D01*
X277292Y446349D01*
X277332Y446256D01*
X277369Y446162D01*
X277401Y446066D01*
X277430Y445969D01*
X277456Y445871D01*
X277477Y445772D01*
X277495Y445672D01*
X277508Y445572D01*
X277518Y445471D01*
X277524Y445370D01*
X277526Y445269D01*
X277525Y445269D02*
X277525Y442658D01*
X277525Y445791D02*
X281702Y447880D01*
X274393Y451745D02*
X272304Y454356D01*
X281702Y454356D01*
X281702Y456966D02*
X281702Y451745D01*
X393931Y447899D02*
X393931Y457297D01*
X396542Y457297D01*
X396643Y457295D01*
X396744Y457289D01*
X396845Y457279D01*
X396945Y457266D01*
X397045Y457248D01*
X397144Y457227D01*
X397242Y457201D01*
X397339Y457172D01*
X397435Y457140D01*
X397529Y457103D01*
X397622Y457063D01*
X397714Y457019D01*
X397803Y456972D01*
X397891Y456921D01*
X397977Y456867D01*
X398060Y456810D01*
X398142Y456750D01*
X398220Y456686D01*
X398297Y456620D01*
X398370Y456550D01*
X398441Y456478D01*
X398509Y456403D01*
X398574Y456325D01*
X398636Y456245D01*
X398695Y456163D01*
X398751Y456078D01*
X398803Y455991D01*
X398852Y455903D01*
X398898Y455812D01*
X398939Y455720D01*
X398978Y455626D01*
X399012Y455531D01*
X399043Y455435D01*
X399070Y455337D01*
X399094Y455239D01*
X399113Y455139D01*
X399129Y455039D01*
X399141Y454939D01*
X399149Y454838D01*
X399153Y454737D01*
X399153Y454635D01*
X399149Y454534D01*
X399141Y454433D01*
X399129Y454333D01*
X399113Y454233D01*
X399094Y454133D01*
X399070Y454035D01*
X399043Y453937D01*
X399012Y453841D01*
X398978Y453746D01*
X398939Y453652D01*
X398898Y453560D01*
X398852Y453469D01*
X398803Y453381D01*
X398751Y453294D01*
X398695Y453209D01*
X398636Y453127D01*
X398574Y453047D01*
X398509Y452969D01*
X398441Y452894D01*
X398370Y452822D01*
X398297Y452752D01*
X398220Y452686D01*
X398142Y452622D01*
X398060Y452562D01*
X397977Y452505D01*
X397891Y452451D01*
X397803Y452400D01*
X397714Y452353D01*
X397622Y452309D01*
X397529Y452269D01*
X397435Y452232D01*
X397339Y452200D01*
X397242Y452171D01*
X397144Y452145D01*
X397045Y452124D01*
X396945Y452106D01*
X396845Y452093D01*
X396744Y452083D01*
X396643Y452077D01*
X396542Y452075D01*
X393931Y452075D01*
X397064Y452075D02*
X399152Y447899D01*
X408240Y454947D02*
X408238Y455042D01*
X408232Y455136D01*
X408223Y455230D01*
X408210Y455324D01*
X408193Y455417D01*
X408172Y455509D01*
X408147Y455601D01*
X408119Y455691D01*
X408087Y455780D01*
X408052Y455868D01*
X408013Y455954D01*
X407971Y456039D01*
X407925Y456122D01*
X407876Y456203D01*
X407824Y456282D01*
X407769Y456359D01*
X407710Y456433D01*
X407649Y456505D01*
X407585Y456575D01*
X407518Y456642D01*
X407448Y456706D01*
X407376Y456767D01*
X407302Y456826D01*
X407225Y456881D01*
X407146Y456933D01*
X407065Y456982D01*
X406982Y457028D01*
X406897Y457070D01*
X406811Y457109D01*
X406723Y457144D01*
X406634Y457176D01*
X406544Y457204D01*
X406452Y457229D01*
X406360Y457250D01*
X406267Y457267D01*
X406173Y457280D01*
X406079Y457289D01*
X405985Y457295D01*
X405890Y457297D01*
X405890Y457296D02*
X405782Y457294D01*
X405673Y457288D01*
X405565Y457278D01*
X405458Y457265D01*
X405351Y457247D01*
X405244Y457226D01*
X405139Y457201D01*
X405034Y457172D01*
X404931Y457140D01*
X404829Y457103D01*
X404728Y457063D01*
X404629Y457020D01*
X404531Y456973D01*
X404435Y456922D01*
X404341Y456868D01*
X404249Y456811D01*
X404159Y456750D01*
X404071Y456686D01*
X403986Y456620D01*
X403903Y456550D01*
X403823Y456477D01*
X403745Y456401D01*
X403670Y456323D01*
X403598Y456242D01*
X403529Y456158D01*
X403463Y456072D01*
X403400Y455984D01*
X403341Y455893D01*
X403284Y455801D01*
X403231Y455706D01*
X403182Y455610D01*
X403136Y455511D01*
X403093Y455412D01*
X403054Y455310D01*
X403019Y455208D01*
X407456Y453119D02*
X407525Y453188D01*
X407591Y453259D01*
X407655Y453332D01*
X407716Y453408D01*
X407774Y453487D01*
X407828Y453567D01*
X407880Y453650D01*
X407928Y453734D01*
X407974Y453820D01*
X408015Y453908D01*
X408054Y453998D01*
X408089Y454089D01*
X408120Y454181D01*
X408148Y454274D01*
X408172Y454368D01*
X408192Y454463D01*
X408209Y454559D01*
X408222Y454656D01*
X408231Y454753D01*
X408237Y454850D01*
X408239Y454947D01*
X407456Y453120D02*
X403018Y447899D01*
X408239Y447899D01*
D11*
X270678Y366410D02*
X270678Y348630D01*
X270678Y366410D02*
X275617Y366410D01*
X275756Y366408D01*
X275894Y366402D01*
X276032Y366393D01*
X276170Y366379D01*
X276307Y366362D01*
X276444Y366340D01*
X276581Y366315D01*
X276716Y366286D01*
X276851Y366253D01*
X276984Y366217D01*
X277117Y366177D01*
X277248Y366133D01*
X277378Y366085D01*
X277507Y366034D01*
X277634Y365979D01*
X277760Y365921D01*
X277884Y365859D01*
X278006Y365794D01*
X278126Y365725D01*
X278245Y365653D01*
X278361Y365578D01*
X278475Y365499D01*
X278587Y365417D01*
X278696Y365332D01*
X278804Y365245D01*
X278908Y365154D01*
X279010Y365060D01*
X279109Y364963D01*
X279206Y364864D01*
X279300Y364762D01*
X279391Y364658D01*
X279478Y364550D01*
X279563Y364441D01*
X279645Y364329D01*
X279724Y364215D01*
X279799Y364099D01*
X279871Y363980D01*
X279940Y363860D01*
X280005Y363738D01*
X280067Y363614D01*
X280125Y363488D01*
X280180Y363361D01*
X280231Y363232D01*
X280279Y363102D01*
X280323Y362971D01*
X280363Y362838D01*
X280399Y362705D01*
X280432Y362570D01*
X280461Y362435D01*
X280486Y362298D01*
X280508Y362161D01*
X280525Y362024D01*
X280539Y361886D01*
X280548Y361748D01*
X280554Y361610D01*
X280556Y361471D01*
X280555Y361471D02*
X280555Y353569D01*
X280556Y353569D02*
X280554Y353430D01*
X280548Y353292D01*
X280539Y353154D01*
X280525Y353016D01*
X280508Y352879D01*
X280486Y352742D01*
X280461Y352605D01*
X280432Y352470D01*
X280399Y352335D01*
X280363Y352202D01*
X280323Y352069D01*
X280279Y351938D01*
X280231Y351808D01*
X280180Y351679D01*
X280125Y351552D01*
X280067Y351426D01*
X280005Y351302D01*
X279940Y351180D01*
X279871Y351060D01*
X279799Y350941D01*
X279724Y350825D01*
X279645Y350711D01*
X279563Y350599D01*
X279478Y350490D01*
X279391Y350382D01*
X279300Y350278D01*
X279206Y350176D01*
X279109Y350077D01*
X279010Y349980D01*
X278908Y349886D01*
X278804Y349795D01*
X278696Y349708D01*
X278587Y349623D01*
X278475Y349541D01*
X278361Y349462D01*
X278245Y349387D01*
X278126Y349315D01*
X278006Y349246D01*
X277884Y349181D01*
X277760Y349119D01*
X277634Y349061D01*
X277507Y349006D01*
X277378Y348955D01*
X277248Y348907D01*
X277117Y348863D01*
X276984Y348823D01*
X276851Y348787D01*
X276716Y348754D01*
X276581Y348725D01*
X276444Y348700D01*
X276307Y348678D01*
X276170Y348661D01*
X276032Y348647D01*
X275894Y348638D01*
X275756Y348632D01*
X275617Y348630D01*
X270678Y348630D01*
X252987Y349540D02*
X249036Y349540D01*
X248912Y349542D01*
X248788Y349548D01*
X248664Y349558D01*
X248541Y349571D01*
X248418Y349589D01*
X248296Y349610D01*
X248174Y349635D01*
X248053Y349664D01*
X247934Y349697D01*
X247815Y349733D01*
X247698Y349774D01*
X247582Y349817D01*
X247467Y349865D01*
X247354Y349916D01*
X247242Y349971D01*
X247133Y350029D01*
X247025Y350090D01*
X246919Y350155D01*
X246815Y350223D01*
X246714Y350295D01*
X246614Y350369D01*
X246518Y350447D01*
X246423Y350527D01*
X246331Y350611D01*
X246242Y350697D01*
X246156Y350786D01*
X246072Y350878D01*
X245992Y350973D01*
X245914Y351069D01*
X245840Y351169D01*
X245768Y351270D01*
X245700Y351374D01*
X245635Y351480D01*
X245574Y351588D01*
X245516Y351697D01*
X245461Y351809D01*
X245410Y351922D01*
X245362Y352037D01*
X245319Y352153D01*
X245278Y352270D01*
X245242Y352389D01*
X245209Y352508D01*
X245180Y352629D01*
X245155Y352751D01*
X245134Y352873D01*
X245116Y352996D01*
X245103Y353119D01*
X245093Y353243D01*
X245087Y353367D01*
X245085Y353491D01*
X245085Y363368D01*
X245087Y363492D01*
X245093Y363616D01*
X245103Y363740D01*
X245116Y363863D01*
X245134Y363986D01*
X245155Y364108D01*
X245180Y364230D01*
X245209Y364351D01*
X245242Y364470D01*
X245278Y364589D01*
X245319Y364706D01*
X245362Y364822D01*
X245410Y364937D01*
X245461Y365050D01*
X245516Y365162D01*
X245574Y365271D01*
X245635Y365379D01*
X245700Y365485D01*
X245768Y365589D01*
X245840Y365690D01*
X245914Y365790D01*
X245992Y365886D01*
X246072Y365981D01*
X246156Y366073D01*
X246242Y366162D01*
X246331Y366248D01*
X246423Y366332D01*
X246518Y366412D01*
X246614Y366490D01*
X246714Y366564D01*
X246815Y366636D01*
X246919Y366704D01*
X247025Y366769D01*
X247133Y366830D01*
X247242Y366888D01*
X247354Y366943D01*
X247467Y366994D01*
X247582Y367042D01*
X247698Y367085D01*
X247815Y367126D01*
X247934Y367162D01*
X248053Y367195D01*
X248174Y367224D01*
X248296Y367249D01*
X248418Y367270D01*
X248541Y367288D01*
X248664Y367301D01*
X248788Y367311D01*
X248912Y367317D01*
X249036Y367319D01*
X249036Y367320D02*
X252987Y367320D01*
X371536Y454812D02*
X376475Y454812D01*
X376615Y454810D01*
X376754Y454804D01*
X376894Y454794D01*
X377033Y454780D01*
X377172Y454763D01*
X377310Y454741D01*
X377447Y454715D01*
X377584Y454686D01*
X377720Y454653D01*
X377854Y454616D01*
X377988Y454575D01*
X378120Y454530D01*
X378252Y454481D01*
X378381Y454429D01*
X378509Y454374D01*
X378636Y454314D01*
X378761Y454251D01*
X378884Y454185D01*
X379005Y454115D01*
X379124Y454042D01*
X379241Y453965D01*
X379355Y453885D01*
X379468Y453802D01*
X379578Y453716D01*
X379685Y453626D01*
X379790Y453534D01*
X379892Y453439D01*
X379992Y453341D01*
X380089Y453240D01*
X380183Y453136D01*
X380273Y453030D01*
X380361Y452921D01*
X380446Y452810D01*
X380527Y452696D01*
X380606Y452581D01*
X380681Y452463D01*
X380752Y452343D01*
X380820Y452220D01*
X380885Y452097D01*
X380946Y451971D01*
X381004Y451843D01*
X381058Y451715D01*
X381108Y451584D01*
X381155Y451452D01*
X381198Y451319D01*
X381237Y451185D01*
X381272Y451050D01*
X381303Y450914D01*
X381331Y450776D01*
X381354Y450639D01*
X381374Y450500D01*
X381390Y450361D01*
X381402Y450222D01*
X381410Y450083D01*
X381414Y449943D01*
X381414Y449803D01*
X381410Y449663D01*
X381402Y449524D01*
X381390Y449385D01*
X381374Y449246D01*
X381354Y449107D01*
X381331Y448970D01*
X381303Y448832D01*
X381272Y448696D01*
X381237Y448561D01*
X381198Y448427D01*
X381155Y448294D01*
X381108Y448162D01*
X381058Y448031D01*
X381004Y447903D01*
X380946Y447775D01*
X380885Y447649D01*
X380820Y447526D01*
X380752Y447404D01*
X380681Y447283D01*
X380606Y447165D01*
X380527Y447050D01*
X380446Y446936D01*
X380361Y446825D01*
X380273Y446716D01*
X380183Y446610D01*
X380089Y446506D01*
X379992Y446405D01*
X379892Y446307D01*
X379790Y446212D01*
X379685Y446120D01*
X379578Y446030D01*
X379468Y445944D01*
X379355Y445861D01*
X379241Y445781D01*
X379124Y445704D01*
X379005Y445631D01*
X378884Y445561D01*
X378761Y445495D01*
X378636Y445432D01*
X378509Y445372D01*
X378381Y445317D01*
X378252Y445265D01*
X378120Y445216D01*
X377988Y445171D01*
X377854Y445130D01*
X377720Y445093D01*
X377584Y445060D01*
X377447Y445031D01*
X377310Y445005D01*
X377172Y444983D01*
X377033Y444966D01*
X376894Y444952D01*
X376754Y444942D01*
X376615Y444936D01*
X376475Y444934D01*
X371536Y444934D01*
X371536Y462714D01*
X376475Y462714D01*
X376599Y462712D01*
X376723Y462706D01*
X376847Y462696D01*
X376970Y462683D01*
X377093Y462665D01*
X377215Y462644D01*
X377337Y462619D01*
X377458Y462590D01*
X377577Y462557D01*
X377696Y462521D01*
X377813Y462480D01*
X377929Y462437D01*
X378044Y462389D01*
X378157Y462338D01*
X378269Y462283D01*
X378378Y462225D01*
X378486Y462164D01*
X378592Y462099D01*
X378696Y462031D01*
X378797Y461959D01*
X378897Y461885D01*
X378993Y461807D01*
X379088Y461727D01*
X379180Y461643D01*
X379269Y461557D01*
X379355Y461468D01*
X379439Y461376D01*
X379519Y461281D01*
X379597Y461185D01*
X379671Y461085D01*
X379743Y460984D01*
X379811Y460880D01*
X379876Y460774D01*
X379937Y460666D01*
X379995Y460557D01*
X380050Y460445D01*
X380101Y460332D01*
X380149Y460217D01*
X380192Y460101D01*
X380233Y459984D01*
X380269Y459865D01*
X380302Y459746D01*
X380331Y459625D01*
X380356Y459503D01*
X380377Y459381D01*
X380395Y459258D01*
X380408Y459135D01*
X380418Y459011D01*
X380424Y458887D01*
X380426Y458763D01*
X380424Y458639D01*
X380418Y458515D01*
X380408Y458391D01*
X380395Y458268D01*
X380377Y458145D01*
X380356Y458023D01*
X380331Y457901D01*
X380302Y457780D01*
X380269Y457661D01*
X380233Y457542D01*
X380192Y457425D01*
X380149Y457309D01*
X380101Y457194D01*
X380050Y457081D01*
X379995Y456969D01*
X379937Y456860D01*
X379876Y456752D01*
X379811Y456646D01*
X379743Y456542D01*
X379671Y456441D01*
X379597Y456341D01*
X379519Y456245D01*
X379439Y456150D01*
X379355Y456058D01*
X379269Y455969D01*
X379180Y455883D01*
X379088Y455799D01*
X378993Y455719D01*
X378897Y455641D01*
X378797Y455567D01*
X378696Y455495D01*
X378592Y455427D01*
X378486Y455362D01*
X378378Y455301D01*
X378269Y455243D01*
X378157Y455188D01*
X378044Y455137D01*
X377929Y455089D01*
X377813Y455046D01*
X377696Y455005D01*
X377577Y454969D01*
X377458Y454936D01*
X377337Y454907D01*
X377215Y454882D01*
X377093Y454861D01*
X376970Y454843D01*
X376847Y454830D01*
X376723Y454820D01*
X376599Y454814D01*
X376475Y454812D01*
X472468Y374142D02*
X472468Y356362D01*
X472468Y374142D02*
X477407Y374142D01*
X477547Y374140D01*
X477686Y374134D01*
X477826Y374124D01*
X477965Y374110D01*
X478104Y374093D01*
X478242Y374071D01*
X478379Y374045D01*
X478516Y374016D01*
X478652Y373983D01*
X478786Y373946D01*
X478920Y373905D01*
X479052Y373860D01*
X479184Y373811D01*
X479313Y373759D01*
X479441Y373704D01*
X479568Y373644D01*
X479693Y373581D01*
X479816Y373515D01*
X479937Y373445D01*
X480056Y373372D01*
X480173Y373295D01*
X480287Y373215D01*
X480400Y373132D01*
X480510Y373046D01*
X480617Y372956D01*
X480722Y372864D01*
X480824Y372769D01*
X480924Y372671D01*
X481021Y372570D01*
X481115Y372466D01*
X481205Y372360D01*
X481293Y372251D01*
X481378Y372140D01*
X481459Y372026D01*
X481538Y371911D01*
X481613Y371793D01*
X481684Y371673D01*
X481752Y371550D01*
X481817Y371427D01*
X481878Y371301D01*
X481936Y371173D01*
X481990Y371045D01*
X482040Y370914D01*
X482087Y370782D01*
X482130Y370649D01*
X482169Y370515D01*
X482204Y370380D01*
X482235Y370244D01*
X482263Y370106D01*
X482286Y369969D01*
X482306Y369830D01*
X482322Y369691D01*
X482334Y369552D01*
X482342Y369413D01*
X482346Y369273D01*
X482346Y369133D01*
X482342Y368993D01*
X482334Y368854D01*
X482322Y368715D01*
X482306Y368576D01*
X482286Y368437D01*
X482263Y368300D01*
X482235Y368162D01*
X482204Y368026D01*
X482169Y367891D01*
X482130Y367757D01*
X482087Y367624D01*
X482040Y367492D01*
X481990Y367361D01*
X481936Y367233D01*
X481878Y367105D01*
X481817Y366979D01*
X481752Y366856D01*
X481684Y366734D01*
X481613Y366613D01*
X481538Y366495D01*
X481459Y366380D01*
X481378Y366266D01*
X481293Y366155D01*
X481205Y366046D01*
X481115Y365940D01*
X481021Y365836D01*
X480924Y365735D01*
X480824Y365637D01*
X480722Y365542D01*
X480617Y365450D01*
X480510Y365360D01*
X480400Y365274D01*
X480287Y365191D01*
X480173Y365111D01*
X480056Y365034D01*
X479937Y364961D01*
X479816Y364891D01*
X479693Y364825D01*
X479568Y364762D01*
X479441Y364702D01*
X479313Y364647D01*
X479184Y364595D01*
X479052Y364546D01*
X478920Y364501D01*
X478786Y364460D01*
X478652Y364423D01*
X478516Y364390D01*
X478379Y364361D01*
X478242Y364335D01*
X478104Y364313D01*
X477965Y364296D01*
X477826Y364282D01*
X477686Y364272D01*
X477547Y364266D01*
X477407Y364264D01*
X472468Y364264D01*
X478395Y364264D02*
X482346Y356362D01*
D123*
X385826Y331216D02*
X380492Y325882D01*
X375158Y331216D02*
X380492Y336550D01*
X385826Y331216D01*
X299720Y295910D02*
X299734Y297032D01*
X299775Y298153D01*
X299844Y299273D01*
X299940Y300391D01*
X300064Y301507D01*
X300215Y302619D01*
X300393Y303726D01*
X300598Y304830D01*
X300831Y305927D01*
X301090Y307019D01*
X301376Y308104D01*
X301689Y309182D01*
X302028Y310252D01*
X302393Y311313D01*
X302784Y312364D01*
X303200Y313406D01*
X303642Y314438D01*
X304110Y315458D01*
X304602Y316466D01*
X305119Y317462D01*
X305660Y318445D01*
X306225Y319415D01*
X306813Y320370D01*
X307425Y321311D01*
X308060Y322236D01*
X308717Y323145D01*
X309397Y324038D01*
X310098Y324914D01*
X310820Y325773D01*
X311564Y326614D01*
X312327Y327436D01*
X313111Y328239D01*
X313914Y329023D01*
X314736Y329786D01*
X315577Y330530D01*
X316436Y331252D01*
X317312Y331953D01*
X318205Y332633D01*
X319114Y333290D01*
X320039Y333925D01*
X320980Y334537D01*
X321935Y335125D01*
X322905Y335690D01*
X323888Y336231D01*
X324884Y336748D01*
X325892Y337240D01*
X326912Y337708D01*
X327944Y338150D01*
X328986Y338566D01*
X330037Y338957D01*
X331098Y339322D01*
X332168Y339661D01*
X333246Y339974D01*
X334331Y340260D01*
X335423Y340519D01*
X336520Y340752D01*
X337624Y340957D01*
X338731Y341135D01*
X339843Y341286D01*
X340959Y341410D01*
X342077Y341506D01*
X343197Y341575D01*
X344318Y341616D01*
X345440Y341630D01*
X346562Y341616D01*
X347683Y341575D01*
X348803Y341506D01*
X349921Y341410D01*
X351037Y341286D01*
X352149Y341135D01*
X353256Y340957D01*
X354360Y340752D01*
X355457Y340519D01*
X356549Y340260D01*
X357634Y339974D01*
X358712Y339661D01*
X359782Y339322D01*
X360843Y338957D01*
X361894Y338566D01*
X362936Y338150D01*
X363968Y337708D01*
X364988Y337240D01*
X365996Y336748D01*
X366992Y336231D01*
X367975Y335690D01*
X368945Y335125D01*
X369900Y334537D01*
X370841Y333925D01*
X371766Y333290D01*
X372675Y332633D01*
X373568Y331953D01*
X374444Y331252D01*
X375303Y330530D01*
X376144Y329786D01*
X376966Y329023D01*
X377769Y328239D01*
X378553Y327436D01*
X379316Y326614D01*
X380060Y325773D01*
X380782Y324914D01*
X381483Y324038D01*
X382163Y323145D01*
X382820Y322236D01*
X383455Y321311D01*
X384067Y320370D01*
X384655Y319415D01*
X385220Y318445D01*
X385761Y317462D01*
X386278Y316466D01*
X386770Y315458D01*
X387238Y314438D01*
X387680Y313406D01*
X388096Y312364D01*
X388487Y311313D01*
X388852Y310252D01*
X389191Y309182D01*
X389504Y308104D01*
X389790Y307019D01*
X390049Y305927D01*
X390282Y304830D01*
X390487Y303726D01*
X390665Y302619D01*
X390816Y301507D01*
X390940Y300391D01*
X391036Y299273D01*
X391105Y298153D01*
X391146Y297032D01*
X391160Y295910D01*
X391146Y294788D01*
X391105Y293667D01*
X391036Y292547D01*
X390940Y291429D01*
X390816Y290313D01*
X390665Y289201D01*
X390487Y288094D01*
X390282Y286990D01*
X390049Y285893D01*
X389790Y284801D01*
X389504Y283716D01*
X389191Y282638D01*
X388852Y281568D01*
X388487Y280507D01*
X388096Y279456D01*
X387680Y278414D01*
X387238Y277382D01*
X386770Y276362D01*
X386278Y275354D01*
X385761Y274358D01*
X385220Y273375D01*
X384655Y272405D01*
X384067Y271450D01*
X383455Y270509D01*
X382820Y269584D01*
X382163Y268675D01*
X381483Y267782D01*
X380782Y266906D01*
X380060Y266047D01*
X379316Y265206D01*
X378553Y264384D01*
X377769Y263581D01*
X376966Y262797D01*
X376144Y262034D01*
X375303Y261290D01*
X374444Y260568D01*
X373568Y259867D01*
X372675Y259187D01*
X371766Y258530D01*
X370841Y257895D01*
X369900Y257283D01*
X368945Y256695D01*
X367975Y256130D01*
X366992Y255589D01*
X365996Y255072D01*
X364988Y254580D01*
X363968Y254112D01*
X362936Y253670D01*
X361894Y253254D01*
X360843Y252863D01*
X359782Y252498D01*
X358712Y252159D01*
X357634Y251846D01*
X356549Y251560D01*
X355457Y251301D01*
X354360Y251068D01*
X353256Y250863D01*
X352149Y250685D01*
X351037Y250534D01*
X349921Y250410D01*
X348803Y250314D01*
X347683Y250245D01*
X346562Y250204D01*
X345440Y250190D01*
X344318Y250204D01*
X343197Y250245D01*
X342077Y250314D01*
X340959Y250410D01*
X339843Y250534D01*
X338731Y250685D01*
X337624Y250863D01*
X336520Y251068D01*
X335423Y251301D01*
X334331Y251560D01*
X333246Y251846D01*
X332168Y252159D01*
X331098Y252498D01*
X330037Y252863D01*
X328986Y253254D01*
X327944Y253670D01*
X326912Y254112D01*
X325892Y254580D01*
X324884Y255072D01*
X323888Y255589D01*
X322905Y256130D01*
X321935Y256695D01*
X320980Y257283D01*
X320039Y257895D01*
X319114Y258530D01*
X318205Y259187D01*
X317312Y259867D01*
X316436Y260568D01*
X315577Y261290D01*
X314736Y262034D01*
X313914Y262797D01*
X313111Y263581D01*
X312327Y264384D01*
X311564Y265206D01*
X310820Y266047D01*
X310098Y266906D01*
X309397Y267782D01*
X308717Y268675D01*
X308060Y269584D01*
X307425Y270509D01*
X306813Y271450D01*
X306225Y272405D01*
X305660Y273375D01*
X305119Y274358D01*
X304602Y275354D01*
X304110Y276362D01*
X303642Y277382D01*
X303200Y278414D01*
X302784Y279456D01*
X302393Y280507D01*
X302028Y281568D01*
X301689Y282638D01*
X301376Y283716D01*
X301090Y284801D01*
X300831Y285893D01*
X300598Y286990D01*
X300393Y288094D01*
X300215Y289201D01*
X300064Y290313D01*
X299940Y291429D01*
X299844Y292547D01*
X299775Y293667D01*
X299734Y294788D01*
X299720Y295910D01*
D124*
X306832Y295910D02*
X306844Y296857D01*
X306879Y297804D01*
X306937Y298750D01*
X307018Y299694D01*
X307122Y300636D01*
X307250Y301575D01*
X307400Y302510D01*
X307574Y303442D01*
X307770Y304369D01*
X307989Y305291D01*
X308231Y306207D01*
X308494Y307117D01*
X308781Y308021D01*
X309089Y308917D01*
X309419Y309805D01*
X309771Y310685D01*
X310144Y311556D01*
X310539Y312417D01*
X310954Y313269D01*
X311391Y314110D01*
X311848Y314940D01*
X312325Y315758D01*
X312822Y316565D01*
X313339Y317359D01*
X313875Y318141D01*
X314430Y318909D01*
X315004Y319663D01*
X315596Y320403D01*
X316206Y321128D01*
X316833Y321838D01*
X317478Y322532D01*
X318140Y323210D01*
X318818Y323872D01*
X319512Y324517D01*
X320222Y325144D01*
X320947Y325754D01*
X321687Y326346D01*
X322441Y326920D01*
X323209Y327475D01*
X323991Y328011D01*
X324785Y328528D01*
X325592Y329025D01*
X326410Y329502D01*
X327240Y329959D01*
X328081Y330396D01*
X328933Y330811D01*
X329794Y331206D01*
X330665Y331579D01*
X331545Y331931D01*
X332433Y332261D01*
X333329Y332569D01*
X334233Y332856D01*
X335143Y333119D01*
X336059Y333361D01*
X336981Y333580D01*
X337908Y333776D01*
X338840Y333950D01*
X339775Y334100D01*
X340714Y334228D01*
X341656Y334332D01*
X342600Y334413D01*
X343546Y334471D01*
X344493Y334506D01*
X345440Y334518D01*
X346387Y334506D01*
X347334Y334471D01*
X348280Y334413D01*
X349224Y334332D01*
X350166Y334228D01*
X351105Y334100D01*
X352040Y333950D01*
X352972Y333776D01*
X353899Y333580D01*
X354821Y333361D01*
X355737Y333119D01*
X356647Y332856D01*
X357551Y332569D01*
X358447Y332261D01*
X359335Y331931D01*
X360215Y331579D01*
X361086Y331206D01*
X361947Y330811D01*
X362799Y330396D01*
X363640Y329959D01*
X364470Y329502D01*
X365288Y329025D01*
X366095Y328528D01*
X366889Y328011D01*
X367671Y327475D01*
X368439Y326920D01*
X369193Y326346D01*
X369933Y325754D01*
X370658Y325144D01*
X371368Y324517D01*
X372062Y323872D01*
X372740Y323210D01*
X373402Y322532D01*
X374047Y321838D01*
X374674Y321128D01*
X375284Y320403D01*
X375876Y319663D01*
X376450Y318909D01*
X377005Y318141D01*
X377541Y317359D01*
X378058Y316565D01*
X378555Y315758D01*
X379032Y314940D01*
X379489Y314110D01*
X379926Y313269D01*
X380341Y312417D01*
X380736Y311556D01*
X381109Y310685D01*
X381461Y309805D01*
X381791Y308917D01*
X382099Y308021D01*
X382386Y307117D01*
X382649Y306207D01*
X382891Y305291D01*
X383110Y304369D01*
X383306Y303442D01*
X383480Y302510D01*
X383630Y301575D01*
X383758Y300636D01*
X383862Y299694D01*
X383943Y298750D01*
X384001Y297804D01*
X384036Y296857D01*
X384048Y295910D01*
X384036Y294963D01*
X384001Y294016D01*
X383943Y293070D01*
X383862Y292126D01*
X383758Y291184D01*
X383630Y290245D01*
X383480Y289310D01*
X383306Y288378D01*
X383110Y287451D01*
X382891Y286529D01*
X382649Y285613D01*
X382386Y284703D01*
X382099Y283799D01*
X381791Y282903D01*
X381461Y282015D01*
X381109Y281135D01*
X380736Y280264D01*
X380341Y279403D01*
X379926Y278551D01*
X379489Y277710D01*
X379032Y276880D01*
X378555Y276062D01*
X378058Y275255D01*
X377541Y274461D01*
X377005Y273679D01*
X376450Y272911D01*
X375876Y272157D01*
X375284Y271417D01*
X374674Y270692D01*
X374047Y269982D01*
X373402Y269288D01*
X372740Y268610D01*
X372062Y267948D01*
X371368Y267303D01*
X370658Y266676D01*
X369933Y266066D01*
X369193Y265474D01*
X368439Y264900D01*
X367671Y264345D01*
X366889Y263809D01*
X366095Y263292D01*
X365288Y262795D01*
X364470Y262318D01*
X363640Y261861D01*
X362799Y261424D01*
X361947Y261009D01*
X361086Y260614D01*
X360215Y260241D01*
X359335Y259889D01*
X358447Y259559D01*
X357551Y259251D01*
X356647Y258964D01*
X355737Y258701D01*
X354821Y258459D01*
X353899Y258240D01*
X352972Y258044D01*
X352040Y257870D01*
X351105Y257720D01*
X350166Y257592D01*
X349224Y257488D01*
X348280Y257407D01*
X347334Y257349D01*
X346387Y257314D01*
X345440Y257302D01*
X344493Y257314D01*
X343546Y257349D01*
X342600Y257407D01*
X341656Y257488D01*
X340714Y257592D01*
X339775Y257720D01*
X338840Y257870D01*
X337908Y258044D01*
X336981Y258240D01*
X336059Y258459D01*
X335143Y258701D01*
X334233Y258964D01*
X333329Y259251D01*
X332433Y259559D01*
X331545Y259889D01*
X330665Y260241D01*
X329794Y260614D01*
X328933Y261009D01*
X328081Y261424D01*
X327240Y261861D01*
X326410Y262318D01*
X325592Y262795D01*
X324785Y263292D01*
X323991Y263809D01*
X323209Y264345D01*
X322441Y264900D01*
X321687Y265474D01*
X320947Y266066D01*
X320222Y266676D01*
X319512Y267303D01*
X318818Y267948D01*
X318140Y268610D01*
X317478Y269288D01*
X316833Y269982D01*
X316206Y270692D01*
X315596Y271417D01*
X315004Y272157D01*
X314430Y272911D01*
X313875Y273679D01*
X313339Y274461D01*
X312822Y275255D01*
X312325Y276062D01*
X311848Y276880D01*
X311391Y277710D01*
X310954Y278551D01*
X310539Y279403D01*
X310144Y280264D01*
X309771Y281135D01*
X309419Y282015D01*
X309089Y282903D01*
X308781Y283799D01*
X308494Y284703D01*
X308231Y285613D01*
X307989Y286529D01*
X307770Y287451D01*
X307574Y288378D01*
X307400Y289310D01*
X307250Y290245D01*
X307122Y291184D01*
X307018Y292126D01*
X306937Y293070D01*
X306879Y294016D01*
X306844Y294963D01*
X306832Y295910D01*
D123*
X338074Y347980D02*
X338074Y356235D01*
X338074Y347980D02*
X338076Y347869D01*
X338082Y347759D01*
X338091Y347648D01*
X338105Y347538D01*
X338122Y347429D01*
X338143Y347320D01*
X338168Y347212D01*
X338197Y347105D01*
X338229Y346999D01*
X338265Y346894D01*
X338305Y346791D01*
X338348Y346689D01*
X338395Y346588D01*
X338446Y346489D01*
X338499Y346393D01*
X338556Y346298D01*
X338617Y346205D01*
X338680Y346114D01*
X338747Y346025D01*
X338817Y345939D01*
X338890Y345856D01*
X338965Y345774D01*
X339043Y345696D01*
X339125Y345621D01*
X339208Y345548D01*
X339294Y345478D01*
X339383Y345411D01*
X339474Y345348D01*
X339567Y345287D01*
X339662Y345230D01*
X339758Y345177D01*
X339857Y345126D01*
X339958Y345079D01*
X340060Y345036D01*
X340163Y344996D01*
X340268Y344960D01*
X340374Y344928D01*
X340481Y344899D01*
X340589Y344874D01*
X340698Y344853D01*
X340807Y344836D01*
X340917Y344822D01*
X341028Y344813D01*
X341138Y344807D01*
X341249Y344805D01*
X341360Y344807D01*
X341470Y344813D01*
X341581Y344822D01*
X341691Y344836D01*
X341800Y344853D01*
X341909Y344874D01*
X342017Y344899D01*
X342124Y344928D01*
X342230Y344960D01*
X342335Y344996D01*
X342438Y345036D01*
X342540Y345079D01*
X342641Y345126D01*
X342740Y345177D01*
X342836Y345230D01*
X342931Y345287D01*
X343024Y345348D01*
X343115Y345411D01*
X343204Y345478D01*
X343290Y345548D01*
X343373Y345621D01*
X343455Y345696D01*
X343533Y345774D01*
X343608Y345856D01*
X343681Y345939D01*
X343751Y346025D01*
X343818Y346114D01*
X343881Y346205D01*
X343942Y346298D01*
X343999Y346392D01*
X344052Y346489D01*
X344103Y346588D01*
X344150Y346689D01*
X344193Y346791D01*
X344233Y346894D01*
X344269Y346999D01*
X344301Y347105D01*
X344330Y347212D01*
X344355Y347320D01*
X344376Y347429D01*
X344393Y347538D01*
X344407Y347648D01*
X344416Y347759D01*
X344422Y347869D01*
X344424Y347980D01*
X344424Y356235D01*
X353378Y356236D02*
X353482Y356234D01*
X353587Y356228D01*
X353691Y356219D01*
X353794Y356206D01*
X353897Y356188D01*
X353999Y356168D01*
X354101Y356143D01*
X354201Y356115D01*
X354301Y356083D01*
X354399Y356047D01*
X354496Y356008D01*
X354591Y355966D01*
X354685Y355920D01*
X354777Y355870D01*
X354867Y355818D01*
X354955Y355762D01*
X355041Y355702D01*
X355125Y355640D01*
X355206Y355575D01*
X355285Y355507D01*
X355362Y355435D01*
X355435Y355362D01*
X355507Y355285D01*
X355575Y355206D01*
X355640Y355125D01*
X355702Y355041D01*
X355762Y354955D01*
X355818Y354867D01*
X355870Y354777D01*
X355920Y354685D01*
X355966Y354591D01*
X356008Y354496D01*
X356047Y354399D01*
X356083Y354301D01*
X356115Y354201D01*
X356143Y354101D01*
X356168Y353999D01*
X356188Y353897D01*
X356206Y353794D01*
X356219Y353691D01*
X356228Y353587D01*
X356234Y353482D01*
X356236Y353378D01*
X353378Y356235D02*
X353260Y356233D01*
X353141Y356227D01*
X353023Y356218D01*
X352906Y356205D01*
X352789Y356187D01*
X352672Y356167D01*
X352556Y356142D01*
X352441Y356114D01*
X352328Y356081D01*
X352215Y356046D01*
X352103Y356006D01*
X351993Y355964D01*
X351884Y355917D01*
X351776Y355867D01*
X351671Y355814D01*
X351567Y355757D01*
X351465Y355697D01*
X351365Y355634D01*
X351267Y355567D01*
X351171Y355498D01*
X351078Y355425D01*
X350987Y355349D01*
X350898Y355271D01*
X350812Y355189D01*
X350729Y355105D01*
X350648Y355019D01*
X350571Y354929D01*
X350496Y354838D01*
X350424Y354744D01*
X350355Y354647D01*
X350290Y354549D01*
X350227Y354448D01*
X350168Y354345D01*
X350112Y354241D01*
X350060Y354135D01*
X350011Y354027D01*
X349966Y353918D01*
X349924Y353807D01*
X349886Y353695D01*
X355283Y351156D02*
X355359Y351231D01*
X355434Y351310D01*
X355505Y351391D01*
X355574Y351475D01*
X355639Y351561D01*
X355701Y351649D01*
X355761Y351739D01*
X355817Y351831D01*
X355870Y351926D01*
X355919Y352022D01*
X355965Y352120D01*
X356008Y352219D01*
X356047Y352320D01*
X356082Y352422D01*
X356114Y352525D01*
X356142Y352629D01*
X356167Y352734D01*
X356188Y352841D01*
X356205Y352947D01*
X356218Y353054D01*
X356227Y353162D01*
X356233Y353270D01*
X356235Y353378D01*
X355283Y351155D02*
X349885Y344805D01*
X356235Y344805D01*
D11*
X278143Y287185D02*
X258013Y287185D01*
D122*
X270129Y328859D02*
X270129Y330948D01*
X270129Y328859D02*
X270127Y328770D01*
X270121Y328682D01*
X270112Y328594D01*
X270099Y328506D01*
X270082Y328419D01*
X270062Y328333D01*
X270037Y328248D01*
X270010Y328163D01*
X269978Y328080D01*
X269944Y327999D01*
X269905Y327919D01*
X269864Y327841D01*
X269819Y327764D01*
X269771Y327690D01*
X269720Y327617D01*
X269666Y327547D01*
X269608Y327480D01*
X269548Y327414D01*
X269486Y327352D01*
X269420Y327292D01*
X269353Y327234D01*
X269283Y327180D01*
X269210Y327129D01*
X269136Y327081D01*
X269059Y327036D01*
X268981Y326995D01*
X268901Y326956D01*
X268820Y326922D01*
X268737Y326890D01*
X268652Y326863D01*
X268567Y326838D01*
X268481Y326818D01*
X268394Y326801D01*
X268306Y326788D01*
X268218Y326779D01*
X268130Y326773D01*
X268041Y326771D01*
X262819Y326771D01*
X262728Y326773D01*
X262637Y326779D01*
X262546Y326789D01*
X262456Y326803D01*
X262367Y326821D01*
X262278Y326842D01*
X262191Y326868D01*
X262105Y326897D01*
X262020Y326930D01*
X261936Y326967D01*
X261854Y327007D01*
X261775Y327051D01*
X261697Y327098D01*
X261621Y327149D01*
X261547Y327203D01*
X261476Y327260D01*
X261408Y327320D01*
X261342Y327383D01*
X261279Y327449D01*
X261219Y327517D01*
X261162Y327588D01*
X261108Y327662D01*
X261057Y327738D01*
X261010Y327815D01*
X260966Y327895D01*
X260926Y327977D01*
X260889Y328061D01*
X260856Y328145D01*
X260827Y328232D01*
X260801Y328319D01*
X260780Y328408D01*
X260762Y328497D01*
X260748Y328587D01*
X260738Y328678D01*
X260732Y328769D01*
X260730Y328860D01*
X260731Y328859D02*
X260731Y330948D01*
X262819Y334417D02*
X260731Y337027D01*
X270129Y337027D01*
X270129Y334417D02*
X270129Y339638D01*
X262819Y343561D02*
X260731Y346171D01*
X270129Y346171D01*
X270129Y343561D02*
X270129Y348782D01*
X281559Y301738D02*
X281559Y299649D01*
X281557Y299560D01*
X281551Y299472D01*
X281542Y299384D01*
X281529Y299296D01*
X281512Y299209D01*
X281492Y299123D01*
X281467Y299038D01*
X281440Y298953D01*
X281408Y298870D01*
X281374Y298789D01*
X281335Y298709D01*
X281294Y298631D01*
X281249Y298554D01*
X281201Y298480D01*
X281150Y298407D01*
X281096Y298337D01*
X281038Y298270D01*
X280978Y298204D01*
X280916Y298142D01*
X280850Y298082D01*
X280783Y298024D01*
X280713Y297970D01*
X280640Y297919D01*
X280566Y297871D01*
X280489Y297826D01*
X280411Y297785D01*
X280331Y297746D01*
X280250Y297712D01*
X280167Y297680D01*
X280082Y297653D01*
X279997Y297628D01*
X279911Y297608D01*
X279824Y297591D01*
X279736Y297578D01*
X279648Y297569D01*
X279560Y297563D01*
X279471Y297561D01*
X274249Y297561D01*
X274158Y297563D01*
X274067Y297569D01*
X273976Y297579D01*
X273886Y297593D01*
X273797Y297611D01*
X273708Y297632D01*
X273621Y297658D01*
X273535Y297687D01*
X273450Y297720D01*
X273366Y297757D01*
X273284Y297797D01*
X273205Y297841D01*
X273127Y297888D01*
X273051Y297939D01*
X272977Y297993D01*
X272906Y298050D01*
X272838Y298110D01*
X272772Y298173D01*
X272709Y298239D01*
X272649Y298307D01*
X272592Y298378D01*
X272538Y298452D01*
X272487Y298528D01*
X272440Y298605D01*
X272396Y298685D01*
X272356Y298767D01*
X272319Y298851D01*
X272286Y298935D01*
X272257Y299022D01*
X272231Y299109D01*
X272210Y299198D01*
X272192Y299287D01*
X272178Y299377D01*
X272168Y299468D01*
X272162Y299559D01*
X272160Y299650D01*
X272161Y299649D02*
X272161Y301738D01*
X274249Y305207D02*
X272161Y307817D01*
X281559Y307817D01*
X281559Y305207D02*
X281559Y310428D01*
X276860Y314350D02*
X276675Y314352D01*
X276490Y314359D01*
X276306Y314370D01*
X276122Y314385D01*
X275938Y314405D01*
X275754Y314429D01*
X275572Y314458D01*
X275390Y314491D01*
X275209Y314528D01*
X275029Y314570D01*
X274849Y314616D01*
X274671Y314666D01*
X274495Y314720D01*
X274319Y314779D01*
X274145Y314841D01*
X273973Y314908D01*
X273802Y314979D01*
X273633Y315054D01*
X273466Y315133D01*
X273386Y315163D01*
X273307Y315196D01*
X273230Y315233D01*
X273154Y315273D01*
X273080Y315316D01*
X273008Y315362D01*
X272939Y315412D01*
X272871Y315464D01*
X272806Y315520D01*
X272743Y315578D01*
X272684Y315640D01*
X272626Y315703D01*
X272572Y315770D01*
X272521Y315838D01*
X272473Y315909D01*
X272428Y315982D01*
X272386Y316056D01*
X272348Y316133D01*
X272313Y316211D01*
X272281Y316290D01*
X272253Y316371D01*
X272229Y316453D01*
X272208Y316537D01*
X272191Y316620D01*
X272178Y316705D01*
X272169Y316790D01*
X272163Y316875D01*
X272161Y316961D01*
X272163Y317047D01*
X272169Y317132D01*
X272178Y317217D01*
X272191Y317302D01*
X272208Y317385D01*
X272229Y317469D01*
X272253Y317551D01*
X272281Y317632D01*
X272313Y317711D01*
X272348Y317789D01*
X272386Y317866D01*
X272428Y317940D01*
X272473Y318013D01*
X272521Y318084D01*
X272572Y318152D01*
X272626Y318219D01*
X272684Y318282D01*
X272743Y318344D01*
X272806Y318402D01*
X272871Y318458D01*
X272939Y318510D01*
X273008Y318560D01*
X273080Y318606D01*
X273154Y318649D01*
X273230Y318689D01*
X273307Y318726D01*
X273386Y318759D01*
X273466Y318789D01*
X273633Y318868D01*
X273802Y318943D01*
X273973Y319014D01*
X274145Y319081D01*
X274319Y319143D01*
X274495Y319202D01*
X274671Y319256D01*
X274849Y319306D01*
X275029Y319352D01*
X275209Y319394D01*
X275390Y319431D01*
X275572Y319464D01*
X275754Y319493D01*
X275938Y319517D01*
X276122Y319537D01*
X276306Y319552D01*
X276490Y319563D01*
X276675Y319570D01*
X276860Y319572D01*
X276860Y314351D02*
X277045Y314353D01*
X277230Y314360D01*
X277414Y314371D01*
X277598Y314386D01*
X277782Y314406D01*
X277966Y314430D01*
X278148Y314459D01*
X278330Y314492D01*
X278511Y314529D01*
X278691Y314571D01*
X278871Y314617D01*
X279049Y314667D01*
X279225Y314721D01*
X279401Y314780D01*
X279575Y314842D01*
X279747Y314909D01*
X279918Y314980D01*
X280087Y315055D01*
X280254Y315134D01*
X280254Y315133D02*
X280334Y315163D01*
X280413Y315196D01*
X280490Y315233D01*
X280566Y315273D01*
X280640Y315316D01*
X280712Y315362D01*
X280781Y315412D01*
X280849Y315465D01*
X280914Y315520D01*
X280977Y315579D01*
X281036Y315640D01*
X281094Y315703D01*
X281148Y315770D01*
X281199Y315838D01*
X281247Y315909D01*
X281292Y315982D01*
X281334Y316056D01*
X281372Y316133D01*
X281407Y316211D01*
X281439Y316290D01*
X281467Y316371D01*
X281491Y316453D01*
X281512Y316537D01*
X281529Y316620D01*
X281542Y316705D01*
X281551Y316790D01*
X281557Y316875D01*
X281559Y316961D01*
X280254Y318789D02*
X280087Y318868D01*
X279918Y318943D01*
X279747Y319014D01*
X279575Y319081D01*
X279401Y319143D01*
X279225Y319202D01*
X279049Y319256D01*
X278871Y319306D01*
X278691Y319352D01*
X278511Y319394D01*
X278330Y319431D01*
X278148Y319464D01*
X277966Y319493D01*
X277782Y319517D01*
X277598Y319537D01*
X277414Y319552D01*
X277230Y319563D01*
X277045Y319570D01*
X276860Y319572D01*
X280254Y318789D02*
X280334Y318759D01*
X280413Y318726D01*
X280490Y318689D01*
X280566Y318649D01*
X280640Y318606D01*
X280712Y318560D01*
X280781Y318510D01*
X280849Y318458D01*
X280914Y318402D01*
X280977Y318344D01*
X281036Y318282D01*
X281094Y318219D01*
X281148Y318152D01*
X281199Y318084D01*
X281247Y318013D01*
X281292Y317940D01*
X281334Y317866D01*
X281372Y317789D01*
X281407Y317711D01*
X281439Y317632D01*
X281467Y317551D01*
X281491Y317469D01*
X281512Y317385D01*
X281529Y317302D01*
X281542Y317217D01*
X281551Y317132D01*
X281557Y317047D01*
X281559Y316961D01*
X279471Y314873D02*
X274249Y319050D01*
M02*
