G04 EAGLE Gerber RS-274X export*
G75*
%MOMM*%
%FSLAX34Y34*%
%LPD*%
%INSilkscreen Bottom*%
%IPPOS*%
%AMOC8*
5,1,8,0,0,1.08239X$1,22.5*%
G01*
%ADD10C,0.152400*%
%ADD11C,0.101600*%
%ADD12C,0.076200*%
%ADD13C,0.127000*%
%ADD14C,0.254000*%


D10*
X397566Y476130D02*
X392627Y476130D01*
X392487Y476128D01*
X392348Y476122D01*
X392208Y476112D01*
X392069Y476098D01*
X391930Y476081D01*
X391792Y476059D01*
X391655Y476033D01*
X391518Y476004D01*
X391382Y475971D01*
X391248Y475934D01*
X391114Y475893D01*
X390982Y475848D01*
X390850Y475799D01*
X390721Y475747D01*
X390593Y475692D01*
X390466Y475632D01*
X390341Y475569D01*
X390218Y475503D01*
X390097Y475433D01*
X389978Y475360D01*
X389861Y475283D01*
X389747Y475203D01*
X389634Y475120D01*
X389524Y475034D01*
X389417Y474944D01*
X389312Y474852D01*
X389210Y474757D01*
X389110Y474659D01*
X389013Y474558D01*
X388919Y474454D01*
X388829Y474348D01*
X388741Y474239D01*
X388656Y474128D01*
X388575Y474014D01*
X388496Y473899D01*
X388421Y473781D01*
X388350Y473661D01*
X388282Y473538D01*
X388217Y473415D01*
X388156Y473289D01*
X388098Y473161D01*
X388044Y473033D01*
X387994Y472902D01*
X387947Y472770D01*
X387904Y472637D01*
X387865Y472503D01*
X387830Y472368D01*
X387799Y472232D01*
X387771Y472094D01*
X387748Y471957D01*
X387728Y471818D01*
X387712Y471679D01*
X387700Y471540D01*
X387692Y471401D01*
X387688Y471261D01*
X387688Y471121D01*
X387692Y470981D01*
X387700Y470842D01*
X387712Y470703D01*
X387728Y470564D01*
X387748Y470425D01*
X387771Y470288D01*
X387799Y470150D01*
X387830Y470014D01*
X387865Y469879D01*
X387904Y469745D01*
X387947Y469612D01*
X387994Y469480D01*
X388044Y469349D01*
X388098Y469221D01*
X388156Y469093D01*
X388217Y468967D01*
X388282Y468844D01*
X388350Y468722D01*
X388421Y468601D01*
X388496Y468483D01*
X388575Y468368D01*
X388656Y468254D01*
X388741Y468143D01*
X388829Y468034D01*
X388919Y467928D01*
X389013Y467824D01*
X389110Y467723D01*
X389210Y467625D01*
X389312Y467530D01*
X389417Y467438D01*
X389524Y467348D01*
X389634Y467262D01*
X389747Y467179D01*
X389861Y467099D01*
X389978Y467022D01*
X390097Y466949D01*
X390218Y466879D01*
X390341Y466813D01*
X390466Y466750D01*
X390593Y466690D01*
X390721Y466635D01*
X390850Y466583D01*
X390982Y466534D01*
X391114Y466489D01*
X391248Y466448D01*
X391382Y466411D01*
X391518Y466378D01*
X391655Y466349D01*
X391792Y466323D01*
X391930Y466301D01*
X392069Y466284D01*
X392208Y466270D01*
X392348Y466260D01*
X392487Y466254D01*
X392627Y466252D01*
X392627Y466253D02*
X397566Y466253D01*
X397566Y484033D01*
X392627Y484033D01*
X392627Y484032D02*
X392503Y484030D01*
X392379Y484024D01*
X392255Y484014D01*
X392132Y484001D01*
X392009Y483983D01*
X391887Y483962D01*
X391765Y483937D01*
X391644Y483908D01*
X391525Y483875D01*
X391406Y483839D01*
X391289Y483798D01*
X391173Y483755D01*
X391058Y483707D01*
X390945Y483656D01*
X390833Y483601D01*
X390724Y483543D01*
X390616Y483482D01*
X390510Y483417D01*
X390406Y483349D01*
X390305Y483277D01*
X390205Y483203D01*
X390109Y483125D01*
X390014Y483045D01*
X389922Y482961D01*
X389833Y482875D01*
X389747Y482786D01*
X389663Y482694D01*
X389583Y482599D01*
X389505Y482503D01*
X389431Y482403D01*
X389359Y482302D01*
X389291Y482198D01*
X389226Y482092D01*
X389165Y481984D01*
X389107Y481875D01*
X389052Y481763D01*
X389001Y481650D01*
X388953Y481535D01*
X388910Y481419D01*
X388869Y481302D01*
X388833Y481183D01*
X388800Y481064D01*
X388771Y480943D01*
X388746Y480821D01*
X388725Y480699D01*
X388707Y480576D01*
X388694Y480453D01*
X388684Y480329D01*
X388678Y480205D01*
X388676Y480081D01*
X388678Y479957D01*
X388684Y479833D01*
X388694Y479709D01*
X388707Y479586D01*
X388725Y479463D01*
X388746Y479341D01*
X388771Y479219D01*
X388800Y479098D01*
X388833Y478979D01*
X388869Y478860D01*
X388910Y478743D01*
X388953Y478627D01*
X389001Y478512D01*
X389052Y478399D01*
X389107Y478287D01*
X389165Y478178D01*
X389226Y478070D01*
X389291Y477964D01*
X389359Y477860D01*
X389431Y477759D01*
X389505Y477659D01*
X389583Y477563D01*
X389663Y477468D01*
X389747Y477376D01*
X389833Y477287D01*
X389922Y477201D01*
X390014Y477117D01*
X390109Y477037D01*
X390205Y476959D01*
X390305Y476885D01*
X390406Y476813D01*
X390510Y476745D01*
X390616Y476680D01*
X390724Y476619D01*
X390833Y476561D01*
X390945Y476506D01*
X391058Y476455D01*
X391173Y476407D01*
X391289Y476364D01*
X391406Y476323D01*
X391525Y476287D01*
X391644Y476254D01*
X391765Y476225D01*
X391887Y476200D01*
X392009Y476179D01*
X392132Y476161D01*
X392255Y476148D01*
X392379Y476138D01*
X392503Y476132D01*
X392627Y476130D01*
X477842Y373400D02*
X477842Y355620D01*
X477842Y373400D02*
X472903Y373400D01*
X472763Y373398D01*
X472624Y373392D01*
X472484Y373382D01*
X472345Y373368D01*
X472206Y373351D01*
X472068Y373329D01*
X471931Y373303D01*
X471794Y373274D01*
X471658Y373241D01*
X471524Y373204D01*
X471390Y373163D01*
X471258Y373118D01*
X471126Y373069D01*
X470997Y373017D01*
X470869Y372962D01*
X470742Y372902D01*
X470617Y372839D01*
X470494Y372773D01*
X470373Y372703D01*
X470254Y372630D01*
X470137Y372553D01*
X470023Y372473D01*
X469910Y372390D01*
X469800Y372304D01*
X469693Y372214D01*
X469588Y372122D01*
X469486Y372027D01*
X469386Y371929D01*
X469289Y371828D01*
X469195Y371724D01*
X469105Y371618D01*
X469017Y371509D01*
X468932Y371398D01*
X468851Y371284D01*
X468772Y371169D01*
X468697Y371051D01*
X468626Y370931D01*
X468558Y370808D01*
X468493Y370685D01*
X468432Y370559D01*
X468374Y370431D01*
X468320Y370303D01*
X468270Y370172D01*
X468223Y370040D01*
X468180Y369907D01*
X468141Y369773D01*
X468106Y369638D01*
X468075Y369502D01*
X468047Y369364D01*
X468024Y369227D01*
X468004Y369088D01*
X467988Y368949D01*
X467976Y368810D01*
X467968Y368671D01*
X467964Y368531D01*
X467964Y368391D01*
X467968Y368251D01*
X467976Y368112D01*
X467988Y367973D01*
X468004Y367834D01*
X468024Y367695D01*
X468047Y367558D01*
X468075Y367420D01*
X468106Y367284D01*
X468141Y367149D01*
X468180Y367015D01*
X468223Y366882D01*
X468270Y366750D01*
X468320Y366619D01*
X468374Y366491D01*
X468432Y366363D01*
X468493Y366237D01*
X468558Y366114D01*
X468626Y365992D01*
X468697Y365871D01*
X468772Y365753D01*
X468851Y365638D01*
X468932Y365524D01*
X469017Y365413D01*
X469105Y365304D01*
X469195Y365198D01*
X469289Y365094D01*
X469386Y364993D01*
X469486Y364895D01*
X469588Y364800D01*
X469693Y364708D01*
X469800Y364618D01*
X469910Y364532D01*
X470023Y364449D01*
X470137Y364369D01*
X470254Y364292D01*
X470373Y364219D01*
X470494Y364149D01*
X470617Y364083D01*
X470742Y364020D01*
X470869Y363960D01*
X470997Y363905D01*
X471126Y363853D01*
X471258Y363804D01*
X471390Y363759D01*
X471524Y363718D01*
X471658Y363681D01*
X471794Y363648D01*
X471931Y363619D01*
X472068Y363593D01*
X472206Y363571D01*
X472345Y363554D01*
X472484Y363540D01*
X472624Y363530D01*
X472763Y363524D01*
X472903Y363522D01*
X472903Y363523D02*
X477842Y363523D01*
X471916Y363523D02*
X467965Y355620D01*
X252737Y348755D02*
X252737Y366535D01*
X247798Y366535D01*
X247659Y366533D01*
X247521Y366527D01*
X247383Y366518D01*
X247245Y366504D01*
X247108Y366487D01*
X246971Y366465D01*
X246834Y366440D01*
X246699Y366411D01*
X246564Y366378D01*
X246431Y366342D01*
X246298Y366302D01*
X246167Y366258D01*
X246037Y366210D01*
X245908Y366159D01*
X245781Y366104D01*
X245655Y366046D01*
X245531Y365984D01*
X245409Y365919D01*
X245289Y365850D01*
X245170Y365778D01*
X245054Y365703D01*
X244940Y365624D01*
X244828Y365542D01*
X244719Y365457D01*
X244611Y365370D01*
X244507Y365279D01*
X244405Y365185D01*
X244306Y365088D01*
X244209Y364989D01*
X244115Y364887D01*
X244024Y364783D01*
X243937Y364675D01*
X243852Y364566D01*
X243770Y364454D01*
X243691Y364340D01*
X243616Y364224D01*
X243544Y364105D01*
X243475Y363985D01*
X243410Y363863D01*
X243348Y363739D01*
X243290Y363613D01*
X243235Y363486D01*
X243184Y363357D01*
X243136Y363227D01*
X243092Y363096D01*
X243052Y362963D01*
X243016Y362830D01*
X242983Y362695D01*
X242954Y362560D01*
X242929Y362423D01*
X242907Y362286D01*
X242890Y362149D01*
X242876Y362011D01*
X242867Y361873D01*
X242861Y361735D01*
X242859Y361596D01*
X242860Y361596D02*
X242860Y353694D01*
X242859Y353694D02*
X242861Y353555D01*
X242867Y353417D01*
X242876Y353279D01*
X242890Y353141D01*
X242907Y353004D01*
X242929Y352867D01*
X242954Y352730D01*
X242983Y352595D01*
X243016Y352460D01*
X243052Y352327D01*
X243092Y352194D01*
X243136Y352063D01*
X243184Y351933D01*
X243235Y351804D01*
X243290Y351677D01*
X243348Y351551D01*
X243410Y351427D01*
X243475Y351305D01*
X243544Y351185D01*
X243616Y351066D01*
X243691Y350950D01*
X243770Y350836D01*
X243852Y350724D01*
X243937Y350615D01*
X244024Y350507D01*
X244115Y350403D01*
X244209Y350301D01*
X244306Y350202D01*
X244405Y350105D01*
X244507Y350011D01*
X244611Y349920D01*
X244719Y349833D01*
X244828Y349748D01*
X244940Y349666D01*
X245054Y349587D01*
X245170Y349512D01*
X245289Y349440D01*
X245409Y349371D01*
X245531Y349306D01*
X245655Y349244D01*
X245781Y349186D01*
X245908Y349131D01*
X246037Y349080D01*
X246167Y349032D01*
X246298Y348988D01*
X246431Y348948D01*
X246564Y348912D01*
X246699Y348879D01*
X246834Y348850D01*
X246971Y348825D01*
X247108Y348803D01*
X247245Y348786D01*
X247383Y348772D01*
X247521Y348763D01*
X247659Y348757D01*
X247798Y348755D01*
X252737Y348755D01*
X271490Y348953D02*
X275441Y348953D01*
X275565Y348955D01*
X275689Y348961D01*
X275813Y348971D01*
X275936Y348984D01*
X276059Y349002D01*
X276181Y349023D01*
X276303Y349048D01*
X276424Y349077D01*
X276543Y349110D01*
X276662Y349146D01*
X276779Y349187D01*
X276895Y349230D01*
X277010Y349278D01*
X277123Y349329D01*
X277235Y349384D01*
X277344Y349442D01*
X277452Y349503D01*
X277558Y349568D01*
X277662Y349636D01*
X277763Y349708D01*
X277863Y349782D01*
X277959Y349860D01*
X278054Y349940D01*
X278146Y350024D01*
X278235Y350110D01*
X278321Y350199D01*
X278405Y350291D01*
X278485Y350386D01*
X278563Y350482D01*
X278637Y350582D01*
X278709Y350683D01*
X278777Y350787D01*
X278842Y350893D01*
X278903Y351001D01*
X278961Y351110D01*
X279016Y351222D01*
X279067Y351335D01*
X279115Y351450D01*
X279158Y351566D01*
X279199Y351683D01*
X279235Y351802D01*
X279268Y351921D01*
X279297Y352042D01*
X279322Y352164D01*
X279343Y352286D01*
X279361Y352409D01*
X279374Y352532D01*
X279384Y352656D01*
X279390Y352780D01*
X279392Y352904D01*
X279392Y362782D01*
X279390Y362906D01*
X279384Y363030D01*
X279374Y363154D01*
X279361Y363277D01*
X279343Y363400D01*
X279322Y363522D01*
X279297Y363644D01*
X279268Y363765D01*
X279235Y363884D01*
X279199Y364003D01*
X279158Y364120D01*
X279115Y364236D01*
X279067Y364351D01*
X279016Y364464D01*
X278961Y364576D01*
X278903Y364685D01*
X278842Y364793D01*
X278777Y364899D01*
X278709Y365003D01*
X278637Y365104D01*
X278563Y365204D01*
X278485Y365300D01*
X278405Y365395D01*
X278321Y365487D01*
X278235Y365576D01*
X278146Y365662D01*
X278054Y365746D01*
X277959Y365826D01*
X277863Y365904D01*
X277763Y365978D01*
X277662Y366050D01*
X277558Y366118D01*
X277452Y366183D01*
X277344Y366244D01*
X277235Y366302D01*
X277123Y366357D01*
X277010Y366408D01*
X276896Y366456D01*
X276779Y366499D01*
X276662Y366540D01*
X276543Y366576D01*
X276424Y366609D01*
X276303Y366638D01*
X276181Y366663D01*
X276059Y366684D01*
X275936Y366702D01*
X275813Y366715D01*
X275689Y366725D01*
X275565Y366731D01*
X275441Y366733D01*
X271490Y366733D01*
D11*
X424812Y460559D02*
X427471Y458697D01*
X424812Y460558D02*
X424721Y460625D01*
X424631Y460694D01*
X424544Y460767D01*
X424460Y460843D01*
X424379Y460922D01*
X424300Y461003D01*
X424224Y461087D01*
X424151Y461174D01*
X424082Y461264D01*
X424015Y461355D01*
X423952Y461449D01*
X423892Y461545D01*
X423835Y461643D01*
X423782Y461743D01*
X423732Y461845D01*
X423686Y461949D01*
X423644Y462054D01*
X423605Y462160D01*
X423570Y462268D01*
X423539Y462377D01*
X423511Y462487D01*
X423488Y462598D01*
X423468Y462709D01*
X423452Y462821D01*
X423440Y462934D01*
X423432Y463047D01*
X423428Y463160D01*
X423428Y463274D01*
X423432Y463387D01*
X423440Y463500D01*
X423452Y463613D01*
X423468Y463725D01*
X423488Y463836D01*
X423511Y463947D01*
X423539Y464057D01*
X423570Y464166D01*
X423605Y464274D01*
X423644Y464380D01*
X423686Y464485D01*
X423732Y464589D01*
X423782Y464691D01*
X423835Y464791D01*
X423892Y464889D01*
X423952Y464985D01*
X424015Y465079D01*
X424082Y465170D01*
X424151Y465260D01*
X424224Y465347D01*
X424300Y465431D01*
X424379Y465512D01*
X424460Y465591D01*
X424544Y465667D01*
X424631Y465740D01*
X424720Y465809D01*
X424812Y465876D01*
X424906Y465939D01*
X425002Y465999D01*
X425100Y466056D01*
X425200Y466109D01*
X425302Y466159D01*
X425406Y466205D01*
X425511Y466247D01*
X425617Y466286D01*
X425725Y466321D01*
X425834Y466352D01*
X425944Y466380D01*
X426055Y466403D01*
X426166Y466423D01*
X426278Y466439D01*
X426391Y466451D01*
X426504Y466459D01*
X426617Y466463D01*
X426731Y466463D01*
X426844Y466459D01*
X426957Y466451D01*
X427070Y466439D01*
X427182Y466423D01*
X427293Y466403D01*
X427404Y466380D01*
X427514Y466352D01*
X427623Y466321D01*
X427731Y466286D01*
X427837Y466247D01*
X427942Y466205D01*
X428046Y466159D01*
X428148Y466109D01*
X428248Y466056D01*
X428346Y465999D01*
X428442Y465939D01*
X428536Y465876D01*
X430982Y470502D02*
X434172Y468268D01*
X430982Y470502D02*
X430898Y470558D01*
X430813Y470611D01*
X430725Y470660D01*
X430636Y470706D01*
X430544Y470749D01*
X430451Y470788D01*
X430357Y470823D01*
X430262Y470855D01*
X430165Y470883D01*
X430067Y470907D01*
X429969Y470927D01*
X429869Y470944D01*
X429769Y470956D01*
X429669Y470965D01*
X429569Y470970D01*
X429468Y470971D01*
X429367Y470968D01*
X429267Y470961D01*
X429167Y470950D01*
X429067Y470936D01*
X428968Y470917D01*
X428870Y470895D01*
X428773Y470869D01*
X428676Y470839D01*
X428582Y470806D01*
X428488Y470769D01*
X428396Y470728D01*
X428305Y470683D01*
X428217Y470636D01*
X428130Y470584D01*
X428046Y470530D01*
X427963Y470472D01*
X427883Y470411D01*
X427805Y470347D01*
X427730Y470280D01*
X427657Y470211D01*
X427588Y470138D01*
X427521Y470063D01*
X427457Y469985D01*
X427396Y469905D01*
X427338Y469822D01*
X427284Y469738D01*
X427232Y469651D01*
X427185Y469563D01*
X427140Y469472D01*
X427099Y469380D01*
X427062Y469286D01*
X427029Y469192D01*
X426999Y469095D01*
X426973Y468998D01*
X426951Y468900D01*
X426932Y468801D01*
X426918Y468701D01*
X426907Y468601D01*
X426900Y468501D01*
X426897Y468400D01*
X426898Y468299D01*
X426903Y468199D01*
X426912Y468099D01*
X426924Y467999D01*
X426941Y467899D01*
X426961Y467801D01*
X426985Y467703D01*
X427013Y467606D01*
X427045Y467511D01*
X427080Y467417D01*
X427119Y467324D01*
X427162Y467232D01*
X427208Y467143D01*
X427257Y467055D01*
X427310Y466970D01*
X427366Y466886D01*
X427426Y466805D01*
X427488Y466726D01*
X427554Y466649D01*
X427622Y466575D01*
X427693Y466504D01*
X427767Y466436D01*
X427844Y466370D01*
X427923Y466308D01*
X428004Y466248D01*
X430130Y464759D01*
X425341Y474452D02*
X415449Y467114D01*
X418961Y478919D01*
X408745Y471809D02*
X406086Y473670D01*
X405995Y473737D01*
X405905Y473806D01*
X405818Y473879D01*
X405734Y473955D01*
X405653Y474034D01*
X405574Y474115D01*
X405498Y474199D01*
X405425Y474286D01*
X405356Y474376D01*
X405289Y474467D01*
X405226Y474561D01*
X405166Y474657D01*
X405109Y474755D01*
X405056Y474855D01*
X405006Y474957D01*
X404960Y475061D01*
X404918Y475166D01*
X404879Y475272D01*
X404844Y475380D01*
X404813Y475489D01*
X404785Y475599D01*
X404762Y475710D01*
X404742Y475821D01*
X404726Y475933D01*
X404714Y476046D01*
X404706Y476159D01*
X404702Y476272D01*
X404702Y476386D01*
X404706Y476499D01*
X404714Y476612D01*
X404726Y476725D01*
X404742Y476837D01*
X404762Y476948D01*
X404785Y477059D01*
X404813Y477169D01*
X404844Y477278D01*
X404879Y477386D01*
X404918Y477492D01*
X404960Y477597D01*
X405006Y477701D01*
X405056Y477803D01*
X405109Y477903D01*
X405166Y478001D01*
X405226Y478097D01*
X405289Y478191D01*
X405356Y478282D01*
X405425Y478372D01*
X405498Y478459D01*
X405574Y478543D01*
X405653Y478624D01*
X405734Y478703D01*
X405818Y478779D01*
X405905Y478852D01*
X405994Y478921D01*
X406086Y478988D01*
X406180Y479051D01*
X406276Y479111D01*
X406374Y479168D01*
X406474Y479221D01*
X406576Y479271D01*
X406680Y479317D01*
X406785Y479359D01*
X406891Y479398D01*
X406999Y479433D01*
X407108Y479464D01*
X407218Y479492D01*
X407329Y479515D01*
X407440Y479535D01*
X407552Y479551D01*
X407665Y479563D01*
X407778Y479571D01*
X407891Y479575D01*
X408005Y479575D01*
X408118Y479571D01*
X408231Y479563D01*
X408344Y479551D01*
X408456Y479535D01*
X408567Y479515D01*
X408678Y479492D01*
X408788Y479464D01*
X408897Y479433D01*
X409005Y479398D01*
X409111Y479359D01*
X409216Y479317D01*
X409320Y479271D01*
X409422Y479221D01*
X409522Y479168D01*
X409620Y479111D01*
X409716Y479051D01*
X409810Y478988D01*
X412256Y483614D02*
X415447Y481380D01*
X412256Y483614D02*
X412172Y483670D01*
X412087Y483723D01*
X411999Y483772D01*
X411910Y483818D01*
X411818Y483861D01*
X411725Y483900D01*
X411631Y483935D01*
X411536Y483967D01*
X411439Y483995D01*
X411341Y484019D01*
X411243Y484039D01*
X411143Y484056D01*
X411043Y484068D01*
X410943Y484077D01*
X410843Y484082D01*
X410742Y484083D01*
X410641Y484080D01*
X410541Y484073D01*
X410441Y484062D01*
X410341Y484048D01*
X410242Y484029D01*
X410144Y484007D01*
X410047Y483981D01*
X409950Y483951D01*
X409856Y483918D01*
X409762Y483881D01*
X409670Y483840D01*
X409579Y483795D01*
X409491Y483748D01*
X409404Y483696D01*
X409320Y483642D01*
X409237Y483584D01*
X409157Y483523D01*
X409079Y483459D01*
X409004Y483392D01*
X408931Y483323D01*
X408862Y483250D01*
X408795Y483175D01*
X408731Y483097D01*
X408670Y483017D01*
X408612Y482934D01*
X408558Y482850D01*
X408506Y482763D01*
X408459Y482675D01*
X408414Y482584D01*
X408373Y482492D01*
X408336Y482398D01*
X408303Y482304D01*
X408273Y482207D01*
X408247Y482110D01*
X408225Y482012D01*
X408206Y481913D01*
X408192Y481813D01*
X408181Y481713D01*
X408174Y481613D01*
X408171Y481512D01*
X408172Y481411D01*
X408177Y481311D01*
X408186Y481211D01*
X408198Y481111D01*
X408215Y481011D01*
X408235Y480913D01*
X408259Y480815D01*
X408287Y480718D01*
X408319Y480623D01*
X408354Y480529D01*
X408393Y480436D01*
X408436Y480344D01*
X408482Y480255D01*
X408531Y480167D01*
X408584Y480082D01*
X408640Y479998D01*
X408700Y479917D01*
X408762Y479838D01*
X408828Y479761D01*
X408896Y479687D01*
X408967Y479616D01*
X409041Y479548D01*
X409118Y479482D01*
X409197Y479420D01*
X409278Y479360D01*
X411405Y477871D01*
X485558Y334770D02*
X485558Y331524D01*
X485558Y334770D02*
X485560Y334883D01*
X485566Y334996D01*
X485576Y335109D01*
X485590Y335222D01*
X485607Y335334D01*
X485629Y335445D01*
X485654Y335555D01*
X485684Y335665D01*
X485717Y335773D01*
X485754Y335880D01*
X485794Y335986D01*
X485839Y336090D01*
X485887Y336193D01*
X485938Y336294D01*
X485993Y336393D01*
X486051Y336490D01*
X486113Y336585D01*
X486178Y336678D01*
X486246Y336768D01*
X486317Y336856D01*
X486392Y336942D01*
X486469Y337025D01*
X486549Y337105D01*
X486632Y337182D01*
X486718Y337257D01*
X486806Y337328D01*
X486896Y337396D01*
X486989Y337461D01*
X487084Y337523D01*
X487181Y337581D01*
X487280Y337636D01*
X487381Y337687D01*
X487484Y337735D01*
X487588Y337780D01*
X487694Y337820D01*
X487801Y337857D01*
X487909Y337890D01*
X488019Y337920D01*
X488129Y337945D01*
X488240Y337967D01*
X488352Y337984D01*
X488465Y337998D01*
X488578Y338008D01*
X488691Y338014D01*
X488804Y338016D01*
X488917Y338014D01*
X489030Y338008D01*
X489143Y337998D01*
X489256Y337984D01*
X489368Y337967D01*
X489479Y337945D01*
X489589Y337920D01*
X489699Y337890D01*
X489807Y337857D01*
X489914Y337820D01*
X490020Y337780D01*
X490124Y337735D01*
X490227Y337687D01*
X490328Y337636D01*
X490427Y337581D01*
X490524Y337523D01*
X490619Y337461D01*
X490712Y337396D01*
X490802Y337328D01*
X490890Y337257D01*
X490976Y337182D01*
X491059Y337105D01*
X491139Y337025D01*
X491216Y336942D01*
X491291Y336856D01*
X491362Y336768D01*
X491430Y336678D01*
X491495Y336585D01*
X491557Y336490D01*
X491615Y336393D01*
X491670Y336294D01*
X491721Y336193D01*
X491769Y336090D01*
X491814Y335986D01*
X491854Y335880D01*
X491891Y335773D01*
X491924Y335665D01*
X491954Y335555D01*
X491979Y335445D01*
X492001Y335334D01*
X492018Y335222D01*
X492032Y335109D01*
X492042Y334996D01*
X492048Y334883D01*
X492050Y334770D01*
X497242Y335419D02*
X497242Y331524D01*
X497242Y335419D02*
X497240Y335520D01*
X497234Y335620D01*
X497224Y335720D01*
X497211Y335820D01*
X497193Y335919D01*
X497172Y336018D01*
X497147Y336115D01*
X497118Y336212D01*
X497085Y336307D01*
X497049Y336401D01*
X497009Y336493D01*
X496966Y336584D01*
X496919Y336673D01*
X496869Y336760D01*
X496815Y336846D01*
X496758Y336929D01*
X496698Y337009D01*
X496635Y337088D01*
X496568Y337164D01*
X496499Y337237D01*
X496427Y337307D01*
X496353Y337375D01*
X496276Y337440D01*
X496196Y337501D01*
X496114Y337560D01*
X496030Y337615D01*
X495944Y337667D01*
X495856Y337716D01*
X495766Y337761D01*
X495674Y337803D01*
X495581Y337841D01*
X495486Y337875D01*
X495391Y337906D01*
X495294Y337933D01*
X495196Y337956D01*
X495097Y337976D01*
X494997Y337991D01*
X494897Y338003D01*
X494797Y338011D01*
X494696Y338015D01*
X494596Y338015D01*
X494495Y338011D01*
X494395Y338003D01*
X494295Y337991D01*
X494195Y337976D01*
X494096Y337956D01*
X493998Y337933D01*
X493901Y337906D01*
X493806Y337875D01*
X493711Y337841D01*
X493618Y337803D01*
X493526Y337761D01*
X493436Y337716D01*
X493348Y337667D01*
X493262Y337615D01*
X493178Y337560D01*
X493096Y337501D01*
X493016Y337440D01*
X492939Y337375D01*
X492865Y337307D01*
X492793Y337237D01*
X492724Y337164D01*
X492657Y337088D01*
X492594Y337009D01*
X492534Y336929D01*
X492477Y336846D01*
X492423Y336760D01*
X492373Y336673D01*
X492326Y336584D01*
X492283Y336493D01*
X492243Y336401D01*
X492207Y336307D01*
X492174Y336212D01*
X492145Y336115D01*
X492120Y336018D01*
X492099Y335919D01*
X492081Y335820D01*
X492068Y335720D01*
X492058Y335620D01*
X492052Y335520D01*
X492050Y335419D01*
X492049Y335419D02*
X492049Y332823D01*
X497242Y342305D02*
X485558Y346200D01*
X497242Y350095D01*
X485558Y354384D02*
X485558Y357630D01*
X485560Y357743D01*
X485566Y357856D01*
X485576Y357969D01*
X485590Y358082D01*
X485607Y358194D01*
X485629Y358305D01*
X485654Y358415D01*
X485684Y358525D01*
X485717Y358633D01*
X485754Y358740D01*
X485794Y358846D01*
X485839Y358950D01*
X485887Y359053D01*
X485938Y359154D01*
X485993Y359253D01*
X486051Y359350D01*
X486113Y359445D01*
X486178Y359538D01*
X486246Y359628D01*
X486317Y359716D01*
X486392Y359802D01*
X486469Y359885D01*
X486549Y359965D01*
X486632Y360042D01*
X486718Y360117D01*
X486806Y360188D01*
X486896Y360256D01*
X486989Y360321D01*
X487084Y360383D01*
X487181Y360441D01*
X487280Y360496D01*
X487381Y360547D01*
X487484Y360595D01*
X487588Y360640D01*
X487694Y360680D01*
X487801Y360717D01*
X487909Y360750D01*
X488019Y360780D01*
X488129Y360805D01*
X488240Y360827D01*
X488352Y360844D01*
X488465Y360858D01*
X488578Y360868D01*
X488691Y360874D01*
X488804Y360876D01*
X488917Y360874D01*
X489030Y360868D01*
X489143Y360858D01*
X489256Y360844D01*
X489368Y360827D01*
X489479Y360805D01*
X489589Y360780D01*
X489699Y360750D01*
X489807Y360717D01*
X489914Y360680D01*
X490020Y360640D01*
X490124Y360595D01*
X490227Y360547D01*
X490328Y360496D01*
X490427Y360441D01*
X490524Y360383D01*
X490619Y360321D01*
X490712Y360256D01*
X490802Y360188D01*
X490890Y360117D01*
X490976Y360042D01*
X491059Y359965D01*
X491139Y359885D01*
X491216Y359802D01*
X491291Y359716D01*
X491362Y359628D01*
X491430Y359538D01*
X491495Y359445D01*
X491557Y359350D01*
X491615Y359253D01*
X491670Y359154D01*
X491721Y359053D01*
X491769Y358950D01*
X491814Y358846D01*
X491854Y358740D01*
X491891Y358633D01*
X491924Y358525D01*
X491954Y358415D01*
X491979Y358305D01*
X492001Y358194D01*
X492018Y358082D01*
X492032Y357969D01*
X492042Y357856D01*
X492048Y357743D01*
X492050Y357630D01*
X497242Y358279D02*
X497242Y354384D01*
X497242Y358279D02*
X497240Y358380D01*
X497234Y358480D01*
X497224Y358580D01*
X497211Y358680D01*
X497193Y358779D01*
X497172Y358878D01*
X497147Y358975D01*
X497118Y359072D01*
X497085Y359167D01*
X497049Y359261D01*
X497009Y359353D01*
X496966Y359444D01*
X496919Y359533D01*
X496869Y359620D01*
X496815Y359706D01*
X496758Y359789D01*
X496698Y359869D01*
X496635Y359948D01*
X496568Y360024D01*
X496499Y360097D01*
X496427Y360167D01*
X496353Y360235D01*
X496276Y360300D01*
X496196Y360361D01*
X496114Y360420D01*
X496030Y360475D01*
X495944Y360527D01*
X495856Y360576D01*
X495766Y360621D01*
X495674Y360663D01*
X495581Y360701D01*
X495486Y360735D01*
X495391Y360766D01*
X495294Y360793D01*
X495196Y360816D01*
X495097Y360836D01*
X494997Y360851D01*
X494897Y360863D01*
X494797Y360871D01*
X494696Y360875D01*
X494596Y360875D01*
X494495Y360871D01*
X494395Y360863D01*
X494295Y360851D01*
X494195Y360836D01*
X494096Y360816D01*
X493998Y360793D01*
X493901Y360766D01*
X493806Y360735D01*
X493711Y360701D01*
X493618Y360663D01*
X493526Y360621D01*
X493436Y360576D01*
X493348Y360527D01*
X493262Y360475D01*
X493178Y360420D01*
X493096Y360361D01*
X493016Y360300D01*
X492939Y360235D01*
X492865Y360167D01*
X492793Y360097D01*
X492724Y360024D01*
X492657Y359948D01*
X492594Y359869D01*
X492534Y359789D01*
X492477Y359706D01*
X492423Y359620D01*
X492373Y359533D01*
X492326Y359444D01*
X492283Y359353D01*
X492243Y359261D01*
X492207Y359167D01*
X492174Y359072D01*
X492145Y358975D01*
X492120Y358878D01*
X492099Y358779D01*
X492081Y358680D01*
X492068Y358580D01*
X492058Y358480D01*
X492052Y358380D01*
X492050Y358279D01*
X492049Y358279D02*
X492049Y355683D01*
X434172Y224132D02*
X431514Y222270D01*
X431420Y222207D01*
X431324Y222147D01*
X431226Y222090D01*
X431126Y222037D01*
X431024Y221987D01*
X430920Y221941D01*
X430815Y221899D01*
X430709Y221860D01*
X430601Y221825D01*
X430492Y221794D01*
X430382Y221766D01*
X430271Y221743D01*
X430160Y221723D01*
X430048Y221707D01*
X429935Y221695D01*
X429822Y221687D01*
X429709Y221683D01*
X429595Y221683D01*
X429482Y221687D01*
X429369Y221695D01*
X429256Y221707D01*
X429144Y221723D01*
X429033Y221743D01*
X428922Y221766D01*
X428812Y221794D01*
X428703Y221825D01*
X428595Y221860D01*
X428489Y221899D01*
X428384Y221941D01*
X428280Y221987D01*
X428178Y222037D01*
X428078Y222090D01*
X427980Y222147D01*
X427884Y222207D01*
X427790Y222270D01*
X427699Y222337D01*
X427609Y222406D01*
X427522Y222479D01*
X427438Y222555D01*
X427357Y222634D01*
X427278Y222715D01*
X427202Y222799D01*
X427129Y222886D01*
X427060Y222976D01*
X426993Y223067D01*
X426930Y223161D01*
X426870Y223257D01*
X426813Y223355D01*
X426760Y223455D01*
X426710Y223557D01*
X426664Y223661D01*
X426622Y223766D01*
X426583Y223872D01*
X426548Y223980D01*
X426517Y224089D01*
X426489Y224199D01*
X426466Y224310D01*
X426446Y224421D01*
X426430Y224533D01*
X426418Y224646D01*
X426410Y224759D01*
X426406Y224872D01*
X426406Y224986D01*
X426410Y225099D01*
X426418Y225212D01*
X426430Y225325D01*
X426446Y225437D01*
X426466Y225548D01*
X426489Y225659D01*
X426517Y225769D01*
X426548Y225878D01*
X426583Y225986D01*
X426622Y226092D01*
X426664Y226197D01*
X426710Y226301D01*
X426760Y226403D01*
X426813Y226503D01*
X426870Y226601D01*
X426930Y226697D01*
X426993Y226791D01*
X427060Y226882D01*
X427129Y226972D01*
X427202Y227059D01*
X427278Y227143D01*
X427357Y227224D01*
X427438Y227303D01*
X427522Y227379D01*
X427609Y227452D01*
X427699Y227521D01*
X427790Y227588D01*
X424280Y231469D02*
X427471Y233703D01*
X424281Y231469D02*
X424200Y231409D01*
X424121Y231347D01*
X424044Y231281D01*
X423970Y231213D01*
X423899Y231142D01*
X423831Y231068D01*
X423765Y230991D01*
X423703Y230912D01*
X423643Y230831D01*
X423587Y230747D01*
X423534Y230662D01*
X423485Y230574D01*
X423439Y230485D01*
X423396Y230393D01*
X423357Y230300D01*
X423322Y230206D01*
X423290Y230111D01*
X423262Y230014D01*
X423238Y229916D01*
X423218Y229818D01*
X423201Y229718D01*
X423189Y229618D01*
X423180Y229518D01*
X423175Y229417D01*
X423174Y229317D01*
X423177Y229216D01*
X423184Y229116D01*
X423195Y229016D01*
X423209Y228916D01*
X423228Y228817D01*
X423250Y228719D01*
X423276Y228622D01*
X423306Y228525D01*
X423339Y228431D01*
X423376Y228337D01*
X423417Y228245D01*
X423462Y228154D01*
X423509Y228066D01*
X423561Y227979D01*
X423615Y227895D01*
X423673Y227812D01*
X423734Y227732D01*
X423798Y227654D01*
X423865Y227579D01*
X423934Y227506D01*
X424007Y227437D01*
X424082Y227370D01*
X424160Y227306D01*
X424240Y227245D01*
X424323Y227187D01*
X424407Y227133D01*
X424494Y227081D01*
X424582Y227034D01*
X424673Y226989D01*
X424765Y226948D01*
X424858Y226911D01*
X424953Y226878D01*
X425050Y226848D01*
X425147Y226822D01*
X425245Y226800D01*
X425344Y226781D01*
X425444Y226767D01*
X425544Y226756D01*
X425644Y226749D01*
X425745Y226746D01*
X425845Y226747D01*
X425946Y226752D01*
X426046Y226761D01*
X426146Y226773D01*
X426246Y226790D01*
X426344Y226810D01*
X426442Y226834D01*
X426539Y226862D01*
X426634Y226894D01*
X426728Y226929D01*
X426821Y226968D01*
X426913Y227011D01*
X427002Y227057D01*
X427090Y227106D01*
X427175Y227159D01*
X427259Y227215D01*
X429386Y228705D01*
X418640Y227519D02*
X422151Y215714D01*
X412259Y223052D01*
X415447Y211020D02*
X412788Y209158D01*
X412694Y209095D01*
X412598Y209035D01*
X412500Y208978D01*
X412400Y208925D01*
X412298Y208875D01*
X412194Y208829D01*
X412089Y208787D01*
X411983Y208748D01*
X411875Y208713D01*
X411766Y208682D01*
X411656Y208654D01*
X411545Y208631D01*
X411434Y208611D01*
X411322Y208595D01*
X411209Y208583D01*
X411096Y208575D01*
X410983Y208571D01*
X410869Y208571D01*
X410756Y208575D01*
X410643Y208583D01*
X410530Y208595D01*
X410418Y208611D01*
X410307Y208631D01*
X410196Y208654D01*
X410086Y208682D01*
X409977Y208713D01*
X409869Y208748D01*
X409763Y208787D01*
X409658Y208829D01*
X409554Y208875D01*
X409452Y208925D01*
X409352Y208978D01*
X409254Y209035D01*
X409158Y209095D01*
X409064Y209158D01*
X408973Y209225D01*
X408883Y209294D01*
X408796Y209367D01*
X408712Y209443D01*
X408631Y209522D01*
X408552Y209603D01*
X408476Y209687D01*
X408403Y209774D01*
X408334Y209864D01*
X408267Y209955D01*
X408204Y210049D01*
X408144Y210145D01*
X408087Y210243D01*
X408034Y210343D01*
X407984Y210445D01*
X407938Y210549D01*
X407896Y210654D01*
X407857Y210760D01*
X407822Y210868D01*
X407791Y210977D01*
X407763Y211087D01*
X407740Y211198D01*
X407720Y211309D01*
X407704Y211421D01*
X407692Y211534D01*
X407684Y211647D01*
X407680Y211760D01*
X407680Y211874D01*
X407684Y211987D01*
X407692Y212100D01*
X407704Y212213D01*
X407720Y212325D01*
X407740Y212436D01*
X407763Y212547D01*
X407791Y212657D01*
X407822Y212766D01*
X407857Y212874D01*
X407896Y212980D01*
X407938Y213085D01*
X407984Y213189D01*
X408034Y213291D01*
X408087Y213391D01*
X408144Y213489D01*
X408204Y213585D01*
X408267Y213679D01*
X408334Y213770D01*
X408403Y213860D01*
X408476Y213947D01*
X408552Y214031D01*
X408631Y214112D01*
X408712Y214191D01*
X408796Y214267D01*
X408883Y214340D01*
X408973Y214409D01*
X409064Y214476D01*
X405555Y218357D02*
X408745Y220591D01*
X405555Y218357D02*
X405474Y218297D01*
X405395Y218235D01*
X405318Y218169D01*
X405244Y218101D01*
X405173Y218030D01*
X405105Y217956D01*
X405039Y217879D01*
X404977Y217800D01*
X404917Y217719D01*
X404861Y217635D01*
X404808Y217550D01*
X404759Y217462D01*
X404713Y217373D01*
X404670Y217281D01*
X404631Y217188D01*
X404596Y217094D01*
X404564Y216999D01*
X404536Y216902D01*
X404512Y216804D01*
X404492Y216706D01*
X404475Y216606D01*
X404463Y216506D01*
X404454Y216406D01*
X404449Y216305D01*
X404448Y216205D01*
X404451Y216104D01*
X404458Y216004D01*
X404469Y215904D01*
X404483Y215804D01*
X404502Y215705D01*
X404524Y215607D01*
X404550Y215510D01*
X404580Y215413D01*
X404613Y215319D01*
X404650Y215225D01*
X404691Y215133D01*
X404736Y215042D01*
X404783Y214954D01*
X404835Y214867D01*
X404889Y214783D01*
X404947Y214700D01*
X405008Y214620D01*
X405072Y214542D01*
X405139Y214467D01*
X405208Y214394D01*
X405281Y214325D01*
X405356Y214258D01*
X405434Y214194D01*
X405514Y214133D01*
X405597Y214075D01*
X405681Y214021D01*
X405768Y213969D01*
X405856Y213922D01*
X405947Y213877D01*
X406039Y213836D01*
X406132Y213799D01*
X406227Y213766D01*
X406324Y213736D01*
X406421Y213710D01*
X406519Y213688D01*
X406618Y213669D01*
X406718Y213655D01*
X406818Y213644D01*
X406918Y213637D01*
X407019Y213634D01*
X407119Y213635D01*
X407220Y213640D01*
X407320Y213649D01*
X407420Y213661D01*
X407520Y213678D01*
X407618Y213698D01*
X407716Y213722D01*
X407813Y213750D01*
X407908Y213782D01*
X408002Y213817D01*
X408095Y213856D01*
X408187Y213899D01*
X408276Y213945D01*
X408364Y213994D01*
X408449Y214047D01*
X408533Y214103D01*
X410660Y215593D01*
X282271Y207297D02*
X279612Y209159D01*
X279612Y209158D02*
X279521Y209225D01*
X279431Y209294D01*
X279344Y209367D01*
X279260Y209443D01*
X279179Y209522D01*
X279100Y209603D01*
X279024Y209687D01*
X278951Y209774D01*
X278882Y209864D01*
X278815Y209955D01*
X278752Y210049D01*
X278692Y210145D01*
X278635Y210243D01*
X278582Y210343D01*
X278532Y210445D01*
X278486Y210549D01*
X278444Y210654D01*
X278405Y210760D01*
X278370Y210868D01*
X278339Y210977D01*
X278311Y211087D01*
X278288Y211198D01*
X278268Y211309D01*
X278252Y211421D01*
X278240Y211534D01*
X278232Y211647D01*
X278228Y211760D01*
X278228Y211874D01*
X278232Y211987D01*
X278240Y212100D01*
X278252Y212213D01*
X278268Y212325D01*
X278288Y212436D01*
X278311Y212547D01*
X278339Y212657D01*
X278370Y212766D01*
X278405Y212874D01*
X278444Y212980D01*
X278486Y213085D01*
X278532Y213189D01*
X278582Y213291D01*
X278635Y213391D01*
X278692Y213489D01*
X278752Y213585D01*
X278815Y213679D01*
X278882Y213770D01*
X278951Y213860D01*
X279024Y213947D01*
X279100Y214031D01*
X279179Y214112D01*
X279260Y214191D01*
X279344Y214267D01*
X279431Y214340D01*
X279520Y214409D01*
X279612Y214476D01*
X279706Y214539D01*
X279802Y214599D01*
X279900Y214656D01*
X280000Y214709D01*
X280102Y214759D01*
X280206Y214805D01*
X280311Y214847D01*
X280417Y214886D01*
X280525Y214921D01*
X280634Y214952D01*
X280744Y214980D01*
X280855Y215003D01*
X280966Y215023D01*
X281078Y215039D01*
X281191Y215051D01*
X281304Y215059D01*
X281417Y215063D01*
X281531Y215063D01*
X281644Y215059D01*
X281757Y215051D01*
X281870Y215039D01*
X281982Y215023D01*
X282093Y215003D01*
X282204Y214980D01*
X282314Y214952D01*
X282423Y214921D01*
X282531Y214886D01*
X282637Y214847D01*
X282742Y214805D01*
X282846Y214759D01*
X282948Y214709D01*
X283048Y214656D01*
X283146Y214599D01*
X283242Y214539D01*
X283336Y214476D01*
X285782Y219102D02*
X288972Y216868D01*
X285782Y219102D02*
X285698Y219158D01*
X285613Y219211D01*
X285525Y219260D01*
X285436Y219306D01*
X285344Y219349D01*
X285251Y219388D01*
X285157Y219423D01*
X285062Y219455D01*
X284965Y219483D01*
X284867Y219507D01*
X284769Y219527D01*
X284669Y219544D01*
X284569Y219556D01*
X284469Y219565D01*
X284369Y219570D01*
X284268Y219571D01*
X284167Y219568D01*
X284067Y219561D01*
X283967Y219550D01*
X283867Y219536D01*
X283768Y219517D01*
X283670Y219495D01*
X283573Y219469D01*
X283476Y219439D01*
X283382Y219406D01*
X283288Y219369D01*
X283196Y219328D01*
X283105Y219283D01*
X283017Y219236D01*
X282930Y219184D01*
X282846Y219130D01*
X282763Y219072D01*
X282683Y219011D01*
X282605Y218947D01*
X282530Y218880D01*
X282457Y218811D01*
X282388Y218738D01*
X282321Y218663D01*
X282257Y218585D01*
X282196Y218505D01*
X282138Y218422D01*
X282084Y218338D01*
X282032Y218251D01*
X281985Y218163D01*
X281940Y218072D01*
X281899Y217980D01*
X281862Y217886D01*
X281829Y217792D01*
X281799Y217695D01*
X281773Y217598D01*
X281751Y217500D01*
X281732Y217401D01*
X281718Y217301D01*
X281707Y217201D01*
X281700Y217101D01*
X281697Y217000D01*
X281698Y216899D01*
X281703Y216799D01*
X281712Y216699D01*
X281724Y216599D01*
X281741Y216499D01*
X281761Y216401D01*
X281785Y216303D01*
X281813Y216206D01*
X281845Y216111D01*
X281880Y216017D01*
X281919Y215924D01*
X281962Y215832D01*
X282008Y215743D01*
X282057Y215655D01*
X282110Y215570D01*
X282166Y215486D01*
X282226Y215405D01*
X282288Y215326D01*
X282354Y215249D01*
X282422Y215175D01*
X282493Y215104D01*
X282567Y215036D01*
X282644Y214970D01*
X282723Y214908D01*
X282804Y214848D01*
X284930Y213359D01*
X280141Y223052D02*
X270249Y215714D01*
X273761Y227519D01*
X263545Y220409D02*
X260886Y222270D01*
X260795Y222337D01*
X260705Y222406D01*
X260618Y222479D01*
X260534Y222555D01*
X260453Y222634D01*
X260374Y222715D01*
X260298Y222799D01*
X260225Y222886D01*
X260156Y222976D01*
X260089Y223067D01*
X260026Y223161D01*
X259966Y223257D01*
X259909Y223355D01*
X259856Y223455D01*
X259806Y223557D01*
X259760Y223661D01*
X259718Y223766D01*
X259679Y223872D01*
X259644Y223980D01*
X259613Y224089D01*
X259585Y224199D01*
X259562Y224310D01*
X259542Y224421D01*
X259526Y224533D01*
X259514Y224646D01*
X259506Y224759D01*
X259502Y224872D01*
X259502Y224986D01*
X259506Y225099D01*
X259514Y225212D01*
X259526Y225325D01*
X259542Y225437D01*
X259562Y225548D01*
X259585Y225659D01*
X259613Y225769D01*
X259644Y225878D01*
X259679Y225986D01*
X259718Y226092D01*
X259760Y226197D01*
X259806Y226301D01*
X259856Y226403D01*
X259909Y226503D01*
X259966Y226601D01*
X260026Y226697D01*
X260089Y226791D01*
X260156Y226882D01*
X260225Y226972D01*
X260298Y227059D01*
X260374Y227143D01*
X260453Y227224D01*
X260534Y227303D01*
X260618Y227379D01*
X260705Y227452D01*
X260794Y227521D01*
X260886Y227588D01*
X260980Y227651D01*
X261076Y227711D01*
X261174Y227768D01*
X261274Y227821D01*
X261376Y227871D01*
X261480Y227917D01*
X261585Y227959D01*
X261691Y227998D01*
X261799Y228033D01*
X261908Y228064D01*
X262018Y228092D01*
X262129Y228115D01*
X262240Y228135D01*
X262352Y228151D01*
X262465Y228163D01*
X262578Y228171D01*
X262691Y228175D01*
X262805Y228175D01*
X262918Y228171D01*
X263031Y228163D01*
X263144Y228151D01*
X263256Y228135D01*
X263367Y228115D01*
X263478Y228092D01*
X263588Y228064D01*
X263697Y228033D01*
X263805Y227998D01*
X263911Y227959D01*
X264016Y227917D01*
X264120Y227871D01*
X264222Y227821D01*
X264322Y227768D01*
X264420Y227711D01*
X264516Y227651D01*
X264610Y227588D01*
X267056Y232214D02*
X270247Y229980D01*
X267056Y232214D02*
X266972Y232270D01*
X266887Y232323D01*
X266799Y232372D01*
X266710Y232418D01*
X266618Y232461D01*
X266525Y232500D01*
X266431Y232535D01*
X266336Y232567D01*
X266239Y232595D01*
X266141Y232619D01*
X266043Y232639D01*
X265943Y232656D01*
X265843Y232668D01*
X265743Y232677D01*
X265643Y232682D01*
X265542Y232683D01*
X265441Y232680D01*
X265341Y232673D01*
X265241Y232662D01*
X265141Y232648D01*
X265042Y232629D01*
X264944Y232607D01*
X264847Y232581D01*
X264750Y232551D01*
X264656Y232518D01*
X264562Y232481D01*
X264470Y232440D01*
X264379Y232395D01*
X264291Y232348D01*
X264204Y232296D01*
X264120Y232242D01*
X264037Y232184D01*
X263957Y232123D01*
X263879Y232059D01*
X263804Y231992D01*
X263731Y231923D01*
X263662Y231850D01*
X263595Y231775D01*
X263531Y231697D01*
X263470Y231617D01*
X263412Y231534D01*
X263358Y231450D01*
X263306Y231363D01*
X263259Y231275D01*
X263214Y231184D01*
X263173Y231092D01*
X263136Y230998D01*
X263103Y230904D01*
X263073Y230807D01*
X263047Y230710D01*
X263025Y230612D01*
X263006Y230513D01*
X262992Y230413D01*
X262981Y230313D01*
X262974Y230213D01*
X262971Y230112D01*
X262972Y230011D01*
X262977Y229911D01*
X262986Y229811D01*
X262998Y229711D01*
X263015Y229611D01*
X263035Y229513D01*
X263059Y229415D01*
X263087Y229318D01*
X263119Y229223D01*
X263154Y229129D01*
X263193Y229036D01*
X263236Y228944D01*
X263282Y228855D01*
X263331Y228767D01*
X263384Y228682D01*
X263440Y228598D01*
X263500Y228517D01*
X263562Y228438D01*
X263628Y228361D01*
X263696Y228287D01*
X263767Y228216D01*
X263841Y228148D01*
X263918Y228082D01*
X263997Y228020D01*
X264078Y227960D01*
X266205Y226471D01*
X195158Y331524D02*
X195158Y334770D01*
X195160Y334883D01*
X195166Y334996D01*
X195176Y335109D01*
X195190Y335222D01*
X195207Y335334D01*
X195229Y335445D01*
X195254Y335555D01*
X195284Y335665D01*
X195317Y335773D01*
X195354Y335880D01*
X195394Y335986D01*
X195439Y336090D01*
X195487Y336193D01*
X195538Y336294D01*
X195593Y336393D01*
X195651Y336490D01*
X195713Y336585D01*
X195778Y336678D01*
X195846Y336768D01*
X195917Y336856D01*
X195992Y336942D01*
X196069Y337025D01*
X196149Y337105D01*
X196232Y337182D01*
X196318Y337257D01*
X196406Y337328D01*
X196496Y337396D01*
X196589Y337461D01*
X196684Y337523D01*
X196781Y337581D01*
X196880Y337636D01*
X196981Y337687D01*
X197084Y337735D01*
X197188Y337780D01*
X197294Y337820D01*
X197401Y337857D01*
X197509Y337890D01*
X197619Y337920D01*
X197729Y337945D01*
X197840Y337967D01*
X197952Y337984D01*
X198065Y337998D01*
X198178Y338008D01*
X198291Y338014D01*
X198404Y338016D01*
X198517Y338014D01*
X198630Y338008D01*
X198743Y337998D01*
X198856Y337984D01*
X198968Y337967D01*
X199079Y337945D01*
X199189Y337920D01*
X199299Y337890D01*
X199407Y337857D01*
X199514Y337820D01*
X199620Y337780D01*
X199724Y337735D01*
X199827Y337687D01*
X199928Y337636D01*
X200027Y337581D01*
X200124Y337523D01*
X200219Y337461D01*
X200312Y337396D01*
X200402Y337328D01*
X200490Y337257D01*
X200576Y337182D01*
X200659Y337105D01*
X200739Y337025D01*
X200816Y336942D01*
X200891Y336856D01*
X200962Y336768D01*
X201030Y336678D01*
X201095Y336585D01*
X201157Y336490D01*
X201215Y336393D01*
X201270Y336294D01*
X201321Y336193D01*
X201369Y336090D01*
X201414Y335986D01*
X201454Y335880D01*
X201491Y335773D01*
X201524Y335665D01*
X201554Y335555D01*
X201579Y335445D01*
X201601Y335334D01*
X201618Y335222D01*
X201632Y335109D01*
X201642Y334996D01*
X201648Y334883D01*
X201650Y334770D01*
X206842Y335419D02*
X206842Y331524D01*
X206842Y335419D02*
X206840Y335520D01*
X206834Y335620D01*
X206824Y335720D01*
X206811Y335820D01*
X206793Y335919D01*
X206772Y336018D01*
X206747Y336115D01*
X206718Y336212D01*
X206685Y336307D01*
X206649Y336401D01*
X206609Y336493D01*
X206566Y336584D01*
X206519Y336673D01*
X206469Y336760D01*
X206415Y336846D01*
X206358Y336929D01*
X206298Y337009D01*
X206235Y337088D01*
X206168Y337164D01*
X206099Y337237D01*
X206027Y337307D01*
X205953Y337375D01*
X205876Y337440D01*
X205796Y337501D01*
X205714Y337560D01*
X205630Y337615D01*
X205544Y337667D01*
X205456Y337716D01*
X205366Y337761D01*
X205274Y337803D01*
X205181Y337841D01*
X205086Y337875D01*
X204991Y337906D01*
X204894Y337933D01*
X204796Y337956D01*
X204697Y337976D01*
X204597Y337991D01*
X204497Y338003D01*
X204397Y338011D01*
X204296Y338015D01*
X204196Y338015D01*
X204095Y338011D01*
X203995Y338003D01*
X203895Y337991D01*
X203795Y337976D01*
X203696Y337956D01*
X203598Y337933D01*
X203501Y337906D01*
X203406Y337875D01*
X203311Y337841D01*
X203218Y337803D01*
X203126Y337761D01*
X203036Y337716D01*
X202948Y337667D01*
X202862Y337615D01*
X202778Y337560D01*
X202696Y337501D01*
X202616Y337440D01*
X202539Y337375D01*
X202465Y337307D01*
X202393Y337237D01*
X202324Y337164D01*
X202257Y337088D01*
X202194Y337009D01*
X202134Y336929D01*
X202077Y336846D01*
X202023Y336760D01*
X201973Y336673D01*
X201926Y336584D01*
X201883Y336493D01*
X201843Y336401D01*
X201807Y336307D01*
X201774Y336212D01*
X201745Y336115D01*
X201720Y336018D01*
X201699Y335919D01*
X201681Y335820D01*
X201668Y335720D01*
X201658Y335620D01*
X201652Y335520D01*
X201650Y335419D01*
X201649Y335419D02*
X201649Y332823D01*
X206842Y342305D02*
X195158Y346200D01*
X206842Y350095D01*
X195158Y354384D02*
X195158Y357630D01*
X195160Y357743D01*
X195166Y357856D01*
X195176Y357969D01*
X195190Y358082D01*
X195207Y358194D01*
X195229Y358305D01*
X195254Y358415D01*
X195284Y358525D01*
X195317Y358633D01*
X195354Y358740D01*
X195394Y358846D01*
X195439Y358950D01*
X195487Y359053D01*
X195538Y359154D01*
X195593Y359253D01*
X195651Y359350D01*
X195713Y359445D01*
X195778Y359538D01*
X195846Y359628D01*
X195917Y359716D01*
X195992Y359802D01*
X196069Y359885D01*
X196149Y359965D01*
X196232Y360042D01*
X196318Y360117D01*
X196406Y360188D01*
X196496Y360256D01*
X196589Y360321D01*
X196684Y360383D01*
X196781Y360441D01*
X196880Y360496D01*
X196981Y360547D01*
X197084Y360595D01*
X197188Y360640D01*
X197294Y360680D01*
X197401Y360717D01*
X197509Y360750D01*
X197619Y360780D01*
X197729Y360805D01*
X197840Y360827D01*
X197952Y360844D01*
X198065Y360858D01*
X198178Y360868D01*
X198291Y360874D01*
X198404Y360876D01*
X198517Y360874D01*
X198630Y360868D01*
X198743Y360858D01*
X198856Y360844D01*
X198968Y360827D01*
X199079Y360805D01*
X199189Y360780D01*
X199299Y360750D01*
X199407Y360717D01*
X199514Y360680D01*
X199620Y360640D01*
X199724Y360595D01*
X199827Y360547D01*
X199928Y360496D01*
X200027Y360441D01*
X200124Y360383D01*
X200219Y360321D01*
X200312Y360256D01*
X200402Y360188D01*
X200490Y360117D01*
X200576Y360042D01*
X200659Y359965D01*
X200739Y359885D01*
X200816Y359802D01*
X200891Y359716D01*
X200962Y359628D01*
X201030Y359538D01*
X201095Y359445D01*
X201157Y359350D01*
X201215Y359253D01*
X201270Y359154D01*
X201321Y359053D01*
X201369Y358950D01*
X201414Y358846D01*
X201454Y358740D01*
X201491Y358633D01*
X201524Y358525D01*
X201554Y358415D01*
X201579Y358305D01*
X201601Y358194D01*
X201618Y358082D01*
X201632Y357969D01*
X201642Y357856D01*
X201648Y357743D01*
X201650Y357630D01*
X206842Y358279D02*
X206842Y354384D01*
X206842Y358279D02*
X206840Y358380D01*
X206834Y358480D01*
X206824Y358580D01*
X206811Y358680D01*
X206793Y358779D01*
X206772Y358878D01*
X206747Y358975D01*
X206718Y359072D01*
X206685Y359167D01*
X206649Y359261D01*
X206609Y359353D01*
X206566Y359444D01*
X206519Y359533D01*
X206469Y359620D01*
X206415Y359706D01*
X206358Y359789D01*
X206298Y359869D01*
X206235Y359948D01*
X206168Y360024D01*
X206099Y360097D01*
X206027Y360167D01*
X205953Y360235D01*
X205876Y360300D01*
X205796Y360361D01*
X205714Y360420D01*
X205630Y360475D01*
X205544Y360527D01*
X205456Y360576D01*
X205366Y360621D01*
X205274Y360663D01*
X205181Y360701D01*
X205086Y360735D01*
X204991Y360766D01*
X204894Y360793D01*
X204796Y360816D01*
X204697Y360836D01*
X204597Y360851D01*
X204497Y360863D01*
X204397Y360871D01*
X204296Y360875D01*
X204196Y360875D01*
X204095Y360871D01*
X203995Y360863D01*
X203895Y360851D01*
X203795Y360836D01*
X203696Y360816D01*
X203598Y360793D01*
X203501Y360766D01*
X203406Y360735D01*
X203311Y360701D01*
X203218Y360663D01*
X203126Y360621D01*
X203036Y360576D01*
X202948Y360527D01*
X202862Y360475D01*
X202778Y360420D01*
X202696Y360361D01*
X202616Y360300D01*
X202539Y360235D01*
X202465Y360167D01*
X202393Y360097D01*
X202324Y360024D01*
X202257Y359948D01*
X202194Y359869D01*
X202134Y359789D01*
X202077Y359706D01*
X202023Y359620D01*
X201973Y359533D01*
X201926Y359444D01*
X201883Y359353D01*
X201843Y359261D01*
X201807Y359167D01*
X201774Y359072D01*
X201745Y358975D01*
X201720Y358878D01*
X201699Y358779D01*
X201681Y358680D01*
X201668Y358580D01*
X201658Y358480D01*
X201652Y358380D01*
X201650Y358279D01*
X201649Y358279D02*
X201649Y355683D01*
X286314Y473670D02*
X288972Y475532D01*
X286314Y473670D02*
X286220Y473607D01*
X286124Y473547D01*
X286026Y473490D01*
X285926Y473437D01*
X285824Y473387D01*
X285720Y473341D01*
X285615Y473299D01*
X285509Y473260D01*
X285401Y473225D01*
X285292Y473194D01*
X285182Y473166D01*
X285071Y473143D01*
X284960Y473123D01*
X284848Y473107D01*
X284735Y473095D01*
X284622Y473087D01*
X284509Y473083D01*
X284395Y473083D01*
X284282Y473087D01*
X284169Y473095D01*
X284056Y473107D01*
X283944Y473123D01*
X283833Y473143D01*
X283722Y473166D01*
X283612Y473194D01*
X283503Y473225D01*
X283395Y473260D01*
X283289Y473299D01*
X283184Y473341D01*
X283080Y473387D01*
X282978Y473437D01*
X282878Y473490D01*
X282780Y473547D01*
X282684Y473607D01*
X282590Y473670D01*
X282499Y473737D01*
X282409Y473806D01*
X282322Y473879D01*
X282238Y473955D01*
X282157Y474034D01*
X282078Y474115D01*
X282002Y474199D01*
X281929Y474286D01*
X281860Y474376D01*
X281793Y474467D01*
X281730Y474561D01*
X281670Y474657D01*
X281613Y474755D01*
X281560Y474855D01*
X281510Y474957D01*
X281464Y475061D01*
X281422Y475166D01*
X281383Y475272D01*
X281348Y475380D01*
X281317Y475489D01*
X281289Y475599D01*
X281266Y475710D01*
X281246Y475821D01*
X281230Y475933D01*
X281218Y476046D01*
X281210Y476159D01*
X281206Y476272D01*
X281206Y476386D01*
X281210Y476499D01*
X281218Y476612D01*
X281230Y476725D01*
X281246Y476837D01*
X281266Y476948D01*
X281289Y477059D01*
X281317Y477169D01*
X281348Y477278D01*
X281383Y477386D01*
X281422Y477492D01*
X281464Y477597D01*
X281510Y477701D01*
X281560Y477803D01*
X281613Y477903D01*
X281670Y478001D01*
X281730Y478097D01*
X281793Y478191D01*
X281860Y478282D01*
X281929Y478372D01*
X282002Y478459D01*
X282078Y478543D01*
X282157Y478624D01*
X282238Y478703D01*
X282322Y478779D01*
X282409Y478852D01*
X282499Y478921D01*
X282590Y478988D01*
X279080Y482869D02*
X282271Y485103D01*
X279081Y482869D02*
X279000Y482809D01*
X278921Y482747D01*
X278844Y482681D01*
X278770Y482613D01*
X278699Y482542D01*
X278631Y482468D01*
X278565Y482391D01*
X278503Y482312D01*
X278443Y482231D01*
X278387Y482147D01*
X278334Y482062D01*
X278285Y481974D01*
X278239Y481885D01*
X278196Y481793D01*
X278157Y481700D01*
X278122Y481606D01*
X278090Y481511D01*
X278062Y481414D01*
X278038Y481316D01*
X278018Y481218D01*
X278001Y481118D01*
X277989Y481018D01*
X277980Y480918D01*
X277975Y480817D01*
X277974Y480717D01*
X277977Y480616D01*
X277984Y480516D01*
X277995Y480416D01*
X278009Y480316D01*
X278028Y480217D01*
X278050Y480119D01*
X278076Y480022D01*
X278106Y479925D01*
X278139Y479831D01*
X278176Y479737D01*
X278217Y479645D01*
X278262Y479554D01*
X278309Y479466D01*
X278361Y479379D01*
X278415Y479295D01*
X278473Y479212D01*
X278534Y479132D01*
X278598Y479054D01*
X278665Y478979D01*
X278734Y478906D01*
X278807Y478837D01*
X278882Y478770D01*
X278960Y478706D01*
X279040Y478645D01*
X279123Y478587D01*
X279207Y478533D01*
X279294Y478481D01*
X279382Y478434D01*
X279473Y478389D01*
X279565Y478348D01*
X279658Y478311D01*
X279753Y478278D01*
X279850Y478248D01*
X279947Y478222D01*
X280045Y478200D01*
X280144Y478181D01*
X280244Y478167D01*
X280344Y478156D01*
X280444Y478149D01*
X280545Y478146D01*
X280645Y478147D01*
X280746Y478152D01*
X280846Y478161D01*
X280946Y478173D01*
X281046Y478190D01*
X281144Y478210D01*
X281242Y478234D01*
X281339Y478262D01*
X281434Y478294D01*
X281528Y478329D01*
X281621Y478368D01*
X281713Y478411D01*
X281802Y478457D01*
X281890Y478506D01*
X281975Y478559D01*
X282059Y478615D01*
X284186Y480105D01*
X273440Y478919D02*
X276951Y467114D01*
X267059Y474452D01*
X270247Y462420D02*
X267588Y460558D01*
X267494Y460495D01*
X267398Y460435D01*
X267300Y460378D01*
X267200Y460325D01*
X267098Y460275D01*
X266994Y460229D01*
X266889Y460187D01*
X266783Y460148D01*
X266675Y460113D01*
X266566Y460082D01*
X266456Y460054D01*
X266345Y460031D01*
X266234Y460011D01*
X266122Y459995D01*
X266009Y459983D01*
X265896Y459975D01*
X265783Y459971D01*
X265669Y459971D01*
X265556Y459975D01*
X265443Y459983D01*
X265330Y459995D01*
X265218Y460011D01*
X265107Y460031D01*
X264996Y460054D01*
X264886Y460082D01*
X264777Y460113D01*
X264669Y460148D01*
X264563Y460187D01*
X264458Y460229D01*
X264354Y460275D01*
X264252Y460325D01*
X264152Y460378D01*
X264054Y460435D01*
X263958Y460495D01*
X263864Y460558D01*
X263773Y460625D01*
X263683Y460694D01*
X263596Y460767D01*
X263512Y460843D01*
X263431Y460922D01*
X263352Y461003D01*
X263276Y461087D01*
X263203Y461174D01*
X263134Y461264D01*
X263067Y461355D01*
X263004Y461449D01*
X262944Y461545D01*
X262887Y461643D01*
X262834Y461743D01*
X262784Y461845D01*
X262738Y461949D01*
X262696Y462054D01*
X262657Y462160D01*
X262622Y462268D01*
X262591Y462377D01*
X262563Y462487D01*
X262540Y462598D01*
X262520Y462709D01*
X262504Y462821D01*
X262492Y462934D01*
X262484Y463047D01*
X262480Y463160D01*
X262480Y463274D01*
X262484Y463387D01*
X262492Y463500D01*
X262504Y463613D01*
X262520Y463725D01*
X262540Y463836D01*
X262563Y463947D01*
X262591Y464057D01*
X262622Y464166D01*
X262657Y464274D01*
X262696Y464380D01*
X262738Y464485D01*
X262784Y464589D01*
X262834Y464691D01*
X262887Y464791D01*
X262944Y464889D01*
X263004Y464985D01*
X263067Y465079D01*
X263134Y465170D01*
X263203Y465260D01*
X263276Y465347D01*
X263352Y465431D01*
X263431Y465512D01*
X263512Y465591D01*
X263596Y465667D01*
X263683Y465740D01*
X263773Y465809D01*
X263864Y465876D01*
X260355Y469757D02*
X263545Y471991D01*
X260355Y469757D02*
X260274Y469697D01*
X260195Y469635D01*
X260118Y469569D01*
X260044Y469501D01*
X259973Y469430D01*
X259905Y469356D01*
X259839Y469279D01*
X259777Y469200D01*
X259717Y469119D01*
X259661Y469035D01*
X259608Y468950D01*
X259559Y468862D01*
X259513Y468773D01*
X259470Y468681D01*
X259431Y468588D01*
X259396Y468494D01*
X259364Y468399D01*
X259336Y468302D01*
X259312Y468204D01*
X259292Y468106D01*
X259275Y468006D01*
X259263Y467906D01*
X259254Y467806D01*
X259249Y467705D01*
X259248Y467605D01*
X259251Y467504D01*
X259258Y467404D01*
X259269Y467304D01*
X259283Y467204D01*
X259302Y467105D01*
X259324Y467007D01*
X259350Y466910D01*
X259380Y466813D01*
X259413Y466719D01*
X259450Y466625D01*
X259491Y466533D01*
X259536Y466442D01*
X259583Y466354D01*
X259635Y466267D01*
X259689Y466183D01*
X259747Y466100D01*
X259808Y466020D01*
X259872Y465942D01*
X259939Y465867D01*
X260008Y465794D01*
X260081Y465725D01*
X260156Y465658D01*
X260234Y465594D01*
X260314Y465533D01*
X260397Y465475D01*
X260481Y465421D01*
X260568Y465369D01*
X260656Y465322D01*
X260747Y465277D01*
X260839Y465236D01*
X260932Y465199D01*
X261027Y465166D01*
X261124Y465136D01*
X261221Y465110D01*
X261319Y465088D01*
X261418Y465069D01*
X261518Y465055D01*
X261618Y465044D01*
X261718Y465037D01*
X261819Y465034D01*
X261919Y465035D01*
X262020Y465040D01*
X262120Y465049D01*
X262220Y465061D01*
X262320Y465078D01*
X262418Y465098D01*
X262516Y465122D01*
X262613Y465150D01*
X262708Y465182D01*
X262802Y465217D01*
X262895Y465256D01*
X262987Y465299D01*
X263076Y465345D01*
X263164Y465394D01*
X263249Y465447D01*
X263333Y465503D01*
X265460Y466993D01*
D10*
X454996Y418240D02*
X454996Y400460D01*
X454996Y418240D02*
X450058Y418240D01*
X449918Y418238D01*
X449779Y418232D01*
X449639Y418222D01*
X449500Y418208D01*
X449361Y418191D01*
X449223Y418169D01*
X449086Y418143D01*
X448949Y418114D01*
X448813Y418081D01*
X448679Y418044D01*
X448545Y418003D01*
X448413Y417958D01*
X448281Y417909D01*
X448152Y417857D01*
X448024Y417802D01*
X447897Y417742D01*
X447772Y417679D01*
X447649Y417613D01*
X447528Y417543D01*
X447409Y417470D01*
X447292Y417393D01*
X447178Y417313D01*
X447065Y417230D01*
X446955Y417144D01*
X446848Y417054D01*
X446743Y416962D01*
X446641Y416867D01*
X446541Y416769D01*
X446444Y416668D01*
X446350Y416564D01*
X446260Y416458D01*
X446172Y416349D01*
X446087Y416238D01*
X446006Y416124D01*
X445927Y416009D01*
X445852Y415891D01*
X445781Y415771D01*
X445713Y415648D01*
X445648Y415525D01*
X445587Y415399D01*
X445529Y415271D01*
X445475Y415143D01*
X445425Y415012D01*
X445378Y414880D01*
X445335Y414747D01*
X445296Y414613D01*
X445261Y414478D01*
X445230Y414342D01*
X445202Y414204D01*
X445179Y414067D01*
X445159Y413928D01*
X445143Y413789D01*
X445131Y413650D01*
X445123Y413511D01*
X445119Y413371D01*
X445119Y413231D01*
X445123Y413091D01*
X445131Y412952D01*
X445143Y412813D01*
X445159Y412674D01*
X445179Y412535D01*
X445202Y412398D01*
X445230Y412260D01*
X445261Y412124D01*
X445296Y411989D01*
X445335Y411855D01*
X445378Y411722D01*
X445425Y411590D01*
X445475Y411459D01*
X445529Y411331D01*
X445587Y411203D01*
X445648Y411077D01*
X445713Y410954D01*
X445781Y410832D01*
X445852Y410711D01*
X445927Y410593D01*
X446006Y410478D01*
X446087Y410364D01*
X446172Y410253D01*
X446260Y410144D01*
X446350Y410038D01*
X446444Y409934D01*
X446541Y409833D01*
X446641Y409735D01*
X446743Y409640D01*
X446848Y409548D01*
X446955Y409458D01*
X447065Y409372D01*
X447178Y409289D01*
X447292Y409209D01*
X447409Y409132D01*
X447528Y409059D01*
X447649Y408989D01*
X447772Y408923D01*
X447897Y408860D01*
X448024Y408800D01*
X448152Y408745D01*
X448281Y408693D01*
X448413Y408644D01*
X448545Y408599D01*
X448679Y408558D01*
X448813Y408521D01*
X448949Y408488D01*
X449086Y408459D01*
X449223Y408433D01*
X449361Y408411D01*
X449500Y408394D01*
X449639Y408380D01*
X449779Y408370D01*
X449918Y408364D01*
X450058Y408362D01*
X454996Y408362D01*
X439001Y414289D02*
X434062Y418240D01*
X434062Y400460D01*
X429124Y400460D02*
X439001Y400460D01*
X455681Y287444D02*
X455681Y269664D01*
X455681Y287444D02*
X450742Y287444D01*
X450602Y287442D01*
X450463Y287436D01*
X450323Y287426D01*
X450184Y287412D01*
X450045Y287395D01*
X449907Y287373D01*
X449770Y287347D01*
X449633Y287318D01*
X449497Y287285D01*
X449363Y287248D01*
X449229Y287207D01*
X449097Y287162D01*
X448965Y287113D01*
X448836Y287061D01*
X448708Y287006D01*
X448581Y286946D01*
X448456Y286883D01*
X448333Y286817D01*
X448212Y286747D01*
X448093Y286674D01*
X447976Y286597D01*
X447862Y286517D01*
X447749Y286434D01*
X447639Y286348D01*
X447532Y286258D01*
X447427Y286166D01*
X447325Y286071D01*
X447225Y285973D01*
X447128Y285872D01*
X447034Y285768D01*
X446944Y285662D01*
X446856Y285553D01*
X446771Y285442D01*
X446690Y285328D01*
X446611Y285213D01*
X446536Y285095D01*
X446465Y284975D01*
X446397Y284852D01*
X446332Y284729D01*
X446271Y284603D01*
X446213Y284475D01*
X446159Y284347D01*
X446109Y284216D01*
X446062Y284084D01*
X446019Y283951D01*
X445980Y283817D01*
X445945Y283682D01*
X445914Y283546D01*
X445886Y283408D01*
X445863Y283271D01*
X445843Y283132D01*
X445827Y282993D01*
X445815Y282854D01*
X445807Y282715D01*
X445803Y282575D01*
X445803Y282435D01*
X445807Y282295D01*
X445815Y282156D01*
X445827Y282017D01*
X445843Y281878D01*
X445863Y281739D01*
X445886Y281602D01*
X445914Y281464D01*
X445945Y281328D01*
X445980Y281193D01*
X446019Y281059D01*
X446062Y280926D01*
X446109Y280794D01*
X446159Y280663D01*
X446213Y280535D01*
X446271Y280407D01*
X446332Y280281D01*
X446397Y280158D01*
X446465Y280036D01*
X446536Y279915D01*
X446611Y279797D01*
X446690Y279682D01*
X446771Y279568D01*
X446856Y279457D01*
X446944Y279348D01*
X447034Y279242D01*
X447128Y279138D01*
X447225Y279037D01*
X447325Y278939D01*
X447427Y278844D01*
X447532Y278752D01*
X447639Y278662D01*
X447749Y278576D01*
X447862Y278493D01*
X447976Y278413D01*
X448093Y278336D01*
X448212Y278263D01*
X448333Y278193D01*
X448456Y278127D01*
X448581Y278064D01*
X448708Y278004D01*
X448836Y277949D01*
X448965Y277897D01*
X449097Y277848D01*
X449229Y277803D01*
X449363Y277762D01*
X449497Y277725D01*
X449633Y277692D01*
X449770Y277663D01*
X449907Y277637D01*
X450045Y277615D01*
X450184Y277598D01*
X450323Y277584D01*
X450463Y277574D01*
X450602Y277568D01*
X450742Y277566D01*
X455681Y277566D01*
X434253Y287444D02*
X434121Y287442D01*
X433990Y287436D01*
X433858Y287426D01*
X433727Y287413D01*
X433597Y287395D01*
X433467Y287374D01*
X433337Y287349D01*
X433209Y287320D01*
X433081Y287287D01*
X432955Y287250D01*
X432829Y287210D01*
X432705Y287166D01*
X432582Y287118D01*
X432461Y287067D01*
X432341Y287012D01*
X432223Y286954D01*
X432107Y286892D01*
X431993Y286826D01*
X431880Y286758D01*
X431770Y286686D01*
X431662Y286611D01*
X431556Y286532D01*
X431452Y286451D01*
X431351Y286366D01*
X431253Y286279D01*
X431157Y286188D01*
X431064Y286095D01*
X430973Y285999D01*
X430886Y285901D01*
X430801Y285800D01*
X430720Y285696D01*
X430641Y285590D01*
X430566Y285482D01*
X430494Y285372D01*
X430426Y285259D01*
X430360Y285145D01*
X430298Y285029D01*
X430240Y284911D01*
X430185Y284791D01*
X430134Y284670D01*
X430086Y284547D01*
X430042Y284423D01*
X430002Y284297D01*
X429965Y284171D01*
X429932Y284043D01*
X429903Y283915D01*
X429878Y283785D01*
X429857Y283655D01*
X429839Y283525D01*
X429826Y283394D01*
X429816Y283262D01*
X429810Y283131D01*
X429808Y282999D01*
X434253Y287445D02*
X434403Y287443D01*
X434552Y287437D01*
X434701Y287427D01*
X434850Y287414D01*
X434999Y287396D01*
X435147Y287375D01*
X435295Y287349D01*
X435441Y287320D01*
X435587Y287287D01*
X435732Y287250D01*
X435876Y287209D01*
X436019Y287165D01*
X436161Y287117D01*
X436301Y287065D01*
X436440Y287010D01*
X436578Y286951D01*
X436713Y286888D01*
X436848Y286822D01*
X436980Y286752D01*
X437110Y286679D01*
X437239Y286602D01*
X437366Y286522D01*
X437490Y286439D01*
X437612Y286353D01*
X437732Y286263D01*
X437849Y286170D01*
X437964Y286075D01*
X438077Y285976D01*
X438187Y285874D01*
X438294Y285770D01*
X438398Y285663D01*
X438500Y285553D01*
X438598Y285440D01*
X438694Y285325D01*
X438786Y285207D01*
X438876Y285087D01*
X438962Y284965D01*
X439045Y284841D01*
X439125Y284714D01*
X439201Y284586D01*
X439274Y284455D01*
X439344Y284322D01*
X439410Y284188D01*
X439472Y284052D01*
X439531Y283915D01*
X439587Y283776D01*
X439638Y283635D01*
X439686Y283494D01*
X431290Y279542D02*
X431194Y279635D01*
X431102Y279731D01*
X431012Y279830D01*
X430925Y279931D01*
X430841Y280034D01*
X430759Y280139D01*
X430681Y280247D01*
X430606Y280357D01*
X430533Y280469D01*
X430464Y280583D01*
X430398Y280699D01*
X430336Y280817D01*
X430277Y280936D01*
X430221Y281057D01*
X430168Y281180D01*
X430119Y281304D01*
X430074Y281429D01*
X430031Y281556D01*
X429993Y281683D01*
X429958Y281812D01*
X429927Y281941D01*
X429899Y282072D01*
X429875Y282203D01*
X429854Y282335D01*
X429838Y282467D01*
X429825Y282600D01*
X429815Y282733D01*
X429810Y282866D01*
X429808Y282999D01*
X431290Y279542D02*
X439686Y269664D01*
X429808Y269664D01*
X417438Y276579D02*
X417438Y282505D01*
X417438Y276579D02*
X413981Y272134D01*
X417438Y276579D02*
X420895Y272134D01*
X417438Y276579D02*
X412005Y278554D01*
X417438Y276579D02*
X422871Y278554D01*
X359136Y233490D02*
X359136Y215710D01*
X359136Y233490D02*
X354198Y233490D01*
X354058Y233488D01*
X353919Y233482D01*
X353779Y233472D01*
X353640Y233458D01*
X353501Y233441D01*
X353363Y233419D01*
X353226Y233393D01*
X353089Y233364D01*
X352953Y233331D01*
X352819Y233294D01*
X352685Y233253D01*
X352553Y233208D01*
X352421Y233159D01*
X352292Y233107D01*
X352164Y233052D01*
X352037Y232992D01*
X351912Y232929D01*
X351789Y232863D01*
X351668Y232793D01*
X351549Y232720D01*
X351432Y232643D01*
X351318Y232563D01*
X351205Y232480D01*
X351095Y232394D01*
X350988Y232304D01*
X350883Y232212D01*
X350781Y232117D01*
X350681Y232019D01*
X350584Y231918D01*
X350490Y231814D01*
X350400Y231708D01*
X350312Y231599D01*
X350227Y231488D01*
X350146Y231374D01*
X350067Y231259D01*
X349992Y231141D01*
X349921Y231021D01*
X349853Y230898D01*
X349788Y230775D01*
X349727Y230649D01*
X349669Y230521D01*
X349615Y230393D01*
X349565Y230262D01*
X349518Y230130D01*
X349475Y229997D01*
X349436Y229863D01*
X349401Y229728D01*
X349370Y229592D01*
X349342Y229454D01*
X349319Y229317D01*
X349299Y229178D01*
X349283Y229039D01*
X349271Y228900D01*
X349263Y228761D01*
X349259Y228621D01*
X349259Y228481D01*
X349263Y228341D01*
X349271Y228202D01*
X349283Y228063D01*
X349299Y227924D01*
X349319Y227785D01*
X349342Y227648D01*
X349370Y227510D01*
X349401Y227374D01*
X349436Y227239D01*
X349475Y227105D01*
X349518Y226972D01*
X349565Y226840D01*
X349615Y226709D01*
X349669Y226581D01*
X349727Y226453D01*
X349788Y226327D01*
X349853Y226204D01*
X349921Y226081D01*
X349992Y225961D01*
X350067Y225843D01*
X350146Y225728D01*
X350227Y225614D01*
X350312Y225503D01*
X350400Y225394D01*
X350490Y225288D01*
X350584Y225184D01*
X350681Y225083D01*
X350781Y224985D01*
X350883Y224890D01*
X350988Y224798D01*
X351095Y224708D01*
X351205Y224622D01*
X351318Y224539D01*
X351432Y224459D01*
X351549Y224382D01*
X351668Y224309D01*
X351789Y224239D01*
X351912Y224173D01*
X352037Y224110D01*
X352164Y224050D01*
X352292Y223995D01*
X352421Y223943D01*
X352553Y223894D01*
X352685Y223849D01*
X352819Y223808D01*
X352953Y223771D01*
X353089Y223738D01*
X353226Y223709D01*
X353363Y223683D01*
X353501Y223661D01*
X353640Y223644D01*
X353779Y223630D01*
X353919Y223620D01*
X354058Y223614D01*
X354198Y223612D01*
X359136Y223612D01*
X343141Y215710D02*
X338202Y215710D01*
X338062Y215712D01*
X337923Y215718D01*
X337783Y215728D01*
X337644Y215742D01*
X337505Y215759D01*
X337367Y215781D01*
X337230Y215807D01*
X337093Y215836D01*
X336957Y215869D01*
X336823Y215906D01*
X336689Y215947D01*
X336557Y215992D01*
X336425Y216041D01*
X336296Y216093D01*
X336168Y216148D01*
X336041Y216208D01*
X335916Y216271D01*
X335793Y216337D01*
X335672Y216407D01*
X335553Y216480D01*
X335436Y216557D01*
X335322Y216637D01*
X335209Y216720D01*
X335099Y216806D01*
X334992Y216896D01*
X334887Y216988D01*
X334785Y217083D01*
X334685Y217181D01*
X334588Y217282D01*
X334494Y217386D01*
X334404Y217492D01*
X334316Y217601D01*
X334231Y217712D01*
X334150Y217826D01*
X334071Y217941D01*
X333996Y218059D01*
X333925Y218179D01*
X333857Y218302D01*
X333792Y218425D01*
X333731Y218551D01*
X333673Y218679D01*
X333619Y218807D01*
X333569Y218938D01*
X333522Y219070D01*
X333479Y219203D01*
X333440Y219337D01*
X333405Y219472D01*
X333374Y219608D01*
X333346Y219746D01*
X333323Y219883D01*
X333303Y220022D01*
X333287Y220161D01*
X333275Y220300D01*
X333267Y220439D01*
X333263Y220579D01*
X333263Y220719D01*
X333267Y220859D01*
X333275Y220998D01*
X333287Y221137D01*
X333303Y221276D01*
X333323Y221415D01*
X333346Y221552D01*
X333374Y221690D01*
X333405Y221826D01*
X333440Y221961D01*
X333479Y222095D01*
X333522Y222228D01*
X333569Y222360D01*
X333619Y222491D01*
X333673Y222619D01*
X333731Y222747D01*
X333792Y222873D01*
X333857Y222996D01*
X333925Y223119D01*
X333996Y223239D01*
X334071Y223357D01*
X334150Y223472D01*
X334231Y223586D01*
X334316Y223697D01*
X334404Y223806D01*
X334494Y223912D01*
X334588Y224016D01*
X334685Y224117D01*
X334785Y224215D01*
X334887Y224310D01*
X334992Y224402D01*
X335099Y224492D01*
X335209Y224578D01*
X335322Y224661D01*
X335436Y224741D01*
X335553Y224818D01*
X335672Y224891D01*
X335793Y224961D01*
X335916Y225027D01*
X336041Y225090D01*
X336168Y225150D01*
X336296Y225205D01*
X336425Y225257D01*
X336557Y225306D01*
X336689Y225351D01*
X336823Y225392D01*
X336957Y225429D01*
X337093Y225462D01*
X337230Y225491D01*
X337367Y225517D01*
X337505Y225539D01*
X337644Y225556D01*
X337783Y225570D01*
X337923Y225580D01*
X338062Y225586D01*
X338202Y225588D01*
X337215Y233490D02*
X343141Y233490D01*
X337215Y233490D02*
X337091Y233488D01*
X336967Y233482D01*
X336843Y233472D01*
X336720Y233459D01*
X336597Y233441D01*
X336475Y233420D01*
X336353Y233395D01*
X336232Y233366D01*
X336113Y233333D01*
X335994Y233297D01*
X335877Y233256D01*
X335761Y233213D01*
X335646Y233165D01*
X335533Y233114D01*
X335421Y233059D01*
X335312Y233001D01*
X335204Y232940D01*
X335098Y232875D01*
X334994Y232807D01*
X334893Y232735D01*
X334793Y232661D01*
X334697Y232583D01*
X334602Y232503D01*
X334510Y232419D01*
X334421Y232333D01*
X334335Y232244D01*
X334251Y232152D01*
X334171Y232057D01*
X334093Y231961D01*
X334019Y231861D01*
X333947Y231760D01*
X333879Y231656D01*
X333814Y231550D01*
X333753Y231442D01*
X333695Y231333D01*
X333640Y231221D01*
X333589Y231108D01*
X333541Y230993D01*
X333498Y230877D01*
X333457Y230760D01*
X333421Y230641D01*
X333388Y230522D01*
X333359Y230401D01*
X333334Y230279D01*
X333313Y230157D01*
X333295Y230034D01*
X333282Y229911D01*
X333272Y229787D01*
X333266Y229663D01*
X333264Y229539D01*
X333266Y229415D01*
X333272Y229291D01*
X333282Y229167D01*
X333295Y229044D01*
X333313Y228921D01*
X333334Y228799D01*
X333359Y228677D01*
X333388Y228556D01*
X333421Y228437D01*
X333457Y228318D01*
X333498Y228201D01*
X333541Y228085D01*
X333589Y227970D01*
X333640Y227857D01*
X333695Y227745D01*
X333753Y227636D01*
X333814Y227528D01*
X333879Y227422D01*
X333947Y227318D01*
X334019Y227217D01*
X334093Y227117D01*
X334171Y227021D01*
X334251Y226926D01*
X334335Y226834D01*
X334421Y226745D01*
X334510Y226659D01*
X334602Y226575D01*
X334697Y226495D01*
X334793Y226417D01*
X334893Y226343D01*
X334994Y226271D01*
X335098Y226203D01*
X335204Y226138D01*
X335312Y226077D01*
X335421Y226019D01*
X335533Y225964D01*
X335646Y225913D01*
X335761Y225865D01*
X335877Y225822D01*
X335994Y225781D01*
X336113Y225745D01*
X336232Y225712D01*
X336353Y225683D01*
X336475Y225658D01*
X336597Y225637D01*
X336720Y225619D01*
X336843Y225606D01*
X336967Y225596D01*
X337091Y225590D01*
X337215Y225588D01*
X341166Y225588D01*
X259809Y270896D02*
X259809Y288676D01*
X254870Y288676D01*
X254730Y288674D01*
X254591Y288668D01*
X254451Y288658D01*
X254312Y288644D01*
X254173Y288627D01*
X254035Y288605D01*
X253898Y288579D01*
X253761Y288550D01*
X253625Y288517D01*
X253491Y288480D01*
X253357Y288439D01*
X253225Y288394D01*
X253093Y288345D01*
X252964Y288293D01*
X252836Y288238D01*
X252709Y288178D01*
X252584Y288115D01*
X252461Y288049D01*
X252340Y287979D01*
X252221Y287906D01*
X252104Y287829D01*
X251990Y287749D01*
X251877Y287666D01*
X251767Y287580D01*
X251660Y287490D01*
X251555Y287398D01*
X251453Y287303D01*
X251353Y287205D01*
X251256Y287104D01*
X251162Y287000D01*
X251072Y286894D01*
X250984Y286785D01*
X250899Y286674D01*
X250818Y286560D01*
X250739Y286445D01*
X250664Y286327D01*
X250593Y286207D01*
X250525Y286084D01*
X250460Y285961D01*
X250399Y285835D01*
X250341Y285707D01*
X250287Y285579D01*
X250237Y285448D01*
X250190Y285316D01*
X250147Y285183D01*
X250108Y285049D01*
X250073Y284914D01*
X250042Y284778D01*
X250014Y284640D01*
X249991Y284503D01*
X249971Y284364D01*
X249955Y284225D01*
X249943Y284086D01*
X249935Y283947D01*
X249931Y283807D01*
X249931Y283667D01*
X249935Y283527D01*
X249943Y283388D01*
X249955Y283249D01*
X249971Y283110D01*
X249991Y282971D01*
X250014Y282834D01*
X250042Y282696D01*
X250073Y282560D01*
X250108Y282425D01*
X250147Y282291D01*
X250190Y282158D01*
X250237Y282026D01*
X250287Y281895D01*
X250341Y281767D01*
X250399Y281639D01*
X250460Y281513D01*
X250525Y281390D01*
X250593Y281268D01*
X250664Y281147D01*
X250739Y281029D01*
X250818Y280914D01*
X250899Y280800D01*
X250984Y280689D01*
X251072Y280580D01*
X251162Y280474D01*
X251256Y280370D01*
X251353Y280269D01*
X251453Y280171D01*
X251555Y280076D01*
X251660Y279984D01*
X251767Y279894D01*
X251877Y279808D01*
X251990Y279725D01*
X252104Y279645D01*
X252221Y279568D01*
X252340Y279495D01*
X252461Y279425D01*
X252584Y279359D01*
X252709Y279296D01*
X252836Y279236D01*
X252964Y279181D01*
X253093Y279129D01*
X253225Y279080D01*
X253357Y279035D01*
X253491Y278994D01*
X253625Y278957D01*
X253761Y278924D01*
X253898Y278895D01*
X254035Y278869D01*
X254173Y278847D01*
X254312Y278830D01*
X254451Y278816D01*
X254591Y278806D01*
X254730Y278800D01*
X254870Y278798D01*
X259809Y278798D01*
X243814Y274847D02*
X239863Y288676D01*
X243814Y274847D02*
X233937Y274847D01*
X236900Y278798D02*
X236900Y270896D01*
X254386Y390300D02*
X254386Y408080D01*
X249448Y408080D01*
X249308Y408078D01*
X249169Y408072D01*
X249029Y408062D01*
X248890Y408048D01*
X248751Y408031D01*
X248613Y408009D01*
X248476Y407983D01*
X248339Y407954D01*
X248203Y407921D01*
X248069Y407884D01*
X247935Y407843D01*
X247803Y407798D01*
X247671Y407749D01*
X247542Y407697D01*
X247414Y407642D01*
X247287Y407582D01*
X247162Y407519D01*
X247039Y407453D01*
X246918Y407383D01*
X246799Y407310D01*
X246682Y407233D01*
X246568Y407153D01*
X246455Y407070D01*
X246345Y406984D01*
X246238Y406894D01*
X246133Y406802D01*
X246031Y406707D01*
X245931Y406609D01*
X245834Y406508D01*
X245740Y406404D01*
X245650Y406298D01*
X245562Y406189D01*
X245477Y406078D01*
X245396Y405964D01*
X245317Y405849D01*
X245242Y405731D01*
X245171Y405611D01*
X245103Y405488D01*
X245038Y405365D01*
X244977Y405239D01*
X244919Y405111D01*
X244865Y404983D01*
X244815Y404852D01*
X244768Y404720D01*
X244725Y404587D01*
X244686Y404453D01*
X244651Y404318D01*
X244620Y404182D01*
X244592Y404044D01*
X244569Y403907D01*
X244549Y403768D01*
X244533Y403629D01*
X244521Y403490D01*
X244513Y403351D01*
X244509Y403211D01*
X244509Y403071D01*
X244513Y402931D01*
X244521Y402792D01*
X244533Y402653D01*
X244549Y402514D01*
X244569Y402375D01*
X244592Y402238D01*
X244620Y402100D01*
X244651Y401964D01*
X244686Y401829D01*
X244725Y401695D01*
X244768Y401562D01*
X244815Y401430D01*
X244865Y401299D01*
X244919Y401171D01*
X244977Y401043D01*
X245038Y400917D01*
X245103Y400794D01*
X245171Y400672D01*
X245242Y400551D01*
X245317Y400433D01*
X245396Y400318D01*
X245477Y400204D01*
X245562Y400093D01*
X245650Y399984D01*
X245740Y399878D01*
X245834Y399774D01*
X245931Y399673D01*
X246031Y399575D01*
X246133Y399480D01*
X246238Y399388D01*
X246345Y399298D01*
X246455Y399212D01*
X246568Y399129D01*
X246682Y399049D01*
X246799Y398972D01*
X246918Y398899D01*
X247039Y398829D01*
X247162Y398763D01*
X247287Y398700D01*
X247414Y398640D01*
X247542Y398585D01*
X247671Y398533D01*
X247803Y398484D01*
X247935Y398439D01*
X248069Y398398D01*
X248203Y398361D01*
X248339Y398328D01*
X248476Y398299D01*
X248613Y398273D01*
X248751Y398251D01*
X248890Y398234D01*
X249029Y398220D01*
X249169Y398210D01*
X249308Y398204D01*
X249448Y398202D01*
X254386Y398202D01*
X238391Y390300D02*
X232465Y390300D01*
X232341Y390302D01*
X232217Y390308D01*
X232093Y390318D01*
X231970Y390331D01*
X231847Y390349D01*
X231725Y390370D01*
X231603Y390395D01*
X231482Y390424D01*
X231363Y390457D01*
X231244Y390493D01*
X231127Y390534D01*
X231011Y390577D01*
X230896Y390625D01*
X230783Y390676D01*
X230671Y390731D01*
X230562Y390789D01*
X230454Y390850D01*
X230348Y390915D01*
X230244Y390983D01*
X230143Y391055D01*
X230043Y391129D01*
X229947Y391207D01*
X229852Y391287D01*
X229760Y391371D01*
X229671Y391457D01*
X229585Y391546D01*
X229501Y391638D01*
X229421Y391733D01*
X229343Y391829D01*
X229269Y391929D01*
X229197Y392030D01*
X229129Y392134D01*
X229064Y392240D01*
X229003Y392348D01*
X228945Y392457D01*
X228890Y392569D01*
X228839Y392682D01*
X228791Y392797D01*
X228748Y392913D01*
X228707Y393030D01*
X228671Y393149D01*
X228638Y393268D01*
X228609Y393389D01*
X228584Y393511D01*
X228563Y393633D01*
X228545Y393756D01*
X228532Y393879D01*
X228522Y394003D01*
X228516Y394127D01*
X228514Y394251D01*
X228514Y396227D01*
X228516Y396351D01*
X228522Y396475D01*
X228532Y396599D01*
X228545Y396722D01*
X228563Y396845D01*
X228584Y396967D01*
X228609Y397089D01*
X228638Y397210D01*
X228671Y397329D01*
X228707Y397448D01*
X228748Y397565D01*
X228791Y397681D01*
X228839Y397796D01*
X228890Y397909D01*
X228945Y398021D01*
X229003Y398130D01*
X229064Y398238D01*
X229129Y398344D01*
X229197Y398448D01*
X229269Y398549D01*
X229343Y398649D01*
X229421Y398745D01*
X229501Y398840D01*
X229585Y398932D01*
X229671Y399021D01*
X229760Y399107D01*
X229852Y399191D01*
X229947Y399271D01*
X230043Y399349D01*
X230143Y399423D01*
X230244Y399495D01*
X230348Y399563D01*
X230454Y399628D01*
X230562Y399689D01*
X230671Y399747D01*
X230783Y399802D01*
X230896Y399853D01*
X231011Y399901D01*
X231127Y399944D01*
X231244Y399985D01*
X231363Y400021D01*
X231482Y400054D01*
X231603Y400083D01*
X231725Y400108D01*
X231847Y400129D01*
X231970Y400147D01*
X232093Y400160D01*
X232217Y400170D01*
X232341Y400176D01*
X232465Y400178D01*
X238391Y400178D01*
X238391Y408080D01*
X228514Y408080D01*
X359136Y458910D02*
X359136Y476690D01*
X354198Y476690D01*
X354058Y476688D01*
X353919Y476682D01*
X353779Y476672D01*
X353640Y476658D01*
X353501Y476641D01*
X353363Y476619D01*
X353226Y476593D01*
X353089Y476564D01*
X352953Y476531D01*
X352819Y476494D01*
X352685Y476453D01*
X352553Y476408D01*
X352421Y476359D01*
X352292Y476307D01*
X352164Y476252D01*
X352037Y476192D01*
X351912Y476129D01*
X351789Y476063D01*
X351668Y475993D01*
X351549Y475920D01*
X351432Y475843D01*
X351318Y475763D01*
X351205Y475680D01*
X351095Y475594D01*
X350988Y475504D01*
X350883Y475412D01*
X350781Y475317D01*
X350681Y475219D01*
X350584Y475118D01*
X350490Y475014D01*
X350400Y474908D01*
X350312Y474799D01*
X350227Y474688D01*
X350146Y474574D01*
X350067Y474459D01*
X349992Y474341D01*
X349921Y474221D01*
X349853Y474098D01*
X349788Y473975D01*
X349727Y473849D01*
X349669Y473721D01*
X349615Y473593D01*
X349565Y473462D01*
X349518Y473330D01*
X349475Y473197D01*
X349436Y473063D01*
X349401Y472928D01*
X349370Y472792D01*
X349342Y472654D01*
X349319Y472517D01*
X349299Y472378D01*
X349283Y472239D01*
X349271Y472100D01*
X349263Y471961D01*
X349259Y471821D01*
X349259Y471681D01*
X349263Y471541D01*
X349271Y471402D01*
X349283Y471263D01*
X349299Y471124D01*
X349319Y470985D01*
X349342Y470848D01*
X349370Y470710D01*
X349401Y470574D01*
X349436Y470439D01*
X349475Y470305D01*
X349518Y470172D01*
X349565Y470040D01*
X349615Y469909D01*
X349669Y469781D01*
X349727Y469653D01*
X349788Y469527D01*
X349853Y469404D01*
X349921Y469282D01*
X349992Y469161D01*
X350067Y469043D01*
X350146Y468928D01*
X350227Y468814D01*
X350312Y468703D01*
X350400Y468594D01*
X350490Y468488D01*
X350584Y468384D01*
X350681Y468283D01*
X350781Y468185D01*
X350883Y468090D01*
X350988Y467998D01*
X351095Y467908D01*
X351205Y467822D01*
X351318Y467739D01*
X351432Y467659D01*
X351549Y467582D01*
X351668Y467509D01*
X351789Y467439D01*
X351912Y467373D01*
X352037Y467310D01*
X352164Y467250D01*
X352292Y467195D01*
X352421Y467143D01*
X352553Y467094D01*
X352685Y467049D01*
X352819Y467008D01*
X352953Y466971D01*
X353089Y466938D01*
X353226Y466909D01*
X353363Y466883D01*
X353501Y466861D01*
X353640Y466844D01*
X353779Y466830D01*
X353919Y466820D01*
X354058Y466814D01*
X354198Y466812D01*
X359136Y466812D01*
X343141Y468788D02*
X337215Y468788D01*
X337091Y468786D01*
X336967Y468780D01*
X336843Y468770D01*
X336720Y468757D01*
X336597Y468739D01*
X336475Y468718D01*
X336353Y468693D01*
X336232Y468664D01*
X336113Y468631D01*
X335994Y468595D01*
X335877Y468554D01*
X335761Y468511D01*
X335646Y468463D01*
X335533Y468412D01*
X335421Y468357D01*
X335312Y468299D01*
X335204Y468238D01*
X335098Y468173D01*
X334994Y468105D01*
X334893Y468033D01*
X334793Y467959D01*
X334697Y467881D01*
X334602Y467801D01*
X334510Y467717D01*
X334421Y467631D01*
X334335Y467542D01*
X334251Y467450D01*
X334171Y467355D01*
X334093Y467259D01*
X334019Y467159D01*
X333947Y467058D01*
X333879Y466954D01*
X333814Y466848D01*
X333753Y466740D01*
X333695Y466631D01*
X333640Y466519D01*
X333589Y466406D01*
X333541Y466291D01*
X333498Y466175D01*
X333457Y466058D01*
X333421Y465939D01*
X333388Y465820D01*
X333359Y465699D01*
X333334Y465577D01*
X333313Y465455D01*
X333295Y465332D01*
X333282Y465209D01*
X333272Y465085D01*
X333266Y464961D01*
X333264Y464837D01*
X333264Y463849D01*
X333263Y463849D02*
X333265Y463709D01*
X333271Y463570D01*
X333281Y463430D01*
X333295Y463291D01*
X333312Y463152D01*
X333334Y463014D01*
X333360Y462877D01*
X333389Y462740D01*
X333422Y462604D01*
X333459Y462470D01*
X333500Y462336D01*
X333545Y462204D01*
X333594Y462072D01*
X333646Y461943D01*
X333701Y461815D01*
X333761Y461688D01*
X333824Y461563D01*
X333890Y461440D01*
X333960Y461319D01*
X334033Y461200D01*
X334110Y461083D01*
X334190Y460969D01*
X334273Y460856D01*
X334359Y460746D01*
X334449Y460639D01*
X334541Y460534D01*
X334636Y460432D01*
X334734Y460332D01*
X334835Y460235D01*
X334939Y460141D01*
X335045Y460051D01*
X335154Y459963D01*
X335265Y459878D01*
X335379Y459797D01*
X335494Y459718D01*
X335612Y459643D01*
X335733Y459572D01*
X335855Y459504D01*
X335978Y459439D01*
X336104Y459378D01*
X336232Y459320D01*
X336360Y459266D01*
X336491Y459216D01*
X336623Y459169D01*
X336756Y459126D01*
X336890Y459087D01*
X337025Y459052D01*
X337161Y459021D01*
X337299Y458993D01*
X337436Y458970D01*
X337575Y458950D01*
X337714Y458934D01*
X337853Y458922D01*
X337992Y458914D01*
X338132Y458910D01*
X338272Y458910D01*
X338412Y458914D01*
X338551Y458922D01*
X338690Y458934D01*
X338829Y458950D01*
X338968Y458970D01*
X339105Y458993D01*
X339243Y459021D01*
X339379Y459052D01*
X339514Y459087D01*
X339648Y459126D01*
X339781Y459169D01*
X339913Y459216D01*
X340044Y459266D01*
X340172Y459320D01*
X340300Y459378D01*
X340426Y459439D01*
X340549Y459504D01*
X340672Y459572D01*
X340792Y459643D01*
X340910Y459718D01*
X341025Y459797D01*
X341139Y459878D01*
X341250Y459963D01*
X341359Y460051D01*
X341465Y460141D01*
X341569Y460235D01*
X341670Y460332D01*
X341768Y460432D01*
X341863Y460534D01*
X341955Y460639D01*
X342045Y460746D01*
X342131Y460856D01*
X342214Y460969D01*
X342294Y461083D01*
X342371Y461200D01*
X342444Y461319D01*
X342514Y461440D01*
X342580Y461563D01*
X342643Y461688D01*
X342703Y461815D01*
X342758Y461943D01*
X342810Y462072D01*
X342859Y462204D01*
X342904Y462336D01*
X342945Y462470D01*
X342982Y462604D01*
X343015Y462740D01*
X343044Y462877D01*
X343070Y463014D01*
X343092Y463152D01*
X343109Y463291D01*
X343123Y463430D01*
X343133Y463570D01*
X343139Y463709D01*
X343141Y463849D01*
X343141Y468788D01*
X343139Y468982D01*
X343131Y469176D01*
X343120Y469369D01*
X343103Y469563D01*
X343082Y469755D01*
X343055Y469947D01*
X343025Y470139D01*
X342989Y470330D01*
X342949Y470519D01*
X342904Y470708D01*
X342855Y470896D01*
X342801Y471082D01*
X342742Y471267D01*
X342679Y471450D01*
X342612Y471632D01*
X342540Y471812D01*
X342463Y471990D01*
X342382Y472167D01*
X342297Y472341D01*
X342208Y472513D01*
X342114Y472683D01*
X342017Y472850D01*
X341915Y473016D01*
X341809Y473178D01*
X341700Y473338D01*
X341586Y473495D01*
X341469Y473650D01*
X341347Y473801D01*
X341222Y473949D01*
X341094Y474095D01*
X340962Y474237D01*
X340827Y474376D01*
X340688Y474511D01*
X340546Y474643D01*
X340400Y474771D01*
X340252Y474896D01*
X340101Y475017D01*
X339946Y475135D01*
X339789Y475249D01*
X339629Y475358D01*
X339467Y475464D01*
X339301Y475566D01*
X339134Y475663D01*
X338964Y475757D01*
X338792Y475846D01*
X338618Y475931D01*
X338441Y476012D01*
X338263Y476088D01*
X338083Y476160D01*
X337901Y476228D01*
X337718Y476291D01*
X337533Y476350D01*
X337347Y476404D01*
X337159Y476453D01*
X336970Y476498D01*
X336781Y476538D01*
X336590Y476574D01*
X336399Y476604D01*
X336206Y476631D01*
X336014Y476652D01*
X335820Y476669D01*
X335627Y476680D01*
X335433Y476688D01*
X335239Y476690D01*
X396115Y254523D02*
X396115Y236743D01*
X396115Y246621D02*
X386238Y246621D01*
X386238Y254523D02*
X386238Y236743D01*
X378807Y245633D02*
X378803Y245983D01*
X378790Y246332D01*
X378769Y246681D01*
X378740Y247030D01*
X378703Y247378D01*
X378657Y247725D01*
X378603Y248070D01*
X378541Y248414D01*
X378470Y248757D01*
X378391Y249098D01*
X378305Y249437D01*
X378210Y249773D01*
X378107Y250108D01*
X377996Y250439D01*
X377878Y250769D01*
X377751Y251095D01*
X377617Y251418D01*
X377475Y251737D01*
X377325Y252054D01*
X377285Y252167D01*
X377241Y252277D01*
X377193Y252387D01*
X377142Y252494D01*
X377087Y252600D01*
X377029Y252705D01*
X376967Y252807D01*
X376902Y252907D01*
X376834Y253005D01*
X376763Y253101D01*
X376688Y253194D01*
X376611Y253285D01*
X376531Y253373D01*
X376448Y253458D01*
X376362Y253541D01*
X376273Y253621D01*
X376182Y253698D01*
X376088Y253772D01*
X375992Y253843D01*
X375894Y253911D01*
X375794Y253975D01*
X375691Y254037D01*
X375587Y254094D01*
X375481Y254149D01*
X375373Y254200D01*
X375263Y254247D01*
X375152Y254291D01*
X375040Y254331D01*
X374926Y254367D01*
X374812Y254400D01*
X374696Y254429D01*
X374579Y254454D01*
X374462Y254475D01*
X374344Y254493D01*
X374225Y254506D01*
X374106Y254516D01*
X373987Y254522D01*
X373868Y254524D01*
X373868Y254523D02*
X373749Y254521D01*
X373630Y254515D01*
X373511Y254505D01*
X373392Y254492D01*
X373274Y254474D01*
X373157Y254453D01*
X373040Y254428D01*
X372924Y254399D01*
X372810Y254366D01*
X372696Y254330D01*
X372584Y254290D01*
X372473Y254246D01*
X372363Y254199D01*
X372255Y254148D01*
X372149Y254093D01*
X372045Y254036D01*
X371942Y253974D01*
X371842Y253910D01*
X371744Y253842D01*
X371648Y253771D01*
X371554Y253697D01*
X371463Y253620D01*
X371374Y253540D01*
X371289Y253457D01*
X371205Y253372D01*
X371125Y253284D01*
X371048Y253193D01*
X370973Y253100D01*
X370902Y253004D01*
X370834Y252906D01*
X370769Y252806D01*
X370707Y252704D01*
X370649Y252599D01*
X370594Y252494D01*
X370543Y252386D01*
X370495Y252276D01*
X370451Y252166D01*
X370411Y252053D01*
X370411Y252054D02*
X370261Y251737D01*
X370119Y251418D01*
X369985Y251095D01*
X369858Y250769D01*
X369740Y250439D01*
X369629Y250108D01*
X369526Y249773D01*
X369431Y249437D01*
X369345Y249098D01*
X369266Y248757D01*
X369195Y248414D01*
X369133Y248070D01*
X369079Y247725D01*
X369033Y247378D01*
X368996Y247030D01*
X368967Y246681D01*
X368946Y246332D01*
X368933Y245983D01*
X368929Y245633D01*
X378806Y245633D02*
X378802Y245283D01*
X378789Y244934D01*
X378768Y244585D01*
X378739Y244236D01*
X378702Y243888D01*
X378656Y243541D01*
X378602Y243196D01*
X378540Y242852D01*
X378469Y242509D01*
X378390Y242168D01*
X378304Y241829D01*
X378209Y241493D01*
X378106Y241158D01*
X377995Y240827D01*
X377877Y240498D01*
X377750Y240171D01*
X377616Y239848D01*
X377474Y239529D01*
X377324Y239213D01*
X377325Y239213D02*
X377285Y239100D01*
X377241Y238990D01*
X377193Y238880D01*
X377142Y238773D01*
X377087Y238667D01*
X377029Y238562D01*
X376967Y238460D01*
X376902Y238360D01*
X376834Y238262D01*
X376763Y238166D01*
X376688Y238073D01*
X376611Y237982D01*
X376531Y237894D01*
X376448Y237809D01*
X376362Y237726D01*
X376273Y237646D01*
X376182Y237569D01*
X376088Y237495D01*
X375992Y237424D01*
X375894Y237356D01*
X375794Y237292D01*
X375691Y237230D01*
X375587Y237173D01*
X375481Y237118D01*
X375373Y237067D01*
X375263Y237020D01*
X375152Y236976D01*
X375040Y236936D01*
X374926Y236900D01*
X374812Y236867D01*
X374696Y236838D01*
X374579Y236813D01*
X374462Y236792D01*
X374344Y236774D01*
X374225Y236761D01*
X374106Y236751D01*
X373987Y236745D01*
X373868Y236743D01*
X370411Y239213D02*
X370261Y239529D01*
X370119Y239848D01*
X369985Y240171D01*
X369858Y240498D01*
X369740Y240827D01*
X369629Y241158D01*
X369526Y241493D01*
X369431Y241829D01*
X369345Y242168D01*
X369266Y242509D01*
X369195Y242852D01*
X369133Y243196D01*
X369079Y243541D01*
X369033Y243888D01*
X368996Y244236D01*
X368967Y244585D01*
X368946Y244934D01*
X368933Y245283D01*
X368929Y245633D01*
X370411Y239213D02*
X370451Y239100D01*
X370495Y238990D01*
X370543Y238880D01*
X370594Y238772D01*
X370649Y238666D01*
X370707Y238562D01*
X370769Y238460D01*
X370834Y238360D01*
X370902Y238262D01*
X370973Y238166D01*
X371048Y238073D01*
X371125Y237982D01*
X371205Y237894D01*
X371289Y237809D01*
X371374Y237726D01*
X371463Y237646D01*
X371554Y237569D01*
X371648Y237495D01*
X371744Y237424D01*
X371842Y237356D01*
X371942Y237292D01*
X372045Y237230D01*
X372149Y237172D01*
X372255Y237118D01*
X372363Y237067D01*
X372473Y237020D01*
X372584Y236976D01*
X372696Y236936D01*
X372810Y236900D01*
X372924Y236867D01*
X373040Y236838D01*
X373157Y236813D01*
X373274Y236792D01*
X373392Y236774D01*
X373511Y236761D01*
X373630Y236751D01*
X373749Y236745D01*
X373868Y236743D01*
X377819Y240694D02*
X369917Y250572D01*
X358105Y244645D02*
X352178Y244645D01*
X358105Y244646D02*
X358229Y244648D01*
X358353Y244654D01*
X358477Y244664D01*
X358600Y244677D01*
X358723Y244695D01*
X358845Y244716D01*
X358967Y244741D01*
X359088Y244770D01*
X359207Y244803D01*
X359326Y244839D01*
X359443Y244880D01*
X359559Y244923D01*
X359674Y244971D01*
X359787Y245022D01*
X359899Y245077D01*
X360008Y245135D01*
X360116Y245196D01*
X360222Y245261D01*
X360326Y245329D01*
X360427Y245401D01*
X360527Y245475D01*
X360623Y245553D01*
X360718Y245633D01*
X360810Y245717D01*
X360899Y245803D01*
X360985Y245892D01*
X361069Y245984D01*
X361149Y246079D01*
X361227Y246175D01*
X361301Y246275D01*
X361373Y246376D01*
X361441Y246480D01*
X361506Y246586D01*
X361567Y246694D01*
X361625Y246803D01*
X361680Y246915D01*
X361731Y247028D01*
X361779Y247143D01*
X361822Y247259D01*
X361863Y247376D01*
X361899Y247495D01*
X361932Y247614D01*
X361961Y247735D01*
X361986Y247857D01*
X362007Y247979D01*
X362025Y248102D01*
X362038Y248225D01*
X362048Y248349D01*
X362054Y248473D01*
X362056Y248597D01*
X362056Y249584D01*
X362054Y249724D01*
X362048Y249863D01*
X362038Y250003D01*
X362024Y250142D01*
X362007Y250281D01*
X361985Y250419D01*
X361959Y250556D01*
X361930Y250693D01*
X361897Y250829D01*
X361860Y250963D01*
X361819Y251097D01*
X361774Y251229D01*
X361725Y251361D01*
X361673Y251490D01*
X361618Y251618D01*
X361558Y251745D01*
X361495Y251870D01*
X361429Y251993D01*
X361359Y252114D01*
X361286Y252233D01*
X361209Y252350D01*
X361129Y252464D01*
X361046Y252577D01*
X360960Y252687D01*
X360870Y252794D01*
X360778Y252899D01*
X360683Y253001D01*
X360585Y253101D01*
X360484Y253198D01*
X360380Y253292D01*
X360274Y253382D01*
X360165Y253470D01*
X360054Y253555D01*
X359940Y253636D01*
X359825Y253715D01*
X359707Y253790D01*
X359587Y253861D01*
X359464Y253929D01*
X359341Y253994D01*
X359215Y254055D01*
X359087Y254113D01*
X358959Y254167D01*
X358828Y254217D01*
X358696Y254264D01*
X358563Y254307D01*
X358429Y254346D01*
X358294Y254381D01*
X358158Y254412D01*
X358020Y254440D01*
X357883Y254463D01*
X357744Y254483D01*
X357605Y254499D01*
X357466Y254511D01*
X357327Y254519D01*
X357187Y254523D01*
X357047Y254523D01*
X356907Y254519D01*
X356768Y254511D01*
X356629Y254499D01*
X356490Y254483D01*
X356351Y254463D01*
X356214Y254440D01*
X356076Y254412D01*
X355940Y254381D01*
X355805Y254346D01*
X355671Y254307D01*
X355538Y254264D01*
X355406Y254217D01*
X355275Y254167D01*
X355147Y254113D01*
X355019Y254055D01*
X354893Y253994D01*
X354770Y253929D01*
X354648Y253861D01*
X354527Y253790D01*
X354409Y253715D01*
X354294Y253636D01*
X354180Y253555D01*
X354069Y253470D01*
X353960Y253382D01*
X353854Y253292D01*
X353750Y253198D01*
X353649Y253101D01*
X353551Y253001D01*
X353456Y252899D01*
X353364Y252794D01*
X353274Y252687D01*
X353188Y252577D01*
X353105Y252464D01*
X353025Y252350D01*
X352948Y252233D01*
X352875Y252114D01*
X352805Y251993D01*
X352739Y251870D01*
X352676Y251745D01*
X352616Y251618D01*
X352561Y251490D01*
X352509Y251361D01*
X352460Y251229D01*
X352415Y251097D01*
X352374Y250963D01*
X352337Y250829D01*
X352304Y250693D01*
X352275Y250556D01*
X352249Y250419D01*
X352227Y250281D01*
X352210Y250142D01*
X352196Y250003D01*
X352186Y249863D01*
X352180Y249724D01*
X352178Y249584D01*
X352178Y244645D01*
X352179Y244645D02*
X352181Y244454D01*
X352188Y244263D01*
X352200Y244073D01*
X352216Y243882D01*
X352237Y243693D01*
X352262Y243503D01*
X352292Y243315D01*
X352326Y243127D01*
X352365Y242940D01*
X352409Y242754D01*
X352457Y242569D01*
X352509Y242385D01*
X352566Y242203D01*
X352627Y242022D01*
X352693Y241843D01*
X352762Y241665D01*
X352837Y241489D01*
X352915Y241315D01*
X352997Y241143D01*
X353084Y240973D01*
X353175Y240805D01*
X353270Y240639D01*
X353369Y240476D01*
X353471Y240315D01*
X353578Y240156D01*
X353688Y240000D01*
X353802Y239847D01*
X353920Y239697D01*
X354041Y239549D01*
X354166Y239405D01*
X354295Y239264D01*
X354426Y239125D01*
X354561Y238990D01*
X354700Y238859D01*
X354841Y238730D01*
X354985Y238605D01*
X355133Y238484D01*
X355283Y238366D01*
X355436Y238252D01*
X355592Y238142D01*
X355751Y238035D01*
X355912Y237933D01*
X356075Y237834D01*
X356241Y237739D01*
X356409Y237648D01*
X356579Y237561D01*
X356751Y237479D01*
X356925Y237401D01*
X357101Y237326D01*
X357279Y237257D01*
X357458Y237191D01*
X357639Y237130D01*
X357821Y237073D01*
X358005Y237021D01*
X358190Y236973D01*
X358376Y236929D01*
X358563Y236890D01*
X358751Y236856D01*
X358939Y236826D01*
X359129Y236801D01*
X359318Y236780D01*
X359509Y236764D01*
X359699Y236752D01*
X359890Y236745D01*
X360081Y236743D01*
X344662Y236743D02*
X344662Y254523D01*
X339723Y254523D01*
X339583Y254521D01*
X339444Y254515D01*
X339304Y254505D01*
X339165Y254491D01*
X339026Y254474D01*
X338888Y254452D01*
X338751Y254426D01*
X338614Y254397D01*
X338478Y254364D01*
X338344Y254327D01*
X338210Y254286D01*
X338078Y254241D01*
X337946Y254192D01*
X337817Y254140D01*
X337689Y254085D01*
X337562Y254025D01*
X337437Y253962D01*
X337314Y253896D01*
X337193Y253826D01*
X337074Y253753D01*
X336957Y253676D01*
X336843Y253596D01*
X336730Y253513D01*
X336620Y253427D01*
X336513Y253337D01*
X336408Y253245D01*
X336306Y253150D01*
X336206Y253052D01*
X336109Y252951D01*
X336015Y252847D01*
X335925Y252741D01*
X335837Y252632D01*
X335752Y252521D01*
X335671Y252407D01*
X335592Y252292D01*
X335517Y252174D01*
X335446Y252054D01*
X335378Y251931D01*
X335313Y251808D01*
X335252Y251682D01*
X335194Y251554D01*
X335140Y251426D01*
X335090Y251295D01*
X335043Y251163D01*
X335000Y251030D01*
X334961Y250896D01*
X334926Y250761D01*
X334895Y250625D01*
X334867Y250487D01*
X334844Y250350D01*
X334824Y250211D01*
X334808Y250072D01*
X334796Y249933D01*
X334788Y249794D01*
X334784Y249654D01*
X334784Y249514D01*
X334788Y249374D01*
X334796Y249235D01*
X334808Y249096D01*
X334824Y248957D01*
X334844Y248818D01*
X334867Y248681D01*
X334895Y248543D01*
X334926Y248407D01*
X334961Y248272D01*
X335000Y248138D01*
X335043Y248005D01*
X335090Y247873D01*
X335140Y247742D01*
X335194Y247614D01*
X335252Y247486D01*
X335313Y247360D01*
X335378Y247237D01*
X335446Y247114D01*
X335517Y246994D01*
X335592Y246876D01*
X335671Y246761D01*
X335752Y246647D01*
X335837Y246536D01*
X335925Y246427D01*
X336015Y246321D01*
X336109Y246217D01*
X336206Y246116D01*
X336306Y246018D01*
X336408Y245923D01*
X336513Y245831D01*
X336620Y245741D01*
X336730Y245655D01*
X336843Y245572D01*
X336957Y245492D01*
X337074Y245415D01*
X337193Y245342D01*
X337314Y245272D01*
X337437Y245206D01*
X337562Y245143D01*
X337689Y245083D01*
X337817Y245028D01*
X337946Y244976D01*
X338078Y244927D01*
X338210Y244882D01*
X338344Y244841D01*
X338478Y244804D01*
X338614Y244771D01*
X338751Y244742D01*
X338888Y244716D01*
X339026Y244694D01*
X339165Y244677D01*
X339304Y244663D01*
X339444Y244653D01*
X339583Y244647D01*
X339723Y244645D01*
X344662Y244645D01*
X338735Y244645D02*
X334784Y236743D01*
X324046Y244645D02*
X318119Y244645D01*
X324046Y244646D02*
X324170Y244648D01*
X324294Y244654D01*
X324418Y244664D01*
X324541Y244677D01*
X324664Y244695D01*
X324786Y244716D01*
X324908Y244741D01*
X325029Y244770D01*
X325148Y244803D01*
X325267Y244839D01*
X325384Y244880D01*
X325500Y244923D01*
X325615Y244971D01*
X325728Y245022D01*
X325840Y245077D01*
X325949Y245135D01*
X326057Y245196D01*
X326163Y245261D01*
X326267Y245329D01*
X326368Y245401D01*
X326468Y245475D01*
X326564Y245553D01*
X326659Y245633D01*
X326751Y245717D01*
X326840Y245803D01*
X326926Y245892D01*
X327010Y245984D01*
X327090Y246079D01*
X327168Y246175D01*
X327242Y246275D01*
X327314Y246376D01*
X327382Y246480D01*
X327447Y246586D01*
X327508Y246694D01*
X327566Y246803D01*
X327621Y246915D01*
X327672Y247028D01*
X327720Y247143D01*
X327763Y247259D01*
X327804Y247376D01*
X327840Y247495D01*
X327873Y247614D01*
X327902Y247735D01*
X327927Y247857D01*
X327948Y247979D01*
X327966Y248102D01*
X327979Y248225D01*
X327989Y248349D01*
X327995Y248473D01*
X327997Y248597D01*
X327997Y249584D01*
X327995Y249724D01*
X327989Y249863D01*
X327979Y250003D01*
X327965Y250142D01*
X327948Y250281D01*
X327926Y250419D01*
X327900Y250556D01*
X327871Y250693D01*
X327838Y250829D01*
X327801Y250963D01*
X327760Y251097D01*
X327715Y251229D01*
X327666Y251361D01*
X327614Y251490D01*
X327559Y251618D01*
X327499Y251745D01*
X327436Y251870D01*
X327370Y251993D01*
X327300Y252114D01*
X327227Y252233D01*
X327150Y252350D01*
X327070Y252464D01*
X326987Y252577D01*
X326901Y252687D01*
X326811Y252794D01*
X326719Y252899D01*
X326624Y253001D01*
X326526Y253101D01*
X326425Y253198D01*
X326321Y253292D01*
X326215Y253382D01*
X326106Y253470D01*
X325995Y253555D01*
X325881Y253636D01*
X325766Y253715D01*
X325648Y253790D01*
X325528Y253861D01*
X325405Y253929D01*
X325282Y253994D01*
X325156Y254055D01*
X325028Y254113D01*
X324900Y254167D01*
X324769Y254217D01*
X324637Y254264D01*
X324504Y254307D01*
X324370Y254346D01*
X324235Y254381D01*
X324099Y254412D01*
X323961Y254440D01*
X323824Y254463D01*
X323685Y254483D01*
X323546Y254499D01*
X323407Y254511D01*
X323268Y254519D01*
X323128Y254523D01*
X322988Y254523D01*
X322848Y254519D01*
X322709Y254511D01*
X322570Y254499D01*
X322431Y254483D01*
X322292Y254463D01*
X322155Y254440D01*
X322017Y254412D01*
X321881Y254381D01*
X321746Y254346D01*
X321612Y254307D01*
X321479Y254264D01*
X321347Y254217D01*
X321216Y254167D01*
X321088Y254113D01*
X320960Y254055D01*
X320834Y253994D01*
X320711Y253929D01*
X320589Y253861D01*
X320468Y253790D01*
X320350Y253715D01*
X320235Y253636D01*
X320121Y253555D01*
X320010Y253470D01*
X319901Y253382D01*
X319795Y253292D01*
X319691Y253198D01*
X319590Y253101D01*
X319492Y253001D01*
X319397Y252899D01*
X319305Y252794D01*
X319215Y252687D01*
X319129Y252577D01*
X319046Y252464D01*
X318966Y252350D01*
X318889Y252233D01*
X318816Y252114D01*
X318746Y251993D01*
X318680Y251870D01*
X318617Y251745D01*
X318557Y251618D01*
X318502Y251490D01*
X318450Y251361D01*
X318401Y251229D01*
X318356Y251097D01*
X318315Y250963D01*
X318278Y250829D01*
X318245Y250693D01*
X318216Y250556D01*
X318190Y250419D01*
X318168Y250281D01*
X318151Y250142D01*
X318137Y250003D01*
X318127Y249863D01*
X318121Y249724D01*
X318119Y249584D01*
X318119Y244645D01*
X318121Y244454D01*
X318128Y244263D01*
X318140Y244073D01*
X318156Y243882D01*
X318177Y243693D01*
X318202Y243503D01*
X318232Y243315D01*
X318266Y243127D01*
X318305Y242940D01*
X318349Y242754D01*
X318397Y242569D01*
X318449Y242385D01*
X318506Y242203D01*
X318567Y242022D01*
X318633Y241843D01*
X318702Y241665D01*
X318777Y241489D01*
X318855Y241315D01*
X318937Y241143D01*
X319024Y240973D01*
X319115Y240805D01*
X319210Y240639D01*
X319309Y240476D01*
X319411Y240315D01*
X319518Y240156D01*
X319628Y240000D01*
X319742Y239847D01*
X319860Y239697D01*
X319981Y239549D01*
X320106Y239405D01*
X320235Y239264D01*
X320366Y239125D01*
X320501Y238990D01*
X320640Y238859D01*
X320781Y238730D01*
X320925Y238605D01*
X321073Y238484D01*
X321223Y238366D01*
X321376Y238252D01*
X321532Y238142D01*
X321691Y238035D01*
X321852Y237933D01*
X322015Y237834D01*
X322181Y237739D01*
X322349Y237648D01*
X322519Y237561D01*
X322691Y237479D01*
X322865Y237401D01*
X323041Y237326D01*
X323219Y237257D01*
X323398Y237191D01*
X323579Y237130D01*
X323761Y237073D01*
X323945Y237021D01*
X324130Y236973D01*
X324316Y236929D01*
X324503Y236890D01*
X324691Y236856D01*
X324879Y236826D01*
X325069Y236801D01*
X325258Y236780D01*
X325449Y236764D01*
X325639Y236752D01*
X325830Y236745D01*
X326021Y236743D01*
X311246Y245633D02*
X311242Y245983D01*
X311229Y246332D01*
X311208Y246681D01*
X311179Y247030D01*
X311142Y247378D01*
X311096Y247725D01*
X311042Y248070D01*
X310980Y248414D01*
X310909Y248757D01*
X310830Y249098D01*
X310744Y249437D01*
X310649Y249773D01*
X310546Y250108D01*
X310435Y250439D01*
X310317Y250769D01*
X310190Y251095D01*
X310056Y251418D01*
X309914Y251737D01*
X309764Y252054D01*
X309765Y252054D02*
X309725Y252167D01*
X309681Y252277D01*
X309633Y252387D01*
X309582Y252494D01*
X309527Y252600D01*
X309469Y252705D01*
X309407Y252807D01*
X309342Y252907D01*
X309274Y253005D01*
X309203Y253101D01*
X309128Y253194D01*
X309051Y253285D01*
X308971Y253373D01*
X308888Y253458D01*
X308802Y253541D01*
X308713Y253621D01*
X308622Y253698D01*
X308528Y253772D01*
X308432Y253843D01*
X308334Y253911D01*
X308234Y253975D01*
X308131Y254037D01*
X308027Y254094D01*
X307921Y254149D01*
X307813Y254200D01*
X307703Y254247D01*
X307592Y254291D01*
X307480Y254331D01*
X307366Y254367D01*
X307252Y254400D01*
X307136Y254429D01*
X307019Y254454D01*
X306902Y254475D01*
X306784Y254493D01*
X306665Y254506D01*
X306546Y254516D01*
X306427Y254522D01*
X306308Y254524D01*
X306308Y254523D02*
X306189Y254521D01*
X306070Y254515D01*
X305951Y254505D01*
X305832Y254492D01*
X305714Y254474D01*
X305597Y254453D01*
X305480Y254428D01*
X305364Y254399D01*
X305250Y254366D01*
X305136Y254330D01*
X305024Y254290D01*
X304913Y254246D01*
X304803Y254199D01*
X304695Y254148D01*
X304589Y254093D01*
X304485Y254036D01*
X304382Y253974D01*
X304282Y253910D01*
X304184Y253842D01*
X304088Y253771D01*
X303994Y253697D01*
X303903Y253620D01*
X303814Y253540D01*
X303729Y253457D01*
X303645Y253372D01*
X303565Y253284D01*
X303488Y253193D01*
X303413Y253100D01*
X303342Y253004D01*
X303274Y252906D01*
X303209Y252806D01*
X303147Y252704D01*
X303089Y252599D01*
X303034Y252494D01*
X302983Y252386D01*
X302935Y252276D01*
X302891Y252166D01*
X302851Y252053D01*
X302851Y252054D02*
X302701Y251737D01*
X302559Y251418D01*
X302425Y251095D01*
X302298Y250769D01*
X302180Y250439D01*
X302069Y250108D01*
X301966Y249773D01*
X301871Y249437D01*
X301785Y249098D01*
X301706Y248757D01*
X301635Y248414D01*
X301573Y248070D01*
X301519Y247725D01*
X301473Y247378D01*
X301436Y247030D01*
X301407Y246681D01*
X301386Y246332D01*
X301373Y245983D01*
X301369Y245633D01*
X311246Y245633D02*
X311242Y245283D01*
X311229Y244934D01*
X311208Y244585D01*
X311179Y244236D01*
X311142Y243888D01*
X311096Y243541D01*
X311042Y243196D01*
X310980Y242852D01*
X310909Y242509D01*
X310830Y242168D01*
X310744Y241829D01*
X310649Y241493D01*
X310546Y241158D01*
X310435Y240827D01*
X310317Y240498D01*
X310190Y240171D01*
X310056Y239848D01*
X309914Y239529D01*
X309764Y239213D01*
X309765Y239213D02*
X309725Y239100D01*
X309681Y238990D01*
X309633Y238880D01*
X309582Y238773D01*
X309527Y238667D01*
X309469Y238562D01*
X309407Y238460D01*
X309342Y238360D01*
X309274Y238262D01*
X309203Y238166D01*
X309128Y238073D01*
X309051Y237982D01*
X308971Y237894D01*
X308888Y237809D01*
X308802Y237726D01*
X308713Y237646D01*
X308622Y237569D01*
X308528Y237495D01*
X308432Y237424D01*
X308334Y237356D01*
X308234Y237292D01*
X308131Y237230D01*
X308027Y237173D01*
X307921Y237118D01*
X307813Y237067D01*
X307703Y237020D01*
X307592Y236976D01*
X307480Y236936D01*
X307366Y236900D01*
X307252Y236867D01*
X307136Y236838D01*
X307019Y236813D01*
X306902Y236792D01*
X306784Y236774D01*
X306665Y236761D01*
X306546Y236751D01*
X306427Y236745D01*
X306308Y236743D01*
X302851Y239213D02*
X302701Y239529D01*
X302559Y239848D01*
X302425Y240171D01*
X302298Y240498D01*
X302180Y240827D01*
X302069Y241158D01*
X301966Y241493D01*
X301871Y241829D01*
X301785Y242168D01*
X301706Y242509D01*
X301635Y242852D01*
X301573Y243196D01*
X301519Y243541D01*
X301473Y243888D01*
X301436Y244236D01*
X301407Y244585D01*
X301386Y244934D01*
X301373Y245283D01*
X301369Y245633D01*
X302851Y239213D02*
X302891Y239100D01*
X302935Y238990D01*
X302983Y238880D01*
X303034Y238772D01*
X303089Y238666D01*
X303147Y238562D01*
X303209Y238460D01*
X303274Y238360D01*
X303342Y238262D01*
X303413Y238166D01*
X303488Y238073D01*
X303565Y237982D01*
X303645Y237894D01*
X303729Y237809D01*
X303814Y237726D01*
X303903Y237646D01*
X303994Y237569D01*
X304088Y237495D01*
X304184Y237424D01*
X304282Y237356D01*
X304382Y237292D01*
X304485Y237230D01*
X304589Y237172D01*
X304695Y237118D01*
X304803Y237067D01*
X304913Y237020D01*
X305024Y236976D01*
X305136Y236936D01*
X305250Y236900D01*
X305364Y236867D01*
X305480Y236838D01*
X305597Y236813D01*
X305714Y236792D01*
X305832Y236774D01*
X305951Y236761D01*
X306070Y236751D01*
X306189Y236745D01*
X306308Y236743D01*
X310259Y240694D02*
X302356Y250572D01*
X423415Y341123D02*
X443544Y341123D01*
D12*
X428644Y328817D02*
X428644Y326728D01*
X428646Y326639D01*
X428652Y326551D01*
X428661Y326463D01*
X428674Y326375D01*
X428691Y326288D01*
X428711Y326202D01*
X428736Y326117D01*
X428763Y326032D01*
X428795Y325949D01*
X428829Y325868D01*
X428868Y325788D01*
X428909Y325710D01*
X428954Y325633D01*
X429002Y325559D01*
X429053Y325486D01*
X429107Y325416D01*
X429165Y325349D01*
X429225Y325283D01*
X429287Y325221D01*
X429353Y325161D01*
X429420Y325103D01*
X429490Y325049D01*
X429563Y324998D01*
X429637Y324950D01*
X429714Y324905D01*
X429792Y324864D01*
X429872Y324825D01*
X429953Y324791D01*
X430036Y324759D01*
X430121Y324732D01*
X430206Y324707D01*
X430292Y324687D01*
X430379Y324670D01*
X430467Y324657D01*
X430555Y324648D01*
X430643Y324642D01*
X430732Y324640D01*
X435953Y324640D01*
X436044Y324642D01*
X436135Y324648D01*
X436226Y324658D01*
X436316Y324672D01*
X436405Y324689D01*
X436493Y324711D01*
X436581Y324737D01*
X436667Y324766D01*
X436752Y324799D01*
X436835Y324836D01*
X436917Y324876D01*
X436997Y324920D01*
X437075Y324967D01*
X437151Y325018D01*
X437224Y325071D01*
X437295Y325128D01*
X437364Y325189D01*
X437429Y325252D01*
X437492Y325317D01*
X437552Y325386D01*
X437610Y325457D01*
X437663Y325530D01*
X437714Y325606D01*
X437761Y325684D01*
X437805Y325764D01*
X437845Y325846D01*
X437882Y325929D01*
X437915Y326014D01*
X437944Y326100D01*
X437970Y326188D01*
X437992Y326276D01*
X438009Y326365D01*
X438023Y326455D01*
X438033Y326546D01*
X438039Y326637D01*
X438041Y326728D01*
X438042Y326728D02*
X438042Y328817D01*
X438042Y335157D02*
X438040Y335252D01*
X438034Y335346D01*
X438025Y335440D01*
X438012Y335534D01*
X437995Y335627D01*
X437974Y335719D01*
X437949Y335811D01*
X437921Y335901D01*
X437889Y335990D01*
X437854Y336078D01*
X437815Y336164D01*
X437773Y336249D01*
X437727Y336332D01*
X437678Y336413D01*
X437626Y336492D01*
X437571Y336569D01*
X437512Y336643D01*
X437451Y336715D01*
X437387Y336785D01*
X437320Y336852D01*
X437250Y336916D01*
X437178Y336977D01*
X437104Y337036D01*
X437027Y337091D01*
X436948Y337143D01*
X436867Y337192D01*
X436784Y337238D01*
X436699Y337280D01*
X436613Y337319D01*
X436525Y337354D01*
X436436Y337386D01*
X436346Y337414D01*
X436254Y337439D01*
X436162Y337460D01*
X436069Y337477D01*
X435975Y337490D01*
X435881Y337499D01*
X435787Y337505D01*
X435692Y337507D01*
X438041Y335157D02*
X438039Y335049D01*
X438033Y334940D01*
X438023Y334832D01*
X438010Y334725D01*
X437992Y334618D01*
X437971Y334511D01*
X437946Y334406D01*
X437917Y334301D01*
X437885Y334198D01*
X437848Y334096D01*
X437808Y333995D01*
X437765Y333896D01*
X437718Y333798D01*
X437667Y333702D01*
X437613Y333608D01*
X437556Y333516D01*
X437495Y333426D01*
X437431Y333338D01*
X437365Y333253D01*
X437295Y333170D01*
X437222Y333090D01*
X437146Y333012D01*
X437068Y332937D01*
X436987Y332865D01*
X436903Y332796D01*
X436817Y332730D01*
X436729Y332667D01*
X436638Y332608D01*
X436546Y332551D01*
X436451Y332498D01*
X436355Y332449D01*
X436256Y332403D01*
X436157Y332360D01*
X436055Y332321D01*
X435953Y332286D01*
X433864Y336724D02*
X433933Y336793D01*
X434004Y336859D01*
X434077Y336923D01*
X434153Y336984D01*
X434232Y337042D01*
X434312Y337096D01*
X434395Y337148D01*
X434479Y337196D01*
X434565Y337242D01*
X434653Y337283D01*
X434743Y337322D01*
X434834Y337357D01*
X434926Y337388D01*
X435019Y337416D01*
X435113Y337440D01*
X435208Y337460D01*
X435304Y337477D01*
X435401Y337490D01*
X435498Y337499D01*
X435595Y337505D01*
X435692Y337507D01*
X433865Y336723D02*
X428644Y332286D01*
X428644Y337507D01*
D13*
X378662Y430812D02*
X373662Y435812D01*
X308662Y365822D02*
X308662Y365812D01*
X383432Y428462D02*
X383434Y428551D01*
X383440Y428640D01*
X383450Y428729D01*
X383464Y428817D01*
X383481Y428904D01*
X383503Y428990D01*
X383529Y429076D01*
X383558Y429160D01*
X383591Y429243D01*
X383627Y429324D01*
X383668Y429404D01*
X383711Y429481D01*
X383758Y429557D01*
X383809Y429630D01*
X383862Y429701D01*
X383919Y429770D01*
X383979Y429836D01*
X384042Y429900D01*
X384107Y429960D01*
X384175Y430018D01*
X384246Y430072D01*
X384319Y430123D01*
X384394Y430171D01*
X384471Y430216D01*
X384550Y430257D01*
X384631Y430294D01*
X384713Y430328D01*
X384797Y430359D01*
X384882Y430385D01*
X384968Y430408D01*
X385055Y430426D01*
X385143Y430441D01*
X385232Y430452D01*
X385321Y430459D01*
X385410Y430462D01*
X385499Y430461D01*
X385588Y430456D01*
X385676Y430447D01*
X385765Y430434D01*
X385852Y430417D01*
X385939Y430397D01*
X386025Y430372D01*
X386109Y430344D01*
X386192Y430312D01*
X386274Y430276D01*
X386354Y430237D01*
X386432Y430194D01*
X386508Y430148D01*
X386582Y430098D01*
X386654Y430045D01*
X386723Y429989D01*
X386790Y429930D01*
X386854Y429868D01*
X386915Y429804D01*
X386974Y429736D01*
X387029Y429666D01*
X387081Y429594D01*
X387130Y429519D01*
X387175Y429443D01*
X387217Y429364D01*
X387255Y429284D01*
X387290Y429202D01*
X387321Y429118D01*
X387349Y429033D01*
X387372Y428947D01*
X387392Y428860D01*
X387408Y428773D01*
X387420Y428684D01*
X387428Y428596D01*
X387432Y428507D01*
X387432Y428417D01*
X387428Y428328D01*
X387420Y428240D01*
X387408Y428151D01*
X387392Y428064D01*
X387372Y427977D01*
X387349Y427891D01*
X387321Y427806D01*
X387290Y427722D01*
X387255Y427640D01*
X387217Y427560D01*
X387175Y427481D01*
X387130Y427405D01*
X387081Y427330D01*
X387029Y427258D01*
X386974Y427188D01*
X386915Y427120D01*
X386854Y427056D01*
X386790Y426994D01*
X386723Y426935D01*
X386654Y426879D01*
X386582Y426826D01*
X386508Y426776D01*
X386432Y426730D01*
X386354Y426687D01*
X386274Y426648D01*
X386192Y426612D01*
X386109Y426580D01*
X386025Y426552D01*
X385939Y426527D01*
X385852Y426507D01*
X385765Y426490D01*
X385676Y426477D01*
X385588Y426468D01*
X385499Y426463D01*
X385410Y426462D01*
X385321Y426465D01*
X385232Y426472D01*
X385143Y426483D01*
X385055Y426498D01*
X384968Y426516D01*
X384882Y426539D01*
X384797Y426565D01*
X384713Y426596D01*
X384631Y426630D01*
X384550Y426667D01*
X384471Y426708D01*
X384394Y426753D01*
X384319Y426801D01*
X384246Y426852D01*
X384175Y426906D01*
X384107Y426964D01*
X384042Y427024D01*
X383979Y427088D01*
X383919Y427154D01*
X383862Y427223D01*
X383809Y427294D01*
X383758Y427367D01*
X383711Y427443D01*
X383668Y427520D01*
X383627Y427600D01*
X383591Y427681D01*
X383558Y427764D01*
X383529Y427848D01*
X383503Y427934D01*
X383481Y428020D01*
X383464Y428107D01*
X383450Y428195D01*
X383440Y428284D01*
X383434Y428373D01*
X383432Y428462D01*
X308702Y435822D02*
X308702Y435832D01*
X313402Y435832D01*
X313362Y365822D02*
X308662Y365822D01*
X308702Y431132D02*
X308702Y435822D01*
X308652Y370512D02*
X308652Y365812D01*
X373982Y365812D02*
X378682Y365812D01*
X378682Y365802D02*
X378682Y370502D01*
D12*
X320117Y444634D02*
X320117Y451421D01*
X320117Y444634D02*
X320115Y444533D01*
X320109Y444432D01*
X320099Y444331D01*
X320086Y444231D01*
X320068Y444131D01*
X320047Y444032D01*
X320021Y443934D01*
X319992Y443837D01*
X319960Y443741D01*
X319923Y443647D01*
X319883Y443554D01*
X319839Y443462D01*
X319792Y443373D01*
X319741Y443285D01*
X319687Y443199D01*
X319630Y443116D01*
X319570Y443034D01*
X319506Y442956D01*
X319440Y442879D01*
X319370Y442806D01*
X319298Y442735D01*
X319223Y442667D01*
X319145Y442602D01*
X319065Y442540D01*
X318983Y442481D01*
X318898Y442425D01*
X318811Y442373D01*
X318723Y442324D01*
X318632Y442278D01*
X318540Y442237D01*
X318446Y442198D01*
X318351Y442164D01*
X318255Y442133D01*
X318157Y442106D01*
X318059Y442082D01*
X317959Y442063D01*
X317859Y442047D01*
X317759Y442035D01*
X317658Y442027D01*
X317557Y442023D01*
X317455Y442023D01*
X317354Y442027D01*
X317253Y442035D01*
X317153Y442047D01*
X317053Y442063D01*
X316953Y442082D01*
X316855Y442106D01*
X316757Y442133D01*
X316661Y442164D01*
X316566Y442198D01*
X316472Y442237D01*
X316380Y442278D01*
X316289Y442324D01*
X316201Y442373D01*
X316114Y442425D01*
X316029Y442481D01*
X315947Y442540D01*
X315867Y442602D01*
X315789Y442667D01*
X315714Y442735D01*
X315642Y442806D01*
X315572Y442879D01*
X315506Y442956D01*
X315442Y443034D01*
X315382Y443116D01*
X315325Y443199D01*
X315271Y443285D01*
X315220Y443373D01*
X315173Y443462D01*
X315129Y443554D01*
X315089Y443647D01*
X315052Y443741D01*
X315020Y443837D01*
X314991Y443934D01*
X314965Y444032D01*
X314944Y444131D01*
X314926Y444231D01*
X314913Y444331D01*
X314903Y444432D01*
X314897Y444533D01*
X314895Y444634D01*
X314896Y444634D02*
X314896Y451421D01*
X310668Y449333D02*
X308058Y451421D01*
X308058Y442023D01*
X310668Y442023D02*
X305447Y442023D01*
D14*
X401795Y423400D02*
X401795Y387840D01*
X422115Y387840D01*
X422115Y423400D01*
X401795Y423400D01*
D12*
X424162Y384820D02*
X433560Y391085D01*
X433560Y384820D02*
X424162Y391085D01*
X431472Y394486D02*
X433560Y397096D01*
X424162Y397096D01*
X424162Y394486D02*
X424162Y399707D01*
D10*
X293672Y337645D02*
X293672Y317515D01*
D12*
X289486Y327604D02*
X287398Y327604D01*
X289486Y327605D02*
X289575Y327607D01*
X289663Y327613D01*
X289751Y327622D01*
X289839Y327635D01*
X289926Y327652D01*
X290012Y327672D01*
X290097Y327697D01*
X290182Y327724D01*
X290265Y327756D01*
X290346Y327790D01*
X290426Y327829D01*
X290504Y327870D01*
X290581Y327915D01*
X290655Y327963D01*
X290728Y328014D01*
X290798Y328068D01*
X290865Y328126D01*
X290931Y328186D01*
X290993Y328248D01*
X291053Y328314D01*
X291111Y328381D01*
X291165Y328451D01*
X291216Y328524D01*
X291264Y328598D01*
X291309Y328675D01*
X291350Y328753D01*
X291389Y328833D01*
X291423Y328914D01*
X291455Y328997D01*
X291482Y329082D01*
X291507Y329167D01*
X291527Y329253D01*
X291544Y329340D01*
X291557Y329428D01*
X291566Y329516D01*
X291572Y329604D01*
X291574Y329693D01*
X291574Y334914D01*
X291572Y335003D01*
X291566Y335091D01*
X291557Y335179D01*
X291544Y335267D01*
X291527Y335354D01*
X291507Y335440D01*
X291482Y335525D01*
X291455Y335610D01*
X291423Y335693D01*
X291389Y335774D01*
X291350Y335854D01*
X291309Y335932D01*
X291264Y336009D01*
X291216Y336083D01*
X291165Y336156D01*
X291111Y336226D01*
X291053Y336293D01*
X290993Y336359D01*
X290931Y336421D01*
X290865Y336481D01*
X290798Y336539D01*
X290728Y336593D01*
X290655Y336644D01*
X290581Y336692D01*
X290504Y336737D01*
X290426Y336778D01*
X290346Y336817D01*
X290265Y336851D01*
X290182Y336883D01*
X290097Y336910D01*
X290012Y336935D01*
X289926Y336955D01*
X289839Y336972D01*
X289751Y336985D01*
X289663Y336994D01*
X289575Y337000D01*
X289486Y337002D01*
X287398Y337002D01*
X283929Y327604D02*
X281318Y327604D01*
X281217Y327606D01*
X281116Y327612D01*
X281015Y327622D01*
X280915Y327635D01*
X280815Y327653D01*
X280716Y327674D01*
X280618Y327700D01*
X280521Y327729D01*
X280425Y327761D01*
X280331Y327798D01*
X280238Y327838D01*
X280146Y327882D01*
X280057Y327929D01*
X279969Y327980D01*
X279883Y328034D01*
X279800Y328091D01*
X279718Y328151D01*
X279640Y328215D01*
X279563Y328281D01*
X279490Y328351D01*
X279419Y328423D01*
X279351Y328498D01*
X279286Y328576D01*
X279224Y328656D01*
X279165Y328738D01*
X279109Y328823D01*
X279057Y328910D01*
X279008Y328998D01*
X278962Y329089D01*
X278921Y329181D01*
X278882Y329275D01*
X278848Y329370D01*
X278817Y329466D01*
X278790Y329564D01*
X278766Y329662D01*
X278747Y329762D01*
X278731Y329862D01*
X278719Y329962D01*
X278711Y330063D01*
X278707Y330164D01*
X278707Y330266D01*
X278711Y330367D01*
X278719Y330468D01*
X278731Y330568D01*
X278747Y330668D01*
X278766Y330768D01*
X278790Y330866D01*
X278817Y330964D01*
X278848Y331060D01*
X278882Y331155D01*
X278921Y331249D01*
X278962Y331341D01*
X279008Y331432D01*
X279057Y331521D01*
X279109Y331607D01*
X279165Y331692D01*
X279224Y331774D01*
X279286Y331854D01*
X279351Y331932D01*
X279419Y332007D01*
X279490Y332079D01*
X279563Y332149D01*
X279640Y332215D01*
X279718Y332279D01*
X279800Y332339D01*
X279883Y332396D01*
X279969Y332450D01*
X280057Y332501D01*
X280146Y332548D01*
X280238Y332592D01*
X280331Y332632D01*
X280425Y332669D01*
X280521Y332701D01*
X280618Y332730D01*
X280716Y332756D01*
X280815Y332777D01*
X280915Y332795D01*
X281015Y332808D01*
X281116Y332818D01*
X281217Y332824D01*
X281318Y332826D01*
X280796Y337002D02*
X283929Y337002D01*
X280796Y337002D02*
X280706Y337000D01*
X280617Y336994D01*
X280527Y336985D01*
X280438Y336971D01*
X280350Y336954D01*
X280263Y336933D01*
X280176Y336908D01*
X280091Y336879D01*
X280007Y336847D01*
X279925Y336812D01*
X279844Y336772D01*
X279765Y336730D01*
X279688Y336684D01*
X279613Y336634D01*
X279540Y336582D01*
X279469Y336526D01*
X279401Y336468D01*
X279336Y336406D01*
X279273Y336342D01*
X279213Y336275D01*
X279156Y336206D01*
X279102Y336134D01*
X279051Y336060D01*
X279003Y335984D01*
X278959Y335906D01*
X278918Y335826D01*
X278880Y335744D01*
X278846Y335661D01*
X278816Y335576D01*
X278789Y335490D01*
X278766Y335404D01*
X278747Y335316D01*
X278732Y335227D01*
X278720Y335138D01*
X278712Y335049D01*
X278708Y334959D01*
X278708Y334869D01*
X278712Y334779D01*
X278720Y334690D01*
X278732Y334601D01*
X278747Y334512D01*
X278766Y334424D01*
X278789Y334338D01*
X278816Y334252D01*
X278846Y334167D01*
X278880Y334084D01*
X278918Y334002D01*
X278959Y333922D01*
X279003Y333844D01*
X279051Y333768D01*
X279102Y333694D01*
X279156Y333622D01*
X279213Y333553D01*
X279273Y333486D01*
X279336Y333422D01*
X279401Y333360D01*
X279469Y333302D01*
X279540Y333246D01*
X279613Y333194D01*
X279688Y333144D01*
X279765Y333098D01*
X279844Y333056D01*
X279925Y333016D01*
X280007Y332981D01*
X280091Y332949D01*
X280176Y332920D01*
X280263Y332895D01*
X280350Y332874D01*
X280438Y332857D01*
X280527Y332843D01*
X280617Y332834D01*
X280706Y332828D01*
X280796Y332826D01*
X280796Y332825D02*
X282885Y332825D01*
D10*
X278590Y451076D02*
X258460Y451076D01*
D12*
X270564Y453454D02*
X272652Y453454D01*
X272741Y453456D01*
X272829Y453462D01*
X272917Y453471D01*
X273005Y453484D01*
X273092Y453501D01*
X273178Y453521D01*
X273263Y453546D01*
X273348Y453573D01*
X273431Y453605D01*
X273512Y453639D01*
X273592Y453678D01*
X273670Y453719D01*
X273747Y453764D01*
X273821Y453812D01*
X273894Y453863D01*
X273964Y453917D01*
X274031Y453975D01*
X274097Y454035D01*
X274159Y454097D01*
X274219Y454163D01*
X274277Y454230D01*
X274331Y454300D01*
X274382Y454373D01*
X274430Y454447D01*
X274475Y454524D01*
X274516Y454602D01*
X274555Y454682D01*
X274589Y454763D01*
X274621Y454846D01*
X274648Y454931D01*
X274673Y455016D01*
X274693Y455102D01*
X274710Y455189D01*
X274723Y455277D01*
X274732Y455365D01*
X274738Y455453D01*
X274740Y455542D01*
X274740Y460763D01*
X274738Y460852D01*
X274732Y460940D01*
X274723Y461028D01*
X274710Y461116D01*
X274693Y461203D01*
X274673Y461289D01*
X274648Y461374D01*
X274621Y461459D01*
X274589Y461542D01*
X274555Y461623D01*
X274516Y461703D01*
X274475Y461781D01*
X274430Y461858D01*
X274382Y461932D01*
X274331Y462005D01*
X274277Y462075D01*
X274219Y462142D01*
X274159Y462208D01*
X274097Y462270D01*
X274031Y462330D01*
X273964Y462388D01*
X273894Y462442D01*
X273821Y462493D01*
X273747Y462541D01*
X273670Y462586D01*
X273592Y462627D01*
X273512Y462666D01*
X273431Y462700D01*
X273348Y462732D01*
X273263Y462759D01*
X273178Y462784D01*
X273092Y462804D01*
X273005Y462821D01*
X272917Y462834D01*
X272829Y462843D01*
X272741Y462849D01*
X272652Y462851D01*
X272652Y462852D02*
X270564Y462852D01*
X265006Y462852D02*
X267095Y455542D01*
X261874Y455542D01*
X263440Y457630D02*
X263440Y453454D01*
X406311Y336403D02*
X406311Y334314D01*
X406312Y334314D02*
X406314Y334225D01*
X406320Y334137D01*
X406329Y334049D01*
X406342Y333961D01*
X406359Y333874D01*
X406379Y333788D01*
X406404Y333703D01*
X406431Y333618D01*
X406463Y333535D01*
X406497Y333454D01*
X406536Y333374D01*
X406577Y333296D01*
X406622Y333219D01*
X406670Y333145D01*
X406721Y333072D01*
X406775Y333002D01*
X406833Y332935D01*
X406893Y332869D01*
X406955Y332807D01*
X407021Y332747D01*
X407088Y332689D01*
X407158Y332635D01*
X407231Y332584D01*
X407305Y332536D01*
X407382Y332491D01*
X407460Y332450D01*
X407540Y332411D01*
X407621Y332377D01*
X407704Y332345D01*
X407789Y332318D01*
X407874Y332293D01*
X407960Y332273D01*
X408047Y332256D01*
X408135Y332243D01*
X408223Y332234D01*
X408311Y332228D01*
X408400Y332226D01*
X413621Y332226D01*
X413712Y332228D01*
X413803Y332234D01*
X413894Y332244D01*
X413984Y332258D01*
X414073Y332275D01*
X414161Y332297D01*
X414249Y332323D01*
X414335Y332352D01*
X414420Y332385D01*
X414503Y332422D01*
X414585Y332462D01*
X414665Y332506D01*
X414743Y332553D01*
X414819Y332604D01*
X414892Y332657D01*
X414963Y332714D01*
X415032Y332775D01*
X415097Y332838D01*
X415160Y332903D01*
X415220Y332972D01*
X415278Y333043D01*
X415331Y333116D01*
X415382Y333192D01*
X415429Y333270D01*
X415473Y333350D01*
X415513Y333432D01*
X415550Y333515D01*
X415583Y333600D01*
X415612Y333686D01*
X415638Y333774D01*
X415660Y333862D01*
X415677Y333951D01*
X415691Y334041D01*
X415701Y334132D01*
X415707Y334223D01*
X415709Y334314D01*
X415709Y336403D01*
X406311Y339871D02*
X406311Y343004D01*
X406312Y343004D02*
X406314Y343093D01*
X406320Y343181D01*
X406329Y343269D01*
X406342Y343357D01*
X406359Y343444D01*
X406379Y343530D01*
X406404Y343615D01*
X406431Y343700D01*
X406463Y343783D01*
X406497Y343864D01*
X406536Y343944D01*
X406577Y344022D01*
X406622Y344099D01*
X406670Y344173D01*
X406721Y344246D01*
X406775Y344316D01*
X406833Y344383D01*
X406893Y344449D01*
X406955Y344511D01*
X407021Y344571D01*
X407088Y344629D01*
X407158Y344683D01*
X407231Y344734D01*
X407305Y344782D01*
X407382Y344827D01*
X407460Y344868D01*
X407540Y344907D01*
X407621Y344941D01*
X407704Y344973D01*
X407789Y345000D01*
X407874Y345025D01*
X407960Y345045D01*
X408047Y345062D01*
X408135Y345075D01*
X408223Y345084D01*
X408311Y345090D01*
X408400Y345092D01*
X408400Y345093D02*
X409444Y345093D01*
X409444Y345092D02*
X409533Y345090D01*
X409621Y345084D01*
X409709Y345075D01*
X409797Y345062D01*
X409884Y345045D01*
X409970Y345025D01*
X410055Y345000D01*
X410140Y344973D01*
X410223Y344941D01*
X410304Y344907D01*
X410384Y344868D01*
X410462Y344827D01*
X410539Y344782D01*
X410613Y344734D01*
X410686Y344683D01*
X410756Y344629D01*
X410823Y344571D01*
X410889Y344511D01*
X410951Y344449D01*
X411011Y344383D01*
X411069Y344316D01*
X411123Y344246D01*
X411174Y344173D01*
X411222Y344099D01*
X411267Y344022D01*
X411308Y343944D01*
X411347Y343864D01*
X411381Y343783D01*
X411413Y343700D01*
X411440Y343615D01*
X411465Y343530D01*
X411485Y343444D01*
X411502Y343357D01*
X411515Y343269D01*
X411524Y343181D01*
X411530Y343093D01*
X411532Y343004D01*
X411532Y339871D01*
X415709Y339871D01*
X415709Y345093D01*
X381454Y454569D02*
X379366Y454569D01*
X381454Y454569D02*
X381543Y454571D01*
X381631Y454577D01*
X381719Y454586D01*
X381807Y454599D01*
X381894Y454616D01*
X381980Y454636D01*
X382065Y454661D01*
X382150Y454688D01*
X382233Y454720D01*
X382314Y454754D01*
X382394Y454793D01*
X382472Y454834D01*
X382549Y454879D01*
X382623Y454927D01*
X382696Y454978D01*
X382766Y455032D01*
X382833Y455090D01*
X382899Y455150D01*
X382961Y455212D01*
X383021Y455278D01*
X383079Y455345D01*
X383133Y455415D01*
X383184Y455488D01*
X383232Y455562D01*
X383277Y455639D01*
X383318Y455717D01*
X383357Y455797D01*
X383391Y455878D01*
X383423Y455961D01*
X383450Y456046D01*
X383475Y456131D01*
X383495Y456217D01*
X383512Y456304D01*
X383525Y456392D01*
X383534Y456480D01*
X383540Y456568D01*
X383542Y456657D01*
X383543Y456657D02*
X383543Y461878D01*
X383542Y461878D02*
X383540Y461967D01*
X383534Y462055D01*
X383525Y462143D01*
X383512Y462231D01*
X383495Y462318D01*
X383475Y462404D01*
X383450Y462489D01*
X383423Y462574D01*
X383391Y462657D01*
X383357Y462738D01*
X383318Y462818D01*
X383277Y462896D01*
X383232Y462973D01*
X383184Y463047D01*
X383133Y463120D01*
X383079Y463190D01*
X383021Y463257D01*
X382961Y463323D01*
X382899Y463385D01*
X382833Y463445D01*
X382766Y463503D01*
X382696Y463557D01*
X382623Y463608D01*
X382549Y463656D01*
X382472Y463701D01*
X382394Y463742D01*
X382314Y463781D01*
X382233Y463815D01*
X382150Y463847D01*
X382065Y463874D01*
X381980Y463899D01*
X381894Y463919D01*
X381807Y463936D01*
X381719Y463949D01*
X381631Y463958D01*
X381543Y463964D01*
X381454Y463966D01*
X381454Y463967D02*
X379366Y463967D01*
X375897Y459790D02*
X372764Y459790D01*
X372764Y459789D02*
X372675Y459787D01*
X372587Y459781D01*
X372499Y459772D01*
X372411Y459759D01*
X372324Y459742D01*
X372238Y459722D01*
X372153Y459697D01*
X372068Y459670D01*
X371985Y459638D01*
X371904Y459604D01*
X371824Y459565D01*
X371746Y459524D01*
X371669Y459479D01*
X371595Y459431D01*
X371522Y459380D01*
X371452Y459326D01*
X371385Y459268D01*
X371319Y459208D01*
X371257Y459146D01*
X371197Y459080D01*
X371139Y459013D01*
X371085Y458943D01*
X371034Y458870D01*
X370986Y458796D01*
X370941Y458719D01*
X370900Y458641D01*
X370861Y458561D01*
X370827Y458480D01*
X370795Y458397D01*
X370768Y458312D01*
X370743Y458227D01*
X370723Y458141D01*
X370706Y458054D01*
X370693Y457966D01*
X370684Y457878D01*
X370678Y457790D01*
X370676Y457701D01*
X370676Y457179D01*
X370675Y457179D02*
X370677Y457078D01*
X370683Y456977D01*
X370693Y456876D01*
X370706Y456776D01*
X370724Y456676D01*
X370745Y456577D01*
X370771Y456479D01*
X370800Y456382D01*
X370832Y456286D01*
X370869Y456192D01*
X370909Y456099D01*
X370953Y456007D01*
X371000Y455918D01*
X371051Y455830D01*
X371105Y455744D01*
X371162Y455661D01*
X371222Y455579D01*
X371286Y455501D01*
X371352Y455424D01*
X371422Y455351D01*
X371494Y455280D01*
X371569Y455212D01*
X371647Y455147D01*
X371727Y455085D01*
X371809Y455026D01*
X371894Y454970D01*
X371981Y454918D01*
X372069Y454869D01*
X372160Y454823D01*
X372252Y454782D01*
X372346Y454743D01*
X372441Y454709D01*
X372537Y454678D01*
X372635Y454651D01*
X372733Y454627D01*
X372833Y454608D01*
X372933Y454592D01*
X373033Y454580D01*
X373134Y454572D01*
X373235Y454568D01*
X373337Y454568D01*
X373438Y454572D01*
X373539Y454580D01*
X373639Y454592D01*
X373739Y454608D01*
X373839Y454627D01*
X373937Y454651D01*
X374035Y454678D01*
X374131Y454709D01*
X374226Y454743D01*
X374320Y454782D01*
X374412Y454823D01*
X374503Y454869D01*
X374591Y454918D01*
X374678Y454970D01*
X374763Y455026D01*
X374845Y455085D01*
X374925Y455147D01*
X375003Y455212D01*
X375078Y455280D01*
X375150Y455351D01*
X375220Y455424D01*
X375286Y455501D01*
X375350Y455579D01*
X375410Y455661D01*
X375467Y455744D01*
X375521Y455830D01*
X375572Y455918D01*
X375619Y456007D01*
X375663Y456099D01*
X375703Y456192D01*
X375740Y456286D01*
X375772Y456382D01*
X375801Y456479D01*
X375827Y456577D01*
X375848Y456676D01*
X375866Y456776D01*
X375879Y456876D01*
X375889Y456977D01*
X375895Y457078D01*
X375897Y457179D01*
X375897Y459790D01*
X375895Y459916D01*
X375889Y460042D01*
X375880Y460168D01*
X375867Y460293D01*
X375849Y460418D01*
X375829Y460543D01*
X375804Y460667D01*
X375776Y460790D01*
X375744Y460912D01*
X375708Y461033D01*
X375669Y461153D01*
X375626Y461271D01*
X375579Y461388D01*
X375529Y461504D01*
X375475Y461619D01*
X375419Y461731D01*
X375358Y461842D01*
X375295Y461951D01*
X375228Y462058D01*
X375158Y462163D01*
X375084Y462266D01*
X375008Y462366D01*
X374929Y462464D01*
X374847Y462560D01*
X374761Y462653D01*
X374674Y462744D01*
X374583Y462831D01*
X374490Y462917D01*
X374394Y462999D01*
X374296Y463078D01*
X374196Y463154D01*
X374093Y463228D01*
X373988Y463298D01*
X373881Y463365D01*
X373772Y463428D01*
X373661Y463489D01*
X373549Y463545D01*
X373434Y463599D01*
X373318Y463649D01*
X373201Y463696D01*
X373083Y463739D01*
X372963Y463778D01*
X372842Y463814D01*
X372720Y463846D01*
X372597Y463874D01*
X372473Y463899D01*
X372348Y463919D01*
X372223Y463937D01*
X372098Y463950D01*
X371972Y463959D01*
X371846Y463965D01*
X371720Y463967D01*
X293364Y453769D02*
X291276Y453769D01*
X293364Y453769D02*
X293453Y453771D01*
X293541Y453777D01*
X293629Y453786D01*
X293717Y453799D01*
X293804Y453816D01*
X293890Y453836D01*
X293975Y453861D01*
X294060Y453888D01*
X294143Y453920D01*
X294224Y453954D01*
X294304Y453993D01*
X294382Y454034D01*
X294459Y454079D01*
X294533Y454127D01*
X294606Y454178D01*
X294676Y454232D01*
X294743Y454290D01*
X294809Y454350D01*
X294871Y454412D01*
X294931Y454478D01*
X294989Y454545D01*
X295043Y454615D01*
X295094Y454688D01*
X295142Y454762D01*
X295187Y454839D01*
X295228Y454917D01*
X295267Y454997D01*
X295301Y455078D01*
X295333Y455161D01*
X295360Y455246D01*
X295385Y455331D01*
X295405Y455417D01*
X295422Y455504D01*
X295435Y455592D01*
X295444Y455680D01*
X295450Y455768D01*
X295452Y455857D01*
X295453Y455857D02*
X295453Y461078D01*
X295452Y461078D02*
X295450Y461167D01*
X295444Y461255D01*
X295435Y461343D01*
X295422Y461431D01*
X295405Y461518D01*
X295385Y461604D01*
X295360Y461689D01*
X295333Y461774D01*
X295301Y461857D01*
X295267Y461938D01*
X295228Y462018D01*
X295187Y462096D01*
X295142Y462173D01*
X295094Y462247D01*
X295043Y462320D01*
X294989Y462390D01*
X294931Y462457D01*
X294871Y462523D01*
X294809Y462585D01*
X294743Y462645D01*
X294676Y462703D01*
X294606Y462757D01*
X294533Y462808D01*
X294459Y462856D01*
X294382Y462901D01*
X294304Y462942D01*
X294224Y462981D01*
X294143Y463015D01*
X294060Y463047D01*
X293975Y463074D01*
X293890Y463099D01*
X293804Y463119D01*
X293717Y463136D01*
X293629Y463149D01*
X293541Y463158D01*
X293453Y463164D01*
X293364Y463166D01*
X293364Y463167D02*
X291276Y463167D01*
X287807Y463167D02*
X287807Y462122D01*
X287807Y463167D02*
X282586Y463167D01*
X285197Y453769D01*
X292463Y347043D02*
X294551Y347043D01*
X294551Y347044D02*
X294640Y347046D01*
X294728Y347052D01*
X294816Y347061D01*
X294904Y347074D01*
X294991Y347091D01*
X295077Y347111D01*
X295162Y347136D01*
X295247Y347163D01*
X295330Y347195D01*
X295411Y347229D01*
X295491Y347268D01*
X295569Y347309D01*
X295646Y347354D01*
X295720Y347402D01*
X295793Y347453D01*
X295863Y347507D01*
X295930Y347565D01*
X295996Y347625D01*
X296058Y347687D01*
X296118Y347753D01*
X296176Y347820D01*
X296230Y347890D01*
X296281Y347963D01*
X296329Y348037D01*
X296374Y348114D01*
X296415Y348192D01*
X296454Y348272D01*
X296488Y348353D01*
X296520Y348436D01*
X296547Y348521D01*
X296572Y348606D01*
X296592Y348692D01*
X296609Y348779D01*
X296622Y348867D01*
X296631Y348955D01*
X296637Y349043D01*
X296639Y349132D01*
X296640Y349132D02*
X296640Y354353D01*
X296639Y354353D02*
X296637Y354442D01*
X296631Y354530D01*
X296622Y354618D01*
X296609Y354706D01*
X296592Y354793D01*
X296572Y354879D01*
X296547Y354964D01*
X296520Y355049D01*
X296488Y355132D01*
X296454Y355213D01*
X296415Y355293D01*
X296374Y355371D01*
X296329Y355448D01*
X296281Y355522D01*
X296230Y355595D01*
X296176Y355665D01*
X296118Y355732D01*
X296058Y355798D01*
X295996Y355860D01*
X295930Y355920D01*
X295863Y355978D01*
X295793Y356032D01*
X295720Y356083D01*
X295646Y356131D01*
X295569Y356176D01*
X295491Y356217D01*
X295411Y356256D01*
X295330Y356290D01*
X295247Y356322D01*
X295162Y356349D01*
X295077Y356374D01*
X294991Y356394D01*
X294904Y356411D01*
X294816Y356424D01*
X294728Y356433D01*
X294640Y356439D01*
X294551Y356441D01*
X292463Y356441D01*
X288994Y349654D02*
X288992Y349755D01*
X288986Y349856D01*
X288976Y349957D01*
X288963Y350057D01*
X288945Y350157D01*
X288924Y350256D01*
X288898Y350354D01*
X288869Y350451D01*
X288837Y350547D01*
X288800Y350641D01*
X288760Y350734D01*
X288716Y350826D01*
X288669Y350915D01*
X288618Y351003D01*
X288564Y351089D01*
X288507Y351172D01*
X288447Y351254D01*
X288383Y351332D01*
X288317Y351409D01*
X288247Y351482D01*
X288175Y351553D01*
X288100Y351621D01*
X288022Y351686D01*
X287942Y351748D01*
X287860Y351807D01*
X287775Y351863D01*
X287689Y351915D01*
X287600Y351964D01*
X287509Y352010D01*
X287417Y352051D01*
X287323Y352090D01*
X287228Y352124D01*
X287132Y352155D01*
X287034Y352182D01*
X286936Y352206D01*
X286836Y352225D01*
X286736Y352241D01*
X286636Y352253D01*
X286535Y352261D01*
X286434Y352265D01*
X286332Y352265D01*
X286231Y352261D01*
X286130Y352253D01*
X286030Y352241D01*
X285930Y352225D01*
X285830Y352206D01*
X285732Y352182D01*
X285634Y352155D01*
X285538Y352124D01*
X285443Y352090D01*
X285349Y352051D01*
X285257Y352010D01*
X285166Y351964D01*
X285078Y351915D01*
X284991Y351863D01*
X284906Y351807D01*
X284824Y351748D01*
X284744Y351686D01*
X284666Y351621D01*
X284591Y351553D01*
X284519Y351482D01*
X284449Y351409D01*
X284383Y351332D01*
X284319Y351254D01*
X284259Y351172D01*
X284202Y351089D01*
X284148Y351003D01*
X284097Y350915D01*
X284050Y350826D01*
X284006Y350734D01*
X283966Y350641D01*
X283929Y350547D01*
X283897Y350451D01*
X283868Y350354D01*
X283842Y350256D01*
X283821Y350157D01*
X283803Y350057D01*
X283790Y349957D01*
X283780Y349856D01*
X283774Y349755D01*
X283772Y349654D01*
X283774Y349553D01*
X283780Y349452D01*
X283790Y349351D01*
X283803Y349251D01*
X283821Y349151D01*
X283842Y349052D01*
X283868Y348954D01*
X283897Y348857D01*
X283929Y348761D01*
X283966Y348667D01*
X284006Y348574D01*
X284050Y348482D01*
X284097Y348393D01*
X284148Y348305D01*
X284202Y348219D01*
X284259Y348136D01*
X284319Y348054D01*
X284383Y347976D01*
X284449Y347899D01*
X284519Y347826D01*
X284591Y347755D01*
X284666Y347687D01*
X284744Y347622D01*
X284824Y347560D01*
X284906Y347501D01*
X284991Y347445D01*
X285078Y347393D01*
X285166Y347344D01*
X285257Y347298D01*
X285349Y347257D01*
X285443Y347218D01*
X285538Y347184D01*
X285634Y347153D01*
X285732Y347126D01*
X285830Y347102D01*
X285930Y347083D01*
X286030Y347067D01*
X286130Y347055D01*
X286231Y347047D01*
X286332Y347043D01*
X286434Y347043D01*
X286535Y347047D01*
X286636Y347055D01*
X286736Y347067D01*
X286836Y347083D01*
X286936Y347102D01*
X287034Y347126D01*
X287132Y347153D01*
X287228Y347184D01*
X287323Y347218D01*
X287417Y347257D01*
X287509Y347298D01*
X287600Y347344D01*
X287688Y347393D01*
X287775Y347445D01*
X287860Y347501D01*
X287942Y347560D01*
X288022Y347622D01*
X288100Y347687D01*
X288175Y347755D01*
X288247Y347826D01*
X288317Y347899D01*
X288383Y347976D01*
X288447Y348054D01*
X288507Y348136D01*
X288564Y348219D01*
X288618Y348305D01*
X288669Y348393D01*
X288716Y348482D01*
X288760Y348574D01*
X288800Y348667D01*
X288837Y348761D01*
X288869Y348857D01*
X288898Y348954D01*
X288924Y349052D01*
X288945Y349151D01*
X288963Y349251D01*
X288976Y349351D01*
X288986Y349452D01*
X288992Y349553D01*
X288994Y349654D01*
X288471Y354353D02*
X288469Y354443D01*
X288463Y354532D01*
X288454Y354622D01*
X288440Y354711D01*
X288423Y354799D01*
X288402Y354886D01*
X288377Y354973D01*
X288348Y355058D01*
X288316Y355142D01*
X288281Y355224D01*
X288241Y355305D01*
X288199Y355384D01*
X288153Y355461D01*
X288103Y355536D01*
X288051Y355609D01*
X287995Y355680D01*
X287937Y355748D01*
X287875Y355813D01*
X287811Y355876D01*
X287744Y355936D01*
X287675Y355993D01*
X287603Y356047D01*
X287529Y356098D01*
X287453Y356146D01*
X287375Y356190D01*
X287295Y356231D01*
X287213Y356269D01*
X287130Y356303D01*
X287045Y356333D01*
X286959Y356360D01*
X286873Y356383D01*
X286785Y356402D01*
X286696Y356417D01*
X286607Y356429D01*
X286518Y356437D01*
X286428Y356441D01*
X286338Y356441D01*
X286248Y356437D01*
X286159Y356429D01*
X286070Y356417D01*
X285981Y356402D01*
X285893Y356383D01*
X285807Y356360D01*
X285721Y356333D01*
X285636Y356303D01*
X285553Y356269D01*
X285471Y356231D01*
X285391Y356190D01*
X285313Y356146D01*
X285237Y356098D01*
X285163Y356047D01*
X285091Y355993D01*
X285022Y355936D01*
X284955Y355876D01*
X284891Y355813D01*
X284829Y355748D01*
X284771Y355680D01*
X284715Y355609D01*
X284663Y355536D01*
X284613Y355461D01*
X284567Y355384D01*
X284525Y355305D01*
X284485Y355224D01*
X284450Y355142D01*
X284418Y355058D01*
X284389Y354973D01*
X284364Y354886D01*
X284343Y354799D01*
X284326Y354711D01*
X284312Y354622D01*
X284303Y354532D01*
X284297Y354443D01*
X284295Y354353D01*
X284297Y354263D01*
X284303Y354174D01*
X284312Y354084D01*
X284326Y353995D01*
X284343Y353907D01*
X284364Y353820D01*
X284389Y353733D01*
X284418Y353648D01*
X284450Y353564D01*
X284485Y353482D01*
X284525Y353401D01*
X284567Y353322D01*
X284613Y353245D01*
X284663Y353170D01*
X284715Y353097D01*
X284771Y353026D01*
X284829Y352958D01*
X284891Y352893D01*
X284955Y352830D01*
X285022Y352770D01*
X285091Y352713D01*
X285163Y352659D01*
X285237Y352608D01*
X285313Y352560D01*
X285391Y352516D01*
X285471Y352475D01*
X285553Y352437D01*
X285636Y352403D01*
X285721Y352373D01*
X285807Y352346D01*
X285893Y352323D01*
X285981Y352304D01*
X286070Y352289D01*
X286159Y352277D01*
X286248Y352269D01*
X286338Y352265D01*
X286428Y352265D01*
X286518Y352269D01*
X286607Y352277D01*
X286696Y352289D01*
X286785Y352304D01*
X286873Y352323D01*
X286959Y352346D01*
X287045Y352373D01*
X287130Y352403D01*
X287213Y352437D01*
X287295Y352475D01*
X287375Y352516D01*
X287453Y352560D01*
X287529Y352608D01*
X287603Y352659D01*
X287675Y352713D01*
X287744Y352770D01*
X287811Y352830D01*
X287875Y352893D01*
X287937Y352958D01*
X287995Y353026D01*
X288051Y353097D01*
X288103Y353170D01*
X288153Y353245D01*
X288199Y353322D01*
X288241Y353401D01*
X288281Y353482D01*
X288316Y353564D01*
X288348Y353648D01*
X288377Y353733D01*
X288402Y353820D01*
X288423Y353907D01*
X288440Y353995D01*
X288454Y354084D01*
X288463Y354174D01*
X288469Y354263D01*
X288471Y354353D01*
X410285Y446862D02*
X412374Y446862D01*
X412374Y446863D02*
X412463Y446865D01*
X412551Y446871D01*
X412639Y446880D01*
X412727Y446893D01*
X412814Y446910D01*
X412900Y446930D01*
X412985Y446955D01*
X413070Y446982D01*
X413153Y447014D01*
X413234Y447048D01*
X413314Y447087D01*
X413392Y447128D01*
X413469Y447173D01*
X413543Y447221D01*
X413616Y447272D01*
X413686Y447326D01*
X413753Y447384D01*
X413819Y447444D01*
X413881Y447506D01*
X413941Y447572D01*
X413999Y447639D01*
X414053Y447709D01*
X414104Y447782D01*
X414152Y447856D01*
X414197Y447933D01*
X414238Y448011D01*
X414277Y448091D01*
X414311Y448172D01*
X414343Y448255D01*
X414370Y448340D01*
X414395Y448425D01*
X414415Y448511D01*
X414432Y448598D01*
X414445Y448686D01*
X414454Y448774D01*
X414460Y448862D01*
X414462Y448951D01*
X414462Y454172D01*
X414460Y454261D01*
X414454Y454349D01*
X414445Y454437D01*
X414432Y454525D01*
X414415Y454612D01*
X414395Y454698D01*
X414370Y454783D01*
X414343Y454868D01*
X414311Y454951D01*
X414277Y455032D01*
X414238Y455112D01*
X414197Y455190D01*
X414152Y455267D01*
X414104Y455341D01*
X414053Y455414D01*
X413999Y455484D01*
X413941Y455551D01*
X413881Y455617D01*
X413819Y455679D01*
X413753Y455739D01*
X413686Y455797D01*
X413616Y455851D01*
X413543Y455902D01*
X413469Y455950D01*
X413392Y455995D01*
X413314Y456036D01*
X413234Y456075D01*
X413153Y456109D01*
X413070Y456141D01*
X412985Y456168D01*
X412900Y456193D01*
X412814Y456213D01*
X412727Y456230D01*
X412639Y456243D01*
X412551Y456252D01*
X412463Y456258D01*
X412374Y456260D01*
X410285Y456260D01*
X404728Y451039D02*
X401595Y451039D01*
X404728Y451040D02*
X404817Y451042D01*
X404905Y451048D01*
X404993Y451057D01*
X405081Y451070D01*
X405168Y451087D01*
X405254Y451107D01*
X405339Y451132D01*
X405424Y451159D01*
X405507Y451191D01*
X405588Y451225D01*
X405668Y451264D01*
X405746Y451305D01*
X405823Y451350D01*
X405897Y451398D01*
X405970Y451449D01*
X406040Y451503D01*
X406107Y451561D01*
X406173Y451621D01*
X406235Y451683D01*
X406295Y451749D01*
X406353Y451816D01*
X406407Y451886D01*
X406458Y451959D01*
X406506Y452033D01*
X406551Y452110D01*
X406592Y452188D01*
X406631Y452268D01*
X406665Y452349D01*
X406697Y452432D01*
X406724Y452517D01*
X406749Y452602D01*
X406769Y452688D01*
X406786Y452775D01*
X406799Y452863D01*
X406808Y452951D01*
X406814Y453039D01*
X406816Y453128D01*
X406816Y453650D01*
X406817Y453650D02*
X406815Y453751D01*
X406809Y453852D01*
X406799Y453953D01*
X406786Y454053D01*
X406768Y454153D01*
X406747Y454252D01*
X406721Y454350D01*
X406692Y454447D01*
X406660Y454543D01*
X406623Y454637D01*
X406583Y454730D01*
X406539Y454822D01*
X406492Y454911D01*
X406441Y454999D01*
X406387Y455085D01*
X406330Y455168D01*
X406270Y455250D01*
X406206Y455328D01*
X406140Y455405D01*
X406070Y455478D01*
X405998Y455549D01*
X405923Y455617D01*
X405845Y455682D01*
X405765Y455744D01*
X405683Y455803D01*
X405598Y455859D01*
X405512Y455911D01*
X405423Y455960D01*
X405332Y456006D01*
X405240Y456047D01*
X405146Y456086D01*
X405051Y456120D01*
X404955Y456151D01*
X404857Y456178D01*
X404759Y456202D01*
X404659Y456221D01*
X404559Y456237D01*
X404459Y456249D01*
X404358Y456257D01*
X404257Y456261D01*
X404155Y456261D01*
X404054Y456257D01*
X403953Y456249D01*
X403853Y456237D01*
X403753Y456221D01*
X403653Y456202D01*
X403555Y456178D01*
X403457Y456151D01*
X403361Y456120D01*
X403266Y456086D01*
X403172Y456047D01*
X403080Y456006D01*
X402989Y455960D01*
X402901Y455911D01*
X402814Y455859D01*
X402729Y455803D01*
X402647Y455744D01*
X402567Y455682D01*
X402489Y455617D01*
X402414Y455549D01*
X402342Y455478D01*
X402272Y455405D01*
X402206Y455328D01*
X402142Y455250D01*
X402082Y455168D01*
X402025Y455085D01*
X401971Y454999D01*
X401920Y454911D01*
X401873Y454822D01*
X401829Y454730D01*
X401789Y454637D01*
X401752Y454543D01*
X401720Y454447D01*
X401691Y454350D01*
X401665Y454252D01*
X401644Y454153D01*
X401626Y454053D01*
X401613Y453953D01*
X401603Y453852D01*
X401597Y453751D01*
X401595Y453650D01*
X401595Y451039D01*
X401597Y450913D01*
X401603Y450787D01*
X401612Y450661D01*
X401625Y450536D01*
X401643Y450411D01*
X401663Y450286D01*
X401688Y450162D01*
X401716Y450039D01*
X401748Y449917D01*
X401784Y449796D01*
X401823Y449676D01*
X401866Y449558D01*
X401913Y449441D01*
X401963Y449325D01*
X402017Y449210D01*
X402073Y449098D01*
X402134Y448987D01*
X402197Y448878D01*
X402264Y448771D01*
X402334Y448666D01*
X402408Y448563D01*
X402484Y448463D01*
X402563Y448365D01*
X402645Y448269D01*
X402731Y448176D01*
X402818Y448085D01*
X402909Y447998D01*
X403002Y447912D01*
X403098Y447830D01*
X403196Y447751D01*
X403296Y447675D01*
X403399Y447601D01*
X403504Y447531D01*
X403611Y447464D01*
X403720Y447401D01*
X403831Y447340D01*
X403943Y447284D01*
X404058Y447230D01*
X404174Y447180D01*
X404291Y447133D01*
X404409Y447090D01*
X404529Y447051D01*
X404650Y447015D01*
X404772Y446983D01*
X404895Y446955D01*
X405019Y446930D01*
X405144Y446910D01*
X405269Y446892D01*
X405394Y446879D01*
X405520Y446870D01*
X405646Y446864D01*
X405772Y446862D01*
X450936Y324978D02*
X460334Y324978D01*
X460334Y327588D01*
X460335Y327588D02*
X460333Y327689D01*
X460327Y327790D01*
X460317Y327891D01*
X460304Y327991D01*
X460286Y328091D01*
X460265Y328190D01*
X460239Y328288D01*
X460210Y328385D01*
X460178Y328481D01*
X460141Y328575D01*
X460101Y328668D01*
X460057Y328760D01*
X460010Y328849D01*
X459959Y328937D01*
X459905Y329023D01*
X459848Y329106D01*
X459788Y329188D01*
X459724Y329266D01*
X459658Y329343D01*
X459588Y329416D01*
X459516Y329487D01*
X459441Y329555D01*
X459363Y329620D01*
X459283Y329682D01*
X459201Y329741D01*
X459116Y329797D01*
X459030Y329849D01*
X458941Y329898D01*
X458850Y329944D01*
X458758Y329985D01*
X458664Y330024D01*
X458569Y330058D01*
X458473Y330089D01*
X458375Y330116D01*
X458277Y330140D01*
X458177Y330159D01*
X458077Y330175D01*
X457977Y330187D01*
X457876Y330195D01*
X457775Y330199D01*
X457673Y330199D01*
X457572Y330195D01*
X457471Y330187D01*
X457371Y330175D01*
X457271Y330159D01*
X457171Y330140D01*
X457073Y330116D01*
X456975Y330089D01*
X456879Y330058D01*
X456784Y330024D01*
X456690Y329985D01*
X456598Y329944D01*
X456507Y329898D01*
X456419Y329849D01*
X456332Y329797D01*
X456247Y329741D01*
X456165Y329682D01*
X456085Y329620D01*
X456007Y329555D01*
X455932Y329487D01*
X455860Y329416D01*
X455790Y329343D01*
X455724Y329266D01*
X455660Y329188D01*
X455600Y329106D01*
X455543Y329023D01*
X455489Y328937D01*
X455438Y328849D01*
X455391Y328760D01*
X455347Y328668D01*
X455307Y328575D01*
X455270Y328481D01*
X455238Y328385D01*
X455209Y328288D01*
X455183Y328190D01*
X455162Y328091D01*
X455144Y327991D01*
X455131Y327891D01*
X455121Y327790D01*
X455115Y327689D01*
X455113Y327588D01*
X455113Y324978D01*
X455113Y328110D02*
X450936Y330199D01*
X450936Y334065D02*
X450936Y336675D01*
X450938Y336776D01*
X450944Y336877D01*
X450954Y336978D01*
X450967Y337078D01*
X450985Y337178D01*
X451006Y337277D01*
X451032Y337375D01*
X451061Y337472D01*
X451093Y337568D01*
X451130Y337662D01*
X451170Y337755D01*
X451214Y337847D01*
X451261Y337936D01*
X451312Y338024D01*
X451366Y338110D01*
X451423Y338193D01*
X451483Y338275D01*
X451547Y338353D01*
X451613Y338430D01*
X451683Y338503D01*
X451755Y338574D01*
X451830Y338642D01*
X451908Y338707D01*
X451988Y338769D01*
X452070Y338828D01*
X452155Y338884D01*
X452242Y338936D01*
X452330Y338985D01*
X452421Y339031D01*
X452513Y339072D01*
X452607Y339111D01*
X452702Y339145D01*
X452798Y339176D01*
X452896Y339203D01*
X452994Y339227D01*
X453094Y339246D01*
X453194Y339262D01*
X453294Y339274D01*
X453395Y339282D01*
X453496Y339286D01*
X453598Y339286D01*
X453699Y339282D01*
X453800Y339274D01*
X453900Y339262D01*
X454000Y339246D01*
X454100Y339227D01*
X454198Y339203D01*
X454296Y339176D01*
X454392Y339145D01*
X454487Y339111D01*
X454581Y339072D01*
X454673Y339031D01*
X454764Y338985D01*
X454853Y338936D01*
X454939Y338884D01*
X455024Y338828D01*
X455106Y338769D01*
X455186Y338707D01*
X455264Y338642D01*
X455339Y338574D01*
X455411Y338503D01*
X455481Y338430D01*
X455547Y338353D01*
X455611Y338275D01*
X455671Y338193D01*
X455728Y338110D01*
X455782Y338024D01*
X455833Y337936D01*
X455880Y337847D01*
X455924Y337755D01*
X455964Y337662D01*
X456001Y337568D01*
X456033Y337472D01*
X456062Y337375D01*
X456088Y337277D01*
X456109Y337178D01*
X456127Y337078D01*
X456140Y336978D01*
X456150Y336877D01*
X456156Y336776D01*
X456158Y336675D01*
X460334Y337197D02*
X460334Y334065D01*
X460334Y337197D02*
X460332Y337287D01*
X460326Y337376D01*
X460317Y337466D01*
X460303Y337555D01*
X460286Y337643D01*
X460265Y337730D01*
X460240Y337817D01*
X460211Y337902D01*
X460179Y337986D01*
X460144Y338068D01*
X460104Y338149D01*
X460062Y338228D01*
X460016Y338305D01*
X459966Y338380D01*
X459914Y338453D01*
X459858Y338524D01*
X459800Y338592D01*
X459738Y338657D01*
X459674Y338720D01*
X459607Y338780D01*
X459538Y338837D01*
X459466Y338891D01*
X459392Y338942D01*
X459316Y338990D01*
X459238Y339034D01*
X459158Y339075D01*
X459076Y339113D01*
X458993Y339147D01*
X458908Y339177D01*
X458822Y339204D01*
X458736Y339227D01*
X458648Y339246D01*
X458559Y339261D01*
X458470Y339273D01*
X458381Y339281D01*
X458291Y339285D01*
X458201Y339285D01*
X458111Y339281D01*
X458022Y339273D01*
X457933Y339261D01*
X457844Y339246D01*
X457756Y339227D01*
X457670Y339204D01*
X457584Y339177D01*
X457499Y339147D01*
X457416Y339113D01*
X457334Y339075D01*
X457254Y339034D01*
X457176Y338990D01*
X457100Y338942D01*
X457026Y338891D01*
X456954Y338837D01*
X456885Y338780D01*
X456818Y338720D01*
X456754Y338657D01*
X456692Y338592D01*
X456634Y338524D01*
X456578Y338453D01*
X456526Y338380D01*
X456476Y338305D01*
X456430Y338228D01*
X456388Y338149D01*
X456348Y338068D01*
X456313Y337986D01*
X456281Y337902D01*
X456252Y337817D01*
X456227Y337730D01*
X456206Y337643D01*
X456189Y337555D01*
X456175Y337466D01*
X456166Y337376D01*
X456160Y337287D01*
X456158Y337197D01*
X456158Y335109D01*
M02*
