G04 EAGLE Gerber RS-274X export*
G75*
%MOMM*%
%FSLAX34Y34*%
%LPD*%
%INSolderpaste Bottom*%
%IPPOS*%
%AMOC8*
5,1,8,0,0,1.08239X$1,22.5*%
G01*
%ADD10R,1.500000X1.300000*%
%ADD11C,0.124994*%
%ADD12R,5.699988X5.699988*%
%ADD13R,1.399997X0.400000*%
%ADD14R,1.300000X1.500000*%
%ADD15R,1.000000X1.100000*%
%ADD16R,1.100000X1.000000*%


D10*
X433587Y351778D03*
X433587Y370778D03*
D11*
X375287Y427687D02*
X375287Y428937D01*
X381037Y428937D01*
X381037Y427687D01*
X375287Y427687D01*
X375287Y428874D02*
X381037Y428874D01*
X375287Y423937D02*
X375287Y422687D01*
X375287Y423937D02*
X381037Y423937D01*
X381037Y422687D01*
X375287Y422687D01*
X375287Y423874D02*
X381037Y423874D01*
X375287Y418937D02*
X375287Y417687D01*
X375287Y418937D02*
X381037Y418937D01*
X381037Y417687D01*
X375287Y417687D01*
X375287Y418874D02*
X381037Y418874D01*
X375287Y413937D02*
X375287Y412687D01*
X375287Y413937D02*
X381037Y413937D01*
X381037Y412687D01*
X375287Y412687D01*
X375287Y413874D02*
X381037Y413874D01*
X375287Y408937D02*
X375287Y407687D01*
X375287Y408937D02*
X381037Y408937D01*
X381037Y407687D01*
X375287Y407687D01*
X375287Y408874D02*
X381037Y408874D01*
X375287Y403937D02*
X375287Y402687D01*
X375287Y403937D02*
X381037Y403937D01*
X381037Y402687D01*
X375287Y402687D01*
X375287Y403874D02*
X381037Y403874D01*
X375287Y398937D02*
X375287Y397687D01*
X375287Y398937D02*
X381037Y398937D01*
X381037Y397687D01*
X375287Y397687D01*
X375287Y398874D02*
X381037Y398874D01*
X375287Y393937D02*
X375287Y392687D01*
X375287Y393937D02*
X381037Y393937D01*
X381037Y392687D01*
X375287Y392687D01*
X375287Y393874D02*
X381037Y393874D01*
X375287Y388937D02*
X375287Y387687D01*
X375287Y388937D02*
X381037Y388937D01*
X381037Y387687D01*
X375287Y387687D01*
X375287Y388874D02*
X381037Y388874D01*
X375287Y383937D02*
X375287Y382687D01*
X375287Y383937D02*
X381037Y383937D01*
X381037Y382687D01*
X375287Y382687D01*
X375287Y383874D02*
X381037Y383874D01*
X375287Y378937D02*
X375287Y377687D01*
X375287Y378937D02*
X381037Y378937D01*
X381037Y377687D01*
X375287Y377687D01*
X375287Y378874D02*
X381037Y378874D01*
X375287Y373937D02*
X375287Y372687D01*
X375287Y373937D02*
X381037Y373937D01*
X381037Y372687D01*
X375287Y372687D01*
X375287Y373874D02*
X381037Y373874D01*
X371787Y369187D02*
X370537Y369187D01*
X371787Y369187D02*
X371787Y363437D01*
X370537Y363437D01*
X370537Y369187D01*
X370537Y364624D02*
X371787Y364624D01*
X371787Y365811D02*
X370537Y365811D01*
X370537Y366998D02*
X371787Y366998D01*
X371787Y368185D02*
X370537Y368185D01*
X366787Y369187D02*
X365537Y369187D01*
X366787Y369187D02*
X366787Y363437D01*
X365537Y363437D01*
X365537Y369187D01*
X365537Y364624D02*
X366787Y364624D01*
X366787Y365811D02*
X365537Y365811D01*
X365537Y366998D02*
X366787Y366998D01*
X366787Y368185D02*
X365537Y368185D01*
X361787Y369187D02*
X360537Y369187D01*
X361787Y369187D02*
X361787Y363437D01*
X360537Y363437D01*
X360537Y369187D01*
X360537Y364624D02*
X361787Y364624D01*
X361787Y365811D02*
X360537Y365811D01*
X360537Y366998D02*
X361787Y366998D01*
X361787Y368185D02*
X360537Y368185D01*
X356787Y369187D02*
X355537Y369187D01*
X356787Y369187D02*
X356787Y363437D01*
X355537Y363437D01*
X355537Y369187D01*
X355537Y364624D02*
X356787Y364624D01*
X356787Y365811D02*
X355537Y365811D01*
X355537Y366998D02*
X356787Y366998D01*
X356787Y368185D02*
X355537Y368185D01*
X351787Y369187D02*
X350537Y369187D01*
X351787Y369187D02*
X351787Y363437D01*
X350537Y363437D01*
X350537Y369187D01*
X350537Y364624D02*
X351787Y364624D01*
X351787Y365811D02*
X350537Y365811D01*
X350537Y366998D02*
X351787Y366998D01*
X351787Y368185D02*
X350537Y368185D01*
X346787Y369187D02*
X345537Y369187D01*
X346787Y369187D02*
X346787Y363437D01*
X345537Y363437D01*
X345537Y369187D01*
X345537Y364624D02*
X346787Y364624D01*
X346787Y365811D02*
X345537Y365811D01*
X345537Y366998D02*
X346787Y366998D01*
X346787Y368185D02*
X345537Y368185D01*
X341787Y369187D02*
X340537Y369187D01*
X341787Y369187D02*
X341787Y363437D01*
X340537Y363437D01*
X340537Y369187D01*
X340537Y364624D02*
X341787Y364624D01*
X341787Y365811D02*
X340537Y365811D01*
X340537Y366998D02*
X341787Y366998D01*
X341787Y368185D02*
X340537Y368185D01*
X336787Y369187D02*
X335537Y369187D01*
X336787Y369187D02*
X336787Y363437D01*
X335537Y363437D01*
X335537Y369187D01*
X335537Y364624D02*
X336787Y364624D01*
X336787Y365811D02*
X335537Y365811D01*
X335537Y366998D02*
X336787Y366998D01*
X336787Y368185D02*
X335537Y368185D01*
X331787Y369187D02*
X330537Y369187D01*
X331787Y369187D02*
X331787Y363437D01*
X330537Y363437D01*
X330537Y369187D01*
X330537Y364624D02*
X331787Y364624D01*
X331787Y365811D02*
X330537Y365811D01*
X330537Y366998D02*
X331787Y366998D01*
X331787Y368185D02*
X330537Y368185D01*
X326787Y369187D02*
X325537Y369187D01*
X326787Y369187D02*
X326787Y363437D01*
X325537Y363437D01*
X325537Y369187D01*
X325537Y364624D02*
X326787Y364624D01*
X326787Y365811D02*
X325537Y365811D01*
X325537Y366998D02*
X326787Y366998D01*
X326787Y368185D02*
X325537Y368185D01*
X321787Y369187D02*
X320537Y369187D01*
X321787Y369187D02*
X321787Y363437D01*
X320537Y363437D01*
X320537Y369187D01*
X320537Y364624D02*
X321787Y364624D01*
X321787Y365811D02*
X320537Y365811D01*
X320537Y366998D02*
X321787Y366998D01*
X321787Y368185D02*
X320537Y368185D01*
X316787Y369187D02*
X315537Y369187D01*
X316787Y369187D02*
X316787Y363437D01*
X315537Y363437D01*
X315537Y369187D01*
X315537Y364624D02*
X316787Y364624D01*
X316787Y365811D02*
X315537Y365811D01*
X315537Y366998D02*
X316787Y366998D01*
X316787Y368185D02*
X315537Y368185D01*
X312037Y372687D02*
X312037Y373937D01*
X312037Y372687D02*
X306287Y372687D01*
X306287Y373937D01*
X312037Y373937D01*
X312037Y373874D02*
X306287Y373874D01*
X312037Y377687D02*
X312037Y378937D01*
X312037Y377687D02*
X306287Y377687D01*
X306287Y378937D01*
X312037Y378937D01*
X312037Y378874D02*
X306287Y378874D01*
X312037Y382687D02*
X312037Y383937D01*
X312037Y382687D02*
X306287Y382687D01*
X306287Y383937D01*
X312037Y383937D01*
X312037Y383874D02*
X306287Y383874D01*
X312037Y387687D02*
X312037Y388937D01*
X312037Y387687D02*
X306287Y387687D01*
X306287Y388937D01*
X312037Y388937D01*
X312037Y388874D02*
X306287Y388874D01*
X312037Y392687D02*
X312037Y393937D01*
X312037Y392687D02*
X306287Y392687D01*
X306287Y393937D01*
X312037Y393937D01*
X312037Y393874D02*
X306287Y393874D01*
X312037Y397687D02*
X312037Y398937D01*
X312037Y397687D02*
X306287Y397687D01*
X306287Y398937D01*
X312037Y398937D01*
X312037Y398874D02*
X306287Y398874D01*
X312037Y402687D02*
X312037Y403937D01*
X312037Y402687D02*
X306287Y402687D01*
X306287Y403937D01*
X312037Y403937D01*
X312037Y403874D02*
X306287Y403874D01*
X312037Y407687D02*
X312037Y408937D01*
X312037Y407687D02*
X306287Y407687D01*
X306287Y408937D01*
X312037Y408937D01*
X312037Y408874D02*
X306287Y408874D01*
X312037Y412687D02*
X312037Y413937D01*
X312037Y412687D02*
X306287Y412687D01*
X306287Y413937D01*
X312037Y413937D01*
X312037Y413874D02*
X306287Y413874D01*
X312037Y417687D02*
X312037Y418937D01*
X312037Y417687D02*
X306287Y417687D01*
X306287Y418937D01*
X312037Y418937D01*
X312037Y418874D02*
X306287Y418874D01*
X312037Y422687D02*
X312037Y423937D01*
X312037Y422687D02*
X306287Y422687D01*
X306287Y423937D01*
X312037Y423937D01*
X312037Y423874D02*
X306287Y423874D01*
X312037Y427687D02*
X312037Y428937D01*
X312037Y427687D02*
X306287Y427687D01*
X306287Y428937D01*
X312037Y428937D01*
X312037Y428874D02*
X306287Y428874D01*
X315537Y432437D02*
X316787Y432437D01*
X315537Y432437D02*
X315537Y438187D01*
X316787Y438187D01*
X316787Y432437D01*
X316787Y433624D02*
X315537Y433624D01*
X315537Y434811D02*
X316787Y434811D01*
X316787Y435998D02*
X315537Y435998D01*
X315537Y437185D02*
X316787Y437185D01*
X320537Y432437D02*
X321787Y432437D01*
X320537Y432437D02*
X320537Y438187D01*
X321787Y438187D01*
X321787Y432437D01*
X321787Y433624D02*
X320537Y433624D01*
X320537Y434811D02*
X321787Y434811D01*
X321787Y435998D02*
X320537Y435998D01*
X320537Y437185D02*
X321787Y437185D01*
X325537Y432437D02*
X326787Y432437D01*
X325537Y432437D02*
X325537Y438187D01*
X326787Y438187D01*
X326787Y432437D01*
X326787Y433624D02*
X325537Y433624D01*
X325537Y434811D02*
X326787Y434811D01*
X326787Y435998D02*
X325537Y435998D01*
X325537Y437185D02*
X326787Y437185D01*
X330537Y432437D02*
X331787Y432437D01*
X330537Y432437D02*
X330537Y438187D01*
X331787Y438187D01*
X331787Y432437D01*
X331787Y433624D02*
X330537Y433624D01*
X330537Y434811D02*
X331787Y434811D01*
X331787Y435998D02*
X330537Y435998D01*
X330537Y437185D02*
X331787Y437185D01*
X335537Y432437D02*
X336787Y432437D01*
X335537Y432437D02*
X335537Y438187D01*
X336787Y438187D01*
X336787Y432437D01*
X336787Y433624D02*
X335537Y433624D01*
X335537Y434811D02*
X336787Y434811D01*
X336787Y435998D02*
X335537Y435998D01*
X335537Y437185D02*
X336787Y437185D01*
X340537Y432437D02*
X341787Y432437D01*
X340537Y432437D02*
X340537Y438187D01*
X341787Y438187D01*
X341787Y432437D01*
X341787Y433624D02*
X340537Y433624D01*
X340537Y434811D02*
X341787Y434811D01*
X341787Y435998D02*
X340537Y435998D01*
X340537Y437185D02*
X341787Y437185D01*
X345537Y432437D02*
X346787Y432437D01*
X345537Y432437D02*
X345537Y438187D01*
X346787Y438187D01*
X346787Y432437D01*
X346787Y433624D02*
X345537Y433624D01*
X345537Y434811D02*
X346787Y434811D01*
X346787Y435998D02*
X345537Y435998D01*
X345537Y437185D02*
X346787Y437185D01*
X350537Y432437D02*
X351787Y432437D01*
X350537Y432437D02*
X350537Y438187D01*
X351787Y438187D01*
X351787Y432437D01*
X351787Y433624D02*
X350537Y433624D01*
X350537Y434811D02*
X351787Y434811D01*
X351787Y435998D02*
X350537Y435998D01*
X350537Y437185D02*
X351787Y437185D01*
X355537Y432437D02*
X356787Y432437D01*
X355537Y432437D02*
X355537Y438187D01*
X356787Y438187D01*
X356787Y432437D01*
X356787Y433624D02*
X355537Y433624D01*
X355537Y434811D02*
X356787Y434811D01*
X356787Y435998D02*
X355537Y435998D01*
X355537Y437185D02*
X356787Y437185D01*
X360537Y432437D02*
X361787Y432437D01*
X360537Y432437D02*
X360537Y438187D01*
X361787Y438187D01*
X361787Y432437D01*
X361787Y433624D02*
X360537Y433624D01*
X360537Y434811D02*
X361787Y434811D01*
X361787Y435998D02*
X360537Y435998D01*
X360537Y437185D02*
X361787Y437185D01*
X365537Y432437D02*
X366787Y432437D01*
X365537Y432437D02*
X365537Y438187D01*
X366787Y438187D01*
X366787Y432437D01*
X366787Y433624D02*
X365537Y433624D01*
X365537Y434811D02*
X366787Y434811D01*
X366787Y435998D02*
X365537Y435998D01*
X365537Y437185D02*
X366787Y437185D01*
X370537Y432437D02*
X371787Y432437D01*
X370537Y432437D02*
X370537Y438187D01*
X371787Y438187D01*
X371787Y432437D01*
X371787Y433624D02*
X370537Y433624D01*
X370537Y434811D02*
X371787Y434811D01*
X371787Y435998D02*
X370537Y435998D01*
X370537Y437185D02*
X371787Y437185D01*
D12*
X343662Y400812D03*
D13*
X411955Y417620D03*
X411955Y405620D03*
X411955Y393620D03*
D14*
X304327Y327472D03*
X323327Y327472D03*
D10*
X268417Y440421D03*
X268417Y421421D03*
D15*
X412346Y353874D03*
X412346Y370874D03*
D16*
X384656Y448813D03*
X367656Y448813D03*
D15*
X288724Y444575D03*
X288724Y427575D03*
D16*
X305142Y347680D03*
X322142Y347680D03*
X398929Y436004D03*
X415929Y436004D03*
X454823Y352957D03*
X454823Y369957D03*
M02*
