G04 EAGLE Gerber RS-274X export*
G75*
%MOMM*%
%FSLAX34Y34*%
%LPD*%
%INTop Copper*%
%IPPOS*%
%AMOC8*
5,1,8,0,0,1.08239X$1,22.5*%
G01*
%ADD10C,1.000000*%
%ADD11P,1.814519X8X292.500000*%
%ADD12R,0.800000X0.800000*%
%ADD13P,1.649562X8X22.500000*%
%ADD14R,1.100000X1.000000*%
%ADD15C,1.524000*%
%ADD16C,0.750000*%
%ADD17C,0.304800*%
%ADD18C,0.508000*%
%ADD19C,0.604800*%
%ADD20C,0.254000*%
%ADD21C,0.554800*%

G36*
X-67672Y-224D02*
X-67672Y-224D01*
X-67644Y-226D01*
X-67576Y-204D01*
X-67505Y-190D01*
X-67482Y-174D01*
X-67455Y-165D01*
X-67419Y-134D01*
X-29886Y-134D01*
X-29866Y-131D01*
X-29847Y-133D01*
X-29745Y-111D01*
X-29643Y-94D01*
X-29626Y-85D01*
X-29606Y-81D01*
X-29517Y-27D01*
X-29426Y21D01*
X-29412Y35D01*
X-29395Y46D01*
X-29328Y124D01*
X-29256Y199D01*
X-29248Y217D01*
X-29235Y233D01*
X-29196Y329D01*
X-29153Y422D01*
X-29151Y442D01*
X-29143Y461D01*
X-29125Y627D01*
X-29125Y1163D01*
X-29119Y1170D01*
X-29101Y1231D01*
X-29073Y1287D01*
X-29056Y1374D01*
X-29047Y1405D01*
X-29047Y1423D01*
X-29042Y1452D01*
X-28886Y3531D01*
X-28889Y3566D01*
X-28884Y3600D01*
X-28900Y3688D01*
X-28908Y3776D01*
X-28921Y3808D01*
X-28928Y3842D01*
X-28962Y3914D01*
X-28819Y4541D01*
X-28817Y4574D01*
X-28802Y4654D01*
X-28754Y5292D01*
X-28713Y5351D01*
X-28656Y5419D01*
X-28643Y5452D01*
X-28624Y5480D01*
X-28568Y5638D01*
X-28078Y7785D01*
X-28076Y7820D01*
X-28066Y7853D01*
X-28069Y7942D01*
X-28063Y8031D01*
X-28072Y8064D01*
X-28073Y8099D01*
X-28097Y8175D01*
X-27862Y8774D01*
X-27855Y8806D01*
X-27828Y8882D01*
X-27686Y9507D01*
X-27636Y9559D01*
X-27570Y9618D01*
X-27552Y9648D01*
X-27528Y9673D01*
X-27450Y9821D01*
X-26646Y11871D01*
X-26639Y11905D01*
X-26624Y11936D01*
X-26613Y12025D01*
X-26594Y12112D01*
X-26598Y12146D01*
X-26594Y12180D01*
X-26606Y12259D01*
X-26284Y12816D01*
X-26272Y12847D01*
X-26235Y12919D01*
X-26001Y13515D01*
X-25944Y13559D01*
X-25870Y13607D01*
X-25848Y13635D01*
X-25821Y13656D01*
X-25721Y13791D01*
X-24620Y15698D01*
X-24608Y15730D01*
X-24589Y15759D01*
X-24565Y15845D01*
X-24533Y15928D01*
X-24532Y15963D01*
X-24523Y15996D01*
X-24523Y16076D01*
X-24122Y16579D01*
X-24106Y16608D01*
X-24058Y16673D01*
X-23737Y17227D01*
X-23675Y17263D01*
X-23594Y17299D01*
X-23568Y17323D01*
X-23538Y17340D01*
X-23420Y17459D01*
X-22047Y19180D01*
X-22030Y19211D01*
X-22007Y19236D01*
X-21970Y19317D01*
X-21927Y19395D01*
X-21920Y19429D01*
X-21919Y19432D01*
X-21909Y19454D01*
X-21909Y19455D01*
X-21906Y19461D01*
X-21894Y19539D01*
X-21423Y19977D01*
X-21402Y20003D01*
X-21345Y20060D01*
X-20946Y20561D01*
X-20879Y20587D01*
X-20793Y20611D01*
X-20765Y20630D01*
X-20732Y20643D01*
X-20598Y20742D01*
X-18983Y22240D01*
X-18962Y22267D01*
X-18935Y22289D01*
X-18887Y22364D01*
X-18833Y22434D01*
X-18821Y22467D01*
X-18802Y22496D01*
X-18779Y22572D01*
X-18247Y22935D01*
X-18223Y22957D01*
X-18158Y23006D01*
X-17689Y23441D01*
X-17619Y23457D01*
X-17531Y23468D01*
X-17499Y23483D01*
X-17466Y23490D01*
X-17317Y23569D01*
X-15498Y24809D01*
X-15473Y24833D01*
X-15443Y24851D01*
X-15384Y24917D01*
X-15320Y24979D01*
X-15304Y25009D01*
X-15281Y25035D01*
X-15247Y25107D01*
X-14667Y25386D01*
X-14640Y25405D01*
X-14568Y25443D01*
X-14039Y25804D01*
X-13967Y25809D01*
X-13879Y25806D01*
X-13845Y25817D01*
X-13811Y25819D01*
X-13653Y25875D01*
X-11669Y26830D01*
X-11640Y26850D01*
X-11608Y26863D01*
X-11540Y26920D01*
X-11467Y26971D01*
X-11447Y26999D01*
X-11420Y27021D01*
X-11376Y27087D01*
X-10761Y27277D01*
X-10731Y27292D01*
X-10655Y27318D01*
X-10078Y27596D01*
X-10006Y27590D01*
X-9919Y27575D01*
X-9884Y27580D01*
X-9850Y27577D01*
X-9685Y27609D01*
X-7581Y28258D01*
X-7550Y28273D01*
X-7516Y28281D01*
X-7440Y28327D01*
X-7361Y28367D01*
X-7336Y28392D01*
X-7307Y28410D01*
X-7253Y28468D01*
X-6616Y28564D01*
X-6585Y28574D01*
X-6505Y28589D01*
X-5893Y28778D01*
X-5824Y28762D01*
X-5739Y28733D01*
X-5705Y28733D01*
X-5671Y28725D01*
X-5503Y28732D01*
X-3326Y29060D01*
X-3293Y29071D01*
X-3258Y29073D01*
X-3177Y29108D01*
X-3092Y29135D01*
X-3064Y29156D01*
X-3032Y29170D01*
X-2970Y29219D01*
X-2327Y29219D01*
X-2294Y29225D01*
X-2213Y29228D01*
X-1580Y29323D01*
X-1513Y29296D01*
X-1434Y29256D01*
X-1400Y29251D01*
X-1368Y29238D01*
X-1201Y29219D01*
X1001Y29219D01*
X1035Y29225D01*
X1070Y29222D01*
X1156Y29245D01*
X1244Y29259D01*
X1274Y29275D01*
X1308Y29284D01*
X1377Y29324D01*
X2013Y29228D01*
X2046Y29228D01*
X2127Y29219D01*
X2767Y29219D01*
X2829Y29183D01*
X2901Y29131D01*
X2934Y29121D01*
X2964Y29103D01*
X3126Y29060D01*
X5303Y28732D01*
X5338Y28732D01*
X5372Y28725D01*
X5460Y28734D01*
X5549Y28735D01*
X5582Y28746D01*
X5617Y28750D01*
X5690Y28779D01*
X6305Y28589D01*
X6338Y28585D01*
X6416Y28564D01*
X7050Y28469D01*
X7105Y28423D01*
X7169Y28361D01*
X7200Y28346D01*
X7227Y28324D01*
X7381Y28258D01*
X9485Y27609D01*
X9519Y27604D01*
X9552Y27591D01*
X9641Y27587D01*
X9729Y27575D01*
X9763Y27581D01*
X9797Y27580D01*
X9875Y27598D01*
X10455Y27318D01*
X10486Y27309D01*
X10561Y27277D01*
X11172Y27088D01*
X11221Y27035D01*
X11274Y26964D01*
X11303Y26945D01*
X11326Y26919D01*
X11469Y26830D01*
X13453Y25875D01*
X13486Y25865D01*
X13516Y25848D01*
X13603Y25830D01*
X13688Y25805D01*
X13723Y25806D01*
X13757Y25800D01*
X13836Y25806D01*
X14368Y25443D01*
X14398Y25429D01*
X14467Y25386D01*
X15044Y25108D01*
X15083Y25049D01*
X15126Y24971D01*
X15151Y24947D01*
X15171Y24918D01*
X15298Y24809D01*
X17117Y23569D01*
X17149Y23554D01*
X17176Y23533D01*
X17260Y23502D01*
X17340Y23465D01*
X17375Y23461D01*
X17407Y23449D01*
X17487Y23443D01*
X17958Y23006D01*
X17986Y22987D01*
X18047Y22935D01*
X18249Y22797D01*
X18250Y22797D01*
X18360Y22746D01*
X18472Y22693D01*
X18473Y22693D01*
X18588Y22680D01*
X18716Y22666D01*
X18717Y22666D01*
X18832Y22691D01*
X18957Y22718D01*
X18958Y22718D01*
X19067Y22784D01*
X19168Y22844D01*
X19169Y22844D01*
X19250Y22940D01*
X19328Y23031D01*
X19329Y23031D01*
X19375Y23147D01*
X19420Y23259D01*
X19421Y23260D01*
X19438Y23419D01*
X22104Y26084D01*
X25872Y26084D01*
X28536Y23420D01*
X28536Y19651D01*
X25872Y16987D01*
X25096Y16987D01*
X24997Y16971D01*
X24897Y16960D01*
X24876Y16951D01*
X24853Y16947D01*
X24765Y16900D01*
X24673Y16859D01*
X24656Y16843D01*
X24636Y16832D01*
X24567Y16759D01*
X24494Y16691D01*
X24483Y16670D01*
X24467Y16654D01*
X24424Y16562D01*
X24377Y16474D01*
X24370Y16446D01*
X24363Y16430D01*
X24359Y16398D01*
X24340Y16311D01*
X24323Y16164D01*
X24325Y16129D01*
X24318Y16095D01*
X24331Y16007D01*
X24335Y15918D01*
X24348Y15886D01*
X24353Y15852D01*
X24420Y15698D01*
X25521Y13791D01*
X25543Y13764D01*
X25558Y13733D01*
X25621Y13669D01*
X25677Y13601D01*
X25706Y13582D01*
X25731Y13558D01*
X25800Y13518D01*
X26035Y12919D01*
X26051Y12891D01*
X26084Y12816D01*
X26404Y12262D01*
X26404Y12190D01*
X26395Y12102D01*
X26402Y12068D01*
X26402Y12033D01*
X26446Y11871D01*
X27250Y9821D01*
X27268Y9792D01*
X27278Y9759D01*
X27330Y9687D01*
X27376Y9610D01*
X27402Y9587D01*
X27423Y9559D01*
X27485Y9510D01*
X27628Y8882D01*
X27640Y8852D01*
X27662Y8774D01*
X27895Y8178D01*
X27884Y8107D01*
X27862Y8021D01*
X27865Y7986D01*
X27859Y7952D01*
X27878Y7785D01*
X28368Y5638D01*
X28381Y5606D01*
X28387Y5572D01*
X28428Y5493D01*
X28461Y5411D01*
X28484Y5384D01*
X28500Y5354D01*
X28554Y5296D01*
X28602Y4654D01*
X28610Y4622D01*
X28619Y4541D01*
X28761Y3917D01*
X28740Y3848D01*
X28705Y3767D01*
X28703Y3732D01*
X28692Y3699D01*
X28686Y3531D01*
X28842Y1452D01*
X28857Y1391D01*
X28862Y1328D01*
X28885Y1272D01*
X28900Y1213D01*
X28925Y1173D01*
X28925Y627D01*
X28928Y608D01*
X28926Y588D01*
X28948Y487D01*
X28964Y385D01*
X28974Y367D01*
X28978Y348D01*
X29031Y259D01*
X29080Y167D01*
X29094Y154D01*
X29104Y136D01*
X29183Y69D01*
X29258Y-2D01*
X29276Y-11D01*
X29291Y-24D01*
X29387Y-62D01*
X29481Y-106D01*
X29501Y-108D01*
X29519Y-115D01*
X29686Y-134D01*
X67222Y-134D01*
X67227Y-137D01*
X67284Y-180D01*
X67312Y-187D01*
X67336Y-202D01*
X67436Y-218D01*
X67477Y-229D01*
X67487Y-227D01*
X67500Y-229D01*
X86500Y-229D01*
X86576Y-214D01*
X86654Y-205D01*
X86673Y-194D01*
X86695Y-190D01*
X86759Y-146D01*
X86827Y-107D01*
X86843Y-88D01*
X86859Y-77D01*
X86883Y-39D01*
X86933Y21D01*
X96433Y16521D01*
X96442Y16548D01*
X96458Y16572D01*
X96473Y16642D01*
X96496Y16710D01*
X96493Y16738D01*
X96499Y16766D01*
X96486Y16837D01*
X96480Y16908D01*
X96467Y16933D01*
X96461Y16961D01*
X96421Y17021D01*
X96388Y17084D01*
X96366Y17102D01*
X96350Y17126D01*
X96267Y17184D01*
X96235Y17211D01*
X96224Y17214D01*
X96214Y17221D01*
X95902Y17369D01*
X114559Y49683D01*
X114592Y49768D01*
X114631Y49851D01*
X114635Y49883D01*
X114646Y49913D01*
X114650Y50004D01*
X114661Y50095D01*
X114655Y50135D01*
X114655Y50159D01*
X114646Y50190D01*
X114635Y50261D01*
X114612Y50347D01*
X114598Y50378D01*
X114596Y50388D01*
X114586Y50405D01*
X114570Y50465D01*
X114536Y50516D01*
X114511Y50571D01*
X114468Y50617D01*
X114433Y50670D01*
X114366Y50727D01*
X114344Y50751D01*
X114328Y50760D01*
X114306Y50779D01*
X112581Y51954D01*
X112549Y51969D01*
X112522Y51990D01*
X112439Y52020D01*
X112358Y52058D01*
X112323Y52062D01*
X112291Y52073D01*
X112212Y52079D01*
X111740Y52517D01*
X111712Y52535D01*
X111651Y52588D01*
X111121Y52948D01*
X111091Y53013D01*
X111060Y53097D01*
X111039Y53124D01*
X111024Y53155D01*
X110914Y53282D01*
X109298Y54781D01*
X109269Y54800D01*
X109245Y54825D01*
X109167Y54867D01*
X109093Y54917D01*
X109059Y54926D01*
X109029Y54942D01*
X108952Y54960D01*
X108550Y55463D01*
X108526Y55485D01*
X108473Y55546D01*
X108003Y55982D01*
X107983Y56050D01*
X107965Y56137D01*
X107948Y56167D01*
X107938Y56201D01*
X107848Y56342D01*
X106473Y58065D01*
X106448Y58089D01*
X106428Y58117D01*
X106357Y58171D01*
X106291Y58230D01*
X106259Y58244D01*
X106231Y58265D01*
X106157Y58294D01*
X105835Y58851D01*
X105814Y58877D01*
X105771Y58945D01*
X105372Y59446D01*
X105362Y59516D01*
X105357Y59605D01*
X105345Y59638D01*
X105340Y59672D01*
X105272Y59826D01*
X104170Y61734D01*
X104148Y61761D01*
X104132Y61792D01*
X104070Y61855D01*
X104014Y61924D01*
X103984Y61943D01*
X103960Y61968D01*
X103891Y62007D01*
X103656Y62606D01*
X103639Y62635D01*
X103607Y62709D01*
X103286Y63263D01*
X103287Y63335D01*
X103296Y63423D01*
X103288Y63457D01*
X103288Y63492D01*
X103244Y63654D01*
X102438Y65705D01*
X102421Y65735D01*
X102410Y65768D01*
X102358Y65840D01*
X102313Y65917D01*
X102286Y65939D01*
X102266Y65967D01*
X102204Y66017D01*
X102060Y66644D01*
X102048Y66675D01*
X102027Y66753D01*
X101793Y67349D01*
X101804Y67420D01*
X101826Y67506D01*
X101823Y67541D01*
X101829Y67575D01*
X101810Y67741D01*
X101319Y69890D01*
X101305Y69922D01*
X101300Y69957D01*
X101259Y70036D01*
X101226Y70118D01*
X101203Y70144D01*
X101187Y70175D01*
X101133Y70233D01*
X101085Y70875D01*
X101077Y70907D01*
X101068Y70987D01*
X100925Y71612D01*
X100947Y71680D01*
X100981Y71762D01*
X100984Y71797D01*
X100994Y71830D01*
X101000Y71997D01*
X100835Y74195D01*
X100827Y74229D01*
X100827Y74264D01*
X100798Y74348D01*
X100777Y74434D01*
X100758Y74464D01*
X100747Y74496D01*
X100702Y74562D01*
X100750Y75204D01*
X100747Y75237D01*
X100748Y75262D01*
X100749Y75269D01*
X100749Y75272D01*
X100750Y75318D01*
X100702Y75956D01*
X100734Y76020D01*
X100780Y76096D01*
X100788Y76130D01*
X100803Y76161D01*
X100834Y76326D01*
X100998Y78524D01*
X100995Y78559D01*
X101000Y78593D01*
X100984Y78681D01*
X100977Y78769D01*
X100963Y78801D01*
X100957Y78835D01*
X100922Y78907D01*
X101065Y79534D01*
X101067Y79567D01*
X101082Y79647D01*
X101130Y80285D01*
X101170Y80344D01*
X101228Y80412D01*
X101240Y80445D01*
X101260Y80473D01*
X101315Y80632D01*
X101805Y82781D01*
X101807Y82815D01*
X101817Y82848D01*
X101815Y82937D01*
X101820Y83026D01*
X101811Y83060D01*
X101810Y83094D01*
X101786Y83170D01*
X102021Y83769D01*
X102028Y83802D01*
X102055Y83878D01*
X102197Y84502D01*
X102246Y84554D01*
X102313Y84613D01*
X102330Y84643D01*
X102354Y84669D01*
X102432Y84817D01*
X103237Y86869D01*
X103244Y86903D01*
X103259Y86934D01*
X103270Y87023D01*
X103289Y87110D01*
X103285Y87144D01*
X103289Y87178D01*
X103277Y87257D01*
X103598Y87815D01*
X103610Y87845D01*
X103648Y87917D01*
X103882Y88513D01*
X103938Y88557D01*
X104013Y88606D01*
X104034Y88633D01*
X104062Y88654D01*
X104161Y88789D01*
X105262Y90699D01*
X105275Y90731D01*
X105294Y90760D01*
X105318Y90846D01*
X105349Y90929D01*
X105351Y90963D01*
X105360Y90997D01*
X105360Y91076D01*
X105761Y91580D01*
X105777Y91608D01*
X105825Y91674D01*
X106145Y92228D01*
X106207Y92264D01*
X106288Y92300D01*
X106314Y92324D01*
X106344Y92341D01*
X106462Y92460D01*
X107836Y94183D01*
X107853Y94214D01*
X107876Y94239D01*
X107913Y94321D01*
X107956Y94398D01*
X107963Y94432D01*
X107977Y94464D01*
X107988Y94542D01*
X108460Y94980D01*
X108480Y95006D01*
X108537Y95064D01*
X108937Y95564D01*
X109003Y95590D01*
X109089Y95614D01*
X109118Y95634D01*
X109150Y95646D01*
X109285Y95746D01*
X110900Y97246D01*
X110921Y97273D01*
X110948Y97295D01*
X110996Y97370D01*
X111051Y97440D01*
X111062Y97473D01*
X111081Y97502D01*
X111104Y97578D01*
X111636Y97941D01*
X111660Y97963D01*
X111725Y98012D01*
X112194Y98447D01*
X112264Y98463D01*
X112353Y98474D01*
X112384Y98489D01*
X112418Y98496D01*
X112566Y98575D01*
X114387Y99817D01*
X114412Y99841D01*
X114442Y99859D01*
X114500Y99925D01*
X114565Y99987D01*
X114581Y100017D01*
X114604Y100044D01*
X114638Y100115D01*
X115218Y100395D01*
X115245Y100413D01*
X115316Y100452D01*
X115845Y100812D01*
X115917Y100817D01*
X116006Y100815D01*
X116039Y100825D01*
X116074Y100828D01*
X116232Y100883D01*
X118217Y101840D01*
X118246Y101860D01*
X118278Y101873D01*
X118346Y101930D01*
X118419Y101981D01*
X118439Y102009D01*
X118466Y102032D01*
X118510Y102097D01*
X119125Y102287D01*
X119155Y102302D01*
X119231Y102329D01*
X119808Y102607D01*
X119880Y102601D01*
X119967Y102586D01*
X120001Y102591D01*
X120036Y102588D01*
X120201Y102619D01*
X122307Y103270D01*
X122338Y103285D01*
X122372Y103293D01*
X122448Y103340D01*
X122527Y103379D01*
X122551Y103404D01*
X122581Y103422D01*
X122635Y103480D01*
X123271Y103577D01*
X123303Y103587D01*
X123382Y103602D01*
X123994Y103791D01*
X124064Y103774D01*
X124148Y103746D01*
X124183Y103746D01*
X124217Y103738D01*
X124384Y103745D01*
X126564Y104074D01*
X126597Y104085D01*
X126631Y104087D01*
X126713Y104122D01*
X126798Y104149D01*
X126826Y104170D01*
X126858Y104184D01*
X126919Y104233D01*
X127563Y104233D01*
X127596Y104239D01*
X127677Y104242D01*
X128310Y104338D01*
X128376Y104311D01*
X128455Y104270D01*
X128490Y104265D01*
X128522Y104252D01*
X128689Y104234D01*
X130893Y104235D01*
X130927Y104240D01*
X130962Y104238D01*
X131048Y104260D01*
X131135Y104274D01*
X131166Y104291D01*
X131200Y104299D01*
X131268Y104339D01*
X131905Y104243D01*
X131938Y104244D01*
X132018Y104235D01*
X132659Y104235D01*
X132721Y104199D01*
X132793Y104147D01*
X132826Y104137D01*
X132856Y104119D01*
X133018Y104076D01*
X134307Y103882D01*
X134312Y103882D01*
X134317Y103881D01*
X134434Y103884D01*
X134553Y103885D01*
X134558Y103887D01*
X134563Y103887D01*
X134673Y103927D01*
X134785Y103967D01*
X134789Y103970D01*
X134794Y103972D01*
X134886Y104045D01*
X134979Y104118D01*
X134982Y104122D01*
X134986Y104125D01*
X135049Y104224D01*
X135115Y104323D01*
X135116Y104328D01*
X135119Y104332D01*
X135147Y104446D01*
X135178Y104561D01*
X135178Y104566D01*
X135179Y104571D01*
X135170Y104688D01*
X135162Y104806D01*
X135160Y104811D01*
X135160Y104816D01*
X135114Y104924D01*
X135069Y105034D01*
X135065Y105038D01*
X135063Y105042D01*
X135012Y105107D01*
X135012Y108888D01*
X137676Y111553D01*
X141445Y111553D01*
X144109Y108888D01*
X144109Y105120D01*
X142832Y103843D01*
X142779Y103769D01*
X142720Y103699D01*
X142707Y103669D01*
X142689Y103643D01*
X142662Y103556D01*
X142628Y103471D01*
X142623Y103430D01*
X142616Y103408D01*
X142617Y103376D01*
X142609Y103305D01*
X142609Y101728D01*
X142625Y101633D01*
X142633Y101538D01*
X142645Y101512D01*
X142649Y101485D01*
X142694Y101400D01*
X142732Y101313D01*
X142751Y101292D01*
X142764Y101268D01*
X142833Y101202D01*
X142898Y101131D01*
X142928Y101112D01*
X142942Y101098D01*
X142972Y101084D01*
X143040Y101042D01*
X143246Y100943D01*
X143307Y100925D01*
X143364Y100898D01*
X143424Y100890D01*
X143482Y100873D01*
X143545Y100876D01*
X143608Y100868D01*
X143695Y100881D01*
X143728Y100883D01*
X143745Y100889D01*
X143774Y100893D01*
X143887Y100924D01*
X143970Y100961D01*
X144056Y100992D01*
X144081Y101012D01*
X144111Y101025D01*
X144178Y101087D01*
X144249Y101143D01*
X144274Y101176D01*
X144291Y101192D01*
X144306Y101221D01*
X144349Y101278D01*
X162998Y133579D01*
X163316Y133359D01*
X163343Y133348D01*
X163365Y133329D01*
X163434Y133309D01*
X163499Y133281D01*
X163528Y133281D01*
X163556Y133273D01*
X163627Y133281D01*
X163698Y133281D01*
X163725Y133292D01*
X163754Y133295D01*
X163816Y133330D01*
X163881Y133358D01*
X163902Y133378D01*
X163927Y133393D01*
X163990Y133470D01*
X164020Y133500D01*
X164024Y133510D01*
X164033Y133521D01*
X173533Y150021D01*
X173543Y150053D01*
X173552Y150066D01*
X173556Y150090D01*
X173557Y150094D01*
X173588Y150164D01*
X173588Y150188D01*
X173596Y150210D01*
X173590Y150286D01*
X173591Y150363D01*
X173581Y150387D01*
X173580Y150408D01*
X173559Y150447D01*
X173533Y150519D01*
X164033Y167019D01*
X164014Y167041D01*
X164001Y167067D01*
X163948Y167115D01*
X163901Y167168D01*
X163875Y167181D01*
X163854Y167200D01*
X163786Y167223D01*
X163722Y167254D01*
X163693Y167256D01*
X163666Y167265D01*
X163594Y167260D01*
X163523Y167263D01*
X163496Y167253D01*
X163467Y167251D01*
X163377Y167209D01*
X163337Y167194D01*
X163329Y167187D01*
X163316Y167181D01*
X163288Y167162D01*
X144655Y199435D01*
X144642Y199451D01*
X144634Y199469D01*
X144564Y199546D01*
X144499Y199626D01*
X144482Y199636D01*
X144469Y199651D01*
X144378Y199702D01*
X144291Y199757D01*
X144271Y199761D01*
X144254Y199771D01*
X144152Y199790D01*
X144051Y199814D01*
X144032Y199812D01*
X144012Y199816D01*
X143910Y199801D01*
X143806Y199792D01*
X143788Y199784D01*
X143769Y199782D01*
X143615Y199714D01*
X143539Y199670D01*
X143529Y199671D01*
X143468Y199657D01*
X143405Y199653D01*
X143321Y199624D01*
X143289Y199616D01*
X143274Y199607D01*
X143246Y199597D01*
X141366Y198692D01*
X141337Y198672D01*
X141305Y198660D01*
X141237Y198602D01*
X141164Y198551D01*
X141144Y198523D01*
X141117Y198501D01*
X141072Y198435D01*
X140457Y198246D01*
X140428Y198231D01*
X140351Y198204D01*
X139774Y197927D01*
X139703Y197933D01*
X139615Y197948D01*
X139581Y197943D01*
X139547Y197946D01*
X139382Y197914D01*
X137275Y197265D01*
X137244Y197250D01*
X137210Y197242D01*
X137135Y197196D01*
X137055Y197156D01*
X137030Y197131D01*
X137001Y197113D01*
X136947Y197055D01*
X136311Y196959D01*
X136279Y196949D01*
X136200Y196934D01*
X135588Y196745D01*
X135518Y196762D01*
X135434Y196790D01*
X135399Y196790D01*
X135365Y196798D01*
X135198Y196792D01*
X133018Y196464D01*
X132985Y196453D01*
X132950Y196451D01*
X132868Y196416D01*
X132784Y196389D01*
X132756Y196368D01*
X132724Y196354D01*
X132662Y196305D01*
X132018Y196305D01*
X131986Y196300D01*
X131905Y196297D01*
X131272Y196201D01*
X131205Y196228D01*
X131126Y196269D01*
X131092Y196274D01*
X131059Y196287D01*
X130893Y196305D01*
X128689Y196306D01*
X128654Y196301D01*
X128620Y196303D01*
X128534Y196281D01*
X128446Y196267D01*
X128415Y196250D01*
X128382Y196242D01*
X128313Y196202D01*
X127677Y196298D01*
X127644Y196298D01*
X127563Y196307D01*
X126923Y196307D01*
X126861Y196343D01*
X126789Y196395D01*
X126756Y196405D01*
X126726Y196423D01*
X126564Y196466D01*
X124384Y196795D01*
X124349Y196795D01*
X124316Y196803D01*
X124227Y196793D01*
X124138Y196792D01*
X124106Y196781D01*
X124071Y196777D01*
X123997Y196748D01*
X123382Y196938D01*
X123350Y196943D01*
X123271Y196963D01*
X122638Y197059D01*
X122583Y197104D01*
X122519Y197166D01*
X122488Y197181D01*
X122461Y197203D01*
X122307Y197270D01*
X120201Y197921D01*
X120166Y197925D01*
X120134Y197938D01*
X120045Y197942D01*
X119957Y197954D01*
X119923Y197948D01*
X119888Y197949D01*
X119811Y197932D01*
X119231Y198211D01*
X119200Y198220D01*
X119125Y198253D01*
X118513Y198442D01*
X118465Y198495D01*
X118411Y198566D01*
X118383Y198585D01*
X118359Y198611D01*
X118217Y198700D01*
X116232Y199657D01*
X116199Y199667D01*
X116168Y199684D01*
X116081Y199701D01*
X115996Y199726D01*
X115961Y199725D01*
X115927Y199732D01*
X115848Y199726D01*
X115316Y200088D01*
X115286Y200102D01*
X115218Y200145D01*
X114641Y200423D01*
X114601Y200483D01*
X114559Y200561D01*
X114533Y200585D01*
X114514Y200614D01*
X114387Y200723D01*
X112566Y201965D01*
X112534Y201980D01*
X112507Y202001D01*
X112424Y202031D01*
X112343Y202069D01*
X112308Y202073D01*
X112276Y202085D01*
X112197Y202090D01*
X111725Y202528D01*
X111698Y202547D01*
X111636Y202599D01*
X111107Y202960D01*
X111077Y203025D01*
X111046Y203109D01*
X111025Y203136D01*
X111010Y203167D01*
X110900Y203294D01*
X109285Y204794D01*
X109256Y204813D01*
X109232Y204838D01*
X109154Y204881D01*
X109080Y204930D01*
X109047Y204939D01*
X109016Y204955D01*
X108939Y204973D01*
X108537Y205476D01*
X108513Y205499D01*
X108460Y205560D01*
X107991Y205995D01*
X107970Y206064D01*
X107953Y206151D01*
X107935Y206181D01*
X107925Y206215D01*
X107836Y206357D01*
X107656Y206583D01*
X107609Y206625D01*
X107570Y206674D01*
X107519Y206707D01*
X107473Y206748D01*
X107416Y206773D01*
X107363Y206807D01*
X107304Y206822D01*
X107248Y206846D01*
X107185Y206851D01*
X107125Y206867D01*
X107064Y206862D01*
X107003Y206867D01*
X106942Y206852D01*
X106879Y206848D01*
X106823Y206824D01*
X106764Y206809D01*
X106711Y206776D01*
X106653Y206751D01*
X106584Y206696D01*
X106556Y206678D01*
X106545Y206664D01*
X106522Y206646D01*
X104137Y204261D01*
X100369Y204261D01*
X97704Y206926D01*
X97704Y210694D01*
X100369Y213359D01*
X102175Y213359D01*
X102265Y213374D01*
X102356Y213381D01*
X102386Y213393D01*
X102418Y213399D01*
X102498Y213441D01*
X102582Y213477D01*
X102614Y213503D01*
X102635Y213514D01*
X102657Y213537D01*
X102713Y213582D01*
X102762Y213631D01*
X102826Y213720D01*
X102893Y213807D01*
X102898Y213819D01*
X102906Y213830D01*
X102938Y213935D01*
X102974Y214039D01*
X102974Y214053D01*
X102978Y214065D01*
X102975Y214175D01*
X102976Y214285D01*
X102972Y214301D01*
X102972Y214311D01*
X102962Y214338D01*
X102933Y214447D01*
X102432Y215723D01*
X102415Y215753D01*
X102404Y215786D01*
X102352Y215858D01*
X102307Y215934D01*
X102280Y215957D01*
X102260Y215985D01*
X102198Y216034D01*
X102055Y216662D01*
X102043Y216693D01*
X102021Y216771D01*
X101788Y217367D01*
X101788Y217368D01*
X101793Y217379D01*
X101800Y217440D01*
X101821Y217524D01*
X101818Y217558D01*
X101824Y217593D01*
X101805Y217759D01*
X101315Y219908D01*
X101302Y219941D01*
X101297Y219975D01*
X101256Y220054D01*
X101222Y220136D01*
X101200Y220163D01*
X101184Y220193D01*
X101130Y220251D01*
X101082Y220893D01*
X101074Y220925D01*
X101065Y221006D01*
X100923Y221630D01*
X100944Y221698D01*
X100979Y221780D01*
X100982Y221815D01*
X100992Y221848D01*
X100998Y222016D01*
X100834Y224214D01*
X100826Y224247D01*
X100826Y224282D01*
X100797Y224367D01*
X100776Y224453D01*
X100758Y224482D01*
X100747Y224515D01*
X100702Y224581D01*
X100750Y225222D01*
X100747Y225255D01*
X100750Y225336D01*
X100703Y225975D01*
X100734Y226039D01*
X100781Y226115D01*
X100789Y226149D01*
X100804Y226180D01*
X100835Y226345D01*
X101000Y228543D01*
X100997Y228577D01*
X101002Y228612D01*
X100987Y228699D01*
X100979Y228788D01*
X100965Y228820D01*
X100959Y228854D01*
X100924Y228925D01*
X101068Y229553D01*
X101070Y229586D01*
X101085Y229665D01*
X101133Y230304D01*
X101174Y230362D01*
X101231Y230431D01*
X101244Y230463D01*
X101263Y230491D01*
X101319Y230650D01*
X101810Y232799D01*
X101812Y232833D01*
X101822Y232866D01*
X101819Y232955D01*
X101825Y233044D01*
X101816Y233078D01*
X101815Y233112D01*
X101792Y233188D01*
X102027Y233787D01*
X102034Y233819D01*
X102060Y233896D01*
X102203Y234520D01*
X102252Y234572D01*
X102319Y234631D01*
X102336Y234661D01*
X102360Y234686D01*
X102438Y234835D01*
X103244Y236886D01*
X103252Y236920D01*
X103267Y236951D01*
X103277Y237040D01*
X103296Y237127D01*
X103292Y237161D01*
X103296Y237196D01*
X103285Y237274D01*
X103607Y237831D01*
X103618Y237862D01*
X103656Y237934D01*
X103890Y238530D01*
X103947Y238574D01*
X104021Y238622D01*
X104043Y238649D01*
X104070Y238671D01*
X104170Y238806D01*
X105272Y240714D01*
X105285Y240747D01*
X105304Y240776D01*
X105328Y240861D01*
X105359Y240944D01*
X105361Y240979D01*
X105370Y241013D01*
X105370Y241092D01*
X105771Y241595D01*
X105787Y241624D01*
X105835Y241689D01*
X106156Y242243D01*
X106218Y242279D01*
X106299Y242315D01*
X106325Y242339D01*
X106355Y242356D01*
X106473Y242475D01*
X107848Y244198D01*
X107865Y244228D01*
X107889Y244253D01*
X107925Y244334D01*
X107968Y244412D01*
X107975Y244446D01*
X107989Y244478D01*
X108001Y244556D01*
X108473Y244994D01*
X108493Y245020D01*
X108550Y245077D01*
X108950Y245578D01*
X109016Y245603D01*
X109102Y245627D01*
X109131Y245647D01*
X109163Y245659D01*
X109298Y245759D01*
X110914Y247258D01*
X110935Y247285D01*
X110963Y247307D01*
X111011Y247382D01*
X111065Y247452D01*
X111077Y247485D01*
X111095Y247514D01*
X111119Y247590D01*
X111651Y247952D01*
X111675Y247975D01*
X111740Y248023D01*
X112209Y248459D01*
X112279Y248474D01*
X112367Y248485D01*
X112399Y248500D01*
X112433Y248507D01*
X112581Y248586D01*
X114306Y249761D01*
X114351Y249805D01*
X114403Y249840D01*
X114440Y249889D01*
X114484Y249931D01*
X114506Y249973D01*
X114574Y250012D01*
X114590Y250025D01*
X114608Y250033D01*
X114685Y250102D01*
X114765Y250168D01*
X114775Y250185D01*
X114790Y250198D01*
X114841Y250288D01*
X114896Y250376D01*
X114900Y250396D01*
X114910Y250413D01*
X114929Y250515D01*
X114953Y250615D01*
X114951Y250635D01*
X114955Y250655D01*
X114941Y250757D01*
X114931Y250860D01*
X114923Y250878D01*
X114921Y250898D01*
X114853Y251052D01*
X96221Y283324D01*
X96236Y283336D01*
X96263Y283346D01*
X96315Y283395D01*
X96373Y283438D01*
X96387Y283463D01*
X96408Y283482D01*
X96437Y283548D01*
X96473Y283610D01*
X96476Y283638D01*
X96488Y283664D01*
X96489Y283736D01*
X96498Y283807D01*
X96490Y283834D01*
X96491Y283863D01*
X96455Y283958D01*
X96444Y283998D01*
X96437Y284007D01*
X96433Y284019D01*
X86933Y300519D01*
X86881Y300578D01*
X86835Y300640D01*
X86816Y300651D01*
X86801Y300668D01*
X86731Y300702D01*
X86664Y300742D01*
X86640Y300746D01*
X86622Y300754D01*
X86577Y300756D01*
X86500Y300769D01*
X67500Y300769D01*
X67472Y300764D01*
X67444Y300766D01*
X67376Y300744D01*
X67305Y300730D01*
X67282Y300714D01*
X67255Y300705D01*
X67200Y300658D01*
X67141Y300617D01*
X67126Y300593D01*
X67105Y300575D01*
X67073Y300510D01*
X67034Y300450D01*
X67029Y300422D01*
X67017Y300396D01*
X67008Y300295D01*
X67001Y300253D01*
X67003Y300243D01*
X67002Y300230D01*
X67012Y300108D01*
X29686Y300108D01*
X29666Y300105D01*
X29647Y300107D01*
X29545Y300085D01*
X29443Y300068D01*
X29426Y300059D01*
X29406Y300055D01*
X29317Y300001D01*
X29226Y299953D01*
X29212Y299939D01*
X29195Y299928D01*
X29128Y299850D01*
X29056Y299775D01*
X29048Y299757D01*
X29035Y299742D01*
X28996Y299645D01*
X28953Y299552D01*
X28951Y299532D01*
X28943Y299513D01*
X28929Y299383D01*
X28919Y299370D01*
X28901Y299309D01*
X28873Y299253D01*
X28856Y299166D01*
X28847Y299135D01*
X28847Y299117D01*
X28842Y299088D01*
X28686Y297009D01*
X28689Y296974D01*
X28684Y296940D01*
X28700Y296852D01*
X28707Y296764D01*
X28721Y296732D01*
X28728Y296698D01*
X28762Y296626D01*
X28619Y295999D01*
X28617Y295966D01*
X28602Y295886D01*
X28554Y295248D01*
X28513Y295189D01*
X28456Y295121D01*
X28443Y295088D01*
X28424Y295060D01*
X28368Y294902D01*
X27878Y292755D01*
X27876Y292720D01*
X27866Y292687D01*
X27869Y292598D01*
X27863Y292509D01*
X27872Y292476D01*
X27873Y292441D01*
X27897Y292365D01*
X27662Y291766D01*
X27655Y291734D01*
X27628Y291658D01*
X27486Y291033D01*
X27436Y290981D01*
X27370Y290922D01*
X27352Y290892D01*
X27328Y290867D01*
X27250Y290719D01*
X26446Y288669D01*
X26439Y288635D01*
X26424Y288604D01*
X26413Y288515D01*
X26394Y288428D01*
X26398Y288394D01*
X26394Y288360D01*
X26406Y288281D01*
X26084Y287724D01*
X26072Y287693D01*
X26035Y287621D01*
X25801Y287025D01*
X25744Y286981D01*
X25670Y286933D01*
X25648Y286905D01*
X25621Y286884D01*
X25521Y286749D01*
X24420Y284842D01*
X24408Y284810D01*
X24389Y284781D01*
X24365Y284695D01*
X24333Y284612D01*
X24332Y284577D01*
X24323Y284544D01*
X24323Y284464D01*
X23922Y283961D01*
X23905Y283932D01*
X23857Y283867D01*
X23537Y283313D01*
X23475Y283277D01*
X23394Y283241D01*
X23369Y283217D01*
X23338Y283200D01*
X23220Y283081D01*
X21847Y281360D01*
X21830Y281330D01*
X21807Y281304D01*
X21770Y281223D01*
X21727Y281145D01*
X21720Y281111D01*
X21706Y281079D01*
X21694Y281001D01*
X21223Y280563D01*
X21202Y280537D01*
X21145Y280480D01*
X20746Y279979D01*
X20679Y279953D01*
X20593Y279929D01*
X20565Y279910D01*
X20532Y279897D01*
X20398Y279798D01*
X18783Y278300D01*
X18762Y278273D01*
X18735Y278251D01*
X18687Y278176D01*
X18633Y278106D01*
X18621Y278073D01*
X18602Y278044D01*
X18579Y277968D01*
X18047Y277605D01*
X18023Y277583D01*
X18012Y277574D01*
X18000Y277568D01*
X17991Y277559D01*
X17958Y277534D01*
X17489Y277099D01*
X17419Y277083D01*
X17331Y277072D01*
X17299Y277057D01*
X17266Y277050D01*
X17117Y276971D01*
X15298Y275731D01*
X15273Y275707D01*
X15243Y275689D01*
X15184Y275623D01*
X15120Y275561D01*
X15104Y275531D01*
X15081Y275505D01*
X15047Y275433D01*
X14467Y275154D01*
X14440Y275135D01*
X14368Y275097D01*
X13839Y274736D01*
X13767Y274731D01*
X13679Y274734D01*
X13645Y274723D01*
X13611Y274721D01*
X13453Y274665D01*
X11469Y273710D01*
X11440Y273690D01*
X11408Y273677D01*
X11340Y273620D01*
X11267Y273569D01*
X11247Y273541D01*
X11220Y273519D01*
X11176Y273453D01*
X10561Y273263D01*
X10531Y273248D01*
X10455Y273222D01*
X9878Y272944D01*
X9806Y272950D01*
X9719Y272965D01*
X9684Y272960D01*
X9650Y272963D01*
X9485Y272931D01*
X7381Y272282D01*
X7350Y272267D01*
X7316Y272259D01*
X7240Y272213D01*
X7161Y272173D01*
X7136Y272148D01*
X7107Y272130D01*
X7053Y272072D01*
X6416Y271976D01*
X6385Y271966D01*
X6305Y271951D01*
X5693Y271762D01*
X5624Y271778D01*
X5539Y271807D01*
X5505Y271807D01*
X5471Y271815D01*
X5303Y271808D01*
X3126Y271480D01*
X3093Y271469D01*
X3058Y271467D01*
X2977Y271432D01*
X2892Y271405D01*
X2864Y271384D01*
X2832Y271370D01*
X2770Y271321D01*
X2127Y271321D01*
X2094Y271315D01*
X2013Y271312D01*
X1380Y271217D01*
X1313Y271244D01*
X1234Y271284D01*
X1200Y271289D01*
X1168Y271302D01*
X1001Y271321D01*
X-1201Y271321D01*
X-1235Y271315D01*
X-1270Y271318D01*
X-1356Y271295D01*
X-1444Y271281D01*
X-1474Y271265D01*
X-1508Y271256D01*
X-1577Y271216D01*
X-2213Y271312D01*
X-2246Y271312D01*
X-2327Y271321D01*
X-2967Y271321D01*
X-3029Y271357D01*
X-3101Y271409D01*
X-3134Y271419D01*
X-3164Y271437D01*
X-3326Y271480D01*
X-5503Y271808D01*
X-5538Y271808D01*
X-5572Y271815D01*
X-5660Y271806D01*
X-5749Y271805D01*
X-5782Y271794D01*
X-5817Y271790D01*
X-5890Y271761D01*
X-6505Y271951D01*
X-6538Y271955D01*
X-6616Y271976D01*
X-7250Y272071D01*
X-7305Y272117D01*
X-7369Y272179D01*
X-7400Y272194D01*
X-7427Y272216D01*
X-7581Y272282D01*
X-9685Y272931D01*
X-9719Y272936D01*
X-9752Y272949D01*
X-9841Y272953D01*
X-9929Y272965D01*
X-9963Y272959D01*
X-9997Y272960D01*
X-10075Y272942D01*
X-10655Y273222D01*
X-10686Y273231D01*
X-10761Y273263D01*
X-11373Y273452D01*
X-11421Y273505D01*
X-11474Y273576D01*
X-11503Y273595D01*
X-11526Y273621D01*
X-11669Y273710D01*
X-13653Y274665D01*
X-13686Y274675D01*
X-13716Y274692D01*
X-13803Y274710D01*
X-13888Y274735D01*
X-13923Y274734D01*
X-13957Y274740D01*
X-14036Y274734D01*
X-14568Y275097D01*
X-14598Y275111D01*
X-14667Y275154D01*
X-15244Y275432D01*
X-15283Y275491D01*
X-15326Y275569D01*
X-15351Y275593D01*
X-15371Y275622D01*
X-15498Y275731D01*
X-17317Y276971D01*
X-17349Y276986D01*
X-17376Y277007D01*
X-17460Y277038D01*
X-17540Y277075D01*
X-17575Y277079D01*
X-17607Y277091D01*
X-17686Y277097D01*
X-17794Y277197D01*
X-17842Y277228D01*
X-17884Y277268D01*
X-17944Y277296D01*
X-17999Y277333D01*
X-18055Y277348D01*
X-18107Y277372D01*
X-18173Y277379D01*
X-18237Y277396D01*
X-18294Y277392D01*
X-18352Y277399D01*
X-18416Y277385D01*
X-18482Y277381D01*
X-18536Y277359D01*
X-18592Y277347D01*
X-18649Y277313D01*
X-18710Y277288D01*
X-18754Y277250D01*
X-18803Y277220D01*
X-18846Y277170D01*
X-18896Y277127D01*
X-18926Y277077D01*
X-18963Y277033D01*
X-18988Y276972D01*
X-19021Y276915D01*
X-19033Y276859D01*
X-19055Y276805D01*
X-19066Y276705D01*
X-19073Y276674D01*
X-19071Y276661D01*
X-19073Y276639D01*
X-19073Y276596D01*
X-21738Y273931D01*
X-25506Y273931D01*
X-28171Y276596D01*
X-28171Y280364D01*
X-25506Y283029D01*
X-24959Y283029D01*
X-24930Y283033D01*
X-24901Y283031D01*
X-24809Y283053D01*
X-24716Y283068D01*
X-24690Y283082D01*
X-24662Y283089D01*
X-24582Y283139D01*
X-24498Y283183D01*
X-24478Y283204D01*
X-24454Y283220D01*
X-24394Y283293D01*
X-24329Y283362D01*
X-24317Y283388D01*
X-24298Y283411D01*
X-24265Y283499D01*
X-24225Y283585D01*
X-24222Y283614D01*
X-24212Y283641D01*
X-24209Y283736D01*
X-24198Y283829D01*
X-24205Y283858D01*
X-24204Y283887D01*
X-24231Y283977D01*
X-24251Y284070D01*
X-24266Y284095D01*
X-24274Y284123D01*
X-24363Y284264D01*
X-24521Y284462D01*
X-24531Y284533D01*
X-24535Y284622D01*
X-24548Y284654D01*
X-24553Y284688D01*
X-24620Y284842D01*
X-25721Y286749D01*
X-25743Y286776D01*
X-25758Y286807D01*
X-25821Y286871D01*
X-25877Y286939D01*
X-25906Y286958D01*
X-25931Y286982D01*
X-26000Y287022D01*
X-26235Y287621D01*
X-26251Y287649D01*
X-26284Y287724D01*
X-26604Y288278D01*
X-26604Y288350D01*
X-26595Y288438D01*
X-26602Y288472D01*
X-26602Y288507D01*
X-26646Y288669D01*
X-27450Y290719D01*
X-27468Y290748D01*
X-27478Y290781D01*
X-27530Y290853D01*
X-27576Y290930D01*
X-27602Y290953D01*
X-27623Y290981D01*
X-27685Y291030D01*
X-27828Y291658D01*
X-27840Y291688D01*
X-27862Y291766D01*
X-28095Y292362D01*
X-28084Y292433D01*
X-28062Y292519D01*
X-28065Y292554D01*
X-28059Y292588D01*
X-28078Y292755D01*
X-28568Y294902D01*
X-28581Y294934D01*
X-28587Y294968D01*
X-28628Y295047D01*
X-28661Y295129D01*
X-28684Y295156D01*
X-28700Y295186D01*
X-28754Y295244D01*
X-28802Y295886D01*
X-28810Y295918D01*
X-28819Y295999D01*
X-28961Y296623D01*
X-28940Y296692D01*
X-28905Y296774D01*
X-28903Y296808D01*
X-28892Y296841D01*
X-28886Y297009D01*
X-29042Y299088D01*
X-29057Y299149D01*
X-29062Y299212D01*
X-29085Y299268D01*
X-29100Y299327D01*
X-29127Y299371D01*
X-29126Y299386D01*
X-29148Y299487D01*
X-29164Y299589D01*
X-29174Y299607D01*
X-29178Y299626D01*
X-29231Y299715D01*
X-29280Y299807D01*
X-29294Y299820D01*
X-29304Y299838D01*
X-29383Y299905D01*
X-29458Y299976D01*
X-29476Y299985D01*
X-29491Y299997D01*
X-29587Y300036D01*
X-29681Y300080D01*
X-29701Y300082D01*
X-29719Y300089D01*
X-29886Y300108D01*
X-67212Y300108D01*
X-67202Y300230D01*
X-67206Y300259D01*
X-67201Y300287D01*
X-67218Y300356D01*
X-67226Y300428D01*
X-67241Y300452D01*
X-67247Y300480D01*
X-67290Y300538D01*
X-67326Y300600D01*
X-67348Y300617D01*
X-67365Y300640D01*
X-67427Y300677D01*
X-67484Y300720D01*
X-67512Y300727D01*
X-67536Y300742D01*
X-67636Y300758D01*
X-67677Y300769D01*
X-67687Y300767D01*
X-67700Y300769D01*
X-86700Y300769D01*
X-86776Y300754D01*
X-86854Y300745D01*
X-86873Y300734D01*
X-86895Y300730D01*
X-86959Y300686D01*
X-87027Y300647D01*
X-87043Y300628D01*
X-87059Y300617D01*
X-87083Y300579D01*
X-87133Y300519D01*
X-96633Y284019D01*
X-96642Y283992D01*
X-96658Y283968D01*
X-96673Y283898D01*
X-96696Y283830D01*
X-96693Y283802D01*
X-96699Y283774D01*
X-96686Y283704D01*
X-96680Y283632D01*
X-96667Y283607D01*
X-96661Y283579D01*
X-96621Y283519D01*
X-96588Y283456D01*
X-96566Y283438D01*
X-96550Y283414D01*
X-96480Y283365D01*
X-115115Y251088D01*
X-115122Y251069D01*
X-115134Y251053D01*
X-115166Y250954D01*
X-115202Y250858D01*
X-115203Y250838D01*
X-115209Y250819D01*
X-115208Y250715D01*
X-115211Y250612D01*
X-115206Y250593D01*
X-115205Y250573D01*
X-115171Y250475D01*
X-115142Y250376D01*
X-115130Y250360D01*
X-115123Y250341D01*
X-115059Y250259D01*
X-115000Y250175D01*
X-114984Y250163D01*
X-114972Y250147D01*
X-114836Y250048D01*
X-114715Y249978D01*
X-114711Y249969D01*
X-114668Y249923D01*
X-114633Y249870D01*
X-114566Y249813D01*
X-114544Y249789D01*
X-114528Y249780D01*
X-114506Y249761D01*
X-112781Y248586D01*
X-112749Y248571D01*
X-112722Y248550D01*
X-112639Y248520D01*
X-112558Y248482D01*
X-112523Y248478D01*
X-112491Y248467D01*
X-112412Y248461D01*
X-111940Y248023D01*
X-111912Y248005D01*
X-111851Y247952D01*
X-111321Y247592D01*
X-111291Y247527D01*
X-111260Y247443D01*
X-111239Y247416D01*
X-111224Y247385D01*
X-111114Y247258D01*
X-109498Y245759D01*
X-109469Y245740D01*
X-109445Y245715D01*
X-109367Y245672D01*
X-109293Y245623D01*
X-109260Y245614D01*
X-109229Y245598D01*
X-109152Y245580D01*
X-108750Y245077D01*
X-108726Y245055D01*
X-108673Y244994D01*
X-108203Y244558D01*
X-108183Y244490D01*
X-108165Y244403D01*
X-108148Y244373D01*
X-108138Y244339D01*
X-108048Y244198D01*
X-106673Y242475D01*
X-106648Y242451D01*
X-106628Y242423D01*
X-106557Y242369D01*
X-106491Y242310D01*
X-106459Y242296D01*
X-106431Y242275D01*
X-106357Y242246D01*
X-106035Y241689D01*
X-106014Y241663D01*
X-105971Y241595D01*
X-105572Y241094D01*
X-105562Y241024D01*
X-105557Y240935D01*
X-105545Y240902D01*
X-105540Y240868D01*
X-105472Y240714D01*
X-104370Y238806D01*
X-104348Y238779D01*
X-104332Y238748D01*
X-104270Y238685D01*
X-104214Y238616D01*
X-104184Y238597D01*
X-104160Y238572D01*
X-104091Y238533D01*
X-103856Y237934D01*
X-103839Y237905D01*
X-103807Y237831D01*
X-103486Y237277D01*
X-103487Y237205D01*
X-103496Y237117D01*
X-103488Y237083D01*
X-103488Y237048D01*
X-103444Y236886D01*
X-102638Y234835D01*
X-102621Y234805D01*
X-102610Y234772D01*
X-102558Y234700D01*
X-102513Y234623D01*
X-102486Y234601D01*
X-102466Y234573D01*
X-102404Y234523D01*
X-102260Y233896D01*
X-102248Y233865D01*
X-102227Y233787D01*
X-101993Y233191D01*
X-102004Y233120D01*
X-102026Y233034D01*
X-102023Y232999D01*
X-102029Y232965D01*
X-102010Y232799D01*
X-101709Y231482D01*
X-101687Y231429D01*
X-101675Y231372D01*
X-101641Y231316D01*
X-101616Y231255D01*
X-101578Y231211D01*
X-101548Y231161D01*
X-101498Y231118D01*
X-101455Y231068D01*
X-101406Y231039D01*
X-101362Y231001D01*
X-101300Y230976D01*
X-101244Y230943D01*
X-101187Y230931D01*
X-101133Y230909D01*
X-101034Y230898D01*
X-101003Y230892D01*
X-100989Y230893D01*
X-100967Y230891D01*
X-100545Y230891D01*
X-100455Y230905D01*
X-100364Y230913D01*
X-100334Y230925D01*
X-100302Y230930D01*
X-100222Y230973D01*
X-100138Y231009D01*
X-100106Y231035D01*
X-100085Y231046D01*
X-100063Y231069D01*
X-100007Y231114D01*
X-98730Y232391D01*
X-94961Y232391D01*
X-92297Y229726D01*
X-92297Y225958D01*
X-94961Y223293D01*
X-98730Y223293D01*
X-99764Y224328D01*
X-99799Y224353D01*
X-99829Y224385D01*
X-99899Y224424D01*
X-99964Y224471D01*
X-100005Y224484D01*
X-100043Y224505D01*
X-100122Y224520D01*
X-100199Y224544D01*
X-100242Y224542D01*
X-100285Y224550D01*
X-100365Y224539D01*
X-100445Y224537D01*
X-100486Y224522D01*
X-100529Y224516D01*
X-100600Y224480D01*
X-100676Y224453D01*
X-100710Y224425D01*
X-100749Y224406D01*
X-100805Y224349D01*
X-100868Y224299D01*
X-100891Y224262D01*
X-100922Y224232D01*
X-100957Y224160D01*
X-101001Y224092D01*
X-101011Y224050D01*
X-101031Y224011D01*
X-101058Y223866D01*
X-101061Y223854D01*
X-101061Y223850D01*
X-101062Y223846D01*
X-101198Y222016D01*
X-101195Y221981D01*
X-101200Y221947D01*
X-101184Y221859D01*
X-101177Y221771D01*
X-101163Y221739D01*
X-101157Y221705D01*
X-101122Y221633D01*
X-101265Y221006D01*
X-101267Y220973D01*
X-101282Y220893D01*
X-101330Y220255D01*
X-101370Y220196D01*
X-101428Y220128D01*
X-101440Y220095D01*
X-101460Y220067D01*
X-101515Y219908D01*
X-102005Y217759D01*
X-102007Y217725D01*
X-102017Y217692D01*
X-102015Y217603D01*
X-102016Y217580D01*
X-102020Y217544D01*
X-102019Y217538D01*
X-102020Y217514D01*
X-102011Y217480D01*
X-102010Y217446D01*
X-101986Y217370D01*
X-102221Y216771D01*
X-102228Y216738D01*
X-102255Y216662D01*
X-102397Y216038D01*
X-102446Y215986D01*
X-102513Y215927D01*
X-102530Y215897D01*
X-102554Y215871D01*
X-102632Y215723D01*
X-103437Y213671D01*
X-103444Y213637D01*
X-103459Y213606D01*
X-103470Y213517D01*
X-103489Y213430D01*
X-103485Y213396D01*
X-103489Y213362D01*
X-103477Y213283D01*
X-103798Y212725D01*
X-103810Y212695D01*
X-103848Y212623D01*
X-104082Y212027D01*
X-104138Y211983D01*
X-104213Y211934D01*
X-104234Y211907D01*
X-104262Y211886D01*
X-104361Y211751D01*
X-105462Y209841D01*
X-105475Y209809D01*
X-105494Y209780D01*
X-105518Y209694D01*
X-105549Y209611D01*
X-105551Y209577D01*
X-105560Y209543D01*
X-105560Y209464D01*
X-105961Y208960D01*
X-105977Y208932D01*
X-106025Y208866D01*
X-106345Y208312D01*
X-106407Y208276D01*
X-106488Y208240D01*
X-106514Y208216D01*
X-106544Y208199D01*
X-106662Y208080D01*
X-108036Y206357D01*
X-108053Y206326D01*
X-108076Y206301D01*
X-108113Y206219D01*
X-108156Y206142D01*
X-108163Y206108D01*
X-108177Y206076D01*
X-108188Y205998D01*
X-108660Y205560D01*
X-108680Y205534D01*
X-108737Y205476D01*
X-109137Y204975D01*
X-109203Y204950D01*
X-109289Y204926D01*
X-109318Y204906D01*
X-109350Y204894D01*
X-109485Y204794D01*
X-111100Y203294D01*
X-111121Y203267D01*
X-111148Y203245D01*
X-111196Y203170D01*
X-111251Y203100D01*
X-111262Y203067D01*
X-111281Y203038D01*
X-111304Y202962D01*
X-111836Y202599D01*
X-111860Y202577D01*
X-111925Y202528D01*
X-112394Y202093D01*
X-112464Y202077D01*
X-112553Y202066D01*
X-112584Y202051D01*
X-112618Y202044D01*
X-112766Y201965D01*
X-114587Y200723D01*
X-114612Y200699D01*
X-114642Y200681D01*
X-114700Y200615D01*
X-114765Y200553D01*
X-114781Y200523D01*
X-114804Y200496D01*
X-114838Y200425D01*
X-115418Y200145D01*
X-115445Y200127D01*
X-115516Y200088D01*
X-116045Y199728D01*
X-116117Y199723D01*
X-116206Y199725D01*
X-116239Y199715D01*
X-116274Y199712D01*
X-116432Y199657D01*
X-118417Y198700D01*
X-118446Y198680D01*
X-118478Y198667D01*
X-118546Y198610D01*
X-118619Y198559D01*
X-118639Y198531D01*
X-118666Y198508D01*
X-118710Y198443D01*
X-119325Y198253D01*
X-119355Y198238D01*
X-119431Y198211D01*
X-120008Y197933D01*
X-120080Y197939D01*
X-120167Y197954D01*
X-120201Y197949D01*
X-120236Y197952D01*
X-120401Y197921D01*
X-122507Y197270D01*
X-122538Y197255D01*
X-122572Y197247D01*
X-122648Y197200D01*
X-122727Y197161D01*
X-122751Y197136D01*
X-122781Y197118D01*
X-122835Y197060D01*
X-123471Y196963D01*
X-123503Y196953D01*
X-123582Y196938D01*
X-124194Y196749D01*
X-124264Y196766D01*
X-124348Y196794D01*
X-124383Y196794D01*
X-124417Y196802D01*
X-124584Y196795D01*
X-126764Y196466D01*
X-126797Y196455D01*
X-126831Y196453D01*
X-126913Y196418D01*
X-126998Y196391D01*
X-127026Y196370D01*
X-127058Y196356D01*
X-127119Y196307D01*
X-127763Y196307D01*
X-127796Y196301D01*
X-127877Y196298D01*
X-128510Y196202D01*
X-128576Y196229D01*
X-128655Y196270D01*
X-128690Y196275D01*
X-128722Y196288D01*
X-128889Y196306D01*
X-131093Y196305D01*
X-131127Y196300D01*
X-131162Y196302D01*
X-131248Y196280D01*
X-131335Y196266D01*
X-131366Y196249D01*
X-131400Y196241D01*
X-131468Y196201D01*
X-132105Y196297D01*
X-132138Y196296D01*
X-132218Y196305D01*
X-132859Y196305D01*
X-132921Y196341D01*
X-132993Y196393D01*
X-133026Y196403D01*
X-133056Y196421D01*
X-133218Y196464D01*
X-135398Y196792D01*
X-135432Y196791D01*
X-135466Y196799D01*
X-135554Y196790D01*
X-135643Y196789D01*
X-135676Y196777D01*
X-135711Y196774D01*
X-135785Y196744D01*
X-136400Y196934D01*
X-136432Y196938D01*
X-136511Y196959D01*
X-137144Y197054D01*
X-137199Y197100D01*
X-137263Y197162D01*
X-137294Y197177D01*
X-137321Y197199D01*
X-137475Y197265D01*
X-139582Y197914D01*
X-139616Y197919D01*
X-139648Y197932D01*
X-139737Y197936D01*
X-139825Y197948D01*
X-139859Y197941D01*
X-139894Y197943D01*
X-139971Y197925D01*
X-140551Y198204D01*
X-140583Y198214D01*
X-140657Y198246D01*
X-141269Y198434D01*
X-141318Y198487D01*
X-141371Y198558D01*
X-141400Y198578D01*
X-141423Y198603D01*
X-141566Y198692D01*
X-143446Y199597D01*
X-143507Y199615D01*
X-143564Y199642D01*
X-143624Y199650D01*
X-143682Y199667D01*
X-143730Y199665D01*
X-143877Y199750D01*
X-143896Y199757D01*
X-143912Y199769D01*
X-144010Y199800D01*
X-144107Y199837D01*
X-144127Y199838D01*
X-144146Y199844D01*
X-144250Y199842D01*
X-144353Y199846D01*
X-144372Y199840D01*
X-144392Y199840D01*
X-144489Y199806D01*
X-144589Y199776D01*
X-144605Y199765D01*
X-144624Y199758D01*
X-144705Y199694D01*
X-144790Y199635D01*
X-144802Y199619D01*
X-144817Y199606D01*
X-144917Y199471D01*
X-163550Y167198D01*
X-163565Y167211D01*
X-163634Y167231D01*
X-163699Y167259D01*
X-163728Y167259D01*
X-163756Y167267D01*
X-163827Y167259D01*
X-163898Y167260D01*
X-163925Y167248D01*
X-163954Y167245D01*
X-164016Y167210D01*
X-164081Y167182D01*
X-164102Y167162D01*
X-164127Y167147D01*
X-164190Y167070D01*
X-164220Y167040D01*
X-164224Y167030D01*
X-164233Y167019D01*
X-173733Y150519D01*
X-173757Y150446D01*
X-173788Y150376D01*
X-173788Y150352D01*
X-173796Y150330D01*
X-173790Y150254D01*
X-173791Y150177D01*
X-173781Y150153D01*
X-173780Y150132D01*
X-173759Y150093D01*
X-173740Y150041D01*
X-173739Y150035D01*
X-173737Y150033D01*
X-173733Y150021D01*
X-164233Y133521D01*
X-164214Y133499D01*
X-164201Y133473D01*
X-164148Y133425D01*
X-164101Y133372D01*
X-164075Y133359D01*
X-164054Y133340D01*
X-163986Y133317D01*
X-163922Y133286D01*
X-163893Y133285D01*
X-163866Y133275D01*
X-163794Y133280D01*
X-163723Y133277D01*
X-163696Y133287D01*
X-163667Y133289D01*
X-163577Y133331D01*
X-163537Y133346D01*
X-163529Y133353D01*
X-163516Y133359D01*
X-163398Y133441D01*
X-144759Y101160D01*
X-144747Y101144D01*
X-144739Y101126D01*
X-144669Y101049D01*
X-144604Y100969D01*
X-144587Y100959D01*
X-144573Y100944D01*
X-144483Y100894D01*
X-144395Y100838D01*
X-144376Y100834D01*
X-144359Y100824D01*
X-144257Y100805D01*
X-144156Y100781D01*
X-144136Y100783D01*
X-144117Y100779D01*
X-144014Y100794D01*
X-143911Y100803D01*
X-143893Y100811D01*
X-143873Y100814D01*
X-143744Y100870D01*
X-143729Y100869D01*
X-143668Y100883D01*
X-143605Y100887D01*
X-143521Y100916D01*
X-143489Y100924D01*
X-143474Y100933D01*
X-143446Y100943D01*
X-141566Y101848D01*
X-141537Y101868D01*
X-141505Y101880D01*
X-141437Y101938D01*
X-141364Y101989D01*
X-141344Y102017D01*
X-141317Y102039D01*
X-141272Y102105D01*
X-140657Y102294D01*
X-140628Y102309D01*
X-140551Y102336D01*
X-139974Y102613D01*
X-139903Y102607D01*
X-139815Y102592D01*
X-139781Y102597D01*
X-139747Y102594D01*
X-139582Y102626D01*
X-137475Y103275D01*
X-137444Y103290D01*
X-137410Y103298D01*
X-137335Y103344D01*
X-137255Y103384D01*
X-137230Y103409D01*
X-137201Y103427D01*
X-137147Y103485D01*
X-136511Y103581D01*
X-136479Y103591D01*
X-136400Y103606D01*
X-135788Y103795D01*
X-135718Y103778D01*
X-135634Y103750D01*
X-135599Y103750D01*
X-135565Y103742D01*
X-135398Y103748D01*
X-133218Y104076D01*
X-133185Y104087D01*
X-133150Y104089D01*
X-133068Y104124D01*
X-132984Y104151D01*
X-132956Y104172D01*
X-132924Y104186D01*
X-132862Y104235D01*
X-132218Y104235D01*
X-132186Y104240D01*
X-132105Y104243D01*
X-131472Y104339D01*
X-131405Y104312D01*
X-131326Y104271D01*
X-131292Y104266D01*
X-131259Y104253D01*
X-131093Y104235D01*
X-128889Y104234D01*
X-128854Y104239D01*
X-128820Y104237D01*
X-128734Y104259D01*
X-128646Y104273D01*
X-128615Y104290D01*
X-128582Y104298D01*
X-128513Y104338D01*
X-127877Y104242D01*
X-127844Y104242D01*
X-127763Y104233D01*
X-127123Y104233D01*
X-127061Y104197D01*
X-126989Y104145D01*
X-126956Y104135D01*
X-126926Y104117D01*
X-126764Y104074D01*
X-124584Y103745D01*
X-124549Y103745D01*
X-124516Y103737D01*
X-124427Y103747D01*
X-124338Y103748D01*
X-124306Y103759D01*
X-124271Y103763D01*
X-124197Y103792D01*
X-123582Y103602D01*
X-123550Y103597D01*
X-123471Y103577D01*
X-122838Y103481D01*
X-122783Y103436D01*
X-122719Y103374D01*
X-122688Y103359D01*
X-122661Y103337D01*
X-122507Y103270D01*
X-120401Y102619D01*
X-120366Y102615D01*
X-120334Y102602D01*
X-120245Y102598D01*
X-120157Y102586D01*
X-120123Y102592D01*
X-120088Y102591D01*
X-120011Y102608D01*
X-119431Y102329D01*
X-119400Y102320D01*
X-119325Y102287D01*
X-118713Y102098D01*
X-118665Y102045D01*
X-118611Y101974D01*
X-118583Y101955D01*
X-118559Y101929D01*
X-118417Y101840D01*
X-116432Y100883D01*
X-116399Y100873D01*
X-116368Y100856D01*
X-116281Y100839D01*
X-116196Y100814D01*
X-116161Y100815D01*
X-116127Y100808D01*
X-116048Y100814D01*
X-115516Y100452D01*
X-115486Y100438D01*
X-115418Y100395D01*
X-114841Y100117D01*
X-114801Y100057D01*
X-114759Y99979D01*
X-114733Y99955D01*
X-114714Y99926D01*
X-114587Y99817D01*
X-112766Y98575D01*
X-112734Y98560D01*
X-112707Y98539D01*
X-112624Y98509D01*
X-112543Y98471D01*
X-112508Y98467D01*
X-112476Y98455D01*
X-112397Y98450D01*
X-111925Y98012D01*
X-111898Y97993D01*
X-111836Y97941D01*
X-111307Y97580D01*
X-111277Y97515D01*
X-111246Y97431D01*
X-111225Y97404D01*
X-111210Y97373D01*
X-111100Y97246D01*
X-109485Y95746D01*
X-109456Y95727D01*
X-109432Y95702D01*
X-109354Y95659D01*
X-109280Y95610D01*
X-109247Y95601D01*
X-109216Y95585D01*
X-109139Y95567D01*
X-108737Y95064D01*
X-108713Y95042D01*
X-108660Y94980D01*
X-108484Y94817D01*
X-108420Y94774D01*
X-108361Y94724D01*
X-108318Y94706D01*
X-108279Y94681D01*
X-108204Y94661D01*
X-108133Y94632D01*
X-108071Y94625D01*
X-108041Y94617D01*
X-108015Y94619D01*
X-107966Y94613D01*
X-106171Y94613D01*
X-106081Y94628D01*
X-105990Y94635D01*
X-105960Y94648D01*
X-105928Y94653D01*
X-105848Y94696D01*
X-105764Y94731D01*
X-105732Y94757D01*
X-105711Y94768D01*
X-105689Y94792D01*
X-105633Y94836D01*
X-104356Y96113D01*
X-100587Y96113D01*
X-97923Y93449D01*
X-97923Y89680D01*
X-100587Y87016D01*
X-102378Y87016D01*
X-102416Y87010D01*
X-102455Y87012D01*
X-102537Y86990D01*
X-102621Y86976D01*
X-102655Y86958D01*
X-102693Y86948D01*
X-102763Y86901D01*
X-102838Y86861D01*
X-102865Y86833D01*
X-102897Y86812D01*
X-102949Y86744D01*
X-103008Y86683D01*
X-103024Y86648D01*
X-103048Y86617D01*
X-103076Y86537D01*
X-103111Y86460D01*
X-103116Y86421D01*
X-103128Y86385D01*
X-103129Y86300D01*
X-103138Y86215D01*
X-103130Y86177D01*
X-103131Y86139D01*
X-103087Y85977D01*
X-102632Y84817D01*
X-102615Y84787D01*
X-102604Y84754D01*
X-102552Y84682D01*
X-102507Y84606D01*
X-102480Y84583D01*
X-102460Y84555D01*
X-102398Y84506D01*
X-102255Y83878D01*
X-102243Y83847D01*
X-102221Y83769D01*
X-101988Y83173D01*
X-101999Y83102D01*
X-102021Y83016D01*
X-102018Y82982D01*
X-102024Y82947D01*
X-102005Y82781D01*
X-101515Y80632D01*
X-101502Y80599D01*
X-101497Y80565D01*
X-101456Y80486D01*
X-101422Y80404D01*
X-101400Y80377D01*
X-101384Y80347D01*
X-101330Y80289D01*
X-101282Y79647D01*
X-101274Y79615D01*
X-101265Y79534D01*
X-101123Y78910D01*
X-101144Y78842D01*
X-101179Y78760D01*
X-101182Y78725D01*
X-101192Y78692D01*
X-101198Y78524D01*
X-101034Y76326D01*
X-101026Y76293D01*
X-101026Y76258D01*
X-100997Y76173D01*
X-100976Y76087D01*
X-100958Y76058D01*
X-100947Y76025D01*
X-100902Y75959D01*
X-100950Y75318D01*
X-100947Y75285D01*
X-100950Y75204D01*
X-100903Y74565D01*
X-100934Y74501D01*
X-100981Y74425D01*
X-100989Y74391D01*
X-101004Y74360D01*
X-101035Y74195D01*
X-101200Y71997D01*
X-101197Y71963D01*
X-101202Y71928D01*
X-101187Y71841D01*
X-101179Y71752D01*
X-101165Y71720D01*
X-101159Y71686D01*
X-101124Y71615D01*
X-101268Y70987D01*
X-101270Y70954D01*
X-101285Y70875D01*
X-101333Y70236D01*
X-101374Y70178D01*
X-101431Y70109D01*
X-101444Y70077D01*
X-101463Y70049D01*
X-101519Y69890D01*
X-102010Y67741D01*
X-102012Y67707D01*
X-102022Y67674D01*
X-102019Y67585D01*
X-102025Y67496D01*
X-102016Y67462D01*
X-102015Y67428D01*
X-101992Y67352D01*
X-102227Y66753D01*
X-102234Y66721D01*
X-102260Y66644D01*
X-102403Y66020D01*
X-102452Y65968D01*
X-102519Y65909D01*
X-102536Y65879D01*
X-102560Y65854D01*
X-102638Y65705D01*
X-103444Y63654D01*
X-103452Y63620D01*
X-103467Y63589D01*
X-103477Y63500D01*
X-103496Y63413D01*
X-103492Y63379D01*
X-103496Y63344D01*
X-103484Y63266D01*
X-103807Y62709D01*
X-103818Y62678D01*
X-103856Y62606D01*
X-104090Y62010D01*
X-104146Y61966D01*
X-104221Y61918D01*
X-104243Y61891D01*
X-104270Y61869D01*
X-104370Y61734D01*
X-105472Y59826D01*
X-105485Y59793D01*
X-105504Y59764D01*
X-105528Y59679D01*
X-105559Y59596D01*
X-105561Y59561D01*
X-105570Y59527D01*
X-105570Y59448D01*
X-105971Y58945D01*
X-105983Y58924D01*
X-105996Y58910D01*
X-106003Y58894D01*
X-106035Y58851D01*
X-106356Y58297D01*
X-106418Y58261D01*
X-106499Y58225D01*
X-106525Y58201D01*
X-106555Y58184D01*
X-106673Y58065D01*
X-108048Y56342D01*
X-108065Y56312D01*
X-108089Y56287D01*
X-108125Y56206D01*
X-108168Y56128D01*
X-108175Y56094D01*
X-108189Y56062D01*
X-108201Y55984D01*
X-108673Y55546D01*
X-108693Y55520D01*
X-108750Y55463D01*
X-109149Y54962D01*
X-109216Y54937D01*
X-109302Y54913D01*
X-109331Y54893D01*
X-109363Y54881D01*
X-109498Y54781D01*
X-111114Y53282D01*
X-111135Y53255D01*
X-111163Y53233D01*
X-111211Y53158D01*
X-111265Y53088D01*
X-111277Y53055D01*
X-111295Y53026D01*
X-111319Y52950D01*
X-111851Y52588D01*
X-111875Y52565D01*
X-111940Y52517D01*
X-112409Y52081D01*
X-112479Y52066D01*
X-112568Y52055D01*
X-112599Y52040D01*
X-112633Y52033D01*
X-112781Y51954D01*
X-114506Y50779D01*
X-114551Y50735D01*
X-114603Y50700D01*
X-114640Y50651D01*
X-114684Y50609D01*
X-114707Y50565D01*
X-114713Y50562D01*
X-114789Y50493D01*
X-114869Y50427D01*
X-114880Y50410D01*
X-114895Y50397D01*
X-114945Y50307D01*
X-115000Y50219D01*
X-115005Y50200D01*
X-115015Y50182D01*
X-115034Y50080D01*
X-115058Y49980D01*
X-115056Y49960D01*
X-115060Y49940D01*
X-115045Y49838D01*
X-115036Y49735D01*
X-115028Y49717D01*
X-115025Y49697D01*
X-114958Y49543D01*
X-96322Y17265D01*
X-96414Y17221D01*
X-96436Y17204D01*
X-96463Y17194D01*
X-96515Y17145D01*
X-96573Y17102D01*
X-96587Y17077D01*
X-96608Y17058D01*
X-96637Y16992D01*
X-96673Y16930D01*
X-96676Y16902D01*
X-96688Y16876D01*
X-96689Y16804D01*
X-96698Y16733D01*
X-96690Y16706D01*
X-96691Y16677D01*
X-96655Y16582D01*
X-96644Y16542D01*
X-96637Y16533D01*
X-96633Y16521D01*
X-87133Y21D01*
X-87081Y-38D01*
X-87035Y-100D01*
X-87016Y-111D01*
X-87001Y-128D01*
X-86931Y-162D01*
X-86864Y-202D01*
X-86840Y-206D01*
X-86822Y-214D01*
X-86777Y-216D01*
X-86700Y-229D01*
X-67700Y-229D01*
X-67672Y-224D01*
G37*
%LPC*%
G36*
X-45239Y57784D02*
X-45239Y57784D01*
X-65406Y77951D01*
X-65406Y104929D01*
X-40698Y129637D01*
X-40687Y129653D01*
X-40671Y129665D01*
X-40615Y129753D01*
X-40555Y129836D01*
X-40549Y129855D01*
X-40538Y129872D01*
X-40513Y129973D01*
X-40482Y130072D01*
X-40483Y130091D01*
X-40478Y130111D01*
X-40486Y130214D01*
X-40489Y130317D01*
X-40496Y130336D01*
X-40497Y130356D01*
X-40538Y130451D01*
X-40573Y130548D01*
X-40586Y130564D01*
X-40594Y130582D01*
X-40698Y130713D01*
X-66676Y156691D01*
X-66676Y193829D01*
X-60549Y199956D01*
X-60496Y200030D01*
X-60436Y200100D01*
X-60424Y200130D01*
X-60405Y200156D01*
X-60378Y200243D01*
X-60344Y200328D01*
X-60340Y200369D01*
X-60333Y200391D01*
X-60334Y200423D01*
X-60326Y200495D01*
X-60326Y253519D01*
X-59209Y254636D01*
X-27151Y254636D01*
X-26104Y253589D01*
X-26030Y253536D01*
X-25960Y253476D01*
X-25930Y253464D01*
X-25904Y253445D01*
X-25817Y253418D01*
X-25732Y253384D01*
X-25691Y253380D01*
X-25669Y253373D01*
X-25637Y253374D01*
X-25565Y253366D01*
X-25149Y253366D01*
X-25085Y253376D01*
X-25019Y253377D01*
X-24939Y253400D01*
X-24906Y253405D01*
X-24889Y253415D01*
X-24858Y253424D01*
X-24619Y253523D01*
X-24379Y253424D01*
X-24316Y253409D01*
X-24255Y253384D01*
X-24172Y253375D01*
X-24140Y253368D01*
X-24121Y253369D01*
X-24088Y253366D01*
X-23829Y253366D01*
X-23646Y253183D01*
X-23593Y253145D01*
X-23546Y253099D01*
X-23473Y253058D01*
X-23446Y253039D01*
X-23428Y253033D01*
X-23399Y253018D01*
X15479Y236914D01*
X15543Y236899D01*
X15604Y236874D01*
X15687Y236865D01*
X15719Y236858D01*
X15738Y236859D01*
X15771Y236856D01*
X16029Y236856D01*
X16212Y236673D01*
X16266Y236634D01*
X16312Y236589D01*
X16385Y236548D01*
X16412Y236529D01*
X16431Y236523D01*
X16459Y236508D01*
X16699Y236409D01*
X16798Y236169D01*
X16832Y236114D01*
X16858Y236053D01*
X16910Y235988D01*
X16927Y235960D01*
X16942Y235948D01*
X16963Y235922D01*
X17146Y235739D01*
X17146Y235481D01*
X17156Y235416D01*
X17157Y235350D01*
X17180Y235270D01*
X17185Y235238D01*
X17195Y235221D01*
X17204Y235189D01*
X17303Y234950D01*
X17204Y234711D01*
X17189Y234647D01*
X17164Y234586D01*
X17155Y234503D01*
X17148Y234471D01*
X17149Y234452D01*
X17146Y234419D01*
X17146Y215111D01*
X7139Y205104D01*
X-16029Y205104D01*
X-23465Y212540D01*
X-23523Y212581D01*
X-23575Y212631D01*
X-23622Y212653D01*
X-23664Y212683D01*
X-23733Y212704D01*
X-23798Y212734D01*
X-23850Y212740D01*
X-23900Y212756D01*
X-23971Y212754D01*
X-24042Y212762D01*
X-24093Y212751D01*
X-24145Y212749D01*
X-24213Y212725D01*
X-24283Y212709D01*
X-24328Y212683D01*
X-24376Y212665D01*
X-24432Y212620D01*
X-24494Y212583D01*
X-24528Y212544D01*
X-24568Y212511D01*
X-24607Y212451D01*
X-24654Y212396D01*
X-24673Y212348D01*
X-24701Y212304D01*
X-24719Y212235D01*
X-24746Y212168D01*
X-24754Y212097D01*
X-24762Y212066D01*
X-24760Y212042D01*
X-24764Y212001D01*
X-24764Y204978D01*
X-24761Y204958D01*
X-24763Y204939D01*
X-24741Y204837D01*
X-24725Y204735D01*
X-24715Y204718D01*
X-24711Y204698D01*
X-24658Y204609D01*
X-24609Y204518D01*
X-24595Y204504D01*
X-24585Y204487D01*
X-24506Y204420D01*
X-24431Y204348D01*
X-24413Y204340D01*
X-24398Y204327D01*
X-24302Y204288D01*
X-24208Y204245D01*
X-24188Y204243D01*
X-24170Y204235D01*
X-24003Y204217D01*
X-20026Y204217D01*
X-14223Y198414D01*
X-14223Y190206D01*
X-20026Y184403D01*
X-20574Y184403D01*
X-20594Y184400D01*
X-20613Y184402D01*
X-20715Y184380D01*
X-20817Y184364D01*
X-20834Y184354D01*
X-20854Y184350D01*
X-20943Y184297D01*
X-21034Y184248D01*
X-21048Y184234D01*
X-21065Y184224D01*
X-21132Y184145D01*
X-21204Y184070D01*
X-21212Y184052D01*
X-21225Y184037D01*
X-21264Y183941D01*
X-21307Y183847D01*
X-21309Y183827D01*
X-21317Y183809D01*
X-21335Y183642D01*
X-21335Y162373D01*
X-21320Y162283D01*
X-21313Y162192D01*
X-21301Y162162D01*
X-21296Y162130D01*
X-21253Y162050D01*
X-21217Y161966D01*
X-21191Y161934D01*
X-21180Y161913D01*
X-21157Y161891D01*
X-21112Y161835D01*
X1015Y139708D01*
X1089Y139655D01*
X1158Y139595D01*
X1188Y139583D01*
X1214Y139564D01*
X1301Y139537D01*
X1386Y139503D01*
X1427Y139499D01*
X1449Y139492D01*
X1482Y139493D01*
X1553Y139485D01*
X9275Y139485D01*
X9346Y139496D01*
X9418Y139498D01*
X9467Y139516D01*
X9518Y139524D01*
X9581Y139558D01*
X9649Y139583D01*
X9689Y139615D01*
X9735Y139640D01*
X9785Y139691D01*
X9841Y139736D01*
X9869Y139780D01*
X9905Y139818D01*
X9935Y139883D01*
X9974Y139943D01*
X9986Y139994D01*
X10008Y140041D01*
X10016Y140112D01*
X10034Y140182D01*
X10030Y140234D01*
X10035Y140285D01*
X10020Y140356D01*
X10015Y140427D01*
X9994Y140475D01*
X9983Y140526D01*
X9946Y140587D01*
X9918Y140653D01*
X9873Y140709D01*
X9857Y140737D01*
X9839Y140752D01*
X9813Y140784D01*
X-1525Y152122D01*
X-1525Y158242D01*
X-1528Y158262D01*
X-1526Y158281D01*
X-1548Y158383D01*
X-1564Y158485D01*
X-1574Y158502D01*
X-1578Y158522D01*
X-1631Y158611D01*
X-1680Y158702D01*
X-1694Y158716D01*
X-1704Y158733D01*
X-1783Y158800D01*
X-1858Y158872D01*
X-1876Y158880D01*
X-1891Y158893D01*
X-1987Y158932D01*
X-2081Y158975D01*
X-2101Y158977D01*
X-2119Y158985D01*
X-2286Y159003D01*
X-2834Y159003D01*
X-8637Y164806D01*
X-8637Y173014D01*
X-2834Y178817D01*
X5374Y178817D01*
X11177Y173014D01*
X11177Y164806D01*
X5374Y159003D01*
X4826Y159003D01*
X4806Y159000D01*
X4787Y159002D01*
X4685Y158980D01*
X4583Y158964D01*
X4566Y158954D01*
X4546Y158950D01*
X4457Y158897D01*
X4366Y158848D01*
X4352Y158834D01*
X4335Y158824D01*
X4268Y158745D01*
X4196Y158670D01*
X4188Y158652D01*
X4175Y158637D01*
X4136Y158541D01*
X4093Y158447D01*
X4091Y158427D01*
X4083Y158409D01*
X4065Y158242D01*
X4065Y154753D01*
X4079Y154663D01*
X4087Y154572D01*
X4099Y154542D01*
X4104Y154510D01*
X4147Y154430D01*
X4183Y154346D01*
X4209Y154314D01*
X4220Y154293D01*
X4243Y154271D01*
X4288Y154215D01*
X18795Y139708D01*
X18869Y139655D01*
X18938Y139595D01*
X18968Y139583D01*
X18994Y139564D01*
X19081Y139537D01*
X19166Y139503D01*
X19207Y139499D01*
X19229Y139492D01*
X19262Y139493D01*
X19333Y139485D01*
X27722Y139485D01*
X28615Y138592D01*
X28615Y127328D01*
X27722Y126435D01*
X15458Y126435D01*
X14565Y127328D01*
X14565Y135717D01*
X14551Y135807D01*
X14543Y135898D01*
X14531Y135928D01*
X14526Y135960D01*
X14483Y136040D01*
X14447Y136124D01*
X14421Y136157D01*
X14410Y136177D01*
X14387Y136199D01*
X14342Y136255D01*
X12134Y138463D01*
X12076Y138505D01*
X12024Y138555D01*
X11977Y138577D01*
X11935Y138607D01*
X11866Y138628D01*
X11801Y138658D01*
X11749Y138664D01*
X11699Y138679D01*
X11628Y138677D01*
X11557Y138685D01*
X11506Y138674D01*
X11454Y138673D01*
X11386Y138648D01*
X11316Y138633D01*
X11271Y138606D01*
X11223Y138588D01*
X11167Y138544D01*
X11105Y138507D01*
X11071Y138467D01*
X11031Y138435D01*
X10992Y138374D01*
X10945Y138320D01*
X10926Y138272D01*
X10898Y138228D01*
X10880Y138158D01*
X10853Y138092D01*
X10845Y138020D01*
X10837Y137989D01*
X10839Y137966D01*
X10835Y137925D01*
X10835Y127328D01*
X9942Y126435D01*
X-2322Y126435D01*
X-3215Y127328D01*
X-3215Y135717D01*
X-3229Y135807D01*
X-3237Y135898D01*
X-3249Y135928D01*
X-3254Y135960D01*
X-3297Y136041D01*
X-3333Y136124D01*
X-3359Y136157D01*
X-3370Y136177D01*
X-3393Y136199D01*
X-3438Y136255D01*
X-12035Y144852D01*
X-12093Y144894D01*
X-12145Y144944D01*
X-12192Y144966D01*
X-12234Y144996D01*
X-12303Y145017D01*
X-12368Y145047D01*
X-12420Y145053D01*
X-12470Y145068D01*
X-12541Y145066D01*
X-12612Y145074D01*
X-12663Y145063D01*
X-12715Y145062D01*
X-12783Y145037D01*
X-12853Y145022D01*
X-12897Y144995D01*
X-12946Y144977D01*
X-13002Y144933D01*
X-13064Y144896D01*
X-13098Y144856D01*
X-13138Y144824D01*
X-13177Y144763D01*
X-13224Y144709D01*
X-13243Y144661D01*
X-13271Y144617D01*
X-13289Y144547D01*
X-13316Y144481D01*
X-13324Y144409D01*
X-13332Y144378D01*
X-13330Y144355D01*
X-13334Y144314D01*
X-13334Y136995D01*
X-13320Y136905D01*
X-13312Y136814D01*
X-13300Y136784D01*
X-13295Y136752D01*
X-13252Y136671D01*
X-13216Y136587D01*
X-13190Y136555D01*
X-13179Y136535D01*
X-13156Y136512D01*
X-13111Y136456D01*
X-12064Y135409D01*
X-12064Y114781D01*
X-14451Y112394D01*
X-15405Y112394D01*
X-15495Y112380D01*
X-15586Y112372D01*
X-15616Y112360D01*
X-15648Y112355D01*
X-15729Y112312D01*
X-15813Y112276D01*
X-15845Y112250D01*
X-15865Y112239D01*
X-15888Y112216D01*
X-15944Y112171D01*
X-33431Y94684D01*
X-33484Y94610D01*
X-33544Y94540D01*
X-33556Y94510D01*
X-33575Y94484D01*
X-33602Y94397D01*
X-33636Y94312D01*
X-33640Y94271D01*
X-33647Y94249D01*
X-33646Y94217D01*
X-33654Y94145D01*
X-33654Y68326D01*
X-33651Y68306D01*
X-33653Y68287D01*
X-33631Y68185D01*
X-33615Y68083D01*
X-33605Y68066D01*
X-33601Y68046D01*
X-33548Y67957D01*
X-33499Y67866D01*
X-33485Y67852D01*
X-33475Y67835D01*
X-33396Y67768D01*
X-33321Y67696D01*
X-33303Y67688D01*
X-33288Y67675D01*
X-33192Y67636D01*
X-33098Y67593D01*
X-33078Y67591D01*
X-33060Y67583D01*
X-32893Y67565D01*
X-30296Y67565D01*
X-30276Y67568D01*
X-30257Y67566D01*
X-30155Y67588D01*
X-30053Y67604D01*
X-30036Y67614D01*
X-30016Y67618D01*
X-29927Y67671D01*
X-29836Y67720D01*
X-29822Y67734D01*
X-29805Y67744D01*
X-29738Y67823D01*
X-29666Y67898D01*
X-29658Y67916D01*
X-29645Y67931D01*
X-29606Y68027D01*
X-29578Y68088D01*
X-28642Y69025D01*
X-19378Y69025D01*
X-18452Y68098D01*
X-18446Y68061D01*
X-18412Y67997D01*
X-18387Y67930D01*
X-18355Y67889D01*
X-18330Y67843D01*
X-18278Y67794D01*
X-18234Y67738D01*
X-18190Y67710D01*
X-18152Y67674D01*
X-18087Y67644D01*
X-18027Y67605D01*
X-17976Y67592D01*
X-17929Y67570D01*
X-17858Y67562D01*
X-17788Y67545D01*
X-17736Y67549D01*
X-17685Y67543D01*
X-17614Y67558D01*
X-17543Y67564D01*
X-17495Y67584D01*
X-17444Y67595D01*
X-17383Y67632D01*
X-17317Y67660D01*
X-17261Y67705D01*
X-17233Y67722D01*
X-17218Y67739D01*
X-17186Y67765D01*
X-16902Y68049D01*
X-14933Y68049D01*
X-14843Y68063D01*
X-14752Y68071D01*
X-14722Y68083D01*
X-14690Y68088D01*
X-14609Y68131D01*
X-14526Y68167D01*
X-14493Y68193D01*
X-14473Y68204D01*
X-14451Y68227D01*
X-14395Y68272D01*
X-13642Y69025D01*
X-4378Y69025D01*
X-3485Y68132D01*
X-3485Y58868D01*
X-4378Y57975D01*
X-13642Y57975D01*
X-14395Y58728D01*
X-14469Y58781D01*
X-14538Y58841D01*
X-14568Y58853D01*
X-14594Y58872D01*
X-14681Y58899D01*
X-14766Y58933D01*
X-14807Y58937D01*
X-14829Y58944D01*
X-14862Y58943D01*
X-14933Y58951D01*
X-16902Y58951D01*
X-17186Y59235D01*
X-17244Y59277D01*
X-17296Y59326D01*
X-17343Y59348D01*
X-17385Y59378D01*
X-17454Y59399D01*
X-17519Y59430D01*
X-17571Y59435D01*
X-17621Y59451D01*
X-17692Y59449D01*
X-17763Y59457D01*
X-17814Y59446D01*
X-17866Y59444D01*
X-17934Y59420D01*
X-18004Y59405D01*
X-18049Y59378D01*
X-18097Y59360D01*
X-18153Y59315D01*
X-18215Y59278D01*
X-18249Y59239D01*
X-18289Y59206D01*
X-18328Y59146D01*
X-18375Y59091D01*
X-18394Y59043D01*
X-18422Y58999D01*
X-18440Y58930D01*
X-18451Y58903D01*
X-19378Y57975D01*
X-28642Y57975D01*
X-29573Y58906D01*
X-29574Y58917D01*
X-29584Y58934D01*
X-29588Y58954D01*
X-29641Y59043D01*
X-29690Y59134D01*
X-29704Y59148D01*
X-29714Y59165D01*
X-29793Y59232D01*
X-29868Y59304D01*
X-29886Y59312D01*
X-29901Y59325D01*
X-29997Y59364D01*
X-30091Y59407D01*
X-30111Y59409D01*
X-30129Y59417D01*
X-30296Y59435D01*
X-32893Y59435D01*
X-32913Y59432D01*
X-32932Y59434D01*
X-33034Y59412D01*
X-33136Y59396D01*
X-33153Y59386D01*
X-33173Y59382D01*
X-33262Y59329D01*
X-33353Y59280D01*
X-33367Y59266D01*
X-33384Y59256D01*
X-33451Y59177D01*
X-33523Y59102D01*
X-33531Y59084D01*
X-33544Y59069D01*
X-33583Y58973D01*
X-33583Y58972D01*
X-34771Y57784D01*
X-45239Y57784D01*
G37*
%LPD*%
G36*
X-35510Y59321D02*
X-35510Y59321D01*
X-35459Y59323D01*
X-35427Y59341D01*
X-35391Y59349D01*
X-35352Y59382D01*
X-35307Y59406D01*
X-35286Y59436D01*
X-35258Y59459D01*
X-35237Y59506D01*
X-35207Y59548D01*
X-35199Y59590D01*
X-35187Y59618D01*
X-35188Y59648D01*
X-35180Y59690D01*
X-35180Y95093D01*
X-16353Y113920D01*
X-15240Y113920D01*
X-15166Y113937D01*
X-15091Y113950D01*
X-15081Y113957D01*
X-15071Y113959D01*
X-15042Y113983D01*
X-14971Y114031D01*
X-13701Y115301D01*
X-13661Y115366D01*
X-13617Y115428D01*
X-13615Y115440D01*
X-13610Y115448D01*
X-13606Y115485D01*
X-13590Y115570D01*
X-13590Y134620D01*
X-13602Y134674D01*
X-13603Y134700D01*
X-13610Y134713D01*
X-13620Y134769D01*
X-13627Y134779D01*
X-13629Y134789D01*
X-13653Y134818D01*
X-13701Y134889D01*
X-14860Y136048D01*
X-14860Y146050D01*
X-14877Y146124D01*
X-14890Y146199D01*
X-14897Y146209D01*
X-14899Y146219D01*
X-14923Y146248D01*
X-14971Y146319D01*
X-39467Y170815D01*
X-27036Y183246D01*
X-26996Y183311D01*
X-26952Y183373D01*
X-26950Y183385D01*
X-26945Y183393D01*
X-26941Y183430D01*
X-26925Y183515D01*
X-26925Y184023D01*
X-26936Y184073D01*
X-26938Y184124D01*
X-26956Y184156D01*
X-26964Y184192D01*
X-26997Y184231D01*
X-27021Y184276D01*
X-27051Y184297D01*
X-27074Y184325D01*
X-27121Y184346D01*
X-27163Y184376D01*
X-27205Y184384D01*
X-27233Y184396D01*
X-27263Y184395D01*
X-27305Y184403D01*
X-28234Y184403D01*
X-34037Y190206D01*
X-34037Y198414D01*
X-28234Y204217D01*
X-26670Y204217D01*
X-26620Y204228D01*
X-26569Y204230D01*
X-26537Y204248D01*
X-26501Y204256D01*
X-26462Y204289D01*
X-26417Y204313D01*
X-26396Y204343D01*
X-26368Y204366D01*
X-26347Y204413D01*
X-26317Y204455D01*
X-26309Y204497D01*
X-26297Y204525D01*
X-26298Y204555D01*
X-26290Y204597D01*
X-26290Y217522D01*
X-15509Y206741D01*
X-15444Y206701D01*
X-15382Y206657D01*
X-15370Y206655D01*
X-15362Y206650D01*
X-15325Y206646D01*
X-15240Y206630D01*
X6350Y206630D01*
X6424Y206647D01*
X6499Y206660D01*
X6509Y206667D01*
X6519Y206669D01*
X6548Y206693D01*
X6619Y206741D01*
X15509Y215631D01*
X15549Y215696D01*
X15593Y215758D01*
X15595Y215770D01*
X15600Y215778D01*
X15604Y215815D01*
X15620Y215900D01*
X15620Y234950D01*
X15606Y235012D01*
X15599Y235075D01*
X15586Y235095D01*
X15581Y235119D01*
X15540Y235168D01*
X15506Y235221D01*
X15484Y235236D01*
X15471Y235252D01*
X15436Y235268D01*
X15386Y235301D01*
X-24473Y251811D01*
X-24475Y251812D01*
X-24476Y251813D01*
X-24619Y251840D01*
X-26513Y251840D01*
X-27671Y252999D01*
X-27736Y253039D01*
X-27798Y253083D01*
X-27810Y253085D01*
X-27818Y253090D01*
X-27855Y253094D01*
X-27940Y253110D01*
X-58420Y253110D01*
X-58470Y253099D01*
X-58521Y253097D01*
X-58553Y253079D01*
X-58589Y253071D01*
X-58628Y253038D01*
X-58673Y253014D01*
X-58694Y252984D01*
X-58722Y252961D01*
X-58743Y252914D01*
X-58773Y252872D01*
X-58781Y252830D01*
X-58793Y252802D01*
X-58792Y252772D01*
X-58800Y252730D01*
X-58800Y199548D01*
X-65039Y193309D01*
X-65079Y193244D01*
X-65123Y193182D01*
X-65125Y193170D01*
X-65130Y193162D01*
X-65134Y193125D01*
X-65150Y193040D01*
X-65150Y157480D01*
X-65133Y157406D01*
X-65120Y157331D01*
X-65113Y157321D01*
X-65111Y157311D01*
X-65087Y157282D01*
X-65039Y157211D01*
X-38003Y130175D01*
X-50494Y117684D01*
X-50534Y117619D01*
X-50578Y117557D01*
X-50580Y117545D01*
X-50585Y117537D01*
X-50589Y117500D01*
X-50605Y117415D01*
X-50605Y115925D01*
X-53695Y112835D01*
X-55185Y112835D01*
X-55259Y112818D01*
X-55334Y112805D01*
X-55344Y112798D01*
X-55354Y112796D01*
X-55383Y112772D01*
X-55454Y112724D01*
X-63769Y104409D01*
X-63809Y104344D01*
X-63853Y104282D01*
X-63855Y104270D01*
X-63860Y104262D01*
X-63864Y104225D01*
X-63880Y104140D01*
X-63880Y78740D01*
X-63863Y78666D01*
X-63850Y78591D01*
X-63843Y78581D01*
X-63841Y78571D01*
X-63817Y78542D01*
X-63769Y78471D01*
X-44719Y59421D01*
X-44654Y59381D01*
X-44592Y59337D01*
X-44580Y59335D01*
X-44572Y59330D01*
X-44535Y59326D01*
X-44450Y59310D01*
X-35560Y59310D01*
X-35510Y59321D01*
G37*
%LPC*%
G36*
X30961Y51434D02*
X30961Y51434D01*
X5714Y76681D01*
X5714Y92229D01*
X9371Y95886D01*
X13291Y95886D01*
X13334Y95893D01*
X13376Y95890D01*
X13454Y95912D01*
X13534Y95925D01*
X13572Y95945D01*
X13613Y95957D01*
X13680Y96003D01*
X13751Y96041D01*
X13781Y96072D01*
X13816Y96096D01*
X13913Y96211D01*
X13921Y96219D01*
X13922Y96221D01*
X13924Y96224D01*
X55961Y159136D01*
X55968Y159151D01*
X55979Y159164D01*
X56018Y159263D01*
X56063Y159360D01*
X56064Y159377D01*
X56071Y159392D01*
X56087Y159537D01*
X56461Y159912D01*
X56475Y159931D01*
X56556Y160027D01*
X56850Y160468D01*
X56862Y160469D01*
X56960Y160510D01*
X57060Y160548D01*
X57073Y160558D01*
X57088Y160565D01*
X57202Y160656D01*
X57732Y160656D01*
X57756Y160660D01*
X57881Y160670D01*
X58400Y160774D01*
X58409Y160766D01*
X58508Y160726D01*
X58605Y160682D01*
X58621Y160681D01*
X58637Y160674D01*
X58804Y160656D01*
X82423Y160656D01*
X82443Y160659D01*
X82462Y160657D01*
X82564Y160679D01*
X82666Y160695D01*
X82683Y160705D01*
X82703Y160709D01*
X82792Y160762D01*
X82883Y160811D01*
X82897Y160825D01*
X82914Y160835D01*
X82981Y160914D01*
X83053Y160989D01*
X83061Y161007D01*
X83074Y161022D01*
X83113Y161118D01*
X83156Y161212D01*
X83158Y161232D01*
X83166Y161250D01*
X83184Y161417D01*
X83184Y172239D01*
X84301Y173356D01*
X120169Y173356D01*
X121286Y172239D01*
X121286Y145261D01*
X117629Y141604D01*
X97625Y141604D01*
X97535Y141590D01*
X97444Y141582D01*
X97414Y141570D01*
X97382Y141565D01*
X97301Y141522D01*
X97217Y141486D01*
X97185Y141460D01*
X97165Y141449D01*
X97142Y141426D01*
X97086Y141381D01*
X81719Y126014D01*
X81678Y125956D01*
X81628Y125904D01*
X81606Y125857D01*
X81576Y125815D01*
X81555Y125746D01*
X81525Y125681D01*
X81519Y125629D01*
X81503Y125579D01*
X81505Y125508D01*
X81497Y125437D01*
X81508Y125386D01*
X81510Y125334D01*
X81534Y125266D01*
X81550Y125196D01*
X81576Y125152D01*
X81594Y125103D01*
X81639Y125047D01*
X81676Y124985D01*
X81715Y124951D01*
X81748Y124911D01*
X81808Y124872D01*
X81863Y124825D01*
X81911Y124806D01*
X81955Y124778D01*
X82024Y124760D01*
X82091Y124733D01*
X82162Y124725D01*
X82193Y124717D01*
X82217Y124719D01*
X82258Y124715D01*
X85068Y124715D01*
X90425Y119358D01*
X90425Y111782D01*
X85068Y106425D01*
X82550Y106425D01*
X82530Y106422D01*
X82511Y106424D01*
X82409Y106402D01*
X82307Y106386D01*
X82290Y106376D01*
X82270Y106372D01*
X82181Y106319D01*
X82090Y106270D01*
X82076Y106256D01*
X82059Y106246D01*
X81992Y106167D01*
X81920Y106092D01*
X81912Y106074D01*
X81899Y106059D01*
X81860Y105963D01*
X81817Y105869D01*
X81815Y105849D01*
X81807Y105831D01*
X81789Y105664D01*
X81789Y96527D01*
X73165Y87903D01*
X69324Y87903D01*
X69234Y87889D01*
X69143Y87881D01*
X69113Y87869D01*
X69081Y87864D01*
X69000Y87821D01*
X68916Y87785D01*
X68884Y87759D01*
X68864Y87748D01*
X68841Y87725D01*
X68785Y87680D01*
X63019Y81914D01*
X59466Y81914D01*
X59446Y81911D01*
X59427Y81913D01*
X59325Y81891D01*
X59223Y81875D01*
X59206Y81865D01*
X59186Y81861D01*
X59097Y81808D01*
X59006Y81759D01*
X58992Y81745D01*
X58975Y81735D01*
X58908Y81656D01*
X58836Y81581D01*
X58828Y81563D01*
X58815Y81548D01*
X58776Y81452D01*
X58733Y81358D01*
X58731Y81338D01*
X58723Y81320D01*
X58705Y81153D01*
X58705Y75648D01*
X57812Y74755D01*
X47888Y74755D01*
X47817Y74744D01*
X47745Y74742D01*
X47696Y74724D01*
X47645Y74716D01*
X47582Y74682D01*
X47514Y74657D01*
X47474Y74625D01*
X47428Y74600D01*
X47378Y74548D01*
X47322Y74504D01*
X47294Y74460D01*
X47258Y74422D01*
X47228Y74357D01*
X47189Y74297D01*
X47176Y74246D01*
X47155Y74199D01*
X47147Y74128D01*
X47129Y74058D01*
X47133Y74006D01*
X47127Y73955D01*
X47143Y73884D01*
X47148Y73813D01*
X47169Y73765D01*
X47180Y73714D01*
X47217Y73653D01*
X47245Y73587D01*
X47289Y73531D01*
X47306Y73503D01*
X47324Y73488D01*
X47349Y73456D01*
X55246Y65559D01*
X55246Y58901D01*
X47779Y51434D01*
X30961Y51434D01*
G37*
%LPD*%
G36*
X47064Y52977D02*
X47064Y52977D01*
X47139Y52990D01*
X47149Y52997D01*
X47159Y52999D01*
X47188Y53023D01*
X47259Y53071D01*
X53609Y59421D01*
X53649Y59486D01*
X53693Y59548D01*
X53695Y59560D01*
X53700Y59568D01*
X53704Y59605D01*
X53720Y59690D01*
X53720Y64770D01*
X53708Y64824D01*
X53707Y64848D01*
X53700Y64860D01*
X53690Y64919D01*
X53683Y64929D01*
X53681Y64939D01*
X53657Y64968D01*
X53609Y65039D01*
X35208Y83440D01*
X43695Y83440D01*
X43720Y83446D01*
X43746Y83443D01*
X43803Y83465D01*
X43864Y83479D01*
X43884Y83496D01*
X43908Y83505D01*
X43950Y83550D01*
X43997Y83589D01*
X44008Y83613D01*
X44025Y83632D01*
X44043Y83691D01*
X44068Y83748D01*
X44067Y83773D01*
X44075Y83798D01*
X44064Y83859D01*
X44062Y83921D01*
X44049Y83943D01*
X44045Y83969D01*
X43997Y84040D01*
X43979Y84073D01*
X43971Y84079D01*
X43964Y84089D01*
X41421Y86631D01*
X41421Y90193D01*
X43939Y92711D01*
X45550Y92711D01*
X45624Y92728D01*
X45698Y92741D01*
X45709Y92748D01*
X45718Y92750D01*
X45747Y92774D01*
X45819Y92822D01*
X46997Y94001D01*
X70482Y94001D01*
X70556Y94018D01*
X70630Y94031D01*
X70641Y94038D01*
X70650Y94040D01*
X70679Y94064D01*
X70751Y94112D01*
X73929Y97290D01*
X73969Y97355D01*
X74013Y97417D01*
X74015Y97429D01*
X74020Y97438D01*
X74024Y97475D01*
X74040Y97559D01*
X74040Y109720D01*
X74023Y109794D01*
X74010Y109868D01*
X74003Y109879D01*
X74001Y109888D01*
X73977Y109917D01*
X73929Y109989D01*
X72135Y111782D01*
X72135Y119358D01*
X77492Y124715D01*
X78105Y124715D01*
X78179Y124732D01*
X78254Y124745D01*
X78264Y124752D01*
X78274Y124754D01*
X78303Y124778D01*
X78374Y124826D01*
X96678Y143130D01*
X116840Y143130D01*
X116914Y143147D01*
X116989Y143160D01*
X116999Y143167D01*
X117009Y143169D01*
X117038Y143193D01*
X117109Y143241D01*
X119649Y145781D01*
X119689Y145846D01*
X119733Y145908D01*
X119735Y145920D01*
X119740Y145928D01*
X119744Y145965D01*
X119760Y146050D01*
X119760Y171450D01*
X119749Y171500D01*
X119747Y171551D01*
X119729Y171583D01*
X119721Y171619D01*
X119688Y171658D01*
X119664Y171703D01*
X119634Y171724D01*
X119611Y171752D01*
X119564Y171773D01*
X119522Y171803D01*
X119480Y171811D01*
X119452Y171823D01*
X119422Y171822D01*
X119380Y171830D01*
X85090Y171830D01*
X85040Y171819D01*
X84989Y171817D01*
X84957Y171799D01*
X84921Y171791D01*
X84882Y171758D01*
X84837Y171734D01*
X84816Y171704D01*
X84788Y171681D01*
X84767Y171634D01*
X84737Y171592D01*
X84729Y171550D01*
X84717Y171522D01*
X84718Y171492D01*
X84710Y171450D01*
X84710Y159130D01*
X57995Y159130D01*
X57969Y159124D01*
X57942Y159127D01*
X57886Y159105D01*
X57826Y159091D01*
X57805Y159074D01*
X57781Y159064D01*
X57722Y159005D01*
X57692Y158981D01*
X57688Y158971D01*
X57679Y158961D01*
X28679Y115560D01*
X28665Y115523D01*
X28642Y115491D01*
X28631Y115433D01*
X28618Y115398D01*
X28620Y115376D01*
X28615Y115349D01*
X28615Y110328D01*
X27722Y109435D01*
X24790Y109435D01*
X24764Y109429D01*
X24737Y109432D01*
X24680Y109410D01*
X24621Y109396D01*
X24600Y109379D01*
X24575Y109369D01*
X24516Y109310D01*
X24487Y109286D01*
X24483Y109276D01*
X24473Y109266D01*
X14514Y94360D01*
X10160Y94360D01*
X10086Y94343D01*
X10011Y94330D01*
X10001Y94323D01*
X9991Y94321D01*
X9962Y94297D01*
X9891Y94249D01*
X7351Y91709D01*
X7311Y91644D01*
X7267Y91582D01*
X7265Y91570D01*
X7260Y91562D01*
X7256Y91525D01*
X7240Y91440D01*
X7240Y77470D01*
X7257Y77396D01*
X7270Y77321D01*
X7277Y77311D01*
X7279Y77301D01*
X7303Y77272D01*
X7351Y77201D01*
X31481Y53071D01*
X31546Y53031D01*
X31608Y52987D01*
X31620Y52985D01*
X31628Y52980D01*
X31665Y52976D01*
X31750Y52960D01*
X46990Y52960D01*
X47064Y52977D01*
G37*
G36*
X131841Y197837D02*
X131841Y197837D01*
X131884Y197836D01*
X135877Y198437D01*
X135907Y198448D01*
X135950Y198453D01*
X139809Y199642D01*
X139837Y199657D01*
X139878Y199669D01*
X143516Y201420D01*
X143538Y201437D01*
X143564Y201446D01*
X143617Y201496D01*
X143675Y201540D01*
X143688Y201564D01*
X143708Y201583D01*
X143738Y201649D01*
X143774Y201713D01*
X143777Y201740D01*
X143788Y201765D01*
X143789Y201838D01*
X143798Y201910D01*
X143790Y201936D01*
X143790Y201964D01*
X143754Y202062D01*
X143742Y202101D01*
X143736Y202109D01*
X143732Y202120D01*
X116732Y248920D01*
X116714Y248940D01*
X116703Y248965D01*
X116649Y249014D01*
X116601Y249069D01*
X116576Y249080D01*
X116556Y249099D01*
X116487Y249123D01*
X116421Y249154D01*
X116394Y249156D01*
X116369Y249165D01*
X116296Y249160D01*
X116223Y249163D01*
X116197Y249154D01*
X116170Y249152D01*
X116074Y249108D01*
X116036Y249094D01*
X116029Y249087D01*
X116019Y249083D01*
X112682Y246809D01*
X112660Y246786D01*
X112624Y246763D01*
X109663Y244017D01*
X109644Y243991D01*
X109612Y243963D01*
X107094Y240807D01*
X107079Y240778D01*
X107052Y240745D01*
X105032Y237249D01*
X105022Y237219D01*
X104999Y237182D01*
X103523Y233424D01*
X103518Y233392D01*
X103501Y233352D01*
X102601Y229416D01*
X102601Y229384D01*
X102590Y229342D01*
X102287Y225316D01*
X102290Y225293D01*
X102287Y225273D01*
X102289Y225263D01*
X102287Y225242D01*
X102588Y221215D01*
X102596Y221184D01*
X102599Y221141D01*
X103496Y217205D01*
X103509Y217176D01*
X103518Y217133D01*
X104992Y213374D01*
X105009Y213347D01*
X105024Y213307D01*
X107042Y209810D01*
X107063Y209786D01*
X107084Y209748D01*
X109600Y206590D01*
X109625Y206570D01*
X109651Y206536D01*
X112610Y203788D01*
X112637Y203772D01*
X112668Y203742D01*
X116004Y201466D01*
X116033Y201454D01*
X116068Y201429D01*
X119706Y199676D01*
X119736Y199668D01*
X119775Y199649D01*
X123633Y198457D01*
X123665Y198454D01*
X123706Y198441D01*
X127698Y197838D01*
X127730Y197839D01*
X127772Y197832D01*
X131810Y197831D01*
X131841Y197837D01*
G37*
G36*
X-127972Y197832D02*
X-127972Y197832D01*
X-127941Y197838D01*
X-127898Y197838D01*
X-123906Y198441D01*
X-123876Y198452D01*
X-123833Y198457D01*
X-119975Y199649D01*
X-119947Y199664D01*
X-119906Y199676D01*
X-116268Y201429D01*
X-116243Y201448D01*
X-116204Y201466D01*
X-112868Y203742D01*
X-112846Y203765D01*
X-112810Y203788D01*
X-109851Y206536D01*
X-109832Y206561D01*
X-109800Y206590D01*
X-107284Y209748D01*
X-107269Y209776D01*
X-107242Y209810D01*
X-105224Y213307D01*
X-105214Y213337D01*
X-105192Y213374D01*
X-103718Y217133D01*
X-103712Y217165D01*
X-103696Y217205D01*
X-102799Y221141D01*
X-102798Y221173D01*
X-102788Y221215D01*
X-102487Y225242D01*
X-102491Y225273D01*
X-102490Y225289D01*
X-102487Y225306D01*
X-102488Y225310D01*
X-102487Y225316D01*
X-102790Y229342D01*
X-102799Y229373D01*
X-102801Y229416D01*
X-103701Y233352D01*
X-103714Y233381D01*
X-103723Y233424D01*
X-105199Y237182D01*
X-105217Y237209D01*
X-105232Y237249D01*
X-107252Y240745D01*
X-107273Y240769D01*
X-107294Y240807D01*
X-109812Y243963D01*
X-109837Y243983D01*
X-109863Y244017D01*
X-112824Y246763D01*
X-112851Y246779D01*
X-112882Y246809D01*
X-116219Y249083D01*
X-116244Y249093D01*
X-116265Y249110D01*
X-116335Y249131D01*
X-116402Y249160D01*
X-116430Y249160D01*
X-116456Y249167D01*
X-116528Y249159D01*
X-116601Y249159D01*
X-116626Y249148D01*
X-116653Y249145D01*
X-116717Y249109D01*
X-116784Y249081D01*
X-116803Y249061D01*
X-116826Y249048D01*
X-116894Y248967D01*
X-116922Y248937D01*
X-116925Y248928D01*
X-116932Y248920D01*
X-143932Y202120D01*
X-143941Y202094D01*
X-143957Y202071D01*
X-143972Y202000D01*
X-143996Y201931D01*
X-143993Y201904D01*
X-143999Y201877D01*
X-143986Y201806D01*
X-143980Y201733D01*
X-143967Y201708D01*
X-143962Y201682D01*
X-143922Y201621D01*
X-143888Y201556D01*
X-143867Y201539D01*
X-143852Y201516D01*
X-143766Y201455D01*
X-143735Y201430D01*
X-143726Y201427D01*
X-143716Y201420D01*
X-140078Y199669D01*
X-140047Y199662D01*
X-140009Y199642D01*
X-136150Y198453D01*
X-136118Y198450D01*
X-136077Y198437D01*
X-132084Y197836D01*
X-132053Y197838D01*
X-132010Y197831D01*
X-127972Y197832D01*
G37*
G36*
X116328Y51381D02*
X116328Y51381D01*
X116401Y51381D01*
X116426Y51392D01*
X116453Y51395D01*
X116517Y51431D01*
X116584Y51459D01*
X116603Y51479D01*
X116626Y51492D01*
X116694Y51573D01*
X116722Y51603D01*
X116725Y51612D01*
X116732Y51621D01*
X143732Y98421D01*
X143741Y98446D01*
X143757Y98469D01*
X143772Y98540D01*
X143796Y98609D01*
X143793Y98636D01*
X143799Y98663D01*
X143786Y98734D01*
X143780Y98807D01*
X143767Y98832D01*
X143762Y98858D01*
X143722Y98919D01*
X143688Y98984D01*
X143667Y99001D01*
X143652Y99024D01*
X143566Y99085D01*
X143535Y99110D01*
X143526Y99113D01*
X143516Y99120D01*
X139878Y100871D01*
X139847Y100878D01*
X139809Y100898D01*
X135950Y102087D01*
X135918Y102090D01*
X135877Y102103D01*
X131884Y102704D01*
X131853Y102702D01*
X131810Y102709D01*
X127772Y102708D01*
X127741Y102702D01*
X127698Y102702D01*
X123706Y102099D01*
X123676Y102088D01*
X123633Y102083D01*
X119775Y100891D01*
X119747Y100876D01*
X119706Y100864D01*
X116068Y99111D01*
X116043Y99092D01*
X116004Y99074D01*
X112668Y96798D01*
X112646Y96775D01*
X112610Y96752D01*
X109651Y94004D01*
X109632Y93979D01*
X109600Y93950D01*
X107084Y90792D01*
X107069Y90764D01*
X107042Y90730D01*
X105024Y87233D01*
X105014Y87203D01*
X104992Y87166D01*
X103518Y83407D01*
X103512Y83375D01*
X103496Y83335D01*
X102599Y79399D01*
X102598Y79367D01*
X102588Y79325D01*
X102287Y75299D01*
X102291Y75267D01*
X102287Y75224D01*
X102590Y71198D01*
X102599Y71167D01*
X102601Y71124D01*
X103501Y67188D01*
X103514Y67159D01*
X103523Y67116D01*
X104999Y63358D01*
X105017Y63331D01*
X105032Y63291D01*
X107052Y59795D01*
X107073Y59771D01*
X107094Y59733D01*
X109612Y56577D01*
X109637Y56557D01*
X109663Y56523D01*
X112624Y53777D01*
X112651Y53761D01*
X112682Y53731D01*
X116019Y51457D01*
X116044Y51447D01*
X116065Y51430D01*
X116135Y51409D01*
X116202Y51380D01*
X116230Y51381D01*
X116256Y51373D01*
X116328Y51381D01*
G37*
G36*
X-116496Y51380D02*
X-116496Y51380D01*
X-116423Y51377D01*
X-116397Y51386D01*
X-116370Y51388D01*
X-116274Y51432D01*
X-116236Y51446D01*
X-116229Y51453D01*
X-116219Y51457D01*
X-112882Y53731D01*
X-112860Y53754D01*
X-112824Y53777D01*
X-109863Y56523D01*
X-109844Y56549D01*
X-109812Y56577D01*
X-107294Y59733D01*
X-107279Y59762D01*
X-107252Y59795D01*
X-105232Y63291D01*
X-105222Y63321D01*
X-105199Y63358D01*
X-103723Y67116D01*
X-103718Y67148D01*
X-103701Y67188D01*
X-102801Y71124D01*
X-102801Y71156D01*
X-102790Y71198D01*
X-102487Y75224D01*
X-102491Y75255D01*
X-102487Y75299D01*
X-102788Y79325D01*
X-102796Y79356D01*
X-102799Y79399D01*
X-103696Y83335D01*
X-103709Y83364D01*
X-103718Y83407D01*
X-105192Y87166D01*
X-105209Y87193D01*
X-105224Y87233D01*
X-107242Y90730D01*
X-107263Y90754D01*
X-107284Y90792D01*
X-109800Y93950D01*
X-109825Y93970D01*
X-109851Y94004D01*
X-112810Y96752D01*
X-112837Y96768D01*
X-112868Y96798D01*
X-116204Y99074D01*
X-116233Y99086D01*
X-116268Y99111D01*
X-119906Y100864D01*
X-119936Y100872D01*
X-119975Y100891D01*
X-123833Y102083D01*
X-123865Y102086D01*
X-123906Y102099D01*
X-127898Y102702D01*
X-127930Y102701D01*
X-127972Y102708D01*
X-132010Y102709D01*
X-132041Y102703D01*
X-132084Y102704D01*
X-136077Y102103D01*
X-136107Y102092D01*
X-136150Y102087D01*
X-140009Y100898D01*
X-140037Y100883D01*
X-140078Y100871D01*
X-143716Y99120D01*
X-143738Y99103D01*
X-143764Y99094D01*
X-143817Y99044D01*
X-143875Y99000D01*
X-143888Y98976D01*
X-143908Y98957D01*
X-143938Y98891D01*
X-143974Y98827D01*
X-143977Y98800D01*
X-143988Y98775D01*
X-143989Y98702D01*
X-143998Y98630D01*
X-143990Y98604D01*
X-143990Y98576D01*
X-143954Y98478D01*
X-143942Y98439D01*
X-143936Y98431D01*
X-143932Y98421D01*
X-116932Y51621D01*
X-116914Y51600D01*
X-116903Y51575D01*
X-116849Y51526D01*
X-116801Y51472D01*
X-116776Y51460D01*
X-116756Y51441D01*
X-116687Y51417D01*
X-116621Y51386D01*
X-116594Y51385D01*
X-116569Y51375D01*
X-116496Y51380D01*
G37*
G36*
X1949Y272853D02*
X1949Y272853D01*
X1992Y272852D01*
X5982Y273453D01*
X6012Y273464D01*
X6055Y273470D01*
X9911Y274659D01*
X9939Y274675D01*
X9981Y274687D01*
X13617Y276438D01*
X13642Y276457D01*
X13681Y276475D01*
X17015Y278748D01*
X17038Y278771D01*
X17074Y278795D01*
X20032Y281539D01*
X20051Y281565D01*
X20083Y281594D01*
X22599Y284749D01*
X22613Y284777D01*
X22641Y284811D01*
X24659Y288306D01*
X24669Y288336D01*
X24691Y288373D01*
X26165Y292129D01*
X26166Y292136D01*
X26168Y292137D01*
X26172Y292164D01*
X26187Y292201D01*
X27085Y296135D01*
X27086Y296167D01*
X27096Y296209D01*
X27398Y300233D01*
X27394Y300260D01*
X27399Y300287D01*
X27382Y300357D01*
X27373Y300430D01*
X27359Y300454D01*
X27353Y300480D01*
X27310Y300539D01*
X27273Y300602D01*
X27251Y300618D01*
X27235Y300640D01*
X27172Y300677D01*
X27114Y300721D01*
X27087Y300728D01*
X27064Y300742D01*
X26960Y300759D01*
X26921Y300769D01*
X26911Y300767D01*
X26900Y300769D01*
X-27100Y300769D01*
X-27127Y300764D01*
X-27154Y300766D01*
X-27223Y300744D01*
X-27295Y300730D01*
X-27317Y300714D01*
X-27343Y300706D01*
X-27399Y300658D01*
X-27459Y300617D01*
X-27473Y300594D01*
X-27494Y300576D01*
X-27527Y300511D01*
X-27566Y300450D01*
X-27570Y300423D01*
X-27582Y300398D01*
X-27592Y300294D01*
X-27599Y300253D01*
X-27597Y300244D01*
X-27598Y300233D01*
X-27296Y296209D01*
X-27288Y296178D01*
X-27285Y296135D01*
X-26387Y292201D01*
X-26374Y292172D01*
X-26365Y292129D01*
X-24891Y288373D01*
X-24874Y288346D01*
X-24859Y288306D01*
X-22841Y284811D01*
X-22820Y284787D01*
X-22799Y284749D01*
X-20283Y281594D01*
X-20258Y281574D01*
X-20232Y281539D01*
X-17274Y278795D01*
X-17247Y278778D01*
X-17215Y278748D01*
X-13881Y276475D01*
X-13852Y276462D01*
X-13817Y276438D01*
X-10181Y274687D01*
X-10150Y274679D01*
X-10111Y274659D01*
X-6255Y273470D01*
X-6224Y273467D01*
X-6182Y273453D01*
X-2192Y272852D01*
X-2160Y272853D01*
X-2118Y272846D01*
X1918Y272846D01*
X1949Y272853D01*
G37*
G36*
X26927Y-224D02*
X26927Y-224D01*
X26954Y-226D01*
X27023Y-204D01*
X27095Y-190D01*
X27117Y-174D01*
X27143Y-166D01*
X27199Y-118D01*
X27259Y-77D01*
X27273Y-54D01*
X27294Y-36D01*
X27327Y29D01*
X27366Y90D01*
X27370Y117D01*
X27382Y142D01*
X27392Y246D01*
X27399Y287D01*
X27397Y296D01*
X27398Y307D01*
X27096Y4331D01*
X27088Y4362D01*
X27085Y4405D01*
X26187Y8339D01*
X26174Y8368D01*
X26165Y8411D01*
X24691Y12167D01*
X24674Y12194D01*
X24659Y12235D01*
X22641Y15729D01*
X22620Y15753D01*
X22599Y15791D01*
X20083Y18946D01*
X20058Y18966D01*
X20032Y19001D01*
X17074Y21745D01*
X17047Y21762D01*
X17015Y21792D01*
X13681Y24065D01*
X13652Y24078D01*
X13617Y24103D01*
X9981Y25853D01*
X9950Y25861D01*
X9911Y25881D01*
X6055Y27070D01*
X6024Y27073D01*
X5982Y27087D01*
X1992Y27688D01*
X1960Y27687D01*
X1918Y27694D01*
X-2118Y27694D01*
X-2149Y27687D01*
X-2192Y27688D01*
X-6182Y27087D01*
X-6212Y27076D01*
X-6255Y27070D01*
X-10111Y25881D01*
X-10139Y25865D01*
X-10181Y25853D01*
X-13817Y24103D01*
X-13842Y24083D01*
X-13881Y24065D01*
X-17215Y21792D01*
X-17238Y21769D01*
X-17274Y21745D01*
X-20232Y19001D01*
X-20251Y18975D01*
X-20283Y18946D01*
X-22799Y15791D01*
X-22813Y15763D01*
X-22841Y15729D01*
X-24859Y12235D01*
X-24869Y12204D01*
X-24891Y12167D01*
X-26365Y8411D01*
X-26371Y8379D01*
X-26387Y8339D01*
X-27285Y4405D01*
X-27286Y4373D01*
X-27296Y4331D01*
X-27598Y307D01*
X-27594Y280D01*
X-27599Y253D01*
X-27582Y183D01*
X-27573Y110D01*
X-27559Y86D01*
X-27553Y60D01*
X-27510Y1D01*
X-27473Y-62D01*
X-27451Y-78D01*
X-27435Y-100D01*
X-27372Y-137D01*
X-27314Y-181D01*
X-27287Y-188D01*
X-27264Y-202D01*
X-27160Y-219D01*
X-27121Y-229D01*
X-27111Y-227D01*
X-27100Y-229D01*
X26900Y-229D01*
X26927Y-224D01*
G37*
%LPC*%
G36*
X-99609Y169925D02*
X-99609Y169925D01*
X-102970Y171317D01*
X-105543Y173890D01*
X-106935Y177251D01*
X-106935Y180889D01*
X-105543Y184250D01*
X-102970Y186823D01*
X-99609Y188215D01*
X-95971Y188215D01*
X-92610Y186823D01*
X-90037Y184250D01*
X-88645Y180889D01*
X-88645Y177251D01*
X-90037Y173890D01*
X-92610Y171317D01*
X-95971Y169925D01*
X-99609Y169925D01*
G37*
%LPD*%
%LPC*%
G36*
X-99609Y144525D02*
X-99609Y144525D01*
X-102970Y145917D01*
X-105543Y148490D01*
X-106935Y151851D01*
X-106935Y155489D01*
X-105543Y158850D01*
X-102970Y161423D01*
X-99609Y162815D01*
X-95971Y162815D01*
X-92610Y161423D01*
X-90037Y158850D01*
X-88645Y155489D01*
X-88645Y151851D01*
X-90037Y148490D01*
X-92610Y145917D01*
X-95971Y144525D01*
X-99609Y144525D01*
G37*
%LPD*%
%LPC*%
G36*
X-99609Y119125D02*
X-99609Y119125D01*
X-102970Y120517D01*
X-105543Y123090D01*
X-106935Y126451D01*
X-106935Y130089D01*
X-105543Y133450D01*
X-102970Y136023D01*
X-99609Y137415D01*
X-95971Y137415D01*
X-92610Y136023D01*
X-90037Y133450D01*
X-88645Y130089D01*
X-88645Y126451D01*
X-90037Y123090D01*
X-92610Y120517D01*
X-95971Y119125D01*
X-99609Y119125D01*
G37*
%LPD*%
D10*
X82500Y293370D03*
X165100Y150270D03*
X82500Y7170D03*
X-82700Y7170D03*
X-165300Y150270D03*
X-82700Y293370D03*
X123800Y221770D03*
X123800Y78770D03*
X-100Y7170D03*
X-124000Y78770D03*
X-124000Y221770D03*
X-100Y293370D03*
D11*
X-24130Y194310D03*
X1270Y168910D03*
X26670Y194310D03*
X1270Y219710D03*
D12*
X-9010Y63500D03*
X-24010Y63500D03*
D13*
X81280Y115570D03*
D14*
X51680Y81280D03*
X34680Y81280D03*
D15*
X-97790Y179070D03*
X-97790Y153670D03*
X-97790Y128270D03*
D14*
X3810Y132960D03*
X3810Y115960D03*
X21590Y132960D03*
X21590Y115960D03*
D16*
X-34290Y245110D03*
X-34290Y236220D03*
X-59690Y172720D03*
X-48260Y171450D03*
X-20320Y130810D03*
X-20320Y119380D03*
X-58420Y101600D03*
X-50800Y77470D03*
X-43180Y67310D03*
X35560Y58420D03*
X46990Y59690D03*
X113030Y165100D03*
X113030Y149860D03*
X90170Y152400D03*
X90170Y166370D03*
X22860Y88900D03*
D17*
X30480Y81280D02*
X34680Y81280D01*
X30480Y81280D02*
X22860Y88900D01*
D16*
X67310Y100330D03*
D18*
X-24010Y63500D02*
X-39370Y63500D01*
X-43180Y67310D01*
D16*
X12700Y88900D03*
X-55880Y118110D03*
D19*
X-23622Y278480D03*
D17*
X-8732Y293370D01*
X-100Y293370D01*
D19*
X-102472Y91565D03*
D17*
X-111205Y91565D01*
X-124000Y78770D01*
D19*
X-96846Y227842D03*
D17*
X-117928Y227842D01*
X-124000Y221770D01*
D19*
X139561Y107004D03*
D17*
X136553Y91523D02*
X123800Y78770D01*
X136553Y91523D02*
X139561Y96732D01*
X139561Y107004D01*
D19*
X23988Y21535D03*
D17*
X9622Y7170D01*
X-100Y7170D01*
D19*
X102253Y208810D03*
D17*
X115213Y221770D01*
X123800Y221770D01*
D20*
X-24130Y194310D02*
X-24130Y160900D01*
X3810Y132960D01*
X1270Y153280D02*
X1270Y168910D01*
X1270Y153280D02*
X21590Y132960D01*
D19*
X-15018Y63500D03*
D20*
X-9010Y63500D01*
D21*
X45720Y88412D03*
D17*
X78740Y113030D02*
X81280Y115570D01*
X78740Y113030D02*
X78740Y97790D01*
X71902Y90952D01*
X48260Y90952D01*
X45720Y88412D01*
X51680Y82452D01*
X51680Y81280D01*
M02*
