G04 EAGLE Gerber RS-274X export*
G75*
%MOMM*%
%FSLAX34Y34*%
%LPD*%
%INBottom Copper*%
%IPPOS*%
%AMOC8*
5,1,8,0,0,1.08239X$1,22.5*%
G01*
%ADD10C,1.000000*%
%ADD11P,1.814519X8X292.500000*%
%ADD12R,1.500000X1.300000*%
%ADD13R,1.000000X1.100000*%
%ADD14R,1.100000X1.000000*%
%ADD15R,1.399997X0.400000*%
%ADD16R,0.550000X0.297181*%
%ADD17R,0.297181X0.550000*%
%ADD18R,5.600000X5.600000*%
%ADD19P,1.649562X8X22.500000*%
%ADD20R,1.300000X1.500000*%
%ADD21C,1.524000*%
%ADD22C,0.304800*%
%ADD23C,0.750000*%
%ADD24C,0.604800*%
%ADD25C,0.203200*%
%ADD26C,0.406400*%
%ADD27C,0.254000*%
%ADD28C,0.554800*%

G36*
X91296Y111069D02*
X91296Y111069D01*
X91367Y111075D01*
X91415Y111095D01*
X91466Y111106D01*
X91527Y111143D01*
X91593Y111171D01*
X91649Y111216D01*
X91677Y111232D01*
X91692Y111250D01*
X91724Y111276D01*
X95788Y115340D01*
X95841Y115414D01*
X95901Y115483D01*
X95913Y115513D01*
X95932Y115540D01*
X95959Y115627D01*
X95993Y115711D01*
X95997Y115752D01*
X96004Y115775D01*
X96003Y115807D01*
X96011Y115878D01*
X96011Y206880D01*
X97481Y208350D01*
X97534Y208424D01*
X97594Y208493D01*
X97606Y208524D01*
X97625Y208550D01*
X97652Y208637D01*
X97686Y208722D01*
X97690Y208763D01*
X97697Y208785D01*
X97696Y208817D01*
X97704Y208888D01*
X97704Y210694D01*
X100369Y213359D01*
X102243Y213359D01*
X102281Y213365D01*
X102320Y213363D01*
X102402Y213385D01*
X102486Y213399D01*
X102520Y213417D01*
X102557Y213427D01*
X102628Y213474D01*
X102703Y213514D01*
X102730Y213542D01*
X102762Y213563D01*
X102814Y213630D01*
X102873Y213692D01*
X102889Y213727D01*
X102912Y213758D01*
X102940Y213838D01*
X102976Y213915D01*
X102980Y213954D01*
X102993Y213990D01*
X102994Y214075D01*
X103003Y214160D01*
X102995Y214197D01*
X102995Y214236D01*
X102952Y214398D01*
X102432Y215723D01*
X102415Y215753D01*
X102404Y215786D01*
X102352Y215858D01*
X102307Y215934D01*
X102280Y215957D01*
X102260Y215985D01*
X102198Y216034D01*
X102055Y216662D01*
X102043Y216693D01*
X102021Y216771D01*
X101788Y217367D01*
X101788Y217368D01*
X101793Y217379D01*
X101800Y217440D01*
X101821Y217524D01*
X101818Y217558D01*
X101824Y217593D01*
X101805Y217759D01*
X101315Y219908D01*
X101302Y219941D01*
X101297Y219975D01*
X101256Y220054D01*
X101222Y220136D01*
X101200Y220163D01*
X101184Y220193D01*
X101130Y220251D01*
X101082Y220893D01*
X101074Y220925D01*
X101065Y221006D01*
X100923Y221630D01*
X100944Y221698D01*
X100979Y221780D01*
X100982Y221815D01*
X100992Y221848D01*
X100998Y222016D01*
X100834Y224214D01*
X100826Y224247D01*
X100826Y224282D01*
X100797Y224367D01*
X100776Y224453D01*
X100758Y224482D01*
X100747Y224515D01*
X100702Y224581D01*
X100750Y225222D01*
X100747Y225255D01*
X100750Y225336D01*
X100703Y225975D01*
X100734Y226039D01*
X100781Y226115D01*
X100789Y226149D01*
X100804Y226180D01*
X100835Y226345D01*
X101000Y228543D01*
X100997Y228577D01*
X101002Y228612D01*
X100987Y228699D01*
X100979Y228788D01*
X100965Y228820D01*
X100959Y228854D01*
X100924Y228925D01*
X101068Y229553D01*
X101070Y229586D01*
X101085Y229665D01*
X101133Y230304D01*
X101174Y230362D01*
X101231Y230431D01*
X101244Y230463D01*
X101263Y230491D01*
X101319Y230650D01*
X101810Y232799D01*
X101812Y232833D01*
X101822Y232866D01*
X101819Y232955D01*
X101825Y233044D01*
X101816Y233078D01*
X101815Y233112D01*
X101792Y233188D01*
X102027Y233787D01*
X102034Y233819D01*
X102060Y233896D01*
X102203Y234520D01*
X102252Y234572D01*
X102319Y234631D01*
X102336Y234661D01*
X102360Y234686D01*
X102438Y234835D01*
X103244Y236886D01*
X103252Y236920D01*
X103267Y236951D01*
X103277Y237040D01*
X103296Y237127D01*
X103292Y237161D01*
X103296Y237196D01*
X103285Y237274D01*
X103607Y237831D01*
X103618Y237862D01*
X103656Y237934D01*
X103890Y238530D01*
X103947Y238574D01*
X104021Y238622D01*
X104043Y238649D01*
X104070Y238671D01*
X104170Y238806D01*
X105272Y240714D01*
X105285Y240747D01*
X105304Y240776D01*
X105328Y240861D01*
X105359Y240944D01*
X105361Y240979D01*
X105370Y241013D01*
X105370Y241092D01*
X105771Y241595D01*
X105787Y241624D01*
X105835Y241689D01*
X106156Y242243D01*
X106218Y242279D01*
X106299Y242315D01*
X106325Y242339D01*
X106355Y242356D01*
X106473Y242475D01*
X107848Y244198D01*
X107865Y244228D01*
X107889Y244253D01*
X107925Y244334D01*
X107968Y244412D01*
X107975Y244446D01*
X107989Y244478D01*
X108001Y244556D01*
X108473Y244994D01*
X108493Y245020D01*
X108550Y245077D01*
X108950Y245578D01*
X109016Y245603D01*
X109102Y245627D01*
X109131Y245647D01*
X109163Y245659D01*
X109298Y245759D01*
X110914Y247258D01*
X110935Y247285D01*
X110963Y247307D01*
X111011Y247382D01*
X111065Y247452D01*
X111077Y247485D01*
X111095Y247514D01*
X111119Y247590D01*
X111651Y247952D01*
X111675Y247975D01*
X111740Y248023D01*
X112209Y248459D01*
X112279Y248474D01*
X112367Y248485D01*
X112399Y248500D01*
X112433Y248507D01*
X112581Y248586D01*
X114306Y249761D01*
X114351Y249805D01*
X114403Y249840D01*
X114440Y249889D01*
X114484Y249931D01*
X114506Y249973D01*
X114959Y250234D01*
X114975Y250247D01*
X114993Y250255D01*
X115070Y250324D01*
X115150Y250390D01*
X115160Y250407D01*
X115175Y250420D01*
X115225Y250510D01*
X115280Y250598D01*
X115285Y250618D01*
X115295Y250635D01*
X115314Y250737D01*
X115338Y250837D01*
X115336Y250857D01*
X115340Y250877D01*
X115325Y250979D01*
X115316Y251082D01*
X115308Y251101D01*
X115305Y251120D01*
X115238Y251274D01*
X96490Y283746D01*
X96498Y283807D01*
X96490Y283834D01*
X96491Y283863D01*
X96455Y283958D01*
X96444Y283998D01*
X96437Y284007D01*
X96433Y284019D01*
X86933Y300519D01*
X86881Y300578D01*
X86835Y300640D01*
X86816Y300651D01*
X86801Y300668D01*
X86731Y300702D01*
X86664Y300742D01*
X86640Y300746D01*
X86622Y300754D01*
X86577Y300756D01*
X86500Y300769D01*
X67500Y300769D01*
X67472Y300764D01*
X67444Y300766D01*
X67376Y300744D01*
X67305Y300730D01*
X67282Y300714D01*
X67255Y300705D01*
X67200Y300658D01*
X67141Y300617D01*
X67126Y300593D01*
X67105Y300575D01*
X67073Y300510D01*
X67034Y300450D01*
X67029Y300422D01*
X67017Y300396D01*
X67008Y300295D01*
X67001Y300253D01*
X67003Y300243D01*
X67002Y300230D01*
X67012Y300108D01*
X29686Y300108D01*
X29666Y300105D01*
X29647Y300107D01*
X29545Y300085D01*
X29443Y300068D01*
X29426Y300059D01*
X29406Y300055D01*
X29317Y300001D01*
X29226Y299953D01*
X29212Y299939D01*
X29195Y299928D01*
X29128Y299850D01*
X29056Y299775D01*
X29048Y299757D01*
X29035Y299742D01*
X28996Y299645D01*
X28953Y299552D01*
X28951Y299532D01*
X28943Y299513D01*
X28929Y299383D01*
X28919Y299370D01*
X28901Y299309D01*
X28873Y299253D01*
X28856Y299166D01*
X28847Y299135D01*
X28847Y299117D01*
X28842Y299088D01*
X28686Y297009D01*
X28689Y296974D01*
X28684Y296940D01*
X28700Y296852D01*
X28707Y296764D01*
X28721Y296732D01*
X28728Y296698D01*
X28762Y296626D01*
X28619Y295999D01*
X28617Y295966D01*
X28602Y295886D01*
X28554Y295248D01*
X28513Y295189D01*
X28456Y295121D01*
X28443Y295088D01*
X28424Y295060D01*
X28368Y294902D01*
X27878Y292755D01*
X27876Y292720D01*
X27866Y292687D01*
X27869Y292598D01*
X27863Y292509D01*
X27872Y292476D01*
X27873Y292441D01*
X27897Y292365D01*
X27662Y291766D01*
X27655Y291734D01*
X27628Y291658D01*
X27486Y291033D01*
X27436Y290981D01*
X27370Y290922D01*
X27352Y290892D01*
X27328Y290867D01*
X27250Y290719D01*
X26446Y288669D01*
X26439Y288635D01*
X26424Y288604D01*
X26413Y288515D01*
X26394Y288428D01*
X26398Y288394D01*
X26394Y288360D01*
X26406Y288281D01*
X26084Y287724D01*
X26072Y287693D01*
X26035Y287621D01*
X25801Y287025D01*
X25744Y286981D01*
X25670Y286933D01*
X25648Y286905D01*
X25621Y286884D01*
X25521Y286749D01*
X24420Y284842D01*
X24408Y284810D01*
X24389Y284781D01*
X24365Y284695D01*
X24333Y284612D01*
X24332Y284577D01*
X24323Y284544D01*
X24323Y284464D01*
X23922Y283961D01*
X23905Y283932D01*
X23857Y283867D01*
X23537Y283313D01*
X23475Y283277D01*
X23394Y283241D01*
X23369Y283217D01*
X23338Y283200D01*
X23220Y283081D01*
X21847Y281360D01*
X21830Y281330D01*
X21807Y281304D01*
X21770Y281223D01*
X21727Y281145D01*
X21720Y281111D01*
X21706Y281079D01*
X21694Y281001D01*
X21223Y280563D01*
X21202Y280537D01*
X21145Y280480D01*
X20746Y279979D01*
X20679Y279953D01*
X20593Y279929D01*
X20565Y279910D01*
X20532Y279897D01*
X20398Y279798D01*
X18783Y278300D01*
X18762Y278273D01*
X18735Y278251D01*
X18687Y278176D01*
X18633Y278106D01*
X18621Y278073D01*
X18602Y278044D01*
X18579Y277968D01*
X18047Y277605D01*
X18023Y277583D01*
X18012Y277574D01*
X18000Y277568D01*
X17991Y277559D01*
X17958Y277534D01*
X17489Y277099D01*
X17419Y277083D01*
X17331Y277072D01*
X17299Y277057D01*
X17266Y277050D01*
X17117Y276971D01*
X15298Y275731D01*
X15273Y275707D01*
X15243Y275689D01*
X15184Y275623D01*
X15120Y275561D01*
X15104Y275531D01*
X15081Y275505D01*
X15047Y275433D01*
X14467Y275154D01*
X14440Y275135D01*
X14368Y275097D01*
X13839Y274736D01*
X13767Y274731D01*
X13679Y274734D01*
X13645Y274723D01*
X13611Y274721D01*
X13453Y274665D01*
X11469Y273710D01*
X11440Y273690D01*
X11408Y273677D01*
X11340Y273620D01*
X11267Y273569D01*
X11247Y273541D01*
X11220Y273519D01*
X11176Y273453D01*
X10561Y273263D01*
X10531Y273248D01*
X10455Y273222D01*
X9878Y272944D01*
X9806Y272950D01*
X9719Y272965D01*
X9684Y272960D01*
X9650Y272963D01*
X9485Y272931D01*
X7381Y272282D01*
X7350Y272267D01*
X7316Y272259D01*
X7240Y272213D01*
X7161Y272173D01*
X7136Y272148D01*
X7107Y272130D01*
X7053Y272072D01*
X6416Y271976D01*
X6385Y271966D01*
X6305Y271951D01*
X5693Y271762D01*
X5624Y271778D01*
X5539Y271807D01*
X5505Y271807D01*
X5471Y271815D01*
X5303Y271808D01*
X3126Y271480D01*
X3093Y271469D01*
X3058Y271467D01*
X2977Y271432D01*
X2892Y271405D01*
X2864Y271384D01*
X2832Y271370D01*
X2770Y271321D01*
X2127Y271321D01*
X2094Y271315D01*
X2013Y271312D01*
X1380Y271217D01*
X1313Y271244D01*
X1234Y271284D01*
X1200Y271289D01*
X1168Y271302D01*
X1001Y271321D01*
X-1201Y271321D01*
X-1235Y271315D01*
X-1270Y271318D01*
X-1356Y271295D01*
X-1444Y271281D01*
X-1474Y271265D01*
X-1508Y271256D01*
X-1577Y271216D01*
X-2213Y271312D01*
X-2246Y271312D01*
X-2327Y271321D01*
X-2967Y271321D01*
X-3029Y271357D01*
X-3101Y271409D01*
X-3134Y271419D01*
X-3164Y271437D01*
X-3326Y271480D01*
X-5503Y271808D01*
X-5538Y271808D01*
X-5572Y271815D01*
X-5660Y271806D01*
X-5749Y271805D01*
X-5782Y271794D01*
X-5817Y271790D01*
X-5890Y271761D01*
X-6505Y271951D01*
X-6538Y271955D01*
X-6616Y271976D01*
X-7250Y272071D01*
X-7305Y272117D01*
X-7369Y272179D01*
X-7400Y272194D01*
X-7427Y272216D01*
X-7581Y272282D01*
X-9685Y272931D01*
X-9719Y272936D01*
X-9752Y272949D01*
X-9841Y272953D01*
X-9929Y272965D01*
X-9963Y272959D01*
X-9997Y272960D01*
X-10075Y272942D01*
X-10655Y273222D01*
X-10686Y273231D01*
X-10761Y273263D01*
X-11373Y273452D01*
X-11421Y273505D01*
X-11474Y273576D01*
X-11503Y273595D01*
X-11526Y273621D01*
X-11669Y273710D01*
X-13653Y274665D01*
X-13686Y274675D01*
X-13716Y274692D01*
X-13803Y274710D01*
X-13888Y274735D01*
X-13923Y274734D01*
X-13957Y274740D01*
X-14124Y274727D01*
X-14272Y274700D01*
X-14291Y274693D01*
X-14311Y274691D01*
X-14406Y274651D01*
X-14503Y274615D01*
X-14519Y274603D01*
X-14538Y274595D01*
X-14669Y274490D01*
X-15778Y273380D01*
X-15831Y273306D01*
X-15891Y273237D01*
X-15903Y273207D01*
X-15922Y273180D01*
X-15949Y273093D01*
X-15983Y273009D01*
X-15987Y272968D01*
X-15994Y272945D01*
X-15993Y272913D01*
X-16001Y272842D01*
X-16001Y217594D01*
X-15987Y217504D01*
X-15979Y217413D01*
X-15967Y217383D01*
X-15962Y217351D01*
X-15938Y217308D01*
X-15938Y217304D01*
X-15927Y217286D01*
X-15919Y217271D01*
X-15883Y217187D01*
X-15857Y217155D01*
X-15846Y217134D01*
X-15823Y217112D01*
X-15822Y217110D01*
X-15811Y217093D01*
X-15800Y217083D01*
X-15778Y217056D01*
X31826Y169452D01*
X31826Y141619D01*
X31806Y141570D01*
X31802Y141530D01*
X31795Y141507D01*
X31796Y141475D01*
X31788Y141404D01*
X31788Y140499D01*
X31791Y140479D01*
X31789Y140459D01*
X31811Y140358D01*
X31827Y140256D01*
X31837Y140239D01*
X31841Y140219D01*
X31894Y140130D01*
X31942Y140039D01*
X31957Y140025D01*
X31967Y140008D01*
X32046Y139941D01*
X32121Y139869D01*
X32139Y139861D01*
X32154Y139848D01*
X32250Y139809D01*
X32344Y139766D01*
X32364Y139764D01*
X32382Y139756D01*
X32549Y139738D01*
X38452Y139738D01*
X39345Y138844D01*
X39345Y134537D01*
X39340Y134529D01*
X39315Y134429D01*
X39284Y134330D01*
X39285Y134310D01*
X39280Y134291D01*
X39288Y134188D01*
X39290Y134084D01*
X39297Y134065D01*
X39299Y134046D01*
X39339Y133951D01*
X39345Y133936D01*
X39345Y131508D01*
X39356Y131437D01*
X39358Y131365D01*
X39376Y131316D01*
X39384Y131265D01*
X39418Y131202D01*
X39443Y131134D01*
X39475Y131094D01*
X39500Y131048D01*
X39552Y130998D01*
X39596Y130942D01*
X39640Y130914D01*
X39678Y130878D01*
X39743Y130848D01*
X39803Y130809D01*
X39854Y130796D01*
X39901Y130775D01*
X39972Y130767D01*
X40042Y130749D01*
X40094Y130753D01*
X40145Y130747D01*
X40216Y130763D01*
X40287Y130768D01*
X40335Y130789D01*
X40386Y130800D01*
X40447Y130836D01*
X40513Y130865D01*
X40569Y130909D01*
X40597Y130926D01*
X40612Y130944D01*
X40644Y130969D01*
X42321Y132646D01*
X42374Y132720D01*
X42434Y132790D01*
X42446Y132820D01*
X42465Y132846D01*
X42492Y132933D01*
X42526Y133018D01*
X42530Y133059D01*
X42537Y133081D01*
X42536Y133113D01*
X42544Y133185D01*
X42544Y139764D01*
X42530Y139854D01*
X42522Y139945D01*
X42510Y139975D01*
X42505Y140007D01*
X42462Y140088D01*
X42426Y140171D01*
X42400Y140204D01*
X42389Y140224D01*
X42366Y140246D01*
X42321Y140302D01*
X42165Y140458D01*
X42165Y170692D01*
X42282Y170809D01*
X42335Y170883D01*
X42395Y170952D01*
X42407Y170982D01*
X42426Y171008D01*
X42453Y171095D01*
X42487Y171180D01*
X42491Y171221D01*
X42498Y171243D01*
X42497Y171276D01*
X42505Y171347D01*
X42505Y180012D01*
X43417Y180924D01*
X43455Y180927D01*
X43485Y180939D01*
X43517Y180944D01*
X43576Y180976D01*
X54205Y180976D01*
X54264Y180957D01*
X54349Y180923D01*
X54390Y180919D01*
X54412Y180912D01*
X54444Y180913D01*
X54516Y180905D01*
X55662Y180905D01*
X56555Y180012D01*
X56555Y178866D01*
X56569Y178776D01*
X56577Y178685D01*
X56589Y178655D01*
X56594Y178623D01*
X56637Y178542D01*
X56673Y178458D01*
X56699Y178426D01*
X56710Y178406D01*
X56733Y178383D01*
X56778Y178327D01*
X59056Y176049D01*
X59056Y123625D01*
X59067Y123554D01*
X59069Y123483D01*
X59087Y123434D01*
X59095Y123382D01*
X59129Y123319D01*
X59154Y123252D01*
X59186Y123211D01*
X59211Y123165D01*
X59263Y123116D01*
X59307Y123060D01*
X59351Y123032D01*
X59389Y122996D01*
X59454Y122965D01*
X59514Y122927D01*
X59565Y122914D01*
X59612Y122892D01*
X59683Y122884D01*
X59753Y122867D01*
X59805Y122871D01*
X59856Y122865D01*
X59927Y122880D01*
X59998Y122886D01*
X60046Y122906D01*
X60097Y122917D01*
X60158Y122954D01*
X60224Y122982D01*
X60280Y123027D01*
X60308Y123043D01*
X60323Y123061D01*
X60355Y123087D01*
X60942Y123674D01*
X60996Y123748D01*
X61055Y123817D01*
X61067Y123847D01*
X61086Y123874D01*
X61113Y123961D01*
X61147Y124045D01*
X61151Y124086D01*
X61158Y124109D01*
X61157Y124141D01*
X61165Y124212D01*
X61165Y170692D01*
X61371Y170898D01*
X61424Y170972D01*
X61484Y171041D01*
X61496Y171071D01*
X61515Y171097D01*
X61542Y171184D01*
X61576Y171269D01*
X61580Y171310D01*
X61587Y171332D01*
X61586Y171365D01*
X61594Y171436D01*
X61594Y179859D01*
X62711Y180976D01*
X74525Y180976D01*
X74584Y180957D01*
X74669Y180923D01*
X74710Y180919D01*
X74732Y180912D01*
X74764Y180913D01*
X74836Y180905D01*
X75982Y180905D01*
X76875Y180012D01*
X76875Y171347D01*
X76889Y171257D01*
X76897Y171166D01*
X76909Y171136D01*
X76914Y171104D01*
X76957Y171023D01*
X76993Y170940D01*
X77019Y170907D01*
X77030Y170887D01*
X77053Y170865D01*
X77098Y170809D01*
X77215Y170692D01*
X77215Y140458D01*
X76321Y139564D01*
X76307Y139562D01*
X76288Y139564D01*
X76186Y139542D01*
X76084Y139526D01*
X76067Y139516D01*
X76047Y139512D01*
X75958Y139459D01*
X75867Y139410D01*
X75853Y139396D01*
X75836Y139386D01*
X75769Y139307D01*
X75697Y139232D01*
X75689Y139214D01*
X75676Y139199D01*
X75637Y139103D01*
X75594Y139009D01*
X75592Y138989D01*
X75584Y138971D01*
X75566Y138804D01*
X75566Y124626D01*
X75577Y124555D01*
X75579Y124484D01*
X75597Y124435D01*
X75605Y124383D01*
X75639Y124320D01*
X75664Y124253D01*
X75696Y124212D01*
X75721Y124166D01*
X75773Y124117D01*
X75817Y124061D01*
X75861Y124032D01*
X75899Y123997D01*
X75964Y123966D01*
X76024Y123928D01*
X76075Y123915D01*
X76122Y123893D01*
X76193Y123885D01*
X76263Y123868D01*
X76315Y123872D01*
X76366Y123866D01*
X76437Y123881D01*
X76508Y123887D01*
X76556Y123907D01*
X76607Y123918D01*
X76668Y123955D01*
X76734Y123983D01*
X76790Y124028D01*
X76818Y124044D01*
X76833Y124062D01*
X76865Y124088D01*
X77492Y124715D01*
X85068Y124715D01*
X90425Y119358D01*
X90425Y111814D01*
X90436Y111743D01*
X90438Y111672D01*
X90456Y111623D01*
X90464Y111571D01*
X90498Y111508D01*
X90523Y111441D01*
X90555Y111400D01*
X90580Y111354D01*
X90632Y111305D01*
X90676Y111249D01*
X90720Y111220D01*
X90758Y111185D01*
X90823Y111154D01*
X90883Y111116D01*
X90934Y111103D01*
X90981Y111081D01*
X91052Y111073D01*
X91122Y111056D01*
X91174Y111060D01*
X91225Y111054D01*
X91296Y111069D01*
G37*
G36*
X-110411Y96945D02*
X-110411Y96945D01*
X-110294Y96952D01*
X-110289Y96954D01*
X-110283Y96955D01*
X-110176Y97000D01*
X-110066Y97045D01*
X-110062Y97049D01*
X-110057Y97051D01*
X-109926Y97156D01*
X-77772Y129310D01*
X-75763Y131319D01*
X-44007Y131319D01*
X-38433Y125745D01*
X-38433Y120532D01*
X-38430Y120512D01*
X-38432Y120493D01*
X-38410Y120391D01*
X-38394Y120289D01*
X-38384Y120272D01*
X-38380Y120252D01*
X-38327Y120163D01*
X-38278Y120072D01*
X-38264Y120058D01*
X-38254Y120041D01*
X-38175Y119974D01*
X-38100Y119902D01*
X-38082Y119894D01*
X-38067Y119881D01*
X-37971Y119842D01*
X-37877Y119799D01*
X-37857Y119797D01*
X-37839Y119789D01*
X-37672Y119771D01*
X-37566Y119771D01*
X-37546Y119774D01*
X-37527Y119772D01*
X-37425Y119794D01*
X-37323Y119810D01*
X-37306Y119820D01*
X-37286Y119824D01*
X-37197Y119877D01*
X-37106Y119926D01*
X-37092Y119940D01*
X-37075Y119950D01*
X-37008Y120029D01*
X-36936Y120104D01*
X-36928Y120122D01*
X-36915Y120137D01*
X-36876Y120233D01*
X-36833Y120327D01*
X-36831Y120347D01*
X-36823Y120365D01*
X-36805Y120532D01*
X-36805Y123913D01*
X-36800Y123921D01*
X-36775Y124021D01*
X-36744Y124120D01*
X-36745Y124140D01*
X-36740Y124159D01*
X-36748Y124262D01*
X-36750Y124366D01*
X-36757Y124385D01*
X-36759Y124404D01*
X-36799Y124499D01*
X-36805Y124514D01*
X-36805Y128944D01*
X-36789Y129008D01*
X-36758Y129107D01*
X-36759Y129127D01*
X-36754Y129146D01*
X-36762Y129249D01*
X-36764Y129353D01*
X-36771Y129372D01*
X-36773Y129391D01*
X-36813Y129486D01*
X-36849Y129584D01*
X-36861Y129599D01*
X-36869Y129618D01*
X-36974Y129749D01*
X-44416Y137190D01*
X-44489Y137243D01*
X-44559Y137303D01*
X-44589Y137315D01*
X-44615Y137334D01*
X-44702Y137361D01*
X-44787Y137395D01*
X-44828Y137399D01*
X-44850Y137406D01*
X-44883Y137405D01*
X-44954Y137413D01*
X-84379Y137413D01*
X-84469Y137399D01*
X-84560Y137391D01*
X-84590Y137379D01*
X-84622Y137374D01*
X-84702Y137331D01*
X-84786Y137295D01*
X-84818Y137269D01*
X-84839Y137258D01*
X-84861Y137235D01*
X-84917Y137190D01*
X-89274Y132834D01*
X-89320Y132770D01*
X-89337Y132752D01*
X-89344Y132736D01*
X-89412Y132645D01*
X-89414Y132639D01*
X-89417Y132634D01*
X-89451Y132523D01*
X-89488Y132411D01*
X-89488Y132405D01*
X-89490Y132399D01*
X-89487Y132282D01*
X-89485Y132166D01*
X-89483Y132158D01*
X-89483Y132153D01*
X-89477Y132136D01*
X-89439Y132004D01*
X-88645Y130089D01*
X-88645Y126451D01*
X-90037Y123090D01*
X-92610Y120517D01*
X-95971Y119125D01*
X-99609Y119125D01*
X-102970Y120517D01*
X-105543Y123090D01*
X-106935Y126451D01*
X-106935Y130089D01*
X-105543Y133450D01*
X-102970Y136023D01*
X-99609Y137415D01*
X-95971Y137415D01*
X-94056Y136621D01*
X-93942Y136595D01*
X-93828Y136566D01*
X-93822Y136567D01*
X-93816Y136565D01*
X-93700Y136576D01*
X-93583Y136585D01*
X-93578Y136588D01*
X-93571Y136588D01*
X-93464Y136636D01*
X-93357Y136682D01*
X-93351Y136686D01*
X-93347Y136688D01*
X-93333Y136701D01*
X-93226Y136786D01*
X-87010Y143003D01*
X-56046Y143003D01*
X-56026Y143006D01*
X-56007Y143004D01*
X-55905Y143026D01*
X-55803Y143042D01*
X-55786Y143052D01*
X-55766Y143056D01*
X-55677Y143109D01*
X-55586Y143158D01*
X-55572Y143172D01*
X-55555Y143182D01*
X-55488Y143261D01*
X-55416Y143336D01*
X-55408Y143354D01*
X-55395Y143369D01*
X-55356Y143465D01*
X-55313Y143559D01*
X-55311Y143579D01*
X-55303Y143597D01*
X-55285Y143764D01*
X-55285Y149860D01*
X-55286Y149869D01*
X-55286Y149872D01*
X-55288Y149881D01*
X-55286Y149899D01*
X-55308Y150001D01*
X-55324Y150103D01*
X-55334Y150120D01*
X-55338Y150140D01*
X-55391Y150229D01*
X-55440Y150320D01*
X-55454Y150334D01*
X-55464Y150351D01*
X-55543Y150418D01*
X-55618Y150490D01*
X-55636Y150498D01*
X-55651Y150511D01*
X-55747Y150550D01*
X-55841Y150593D01*
X-55861Y150595D01*
X-55879Y150603D01*
X-56046Y150621D01*
X-88646Y150621D01*
X-88761Y150602D01*
X-88877Y150585D01*
X-88883Y150583D01*
X-88889Y150582D01*
X-88991Y150527D01*
X-89096Y150474D01*
X-89101Y150469D01*
X-89106Y150466D01*
X-89186Y150382D01*
X-89268Y150298D01*
X-89272Y150292D01*
X-89275Y150288D01*
X-89283Y150271D01*
X-89349Y150151D01*
X-90037Y148490D01*
X-92610Y145917D01*
X-95971Y144525D01*
X-99609Y144525D01*
X-102970Y145917D01*
X-105543Y148490D01*
X-106935Y151851D01*
X-106935Y155489D01*
X-105543Y158850D01*
X-102970Y161423D01*
X-101055Y162216D01*
X-100955Y162277D01*
X-100855Y162337D01*
X-100851Y162342D01*
X-100846Y162346D01*
X-100771Y162435D01*
X-100695Y162524D01*
X-100693Y162530D01*
X-100689Y162535D01*
X-100647Y162643D01*
X-100603Y162753D01*
X-100602Y162760D01*
X-100601Y162765D01*
X-100600Y162783D01*
X-100585Y162919D01*
X-100585Y169821D01*
X-100604Y169936D01*
X-100621Y170052D01*
X-100623Y170057D01*
X-100624Y170064D01*
X-100679Y170166D01*
X-100732Y170271D01*
X-100737Y170275D01*
X-100740Y170281D01*
X-100824Y170361D01*
X-100908Y170443D01*
X-100914Y170447D01*
X-100918Y170450D01*
X-100935Y170458D01*
X-101055Y170524D01*
X-102970Y171317D01*
X-105543Y173890D01*
X-106935Y177251D01*
X-106935Y180889D01*
X-105543Y184250D01*
X-102970Y186823D01*
X-99609Y188215D01*
X-95971Y188215D01*
X-92610Y186823D01*
X-90037Y184250D01*
X-88645Y180889D01*
X-88645Y177251D01*
X-90037Y173890D01*
X-92610Y171317D01*
X-94525Y170524D01*
X-94625Y170463D01*
X-94725Y170403D01*
X-94729Y170398D01*
X-94734Y170394D01*
X-94809Y170305D01*
X-94885Y170216D01*
X-94887Y170210D01*
X-94891Y170205D01*
X-94933Y170097D01*
X-94977Y169987D01*
X-94978Y169980D01*
X-94979Y169975D01*
X-94980Y169957D01*
X-94995Y169821D01*
X-94995Y162919D01*
X-94976Y162804D01*
X-94959Y162688D01*
X-94957Y162683D01*
X-94956Y162676D01*
X-94901Y162574D01*
X-94848Y162469D01*
X-94843Y162465D01*
X-94840Y162459D01*
X-94756Y162379D01*
X-94672Y162297D01*
X-94666Y162293D01*
X-94662Y162290D01*
X-94645Y162282D01*
X-94525Y162216D01*
X-92610Y161423D01*
X-90037Y158850D01*
X-89349Y157189D01*
X-89288Y157089D01*
X-89228Y156989D01*
X-89223Y156985D01*
X-89220Y156980D01*
X-89130Y156905D01*
X-89041Y156829D01*
X-89035Y156827D01*
X-89030Y156823D01*
X-88922Y156781D01*
X-88813Y156737D01*
X-88805Y156736D01*
X-88801Y156735D01*
X-88782Y156734D01*
X-88646Y156719D01*
X-51687Y156719D01*
X-50696Y155728D01*
X-50622Y155675D01*
X-50553Y155615D01*
X-50523Y155603D01*
X-50496Y155584D01*
X-50409Y155557D01*
X-50325Y155523D01*
X-50284Y155519D01*
X-50261Y155512D01*
X-50229Y155513D01*
X-50158Y155505D01*
X-42128Y155505D01*
X-41235Y154612D01*
X-41235Y150059D01*
X-41221Y149969D01*
X-41213Y149878D01*
X-41201Y149848D01*
X-41196Y149816D01*
X-41153Y149736D01*
X-41117Y149652D01*
X-41091Y149620D01*
X-41080Y149599D01*
X-41057Y149577D01*
X-41012Y149521D01*
X-39418Y147927D01*
X-31452Y139961D01*
X-31378Y139907D01*
X-31309Y139848D01*
X-31278Y139836D01*
X-31252Y139817D01*
X-31165Y139790D01*
X-31080Y139756D01*
X-31040Y139752D01*
X-31017Y139745D01*
X-30985Y139746D01*
X-30914Y139738D01*
X-30009Y139738D01*
X-29989Y139741D01*
X-29969Y139739D01*
X-29868Y139761D01*
X-29766Y139777D01*
X-29749Y139787D01*
X-29729Y139791D01*
X-29640Y139844D01*
X-29549Y139892D01*
X-29535Y139907D01*
X-29518Y139917D01*
X-29451Y139996D01*
X-29379Y140071D01*
X-29371Y140089D01*
X-29358Y140104D01*
X-29319Y140200D01*
X-29276Y140294D01*
X-29274Y140314D01*
X-29266Y140332D01*
X-29248Y140499D01*
X-29248Y146402D01*
X-28354Y147295D01*
X-24047Y147295D01*
X-24039Y147290D01*
X-23939Y147265D01*
X-23840Y147234D01*
X-23820Y147235D01*
X-23801Y147230D01*
X-23698Y147238D01*
X-23594Y147240D01*
X-23575Y147247D01*
X-23556Y147249D01*
X-23461Y147289D01*
X-23446Y147295D01*
X-19046Y147295D01*
X-19038Y147289D01*
X-18937Y147264D01*
X-18839Y147234D01*
X-18819Y147234D01*
X-18799Y147229D01*
X-18696Y147237D01*
X-18593Y147240D01*
X-18574Y147247D01*
X-18554Y147248D01*
X-18459Y147289D01*
X-18443Y147295D01*
X-18112Y147295D01*
X-18041Y147306D01*
X-17969Y147308D01*
X-17920Y147326D01*
X-17869Y147334D01*
X-17806Y147368D01*
X-17738Y147393D01*
X-17698Y147425D01*
X-17652Y147450D01*
X-17602Y147501D01*
X-17546Y147546D01*
X-17518Y147590D01*
X-17482Y147628D01*
X-17452Y147693D01*
X-17413Y147753D01*
X-17401Y147804D01*
X-17379Y147851D01*
X-17371Y147922D01*
X-17353Y147992D01*
X-17357Y148044D01*
X-17352Y148095D01*
X-17367Y148166D01*
X-17372Y148237D01*
X-17393Y148285D01*
X-17404Y148336D01*
X-17441Y148397D01*
X-17469Y148463D01*
X-17513Y148519D01*
X-17530Y148547D01*
X-17548Y148562D01*
X-17573Y148594D01*
X-87477Y218498D01*
X-87551Y218551D01*
X-87621Y218611D01*
X-87651Y218623D01*
X-87677Y218642D01*
X-87764Y218669D01*
X-87849Y218703D01*
X-87890Y218707D01*
X-87912Y218714D01*
X-87944Y218713D01*
X-88016Y218721D01*
X-101178Y218721D01*
X-101236Y218712D01*
X-101294Y218712D01*
X-101356Y218692D01*
X-101421Y218682D01*
X-101472Y218654D01*
X-101528Y218636D01*
X-101580Y218597D01*
X-101638Y218566D01*
X-101678Y218524D01*
X-101725Y218490D01*
X-101763Y218436D01*
X-101808Y218388D01*
X-101832Y218335D01*
X-101865Y218288D01*
X-101898Y218194D01*
X-101911Y218165D01*
X-101913Y218151D01*
X-101921Y218129D01*
X-102005Y217759D01*
X-102007Y217725D01*
X-102017Y217692D01*
X-102015Y217603D01*
X-102016Y217580D01*
X-102020Y217544D01*
X-102019Y217538D01*
X-102020Y217514D01*
X-102011Y217480D01*
X-102010Y217446D01*
X-101986Y217370D01*
X-102221Y216771D01*
X-102228Y216738D01*
X-102255Y216662D01*
X-102397Y216038D01*
X-102446Y215986D01*
X-102513Y215927D01*
X-102530Y215897D01*
X-102554Y215871D01*
X-102632Y215723D01*
X-103437Y213671D01*
X-103444Y213637D01*
X-103459Y213606D01*
X-103470Y213517D01*
X-103489Y213430D01*
X-103485Y213396D01*
X-103489Y213362D01*
X-103477Y213283D01*
X-103798Y212725D01*
X-103810Y212695D01*
X-103848Y212623D01*
X-104082Y212027D01*
X-104138Y211983D01*
X-104213Y211934D01*
X-104234Y211907D01*
X-104262Y211886D01*
X-104361Y211751D01*
X-105462Y209841D01*
X-105475Y209809D01*
X-105494Y209780D01*
X-105518Y209694D01*
X-105549Y209611D01*
X-105551Y209577D01*
X-105560Y209543D01*
X-105560Y209464D01*
X-105961Y208960D01*
X-105977Y208932D01*
X-106025Y208866D01*
X-106345Y208312D01*
X-106407Y208276D01*
X-106488Y208240D01*
X-106514Y208216D01*
X-106544Y208199D01*
X-106662Y208080D01*
X-108036Y206357D01*
X-108053Y206326D01*
X-108076Y206301D01*
X-108113Y206219D01*
X-108156Y206142D01*
X-108163Y206108D01*
X-108177Y206076D01*
X-108188Y205998D01*
X-108660Y205560D01*
X-108680Y205534D01*
X-108737Y205476D01*
X-109137Y204975D01*
X-109203Y204950D01*
X-109289Y204926D01*
X-109318Y204906D01*
X-109350Y204894D01*
X-109485Y204794D01*
X-111100Y203294D01*
X-111121Y203267D01*
X-111148Y203245D01*
X-111196Y203170D01*
X-111251Y203100D01*
X-111262Y203067D01*
X-111281Y203038D01*
X-111304Y202962D01*
X-111836Y202599D01*
X-111860Y202577D01*
X-111925Y202528D01*
X-112394Y202093D01*
X-112464Y202077D01*
X-112553Y202066D01*
X-112584Y202051D01*
X-112618Y202044D01*
X-112766Y201965D01*
X-114587Y200723D01*
X-114612Y200699D01*
X-114642Y200681D01*
X-114700Y200615D01*
X-114765Y200553D01*
X-114781Y200523D01*
X-114804Y200496D01*
X-114838Y200425D01*
X-115418Y200145D01*
X-115445Y200127D01*
X-115516Y200088D01*
X-116045Y199728D01*
X-116117Y199723D01*
X-116206Y199725D01*
X-116239Y199715D01*
X-116274Y199712D01*
X-116432Y199657D01*
X-118417Y198700D01*
X-118446Y198680D01*
X-118478Y198667D01*
X-118546Y198610D01*
X-118619Y198559D01*
X-118639Y198531D01*
X-118666Y198508D01*
X-118710Y198443D01*
X-119325Y198253D01*
X-119355Y198238D01*
X-119431Y198211D01*
X-120008Y197933D01*
X-120080Y197939D01*
X-120167Y197954D01*
X-120201Y197949D01*
X-120236Y197952D01*
X-120401Y197921D01*
X-122507Y197270D01*
X-122538Y197255D01*
X-122572Y197247D01*
X-122648Y197200D01*
X-122727Y197161D01*
X-122751Y197136D01*
X-122781Y197118D01*
X-122835Y197060D01*
X-123471Y196963D01*
X-123503Y196953D01*
X-123582Y196938D01*
X-124194Y196749D01*
X-124264Y196766D01*
X-124348Y196794D01*
X-124383Y196794D01*
X-124417Y196802D01*
X-124584Y196795D01*
X-126764Y196466D01*
X-126797Y196455D01*
X-126831Y196453D01*
X-126913Y196418D01*
X-126998Y196391D01*
X-127026Y196370D01*
X-127058Y196356D01*
X-127119Y196307D01*
X-127763Y196307D01*
X-127796Y196301D01*
X-127877Y196298D01*
X-128510Y196202D01*
X-128576Y196229D01*
X-128655Y196270D01*
X-128690Y196275D01*
X-128722Y196288D01*
X-128889Y196306D01*
X-131093Y196305D01*
X-131127Y196300D01*
X-131162Y196302D01*
X-131248Y196280D01*
X-131335Y196266D01*
X-131366Y196249D01*
X-131400Y196241D01*
X-131468Y196201D01*
X-132105Y196297D01*
X-132138Y196296D01*
X-132218Y196305D01*
X-132859Y196305D01*
X-132921Y196341D01*
X-132993Y196393D01*
X-133026Y196403D01*
X-133056Y196421D01*
X-133218Y196464D01*
X-135398Y196792D01*
X-135432Y196791D01*
X-135466Y196799D01*
X-135554Y196790D01*
X-135643Y196789D01*
X-135676Y196777D01*
X-135711Y196774D01*
X-135785Y196744D01*
X-136400Y196934D01*
X-136432Y196938D01*
X-136511Y196959D01*
X-137144Y197054D01*
X-137199Y197100D01*
X-137263Y197162D01*
X-137294Y197177D01*
X-137321Y197199D01*
X-137475Y197265D01*
X-139582Y197914D01*
X-139616Y197919D01*
X-139648Y197932D01*
X-139737Y197936D01*
X-139825Y197948D01*
X-139859Y197941D01*
X-139894Y197943D01*
X-139971Y197925D01*
X-140551Y198204D01*
X-140583Y198214D01*
X-140657Y198246D01*
X-141269Y198434D01*
X-141318Y198487D01*
X-141371Y198558D01*
X-141400Y198578D01*
X-141423Y198603D01*
X-141566Y198692D01*
X-143446Y199597D01*
X-143507Y199615D01*
X-143564Y199642D01*
X-143624Y199650D01*
X-143682Y199667D01*
X-143730Y199665D01*
X-144172Y199920D01*
X-144190Y199927D01*
X-144206Y199939D01*
X-144305Y199970D01*
X-144402Y200007D01*
X-144422Y200008D01*
X-144441Y200014D01*
X-144544Y200012D01*
X-144648Y200016D01*
X-144667Y200010D01*
X-144687Y200010D01*
X-144784Y199976D01*
X-144884Y199946D01*
X-144900Y199935D01*
X-144919Y199928D01*
X-145000Y199864D01*
X-145085Y199805D01*
X-145097Y199789D01*
X-145112Y199777D01*
X-145212Y199641D01*
X-163911Y167254D01*
X-163925Y167248D01*
X-163954Y167245D01*
X-164016Y167210D01*
X-164081Y167182D01*
X-164102Y167162D01*
X-164127Y167147D01*
X-164190Y167070D01*
X-164220Y167040D01*
X-164224Y167030D01*
X-164233Y167019D01*
X-173733Y150519D01*
X-173757Y150446D01*
X-173788Y150376D01*
X-173788Y150352D01*
X-173796Y150330D01*
X-173790Y150254D01*
X-173791Y150177D01*
X-173781Y150153D01*
X-173780Y150132D01*
X-173759Y150093D01*
X-173740Y150041D01*
X-173739Y150035D01*
X-173737Y150033D01*
X-173733Y150021D01*
X-164233Y133521D01*
X-164214Y133499D01*
X-164201Y133473D01*
X-164148Y133425D01*
X-164101Y133372D01*
X-164087Y133365D01*
X-145309Y100842D01*
X-145297Y100827D01*
X-145289Y100809D01*
X-145219Y100732D01*
X-145154Y100652D01*
X-145137Y100641D01*
X-145123Y100627D01*
X-145033Y100576D01*
X-144945Y100521D01*
X-144926Y100517D01*
X-144909Y100507D01*
X-144807Y100488D01*
X-144706Y100464D01*
X-144686Y100465D01*
X-144667Y100462D01*
X-144564Y100476D01*
X-144461Y100485D01*
X-144443Y100493D01*
X-144423Y100496D01*
X-144270Y100563D01*
X-143739Y100870D01*
X-143729Y100869D01*
X-143668Y100883D01*
X-143605Y100887D01*
X-143521Y100916D01*
X-143489Y100924D01*
X-143474Y100933D01*
X-143446Y100943D01*
X-141566Y101848D01*
X-141537Y101868D01*
X-141505Y101880D01*
X-141437Y101938D01*
X-141364Y101989D01*
X-141344Y102017D01*
X-141317Y102039D01*
X-141272Y102105D01*
X-140657Y102294D01*
X-140628Y102309D01*
X-140551Y102336D01*
X-139974Y102613D01*
X-139903Y102607D01*
X-139815Y102592D01*
X-139781Y102597D01*
X-139747Y102594D01*
X-139582Y102626D01*
X-137475Y103275D01*
X-137444Y103290D01*
X-137410Y103298D01*
X-137335Y103344D01*
X-137255Y103384D01*
X-137230Y103409D01*
X-137201Y103427D01*
X-137147Y103485D01*
X-136511Y103581D01*
X-136479Y103591D01*
X-136400Y103606D01*
X-135788Y103795D01*
X-135718Y103778D01*
X-135634Y103750D01*
X-135599Y103750D01*
X-135565Y103742D01*
X-135398Y103748D01*
X-133218Y104076D01*
X-133185Y104087D01*
X-133150Y104089D01*
X-133068Y104124D01*
X-132984Y104151D01*
X-132956Y104172D01*
X-132924Y104186D01*
X-132862Y104235D01*
X-132218Y104235D01*
X-132186Y104240D01*
X-132105Y104243D01*
X-131472Y104339D01*
X-131405Y104312D01*
X-131326Y104271D01*
X-131292Y104266D01*
X-131259Y104253D01*
X-131093Y104235D01*
X-128889Y104234D01*
X-128854Y104239D01*
X-128820Y104237D01*
X-128734Y104259D01*
X-128646Y104273D01*
X-128615Y104290D01*
X-128582Y104298D01*
X-128513Y104338D01*
X-127877Y104242D01*
X-127844Y104242D01*
X-127763Y104233D01*
X-127123Y104233D01*
X-127061Y104197D01*
X-126989Y104145D01*
X-126956Y104135D01*
X-126926Y104117D01*
X-126764Y104074D01*
X-124584Y103745D01*
X-124549Y103745D01*
X-124516Y103737D01*
X-124427Y103747D01*
X-124338Y103748D01*
X-124306Y103759D01*
X-124271Y103763D01*
X-124197Y103792D01*
X-123582Y103602D01*
X-123550Y103597D01*
X-123471Y103577D01*
X-122838Y103481D01*
X-122783Y103436D01*
X-122719Y103374D01*
X-122688Y103359D01*
X-122661Y103337D01*
X-122507Y103270D01*
X-120401Y102619D01*
X-120366Y102615D01*
X-120334Y102602D01*
X-120245Y102598D01*
X-120157Y102586D01*
X-120123Y102592D01*
X-120088Y102591D01*
X-120011Y102608D01*
X-119431Y102329D01*
X-119400Y102320D01*
X-119325Y102287D01*
X-118713Y102098D01*
X-118665Y102045D01*
X-118611Y101974D01*
X-118583Y101955D01*
X-118559Y101929D01*
X-118417Y101840D01*
X-116432Y100883D01*
X-116399Y100873D01*
X-116368Y100856D01*
X-116281Y100839D01*
X-116196Y100814D01*
X-116161Y100815D01*
X-116127Y100808D01*
X-116048Y100814D01*
X-115516Y100452D01*
X-115486Y100438D01*
X-115418Y100395D01*
X-114841Y100117D01*
X-114801Y100057D01*
X-114759Y99979D01*
X-114733Y99955D01*
X-114714Y99926D01*
X-114587Y99817D01*
X-112766Y98575D01*
X-112734Y98560D01*
X-112707Y98539D01*
X-112624Y98509D01*
X-112543Y98471D01*
X-112508Y98467D01*
X-112476Y98455D01*
X-112397Y98450D01*
X-111925Y98012D01*
X-111898Y97993D01*
X-111836Y97941D01*
X-111307Y97580D01*
X-111277Y97515D01*
X-111246Y97431D01*
X-111225Y97404D01*
X-111210Y97373D01*
X-111100Y97246D01*
X-110982Y97136D01*
X-110977Y97133D01*
X-110974Y97129D01*
X-110875Y97065D01*
X-110777Y97000D01*
X-110772Y96999D01*
X-110767Y96996D01*
X-110653Y96967D01*
X-110539Y96937D01*
X-110534Y96937D01*
X-110528Y96935D01*
X-110411Y96945D01*
G37*
G36*
X-67672Y-224D02*
X-67672Y-224D01*
X-67644Y-226D01*
X-67576Y-204D01*
X-67505Y-190D01*
X-67482Y-174D01*
X-67455Y-165D01*
X-67419Y-134D01*
X-29886Y-134D01*
X-29866Y-131D01*
X-29847Y-133D01*
X-29745Y-111D01*
X-29643Y-94D01*
X-29626Y-85D01*
X-29606Y-81D01*
X-29517Y-27D01*
X-29426Y21D01*
X-29412Y35D01*
X-29395Y46D01*
X-29328Y124D01*
X-29256Y199D01*
X-29248Y217D01*
X-29235Y233D01*
X-29196Y329D01*
X-29153Y422D01*
X-29151Y442D01*
X-29143Y461D01*
X-29125Y627D01*
X-29125Y1163D01*
X-29119Y1170D01*
X-29101Y1231D01*
X-29073Y1287D01*
X-29056Y1374D01*
X-29047Y1405D01*
X-29047Y1423D01*
X-29042Y1452D01*
X-28886Y3531D01*
X-28889Y3566D01*
X-28884Y3600D01*
X-28900Y3688D01*
X-28908Y3776D01*
X-28921Y3808D01*
X-28928Y3842D01*
X-28962Y3914D01*
X-28819Y4541D01*
X-28817Y4574D01*
X-28802Y4654D01*
X-28754Y5292D01*
X-28713Y5351D01*
X-28656Y5419D01*
X-28643Y5452D01*
X-28624Y5480D01*
X-28568Y5638D01*
X-28078Y7785D01*
X-28076Y7820D01*
X-28066Y7853D01*
X-28069Y7942D01*
X-28063Y8031D01*
X-28072Y8064D01*
X-28073Y8099D01*
X-28097Y8175D01*
X-27862Y8774D01*
X-27855Y8806D01*
X-27828Y8882D01*
X-27686Y9507D01*
X-27636Y9559D01*
X-27570Y9618D01*
X-27552Y9648D01*
X-27528Y9673D01*
X-27450Y9821D01*
X-26646Y11871D01*
X-26639Y11905D01*
X-26624Y11936D01*
X-26613Y12025D01*
X-26594Y12112D01*
X-26598Y12146D01*
X-26594Y12180D01*
X-26606Y12259D01*
X-26284Y12816D01*
X-26272Y12847D01*
X-26235Y12919D01*
X-26001Y13515D01*
X-25944Y13559D01*
X-25870Y13607D01*
X-25848Y13635D01*
X-25821Y13656D01*
X-25721Y13791D01*
X-24620Y15698D01*
X-24608Y15730D01*
X-24589Y15759D01*
X-24565Y15845D01*
X-24533Y15928D01*
X-24532Y15963D01*
X-24523Y15996D01*
X-24523Y16076D01*
X-24122Y16579D01*
X-24106Y16608D01*
X-24058Y16673D01*
X-23737Y17227D01*
X-23675Y17263D01*
X-23594Y17299D01*
X-23568Y17323D01*
X-23538Y17340D01*
X-23420Y17459D01*
X-22047Y19180D01*
X-22030Y19211D01*
X-22007Y19236D01*
X-21970Y19317D01*
X-21927Y19395D01*
X-21920Y19429D01*
X-21919Y19432D01*
X-21909Y19454D01*
X-21909Y19455D01*
X-21906Y19461D01*
X-21894Y19539D01*
X-21423Y19977D01*
X-21402Y20003D01*
X-21345Y20060D01*
X-20946Y20561D01*
X-20879Y20587D01*
X-20793Y20611D01*
X-20765Y20630D01*
X-20732Y20643D01*
X-20598Y20742D01*
X-18983Y22240D01*
X-18962Y22267D01*
X-18935Y22289D01*
X-18887Y22364D01*
X-18833Y22434D01*
X-18821Y22467D01*
X-18802Y22496D01*
X-18779Y22572D01*
X-18247Y22935D01*
X-18223Y22957D01*
X-18158Y23006D01*
X-17689Y23441D01*
X-17619Y23457D01*
X-17531Y23468D01*
X-17499Y23483D01*
X-17466Y23490D01*
X-17317Y23569D01*
X-15498Y24809D01*
X-15473Y24833D01*
X-15443Y24851D01*
X-15384Y24917D01*
X-15320Y24979D01*
X-15304Y25009D01*
X-15281Y25035D01*
X-15247Y25107D01*
X-14667Y25386D01*
X-14640Y25405D01*
X-14568Y25443D01*
X-14039Y25804D01*
X-13967Y25809D01*
X-13879Y25806D01*
X-13845Y25817D01*
X-13811Y25819D01*
X-13653Y25875D01*
X-11669Y26830D01*
X-11640Y26850D01*
X-11608Y26863D01*
X-11540Y26920D01*
X-11467Y26971D01*
X-11447Y26999D01*
X-11420Y27021D01*
X-11376Y27087D01*
X-10761Y27277D01*
X-10731Y27292D01*
X-10655Y27318D01*
X-10078Y27596D01*
X-10006Y27590D01*
X-9919Y27575D01*
X-9884Y27580D01*
X-9850Y27577D01*
X-9685Y27609D01*
X-7581Y28258D01*
X-7550Y28273D01*
X-7516Y28281D01*
X-7440Y28327D01*
X-7361Y28367D01*
X-7336Y28392D01*
X-7307Y28410D01*
X-7253Y28468D01*
X-6616Y28564D01*
X-6585Y28574D01*
X-6505Y28589D01*
X-5893Y28778D01*
X-5824Y28762D01*
X-5739Y28733D01*
X-5705Y28733D01*
X-5671Y28725D01*
X-5503Y28732D01*
X-3326Y29060D01*
X-3293Y29071D01*
X-3258Y29073D01*
X-3177Y29108D01*
X-3092Y29135D01*
X-3064Y29156D01*
X-3032Y29170D01*
X-2970Y29219D01*
X-2327Y29219D01*
X-2294Y29225D01*
X-2213Y29228D01*
X-1580Y29323D01*
X-1513Y29296D01*
X-1434Y29256D01*
X-1400Y29251D01*
X-1368Y29238D01*
X-1201Y29219D01*
X1001Y29219D01*
X1035Y29225D01*
X1070Y29222D01*
X1156Y29245D01*
X1244Y29259D01*
X1274Y29275D01*
X1308Y29284D01*
X1377Y29324D01*
X2013Y29228D01*
X2046Y29228D01*
X2127Y29219D01*
X2767Y29219D01*
X2829Y29183D01*
X2901Y29131D01*
X2934Y29121D01*
X2964Y29103D01*
X3126Y29060D01*
X5303Y28732D01*
X5338Y28732D01*
X5372Y28725D01*
X5460Y28734D01*
X5549Y28735D01*
X5582Y28746D01*
X5617Y28750D01*
X5690Y28779D01*
X6305Y28589D01*
X6338Y28585D01*
X6416Y28564D01*
X7050Y28469D01*
X7105Y28423D01*
X7169Y28361D01*
X7200Y28346D01*
X7227Y28324D01*
X7381Y28258D01*
X9485Y27609D01*
X9519Y27604D01*
X9552Y27591D01*
X9641Y27587D01*
X9729Y27575D01*
X9763Y27581D01*
X9797Y27580D01*
X9875Y27598D01*
X10062Y27508D01*
X10126Y27489D01*
X10187Y27460D01*
X10243Y27454D01*
X10298Y27438D01*
X10365Y27441D01*
X10431Y27433D01*
X10487Y27445D01*
X10543Y27447D01*
X10606Y27471D01*
X10672Y27486D01*
X10720Y27515D01*
X10773Y27535D01*
X10825Y27577D01*
X10883Y27612D01*
X10920Y27655D01*
X10964Y27691D01*
X10999Y27748D01*
X11043Y27799D01*
X11064Y27851D01*
X11094Y27899D01*
X11110Y27964D01*
X11135Y28027D01*
X11144Y28106D01*
X11151Y28138D01*
X11149Y28159D01*
X11153Y28193D01*
X11153Y31442D01*
X11139Y31532D01*
X11131Y31623D01*
X11119Y31653D01*
X11114Y31685D01*
X11071Y31765D01*
X11035Y31849D01*
X11009Y31881D01*
X10998Y31902D01*
X10975Y31924D01*
X10930Y31980D01*
X10724Y32186D01*
X10724Y70384D01*
X10721Y70404D01*
X10723Y70423D01*
X10701Y70525D01*
X10685Y70627D01*
X10675Y70644D01*
X10671Y70664D01*
X10618Y70753D01*
X10569Y70844D01*
X10555Y70858D01*
X10545Y70875D01*
X10466Y70942D01*
X10391Y71014D01*
X10373Y71022D01*
X10358Y71035D01*
X10262Y71074D01*
X10168Y71117D01*
X10148Y71119D01*
X10130Y71127D01*
X9963Y71145D01*
X6582Y71145D01*
X6574Y71150D01*
X6474Y71175D01*
X6375Y71206D01*
X6355Y71205D01*
X6336Y71210D01*
X6233Y71202D01*
X6129Y71200D01*
X6110Y71193D01*
X6091Y71191D01*
X5995Y71151D01*
X5981Y71145D01*
X2325Y71145D01*
X2305Y71142D01*
X2286Y71144D01*
X2184Y71122D01*
X2082Y71106D01*
X2065Y71096D01*
X2045Y71092D01*
X1956Y71039D01*
X1865Y70990D01*
X1851Y70976D01*
X1834Y70966D01*
X1767Y70887D01*
X1695Y70812D01*
X1687Y70794D01*
X1674Y70779D01*
X1635Y70683D01*
X1592Y70589D01*
X1590Y70569D01*
X1582Y70551D01*
X1564Y70384D01*
X1564Y58961D01*
X1278Y58675D01*
X1225Y58601D01*
X1165Y58532D01*
X1153Y58502D01*
X1134Y58476D01*
X1107Y58389D01*
X1073Y58304D01*
X1069Y58263D01*
X1062Y58241D01*
X1063Y58208D01*
X1055Y58137D01*
X1055Y49748D01*
X162Y48855D01*
X-11102Y48855D01*
X-11995Y49748D01*
X-11995Y58253D01*
X-12006Y58323D01*
X-12008Y58395D01*
X-12026Y58444D01*
X-12034Y58495D01*
X-12068Y58559D01*
X-12093Y58626D01*
X-12125Y58667D01*
X-12150Y58713D01*
X-12202Y58762D01*
X-12246Y58818D01*
X-12290Y58846D01*
X-12328Y58882D01*
X-12393Y58912D01*
X-12453Y58951D01*
X-12504Y58964D01*
X-12551Y58986D01*
X-12622Y58994D01*
X-12692Y59011D01*
X-12744Y59007D01*
X-12795Y59013D01*
X-12866Y58998D01*
X-12937Y58992D01*
X-12985Y58972D01*
X-13036Y58961D01*
X-13051Y58951D01*
X-15184Y58951D01*
X-15204Y58948D01*
X-15223Y58950D01*
X-15325Y58928D01*
X-15427Y58912D01*
X-15444Y58902D01*
X-15464Y58898D01*
X-15553Y58845D01*
X-15644Y58796D01*
X-15658Y58782D01*
X-15675Y58772D01*
X-15742Y58693D01*
X-15814Y58618D01*
X-15822Y58600D01*
X-15835Y58585D01*
X-15874Y58489D01*
X-15917Y58395D01*
X-15919Y58375D01*
X-15927Y58357D01*
X-15945Y58190D01*
X-15945Y49748D01*
X-16838Y48855D01*
X-28102Y48855D01*
X-28995Y49748D01*
X-28995Y62012D01*
X-28102Y62905D01*
X-20328Y62905D01*
X-20308Y62908D01*
X-20289Y62906D01*
X-20187Y62928D01*
X-20085Y62944D01*
X-20068Y62954D01*
X-20048Y62958D01*
X-19959Y63011D01*
X-19868Y63060D01*
X-19854Y63074D01*
X-19837Y63084D01*
X-19770Y63163D01*
X-19698Y63238D01*
X-19690Y63256D01*
X-19677Y63271D01*
X-19638Y63367D01*
X-19595Y63461D01*
X-19593Y63481D01*
X-19585Y63499D01*
X-19567Y63666D01*
X-19567Y65384D01*
X-16902Y68049D01*
X-13134Y68049D01*
X-10469Y65384D01*
X-10469Y63666D01*
X-10466Y63646D01*
X-10468Y63627D01*
X-10446Y63525D01*
X-10430Y63423D01*
X-10420Y63406D01*
X-10416Y63386D01*
X-10363Y63297D01*
X-10314Y63206D01*
X-10300Y63192D01*
X-10290Y63175D01*
X-10211Y63108D01*
X-10136Y63036D01*
X-10118Y63028D01*
X-10103Y63015D01*
X-10007Y62976D01*
X-9913Y62933D01*
X-9893Y62931D01*
X-9875Y62923D01*
X-9708Y62905D01*
X-4787Y62905D01*
X-4767Y62908D01*
X-4748Y62906D01*
X-4646Y62928D01*
X-4544Y62944D01*
X-4527Y62954D01*
X-4507Y62958D01*
X-4418Y63011D01*
X-4327Y63060D01*
X-4313Y63074D01*
X-4296Y63084D01*
X-4229Y63163D01*
X-4157Y63238D01*
X-4149Y63256D01*
X-4136Y63271D01*
X-4097Y63367D01*
X-4054Y63461D01*
X-4052Y63481D01*
X-4044Y63499D01*
X-4026Y63666D01*
X-4026Y70384D01*
X-4029Y70404D01*
X-4027Y70423D01*
X-4049Y70525D01*
X-4065Y70627D01*
X-4075Y70644D01*
X-4079Y70664D01*
X-4132Y70753D01*
X-4181Y70844D01*
X-4195Y70858D01*
X-4205Y70875D01*
X-4284Y70942D01*
X-4359Y71014D01*
X-4377Y71022D01*
X-4392Y71035D01*
X-4488Y71074D01*
X-4582Y71117D01*
X-4602Y71119D01*
X-4620Y71127D01*
X-4787Y71145D01*
X-8422Y71145D01*
X-8430Y71150D01*
X-8530Y71175D01*
X-8629Y71206D01*
X-8649Y71205D01*
X-8668Y71210D01*
X-8771Y71202D01*
X-8875Y71200D01*
X-8894Y71193D01*
X-8913Y71191D01*
X-9009Y71151D01*
X-9023Y71145D01*
X-13423Y71145D01*
X-13431Y71150D01*
X-13531Y71175D01*
X-13630Y71206D01*
X-13650Y71205D01*
X-13669Y71210D01*
X-13772Y71202D01*
X-13876Y71200D01*
X-13895Y71193D01*
X-13914Y71191D01*
X-14010Y71151D01*
X-14024Y71145D01*
X-18424Y71145D01*
X-18432Y71151D01*
X-18533Y71176D01*
X-18631Y71206D01*
X-18651Y71206D01*
X-18671Y71211D01*
X-18774Y71203D01*
X-18877Y71200D01*
X-18896Y71193D01*
X-18916Y71192D01*
X-19011Y71151D01*
X-19027Y71145D01*
X-23426Y71145D01*
X-23434Y71150D01*
X-23534Y71175D01*
X-23633Y71206D01*
X-23653Y71205D01*
X-23672Y71210D01*
X-23775Y71202D01*
X-23879Y71200D01*
X-23898Y71193D01*
X-23917Y71191D01*
X-24013Y71151D01*
X-24027Y71145D01*
X-28354Y71145D01*
X-29248Y72038D01*
X-29248Y77941D01*
X-29251Y77961D01*
X-29249Y77981D01*
X-29271Y78082D01*
X-29287Y78184D01*
X-29297Y78201D01*
X-29301Y78221D01*
X-29354Y78310D01*
X-29402Y78401D01*
X-29417Y78415D01*
X-29427Y78432D01*
X-29506Y78499D01*
X-29581Y78571D01*
X-29599Y78579D01*
X-29614Y78592D01*
X-29710Y78631D01*
X-29804Y78674D01*
X-29824Y78676D01*
X-29842Y78684D01*
X-30009Y78702D01*
X-35912Y78702D01*
X-36805Y79596D01*
X-36805Y83903D01*
X-36800Y83911D01*
X-36775Y84011D01*
X-36744Y84110D01*
X-36745Y84130D01*
X-36740Y84149D01*
X-36748Y84252D01*
X-36750Y84356D01*
X-36757Y84375D01*
X-36759Y84394D01*
X-36799Y84489D01*
X-36805Y84504D01*
X-36805Y88904D01*
X-36799Y88912D01*
X-36774Y89013D01*
X-36744Y89111D01*
X-36744Y89131D01*
X-36739Y89151D01*
X-36747Y89254D01*
X-36750Y89357D01*
X-36757Y89376D01*
X-36758Y89396D01*
X-36799Y89491D01*
X-36805Y89507D01*
X-36805Y91215D01*
X-36816Y91286D01*
X-36818Y91358D01*
X-36836Y91407D01*
X-36844Y91458D01*
X-36878Y91521D01*
X-36903Y91589D01*
X-36935Y91629D01*
X-36960Y91676D01*
X-37012Y91725D01*
X-37056Y91781D01*
X-37100Y91809D01*
X-37138Y91845D01*
X-37203Y91875D01*
X-37263Y91914D01*
X-37314Y91927D01*
X-37361Y91949D01*
X-37432Y91956D01*
X-37502Y91974D01*
X-37554Y91970D01*
X-37605Y91976D01*
X-37676Y91960D01*
X-37747Y91955D01*
X-37795Y91934D01*
X-37846Y91923D01*
X-37907Y91887D01*
X-37973Y91858D01*
X-38029Y91814D01*
X-38057Y91797D01*
X-38072Y91779D01*
X-38104Y91754D01*
X-40726Y89132D01*
X-42735Y87123D01*
X-70985Y87123D01*
X-82190Y98328D01*
X-82264Y98381D01*
X-82334Y98441D01*
X-82364Y98453D01*
X-82390Y98472D01*
X-82477Y98499D01*
X-82562Y98533D01*
X-82603Y98537D01*
X-82625Y98544D01*
X-82657Y98543D01*
X-82729Y98551D01*
X-90858Y98551D01*
X-90948Y98537D01*
X-91039Y98529D01*
X-91069Y98517D01*
X-91101Y98512D01*
X-91181Y98469D01*
X-91265Y98433D01*
X-91297Y98407D01*
X-91318Y98396D01*
X-91340Y98373D01*
X-91396Y98328D01*
X-97700Y92025D01*
X-97753Y91951D01*
X-97812Y91881D01*
X-97825Y91851D01*
X-97843Y91825D01*
X-97870Y91738D01*
X-97904Y91653D01*
X-97909Y91612D01*
X-97916Y91590D01*
X-97915Y91558D01*
X-97923Y91486D01*
X-97923Y89680D01*
X-100587Y87016D01*
X-102378Y87016D01*
X-102416Y87010D01*
X-102455Y87012D01*
X-102537Y86990D01*
X-102621Y86976D01*
X-102655Y86958D01*
X-102693Y86948D01*
X-102763Y86901D01*
X-102838Y86861D01*
X-102865Y86833D01*
X-102897Y86812D01*
X-102949Y86744D01*
X-103008Y86683D01*
X-103024Y86648D01*
X-103048Y86617D01*
X-103076Y86537D01*
X-103111Y86460D01*
X-103116Y86421D01*
X-103128Y86385D01*
X-103129Y86300D01*
X-103138Y86215D01*
X-103130Y86177D01*
X-103131Y86139D01*
X-103087Y85977D01*
X-102632Y84817D01*
X-102615Y84787D01*
X-102604Y84754D01*
X-102552Y84682D01*
X-102507Y84606D01*
X-102480Y84583D01*
X-102460Y84555D01*
X-102398Y84506D01*
X-102255Y83878D01*
X-102243Y83847D01*
X-102221Y83769D01*
X-101988Y83173D01*
X-101999Y83102D01*
X-102021Y83016D01*
X-102018Y82982D01*
X-102024Y82947D01*
X-102005Y82781D01*
X-101515Y80632D01*
X-101502Y80599D01*
X-101497Y80565D01*
X-101456Y80486D01*
X-101422Y80404D01*
X-101400Y80377D01*
X-101384Y80347D01*
X-101330Y80289D01*
X-101282Y79647D01*
X-101274Y79615D01*
X-101265Y79534D01*
X-101123Y78910D01*
X-101144Y78842D01*
X-101179Y78760D01*
X-101182Y78725D01*
X-101192Y78692D01*
X-101198Y78524D01*
X-101034Y76326D01*
X-101026Y76293D01*
X-101026Y76258D01*
X-100997Y76173D01*
X-100976Y76087D01*
X-100958Y76058D01*
X-100947Y76025D01*
X-100902Y75959D01*
X-100950Y75318D01*
X-100947Y75285D01*
X-100950Y75204D01*
X-100903Y74565D01*
X-100934Y74501D01*
X-100981Y74425D01*
X-100989Y74391D01*
X-101004Y74360D01*
X-101035Y74195D01*
X-101200Y71997D01*
X-101197Y71963D01*
X-101202Y71928D01*
X-101187Y71841D01*
X-101179Y71752D01*
X-101165Y71720D01*
X-101159Y71686D01*
X-101124Y71615D01*
X-101268Y70987D01*
X-101270Y70954D01*
X-101285Y70875D01*
X-101333Y70236D01*
X-101374Y70178D01*
X-101431Y70109D01*
X-101444Y70077D01*
X-101463Y70049D01*
X-101519Y69890D01*
X-102010Y67741D01*
X-102012Y67707D01*
X-102022Y67674D01*
X-102019Y67585D01*
X-102025Y67496D01*
X-102016Y67462D01*
X-102015Y67428D01*
X-101992Y67352D01*
X-102227Y66753D01*
X-102234Y66721D01*
X-102260Y66644D01*
X-102403Y66020D01*
X-102452Y65968D01*
X-102519Y65909D01*
X-102536Y65879D01*
X-102560Y65854D01*
X-102638Y65705D01*
X-103444Y63654D01*
X-103452Y63620D01*
X-103467Y63589D01*
X-103477Y63500D01*
X-103496Y63413D01*
X-103492Y63379D01*
X-103496Y63344D01*
X-103484Y63266D01*
X-103807Y62709D01*
X-103818Y62678D01*
X-103856Y62606D01*
X-104090Y62010D01*
X-104146Y61966D01*
X-104221Y61918D01*
X-104243Y61891D01*
X-104270Y61869D01*
X-104370Y61734D01*
X-105472Y59826D01*
X-105485Y59793D01*
X-105504Y59764D01*
X-105528Y59679D01*
X-105559Y59596D01*
X-105561Y59561D01*
X-105570Y59527D01*
X-105570Y59448D01*
X-105971Y58945D01*
X-105983Y58924D01*
X-105996Y58910D01*
X-106003Y58894D01*
X-106035Y58851D01*
X-106356Y58297D01*
X-106418Y58261D01*
X-106499Y58225D01*
X-106525Y58201D01*
X-106555Y58184D01*
X-106673Y58065D01*
X-108048Y56342D01*
X-108065Y56312D01*
X-108089Y56287D01*
X-108125Y56206D01*
X-108168Y56128D01*
X-108175Y56094D01*
X-108189Y56062D01*
X-108201Y55984D01*
X-108673Y55546D01*
X-108693Y55520D01*
X-108750Y55463D01*
X-109149Y54962D01*
X-109216Y54937D01*
X-109302Y54913D01*
X-109331Y54893D01*
X-109363Y54881D01*
X-109498Y54781D01*
X-111114Y53282D01*
X-111135Y53255D01*
X-111163Y53233D01*
X-111211Y53158D01*
X-111265Y53088D01*
X-111277Y53055D01*
X-111295Y53026D01*
X-111319Y52950D01*
X-111851Y52588D01*
X-111875Y52565D01*
X-111940Y52517D01*
X-112409Y52081D01*
X-112479Y52066D01*
X-112568Y52055D01*
X-112599Y52040D01*
X-112633Y52033D01*
X-112781Y51954D01*
X-114506Y50779D01*
X-114551Y50735D01*
X-114603Y50700D01*
X-114640Y50651D01*
X-114684Y50609D01*
X-114706Y50568D01*
X-115229Y50266D01*
X-115245Y50253D01*
X-115263Y50245D01*
X-115339Y50176D01*
X-115419Y50110D01*
X-115430Y50093D01*
X-115445Y50080D01*
X-115495Y49990D01*
X-115550Y49902D01*
X-115555Y49882D01*
X-115565Y49865D01*
X-115584Y49763D01*
X-115608Y49663D01*
X-115606Y49643D01*
X-115610Y49623D01*
X-115595Y49520D01*
X-115586Y49418D01*
X-115578Y49399D01*
X-115575Y49379D01*
X-115508Y49226D01*
X-96650Y16564D01*
X-96644Y16542D01*
X-96637Y16533D01*
X-96633Y16521D01*
X-87133Y21D01*
X-87081Y-38D01*
X-87035Y-100D01*
X-87016Y-111D01*
X-87001Y-128D01*
X-86931Y-162D01*
X-86864Y-202D01*
X-86840Y-206D01*
X-86822Y-214D01*
X-86777Y-216D01*
X-86700Y-229D01*
X-67700Y-229D01*
X-67672Y-224D01*
G37*
G36*
X-4443Y150970D02*
X-4443Y150970D01*
X-4391Y150971D01*
X-4323Y150996D01*
X-4253Y151011D01*
X-4209Y151038D01*
X-4160Y151056D01*
X-4104Y151101D01*
X-4042Y151138D01*
X-4008Y151177D01*
X-3968Y151210D01*
X-3929Y151270D01*
X-3882Y151324D01*
X-3863Y151373D01*
X-3835Y151417D01*
X-3817Y151486D01*
X-3790Y151553D01*
X-3782Y151624D01*
X-3774Y151655D01*
X-3776Y151678D01*
X-3772Y151719D01*
X-3772Y153082D01*
X-3786Y153172D01*
X-3794Y153263D01*
X-3806Y153293D01*
X-3811Y153325D01*
X-3854Y153406D01*
X-3890Y153490D01*
X-3916Y153522D01*
X-3927Y153542D01*
X-3950Y153565D01*
X-3995Y153621D01*
X-4219Y153845D01*
X-4223Y153887D01*
X-4235Y153917D01*
X-4240Y153949D01*
X-4283Y154030D01*
X-4319Y154113D01*
X-4345Y154146D01*
X-4356Y154166D01*
X-4379Y154188D01*
X-4424Y154244D01*
X-24959Y174780D01*
X-26671Y176491D01*
X-26671Y183642D01*
X-26674Y183662D01*
X-26672Y183681D01*
X-26694Y183783D01*
X-26710Y183885D01*
X-26720Y183902D01*
X-26724Y183922D01*
X-26777Y184011D01*
X-26826Y184102D01*
X-26840Y184116D01*
X-26850Y184133D01*
X-26929Y184200D01*
X-27004Y184272D01*
X-27022Y184280D01*
X-27037Y184293D01*
X-27133Y184332D01*
X-27227Y184375D01*
X-27247Y184377D01*
X-27265Y184385D01*
X-27432Y184403D01*
X-28234Y184403D01*
X-34037Y190206D01*
X-34037Y198414D01*
X-28234Y204217D01*
X-19866Y204217D01*
X-19795Y204228D01*
X-19724Y204230D01*
X-19675Y204248D01*
X-19623Y204256D01*
X-19560Y204290D01*
X-19493Y204315D01*
X-19452Y204347D01*
X-19406Y204372D01*
X-19357Y204424D01*
X-19301Y204468D01*
X-19272Y204512D01*
X-19237Y204550D01*
X-19206Y204615D01*
X-19168Y204675D01*
X-19155Y204726D01*
X-19133Y204773D01*
X-19125Y204844D01*
X-19108Y204914D01*
X-19112Y204966D01*
X-19106Y205017D01*
X-19121Y205088D01*
X-19127Y205159D01*
X-19147Y205207D01*
X-19158Y205258D01*
X-19195Y205319D01*
X-19223Y205385D01*
X-19268Y205441D01*
X-19284Y205469D01*
X-19302Y205484D01*
X-19328Y205516D01*
X-26671Y212859D01*
X-26671Y274780D01*
X-26686Y274870D01*
X-26693Y274961D01*
X-26705Y274991D01*
X-26711Y275023D01*
X-26753Y275104D01*
X-26789Y275188D01*
X-26815Y275220D01*
X-26826Y275240D01*
X-26849Y275263D01*
X-26894Y275319D01*
X-28171Y276596D01*
X-28171Y280364D01*
X-25506Y283029D01*
X-24959Y283029D01*
X-24930Y283033D01*
X-24901Y283031D01*
X-24809Y283053D01*
X-24716Y283068D01*
X-24690Y283082D01*
X-24662Y283089D01*
X-24582Y283139D01*
X-24498Y283183D01*
X-24478Y283204D01*
X-24454Y283220D01*
X-24394Y283293D01*
X-24329Y283362D01*
X-24317Y283388D01*
X-24298Y283411D01*
X-24265Y283499D01*
X-24225Y283585D01*
X-24222Y283614D01*
X-24212Y283641D01*
X-24209Y283736D01*
X-24198Y283829D01*
X-24205Y283858D01*
X-24204Y283887D01*
X-24231Y283977D01*
X-24251Y284070D01*
X-24266Y284095D01*
X-24274Y284123D01*
X-24363Y284264D01*
X-24521Y284462D01*
X-24531Y284533D01*
X-24535Y284622D01*
X-24548Y284654D01*
X-24553Y284688D01*
X-24620Y284842D01*
X-25721Y286749D01*
X-25743Y286776D01*
X-25758Y286807D01*
X-25821Y286871D01*
X-25877Y286939D01*
X-25906Y286958D01*
X-25931Y286982D01*
X-26000Y287022D01*
X-26235Y287621D01*
X-26251Y287649D01*
X-26284Y287724D01*
X-26604Y288278D01*
X-26604Y288350D01*
X-26595Y288438D01*
X-26602Y288472D01*
X-26602Y288507D01*
X-26646Y288669D01*
X-27450Y290719D01*
X-27468Y290748D01*
X-27478Y290781D01*
X-27530Y290853D01*
X-27576Y290930D01*
X-27602Y290953D01*
X-27623Y290981D01*
X-27685Y291030D01*
X-27828Y291658D01*
X-27840Y291688D01*
X-27862Y291766D01*
X-28095Y292362D01*
X-28084Y292433D01*
X-28062Y292519D01*
X-28065Y292554D01*
X-28059Y292588D01*
X-28078Y292755D01*
X-28568Y294902D01*
X-28581Y294934D01*
X-28587Y294968D01*
X-28628Y295047D01*
X-28661Y295129D01*
X-28684Y295156D01*
X-28700Y295186D01*
X-28754Y295244D01*
X-28802Y295886D01*
X-28810Y295918D01*
X-28819Y295999D01*
X-28961Y296623D01*
X-28940Y296692D01*
X-28905Y296774D01*
X-28903Y296808D01*
X-28892Y296841D01*
X-28886Y297009D01*
X-29042Y299088D01*
X-29057Y299149D01*
X-29062Y299212D01*
X-29085Y299268D01*
X-29100Y299327D01*
X-29127Y299371D01*
X-29126Y299386D01*
X-29148Y299487D01*
X-29164Y299589D01*
X-29174Y299607D01*
X-29178Y299626D01*
X-29231Y299715D01*
X-29280Y299807D01*
X-29294Y299820D01*
X-29304Y299838D01*
X-29383Y299905D01*
X-29458Y299976D01*
X-29476Y299985D01*
X-29491Y299997D01*
X-29587Y300036D01*
X-29681Y300080D01*
X-29701Y300082D01*
X-29719Y300089D01*
X-29886Y300108D01*
X-67212Y300108D01*
X-67202Y300230D01*
X-67206Y300259D01*
X-67201Y300287D01*
X-67218Y300356D01*
X-67226Y300428D01*
X-67241Y300452D01*
X-67247Y300480D01*
X-67290Y300538D01*
X-67326Y300600D01*
X-67348Y300617D01*
X-67365Y300640D01*
X-67427Y300677D01*
X-67484Y300720D01*
X-67512Y300727D01*
X-67536Y300742D01*
X-67636Y300758D01*
X-67677Y300769D01*
X-67687Y300767D01*
X-67700Y300769D01*
X-86700Y300769D01*
X-86776Y300754D01*
X-86854Y300745D01*
X-86873Y300734D01*
X-86895Y300730D01*
X-86959Y300686D01*
X-87027Y300647D01*
X-87043Y300628D01*
X-87059Y300617D01*
X-87083Y300579D01*
X-87133Y300519D01*
X-96633Y284019D01*
X-96642Y283992D01*
X-96658Y283968D01*
X-96673Y283898D01*
X-96696Y283830D01*
X-96693Y283802D01*
X-96699Y283774D01*
X-96686Y283704D01*
X-96685Y283691D01*
X-115410Y251258D01*
X-115417Y251239D01*
X-115429Y251223D01*
X-115461Y251125D01*
X-115497Y251028D01*
X-115498Y251008D01*
X-115504Y250989D01*
X-115502Y250886D01*
X-115506Y250782D01*
X-115500Y250763D01*
X-115500Y250743D01*
X-115466Y250646D01*
X-115436Y250546D01*
X-115425Y250530D01*
X-115418Y250511D01*
X-115354Y250429D01*
X-115295Y250345D01*
X-115279Y250333D01*
X-115266Y250317D01*
X-115131Y250218D01*
X-114715Y249978D01*
X-114711Y249969D01*
X-114668Y249923D01*
X-114633Y249870D01*
X-114566Y249813D01*
X-114544Y249789D01*
X-114528Y249780D01*
X-114506Y249761D01*
X-112781Y248586D01*
X-112749Y248571D01*
X-112722Y248550D01*
X-112639Y248520D01*
X-112558Y248482D01*
X-112523Y248478D01*
X-112491Y248467D01*
X-112412Y248461D01*
X-111940Y248023D01*
X-111912Y248005D01*
X-111851Y247952D01*
X-111321Y247592D01*
X-111291Y247527D01*
X-111260Y247443D01*
X-111239Y247416D01*
X-111224Y247385D01*
X-111114Y247258D01*
X-109498Y245759D01*
X-109469Y245740D01*
X-109445Y245715D01*
X-109367Y245672D01*
X-109293Y245623D01*
X-109260Y245614D01*
X-109229Y245598D01*
X-109152Y245580D01*
X-108750Y245077D01*
X-108726Y245055D01*
X-108673Y244994D01*
X-108203Y244558D01*
X-108183Y244490D01*
X-108165Y244403D01*
X-108148Y244373D01*
X-108138Y244339D01*
X-108048Y244198D01*
X-106673Y242475D01*
X-106648Y242451D01*
X-106628Y242423D01*
X-106557Y242369D01*
X-106491Y242310D01*
X-106459Y242296D01*
X-106431Y242275D01*
X-106357Y242246D01*
X-106035Y241689D01*
X-106014Y241663D01*
X-105971Y241595D01*
X-105572Y241094D01*
X-105562Y241024D01*
X-105557Y240935D01*
X-105545Y240902D01*
X-105540Y240868D01*
X-105472Y240714D01*
X-104370Y238806D01*
X-104348Y238779D01*
X-104332Y238748D01*
X-104270Y238685D01*
X-104214Y238616D01*
X-104184Y238597D01*
X-104160Y238572D01*
X-104091Y238533D01*
X-103856Y237934D01*
X-103839Y237905D01*
X-103807Y237831D01*
X-103486Y237277D01*
X-103487Y237205D01*
X-103496Y237117D01*
X-103488Y237083D01*
X-103488Y237048D01*
X-103444Y236886D01*
X-102638Y234835D01*
X-102621Y234805D01*
X-102610Y234772D01*
X-102558Y234700D01*
X-102513Y234623D01*
X-102486Y234601D01*
X-102466Y234573D01*
X-102404Y234523D01*
X-102260Y233896D01*
X-102248Y233865D01*
X-102227Y233787D01*
X-101993Y233191D01*
X-102004Y233120D01*
X-102026Y233034D01*
X-102023Y232999D01*
X-102029Y232965D01*
X-102010Y232799D01*
X-101630Y231139D01*
X-101589Y231038D01*
X-101552Y230935D01*
X-101543Y230924D01*
X-101538Y230911D01*
X-101466Y230829D01*
X-101398Y230743D01*
X-101386Y230736D01*
X-101377Y230725D01*
X-101283Y230670D01*
X-101191Y230610D01*
X-101177Y230607D01*
X-101165Y230600D01*
X-101058Y230577D01*
X-100952Y230550D01*
X-100938Y230551D01*
X-100925Y230548D01*
X-100816Y230561D01*
X-100707Y230569D01*
X-100694Y230575D01*
X-100680Y230577D01*
X-100581Y230623D01*
X-100481Y230666D01*
X-100468Y230676D01*
X-100458Y230681D01*
X-100437Y230701D01*
X-100350Y230771D01*
X-98730Y232391D01*
X-94961Y232391D01*
X-93684Y231114D01*
X-93610Y231061D01*
X-93541Y231001D01*
X-93511Y230989D01*
X-93485Y230970D01*
X-93398Y230943D01*
X-93313Y230909D01*
X-93272Y230905D01*
X-93250Y230898D01*
X-93217Y230899D01*
X-93146Y230891D01*
X-84781Y230891D01*
X-82772Y228882D01*
X-5071Y151181D01*
X-5013Y151139D01*
X-4961Y151090D01*
X-4914Y151068D01*
X-4872Y151037D01*
X-4803Y151016D01*
X-4738Y150986D01*
X-4686Y150980D01*
X-4636Y150965D01*
X-4565Y150967D01*
X-4494Y150959D01*
X-4443Y150970D01*
G37*
G36*
X86576Y-214D02*
X86576Y-214D01*
X86654Y-205D01*
X86673Y-194D01*
X86695Y-190D01*
X86759Y-146D01*
X86827Y-107D01*
X86843Y-88D01*
X86859Y-77D01*
X86883Y-39D01*
X86933Y21D01*
X96433Y16521D01*
X96442Y16548D01*
X96458Y16572D01*
X96473Y16642D01*
X96496Y16710D01*
X96493Y16738D01*
X96499Y16766D01*
X96486Y16837D01*
X96480Y16908D01*
X96467Y16933D01*
X96461Y16961D01*
X96421Y17021D01*
X96388Y17084D01*
X96373Y17097D01*
X115019Y49392D01*
X115026Y49411D01*
X115038Y49427D01*
X115070Y49526D01*
X115106Y49622D01*
X115107Y49642D01*
X115113Y49661D01*
X115111Y49765D01*
X115115Y49868D01*
X115110Y49887D01*
X115109Y49907D01*
X115075Y50005D01*
X115045Y50104D01*
X115034Y50120D01*
X115027Y50139D01*
X114963Y50221D01*
X114904Y50305D01*
X114888Y50317D01*
X114876Y50333D01*
X114740Y50432D01*
X114515Y50562D01*
X114511Y50571D01*
X114468Y50617D01*
X114433Y50670D01*
X114366Y50727D01*
X114344Y50751D01*
X114328Y50760D01*
X114306Y50779D01*
X112581Y51954D01*
X112549Y51969D01*
X112522Y51990D01*
X112439Y52020D01*
X112358Y52058D01*
X112323Y52062D01*
X112291Y52073D01*
X112212Y52079D01*
X111740Y52517D01*
X111712Y52535D01*
X111651Y52588D01*
X111121Y52948D01*
X111091Y53013D01*
X111060Y53097D01*
X111039Y53124D01*
X111024Y53155D01*
X110914Y53282D01*
X109298Y54781D01*
X109269Y54800D01*
X109245Y54825D01*
X109167Y54867D01*
X109093Y54917D01*
X109059Y54926D01*
X109029Y54942D01*
X108952Y54960D01*
X108550Y55463D01*
X108526Y55485D01*
X108473Y55546D01*
X108003Y55982D01*
X107983Y56050D01*
X107965Y56137D01*
X107948Y56167D01*
X107938Y56201D01*
X107848Y56342D01*
X106473Y58065D01*
X106448Y58089D01*
X106428Y58117D01*
X106357Y58171D01*
X106291Y58230D01*
X106259Y58244D01*
X106231Y58265D01*
X106157Y58294D01*
X105835Y58851D01*
X105814Y58877D01*
X105771Y58945D01*
X105372Y59446D01*
X105362Y59516D01*
X105357Y59605D01*
X105345Y59638D01*
X105340Y59672D01*
X105272Y59826D01*
X104170Y61734D01*
X104148Y61761D01*
X104132Y61792D01*
X104070Y61855D01*
X104014Y61924D01*
X103984Y61943D01*
X103960Y61968D01*
X103891Y62007D01*
X103656Y62606D01*
X103639Y62635D01*
X103607Y62709D01*
X103286Y63263D01*
X103287Y63335D01*
X103296Y63423D01*
X103288Y63457D01*
X103288Y63492D01*
X103244Y63654D01*
X102438Y65705D01*
X102421Y65735D01*
X102410Y65768D01*
X102358Y65840D01*
X102313Y65917D01*
X102286Y65939D01*
X102266Y65967D01*
X102204Y66017D01*
X102060Y66644D01*
X102048Y66675D01*
X102027Y66753D01*
X101793Y67349D01*
X101804Y67420D01*
X101826Y67506D01*
X101823Y67541D01*
X101829Y67575D01*
X101810Y67741D01*
X101319Y69890D01*
X101305Y69922D01*
X101300Y69957D01*
X101259Y70036D01*
X101226Y70118D01*
X101203Y70144D01*
X101187Y70175D01*
X101133Y70233D01*
X101085Y70875D01*
X101077Y70907D01*
X101068Y70987D01*
X100925Y71612D01*
X100947Y71680D01*
X100981Y71762D01*
X100984Y71797D01*
X100994Y71830D01*
X101000Y71997D01*
X100835Y74195D01*
X100827Y74229D01*
X100827Y74264D01*
X100798Y74348D01*
X100777Y74434D01*
X100758Y74464D01*
X100747Y74496D01*
X100702Y74562D01*
X100750Y75204D01*
X100747Y75237D01*
X100748Y75262D01*
X100749Y75269D01*
X100749Y75272D01*
X100750Y75318D01*
X100702Y75956D01*
X100734Y76020D01*
X100780Y76096D01*
X100788Y76130D01*
X100803Y76161D01*
X100834Y76326D01*
X100998Y78524D01*
X100995Y78559D01*
X101000Y78593D01*
X100984Y78681D01*
X100977Y78769D01*
X100963Y78801D01*
X100957Y78835D01*
X100922Y78907D01*
X101065Y79534D01*
X101067Y79567D01*
X101082Y79647D01*
X101130Y80285D01*
X101170Y80344D01*
X101228Y80412D01*
X101240Y80445D01*
X101260Y80473D01*
X101315Y80632D01*
X101805Y82781D01*
X101807Y82815D01*
X101817Y82848D01*
X101815Y82937D01*
X101820Y83026D01*
X101811Y83060D01*
X101810Y83094D01*
X101786Y83170D01*
X102021Y83769D01*
X102028Y83802D01*
X102055Y83878D01*
X102197Y84502D01*
X102246Y84554D01*
X102313Y84613D01*
X102330Y84643D01*
X102354Y84669D01*
X102432Y84817D01*
X103237Y86869D01*
X103244Y86903D01*
X103259Y86934D01*
X103270Y87023D01*
X103289Y87110D01*
X103285Y87144D01*
X103289Y87178D01*
X103277Y87257D01*
X103598Y87815D01*
X103610Y87845D01*
X103648Y87917D01*
X103882Y88513D01*
X103938Y88557D01*
X104013Y88606D01*
X104034Y88633D01*
X104062Y88654D01*
X104161Y88789D01*
X105262Y90699D01*
X105275Y90731D01*
X105294Y90760D01*
X105318Y90846D01*
X105349Y90929D01*
X105351Y90963D01*
X105360Y90997D01*
X105360Y91076D01*
X105761Y91580D01*
X105777Y91608D01*
X105825Y91674D01*
X106145Y92228D01*
X106207Y92264D01*
X106288Y92300D01*
X106314Y92324D01*
X106344Y92341D01*
X106462Y92460D01*
X107836Y94183D01*
X107853Y94214D01*
X107876Y94239D01*
X107913Y94321D01*
X107956Y94398D01*
X107963Y94432D01*
X107977Y94464D01*
X107988Y94542D01*
X108460Y94980D01*
X108480Y95006D01*
X108537Y95064D01*
X108937Y95564D01*
X109003Y95590D01*
X109089Y95614D01*
X109118Y95634D01*
X109150Y95646D01*
X109285Y95746D01*
X109518Y95962D01*
X109570Y96030D01*
X109629Y96092D01*
X109645Y96126D01*
X109668Y96156D01*
X109697Y96237D01*
X109733Y96315D01*
X109737Y96353D01*
X109750Y96389D01*
X109750Y96474D01*
X109760Y96559D01*
X109752Y96597D01*
X109752Y96635D01*
X109726Y96716D01*
X109708Y96800D01*
X109688Y96833D01*
X109676Y96869D01*
X109625Y96937D01*
X109581Y97011D01*
X109553Y97036D01*
X109530Y97066D01*
X109460Y97115D01*
X109395Y97171D01*
X109359Y97185D01*
X109328Y97207D01*
X109246Y97231D01*
X109166Y97263D01*
X109117Y97268D01*
X109092Y97276D01*
X109062Y97274D01*
X109000Y97281D01*
X106988Y97281D01*
X106898Y97267D01*
X106807Y97259D01*
X106777Y97247D01*
X106745Y97242D01*
X106665Y97199D01*
X106581Y97163D01*
X106549Y97137D01*
X106528Y97126D01*
X106506Y97103D01*
X106450Y97058D01*
X73399Y64007D01*
X27332Y64007D01*
X25323Y66016D01*
X23122Y68217D01*
X23064Y68259D01*
X23012Y68308D01*
X22965Y68330D01*
X22923Y68360D01*
X22854Y68381D01*
X22789Y68412D01*
X22737Y68417D01*
X22687Y68433D01*
X22616Y68431D01*
X22545Y68439D01*
X22494Y68428D01*
X22442Y68426D01*
X22374Y68402D01*
X22304Y68386D01*
X22260Y68360D01*
X22211Y68342D01*
X22155Y68297D01*
X22093Y68260D01*
X22059Y68221D01*
X22019Y68188D01*
X21980Y68128D01*
X21933Y68073D01*
X21914Y68025D01*
X21886Y67981D01*
X21868Y67912D01*
X21841Y67845D01*
X21833Y67774D01*
X21825Y67743D01*
X21827Y67719D01*
X21823Y67679D01*
X21823Y28327D01*
X21837Y28237D01*
X21845Y28146D01*
X21857Y28117D01*
X21862Y28085D01*
X21905Y28004D01*
X21941Y27920D01*
X21967Y27888D01*
X21978Y27867D01*
X22001Y27845D01*
X22046Y27789D01*
X23528Y26307D01*
X23602Y26254D01*
X23671Y26195D01*
X23701Y26182D01*
X23727Y26164D01*
X23814Y26137D01*
X23899Y26103D01*
X23940Y26098D01*
X23962Y26091D01*
X23995Y26092D01*
X24066Y26084D01*
X25872Y26084D01*
X28536Y23420D01*
X28536Y19651D01*
X25872Y16987D01*
X25096Y16987D01*
X24997Y16971D01*
X24897Y16960D01*
X24876Y16951D01*
X24853Y16947D01*
X24765Y16900D01*
X24673Y16859D01*
X24656Y16843D01*
X24636Y16832D01*
X24567Y16759D01*
X24494Y16691D01*
X24483Y16670D01*
X24467Y16654D01*
X24424Y16562D01*
X24377Y16474D01*
X24370Y16446D01*
X24363Y16430D01*
X24359Y16398D01*
X24340Y16311D01*
X24323Y16164D01*
X24325Y16129D01*
X24318Y16095D01*
X24331Y16007D01*
X24335Y15918D01*
X24348Y15886D01*
X24353Y15852D01*
X24420Y15698D01*
X25521Y13791D01*
X25543Y13764D01*
X25558Y13733D01*
X25621Y13669D01*
X25677Y13601D01*
X25706Y13582D01*
X25731Y13558D01*
X25800Y13518D01*
X26035Y12919D01*
X26051Y12891D01*
X26084Y12816D01*
X26404Y12262D01*
X26404Y12190D01*
X26395Y12102D01*
X26402Y12068D01*
X26402Y12033D01*
X26446Y11871D01*
X27250Y9821D01*
X27268Y9792D01*
X27278Y9759D01*
X27330Y9687D01*
X27376Y9610D01*
X27402Y9587D01*
X27423Y9559D01*
X27485Y9510D01*
X27628Y8882D01*
X27640Y8852D01*
X27662Y8774D01*
X27895Y8178D01*
X27884Y8107D01*
X27862Y8021D01*
X27865Y7986D01*
X27859Y7952D01*
X27878Y7785D01*
X28368Y5638D01*
X28381Y5606D01*
X28387Y5572D01*
X28428Y5493D01*
X28461Y5411D01*
X28484Y5384D01*
X28500Y5354D01*
X28554Y5296D01*
X28602Y4654D01*
X28610Y4622D01*
X28619Y4541D01*
X28761Y3917D01*
X28740Y3848D01*
X28705Y3767D01*
X28703Y3732D01*
X28692Y3699D01*
X28686Y3531D01*
X28842Y1452D01*
X28857Y1391D01*
X28862Y1328D01*
X28885Y1272D01*
X28900Y1213D01*
X28925Y1173D01*
X28925Y627D01*
X28928Y608D01*
X28926Y588D01*
X28948Y487D01*
X28964Y385D01*
X28974Y367D01*
X28978Y348D01*
X29031Y259D01*
X29080Y167D01*
X29094Y154D01*
X29104Y136D01*
X29183Y69D01*
X29258Y-2D01*
X29276Y-11D01*
X29291Y-24D01*
X29387Y-62D01*
X29481Y-106D01*
X29501Y-108D01*
X29519Y-115D01*
X29686Y-134D01*
X67222Y-134D01*
X67227Y-137D01*
X67284Y-180D01*
X67312Y-187D01*
X67336Y-202D01*
X67436Y-218D01*
X67477Y-229D01*
X67487Y-227D01*
X67500Y-229D01*
X86500Y-229D01*
X86576Y-214D01*
G37*
G36*
X144276Y100640D02*
X144276Y100640D01*
X144296Y100640D01*
X144393Y100675D01*
X144493Y100704D01*
X144509Y100715D01*
X144528Y100722D01*
X144609Y100786D01*
X144694Y100845D01*
X144706Y100861D01*
X144721Y100874D01*
X144821Y101009D01*
X163463Y133297D01*
X163499Y133281D01*
X163528Y133281D01*
X163556Y133273D01*
X163627Y133281D01*
X163698Y133281D01*
X163725Y133292D01*
X163754Y133295D01*
X163816Y133330D01*
X163881Y133358D01*
X163902Y133378D01*
X163927Y133393D01*
X163990Y133470D01*
X164020Y133500D01*
X164024Y133510D01*
X164033Y133521D01*
X173533Y150021D01*
X173543Y150053D01*
X173552Y150066D01*
X173556Y150090D01*
X173557Y150094D01*
X173588Y150164D01*
X173588Y150188D01*
X173596Y150210D01*
X173590Y150286D01*
X173591Y150363D01*
X173581Y150387D01*
X173580Y150408D01*
X173559Y150447D01*
X173533Y150519D01*
X164033Y167019D01*
X164014Y167041D01*
X164001Y167067D01*
X163948Y167115D01*
X163901Y167168D01*
X163875Y167181D01*
X163854Y167200D01*
X163786Y167223D01*
X163758Y167237D01*
X145040Y199658D01*
X145027Y199673D01*
X145019Y199691D01*
X144949Y199768D01*
X144884Y199848D01*
X144867Y199858D01*
X144854Y199873D01*
X144763Y199924D01*
X144675Y199979D01*
X144656Y199983D01*
X144639Y199993D01*
X144537Y200012D01*
X144436Y200036D01*
X144417Y200034D01*
X144397Y200038D01*
X144295Y200023D01*
X144191Y200014D01*
X144173Y200006D01*
X144154Y200004D01*
X144000Y199936D01*
X143539Y199670D01*
X143529Y199671D01*
X143468Y199657D01*
X143405Y199653D01*
X143321Y199624D01*
X143289Y199616D01*
X143274Y199607D01*
X143246Y199597D01*
X141366Y198692D01*
X141337Y198672D01*
X141305Y198660D01*
X141237Y198602D01*
X141164Y198551D01*
X141144Y198523D01*
X141117Y198501D01*
X141072Y198435D01*
X140457Y198246D01*
X140428Y198231D01*
X140351Y198204D01*
X139774Y197927D01*
X139703Y197933D01*
X139615Y197948D01*
X139581Y197943D01*
X139547Y197946D01*
X139382Y197914D01*
X137275Y197265D01*
X137244Y197250D01*
X137210Y197242D01*
X137135Y197196D01*
X137055Y197156D01*
X137030Y197131D01*
X137001Y197113D01*
X136947Y197055D01*
X136311Y196959D01*
X136279Y196949D01*
X136200Y196934D01*
X135588Y196745D01*
X135518Y196762D01*
X135434Y196790D01*
X135399Y196790D01*
X135365Y196798D01*
X135198Y196792D01*
X133018Y196464D01*
X132985Y196453D01*
X132950Y196451D01*
X132868Y196416D01*
X132784Y196389D01*
X132756Y196368D01*
X132724Y196354D01*
X132662Y196305D01*
X132018Y196305D01*
X131986Y196300D01*
X131905Y196297D01*
X131272Y196201D01*
X131205Y196228D01*
X131126Y196269D01*
X131092Y196274D01*
X131059Y196287D01*
X130893Y196305D01*
X128689Y196306D01*
X128654Y196301D01*
X128620Y196303D01*
X128534Y196281D01*
X128446Y196267D01*
X128415Y196250D01*
X128382Y196242D01*
X128313Y196202D01*
X127677Y196298D01*
X127644Y196298D01*
X127563Y196307D01*
X126923Y196307D01*
X126861Y196343D01*
X126789Y196395D01*
X126756Y196405D01*
X126726Y196423D01*
X126564Y196466D01*
X124384Y196795D01*
X124349Y196795D01*
X124316Y196803D01*
X124227Y196793D01*
X124138Y196792D01*
X124106Y196781D01*
X124071Y196777D01*
X123997Y196748D01*
X123382Y196938D01*
X123350Y196943D01*
X123271Y196963D01*
X122638Y197059D01*
X122583Y197104D01*
X122519Y197166D01*
X122488Y197181D01*
X122461Y197203D01*
X122307Y197270D01*
X120201Y197921D01*
X120166Y197925D01*
X120134Y197938D01*
X120045Y197942D01*
X119957Y197954D01*
X119923Y197948D01*
X119888Y197949D01*
X119811Y197932D01*
X119231Y198211D01*
X119200Y198220D01*
X119125Y198253D01*
X118513Y198442D01*
X118465Y198495D01*
X118411Y198566D01*
X118383Y198585D01*
X118359Y198611D01*
X118217Y198700D01*
X116232Y199657D01*
X116199Y199667D01*
X116168Y199684D01*
X116081Y199701D01*
X115996Y199726D01*
X115961Y199725D01*
X115927Y199732D01*
X115848Y199726D01*
X115316Y200088D01*
X115286Y200102D01*
X115218Y200145D01*
X114641Y200423D01*
X114601Y200483D01*
X114559Y200561D01*
X114533Y200585D01*
X114514Y200614D01*
X114387Y200723D01*
X112566Y201965D01*
X112534Y201980D01*
X112507Y202001D01*
X112424Y202031D01*
X112343Y202069D01*
X112308Y202073D01*
X112276Y202085D01*
X112197Y202090D01*
X111725Y202528D01*
X111698Y202547D01*
X111636Y202599D01*
X111107Y202960D01*
X111077Y203025D01*
X111046Y203109D01*
X111025Y203136D01*
X111010Y203167D01*
X110900Y203294D01*
X110782Y203404D01*
X110777Y203407D01*
X110774Y203411D01*
X110675Y203475D01*
X110577Y203540D01*
X110572Y203541D01*
X110567Y203544D01*
X110453Y203573D01*
X110339Y203603D01*
X110334Y203603D01*
X110328Y203605D01*
X110211Y203595D01*
X110094Y203588D01*
X110089Y203586D01*
X110083Y203585D01*
X109975Y203540D01*
X109866Y203495D01*
X109862Y203491D01*
X109857Y203489D01*
X109726Y203384D01*
X107412Y201070D01*
X107359Y200996D01*
X107299Y200927D01*
X107287Y200897D01*
X107268Y200870D01*
X107241Y200783D01*
X107207Y200699D01*
X107203Y200658D01*
X107196Y200635D01*
X107197Y200603D01*
X107189Y200532D01*
X107189Y111651D01*
X106890Y111352D01*
X106848Y111294D01*
X106798Y111242D01*
X106777Y111195D01*
X106746Y111153D01*
X106725Y111084D01*
X106695Y111019D01*
X106689Y110967D01*
X106674Y110918D01*
X106676Y110846D01*
X106668Y110775D01*
X106679Y110724D01*
X106680Y110672D01*
X106705Y110604D01*
X106720Y110534D01*
X106747Y110490D01*
X106765Y110441D01*
X106809Y110385D01*
X106846Y110323D01*
X106886Y110289D01*
X106918Y110249D01*
X106979Y110210D01*
X107033Y110163D01*
X107082Y110144D01*
X107125Y110116D01*
X107195Y110098D01*
X107261Y110071D01*
X107333Y110063D01*
X107364Y110056D01*
X107387Y110057D01*
X107428Y110053D01*
X135861Y110053D01*
X135951Y110068D01*
X136042Y110075D01*
X136072Y110087D01*
X136104Y110093D01*
X136184Y110135D01*
X136268Y110171D01*
X136301Y110197D01*
X136321Y110208D01*
X136343Y110231D01*
X136399Y110276D01*
X137676Y111553D01*
X141445Y111553D01*
X144109Y108888D01*
X144109Y105120D01*
X141768Y102778D01*
X141753Y102758D01*
X141734Y102743D01*
X141682Y102659D01*
X141624Y102579D01*
X141617Y102555D01*
X141604Y102534D01*
X141581Y102438D01*
X141552Y102344D01*
X141552Y102319D01*
X141547Y102295D01*
X141556Y102196D01*
X141558Y102098D01*
X141567Y102074D01*
X141569Y102050D01*
X141609Y101960D01*
X141643Y101867D01*
X141658Y101847D01*
X141668Y101825D01*
X141734Y101752D01*
X141796Y101675D01*
X141817Y101661D01*
X141834Y101643D01*
X141976Y101554D01*
X143246Y100943D01*
X143307Y100925D01*
X143364Y100898D01*
X143424Y100890D01*
X143482Y100873D01*
X143530Y100875D01*
X143781Y100730D01*
X143800Y100723D01*
X143816Y100711D01*
X143914Y100680D01*
X144011Y100643D01*
X144031Y100642D01*
X144050Y100636D01*
X144154Y100638D01*
X144257Y100634D01*
X144276Y100640D01*
G37*
G36*
X21314Y79637D02*
X21314Y79637D01*
X21417Y79640D01*
X21436Y79647D01*
X21456Y79648D01*
X21551Y79689D01*
X21567Y79695D01*
X25966Y79695D01*
X25974Y79690D01*
X26074Y79664D01*
X26173Y79634D01*
X26193Y79635D01*
X26212Y79630D01*
X26316Y79638D01*
X26419Y79640D01*
X26438Y79647D01*
X26458Y79649D01*
X26552Y79689D01*
X26567Y79695D01*
X30034Y79695D01*
X30054Y79698D01*
X30073Y79696D01*
X30175Y79718D01*
X30277Y79734D01*
X30294Y79744D01*
X30314Y79748D01*
X30403Y79801D01*
X30494Y79850D01*
X30508Y79864D01*
X30525Y79874D01*
X30592Y79953D01*
X30664Y80028D01*
X30672Y80046D01*
X30685Y80061D01*
X30724Y80157D01*
X30767Y80251D01*
X30769Y80271D01*
X30777Y80289D01*
X30795Y80456D01*
X30795Y83903D01*
X30800Y83911D01*
X30826Y84011D01*
X30856Y84110D01*
X30855Y84130D01*
X30860Y84149D01*
X30852Y84253D01*
X30850Y84356D01*
X30843Y84375D01*
X30841Y84395D01*
X30801Y84489D01*
X30795Y84504D01*
X30795Y88904D01*
X30801Y88912D01*
X30826Y89013D01*
X30856Y89112D01*
X30856Y89132D01*
X30861Y89151D01*
X30853Y89254D01*
X30850Y89357D01*
X30843Y89376D01*
X30842Y89396D01*
X30801Y89491D01*
X30795Y89507D01*
X30795Y93906D01*
X30800Y93914D01*
X30826Y94014D01*
X30856Y94113D01*
X30855Y94133D01*
X30860Y94152D01*
X30852Y94256D01*
X30850Y94359D01*
X30843Y94378D01*
X30841Y94398D01*
X30801Y94492D01*
X30795Y94507D01*
X30795Y98907D01*
X30800Y98915D01*
X30826Y99015D01*
X30856Y99114D01*
X30855Y99134D01*
X30860Y99153D01*
X30852Y99257D01*
X30850Y99360D01*
X30843Y99379D01*
X30841Y99399D01*
X30801Y99493D01*
X30795Y99508D01*
X30795Y103908D01*
X30800Y103916D01*
X30826Y104016D01*
X30856Y104115D01*
X30855Y104135D01*
X30860Y104154D01*
X30852Y104258D01*
X30850Y104361D01*
X30843Y104380D01*
X30841Y104400D01*
X30801Y104494D01*
X30795Y104509D01*
X30795Y108909D01*
X30801Y108917D01*
X30826Y109018D01*
X30856Y109117D01*
X30856Y109137D01*
X30861Y109156D01*
X30853Y109259D01*
X30850Y109362D01*
X30843Y109381D01*
X30842Y109401D01*
X30801Y109496D01*
X30795Y109512D01*
X30795Y113911D01*
X30800Y113919D01*
X30826Y114019D01*
X30856Y114118D01*
X30855Y114138D01*
X30860Y114157D01*
X30852Y114261D01*
X30850Y114364D01*
X30843Y114383D01*
X30841Y114403D01*
X30801Y114497D01*
X30795Y114512D01*
X30795Y118912D01*
X30800Y118920D01*
X30826Y119020D01*
X30856Y119119D01*
X30855Y119139D01*
X30860Y119158D01*
X30852Y119262D01*
X30850Y119365D01*
X30843Y119384D01*
X30841Y119404D01*
X30801Y119498D01*
X30795Y119513D01*
X30795Y123913D01*
X30800Y123921D01*
X30826Y124021D01*
X30856Y124120D01*
X30855Y124140D01*
X30860Y124159D01*
X30852Y124263D01*
X30850Y124366D01*
X30843Y124385D01*
X30841Y124405D01*
X30801Y124499D01*
X30795Y124514D01*
X30795Y128914D01*
X30801Y128922D01*
X30826Y129023D01*
X30856Y129122D01*
X30856Y129142D01*
X30861Y129161D01*
X30853Y129264D01*
X30850Y129367D01*
X30843Y129386D01*
X30842Y129406D01*
X30801Y129501D01*
X30795Y129517D01*
X30795Y133916D01*
X30800Y133924D01*
X30826Y134024D01*
X30856Y134123D01*
X30855Y134143D01*
X30860Y134162D01*
X30852Y134266D01*
X30850Y134369D01*
X30843Y134388D01*
X30841Y134408D01*
X30801Y134502D01*
X30795Y134517D01*
X30795Y137984D01*
X30792Y138004D01*
X30794Y138023D01*
X30772Y138125D01*
X30756Y138227D01*
X30746Y138244D01*
X30742Y138264D01*
X30689Y138353D01*
X30640Y138444D01*
X30626Y138458D01*
X30616Y138475D01*
X30537Y138542D01*
X30462Y138614D01*
X30444Y138622D01*
X30429Y138635D01*
X30333Y138674D01*
X30239Y138717D01*
X30219Y138719D01*
X30201Y138727D01*
X30034Y138745D01*
X26587Y138745D01*
X26579Y138750D01*
X26479Y138776D01*
X26380Y138806D01*
X26360Y138805D01*
X26341Y138810D01*
X26237Y138802D01*
X26134Y138800D01*
X26115Y138793D01*
X26095Y138791D01*
X26001Y138751D01*
X25986Y138745D01*
X21586Y138745D01*
X21578Y138751D01*
X21477Y138776D01*
X21378Y138806D01*
X21358Y138806D01*
X21339Y138811D01*
X21236Y138803D01*
X21133Y138800D01*
X21114Y138793D01*
X21094Y138792D01*
X20999Y138751D01*
X20983Y138745D01*
X16584Y138745D01*
X16576Y138750D01*
X16476Y138776D01*
X16377Y138806D01*
X16357Y138805D01*
X16338Y138810D01*
X16234Y138802D01*
X16131Y138800D01*
X16112Y138793D01*
X16092Y138791D01*
X15998Y138751D01*
X15983Y138745D01*
X11583Y138745D01*
X11575Y138750D01*
X11475Y138776D01*
X11376Y138806D01*
X11356Y138805D01*
X11337Y138810D01*
X11233Y138802D01*
X11130Y138800D01*
X11111Y138793D01*
X11091Y138791D01*
X10997Y138751D01*
X10982Y138745D01*
X6582Y138745D01*
X6574Y138750D01*
X6474Y138776D01*
X6375Y138806D01*
X6355Y138805D01*
X6336Y138810D01*
X6232Y138802D01*
X6129Y138800D01*
X6110Y138793D01*
X6090Y138791D01*
X5996Y138751D01*
X5981Y138745D01*
X1581Y138745D01*
X1573Y138751D01*
X1472Y138776D01*
X1373Y138806D01*
X1353Y138806D01*
X1334Y138811D01*
X1231Y138803D01*
X1128Y138800D01*
X1109Y138793D01*
X1089Y138792D01*
X994Y138751D01*
X978Y138745D01*
X-3421Y138745D01*
X-3429Y138750D01*
X-3529Y138776D01*
X-3628Y138806D01*
X-3648Y138805D01*
X-3667Y138810D01*
X-3771Y138802D01*
X-3874Y138800D01*
X-3893Y138793D01*
X-3913Y138791D01*
X-4007Y138751D01*
X-4022Y138745D01*
X-8422Y138745D01*
X-8430Y138750D01*
X-8530Y138776D01*
X-8629Y138806D01*
X-8649Y138805D01*
X-8668Y138810D01*
X-8772Y138802D01*
X-8875Y138800D01*
X-8894Y138793D01*
X-8914Y138791D01*
X-9008Y138751D01*
X-9023Y138745D01*
X-13423Y138745D01*
X-13431Y138750D01*
X-13531Y138776D01*
X-13630Y138806D01*
X-13650Y138805D01*
X-13669Y138810D01*
X-13773Y138802D01*
X-13876Y138800D01*
X-13895Y138793D01*
X-13915Y138791D01*
X-14009Y138751D01*
X-14024Y138745D01*
X-18424Y138745D01*
X-18432Y138751D01*
X-18533Y138776D01*
X-18632Y138806D01*
X-18652Y138806D01*
X-18671Y138811D01*
X-18774Y138803D01*
X-18877Y138800D01*
X-18896Y138793D01*
X-18916Y138792D01*
X-19011Y138751D01*
X-19027Y138745D01*
X-23426Y138745D01*
X-23434Y138750D01*
X-23534Y138776D01*
X-23633Y138806D01*
X-23653Y138805D01*
X-23672Y138810D01*
X-23776Y138802D01*
X-23879Y138800D01*
X-23898Y138793D01*
X-23918Y138791D01*
X-24012Y138751D01*
X-24027Y138745D01*
X-27494Y138745D01*
X-27514Y138742D01*
X-27533Y138744D01*
X-27635Y138722D01*
X-27737Y138706D01*
X-27754Y138696D01*
X-27774Y138692D01*
X-27863Y138639D01*
X-27954Y138590D01*
X-27968Y138576D01*
X-27985Y138566D01*
X-28052Y138487D01*
X-28124Y138412D01*
X-28132Y138394D01*
X-28145Y138379D01*
X-28184Y138283D01*
X-28227Y138189D01*
X-28229Y138169D01*
X-28237Y138151D01*
X-28255Y137984D01*
X-28255Y134537D01*
X-28260Y134529D01*
X-28286Y134429D01*
X-28316Y134330D01*
X-28315Y134310D01*
X-28320Y134291D01*
X-28312Y134187D01*
X-28310Y134084D01*
X-28303Y134065D01*
X-28301Y134045D01*
X-28261Y133951D01*
X-28255Y133936D01*
X-28255Y129536D01*
X-28261Y129528D01*
X-28286Y129427D01*
X-28316Y129329D01*
X-28316Y129309D01*
X-28321Y129289D01*
X-28313Y129186D01*
X-28310Y129083D01*
X-28303Y129064D01*
X-28302Y129044D01*
X-28261Y128949D01*
X-28255Y128933D01*
X-28255Y124534D01*
X-28260Y124526D01*
X-28286Y124426D01*
X-28316Y124327D01*
X-28315Y124307D01*
X-28320Y124288D01*
X-28312Y124184D01*
X-28310Y124081D01*
X-28303Y124062D01*
X-28301Y124042D01*
X-28261Y123948D01*
X-28255Y123933D01*
X-28255Y119533D01*
X-28260Y119525D01*
X-28286Y119425D01*
X-28316Y119326D01*
X-28315Y119306D01*
X-28320Y119287D01*
X-28312Y119183D01*
X-28310Y119080D01*
X-28303Y119061D01*
X-28301Y119041D01*
X-28261Y118947D01*
X-28255Y118932D01*
X-28255Y114532D01*
X-28260Y114524D01*
X-28286Y114424D01*
X-28316Y114325D01*
X-28315Y114305D01*
X-28320Y114286D01*
X-28312Y114182D01*
X-28310Y114079D01*
X-28303Y114060D01*
X-28301Y114040D01*
X-28261Y113946D01*
X-28255Y113931D01*
X-28255Y109604D01*
X-29148Y108710D01*
X-30914Y108710D01*
X-31004Y108696D01*
X-31095Y108688D01*
X-31125Y108676D01*
X-31146Y108672D01*
X-44794Y108672D01*
X-46594Y110472D01*
X-46668Y110525D01*
X-46737Y110585D01*
X-46767Y110597D01*
X-46794Y110616D01*
X-46881Y110643D01*
X-46965Y110677D01*
X-47006Y110681D01*
X-47029Y110688D01*
X-47061Y110687D01*
X-47132Y110695D01*
X-69092Y110695D01*
X-69985Y111588D01*
X-69985Y124460D01*
X-69988Y124480D01*
X-69986Y124499D01*
X-70008Y124601D01*
X-70024Y124703D01*
X-70034Y124720D01*
X-70038Y124740D01*
X-70091Y124829D01*
X-70140Y124920D01*
X-70154Y124934D01*
X-70164Y124951D01*
X-70243Y125018D01*
X-70318Y125090D01*
X-70336Y125098D01*
X-70351Y125111D01*
X-70447Y125150D01*
X-70541Y125193D01*
X-70561Y125195D01*
X-70579Y125203D01*
X-70746Y125221D01*
X-72922Y125221D01*
X-73012Y125207D01*
X-73103Y125199D01*
X-73133Y125187D01*
X-73165Y125182D01*
X-73245Y125139D01*
X-73329Y125103D01*
X-73361Y125077D01*
X-73382Y125066D01*
X-73404Y125043D01*
X-73460Y124998D01*
X-92510Y105948D01*
X-92552Y105890D01*
X-92601Y105838D01*
X-92623Y105791D01*
X-92654Y105749D01*
X-92675Y105680D01*
X-92705Y105615D01*
X-92711Y105563D01*
X-92726Y105513D01*
X-92724Y105442D01*
X-92732Y105371D01*
X-92721Y105320D01*
X-92720Y105268D01*
X-92695Y105200D01*
X-92680Y105130D01*
X-92653Y105085D01*
X-92635Y105037D01*
X-92590Y104981D01*
X-92554Y104919D01*
X-92514Y104885D01*
X-92482Y104845D01*
X-92421Y104806D01*
X-92367Y104759D01*
X-92318Y104740D01*
X-92275Y104712D01*
X-92205Y104694D01*
X-92139Y104667D01*
X-92067Y104659D01*
X-92036Y104651D01*
X-92013Y104653D01*
X-91972Y104649D01*
X-79888Y104649D01*
X-68683Y93444D01*
X-68609Y93391D01*
X-68539Y93331D01*
X-68509Y93319D01*
X-68483Y93300D01*
X-68396Y93273D01*
X-68311Y93239D01*
X-68270Y93235D01*
X-68248Y93228D01*
X-68216Y93229D01*
X-68144Y93221D01*
X-45576Y93221D01*
X-45486Y93235D01*
X-45395Y93243D01*
X-45365Y93255D01*
X-45333Y93260D01*
X-45252Y93303D01*
X-45168Y93339D01*
X-45136Y93365D01*
X-45116Y93376D01*
X-45093Y93399D01*
X-45037Y93444D01*
X-43484Y94997D01*
X-43431Y95071D01*
X-43371Y95141D01*
X-43359Y95171D01*
X-43340Y95197D01*
X-43313Y95284D01*
X-43279Y95369D01*
X-43275Y95410D01*
X-43268Y95432D01*
X-43269Y95464D01*
X-43261Y95536D01*
X-43261Y99481D01*
X-37975Y104767D01*
X-31129Y104767D01*
X-31080Y104747D01*
X-31040Y104743D01*
X-31018Y104736D01*
X-30985Y104737D01*
X-30914Y104729D01*
X-29148Y104729D01*
X-28255Y103835D01*
X-28255Y99528D01*
X-28260Y99520D01*
X-28286Y99420D01*
X-28316Y99321D01*
X-28315Y99301D01*
X-28320Y99282D01*
X-28312Y99178D01*
X-28310Y99075D01*
X-28303Y99056D01*
X-28301Y99036D01*
X-28261Y98942D01*
X-28255Y98927D01*
X-28255Y94527D01*
X-28260Y94519D01*
X-28286Y94419D01*
X-28316Y94320D01*
X-28315Y94300D01*
X-28320Y94281D01*
X-28312Y94177D01*
X-28310Y94074D01*
X-28303Y94055D01*
X-28301Y94035D01*
X-28261Y93941D01*
X-28255Y93926D01*
X-28255Y89526D01*
X-28261Y89518D01*
X-28286Y89417D01*
X-28316Y89318D01*
X-28316Y89298D01*
X-28321Y89279D01*
X-28313Y89176D01*
X-28310Y89073D01*
X-28303Y89054D01*
X-28302Y89034D01*
X-28261Y88939D01*
X-28255Y88923D01*
X-28255Y84524D01*
X-28260Y84516D01*
X-28286Y84416D01*
X-28316Y84317D01*
X-28315Y84297D01*
X-28320Y84278D01*
X-28312Y84174D01*
X-28310Y84071D01*
X-28303Y84052D01*
X-28301Y84032D01*
X-28261Y83938D01*
X-28255Y83923D01*
X-28255Y80456D01*
X-28252Y80436D01*
X-28254Y80417D01*
X-28232Y80315D01*
X-28216Y80213D01*
X-28206Y80196D01*
X-28202Y80176D01*
X-28149Y80087D01*
X-28100Y79996D01*
X-28086Y79982D01*
X-28076Y79965D01*
X-27997Y79898D01*
X-27922Y79826D01*
X-27904Y79818D01*
X-27889Y79805D01*
X-27793Y79766D01*
X-27699Y79723D01*
X-27679Y79721D01*
X-27661Y79713D01*
X-27494Y79695D01*
X-24047Y79695D01*
X-24039Y79690D01*
X-23939Y79664D01*
X-23840Y79634D01*
X-23820Y79635D01*
X-23801Y79630D01*
X-23697Y79638D01*
X-23594Y79640D01*
X-23575Y79647D01*
X-23555Y79649D01*
X-23461Y79689D01*
X-23446Y79695D01*
X-19046Y79695D01*
X-19038Y79689D01*
X-18937Y79664D01*
X-18838Y79634D01*
X-18818Y79634D01*
X-18799Y79629D01*
X-18696Y79637D01*
X-18593Y79640D01*
X-18574Y79647D01*
X-18554Y79648D01*
X-18459Y79689D01*
X-18443Y79695D01*
X-14044Y79695D01*
X-14036Y79690D01*
X-13936Y79664D01*
X-13837Y79634D01*
X-13817Y79635D01*
X-13798Y79630D01*
X-13694Y79638D01*
X-13591Y79640D01*
X-13572Y79647D01*
X-13552Y79649D01*
X-13458Y79689D01*
X-13443Y79695D01*
X-9043Y79695D01*
X-9035Y79690D01*
X-8935Y79664D01*
X-8836Y79634D01*
X-8816Y79635D01*
X-8797Y79630D01*
X-8693Y79638D01*
X-8590Y79640D01*
X-8571Y79647D01*
X-8551Y79649D01*
X-8457Y79689D01*
X-8442Y79695D01*
X-4042Y79695D01*
X-4034Y79690D01*
X-3934Y79664D01*
X-3835Y79634D01*
X-3815Y79635D01*
X-3796Y79630D01*
X-3692Y79638D01*
X-3589Y79640D01*
X-3570Y79647D01*
X-3550Y79649D01*
X-3456Y79689D01*
X-3441Y79695D01*
X959Y79695D01*
X967Y79689D01*
X1068Y79664D01*
X1167Y79634D01*
X1187Y79634D01*
X1206Y79629D01*
X1309Y79637D01*
X1412Y79640D01*
X1431Y79647D01*
X1451Y79648D01*
X1546Y79689D01*
X1562Y79695D01*
X5961Y79695D01*
X5969Y79690D01*
X6069Y79664D01*
X6168Y79634D01*
X6188Y79635D01*
X6207Y79630D01*
X6311Y79638D01*
X6414Y79640D01*
X6433Y79647D01*
X6453Y79649D01*
X6547Y79689D01*
X6562Y79695D01*
X10962Y79695D01*
X10970Y79690D01*
X11070Y79664D01*
X11169Y79634D01*
X11189Y79635D01*
X11208Y79630D01*
X11312Y79638D01*
X11415Y79640D01*
X11434Y79647D01*
X11454Y79649D01*
X11548Y79689D01*
X11563Y79695D01*
X15963Y79695D01*
X15971Y79690D01*
X16071Y79664D01*
X16170Y79634D01*
X16190Y79635D01*
X16209Y79630D01*
X16313Y79638D01*
X16416Y79640D01*
X16435Y79647D01*
X16455Y79649D01*
X16549Y79689D01*
X16564Y79695D01*
X20964Y79695D01*
X20972Y79689D01*
X21073Y79664D01*
X21172Y79634D01*
X21192Y79634D01*
X21211Y79629D01*
X21314Y79637D01*
G37*
G36*
X131841Y197837D02*
X131841Y197837D01*
X131884Y197836D01*
X135877Y198437D01*
X135907Y198448D01*
X135950Y198453D01*
X139809Y199642D01*
X139837Y199657D01*
X139878Y199669D01*
X143516Y201420D01*
X143538Y201437D01*
X143564Y201446D01*
X143617Y201496D01*
X143675Y201540D01*
X143688Y201564D01*
X143708Y201583D01*
X143738Y201649D01*
X143774Y201713D01*
X143777Y201740D01*
X143788Y201765D01*
X143789Y201838D01*
X143798Y201910D01*
X143790Y201936D01*
X143790Y201964D01*
X143754Y202062D01*
X143742Y202101D01*
X143736Y202109D01*
X143732Y202120D01*
X116732Y248920D01*
X116714Y248940D01*
X116703Y248965D01*
X116649Y249014D01*
X116601Y249069D01*
X116576Y249080D01*
X116556Y249099D01*
X116487Y249123D01*
X116421Y249154D01*
X116394Y249156D01*
X116369Y249165D01*
X116296Y249160D01*
X116223Y249163D01*
X116197Y249154D01*
X116170Y249152D01*
X116074Y249108D01*
X116036Y249094D01*
X116029Y249087D01*
X116019Y249083D01*
X112682Y246809D01*
X112660Y246786D01*
X112624Y246763D01*
X109663Y244017D01*
X109644Y243991D01*
X109612Y243963D01*
X107094Y240807D01*
X107079Y240778D01*
X107052Y240745D01*
X105032Y237249D01*
X105022Y237219D01*
X104999Y237182D01*
X103523Y233424D01*
X103518Y233392D01*
X103501Y233352D01*
X102601Y229416D01*
X102601Y229384D01*
X102590Y229342D01*
X102287Y225316D01*
X102290Y225293D01*
X102287Y225273D01*
X102289Y225263D01*
X102287Y225242D01*
X102588Y221215D01*
X102596Y221184D01*
X102599Y221141D01*
X103496Y217205D01*
X103509Y217176D01*
X103518Y217133D01*
X104992Y213374D01*
X105009Y213347D01*
X105024Y213307D01*
X107042Y209810D01*
X107063Y209786D01*
X107084Y209748D01*
X109600Y206590D01*
X109625Y206570D01*
X109651Y206536D01*
X112610Y203788D01*
X112637Y203772D01*
X112668Y203742D01*
X116004Y201466D01*
X116033Y201454D01*
X116068Y201429D01*
X119706Y199676D01*
X119736Y199668D01*
X119775Y199649D01*
X123633Y198457D01*
X123665Y198454D01*
X123706Y198441D01*
X127698Y197838D01*
X127730Y197839D01*
X127772Y197832D01*
X131810Y197831D01*
X131841Y197837D01*
G37*
G36*
X-127972Y197832D02*
X-127972Y197832D01*
X-127941Y197838D01*
X-127898Y197838D01*
X-123906Y198441D01*
X-123876Y198452D01*
X-123833Y198457D01*
X-119975Y199649D01*
X-119947Y199664D01*
X-119906Y199676D01*
X-116268Y201429D01*
X-116243Y201448D01*
X-116204Y201466D01*
X-112868Y203742D01*
X-112846Y203765D01*
X-112810Y203788D01*
X-109851Y206536D01*
X-109832Y206561D01*
X-109800Y206590D01*
X-107284Y209748D01*
X-107269Y209776D01*
X-107242Y209810D01*
X-105224Y213307D01*
X-105214Y213337D01*
X-105192Y213374D01*
X-103718Y217133D01*
X-103712Y217165D01*
X-103696Y217205D01*
X-102799Y221141D01*
X-102798Y221173D01*
X-102788Y221215D01*
X-102487Y225242D01*
X-102491Y225273D01*
X-102490Y225289D01*
X-102487Y225306D01*
X-102488Y225310D01*
X-102487Y225316D01*
X-102790Y229342D01*
X-102799Y229373D01*
X-102801Y229416D01*
X-103701Y233352D01*
X-103714Y233381D01*
X-103723Y233424D01*
X-105199Y237182D01*
X-105217Y237209D01*
X-105232Y237249D01*
X-107252Y240745D01*
X-107273Y240769D01*
X-107294Y240807D01*
X-109812Y243963D01*
X-109837Y243983D01*
X-109863Y244017D01*
X-112824Y246763D01*
X-112851Y246779D01*
X-112882Y246809D01*
X-116219Y249083D01*
X-116244Y249093D01*
X-116265Y249110D01*
X-116335Y249131D01*
X-116402Y249160D01*
X-116430Y249160D01*
X-116456Y249167D01*
X-116528Y249159D01*
X-116601Y249159D01*
X-116626Y249148D01*
X-116653Y249145D01*
X-116717Y249109D01*
X-116784Y249081D01*
X-116803Y249061D01*
X-116826Y249048D01*
X-116894Y248967D01*
X-116922Y248937D01*
X-116925Y248928D01*
X-116932Y248920D01*
X-143932Y202120D01*
X-143941Y202094D01*
X-143957Y202071D01*
X-143972Y202000D01*
X-143996Y201931D01*
X-143993Y201904D01*
X-143999Y201877D01*
X-143986Y201806D01*
X-143980Y201733D01*
X-143967Y201708D01*
X-143962Y201682D01*
X-143922Y201621D01*
X-143888Y201556D01*
X-143867Y201539D01*
X-143852Y201516D01*
X-143766Y201455D01*
X-143735Y201430D01*
X-143726Y201427D01*
X-143716Y201420D01*
X-140078Y199669D01*
X-140047Y199662D01*
X-140009Y199642D01*
X-136150Y198453D01*
X-136118Y198450D01*
X-136077Y198437D01*
X-132084Y197836D01*
X-132053Y197838D01*
X-132010Y197831D01*
X-127972Y197832D01*
G37*
G36*
X116328Y51381D02*
X116328Y51381D01*
X116401Y51381D01*
X116426Y51392D01*
X116453Y51395D01*
X116517Y51431D01*
X116584Y51459D01*
X116603Y51479D01*
X116626Y51492D01*
X116694Y51573D01*
X116722Y51603D01*
X116725Y51612D01*
X116732Y51621D01*
X143732Y98421D01*
X143741Y98446D01*
X143757Y98469D01*
X143772Y98540D01*
X143796Y98609D01*
X143793Y98636D01*
X143799Y98663D01*
X143786Y98734D01*
X143780Y98807D01*
X143767Y98832D01*
X143762Y98858D01*
X143722Y98919D01*
X143688Y98984D01*
X143667Y99001D01*
X143652Y99024D01*
X143566Y99085D01*
X143535Y99110D01*
X143526Y99113D01*
X143516Y99120D01*
X139878Y100871D01*
X139847Y100878D01*
X139809Y100898D01*
X135950Y102087D01*
X135918Y102090D01*
X135877Y102103D01*
X131884Y102704D01*
X131853Y102702D01*
X131810Y102709D01*
X127772Y102708D01*
X127741Y102702D01*
X127698Y102702D01*
X123706Y102099D01*
X123676Y102088D01*
X123633Y102083D01*
X119775Y100891D01*
X119747Y100876D01*
X119706Y100864D01*
X116068Y99111D01*
X116043Y99092D01*
X116004Y99074D01*
X112668Y96798D01*
X112646Y96775D01*
X112610Y96752D01*
X109651Y94004D01*
X109632Y93979D01*
X109600Y93950D01*
X107084Y90792D01*
X107069Y90764D01*
X107042Y90730D01*
X105024Y87233D01*
X105014Y87203D01*
X104992Y87166D01*
X103518Y83407D01*
X103512Y83375D01*
X103496Y83335D01*
X102599Y79399D01*
X102598Y79367D01*
X102588Y79325D01*
X102287Y75299D01*
X102291Y75267D01*
X102287Y75224D01*
X102590Y71198D01*
X102599Y71167D01*
X102601Y71124D01*
X103501Y67188D01*
X103514Y67159D01*
X103523Y67116D01*
X104999Y63358D01*
X105017Y63331D01*
X105032Y63291D01*
X107052Y59795D01*
X107073Y59771D01*
X107094Y59733D01*
X109612Y56577D01*
X109637Y56557D01*
X109663Y56523D01*
X112624Y53777D01*
X112651Y53761D01*
X112682Y53731D01*
X116019Y51457D01*
X116044Y51447D01*
X116065Y51430D01*
X116135Y51409D01*
X116202Y51380D01*
X116230Y51381D01*
X116256Y51373D01*
X116328Y51381D01*
G37*
G36*
X-116496Y51380D02*
X-116496Y51380D01*
X-116423Y51377D01*
X-116397Y51386D01*
X-116370Y51388D01*
X-116274Y51432D01*
X-116236Y51446D01*
X-116229Y51453D01*
X-116219Y51457D01*
X-112882Y53731D01*
X-112860Y53754D01*
X-112824Y53777D01*
X-109863Y56523D01*
X-109844Y56549D01*
X-109812Y56577D01*
X-107294Y59733D01*
X-107279Y59762D01*
X-107252Y59795D01*
X-105232Y63291D01*
X-105222Y63321D01*
X-105199Y63358D01*
X-103723Y67116D01*
X-103718Y67148D01*
X-103701Y67188D01*
X-102801Y71124D01*
X-102801Y71156D01*
X-102790Y71198D01*
X-102487Y75224D01*
X-102491Y75255D01*
X-102487Y75299D01*
X-102788Y79325D01*
X-102796Y79356D01*
X-102799Y79399D01*
X-103696Y83335D01*
X-103709Y83364D01*
X-103718Y83407D01*
X-105192Y87166D01*
X-105209Y87193D01*
X-105224Y87233D01*
X-107242Y90730D01*
X-107263Y90754D01*
X-107284Y90792D01*
X-109800Y93950D01*
X-109825Y93970D01*
X-109851Y94004D01*
X-112810Y96752D01*
X-112837Y96768D01*
X-112868Y96798D01*
X-116204Y99074D01*
X-116233Y99086D01*
X-116268Y99111D01*
X-119906Y100864D01*
X-119936Y100872D01*
X-119975Y100891D01*
X-123833Y102083D01*
X-123865Y102086D01*
X-123906Y102099D01*
X-127898Y102702D01*
X-127930Y102701D01*
X-127972Y102708D01*
X-132010Y102709D01*
X-132041Y102703D01*
X-132084Y102704D01*
X-136077Y102103D01*
X-136107Y102092D01*
X-136150Y102087D01*
X-140009Y100898D01*
X-140037Y100883D01*
X-140078Y100871D01*
X-143716Y99120D01*
X-143738Y99103D01*
X-143764Y99094D01*
X-143817Y99044D01*
X-143875Y99000D01*
X-143888Y98976D01*
X-143908Y98957D01*
X-143938Y98891D01*
X-143974Y98827D01*
X-143977Y98800D01*
X-143988Y98775D01*
X-143989Y98702D01*
X-143998Y98630D01*
X-143990Y98604D01*
X-143990Y98576D01*
X-143954Y98478D01*
X-143942Y98439D01*
X-143936Y98431D01*
X-143932Y98421D01*
X-116932Y51621D01*
X-116914Y51600D01*
X-116903Y51575D01*
X-116849Y51526D01*
X-116801Y51472D01*
X-116776Y51460D01*
X-116756Y51441D01*
X-116687Y51417D01*
X-116621Y51386D01*
X-116594Y51385D01*
X-116569Y51375D01*
X-116496Y51380D01*
G37*
G36*
X1949Y272853D02*
X1949Y272853D01*
X1992Y272852D01*
X5982Y273453D01*
X6012Y273464D01*
X6055Y273470D01*
X9911Y274659D01*
X9939Y274675D01*
X9981Y274687D01*
X13617Y276438D01*
X13642Y276457D01*
X13681Y276475D01*
X17015Y278748D01*
X17038Y278771D01*
X17074Y278795D01*
X20032Y281539D01*
X20051Y281565D01*
X20083Y281594D01*
X22599Y284749D01*
X22613Y284777D01*
X22641Y284811D01*
X24659Y288306D01*
X24669Y288336D01*
X24691Y288373D01*
X26165Y292129D01*
X26166Y292136D01*
X26168Y292137D01*
X26172Y292164D01*
X26187Y292201D01*
X27085Y296135D01*
X27086Y296167D01*
X27096Y296209D01*
X27398Y300233D01*
X27394Y300260D01*
X27399Y300287D01*
X27382Y300357D01*
X27373Y300430D01*
X27359Y300454D01*
X27353Y300480D01*
X27310Y300539D01*
X27273Y300602D01*
X27251Y300618D01*
X27235Y300640D01*
X27172Y300677D01*
X27114Y300721D01*
X27087Y300728D01*
X27064Y300742D01*
X26960Y300759D01*
X26921Y300769D01*
X26911Y300767D01*
X26900Y300769D01*
X-27100Y300769D01*
X-27127Y300764D01*
X-27154Y300766D01*
X-27223Y300744D01*
X-27295Y300730D01*
X-27317Y300714D01*
X-27343Y300706D01*
X-27399Y300658D01*
X-27459Y300617D01*
X-27473Y300594D01*
X-27494Y300576D01*
X-27527Y300511D01*
X-27566Y300450D01*
X-27570Y300423D01*
X-27582Y300398D01*
X-27592Y300294D01*
X-27599Y300253D01*
X-27597Y300244D01*
X-27598Y300233D01*
X-27296Y296209D01*
X-27288Y296178D01*
X-27285Y296135D01*
X-26387Y292201D01*
X-26374Y292172D01*
X-26365Y292129D01*
X-24891Y288373D01*
X-24874Y288346D01*
X-24859Y288306D01*
X-22841Y284811D01*
X-22820Y284787D01*
X-22799Y284749D01*
X-20283Y281594D01*
X-20258Y281574D01*
X-20232Y281539D01*
X-17274Y278795D01*
X-17247Y278778D01*
X-17215Y278748D01*
X-13881Y276475D01*
X-13852Y276462D01*
X-13817Y276438D01*
X-10181Y274687D01*
X-10150Y274679D01*
X-10111Y274659D01*
X-6255Y273470D01*
X-6224Y273467D01*
X-6182Y273453D01*
X-2192Y272852D01*
X-2160Y272853D01*
X-2118Y272846D01*
X1918Y272846D01*
X1949Y272853D01*
G37*
G36*
X26927Y-224D02*
X26927Y-224D01*
X26954Y-226D01*
X27023Y-204D01*
X27095Y-190D01*
X27117Y-174D01*
X27143Y-166D01*
X27199Y-118D01*
X27259Y-77D01*
X27273Y-54D01*
X27294Y-36D01*
X27327Y29D01*
X27366Y90D01*
X27370Y117D01*
X27382Y142D01*
X27392Y246D01*
X27399Y287D01*
X27397Y296D01*
X27398Y307D01*
X27096Y4331D01*
X27088Y4362D01*
X27085Y4405D01*
X26187Y8339D01*
X26174Y8368D01*
X26165Y8411D01*
X24691Y12167D01*
X24674Y12194D01*
X24659Y12235D01*
X22641Y15729D01*
X22620Y15753D01*
X22599Y15791D01*
X20083Y18946D01*
X20058Y18966D01*
X20032Y19001D01*
X17074Y21745D01*
X17047Y21762D01*
X17015Y21792D01*
X13681Y24065D01*
X13652Y24078D01*
X13617Y24103D01*
X9981Y25853D01*
X9950Y25861D01*
X9911Y25881D01*
X6055Y27070D01*
X6024Y27073D01*
X5982Y27087D01*
X1992Y27688D01*
X1960Y27687D01*
X1918Y27694D01*
X-2118Y27694D01*
X-2149Y27687D01*
X-2192Y27688D01*
X-6182Y27087D01*
X-6212Y27076D01*
X-6255Y27070D01*
X-10111Y25881D01*
X-10139Y25865D01*
X-10181Y25853D01*
X-13817Y24103D01*
X-13842Y24083D01*
X-13881Y24065D01*
X-17215Y21792D01*
X-17238Y21769D01*
X-17274Y21745D01*
X-20232Y19001D01*
X-20251Y18975D01*
X-20283Y18946D01*
X-22799Y15791D01*
X-22813Y15763D01*
X-22841Y15729D01*
X-24859Y12235D01*
X-24869Y12204D01*
X-24891Y12167D01*
X-26365Y8411D01*
X-26371Y8379D01*
X-26387Y8339D01*
X-27285Y4405D01*
X-27286Y4373D01*
X-27296Y4331D01*
X-27598Y307D01*
X-27594Y280D01*
X-27599Y253D01*
X-27582Y183D01*
X-27573Y110D01*
X-27559Y86D01*
X-27553Y60D01*
X-27510Y1D01*
X-27473Y-62D01*
X-27451Y-78D01*
X-27435Y-100D01*
X-27372Y-137D01*
X-27314Y-181D01*
X-27287Y-188D01*
X-27264Y-202D01*
X-27160Y-219D01*
X-27121Y-229D01*
X-27111Y-227D01*
X-27100Y-229D01*
X26900Y-229D01*
X26927Y-224D01*
G37*
%LPC*%
G36*
X22071Y183514D02*
X22071Y183514D01*
X15874Y189711D01*
X15874Y216689D01*
X16991Y217806D01*
X42699Y217806D01*
X43816Y216689D01*
X43816Y199517D01*
X43819Y199497D01*
X43817Y199478D01*
X43839Y199376D01*
X43855Y199274D01*
X43865Y199257D01*
X43869Y199237D01*
X43922Y199148D01*
X43971Y199057D01*
X43985Y199043D01*
X43995Y199026D01*
X44074Y198959D01*
X44149Y198887D01*
X44167Y198879D01*
X44182Y198866D01*
X44278Y198827D01*
X44372Y198784D01*
X44392Y198782D01*
X44410Y198774D01*
X44577Y198756D01*
X56669Y198756D01*
X57786Y197639D01*
X57786Y184631D01*
X56669Y183514D01*
X22071Y183514D01*
G37*
%LPD*%
G36*
X38517Y110127D02*
X38517Y110127D01*
X38591Y110140D01*
X38602Y110147D01*
X38611Y110149D01*
X38640Y110173D01*
X38712Y110221D01*
X50187Y121697D01*
X57150Y121697D01*
X57200Y121708D01*
X57251Y121710D01*
X57283Y121728D01*
X57319Y121736D01*
X57358Y121769D01*
X57403Y121793D01*
X57424Y121823D01*
X57452Y121846D01*
X57473Y121893D01*
X57503Y121935D01*
X57511Y121977D01*
X57523Y122004D01*
X57522Y122035D01*
X57530Y122077D01*
X57530Y175260D01*
X57513Y175334D01*
X57500Y175409D01*
X57493Y175419D01*
X57491Y175429D01*
X57467Y175458D01*
X57419Y175529D01*
X53609Y179339D01*
X53544Y179379D01*
X53482Y179423D01*
X53470Y179425D01*
X53462Y179430D01*
X53425Y179434D01*
X53340Y179450D01*
X44450Y179450D01*
X44400Y179439D01*
X44349Y179437D01*
X44317Y179419D01*
X44281Y179411D01*
X44242Y179378D01*
X44197Y179354D01*
X44176Y179324D01*
X44148Y179301D01*
X44127Y179254D01*
X44097Y179212D01*
X44089Y179170D01*
X44077Y179142D01*
X44078Y179112D01*
X44070Y179070D01*
X44070Y132238D01*
X39456Y127624D01*
X39416Y127559D01*
X39372Y127497D01*
X39370Y127485D01*
X39365Y127477D01*
X39361Y127440D01*
X39345Y127355D01*
X39345Y124607D01*
X38452Y123713D01*
X33020Y123713D01*
X32970Y123702D01*
X32919Y123700D01*
X32887Y123682D01*
X32851Y123674D01*
X32812Y123641D01*
X32767Y123617D01*
X32746Y123587D01*
X32718Y123564D01*
X32697Y123517D01*
X32667Y123475D01*
X32659Y123434D01*
X32647Y123406D01*
X32648Y123375D01*
X32640Y123333D01*
X32640Y110490D01*
X32651Y110440D01*
X32653Y110389D01*
X32671Y110357D01*
X32679Y110321D01*
X32712Y110282D01*
X32736Y110237D01*
X32766Y110216D01*
X32789Y110188D01*
X32836Y110167D01*
X32878Y110137D01*
X32920Y110129D01*
X32948Y110117D01*
X32978Y110118D01*
X33020Y110110D01*
X38443Y110110D01*
X38517Y110127D01*
G37*
G36*
X55930Y185051D02*
X55930Y185051D01*
X55981Y185053D01*
X56013Y185071D01*
X56049Y185079D01*
X56088Y185112D01*
X56133Y185136D01*
X56154Y185166D01*
X56182Y185189D01*
X56203Y185236D01*
X56233Y185278D01*
X56241Y185320D01*
X56253Y185348D01*
X56252Y185378D01*
X56260Y185420D01*
X56260Y196850D01*
X56249Y196900D01*
X56247Y196951D01*
X56229Y196983D01*
X56221Y197019D01*
X56188Y197058D01*
X56164Y197103D01*
X56134Y197124D01*
X56111Y197152D01*
X56064Y197173D01*
X56022Y197203D01*
X55980Y197211D01*
X55952Y197223D01*
X55922Y197222D01*
X55880Y197230D01*
X42290Y197230D01*
X42290Y215900D01*
X42279Y215950D01*
X42277Y216001D01*
X42259Y216033D01*
X42251Y216069D01*
X42218Y216108D01*
X42194Y216153D01*
X42164Y216174D01*
X42141Y216202D01*
X42094Y216223D01*
X42052Y216253D01*
X42010Y216261D01*
X41982Y216273D01*
X41952Y216272D01*
X41910Y216280D01*
X17780Y216280D01*
X17730Y216269D01*
X17679Y216267D01*
X17647Y216249D01*
X17611Y216241D01*
X17572Y216208D01*
X17527Y216184D01*
X17506Y216154D01*
X17478Y216131D01*
X17457Y216084D01*
X17427Y216042D01*
X17419Y216000D01*
X17407Y215972D01*
X17408Y215942D01*
X17400Y215900D01*
X17400Y190500D01*
X17417Y190426D01*
X17430Y190351D01*
X17437Y190341D01*
X17439Y190331D01*
X17463Y190302D01*
X17511Y190231D01*
X22591Y185151D01*
X22656Y185111D01*
X22718Y185067D01*
X22730Y185065D01*
X22738Y185060D01*
X22775Y185056D01*
X22860Y185040D01*
X55880Y185040D01*
X55930Y185051D01*
G37*
G36*
X66546Y86319D02*
X66546Y86319D01*
X66617Y86325D01*
X66665Y86345D01*
X66716Y86356D01*
X66777Y86393D01*
X66843Y86421D01*
X66899Y86466D01*
X66927Y86482D01*
X66942Y86500D01*
X66974Y86526D01*
X85574Y105126D01*
X85616Y105184D01*
X85665Y105236D01*
X85687Y105283D01*
X85718Y105325D01*
X85739Y105394D01*
X85769Y105459D01*
X85775Y105511D01*
X85790Y105561D01*
X85788Y105632D01*
X85796Y105703D01*
X85785Y105754D01*
X85784Y105806D01*
X85759Y105874D01*
X85744Y105944D01*
X85717Y105988D01*
X85699Y106037D01*
X85654Y106093D01*
X85618Y106155D01*
X85578Y106189D01*
X85546Y106229D01*
X85485Y106268D01*
X85431Y106315D01*
X85382Y106334D01*
X85339Y106362D01*
X85269Y106380D01*
X85203Y106407D01*
X85131Y106415D01*
X85100Y106423D01*
X85077Y106421D01*
X85036Y106425D01*
X77492Y106425D01*
X72135Y111782D01*
X72135Y119358D01*
X72762Y119985D01*
X72804Y120043D01*
X72853Y120095D01*
X72875Y120142D01*
X72906Y120184D01*
X72927Y120253D01*
X72957Y120318D01*
X72963Y120370D01*
X72978Y120420D01*
X72976Y120491D01*
X72984Y120562D01*
X72973Y120613D01*
X72972Y120665D01*
X72947Y120733D01*
X72932Y120803D01*
X72905Y120848D01*
X72887Y120896D01*
X72842Y120952D01*
X72806Y121014D01*
X72766Y121048D01*
X72734Y121088D01*
X72673Y121127D01*
X72619Y121174D01*
X72570Y121193D01*
X72527Y121221D01*
X72457Y121239D01*
X72391Y121266D01*
X72319Y121274D01*
X72288Y121282D01*
X72265Y121280D01*
X72224Y121284D01*
X67491Y121284D01*
X67401Y121270D01*
X67310Y121262D01*
X67280Y121250D01*
X67248Y121245D01*
X67168Y121202D01*
X67084Y121166D01*
X67052Y121140D01*
X67031Y121129D01*
X67009Y121106D01*
X66953Y121061D01*
X63500Y117608D01*
X61776Y115884D01*
X61734Y115826D01*
X61685Y115774D01*
X61663Y115727D01*
X61632Y115685D01*
X61611Y115616D01*
X61581Y115551D01*
X61575Y115499D01*
X61560Y115449D01*
X61562Y115378D01*
X61554Y115306D01*
X61565Y115256D01*
X61566Y115204D01*
X61591Y115136D01*
X61606Y115066D01*
X61633Y115021D01*
X61651Y114973D01*
X61696Y114916D01*
X61732Y114855D01*
X61772Y114821D01*
X61804Y114780D01*
X61865Y114742D01*
X61919Y114695D01*
X61968Y114676D01*
X62011Y114647D01*
X62081Y114630D01*
X62147Y114603D01*
X62219Y114595D01*
X62250Y114587D01*
X62273Y114589D01*
X62314Y114585D01*
X64782Y114585D01*
X65675Y113692D01*
X65675Y108428D01*
X64782Y107535D01*
X57534Y107535D01*
X57444Y107520D01*
X57353Y107513D01*
X57323Y107501D01*
X57291Y107495D01*
X57210Y107453D01*
X57126Y107417D01*
X57094Y107391D01*
X57074Y107380D01*
X57051Y107357D01*
X56995Y107312D01*
X50742Y101059D01*
X50466Y101059D01*
X50375Y101045D01*
X50285Y101037D01*
X50255Y101025D01*
X50223Y101020D01*
X50142Y100977D01*
X50058Y100941D01*
X50026Y100915D01*
X50005Y100904D01*
X49983Y100881D01*
X49927Y100836D01*
X48689Y99598D01*
X48678Y99582D01*
X48662Y99570D01*
X48606Y99482D01*
X48546Y99399D01*
X48540Y99380D01*
X48529Y99363D01*
X48504Y99262D01*
X48473Y99163D01*
X48474Y99144D01*
X48469Y99124D01*
X48477Y99021D01*
X48480Y98918D01*
X48487Y98899D01*
X48488Y98879D01*
X48529Y98784D01*
X48564Y98687D01*
X48577Y98671D01*
X48584Y98653D01*
X48689Y98522D01*
X49664Y97547D01*
X49665Y97546D01*
X49927Y97284D01*
X50001Y97231D01*
X50071Y97171D01*
X50101Y97159D01*
X50127Y97140D01*
X50214Y97113D01*
X50299Y97079D01*
X50340Y97075D01*
X50362Y97068D01*
X50394Y97069D01*
X50466Y97061D01*
X50742Y97061D01*
X56995Y90808D01*
X57069Y90755D01*
X57139Y90695D01*
X57169Y90683D01*
X57195Y90664D01*
X57282Y90637D01*
X57367Y90603D01*
X57408Y90599D01*
X57430Y90592D01*
X57462Y90593D01*
X57534Y90585D01*
X64782Y90585D01*
X65675Y89692D01*
X65675Y87064D01*
X65686Y86993D01*
X65688Y86922D01*
X65706Y86873D01*
X65714Y86821D01*
X65748Y86758D01*
X65773Y86691D01*
X65805Y86650D01*
X65830Y86604D01*
X65881Y86555D01*
X65926Y86499D01*
X65970Y86470D01*
X66008Y86435D01*
X66073Y86404D01*
X66133Y86366D01*
X66184Y86353D01*
X66231Y86331D01*
X66302Y86323D01*
X66372Y86306D01*
X66424Y86310D01*
X66475Y86304D01*
X66546Y86319D01*
G37*
G36*
X69621Y148602D02*
X69621Y148602D01*
X69672Y148604D01*
X69704Y148622D01*
X69740Y148630D01*
X69779Y148663D01*
X69824Y148687D01*
X69845Y148717D01*
X69873Y148741D01*
X69894Y148787D01*
X69924Y148829D01*
X69932Y148871D01*
X69944Y148899D01*
X69943Y148929D01*
X69951Y148971D01*
X69951Y162179D01*
X69940Y162229D01*
X69938Y162280D01*
X69920Y162312D01*
X69912Y162348D01*
X69879Y162387D01*
X69855Y162432D01*
X69825Y162453D01*
X69801Y162481D01*
X69755Y162502D01*
X69713Y162532D01*
X69671Y162540D01*
X69643Y162552D01*
X69613Y162551D01*
X69571Y162559D01*
X68809Y162559D01*
X68759Y162548D01*
X68708Y162546D01*
X68676Y162528D01*
X68640Y162520D01*
X68601Y162487D01*
X68556Y162463D01*
X68535Y162433D01*
X68507Y162409D01*
X68486Y162363D01*
X68456Y162321D01*
X68448Y162279D01*
X68436Y162251D01*
X68437Y162221D01*
X68429Y162179D01*
X68429Y148971D01*
X68440Y148921D01*
X68442Y148870D01*
X68460Y148838D01*
X68468Y148802D01*
X68501Y148763D01*
X68525Y148718D01*
X68555Y148697D01*
X68578Y148669D01*
X68625Y148648D01*
X68667Y148618D01*
X68709Y148610D01*
X68737Y148598D01*
X68767Y148599D01*
X68809Y148591D01*
X69571Y148591D01*
X69621Y148602D01*
G37*
G36*
X69621Y162572D02*
X69621Y162572D01*
X69672Y162574D01*
X69704Y162592D01*
X69740Y162600D01*
X69779Y162633D01*
X69824Y162657D01*
X69845Y162687D01*
X69873Y162711D01*
X69894Y162757D01*
X69924Y162799D01*
X69932Y162841D01*
X69944Y162869D01*
X69943Y162899D01*
X69951Y162941D01*
X69951Y172601D01*
X70231Y172601D01*
X70281Y172612D01*
X70332Y172614D01*
X70364Y172632D01*
X70400Y172640D01*
X70439Y172673D01*
X70484Y172697D01*
X70505Y172727D01*
X70533Y172750D01*
X70554Y172797D01*
X70584Y172839D01*
X70592Y172881D01*
X70604Y172909D01*
X70603Y172939D01*
X70611Y172981D01*
X70611Y173999D01*
X70600Y174049D01*
X70598Y174100D01*
X70580Y174132D01*
X70572Y174168D01*
X70539Y174207D01*
X70515Y174252D01*
X70485Y174273D01*
X70461Y174301D01*
X70415Y174322D01*
X70373Y174352D01*
X70331Y174360D01*
X70303Y174372D01*
X70273Y174371D01*
X70231Y174379D01*
X69469Y174379D01*
X69419Y174368D01*
X69368Y174366D01*
X69336Y174348D01*
X69300Y174340D01*
X69261Y174307D01*
X69216Y174283D01*
X69195Y174253D01*
X69167Y174229D01*
X69146Y174183D01*
X69116Y174141D01*
X69108Y174099D01*
X69096Y174071D01*
X69097Y174041D01*
X69089Y173999D01*
X69089Y166839D01*
X68809Y166839D01*
X68759Y166828D01*
X68708Y166826D01*
X68676Y166808D01*
X68640Y166800D01*
X68601Y166767D01*
X68556Y166743D01*
X68535Y166713D01*
X68507Y166690D01*
X68486Y166643D01*
X68456Y166601D01*
X68448Y166559D01*
X68436Y166531D01*
X68437Y166501D01*
X68429Y166459D01*
X68429Y162941D01*
X68440Y162891D01*
X68442Y162840D01*
X68460Y162808D01*
X68468Y162772D01*
X68501Y162733D01*
X68525Y162688D01*
X68555Y162667D01*
X68578Y162639D01*
X68625Y162618D01*
X68667Y162588D01*
X68709Y162580D01*
X68737Y162568D01*
X68767Y162569D01*
X68809Y162561D01*
X69571Y162561D01*
X69621Y162572D01*
G37*
G36*
X68621Y128282D02*
X68621Y128282D01*
X68672Y128284D01*
X68704Y128302D01*
X68740Y128310D01*
X68779Y128343D01*
X68824Y128367D01*
X68845Y128397D01*
X68873Y128421D01*
X68894Y128467D01*
X68924Y128509D01*
X68932Y128551D01*
X68944Y128579D01*
X68943Y128609D01*
X68951Y128651D01*
X68951Y136779D01*
X68940Y136829D01*
X68938Y136880D01*
X68920Y136912D01*
X68912Y136948D01*
X68879Y136987D01*
X68855Y137032D01*
X68825Y137053D01*
X68801Y137081D01*
X68755Y137102D01*
X68713Y137132D01*
X68671Y137140D01*
X68643Y137152D01*
X68613Y137151D01*
X68571Y137159D01*
X67809Y137159D01*
X67759Y137148D01*
X67708Y137146D01*
X67676Y137128D01*
X67640Y137120D01*
X67601Y137087D01*
X67556Y137063D01*
X67535Y137033D01*
X67507Y137009D01*
X67486Y136963D01*
X67456Y136921D01*
X67448Y136879D01*
X67436Y136851D01*
X67437Y136821D01*
X67429Y136779D01*
X67429Y128651D01*
X67440Y128601D01*
X67442Y128550D01*
X67460Y128518D01*
X67468Y128482D01*
X67501Y128443D01*
X67525Y128398D01*
X67555Y128377D01*
X67578Y128349D01*
X67625Y128328D01*
X67667Y128298D01*
X67709Y128290D01*
X67737Y128278D01*
X67767Y128279D01*
X67809Y128271D01*
X68571Y128271D01*
X68621Y128282D01*
G37*
D10*
X82500Y293370D03*
X165100Y150270D03*
X82500Y7170D03*
X-82700Y7170D03*
X-165300Y150270D03*
X-82700Y293370D03*
X123800Y221770D03*
X123800Y78770D03*
X-100Y7170D03*
X-124000Y78770D03*
X-124000Y221770D03*
X-100Y293370D03*
D11*
X-24130Y194310D03*
X1270Y168910D03*
X26670Y194310D03*
X1270Y219710D03*
D12*
X33840Y209600D03*
X33840Y228600D03*
D13*
X22410Y210330D03*
X22410Y227330D03*
D14*
X49530Y174380D03*
X49530Y191380D03*
X69850Y191380D03*
X69850Y174380D03*
D15*
X57150Y87060D03*
X57150Y99060D03*
X57150Y111060D03*
D16*
X35070Y136727D03*
X35070Y131726D03*
X35070Y126724D03*
X35070Y121723D03*
X35070Y116722D03*
X35070Y111721D03*
X35070Y106719D03*
X35070Y101718D03*
X35070Y96717D03*
X35070Y91716D03*
X35070Y86714D03*
X35070Y81713D03*
D17*
X28777Y75420D03*
X23776Y75420D03*
X18774Y75420D03*
X13773Y75420D03*
X8772Y75420D03*
X3771Y75420D03*
X-1231Y75420D03*
X-6232Y75420D03*
X-11233Y75420D03*
X-16234Y75420D03*
X-21236Y75420D03*
X-26237Y75420D03*
D16*
X-32530Y81713D03*
X-32530Y86714D03*
X-32530Y91716D03*
X-32530Y96717D03*
X-32530Y101718D03*
X-32530Y106719D03*
X-32530Y111721D03*
X-32530Y116722D03*
X-32530Y121723D03*
X-32530Y126724D03*
X-32530Y131726D03*
X-32530Y136727D03*
D17*
X-26237Y143020D03*
X-21236Y143020D03*
X-16234Y143020D03*
X-11233Y143020D03*
X-6232Y143020D03*
X-1231Y143020D03*
X3771Y143020D03*
X8772Y143020D03*
X13773Y143020D03*
X18774Y143020D03*
X23776Y143020D03*
X28777Y143020D03*
D18*
X1270Y109220D03*
D19*
X81280Y115570D03*
D14*
X-48260Y165980D03*
X-48260Y148980D03*
D13*
X-5470Y55880D03*
X-22470Y55880D03*
D14*
X51190Y128270D03*
X68190Y128270D03*
X51190Y137160D03*
X68190Y137160D03*
D13*
X-49530Y117720D03*
X-49530Y100720D03*
D20*
X50190Y162560D03*
X69190Y162560D03*
X50190Y148590D03*
X69190Y148590D03*
D12*
X-60960Y118720D03*
X-60960Y99720D03*
D21*
X-97790Y179070D03*
X-97790Y153670D03*
X-97790Y128270D03*
D22*
X-43531Y106719D02*
X-32530Y106719D01*
X-43531Y106719D02*
X-49530Y100720D01*
X-59960Y100720D01*
X-60960Y99720D01*
D23*
X-34290Y245110D03*
X-34290Y236220D03*
X-59690Y172720D03*
X-48260Y171450D03*
X-20320Y130810D03*
X-20320Y119380D03*
X-58420Y101600D03*
X-50800Y77470D03*
X-43180Y67310D03*
X35560Y58420D03*
X46990Y59690D03*
X113030Y165100D03*
X113030Y149860D03*
X90170Y152400D03*
X90170Y166370D03*
X22860Y88900D03*
X67310Y100330D03*
X12700Y88900D03*
X-55880Y118110D03*
D22*
X-43531Y111721D02*
X-32530Y111721D01*
X-43531Y111721D02*
X-49530Y117720D01*
X-55490Y117720D01*
X-55880Y118110D01*
X-60960Y118720D02*
X-50530Y118720D01*
X-49530Y117720D01*
X23776Y143020D02*
X23776Y166724D01*
X-23622Y214122D02*
X-23622Y278480D01*
D24*
X-23622Y278480D03*
D22*
X-23622Y214122D02*
X23776Y166724D01*
X-32530Y101718D02*
X-36712Y101718D01*
X-40212Y98218D01*
X-40212Y93958D01*
X-69723Y90172D02*
X-81151Y101600D01*
X-43998Y90172D02*
X-40212Y93958D01*
X-43998Y90172D02*
X-69723Y90172D01*
X-92436Y101600D02*
X-102472Y91565D01*
D24*
X-102472Y91565D03*
D22*
X-92436Y101600D02*
X-81151Y101600D01*
X28777Y143020D02*
X28777Y168189D01*
X-19050Y274420D02*
X-100Y293370D01*
X-19050Y216016D02*
X28777Y168189D01*
X-19050Y216016D02*
X-19050Y274420D01*
X-74500Y128270D02*
X-124000Y78770D01*
X-41482Y118110D02*
X-41482Y124483D01*
X-45270Y128270D02*
X-74500Y128270D01*
X-45270Y128270D02*
X-41482Y124483D01*
X-41482Y118110D02*
X-40094Y116722D01*
X-32530Y116722D01*
D24*
X-96846Y227842D03*
D22*
X-6232Y148030D02*
X-6232Y143020D01*
X-6232Y148030D02*
X-86044Y227842D01*
X-96846Y227842D01*
X-11233Y146565D02*
X-11233Y143020D01*
X-11233Y146565D02*
X-86438Y221770D01*
X-124000Y221770D01*
D24*
X139561Y107004D03*
D22*
X69320Y71628D02*
X32569Y71628D01*
X28777Y75420D01*
X104696Y107004D02*
X139561Y107004D01*
X104696Y107004D02*
X69320Y71628D01*
X18774Y75420D02*
X18774Y26749D01*
X23988Y21535D01*
D24*
X23988Y21535D03*
D22*
X28595Y67056D02*
X23776Y71875D01*
X23776Y75420D01*
X72136Y67056D02*
X105410Y100330D01*
X116840Y100330D01*
X123800Y93370D02*
X123800Y78770D01*
X72136Y67056D02*
X28595Y67056D01*
X116840Y100330D02*
X123800Y93370D01*
X14202Y21472D02*
X-100Y7170D01*
X14202Y21472D02*
X14202Y33020D01*
X13773Y33449D01*
X13773Y75420D01*
X44049Y81280D02*
X66040Y81280D01*
X44049Y81280D02*
X38615Y86714D01*
X35070Y86714D01*
X66040Y81280D02*
X99060Y114300D01*
X99060Y205617D02*
X102253Y208810D01*
D24*
X102253Y208810D03*
D22*
X99060Y205617D02*
X99060Y114300D01*
X67426Y76200D02*
X41853Y76200D01*
X36340Y81713D01*
X35070Y81713D01*
X104140Y202110D02*
X123800Y221770D01*
X104140Y112914D02*
X67426Y76200D01*
X104140Y112914D02*
X104140Y202110D01*
D25*
X-1660Y155074D02*
X-1660Y154879D01*
X-1231Y154450D02*
X-1231Y143020D01*
X-1231Y154450D02*
X-1660Y154879D01*
X-1660Y155074D02*
X-24130Y177544D01*
X-24130Y194310D01*
X1270Y168910D02*
X3771Y166409D01*
X3771Y143020D01*
D22*
X35070Y106719D02*
X39521Y106719D01*
X51450Y118648D01*
X60228Y118648D02*
X68580Y127000D01*
X68580Y127880D01*
X68190Y128270D01*
X60228Y118648D02*
X51450Y118648D01*
D26*
X69850Y163220D02*
X69850Y174380D01*
X69850Y163220D02*
X69190Y162560D01*
X69190Y148590D02*
X69190Y138160D01*
X68190Y137160D01*
D27*
X-22470Y56048D02*
X-22470Y55880D01*
X-22470Y56048D02*
X-15018Y63500D01*
D24*
X-15018Y63500D03*
D25*
X49098Y94520D02*
X49690Y94520D01*
X57150Y87060D01*
X46901Y96717D02*
X35070Y96717D01*
X46901Y96717D02*
X49098Y94520D01*
X49098Y103600D02*
X49690Y103600D01*
X57150Y111060D01*
X47216Y101718D02*
X35070Y101718D01*
X47216Y101718D02*
X49098Y103600D01*
D22*
X-32530Y136727D02*
X-42690Y146887D01*
X-46167Y146887D01*
X-48260Y148980D01*
X-52950Y153670D01*
X-97790Y153670D01*
D27*
X-97790Y179070D01*
X-34999Y131726D02*
X-32530Y131726D01*
X-34999Y131726D02*
X-43481Y140208D01*
X-85852Y140208D01*
X-97790Y128270D01*
X43180Y88412D02*
X45720Y88412D01*
X43180Y88412D02*
X39876Y91716D01*
X35070Y91716D01*
D28*
X45720Y88412D03*
D27*
X-1231Y75420D02*
X-1231Y60119D01*
X-5470Y55880D01*
M02*
