G04 EAGLE Gerber RS-274X export*
G75*
%MOMM*%
%FSLAX34Y34*%
%LPD*%
%INSilkscreen Bottom*%
%IPPOS*%
%AMOC8*
5,1,8,0,0,1.08239X$1,22.5*%
G01*
%ADD10C,0.101600*%
%ADD11C,0.152400*%
%ADD12C,0.254000*%
%ADD13C,0.076200*%
%ADD14C,0.406400*%
%ADD15C,0.050800*%

G36*
X-38860Y104689D02*
X-38860Y104689D01*
X-38858Y104688D01*
X-38815Y104708D01*
X-38771Y104726D01*
X-38771Y104728D01*
X-38769Y104729D01*
X-38736Y104814D01*
X-38736Y108624D01*
X-38737Y108626D01*
X-38736Y108628D01*
X-38756Y108671D01*
X-38774Y108715D01*
X-38776Y108715D01*
X-38777Y108717D01*
X-38862Y108750D01*
X-41402Y108750D01*
X-41404Y108749D01*
X-41406Y108750D01*
X-41449Y108730D01*
X-41493Y108712D01*
X-41493Y108710D01*
X-41495Y108709D01*
X-41528Y108624D01*
X-41528Y104814D01*
X-41527Y104812D01*
X-41528Y104810D01*
X-41508Y104767D01*
X-41490Y104723D01*
X-41488Y104723D01*
X-41487Y104721D01*
X-41402Y104688D01*
X-38862Y104688D01*
X-38860Y104689D01*
G37*
G36*
X43944Y89686D02*
X43944Y89686D01*
X43946Y89685D01*
X43989Y89705D01*
X44033Y89723D01*
X44033Y89725D01*
X44035Y89726D01*
X44068Y89811D01*
X44068Y93621D01*
X44067Y93623D01*
X44068Y93625D01*
X44048Y93668D01*
X44030Y93712D01*
X44028Y93712D01*
X44027Y93714D01*
X43942Y93747D01*
X41402Y93747D01*
X41400Y93746D01*
X41398Y93747D01*
X41355Y93727D01*
X41311Y93709D01*
X41311Y93707D01*
X41309Y93706D01*
X41276Y93621D01*
X41276Y89811D01*
X41277Y89809D01*
X41276Y89807D01*
X41296Y89764D01*
X41314Y89720D01*
X41316Y89720D01*
X41317Y89718D01*
X41402Y89685D01*
X43942Y89685D01*
X43944Y89686D01*
G37*
G36*
X-4325Y66423D02*
X-4325Y66423D01*
X-4323Y66422D01*
X-4280Y66442D01*
X-4236Y66460D01*
X-4236Y66462D01*
X-4234Y66463D01*
X-4201Y66548D01*
X-4201Y69088D01*
X-4202Y69090D01*
X-4201Y69092D01*
X-4221Y69135D01*
X-4239Y69179D01*
X-4241Y69179D01*
X-4242Y69181D01*
X-4327Y69214D01*
X-8137Y69214D01*
X-8139Y69213D01*
X-8141Y69214D01*
X-8184Y69194D01*
X-8228Y69176D01*
X-8228Y69174D01*
X-8230Y69173D01*
X-8263Y69088D01*
X-8263Y66548D01*
X-8262Y66546D01*
X-8263Y66544D01*
X-8243Y66501D01*
X-8225Y66457D01*
X-8223Y66457D01*
X-8222Y66455D01*
X-8137Y66422D01*
X-4327Y66422D01*
X-4325Y66423D01*
G37*
D10*
X80761Y263117D02*
X78102Y264979D01*
X78102Y264978D02*
X78011Y265045D01*
X77921Y265114D01*
X77834Y265187D01*
X77750Y265263D01*
X77669Y265342D01*
X77590Y265423D01*
X77514Y265507D01*
X77441Y265594D01*
X77372Y265684D01*
X77305Y265775D01*
X77242Y265869D01*
X77182Y265965D01*
X77125Y266063D01*
X77072Y266163D01*
X77022Y266265D01*
X76976Y266369D01*
X76934Y266474D01*
X76895Y266580D01*
X76860Y266688D01*
X76829Y266797D01*
X76801Y266907D01*
X76778Y267018D01*
X76758Y267129D01*
X76742Y267241D01*
X76730Y267354D01*
X76722Y267467D01*
X76718Y267580D01*
X76718Y267694D01*
X76722Y267807D01*
X76730Y267920D01*
X76742Y268033D01*
X76758Y268145D01*
X76778Y268256D01*
X76801Y268367D01*
X76829Y268477D01*
X76860Y268586D01*
X76895Y268694D01*
X76934Y268800D01*
X76976Y268905D01*
X77022Y269009D01*
X77072Y269111D01*
X77125Y269211D01*
X77182Y269309D01*
X77242Y269405D01*
X77305Y269499D01*
X77372Y269590D01*
X77441Y269680D01*
X77514Y269767D01*
X77590Y269851D01*
X77669Y269932D01*
X77750Y270011D01*
X77834Y270087D01*
X77921Y270160D01*
X78010Y270229D01*
X78102Y270296D01*
X78196Y270359D01*
X78292Y270419D01*
X78390Y270476D01*
X78490Y270529D01*
X78592Y270579D01*
X78696Y270625D01*
X78801Y270667D01*
X78907Y270706D01*
X79015Y270741D01*
X79124Y270772D01*
X79234Y270800D01*
X79345Y270823D01*
X79456Y270843D01*
X79568Y270859D01*
X79681Y270871D01*
X79794Y270879D01*
X79907Y270883D01*
X80021Y270883D01*
X80134Y270879D01*
X80247Y270871D01*
X80360Y270859D01*
X80472Y270843D01*
X80583Y270823D01*
X80694Y270800D01*
X80804Y270772D01*
X80913Y270741D01*
X81021Y270706D01*
X81127Y270667D01*
X81232Y270625D01*
X81336Y270579D01*
X81438Y270529D01*
X81538Y270476D01*
X81636Y270419D01*
X81732Y270359D01*
X81826Y270296D01*
X84272Y274922D02*
X87462Y272688D01*
X84272Y274922D02*
X84188Y274978D01*
X84103Y275031D01*
X84015Y275080D01*
X83926Y275126D01*
X83834Y275169D01*
X83741Y275208D01*
X83647Y275243D01*
X83552Y275275D01*
X83455Y275303D01*
X83357Y275327D01*
X83259Y275347D01*
X83159Y275364D01*
X83059Y275376D01*
X82959Y275385D01*
X82859Y275390D01*
X82758Y275391D01*
X82657Y275388D01*
X82557Y275381D01*
X82457Y275370D01*
X82357Y275356D01*
X82258Y275337D01*
X82160Y275315D01*
X82063Y275289D01*
X81966Y275259D01*
X81872Y275226D01*
X81778Y275189D01*
X81686Y275148D01*
X81595Y275103D01*
X81507Y275056D01*
X81420Y275004D01*
X81336Y274950D01*
X81253Y274892D01*
X81173Y274831D01*
X81095Y274767D01*
X81020Y274700D01*
X80947Y274631D01*
X80878Y274558D01*
X80811Y274483D01*
X80747Y274405D01*
X80686Y274325D01*
X80628Y274242D01*
X80574Y274158D01*
X80522Y274071D01*
X80475Y273983D01*
X80430Y273892D01*
X80389Y273800D01*
X80352Y273706D01*
X80319Y273612D01*
X80289Y273515D01*
X80263Y273418D01*
X80241Y273320D01*
X80222Y273221D01*
X80208Y273121D01*
X80197Y273021D01*
X80190Y272921D01*
X80187Y272820D01*
X80188Y272719D01*
X80193Y272619D01*
X80202Y272519D01*
X80214Y272419D01*
X80231Y272319D01*
X80251Y272221D01*
X80275Y272123D01*
X80303Y272026D01*
X80335Y271931D01*
X80370Y271837D01*
X80409Y271744D01*
X80452Y271652D01*
X80498Y271563D01*
X80547Y271475D01*
X80600Y271390D01*
X80656Y271306D01*
X80716Y271225D01*
X80778Y271146D01*
X80844Y271069D01*
X80912Y270995D01*
X80983Y270924D01*
X81057Y270856D01*
X81134Y270790D01*
X81213Y270728D01*
X81294Y270668D01*
X83420Y269179D01*
X78631Y278872D02*
X68739Y271534D01*
X72251Y283339D01*
X62035Y276229D02*
X59376Y278090D01*
X59285Y278157D01*
X59195Y278226D01*
X59108Y278299D01*
X59024Y278375D01*
X58943Y278454D01*
X58864Y278535D01*
X58788Y278619D01*
X58715Y278706D01*
X58646Y278796D01*
X58579Y278887D01*
X58516Y278981D01*
X58456Y279077D01*
X58399Y279175D01*
X58346Y279275D01*
X58296Y279377D01*
X58250Y279481D01*
X58208Y279586D01*
X58169Y279692D01*
X58134Y279800D01*
X58103Y279909D01*
X58075Y280019D01*
X58052Y280130D01*
X58032Y280241D01*
X58016Y280353D01*
X58004Y280466D01*
X57996Y280579D01*
X57992Y280692D01*
X57992Y280806D01*
X57996Y280919D01*
X58004Y281032D01*
X58016Y281145D01*
X58032Y281257D01*
X58052Y281368D01*
X58075Y281479D01*
X58103Y281589D01*
X58134Y281698D01*
X58169Y281806D01*
X58208Y281912D01*
X58250Y282017D01*
X58296Y282121D01*
X58346Y282223D01*
X58399Y282323D01*
X58456Y282421D01*
X58516Y282517D01*
X58579Y282611D01*
X58646Y282702D01*
X58715Y282792D01*
X58788Y282879D01*
X58864Y282963D01*
X58943Y283044D01*
X59024Y283123D01*
X59108Y283199D01*
X59195Y283272D01*
X59284Y283341D01*
X59376Y283408D01*
X59470Y283471D01*
X59566Y283531D01*
X59664Y283588D01*
X59764Y283641D01*
X59866Y283691D01*
X59970Y283737D01*
X60075Y283779D01*
X60181Y283818D01*
X60289Y283853D01*
X60398Y283884D01*
X60508Y283912D01*
X60619Y283935D01*
X60730Y283955D01*
X60842Y283971D01*
X60955Y283983D01*
X61068Y283991D01*
X61181Y283995D01*
X61295Y283995D01*
X61408Y283991D01*
X61521Y283983D01*
X61634Y283971D01*
X61746Y283955D01*
X61857Y283935D01*
X61968Y283912D01*
X62078Y283884D01*
X62187Y283853D01*
X62295Y283818D01*
X62401Y283779D01*
X62506Y283737D01*
X62610Y283691D01*
X62712Y283641D01*
X62812Y283588D01*
X62910Y283531D01*
X63006Y283471D01*
X63100Y283408D01*
X65546Y288034D02*
X68737Y285800D01*
X65546Y288034D02*
X65462Y288090D01*
X65377Y288143D01*
X65289Y288192D01*
X65200Y288238D01*
X65108Y288281D01*
X65015Y288320D01*
X64921Y288355D01*
X64826Y288387D01*
X64729Y288415D01*
X64631Y288439D01*
X64533Y288459D01*
X64433Y288476D01*
X64333Y288488D01*
X64233Y288497D01*
X64133Y288502D01*
X64032Y288503D01*
X63931Y288500D01*
X63831Y288493D01*
X63731Y288482D01*
X63631Y288468D01*
X63532Y288449D01*
X63434Y288427D01*
X63337Y288401D01*
X63240Y288371D01*
X63146Y288338D01*
X63052Y288301D01*
X62960Y288260D01*
X62869Y288215D01*
X62781Y288168D01*
X62694Y288116D01*
X62610Y288062D01*
X62527Y288004D01*
X62447Y287943D01*
X62369Y287879D01*
X62294Y287812D01*
X62221Y287743D01*
X62152Y287670D01*
X62085Y287595D01*
X62021Y287517D01*
X61960Y287437D01*
X61902Y287354D01*
X61848Y287270D01*
X61796Y287183D01*
X61749Y287095D01*
X61704Y287004D01*
X61663Y286912D01*
X61626Y286818D01*
X61593Y286724D01*
X61563Y286627D01*
X61537Y286530D01*
X61515Y286432D01*
X61496Y286333D01*
X61482Y286233D01*
X61471Y286133D01*
X61464Y286033D01*
X61461Y285932D01*
X61462Y285831D01*
X61467Y285731D01*
X61476Y285631D01*
X61488Y285531D01*
X61505Y285431D01*
X61525Y285333D01*
X61549Y285235D01*
X61577Y285138D01*
X61609Y285043D01*
X61644Y284949D01*
X61683Y284856D01*
X61726Y284764D01*
X61772Y284675D01*
X61821Y284587D01*
X61874Y284502D01*
X61930Y284418D01*
X61990Y284337D01*
X62052Y284258D01*
X62118Y284181D01*
X62186Y284107D01*
X62257Y284036D01*
X62331Y283968D01*
X62408Y283902D01*
X62487Y283840D01*
X62568Y283780D01*
X64695Y282291D01*
X138848Y139190D02*
X138848Y135944D01*
X138848Y139190D02*
X138850Y139303D01*
X138856Y139416D01*
X138866Y139529D01*
X138880Y139642D01*
X138897Y139754D01*
X138919Y139865D01*
X138944Y139975D01*
X138974Y140085D01*
X139007Y140193D01*
X139044Y140300D01*
X139084Y140406D01*
X139129Y140510D01*
X139177Y140613D01*
X139228Y140714D01*
X139283Y140813D01*
X139341Y140910D01*
X139403Y141005D01*
X139468Y141098D01*
X139536Y141188D01*
X139607Y141276D01*
X139682Y141362D01*
X139759Y141445D01*
X139839Y141525D01*
X139922Y141602D01*
X140008Y141677D01*
X140096Y141748D01*
X140186Y141816D01*
X140279Y141881D01*
X140374Y141943D01*
X140471Y142001D01*
X140570Y142056D01*
X140671Y142107D01*
X140774Y142155D01*
X140878Y142200D01*
X140984Y142240D01*
X141091Y142277D01*
X141199Y142310D01*
X141309Y142340D01*
X141419Y142365D01*
X141530Y142387D01*
X141642Y142404D01*
X141755Y142418D01*
X141868Y142428D01*
X141981Y142434D01*
X142094Y142436D01*
X142207Y142434D01*
X142320Y142428D01*
X142433Y142418D01*
X142546Y142404D01*
X142658Y142387D01*
X142769Y142365D01*
X142879Y142340D01*
X142989Y142310D01*
X143097Y142277D01*
X143204Y142240D01*
X143310Y142200D01*
X143414Y142155D01*
X143517Y142107D01*
X143618Y142056D01*
X143717Y142001D01*
X143814Y141943D01*
X143909Y141881D01*
X144002Y141816D01*
X144092Y141748D01*
X144180Y141677D01*
X144266Y141602D01*
X144349Y141525D01*
X144429Y141445D01*
X144506Y141362D01*
X144581Y141276D01*
X144652Y141188D01*
X144720Y141098D01*
X144785Y141005D01*
X144847Y140910D01*
X144905Y140813D01*
X144960Y140714D01*
X145011Y140613D01*
X145059Y140510D01*
X145104Y140406D01*
X145144Y140300D01*
X145181Y140193D01*
X145214Y140085D01*
X145244Y139975D01*
X145269Y139865D01*
X145291Y139754D01*
X145308Y139642D01*
X145322Y139529D01*
X145332Y139416D01*
X145338Y139303D01*
X145340Y139190D01*
X150532Y139839D02*
X150532Y135944D01*
X150532Y139839D02*
X150530Y139940D01*
X150524Y140040D01*
X150514Y140140D01*
X150501Y140240D01*
X150483Y140339D01*
X150462Y140438D01*
X150437Y140535D01*
X150408Y140632D01*
X150375Y140727D01*
X150339Y140821D01*
X150299Y140913D01*
X150256Y141004D01*
X150209Y141093D01*
X150159Y141180D01*
X150105Y141266D01*
X150048Y141349D01*
X149988Y141429D01*
X149925Y141508D01*
X149858Y141584D01*
X149789Y141657D01*
X149717Y141727D01*
X149643Y141795D01*
X149566Y141860D01*
X149486Y141921D01*
X149404Y141980D01*
X149320Y142035D01*
X149234Y142087D01*
X149146Y142136D01*
X149056Y142181D01*
X148964Y142223D01*
X148871Y142261D01*
X148776Y142295D01*
X148681Y142326D01*
X148584Y142353D01*
X148486Y142376D01*
X148387Y142396D01*
X148287Y142411D01*
X148187Y142423D01*
X148087Y142431D01*
X147986Y142435D01*
X147886Y142435D01*
X147785Y142431D01*
X147685Y142423D01*
X147585Y142411D01*
X147485Y142396D01*
X147386Y142376D01*
X147288Y142353D01*
X147191Y142326D01*
X147096Y142295D01*
X147001Y142261D01*
X146908Y142223D01*
X146816Y142181D01*
X146726Y142136D01*
X146638Y142087D01*
X146552Y142035D01*
X146468Y141980D01*
X146386Y141921D01*
X146306Y141860D01*
X146229Y141795D01*
X146155Y141727D01*
X146083Y141657D01*
X146014Y141584D01*
X145947Y141508D01*
X145884Y141429D01*
X145824Y141349D01*
X145767Y141266D01*
X145713Y141180D01*
X145663Y141093D01*
X145616Y141004D01*
X145573Y140913D01*
X145533Y140821D01*
X145497Y140727D01*
X145464Y140632D01*
X145435Y140535D01*
X145410Y140438D01*
X145389Y140339D01*
X145371Y140240D01*
X145358Y140140D01*
X145348Y140040D01*
X145342Y139940D01*
X145340Y139839D01*
X145339Y139839D02*
X145339Y137243D01*
X150532Y146725D02*
X138848Y150620D01*
X150532Y154515D01*
X138848Y158804D02*
X138848Y162050D01*
X138850Y162163D01*
X138856Y162276D01*
X138866Y162389D01*
X138880Y162502D01*
X138897Y162614D01*
X138919Y162725D01*
X138944Y162835D01*
X138974Y162945D01*
X139007Y163053D01*
X139044Y163160D01*
X139084Y163266D01*
X139129Y163370D01*
X139177Y163473D01*
X139228Y163574D01*
X139283Y163673D01*
X139341Y163770D01*
X139403Y163865D01*
X139468Y163958D01*
X139536Y164048D01*
X139607Y164136D01*
X139682Y164222D01*
X139759Y164305D01*
X139839Y164385D01*
X139922Y164462D01*
X140008Y164537D01*
X140096Y164608D01*
X140186Y164676D01*
X140279Y164741D01*
X140374Y164803D01*
X140471Y164861D01*
X140570Y164916D01*
X140671Y164967D01*
X140774Y165015D01*
X140878Y165060D01*
X140984Y165100D01*
X141091Y165137D01*
X141199Y165170D01*
X141309Y165200D01*
X141419Y165225D01*
X141530Y165247D01*
X141642Y165264D01*
X141755Y165278D01*
X141868Y165288D01*
X141981Y165294D01*
X142094Y165296D01*
X142207Y165294D01*
X142320Y165288D01*
X142433Y165278D01*
X142546Y165264D01*
X142658Y165247D01*
X142769Y165225D01*
X142879Y165200D01*
X142989Y165170D01*
X143097Y165137D01*
X143204Y165100D01*
X143310Y165060D01*
X143414Y165015D01*
X143517Y164967D01*
X143618Y164916D01*
X143717Y164861D01*
X143814Y164803D01*
X143909Y164741D01*
X144002Y164676D01*
X144092Y164608D01*
X144180Y164537D01*
X144266Y164462D01*
X144349Y164385D01*
X144429Y164305D01*
X144506Y164222D01*
X144581Y164136D01*
X144652Y164048D01*
X144720Y163958D01*
X144785Y163865D01*
X144847Y163770D01*
X144905Y163673D01*
X144960Y163574D01*
X145011Y163473D01*
X145059Y163370D01*
X145104Y163266D01*
X145144Y163160D01*
X145181Y163053D01*
X145214Y162945D01*
X145244Y162835D01*
X145269Y162725D01*
X145291Y162614D01*
X145308Y162502D01*
X145322Y162389D01*
X145332Y162276D01*
X145338Y162163D01*
X145340Y162050D01*
X150532Y162699D02*
X150532Y158804D01*
X150532Y162699D02*
X150530Y162800D01*
X150524Y162900D01*
X150514Y163000D01*
X150501Y163100D01*
X150483Y163199D01*
X150462Y163298D01*
X150437Y163395D01*
X150408Y163492D01*
X150375Y163587D01*
X150339Y163681D01*
X150299Y163773D01*
X150256Y163864D01*
X150209Y163953D01*
X150159Y164040D01*
X150105Y164126D01*
X150048Y164209D01*
X149988Y164289D01*
X149925Y164368D01*
X149858Y164444D01*
X149789Y164517D01*
X149717Y164587D01*
X149643Y164655D01*
X149566Y164720D01*
X149486Y164781D01*
X149404Y164840D01*
X149320Y164895D01*
X149234Y164947D01*
X149146Y164996D01*
X149056Y165041D01*
X148964Y165083D01*
X148871Y165121D01*
X148776Y165155D01*
X148681Y165186D01*
X148584Y165213D01*
X148486Y165236D01*
X148387Y165256D01*
X148287Y165271D01*
X148187Y165283D01*
X148087Y165291D01*
X147986Y165295D01*
X147886Y165295D01*
X147785Y165291D01*
X147685Y165283D01*
X147585Y165271D01*
X147485Y165256D01*
X147386Y165236D01*
X147288Y165213D01*
X147191Y165186D01*
X147096Y165155D01*
X147001Y165121D01*
X146908Y165083D01*
X146816Y165041D01*
X146726Y164996D01*
X146638Y164947D01*
X146552Y164895D01*
X146468Y164840D01*
X146386Y164781D01*
X146306Y164720D01*
X146229Y164655D01*
X146155Y164587D01*
X146083Y164517D01*
X146014Y164444D01*
X145947Y164368D01*
X145884Y164289D01*
X145824Y164209D01*
X145767Y164126D01*
X145713Y164040D01*
X145663Y163953D01*
X145616Y163864D01*
X145573Y163773D01*
X145533Y163681D01*
X145497Y163587D01*
X145464Y163492D01*
X145435Y163395D01*
X145410Y163298D01*
X145389Y163199D01*
X145371Y163100D01*
X145358Y163000D01*
X145348Y162900D01*
X145342Y162800D01*
X145340Y162699D01*
X145339Y162699D02*
X145339Y160103D01*
X87462Y28552D02*
X84804Y26690D01*
X84710Y26627D01*
X84614Y26567D01*
X84516Y26510D01*
X84416Y26457D01*
X84314Y26407D01*
X84210Y26361D01*
X84105Y26319D01*
X83999Y26280D01*
X83891Y26245D01*
X83782Y26214D01*
X83672Y26186D01*
X83561Y26163D01*
X83450Y26143D01*
X83338Y26127D01*
X83225Y26115D01*
X83112Y26107D01*
X82999Y26103D01*
X82885Y26103D01*
X82772Y26107D01*
X82659Y26115D01*
X82546Y26127D01*
X82434Y26143D01*
X82323Y26163D01*
X82212Y26186D01*
X82102Y26214D01*
X81993Y26245D01*
X81885Y26280D01*
X81779Y26319D01*
X81674Y26361D01*
X81570Y26407D01*
X81468Y26457D01*
X81368Y26510D01*
X81270Y26567D01*
X81174Y26627D01*
X81080Y26690D01*
X80989Y26757D01*
X80899Y26826D01*
X80812Y26899D01*
X80728Y26975D01*
X80647Y27054D01*
X80568Y27135D01*
X80492Y27219D01*
X80419Y27306D01*
X80350Y27396D01*
X80283Y27487D01*
X80220Y27581D01*
X80160Y27677D01*
X80103Y27775D01*
X80050Y27875D01*
X80000Y27977D01*
X79954Y28081D01*
X79912Y28186D01*
X79873Y28292D01*
X79838Y28400D01*
X79807Y28509D01*
X79779Y28619D01*
X79756Y28730D01*
X79736Y28841D01*
X79720Y28953D01*
X79708Y29066D01*
X79700Y29179D01*
X79696Y29292D01*
X79696Y29406D01*
X79700Y29519D01*
X79708Y29632D01*
X79720Y29745D01*
X79736Y29857D01*
X79756Y29968D01*
X79779Y30079D01*
X79807Y30189D01*
X79838Y30298D01*
X79873Y30406D01*
X79912Y30512D01*
X79954Y30617D01*
X80000Y30721D01*
X80050Y30823D01*
X80103Y30923D01*
X80160Y31021D01*
X80220Y31117D01*
X80283Y31211D01*
X80350Y31302D01*
X80419Y31392D01*
X80492Y31479D01*
X80568Y31563D01*
X80647Y31644D01*
X80728Y31723D01*
X80812Y31799D01*
X80899Y31872D01*
X80989Y31941D01*
X81080Y32008D01*
X77570Y35889D02*
X80761Y38123D01*
X77571Y35889D02*
X77490Y35829D01*
X77411Y35767D01*
X77334Y35701D01*
X77260Y35633D01*
X77189Y35562D01*
X77121Y35488D01*
X77055Y35411D01*
X76993Y35332D01*
X76933Y35251D01*
X76877Y35167D01*
X76824Y35082D01*
X76775Y34994D01*
X76729Y34905D01*
X76686Y34813D01*
X76647Y34720D01*
X76612Y34626D01*
X76580Y34531D01*
X76552Y34434D01*
X76528Y34336D01*
X76508Y34238D01*
X76491Y34138D01*
X76479Y34038D01*
X76470Y33938D01*
X76465Y33837D01*
X76464Y33737D01*
X76467Y33636D01*
X76474Y33536D01*
X76485Y33436D01*
X76499Y33336D01*
X76518Y33237D01*
X76540Y33139D01*
X76566Y33042D01*
X76596Y32945D01*
X76629Y32851D01*
X76666Y32757D01*
X76707Y32665D01*
X76752Y32574D01*
X76799Y32486D01*
X76851Y32399D01*
X76905Y32315D01*
X76963Y32232D01*
X77024Y32152D01*
X77088Y32074D01*
X77155Y31999D01*
X77224Y31926D01*
X77297Y31857D01*
X77372Y31790D01*
X77450Y31726D01*
X77530Y31665D01*
X77613Y31607D01*
X77697Y31553D01*
X77784Y31501D01*
X77872Y31454D01*
X77963Y31409D01*
X78055Y31368D01*
X78148Y31331D01*
X78243Y31298D01*
X78340Y31268D01*
X78437Y31242D01*
X78535Y31220D01*
X78634Y31201D01*
X78734Y31187D01*
X78834Y31176D01*
X78934Y31169D01*
X79035Y31166D01*
X79135Y31167D01*
X79236Y31172D01*
X79336Y31181D01*
X79436Y31193D01*
X79536Y31210D01*
X79634Y31230D01*
X79732Y31254D01*
X79829Y31282D01*
X79924Y31314D01*
X80018Y31349D01*
X80111Y31388D01*
X80203Y31431D01*
X80292Y31477D01*
X80380Y31526D01*
X80465Y31579D01*
X80549Y31635D01*
X82676Y33125D01*
X71930Y31939D02*
X75441Y20134D01*
X65549Y27472D01*
X68737Y15440D02*
X66078Y13578D01*
X65984Y13515D01*
X65888Y13455D01*
X65790Y13398D01*
X65690Y13345D01*
X65588Y13295D01*
X65484Y13249D01*
X65379Y13207D01*
X65273Y13168D01*
X65165Y13133D01*
X65056Y13102D01*
X64946Y13074D01*
X64835Y13051D01*
X64724Y13031D01*
X64612Y13015D01*
X64499Y13003D01*
X64386Y12995D01*
X64273Y12991D01*
X64159Y12991D01*
X64046Y12995D01*
X63933Y13003D01*
X63820Y13015D01*
X63708Y13031D01*
X63597Y13051D01*
X63486Y13074D01*
X63376Y13102D01*
X63267Y13133D01*
X63159Y13168D01*
X63053Y13207D01*
X62948Y13249D01*
X62844Y13295D01*
X62742Y13345D01*
X62642Y13398D01*
X62544Y13455D01*
X62448Y13515D01*
X62354Y13578D01*
X62263Y13645D01*
X62173Y13714D01*
X62086Y13787D01*
X62002Y13863D01*
X61921Y13942D01*
X61842Y14023D01*
X61766Y14107D01*
X61693Y14194D01*
X61624Y14284D01*
X61557Y14375D01*
X61494Y14469D01*
X61434Y14565D01*
X61377Y14663D01*
X61324Y14763D01*
X61274Y14865D01*
X61228Y14969D01*
X61186Y15074D01*
X61147Y15180D01*
X61112Y15288D01*
X61081Y15397D01*
X61053Y15507D01*
X61030Y15618D01*
X61010Y15729D01*
X60994Y15841D01*
X60982Y15954D01*
X60974Y16067D01*
X60970Y16180D01*
X60970Y16294D01*
X60974Y16407D01*
X60982Y16520D01*
X60994Y16633D01*
X61010Y16745D01*
X61030Y16856D01*
X61053Y16967D01*
X61081Y17077D01*
X61112Y17186D01*
X61147Y17294D01*
X61186Y17400D01*
X61228Y17505D01*
X61274Y17609D01*
X61324Y17711D01*
X61377Y17811D01*
X61434Y17909D01*
X61494Y18005D01*
X61557Y18099D01*
X61624Y18190D01*
X61693Y18280D01*
X61766Y18367D01*
X61842Y18451D01*
X61921Y18532D01*
X62002Y18611D01*
X62086Y18687D01*
X62173Y18760D01*
X62263Y18829D01*
X62354Y18896D01*
X58845Y22777D02*
X62035Y25011D01*
X58845Y22777D02*
X58764Y22717D01*
X58685Y22655D01*
X58608Y22589D01*
X58534Y22521D01*
X58463Y22450D01*
X58395Y22376D01*
X58329Y22299D01*
X58267Y22220D01*
X58207Y22139D01*
X58151Y22055D01*
X58098Y21970D01*
X58049Y21882D01*
X58003Y21793D01*
X57960Y21701D01*
X57921Y21608D01*
X57886Y21514D01*
X57854Y21419D01*
X57826Y21322D01*
X57802Y21224D01*
X57782Y21126D01*
X57765Y21026D01*
X57753Y20926D01*
X57744Y20826D01*
X57739Y20725D01*
X57738Y20625D01*
X57741Y20524D01*
X57748Y20424D01*
X57759Y20324D01*
X57773Y20224D01*
X57792Y20125D01*
X57814Y20027D01*
X57840Y19930D01*
X57870Y19833D01*
X57903Y19739D01*
X57940Y19645D01*
X57981Y19553D01*
X58026Y19462D01*
X58073Y19374D01*
X58125Y19287D01*
X58179Y19203D01*
X58237Y19120D01*
X58298Y19040D01*
X58362Y18962D01*
X58429Y18887D01*
X58498Y18814D01*
X58571Y18745D01*
X58646Y18678D01*
X58724Y18614D01*
X58804Y18553D01*
X58887Y18495D01*
X58971Y18441D01*
X59058Y18389D01*
X59146Y18342D01*
X59237Y18297D01*
X59329Y18256D01*
X59422Y18219D01*
X59517Y18186D01*
X59614Y18156D01*
X59711Y18130D01*
X59809Y18108D01*
X59908Y18089D01*
X60008Y18075D01*
X60108Y18064D01*
X60208Y18057D01*
X60309Y18054D01*
X60409Y18055D01*
X60510Y18060D01*
X60610Y18069D01*
X60710Y18081D01*
X60810Y18098D01*
X60908Y18118D01*
X61006Y18142D01*
X61103Y18170D01*
X61198Y18202D01*
X61292Y18237D01*
X61385Y18276D01*
X61477Y18319D01*
X61566Y18365D01*
X61654Y18414D01*
X61739Y18467D01*
X61823Y18523D01*
X63950Y20013D01*
X-64439Y11717D02*
X-67098Y13579D01*
X-67098Y13578D02*
X-67189Y13645D01*
X-67279Y13714D01*
X-67366Y13787D01*
X-67450Y13863D01*
X-67531Y13942D01*
X-67610Y14023D01*
X-67686Y14107D01*
X-67759Y14194D01*
X-67828Y14283D01*
X-67895Y14375D01*
X-67958Y14469D01*
X-68018Y14565D01*
X-68075Y14663D01*
X-68128Y14763D01*
X-68178Y14865D01*
X-68224Y14969D01*
X-68266Y15074D01*
X-68305Y15180D01*
X-68340Y15288D01*
X-68371Y15397D01*
X-68399Y15507D01*
X-68422Y15618D01*
X-68442Y15729D01*
X-68458Y15841D01*
X-68470Y15954D01*
X-68478Y16067D01*
X-68482Y16180D01*
X-68482Y16294D01*
X-68478Y16407D01*
X-68470Y16520D01*
X-68458Y16633D01*
X-68442Y16745D01*
X-68422Y16856D01*
X-68399Y16967D01*
X-68371Y17077D01*
X-68340Y17186D01*
X-68305Y17294D01*
X-68266Y17400D01*
X-68224Y17505D01*
X-68178Y17609D01*
X-68128Y17711D01*
X-68075Y17811D01*
X-68018Y17909D01*
X-67958Y18005D01*
X-67895Y18099D01*
X-67828Y18190D01*
X-67759Y18280D01*
X-67686Y18367D01*
X-67610Y18451D01*
X-67531Y18532D01*
X-67450Y18611D01*
X-67366Y18687D01*
X-67279Y18760D01*
X-67189Y18829D01*
X-67098Y18896D01*
X-67004Y18959D01*
X-66908Y19019D01*
X-66810Y19076D01*
X-66710Y19129D01*
X-66608Y19179D01*
X-66504Y19225D01*
X-66399Y19267D01*
X-66293Y19306D01*
X-66185Y19341D01*
X-66076Y19372D01*
X-65966Y19400D01*
X-65855Y19423D01*
X-65744Y19443D01*
X-65632Y19459D01*
X-65519Y19471D01*
X-65406Y19479D01*
X-65293Y19483D01*
X-65179Y19483D01*
X-65066Y19479D01*
X-64953Y19471D01*
X-64840Y19459D01*
X-64728Y19443D01*
X-64617Y19423D01*
X-64506Y19400D01*
X-64396Y19372D01*
X-64287Y19341D01*
X-64179Y19306D01*
X-64073Y19267D01*
X-63968Y19225D01*
X-63864Y19179D01*
X-63762Y19129D01*
X-63662Y19076D01*
X-63564Y19019D01*
X-63468Y18959D01*
X-63374Y18896D01*
X-60928Y23522D02*
X-57738Y21288D01*
X-60928Y23522D02*
X-61012Y23578D01*
X-61097Y23631D01*
X-61185Y23680D01*
X-61274Y23726D01*
X-61366Y23769D01*
X-61459Y23808D01*
X-61553Y23843D01*
X-61648Y23875D01*
X-61745Y23903D01*
X-61843Y23927D01*
X-61941Y23947D01*
X-62041Y23964D01*
X-62141Y23976D01*
X-62241Y23985D01*
X-62342Y23990D01*
X-62442Y23991D01*
X-62543Y23988D01*
X-62643Y23981D01*
X-62743Y23970D01*
X-62843Y23956D01*
X-62942Y23937D01*
X-63040Y23915D01*
X-63137Y23889D01*
X-63234Y23859D01*
X-63329Y23826D01*
X-63422Y23789D01*
X-63514Y23748D01*
X-63605Y23703D01*
X-63693Y23656D01*
X-63780Y23604D01*
X-63864Y23550D01*
X-63947Y23492D01*
X-64027Y23431D01*
X-64105Y23367D01*
X-64180Y23300D01*
X-64253Y23231D01*
X-64322Y23158D01*
X-64389Y23083D01*
X-64453Y23005D01*
X-64514Y22925D01*
X-64572Y22842D01*
X-64626Y22758D01*
X-64678Y22671D01*
X-64725Y22583D01*
X-64770Y22492D01*
X-64811Y22400D01*
X-64848Y22306D01*
X-64881Y22212D01*
X-64911Y22115D01*
X-64937Y22018D01*
X-64959Y21920D01*
X-64978Y21821D01*
X-64992Y21721D01*
X-65003Y21621D01*
X-65010Y21521D01*
X-65013Y21420D01*
X-65012Y21320D01*
X-65007Y21219D01*
X-64998Y21119D01*
X-64986Y21019D01*
X-64969Y20919D01*
X-64949Y20821D01*
X-64925Y20723D01*
X-64897Y20626D01*
X-64865Y20531D01*
X-64830Y20437D01*
X-64791Y20344D01*
X-64748Y20252D01*
X-64702Y20163D01*
X-64653Y20075D01*
X-64600Y19990D01*
X-64544Y19906D01*
X-64484Y19825D01*
X-64422Y19746D01*
X-64356Y19669D01*
X-64288Y19595D01*
X-64217Y19524D01*
X-64143Y19456D01*
X-64066Y19390D01*
X-63987Y19328D01*
X-63906Y19268D01*
X-63907Y19268D02*
X-61780Y17779D01*
X-66569Y27472D02*
X-76461Y20134D01*
X-72950Y31939D01*
X-83165Y24829D02*
X-85824Y26690D01*
X-85915Y26757D01*
X-86005Y26826D01*
X-86092Y26899D01*
X-86176Y26975D01*
X-86257Y27054D01*
X-86336Y27135D01*
X-86412Y27219D01*
X-86485Y27306D01*
X-86554Y27395D01*
X-86621Y27487D01*
X-86684Y27581D01*
X-86744Y27677D01*
X-86801Y27775D01*
X-86854Y27875D01*
X-86904Y27977D01*
X-86950Y28081D01*
X-86992Y28186D01*
X-87031Y28292D01*
X-87066Y28400D01*
X-87097Y28509D01*
X-87125Y28619D01*
X-87148Y28730D01*
X-87168Y28841D01*
X-87184Y28953D01*
X-87196Y29066D01*
X-87204Y29179D01*
X-87208Y29292D01*
X-87208Y29406D01*
X-87204Y29519D01*
X-87196Y29632D01*
X-87184Y29745D01*
X-87168Y29857D01*
X-87148Y29968D01*
X-87125Y30079D01*
X-87097Y30189D01*
X-87066Y30298D01*
X-87031Y30406D01*
X-86992Y30512D01*
X-86950Y30617D01*
X-86904Y30721D01*
X-86854Y30823D01*
X-86801Y30923D01*
X-86744Y31021D01*
X-86684Y31117D01*
X-86621Y31211D01*
X-86554Y31302D01*
X-86485Y31392D01*
X-86412Y31479D01*
X-86336Y31563D01*
X-86257Y31644D01*
X-86176Y31723D01*
X-86092Y31799D01*
X-86005Y31872D01*
X-85915Y31941D01*
X-85824Y32008D01*
X-85730Y32071D01*
X-85634Y32131D01*
X-85536Y32188D01*
X-85436Y32241D01*
X-85334Y32291D01*
X-85230Y32337D01*
X-85125Y32379D01*
X-85019Y32418D01*
X-84911Y32453D01*
X-84802Y32484D01*
X-84692Y32512D01*
X-84581Y32535D01*
X-84470Y32555D01*
X-84358Y32571D01*
X-84245Y32583D01*
X-84132Y32591D01*
X-84019Y32595D01*
X-83905Y32595D01*
X-83792Y32591D01*
X-83679Y32583D01*
X-83566Y32571D01*
X-83454Y32555D01*
X-83343Y32535D01*
X-83232Y32512D01*
X-83122Y32484D01*
X-83013Y32453D01*
X-82905Y32418D01*
X-82799Y32379D01*
X-82694Y32337D01*
X-82590Y32291D01*
X-82488Y32241D01*
X-82388Y32188D01*
X-82290Y32131D01*
X-82194Y32071D01*
X-82100Y32008D01*
X-79654Y36634D02*
X-76464Y34400D01*
X-79654Y36634D02*
X-79738Y36690D01*
X-79823Y36743D01*
X-79911Y36792D01*
X-80000Y36838D01*
X-80092Y36881D01*
X-80185Y36920D01*
X-80279Y36955D01*
X-80374Y36987D01*
X-80471Y37015D01*
X-80569Y37039D01*
X-80667Y37059D01*
X-80767Y37076D01*
X-80867Y37088D01*
X-80967Y37097D01*
X-81068Y37102D01*
X-81168Y37103D01*
X-81269Y37100D01*
X-81369Y37093D01*
X-81469Y37082D01*
X-81569Y37068D01*
X-81668Y37049D01*
X-81766Y37027D01*
X-81863Y37001D01*
X-81960Y36971D01*
X-82055Y36938D01*
X-82148Y36901D01*
X-82240Y36860D01*
X-82331Y36815D01*
X-82419Y36768D01*
X-82506Y36716D01*
X-82590Y36662D01*
X-82673Y36604D01*
X-82753Y36543D01*
X-82831Y36479D01*
X-82906Y36412D01*
X-82979Y36343D01*
X-83048Y36270D01*
X-83115Y36195D01*
X-83179Y36117D01*
X-83240Y36037D01*
X-83298Y35954D01*
X-83352Y35870D01*
X-83404Y35783D01*
X-83451Y35695D01*
X-83496Y35604D01*
X-83537Y35512D01*
X-83574Y35418D01*
X-83607Y35324D01*
X-83637Y35227D01*
X-83663Y35130D01*
X-83685Y35032D01*
X-83704Y34933D01*
X-83718Y34833D01*
X-83729Y34733D01*
X-83736Y34633D01*
X-83739Y34532D01*
X-83738Y34432D01*
X-83733Y34331D01*
X-83724Y34231D01*
X-83712Y34131D01*
X-83695Y34031D01*
X-83675Y33933D01*
X-83651Y33835D01*
X-83623Y33738D01*
X-83591Y33643D01*
X-83556Y33549D01*
X-83517Y33456D01*
X-83474Y33364D01*
X-83428Y33275D01*
X-83379Y33187D01*
X-83326Y33102D01*
X-83270Y33018D01*
X-83210Y32937D01*
X-83148Y32858D01*
X-83082Y32781D01*
X-83014Y32707D01*
X-82943Y32636D01*
X-82869Y32568D01*
X-82792Y32502D01*
X-82713Y32440D01*
X-82632Y32380D01*
X-80506Y30891D01*
X-151552Y135944D02*
X-151552Y139190D01*
X-151550Y139303D01*
X-151544Y139416D01*
X-151534Y139529D01*
X-151520Y139642D01*
X-151503Y139754D01*
X-151481Y139865D01*
X-151456Y139975D01*
X-151426Y140085D01*
X-151393Y140193D01*
X-151356Y140300D01*
X-151316Y140406D01*
X-151271Y140510D01*
X-151223Y140613D01*
X-151172Y140714D01*
X-151117Y140813D01*
X-151059Y140910D01*
X-150997Y141005D01*
X-150932Y141098D01*
X-150864Y141188D01*
X-150793Y141276D01*
X-150718Y141362D01*
X-150641Y141445D01*
X-150561Y141525D01*
X-150478Y141602D01*
X-150392Y141677D01*
X-150304Y141748D01*
X-150214Y141816D01*
X-150121Y141881D01*
X-150026Y141943D01*
X-149929Y142001D01*
X-149830Y142056D01*
X-149729Y142107D01*
X-149626Y142155D01*
X-149522Y142200D01*
X-149416Y142240D01*
X-149309Y142277D01*
X-149201Y142310D01*
X-149091Y142340D01*
X-148981Y142365D01*
X-148870Y142387D01*
X-148758Y142404D01*
X-148645Y142418D01*
X-148532Y142428D01*
X-148419Y142434D01*
X-148306Y142436D01*
X-148193Y142434D01*
X-148080Y142428D01*
X-147967Y142418D01*
X-147854Y142404D01*
X-147742Y142387D01*
X-147631Y142365D01*
X-147521Y142340D01*
X-147411Y142310D01*
X-147303Y142277D01*
X-147196Y142240D01*
X-147090Y142200D01*
X-146986Y142155D01*
X-146883Y142107D01*
X-146782Y142056D01*
X-146683Y142001D01*
X-146586Y141943D01*
X-146491Y141881D01*
X-146398Y141816D01*
X-146308Y141748D01*
X-146220Y141677D01*
X-146134Y141602D01*
X-146051Y141525D01*
X-145971Y141445D01*
X-145894Y141362D01*
X-145819Y141276D01*
X-145748Y141188D01*
X-145680Y141098D01*
X-145615Y141005D01*
X-145553Y140910D01*
X-145495Y140813D01*
X-145440Y140714D01*
X-145389Y140613D01*
X-145341Y140510D01*
X-145296Y140406D01*
X-145256Y140300D01*
X-145219Y140193D01*
X-145186Y140085D01*
X-145156Y139975D01*
X-145131Y139865D01*
X-145109Y139754D01*
X-145092Y139642D01*
X-145078Y139529D01*
X-145068Y139416D01*
X-145062Y139303D01*
X-145060Y139190D01*
X-139868Y139839D02*
X-139868Y135944D01*
X-139868Y139839D02*
X-139870Y139940D01*
X-139876Y140040D01*
X-139886Y140140D01*
X-139899Y140240D01*
X-139917Y140339D01*
X-139938Y140438D01*
X-139963Y140535D01*
X-139992Y140632D01*
X-140025Y140727D01*
X-140061Y140821D01*
X-140101Y140913D01*
X-140144Y141004D01*
X-140191Y141093D01*
X-140241Y141180D01*
X-140295Y141266D01*
X-140352Y141349D01*
X-140412Y141429D01*
X-140475Y141508D01*
X-140542Y141584D01*
X-140611Y141657D01*
X-140683Y141727D01*
X-140757Y141795D01*
X-140834Y141860D01*
X-140914Y141921D01*
X-140996Y141980D01*
X-141080Y142035D01*
X-141166Y142087D01*
X-141254Y142136D01*
X-141344Y142181D01*
X-141436Y142223D01*
X-141529Y142261D01*
X-141624Y142295D01*
X-141719Y142326D01*
X-141816Y142353D01*
X-141914Y142376D01*
X-142013Y142396D01*
X-142113Y142411D01*
X-142213Y142423D01*
X-142313Y142431D01*
X-142414Y142435D01*
X-142514Y142435D01*
X-142615Y142431D01*
X-142715Y142423D01*
X-142815Y142411D01*
X-142915Y142396D01*
X-143014Y142376D01*
X-143112Y142353D01*
X-143209Y142326D01*
X-143304Y142295D01*
X-143399Y142261D01*
X-143492Y142223D01*
X-143584Y142181D01*
X-143674Y142136D01*
X-143762Y142087D01*
X-143848Y142035D01*
X-143932Y141980D01*
X-144014Y141921D01*
X-144094Y141860D01*
X-144171Y141795D01*
X-144245Y141727D01*
X-144317Y141657D01*
X-144386Y141584D01*
X-144453Y141508D01*
X-144516Y141429D01*
X-144576Y141349D01*
X-144633Y141266D01*
X-144687Y141180D01*
X-144737Y141093D01*
X-144784Y141004D01*
X-144827Y140913D01*
X-144867Y140821D01*
X-144903Y140727D01*
X-144936Y140632D01*
X-144965Y140535D01*
X-144990Y140438D01*
X-145011Y140339D01*
X-145029Y140240D01*
X-145042Y140140D01*
X-145052Y140040D01*
X-145058Y139940D01*
X-145060Y139839D01*
X-145061Y139839D02*
X-145061Y137243D01*
X-139868Y146725D02*
X-151552Y150620D01*
X-139868Y154515D01*
X-151552Y158804D02*
X-151552Y162050D01*
X-151550Y162163D01*
X-151544Y162276D01*
X-151534Y162389D01*
X-151520Y162502D01*
X-151503Y162614D01*
X-151481Y162725D01*
X-151456Y162835D01*
X-151426Y162945D01*
X-151393Y163053D01*
X-151356Y163160D01*
X-151316Y163266D01*
X-151271Y163370D01*
X-151223Y163473D01*
X-151172Y163574D01*
X-151117Y163673D01*
X-151059Y163770D01*
X-150997Y163865D01*
X-150932Y163958D01*
X-150864Y164048D01*
X-150793Y164136D01*
X-150718Y164222D01*
X-150641Y164305D01*
X-150561Y164385D01*
X-150478Y164462D01*
X-150392Y164537D01*
X-150304Y164608D01*
X-150214Y164676D01*
X-150121Y164741D01*
X-150026Y164803D01*
X-149929Y164861D01*
X-149830Y164916D01*
X-149729Y164967D01*
X-149626Y165015D01*
X-149522Y165060D01*
X-149416Y165100D01*
X-149309Y165137D01*
X-149201Y165170D01*
X-149091Y165200D01*
X-148981Y165225D01*
X-148870Y165247D01*
X-148758Y165264D01*
X-148645Y165278D01*
X-148532Y165288D01*
X-148419Y165294D01*
X-148306Y165296D01*
X-148193Y165294D01*
X-148080Y165288D01*
X-147967Y165278D01*
X-147854Y165264D01*
X-147742Y165247D01*
X-147631Y165225D01*
X-147521Y165200D01*
X-147411Y165170D01*
X-147303Y165137D01*
X-147196Y165100D01*
X-147090Y165060D01*
X-146986Y165015D01*
X-146883Y164967D01*
X-146782Y164916D01*
X-146683Y164861D01*
X-146586Y164803D01*
X-146491Y164741D01*
X-146398Y164676D01*
X-146308Y164608D01*
X-146220Y164537D01*
X-146134Y164462D01*
X-146051Y164385D01*
X-145971Y164305D01*
X-145894Y164222D01*
X-145819Y164136D01*
X-145748Y164048D01*
X-145680Y163958D01*
X-145615Y163865D01*
X-145553Y163770D01*
X-145495Y163673D01*
X-145440Y163574D01*
X-145389Y163473D01*
X-145341Y163370D01*
X-145296Y163266D01*
X-145256Y163160D01*
X-145219Y163053D01*
X-145186Y162945D01*
X-145156Y162835D01*
X-145131Y162725D01*
X-145109Y162614D01*
X-145092Y162502D01*
X-145078Y162389D01*
X-145068Y162276D01*
X-145062Y162163D01*
X-145060Y162050D01*
X-139868Y162699D02*
X-139868Y158804D01*
X-139868Y162699D02*
X-139870Y162800D01*
X-139876Y162900D01*
X-139886Y163000D01*
X-139899Y163100D01*
X-139917Y163199D01*
X-139938Y163298D01*
X-139963Y163395D01*
X-139992Y163492D01*
X-140025Y163587D01*
X-140061Y163681D01*
X-140101Y163773D01*
X-140144Y163864D01*
X-140191Y163953D01*
X-140241Y164040D01*
X-140295Y164126D01*
X-140352Y164209D01*
X-140412Y164289D01*
X-140475Y164368D01*
X-140542Y164444D01*
X-140611Y164517D01*
X-140683Y164587D01*
X-140757Y164655D01*
X-140834Y164720D01*
X-140914Y164781D01*
X-140996Y164840D01*
X-141080Y164895D01*
X-141166Y164947D01*
X-141254Y164996D01*
X-141344Y165041D01*
X-141436Y165083D01*
X-141529Y165121D01*
X-141624Y165155D01*
X-141719Y165186D01*
X-141816Y165213D01*
X-141914Y165236D01*
X-142013Y165256D01*
X-142113Y165271D01*
X-142213Y165283D01*
X-142313Y165291D01*
X-142414Y165295D01*
X-142514Y165295D01*
X-142615Y165291D01*
X-142715Y165283D01*
X-142815Y165271D01*
X-142915Y165256D01*
X-143014Y165236D01*
X-143112Y165213D01*
X-143209Y165186D01*
X-143304Y165155D01*
X-143399Y165121D01*
X-143492Y165083D01*
X-143584Y165041D01*
X-143674Y164996D01*
X-143762Y164947D01*
X-143848Y164895D01*
X-143932Y164840D01*
X-144014Y164781D01*
X-144094Y164720D01*
X-144171Y164655D01*
X-144245Y164587D01*
X-144317Y164517D01*
X-144386Y164444D01*
X-144453Y164368D01*
X-144516Y164289D01*
X-144576Y164209D01*
X-144633Y164126D01*
X-144687Y164040D01*
X-144737Y163953D01*
X-144784Y163864D01*
X-144827Y163773D01*
X-144867Y163681D01*
X-144903Y163587D01*
X-144936Y163492D01*
X-144965Y163395D01*
X-144990Y163298D01*
X-145011Y163199D01*
X-145029Y163100D01*
X-145042Y163000D01*
X-145052Y162900D01*
X-145058Y162800D01*
X-145060Y162699D01*
X-145061Y162699D02*
X-145061Y160103D01*
X-60396Y278090D02*
X-57738Y279952D01*
X-60396Y278090D02*
X-60490Y278027D01*
X-60586Y277967D01*
X-60684Y277910D01*
X-60784Y277857D01*
X-60886Y277807D01*
X-60990Y277761D01*
X-61095Y277719D01*
X-61201Y277680D01*
X-61309Y277645D01*
X-61418Y277614D01*
X-61528Y277586D01*
X-61639Y277563D01*
X-61750Y277543D01*
X-61862Y277527D01*
X-61975Y277515D01*
X-62088Y277507D01*
X-62201Y277503D01*
X-62315Y277503D01*
X-62428Y277507D01*
X-62541Y277515D01*
X-62654Y277527D01*
X-62766Y277543D01*
X-62877Y277563D01*
X-62988Y277586D01*
X-63098Y277614D01*
X-63207Y277645D01*
X-63315Y277680D01*
X-63421Y277719D01*
X-63526Y277761D01*
X-63630Y277807D01*
X-63732Y277857D01*
X-63832Y277910D01*
X-63930Y277967D01*
X-64026Y278027D01*
X-64120Y278090D01*
X-64211Y278157D01*
X-64301Y278226D01*
X-64388Y278299D01*
X-64472Y278375D01*
X-64553Y278454D01*
X-64632Y278535D01*
X-64708Y278619D01*
X-64781Y278706D01*
X-64850Y278796D01*
X-64917Y278887D01*
X-64980Y278981D01*
X-65040Y279077D01*
X-65097Y279175D01*
X-65150Y279275D01*
X-65200Y279377D01*
X-65246Y279481D01*
X-65288Y279586D01*
X-65327Y279692D01*
X-65362Y279800D01*
X-65393Y279909D01*
X-65421Y280019D01*
X-65444Y280130D01*
X-65464Y280241D01*
X-65480Y280353D01*
X-65492Y280466D01*
X-65500Y280579D01*
X-65504Y280692D01*
X-65504Y280806D01*
X-65500Y280919D01*
X-65492Y281032D01*
X-65480Y281145D01*
X-65464Y281257D01*
X-65444Y281368D01*
X-65421Y281479D01*
X-65393Y281589D01*
X-65362Y281698D01*
X-65327Y281806D01*
X-65288Y281912D01*
X-65246Y282017D01*
X-65200Y282121D01*
X-65150Y282223D01*
X-65097Y282323D01*
X-65040Y282421D01*
X-64980Y282517D01*
X-64917Y282611D01*
X-64850Y282702D01*
X-64781Y282792D01*
X-64708Y282879D01*
X-64632Y282963D01*
X-64553Y283044D01*
X-64472Y283123D01*
X-64388Y283199D01*
X-64301Y283272D01*
X-64212Y283341D01*
X-64120Y283408D01*
X-67630Y287289D02*
X-64439Y289523D01*
X-67629Y287289D02*
X-67710Y287229D01*
X-67789Y287167D01*
X-67866Y287101D01*
X-67940Y287033D01*
X-68011Y286962D01*
X-68079Y286888D01*
X-68145Y286811D01*
X-68207Y286732D01*
X-68267Y286651D01*
X-68323Y286567D01*
X-68376Y286482D01*
X-68425Y286394D01*
X-68471Y286305D01*
X-68514Y286213D01*
X-68553Y286120D01*
X-68588Y286026D01*
X-68620Y285931D01*
X-68648Y285834D01*
X-68672Y285736D01*
X-68692Y285638D01*
X-68709Y285538D01*
X-68721Y285438D01*
X-68730Y285338D01*
X-68735Y285238D01*
X-68736Y285137D01*
X-68733Y285036D01*
X-68726Y284936D01*
X-68715Y284836D01*
X-68701Y284736D01*
X-68682Y284637D01*
X-68660Y284539D01*
X-68634Y284442D01*
X-68604Y284345D01*
X-68571Y284251D01*
X-68534Y284157D01*
X-68493Y284065D01*
X-68448Y283974D01*
X-68401Y283886D01*
X-68349Y283799D01*
X-68295Y283715D01*
X-68237Y283632D01*
X-68176Y283552D01*
X-68112Y283474D01*
X-68045Y283399D01*
X-67976Y283326D01*
X-67903Y283257D01*
X-67828Y283190D01*
X-67750Y283126D01*
X-67670Y283065D01*
X-67587Y283007D01*
X-67503Y282953D01*
X-67416Y282901D01*
X-67328Y282854D01*
X-67237Y282809D01*
X-67145Y282768D01*
X-67051Y282731D01*
X-66957Y282698D01*
X-66860Y282668D01*
X-66763Y282642D01*
X-66665Y282620D01*
X-66566Y282601D01*
X-66466Y282587D01*
X-66366Y282576D01*
X-66266Y282569D01*
X-66165Y282566D01*
X-66064Y282567D01*
X-65964Y282572D01*
X-65864Y282581D01*
X-65764Y282593D01*
X-65664Y282610D01*
X-65566Y282630D01*
X-65468Y282654D01*
X-65371Y282682D01*
X-65276Y282714D01*
X-65182Y282749D01*
X-65089Y282788D01*
X-64997Y282831D01*
X-64908Y282877D01*
X-64820Y282926D01*
X-64735Y282979D01*
X-64651Y283035D01*
X-62524Y284525D01*
X-73271Y283339D02*
X-69759Y271534D01*
X-79651Y278872D01*
X-76464Y266840D02*
X-79122Y264978D01*
X-79216Y264915D01*
X-79312Y264855D01*
X-79410Y264798D01*
X-79510Y264745D01*
X-79612Y264695D01*
X-79716Y264649D01*
X-79821Y264607D01*
X-79927Y264568D01*
X-80035Y264533D01*
X-80144Y264502D01*
X-80254Y264474D01*
X-80365Y264451D01*
X-80476Y264431D01*
X-80588Y264415D01*
X-80701Y264403D01*
X-80814Y264395D01*
X-80927Y264391D01*
X-81041Y264391D01*
X-81154Y264395D01*
X-81267Y264403D01*
X-81380Y264415D01*
X-81492Y264431D01*
X-81603Y264451D01*
X-81714Y264474D01*
X-81824Y264502D01*
X-81933Y264533D01*
X-82041Y264568D01*
X-82147Y264607D01*
X-82252Y264649D01*
X-82356Y264695D01*
X-82458Y264745D01*
X-82558Y264798D01*
X-82656Y264855D01*
X-82752Y264915D01*
X-82846Y264978D01*
X-82937Y265045D01*
X-83027Y265114D01*
X-83114Y265187D01*
X-83198Y265263D01*
X-83279Y265342D01*
X-83358Y265423D01*
X-83434Y265507D01*
X-83507Y265594D01*
X-83576Y265684D01*
X-83643Y265775D01*
X-83706Y265869D01*
X-83766Y265965D01*
X-83823Y266063D01*
X-83876Y266163D01*
X-83926Y266265D01*
X-83972Y266369D01*
X-84014Y266474D01*
X-84053Y266580D01*
X-84088Y266688D01*
X-84119Y266797D01*
X-84147Y266907D01*
X-84170Y267018D01*
X-84190Y267129D01*
X-84206Y267241D01*
X-84218Y267354D01*
X-84226Y267467D01*
X-84230Y267580D01*
X-84230Y267694D01*
X-84226Y267807D01*
X-84218Y267920D01*
X-84206Y268033D01*
X-84190Y268145D01*
X-84170Y268256D01*
X-84147Y268367D01*
X-84119Y268477D01*
X-84088Y268586D01*
X-84053Y268694D01*
X-84014Y268800D01*
X-83972Y268905D01*
X-83926Y269009D01*
X-83876Y269111D01*
X-83823Y269211D01*
X-83766Y269309D01*
X-83706Y269405D01*
X-83643Y269499D01*
X-83576Y269590D01*
X-83507Y269680D01*
X-83434Y269767D01*
X-83358Y269851D01*
X-83279Y269932D01*
X-83198Y270011D01*
X-83114Y270087D01*
X-83027Y270160D01*
X-82938Y270229D01*
X-82846Y270296D01*
X-86356Y274177D02*
X-83165Y276411D01*
X-86355Y274177D02*
X-86436Y274117D01*
X-86515Y274055D01*
X-86592Y273989D01*
X-86666Y273921D01*
X-86737Y273850D01*
X-86805Y273776D01*
X-86871Y273699D01*
X-86933Y273620D01*
X-86993Y273539D01*
X-87049Y273455D01*
X-87102Y273370D01*
X-87151Y273282D01*
X-87197Y273193D01*
X-87240Y273101D01*
X-87279Y273008D01*
X-87314Y272914D01*
X-87346Y272819D01*
X-87374Y272722D01*
X-87398Y272624D01*
X-87418Y272526D01*
X-87435Y272426D01*
X-87447Y272326D01*
X-87456Y272226D01*
X-87461Y272126D01*
X-87462Y272025D01*
X-87459Y271924D01*
X-87452Y271824D01*
X-87441Y271724D01*
X-87427Y271624D01*
X-87408Y271525D01*
X-87386Y271427D01*
X-87360Y271330D01*
X-87330Y271233D01*
X-87297Y271139D01*
X-87260Y271045D01*
X-87219Y270953D01*
X-87174Y270862D01*
X-87127Y270774D01*
X-87075Y270687D01*
X-87021Y270603D01*
X-86963Y270520D01*
X-86902Y270440D01*
X-86838Y270362D01*
X-86771Y270287D01*
X-86702Y270214D01*
X-86629Y270145D01*
X-86554Y270078D01*
X-86476Y270014D01*
X-86396Y269953D01*
X-86313Y269895D01*
X-86229Y269841D01*
X-86142Y269789D01*
X-86054Y269742D01*
X-85963Y269697D01*
X-85871Y269656D01*
X-85777Y269619D01*
X-85683Y269586D01*
X-85586Y269556D01*
X-85489Y269530D01*
X-85391Y269508D01*
X-85292Y269489D01*
X-85192Y269475D01*
X-85092Y269464D01*
X-84992Y269457D01*
X-84891Y269454D01*
X-84790Y269455D01*
X-84690Y269460D01*
X-84590Y269469D01*
X-84490Y269481D01*
X-84390Y269498D01*
X-84292Y269518D01*
X-84194Y269542D01*
X-84097Y269570D01*
X-84002Y269602D01*
X-83908Y269637D01*
X-83815Y269676D01*
X-83723Y269719D01*
X-83634Y269765D01*
X-83546Y269814D01*
X-83461Y269867D01*
X-83377Y269923D01*
X-81250Y271413D01*
D11*
X108286Y222660D02*
X108286Y204880D01*
X108286Y222660D02*
X103348Y222660D01*
X103208Y222658D01*
X103069Y222652D01*
X102929Y222642D01*
X102790Y222628D01*
X102651Y222611D01*
X102513Y222589D01*
X102376Y222563D01*
X102239Y222534D01*
X102103Y222501D01*
X101969Y222464D01*
X101835Y222423D01*
X101703Y222378D01*
X101571Y222329D01*
X101442Y222277D01*
X101314Y222222D01*
X101187Y222162D01*
X101062Y222099D01*
X100939Y222033D01*
X100818Y221963D01*
X100699Y221890D01*
X100582Y221813D01*
X100468Y221733D01*
X100355Y221650D01*
X100245Y221564D01*
X100138Y221474D01*
X100033Y221382D01*
X99931Y221287D01*
X99831Y221189D01*
X99734Y221088D01*
X99640Y220984D01*
X99550Y220878D01*
X99462Y220769D01*
X99377Y220658D01*
X99296Y220544D01*
X99217Y220429D01*
X99142Y220311D01*
X99071Y220191D01*
X99003Y220068D01*
X98938Y219945D01*
X98877Y219819D01*
X98819Y219691D01*
X98765Y219563D01*
X98715Y219432D01*
X98668Y219300D01*
X98625Y219167D01*
X98586Y219033D01*
X98551Y218898D01*
X98520Y218762D01*
X98492Y218624D01*
X98469Y218487D01*
X98449Y218348D01*
X98433Y218209D01*
X98421Y218070D01*
X98413Y217931D01*
X98409Y217791D01*
X98409Y217651D01*
X98413Y217511D01*
X98421Y217372D01*
X98433Y217233D01*
X98449Y217094D01*
X98469Y216955D01*
X98492Y216818D01*
X98520Y216680D01*
X98551Y216544D01*
X98586Y216409D01*
X98625Y216275D01*
X98668Y216142D01*
X98715Y216010D01*
X98765Y215879D01*
X98819Y215751D01*
X98877Y215623D01*
X98938Y215497D01*
X99003Y215374D01*
X99071Y215251D01*
X99142Y215131D01*
X99217Y215013D01*
X99296Y214898D01*
X99377Y214784D01*
X99462Y214673D01*
X99550Y214564D01*
X99640Y214458D01*
X99734Y214354D01*
X99831Y214253D01*
X99931Y214155D01*
X100033Y214060D01*
X100138Y213968D01*
X100245Y213878D01*
X100355Y213792D01*
X100468Y213709D01*
X100582Y213629D01*
X100699Y213552D01*
X100818Y213479D01*
X100939Y213409D01*
X101062Y213343D01*
X101187Y213280D01*
X101314Y213220D01*
X101442Y213165D01*
X101571Y213113D01*
X101703Y213064D01*
X101835Y213019D01*
X101969Y212978D01*
X102103Y212941D01*
X102239Y212908D01*
X102376Y212879D01*
X102513Y212853D01*
X102651Y212831D01*
X102790Y212814D01*
X102929Y212800D01*
X103069Y212790D01*
X103208Y212784D01*
X103348Y212782D01*
X108286Y212782D01*
X92291Y218709D02*
X87352Y222660D01*
X87352Y204880D01*
X82414Y204880D02*
X92291Y204880D01*
X110241Y77894D02*
X110241Y60114D01*
X110241Y77894D02*
X105302Y77894D01*
X105162Y77892D01*
X105023Y77886D01*
X104883Y77876D01*
X104744Y77862D01*
X104605Y77845D01*
X104467Y77823D01*
X104330Y77797D01*
X104193Y77768D01*
X104057Y77735D01*
X103923Y77698D01*
X103789Y77657D01*
X103657Y77612D01*
X103525Y77563D01*
X103396Y77511D01*
X103268Y77456D01*
X103141Y77396D01*
X103016Y77333D01*
X102893Y77267D01*
X102772Y77197D01*
X102653Y77124D01*
X102536Y77047D01*
X102422Y76967D01*
X102309Y76884D01*
X102199Y76798D01*
X102092Y76708D01*
X101987Y76616D01*
X101885Y76521D01*
X101785Y76423D01*
X101688Y76322D01*
X101594Y76218D01*
X101504Y76112D01*
X101416Y76003D01*
X101331Y75892D01*
X101250Y75778D01*
X101171Y75663D01*
X101096Y75545D01*
X101025Y75424D01*
X100957Y75302D01*
X100892Y75179D01*
X100831Y75053D01*
X100773Y74925D01*
X100719Y74797D01*
X100669Y74666D01*
X100622Y74534D01*
X100579Y74401D01*
X100540Y74267D01*
X100505Y74132D01*
X100474Y73996D01*
X100446Y73858D01*
X100423Y73721D01*
X100403Y73582D01*
X100387Y73443D01*
X100375Y73304D01*
X100367Y73165D01*
X100363Y73025D01*
X100363Y72885D01*
X100367Y72745D01*
X100375Y72606D01*
X100387Y72467D01*
X100403Y72328D01*
X100423Y72189D01*
X100446Y72052D01*
X100474Y71914D01*
X100505Y71778D01*
X100540Y71643D01*
X100579Y71509D01*
X100622Y71376D01*
X100669Y71244D01*
X100719Y71113D01*
X100773Y70985D01*
X100831Y70857D01*
X100892Y70731D01*
X100957Y70608D01*
X101025Y70485D01*
X101096Y70365D01*
X101171Y70247D01*
X101250Y70132D01*
X101331Y70018D01*
X101416Y69907D01*
X101504Y69798D01*
X101594Y69692D01*
X101688Y69588D01*
X101785Y69487D01*
X101885Y69389D01*
X101987Y69294D01*
X102092Y69202D01*
X102199Y69112D01*
X102309Y69026D01*
X102422Y68943D01*
X102536Y68863D01*
X102653Y68786D01*
X102772Y68713D01*
X102893Y68643D01*
X103016Y68577D01*
X103141Y68514D01*
X103268Y68454D01*
X103396Y68399D01*
X103525Y68347D01*
X103657Y68298D01*
X103789Y68253D01*
X103923Y68212D01*
X104057Y68175D01*
X104193Y68142D01*
X104330Y68113D01*
X104467Y68087D01*
X104605Y68065D01*
X104744Y68048D01*
X104883Y68034D01*
X105023Y68024D01*
X105162Y68018D01*
X105302Y68016D01*
X110241Y68016D01*
X88813Y77894D02*
X88681Y77892D01*
X88550Y77886D01*
X88418Y77876D01*
X88287Y77863D01*
X88157Y77845D01*
X88027Y77824D01*
X87897Y77799D01*
X87769Y77770D01*
X87641Y77737D01*
X87515Y77700D01*
X87389Y77660D01*
X87265Y77616D01*
X87142Y77568D01*
X87021Y77517D01*
X86901Y77462D01*
X86783Y77404D01*
X86667Y77342D01*
X86553Y77276D01*
X86440Y77208D01*
X86330Y77136D01*
X86222Y77061D01*
X86116Y76982D01*
X86012Y76901D01*
X85911Y76816D01*
X85813Y76729D01*
X85717Y76638D01*
X85624Y76545D01*
X85533Y76449D01*
X85446Y76351D01*
X85361Y76250D01*
X85280Y76146D01*
X85201Y76040D01*
X85126Y75932D01*
X85054Y75822D01*
X84986Y75709D01*
X84920Y75595D01*
X84858Y75479D01*
X84800Y75361D01*
X84745Y75241D01*
X84694Y75120D01*
X84646Y74997D01*
X84602Y74873D01*
X84562Y74747D01*
X84525Y74621D01*
X84492Y74493D01*
X84463Y74365D01*
X84438Y74235D01*
X84417Y74105D01*
X84399Y73975D01*
X84386Y73844D01*
X84376Y73712D01*
X84370Y73581D01*
X84368Y73449D01*
X88813Y77895D02*
X88963Y77893D01*
X89112Y77887D01*
X89261Y77877D01*
X89410Y77864D01*
X89559Y77846D01*
X89707Y77825D01*
X89855Y77799D01*
X90001Y77770D01*
X90147Y77737D01*
X90292Y77700D01*
X90436Y77659D01*
X90579Y77615D01*
X90721Y77567D01*
X90861Y77515D01*
X91000Y77460D01*
X91138Y77401D01*
X91273Y77338D01*
X91408Y77272D01*
X91540Y77202D01*
X91670Y77129D01*
X91799Y77052D01*
X91926Y76972D01*
X92050Y76889D01*
X92172Y76803D01*
X92292Y76713D01*
X92409Y76620D01*
X92524Y76525D01*
X92637Y76426D01*
X92747Y76324D01*
X92854Y76220D01*
X92958Y76113D01*
X93060Y76003D01*
X93158Y75890D01*
X93254Y75775D01*
X93346Y75657D01*
X93436Y75537D01*
X93522Y75415D01*
X93605Y75291D01*
X93685Y75164D01*
X93761Y75036D01*
X93834Y74905D01*
X93904Y74772D01*
X93970Y74638D01*
X94032Y74502D01*
X94091Y74365D01*
X94147Y74226D01*
X94198Y74085D01*
X94246Y73944D01*
X85850Y69992D02*
X85754Y70085D01*
X85662Y70181D01*
X85572Y70280D01*
X85485Y70381D01*
X85401Y70484D01*
X85319Y70589D01*
X85241Y70697D01*
X85166Y70807D01*
X85093Y70919D01*
X85024Y71033D01*
X84958Y71149D01*
X84896Y71267D01*
X84837Y71386D01*
X84781Y71507D01*
X84728Y71630D01*
X84679Y71754D01*
X84634Y71879D01*
X84591Y72006D01*
X84553Y72133D01*
X84518Y72262D01*
X84487Y72391D01*
X84459Y72522D01*
X84435Y72653D01*
X84414Y72785D01*
X84398Y72917D01*
X84385Y73050D01*
X84375Y73183D01*
X84370Y73316D01*
X84368Y73449D01*
X85850Y69992D02*
X94246Y60114D01*
X84368Y60114D01*
X71998Y67029D02*
X71998Y72955D01*
X71998Y67029D02*
X68541Y62584D01*
X71998Y67029D02*
X75455Y62584D01*
X71998Y67029D02*
X66565Y69004D01*
X71998Y67029D02*
X77431Y69004D01*
X12426Y37910D02*
X12426Y20130D01*
X12426Y37910D02*
X7488Y37910D01*
X7348Y37908D01*
X7209Y37902D01*
X7069Y37892D01*
X6930Y37878D01*
X6791Y37861D01*
X6653Y37839D01*
X6516Y37813D01*
X6379Y37784D01*
X6243Y37751D01*
X6109Y37714D01*
X5975Y37673D01*
X5843Y37628D01*
X5711Y37579D01*
X5582Y37527D01*
X5454Y37472D01*
X5327Y37412D01*
X5202Y37349D01*
X5079Y37283D01*
X4958Y37213D01*
X4839Y37140D01*
X4722Y37063D01*
X4608Y36983D01*
X4495Y36900D01*
X4385Y36814D01*
X4278Y36724D01*
X4173Y36632D01*
X4071Y36537D01*
X3971Y36439D01*
X3874Y36338D01*
X3780Y36234D01*
X3690Y36128D01*
X3602Y36019D01*
X3517Y35908D01*
X3436Y35794D01*
X3357Y35679D01*
X3282Y35561D01*
X3211Y35440D01*
X3143Y35318D01*
X3078Y35195D01*
X3017Y35069D01*
X2959Y34941D01*
X2905Y34813D01*
X2855Y34682D01*
X2808Y34550D01*
X2765Y34417D01*
X2726Y34283D01*
X2691Y34148D01*
X2660Y34012D01*
X2632Y33874D01*
X2609Y33737D01*
X2589Y33598D01*
X2573Y33459D01*
X2561Y33320D01*
X2553Y33181D01*
X2549Y33041D01*
X2549Y32901D01*
X2553Y32761D01*
X2561Y32622D01*
X2573Y32483D01*
X2589Y32344D01*
X2609Y32205D01*
X2632Y32068D01*
X2660Y31930D01*
X2691Y31794D01*
X2726Y31659D01*
X2765Y31525D01*
X2808Y31392D01*
X2855Y31260D01*
X2905Y31129D01*
X2959Y31001D01*
X3017Y30873D01*
X3078Y30747D01*
X3143Y30624D01*
X3211Y30501D01*
X3282Y30381D01*
X3357Y30263D01*
X3436Y30148D01*
X3517Y30034D01*
X3602Y29923D01*
X3690Y29814D01*
X3780Y29708D01*
X3874Y29604D01*
X3971Y29503D01*
X4071Y29405D01*
X4173Y29310D01*
X4278Y29218D01*
X4385Y29128D01*
X4495Y29042D01*
X4608Y28959D01*
X4722Y28879D01*
X4839Y28802D01*
X4958Y28729D01*
X5079Y28659D01*
X5202Y28593D01*
X5327Y28530D01*
X5454Y28470D01*
X5582Y28415D01*
X5711Y28363D01*
X5843Y28314D01*
X5975Y28269D01*
X6109Y28228D01*
X6243Y28191D01*
X6379Y28158D01*
X6516Y28129D01*
X6653Y28103D01*
X6791Y28081D01*
X6930Y28064D01*
X7069Y28050D01*
X7209Y28040D01*
X7348Y28034D01*
X7488Y28032D01*
X12426Y28032D01*
X-3569Y20130D02*
X-8508Y20130D01*
X-8648Y20132D01*
X-8787Y20138D01*
X-8927Y20148D01*
X-9066Y20162D01*
X-9205Y20179D01*
X-9343Y20201D01*
X-9480Y20227D01*
X-9617Y20256D01*
X-9753Y20289D01*
X-9887Y20326D01*
X-10021Y20367D01*
X-10153Y20412D01*
X-10285Y20461D01*
X-10414Y20513D01*
X-10542Y20568D01*
X-10669Y20628D01*
X-10794Y20691D01*
X-10917Y20757D01*
X-11038Y20827D01*
X-11157Y20900D01*
X-11274Y20977D01*
X-11388Y21057D01*
X-11501Y21140D01*
X-11611Y21226D01*
X-11718Y21316D01*
X-11823Y21408D01*
X-11925Y21503D01*
X-12025Y21601D01*
X-12122Y21702D01*
X-12216Y21806D01*
X-12306Y21912D01*
X-12394Y22021D01*
X-12479Y22132D01*
X-12560Y22246D01*
X-12639Y22361D01*
X-12714Y22479D01*
X-12785Y22599D01*
X-12853Y22722D01*
X-12918Y22845D01*
X-12979Y22971D01*
X-13037Y23099D01*
X-13091Y23227D01*
X-13141Y23358D01*
X-13188Y23490D01*
X-13231Y23623D01*
X-13270Y23757D01*
X-13305Y23892D01*
X-13336Y24028D01*
X-13364Y24166D01*
X-13387Y24303D01*
X-13407Y24442D01*
X-13423Y24581D01*
X-13435Y24720D01*
X-13443Y24859D01*
X-13447Y24999D01*
X-13447Y25139D01*
X-13443Y25279D01*
X-13435Y25418D01*
X-13423Y25557D01*
X-13407Y25696D01*
X-13387Y25835D01*
X-13364Y25972D01*
X-13336Y26110D01*
X-13305Y26246D01*
X-13270Y26381D01*
X-13231Y26515D01*
X-13188Y26648D01*
X-13141Y26780D01*
X-13091Y26911D01*
X-13037Y27039D01*
X-12979Y27167D01*
X-12918Y27293D01*
X-12853Y27416D01*
X-12785Y27538D01*
X-12714Y27659D01*
X-12639Y27777D01*
X-12560Y27892D01*
X-12479Y28006D01*
X-12394Y28117D01*
X-12306Y28226D01*
X-12216Y28332D01*
X-12122Y28436D01*
X-12025Y28537D01*
X-11925Y28635D01*
X-11823Y28730D01*
X-11718Y28822D01*
X-11611Y28912D01*
X-11501Y28998D01*
X-11388Y29081D01*
X-11274Y29161D01*
X-11157Y29238D01*
X-11038Y29311D01*
X-10917Y29381D01*
X-10794Y29447D01*
X-10669Y29510D01*
X-10542Y29570D01*
X-10414Y29625D01*
X-10285Y29677D01*
X-10153Y29726D01*
X-10021Y29771D01*
X-9887Y29812D01*
X-9753Y29849D01*
X-9617Y29882D01*
X-9480Y29911D01*
X-9343Y29937D01*
X-9205Y29959D01*
X-9066Y29976D01*
X-8927Y29990D01*
X-8787Y30000D01*
X-8648Y30006D01*
X-8508Y30008D01*
X-9495Y37910D02*
X-3569Y37910D01*
X-9495Y37910D02*
X-9619Y37908D01*
X-9743Y37902D01*
X-9867Y37892D01*
X-9990Y37879D01*
X-10113Y37861D01*
X-10235Y37840D01*
X-10357Y37815D01*
X-10478Y37786D01*
X-10597Y37753D01*
X-10716Y37717D01*
X-10833Y37676D01*
X-10949Y37633D01*
X-11064Y37585D01*
X-11177Y37534D01*
X-11289Y37479D01*
X-11398Y37421D01*
X-11506Y37360D01*
X-11612Y37295D01*
X-11716Y37227D01*
X-11817Y37155D01*
X-11917Y37081D01*
X-12013Y37003D01*
X-12108Y36923D01*
X-12200Y36839D01*
X-12289Y36753D01*
X-12375Y36664D01*
X-12459Y36572D01*
X-12539Y36477D01*
X-12617Y36381D01*
X-12691Y36281D01*
X-12763Y36180D01*
X-12831Y36076D01*
X-12896Y35970D01*
X-12957Y35862D01*
X-13015Y35753D01*
X-13070Y35641D01*
X-13121Y35528D01*
X-13169Y35413D01*
X-13212Y35297D01*
X-13253Y35180D01*
X-13289Y35061D01*
X-13322Y34942D01*
X-13351Y34821D01*
X-13376Y34699D01*
X-13397Y34577D01*
X-13415Y34454D01*
X-13428Y34331D01*
X-13438Y34207D01*
X-13444Y34083D01*
X-13446Y33959D01*
X-13444Y33835D01*
X-13438Y33711D01*
X-13428Y33587D01*
X-13415Y33464D01*
X-13397Y33341D01*
X-13376Y33219D01*
X-13351Y33097D01*
X-13322Y32976D01*
X-13289Y32857D01*
X-13253Y32738D01*
X-13212Y32621D01*
X-13169Y32505D01*
X-13121Y32390D01*
X-13070Y32277D01*
X-13015Y32165D01*
X-12957Y32056D01*
X-12896Y31948D01*
X-12831Y31842D01*
X-12763Y31738D01*
X-12691Y31637D01*
X-12617Y31537D01*
X-12539Y31441D01*
X-12459Y31346D01*
X-12375Y31254D01*
X-12289Y31165D01*
X-12200Y31079D01*
X-12108Y30995D01*
X-12013Y30915D01*
X-11917Y30837D01*
X-11817Y30763D01*
X-11716Y30691D01*
X-11612Y30623D01*
X-11506Y30558D01*
X-11398Y30497D01*
X-11289Y30439D01*
X-11177Y30384D01*
X-11064Y30333D01*
X-10949Y30285D01*
X-10833Y30242D01*
X-10716Y30201D01*
X-10597Y30165D01*
X-10478Y30132D01*
X-10357Y30103D01*
X-10235Y30078D01*
X-10113Y30057D01*
X-9990Y30039D01*
X-9867Y30026D01*
X-9743Y30016D01*
X-9619Y30010D01*
X-9495Y30008D01*
X-5544Y30008D01*
X-85631Y58806D02*
X-85631Y76586D01*
X-90570Y76586D01*
X-90710Y76584D01*
X-90849Y76578D01*
X-90989Y76568D01*
X-91128Y76554D01*
X-91267Y76537D01*
X-91405Y76515D01*
X-91542Y76489D01*
X-91679Y76460D01*
X-91815Y76427D01*
X-91949Y76390D01*
X-92083Y76349D01*
X-92215Y76304D01*
X-92347Y76255D01*
X-92476Y76203D01*
X-92604Y76148D01*
X-92731Y76088D01*
X-92856Y76025D01*
X-92979Y75959D01*
X-93100Y75889D01*
X-93219Y75816D01*
X-93336Y75739D01*
X-93450Y75659D01*
X-93563Y75576D01*
X-93673Y75490D01*
X-93780Y75400D01*
X-93885Y75308D01*
X-93987Y75213D01*
X-94087Y75115D01*
X-94184Y75014D01*
X-94278Y74910D01*
X-94368Y74804D01*
X-94456Y74695D01*
X-94541Y74584D01*
X-94622Y74470D01*
X-94701Y74355D01*
X-94776Y74237D01*
X-94847Y74116D01*
X-94915Y73994D01*
X-94980Y73871D01*
X-95041Y73745D01*
X-95099Y73617D01*
X-95153Y73489D01*
X-95203Y73358D01*
X-95250Y73226D01*
X-95293Y73093D01*
X-95332Y72959D01*
X-95367Y72824D01*
X-95398Y72688D01*
X-95426Y72550D01*
X-95449Y72413D01*
X-95469Y72274D01*
X-95485Y72135D01*
X-95497Y71996D01*
X-95505Y71857D01*
X-95509Y71717D01*
X-95509Y71577D01*
X-95505Y71437D01*
X-95497Y71298D01*
X-95485Y71159D01*
X-95469Y71020D01*
X-95449Y70881D01*
X-95426Y70744D01*
X-95398Y70606D01*
X-95367Y70470D01*
X-95332Y70335D01*
X-95293Y70201D01*
X-95250Y70068D01*
X-95203Y69936D01*
X-95153Y69805D01*
X-95099Y69677D01*
X-95041Y69549D01*
X-94980Y69423D01*
X-94915Y69300D01*
X-94847Y69177D01*
X-94776Y69057D01*
X-94701Y68939D01*
X-94622Y68824D01*
X-94541Y68710D01*
X-94456Y68599D01*
X-94368Y68490D01*
X-94278Y68384D01*
X-94184Y68280D01*
X-94087Y68179D01*
X-93987Y68081D01*
X-93885Y67986D01*
X-93780Y67894D01*
X-93673Y67804D01*
X-93563Y67718D01*
X-93450Y67635D01*
X-93336Y67555D01*
X-93219Y67478D01*
X-93100Y67405D01*
X-92979Y67335D01*
X-92856Y67269D01*
X-92731Y67206D01*
X-92604Y67146D01*
X-92476Y67091D01*
X-92347Y67039D01*
X-92215Y66990D01*
X-92083Y66945D01*
X-91949Y66904D01*
X-91815Y66867D01*
X-91679Y66834D01*
X-91542Y66805D01*
X-91405Y66779D01*
X-91267Y66757D01*
X-91128Y66740D01*
X-90989Y66726D01*
X-90849Y66716D01*
X-90710Y66710D01*
X-90570Y66708D01*
X-85631Y66708D01*
X-101626Y62757D02*
X-105577Y76586D01*
X-101626Y62757D02*
X-111504Y62757D01*
X-108540Y66708D02*
X-108540Y58806D01*
X-84704Y204880D02*
X-84704Y222660D01*
X-89643Y222660D01*
X-89783Y222658D01*
X-89922Y222652D01*
X-90062Y222642D01*
X-90201Y222628D01*
X-90340Y222611D01*
X-90478Y222589D01*
X-90615Y222563D01*
X-90752Y222534D01*
X-90888Y222501D01*
X-91022Y222464D01*
X-91156Y222423D01*
X-91288Y222378D01*
X-91420Y222329D01*
X-91549Y222277D01*
X-91677Y222222D01*
X-91804Y222162D01*
X-91929Y222099D01*
X-92052Y222033D01*
X-92173Y221963D01*
X-92292Y221890D01*
X-92409Y221813D01*
X-92523Y221733D01*
X-92636Y221650D01*
X-92746Y221564D01*
X-92853Y221474D01*
X-92958Y221382D01*
X-93060Y221287D01*
X-93160Y221189D01*
X-93257Y221088D01*
X-93351Y220984D01*
X-93441Y220878D01*
X-93529Y220769D01*
X-93614Y220658D01*
X-93695Y220544D01*
X-93774Y220429D01*
X-93849Y220311D01*
X-93920Y220191D01*
X-93988Y220068D01*
X-94053Y219945D01*
X-94114Y219819D01*
X-94172Y219691D01*
X-94226Y219563D01*
X-94276Y219432D01*
X-94323Y219300D01*
X-94366Y219167D01*
X-94405Y219033D01*
X-94440Y218898D01*
X-94471Y218762D01*
X-94499Y218624D01*
X-94522Y218487D01*
X-94542Y218348D01*
X-94558Y218209D01*
X-94570Y218070D01*
X-94578Y217931D01*
X-94582Y217791D01*
X-94582Y217651D01*
X-94578Y217511D01*
X-94570Y217372D01*
X-94558Y217233D01*
X-94542Y217094D01*
X-94522Y216955D01*
X-94499Y216818D01*
X-94471Y216680D01*
X-94440Y216544D01*
X-94405Y216409D01*
X-94366Y216275D01*
X-94323Y216142D01*
X-94276Y216010D01*
X-94226Y215879D01*
X-94172Y215751D01*
X-94114Y215623D01*
X-94053Y215497D01*
X-93988Y215374D01*
X-93920Y215251D01*
X-93849Y215131D01*
X-93774Y215013D01*
X-93695Y214898D01*
X-93614Y214784D01*
X-93529Y214673D01*
X-93441Y214564D01*
X-93351Y214458D01*
X-93257Y214354D01*
X-93160Y214253D01*
X-93060Y214155D01*
X-92958Y214060D01*
X-92853Y213968D01*
X-92746Y213878D01*
X-92636Y213792D01*
X-92523Y213709D01*
X-92409Y213629D01*
X-92292Y213552D01*
X-92173Y213479D01*
X-92052Y213409D01*
X-91929Y213343D01*
X-91804Y213280D01*
X-91677Y213220D01*
X-91549Y213165D01*
X-91420Y213113D01*
X-91288Y213064D01*
X-91156Y213019D01*
X-91022Y212978D01*
X-90888Y212941D01*
X-90752Y212908D01*
X-90615Y212879D01*
X-90478Y212853D01*
X-90340Y212831D01*
X-90201Y212814D01*
X-90062Y212800D01*
X-89922Y212790D01*
X-89783Y212784D01*
X-89643Y212782D01*
X-84704Y212782D01*
X-100699Y204880D02*
X-106625Y204880D01*
X-106749Y204882D01*
X-106873Y204888D01*
X-106997Y204898D01*
X-107120Y204911D01*
X-107243Y204929D01*
X-107365Y204950D01*
X-107487Y204975D01*
X-107608Y205004D01*
X-107727Y205037D01*
X-107846Y205073D01*
X-107963Y205114D01*
X-108079Y205157D01*
X-108194Y205205D01*
X-108307Y205256D01*
X-108419Y205311D01*
X-108528Y205369D01*
X-108636Y205430D01*
X-108742Y205495D01*
X-108846Y205563D01*
X-108947Y205635D01*
X-109047Y205709D01*
X-109143Y205787D01*
X-109238Y205867D01*
X-109330Y205951D01*
X-109419Y206037D01*
X-109505Y206126D01*
X-109589Y206218D01*
X-109669Y206313D01*
X-109747Y206409D01*
X-109821Y206509D01*
X-109893Y206610D01*
X-109961Y206714D01*
X-110026Y206820D01*
X-110087Y206928D01*
X-110145Y207037D01*
X-110200Y207149D01*
X-110251Y207262D01*
X-110299Y207377D01*
X-110342Y207493D01*
X-110383Y207610D01*
X-110419Y207729D01*
X-110452Y207848D01*
X-110481Y207969D01*
X-110506Y208091D01*
X-110527Y208213D01*
X-110545Y208336D01*
X-110558Y208459D01*
X-110568Y208583D01*
X-110574Y208707D01*
X-110576Y208831D01*
X-110576Y210807D01*
X-110574Y210931D01*
X-110568Y211055D01*
X-110558Y211179D01*
X-110545Y211302D01*
X-110527Y211425D01*
X-110506Y211547D01*
X-110481Y211669D01*
X-110452Y211790D01*
X-110419Y211909D01*
X-110383Y212028D01*
X-110342Y212145D01*
X-110299Y212261D01*
X-110251Y212376D01*
X-110200Y212489D01*
X-110145Y212601D01*
X-110087Y212710D01*
X-110026Y212818D01*
X-109961Y212924D01*
X-109893Y213028D01*
X-109821Y213129D01*
X-109747Y213229D01*
X-109669Y213325D01*
X-109589Y213420D01*
X-109505Y213512D01*
X-109419Y213601D01*
X-109330Y213687D01*
X-109238Y213771D01*
X-109143Y213851D01*
X-109047Y213929D01*
X-108947Y214003D01*
X-108846Y214075D01*
X-108742Y214143D01*
X-108636Y214208D01*
X-108528Y214269D01*
X-108419Y214327D01*
X-108307Y214382D01*
X-108194Y214433D01*
X-108079Y214481D01*
X-107963Y214524D01*
X-107846Y214565D01*
X-107727Y214601D01*
X-107608Y214634D01*
X-107487Y214663D01*
X-107365Y214688D01*
X-107243Y214709D01*
X-107120Y214727D01*
X-106997Y214740D01*
X-106873Y214750D01*
X-106749Y214756D01*
X-106625Y214758D01*
X-100699Y214758D01*
X-100699Y222660D01*
X-110576Y222660D01*
X12426Y263330D02*
X12426Y281110D01*
X7488Y281110D01*
X7348Y281108D01*
X7209Y281102D01*
X7069Y281092D01*
X6930Y281078D01*
X6791Y281061D01*
X6653Y281039D01*
X6516Y281013D01*
X6379Y280984D01*
X6243Y280951D01*
X6109Y280914D01*
X5975Y280873D01*
X5843Y280828D01*
X5711Y280779D01*
X5582Y280727D01*
X5454Y280672D01*
X5327Y280612D01*
X5202Y280549D01*
X5079Y280483D01*
X4958Y280413D01*
X4839Y280340D01*
X4722Y280263D01*
X4608Y280183D01*
X4495Y280100D01*
X4385Y280014D01*
X4278Y279924D01*
X4173Y279832D01*
X4071Y279737D01*
X3971Y279639D01*
X3874Y279538D01*
X3780Y279434D01*
X3690Y279328D01*
X3602Y279219D01*
X3517Y279108D01*
X3436Y278994D01*
X3357Y278879D01*
X3282Y278761D01*
X3211Y278641D01*
X3143Y278518D01*
X3078Y278395D01*
X3017Y278269D01*
X2959Y278141D01*
X2905Y278013D01*
X2855Y277882D01*
X2808Y277750D01*
X2765Y277617D01*
X2726Y277483D01*
X2691Y277348D01*
X2660Y277212D01*
X2632Y277074D01*
X2609Y276937D01*
X2589Y276798D01*
X2573Y276659D01*
X2561Y276520D01*
X2553Y276381D01*
X2549Y276241D01*
X2549Y276101D01*
X2553Y275961D01*
X2561Y275822D01*
X2573Y275683D01*
X2589Y275544D01*
X2609Y275405D01*
X2632Y275268D01*
X2660Y275130D01*
X2691Y274994D01*
X2726Y274859D01*
X2765Y274725D01*
X2808Y274592D01*
X2855Y274460D01*
X2905Y274329D01*
X2959Y274201D01*
X3017Y274073D01*
X3078Y273947D01*
X3143Y273824D01*
X3211Y273702D01*
X3282Y273581D01*
X3357Y273463D01*
X3436Y273348D01*
X3517Y273234D01*
X3602Y273123D01*
X3690Y273014D01*
X3780Y272908D01*
X3874Y272804D01*
X3971Y272703D01*
X4071Y272605D01*
X4173Y272510D01*
X4278Y272418D01*
X4385Y272328D01*
X4495Y272242D01*
X4608Y272159D01*
X4722Y272079D01*
X4839Y272002D01*
X4958Y271929D01*
X5079Y271859D01*
X5202Y271793D01*
X5327Y271730D01*
X5454Y271670D01*
X5582Y271615D01*
X5711Y271563D01*
X5843Y271514D01*
X5975Y271469D01*
X6109Y271428D01*
X6243Y271391D01*
X6379Y271358D01*
X6516Y271329D01*
X6653Y271303D01*
X6791Y271281D01*
X6930Y271264D01*
X7069Y271250D01*
X7209Y271240D01*
X7348Y271234D01*
X7488Y271232D01*
X12426Y271232D01*
X-3569Y273208D02*
X-9495Y273208D01*
X-9619Y273206D01*
X-9743Y273200D01*
X-9867Y273190D01*
X-9990Y273177D01*
X-10113Y273159D01*
X-10235Y273138D01*
X-10357Y273113D01*
X-10478Y273084D01*
X-10597Y273051D01*
X-10716Y273015D01*
X-10833Y272974D01*
X-10949Y272931D01*
X-11064Y272883D01*
X-11177Y272832D01*
X-11289Y272777D01*
X-11398Y272719D01*
X-11506Y272658D01*
X-11612Y272593D01*
X-11716Y272525D01*
X-11817Y272453D01*
X-11917Y272379D01*
X-12013Y272301D01*
X-12108Y272221D01*
X-12200Y272137D01*
X-12289Y272051D01*
X-12375Y271962D01*
X-12459Y271870D01*
X-12539Y271775D01*
X-12617Y271679D01*
X-12691Y271579D01*
X-12763Y271478D01*
X-12831Y271374D01*
X-12896Y271268D01*
X-12957Y271160D01*
X-13015Y271051D01*
X-13070Y270939D01*
X-13121Y270826D01*
X-13169Y270711D01*
X-13212Y270595D01*
X-13253Y270478D01*
X-13289Y270359D01*
X-13322Y270240D01*
X-13351Y270119D01*
X-13376Y269997D01*
X-13397Y269875D01*
X-13415Y269752D01*
X-13428Y269629D01*
X-13438Y269505D01*
X-13444Y269381D01*
X-13446Y269257D01*
X-13446Y268269D01*
X-13447Y268269D02*
X-13445Y268129D01*
X-13439Y267990D01*
X-13429Y267850D01*
X-13415Y267711D01*
X-13398Y267572D01*
X-13376Y267434D01*
X-13350Y267297D01*
X-13321Y267160D01*
X-13288Y267024D01*
X-13251Y266890D01*
X-13210Y266756D01*
X-13165Y266624D01*
X-13116Y266492D01*
X-13064Y266363D01*
X-13009Y266235D01*
X-12949Y266108D01*
X-12886Y265983D01*
X-12820Y265860D01*
X-12750Y265739D01*
X-12677Y265620D01*
X-12600Y265503D01*
X-12520Y265389D01*
X-12437Y265276D01*
X-12351Y265166D01*
X-12261Y265059D01*
X-12169Y264954D01*
X-12074Y264852D01*
X-11976Y264752D01*
X-11875Y264655D01*
X-11771Y264561D01*
X-11665Y264471D01*
X-11556Y264383D01*
X-11445Y264298D01*
X-11331Y264217D01*
X-11216Y264138D01*
X-11098Y264063D01*
X-10977Y263992D01*
X-10855Y263924D01*
X-10732Y263859D01*
X-10606Y263798D01*
X-10478Y263740D01*
X-10350Y263686D01*
X-10219Y263636D01*
X-10087Y263589D01*
X-9954Y263546D01*
X-9820Y263507D01*
X-9685Y263472D01*
X-9549Y263441D01*
X-9411Y263413D01*
X-9274Y263390D01*
X-9135Y263370D01*
X-8996Y263354D01*
X-8857Y263342D01*
X-8718Y263334D01*
X-8578Y263330D01*
X-8438Y263330D01*
X-8298Y263334D01*
X-8159Y263342D01*
X-8020Y263354D01*
X-7881Y263370D01*
X-7742Y263390D01*
X-7605Y263413D01*
X-7467Y263441D01*
X-7331Y263472D01*
X-7196Y263507D01*
X-7062Y263546D01*
X-6929Y263589D01*
X-6797Y263636D01*
X-6666Y263686D01*
X-6538Y263740D01*
X-6410Y263798D01*
X-6284Y263859D01*
X-6161Y263924D01*
X-6038Y263992D01*
X-5918Y264063D01*
X-5800Y264138D01*
X-5685Y264217D01*
X-5571Y264298D01*
X-5460Y264383D01*
X-5351Y264471D01*
X-5245Y264561D01*
X-5141Y264655D01*
X-5040Y264752D01*
X-4942Y264852D01*
X-4847Y264954D01*
X-4755Y265059D01*
X-4665Y265166D01*
X-4579Y265276D01*
X-4496Y265389D01*
X-4416Y265503D01*
X-4339Y265620D01*
X-4266Y265739D01*
X-4196Y265860D01*
X-4130Y265983D01*
X-4067Y266108D01*
X-4007Y266235D01*
X-3952Y266363D01*
X-3900Y266492D01*
X-3851Y266624D01*
X-3806Y266756D01*
X-3765Y266890D01*
X-3728Y267024D01*
X-3695Y267160D01*
X-3666Y267297D01*
X-3640Y267434D01*
X-3618Y267572D01*
X-3601Y267711D01*
X-3587Y267850D01*
X-3577Y267990D01*
X-3571Y268129D01*
X-3569Y268269D01*
X-3569Y273208D01*
X-3571Y273402D01*
X-3579Y273596D01*
X-3590Y273789D01*
X-3607Y273983D01*
X-3628Y274175D01*
X-3655Y274367D01*
X-3685Y274559D01*
X-3721Y274750D01*
X-3761Y274939D01*
X-3806Y275128D01*
X-3855Y275316D01*
X-3909Y275502D01*
X-3968Y275687D01*
X-4031Y275870D01*
X-4098Y276052D01*
X-4171Y276232D01*
X-4247Y276410D01*
X-4328Y276587D01*
X-4413Y276761D01*
X-4502Y276933D01*
X-4596Y277103D01*
X-4693Y277270D01*
X-4795Y277436D01*
X-4901Y277598D01*
X-5010Y277758D01*
X-5124Y277915D01*
X-5241Y278070D01*
X-5363Y278221D01*
X-5488Y278369D01*
X-5616Y278515D01*
X-5748Y278657D01*
X-5883Y278796D01*
X-6022Y278931D01*
X-6164Y279063D01*
X-6310Y279191D01*
X-6458Y279316D01*
X-6609Y279438D01*
X-6764Y279555D01*
X-6921Y279669D01*
X-7081Y279778D01*
X-7243Y279884D01*
X-7409Y279986D01*
X-7576Y280083D01*
X-7746Y280177D01*
X-7918Y280266D01*
X-8092Y280351D01*
X-8269Y280432D01*
X-8447Y280508D01*
X-8627Y280581D01*
X-8809Y280648D01*
X-8992Y280711D01*
X-9177Y280770D01*
X-9363Y280824D01*
X-9551Y280873D01*
X-9740Y280918D01*
X-9929Y280958D01*
X-10120Y280994D01*
X-10312Y281024D01*
X-10504Y281051D01*
X-10696Y281072D01*
X-10890Y281089D01*
X-11083Y281100D01*
X-11277Y281108D01*
X-11471Y281110D01*
X-3935Y253253D02*
X-3935Y235473D01*
X-3935Y245351D02*
X-13812Y245351D01*
X-13812Y253253D02*
X-13812Y235473D01*
X-21243Y244363D02*
X-21247Y244713D01*
X-21260Y245062D01*
X-21281Y245411D01*
X-21310Y245760D01*
X-21347Y246108D01*
X-21393Y246455D01*
X-21447Y246800D01*
X-21509Y247144D01*
X-21580Y247487D01*
X-21659Y247828D01*
X-21745Y248167D01*
X-21840Y248503D01*
X-21943Y248838D01*
X-22054Y249169D01*
X-22172Y249499D01*
X-22299Y249825D01*
X-22433Y250148D01*
X-22575Y250467D01*
X-22725Y250784D01*
X-22725Y250783D02*
X-22765Y250896D01*
X-22809Y251006D01*
X-22857Y251116D01*
X-22908Y251224D01*
X-22963Y251329D01*
X-23021Y251434D01*
X-23083Y251536D01*
X-23148Y251636D01*
X-23216Y251734D01*
X-23287Y251830D01*
X-23362Y251923D01*
X-23439Y252014D01*
X-23519Y252102D01*
X-23603Y252187D01*
X-23688Y252270D01*
X-23777Y252350D01*
X-23868Y252427D01*
X-23962Y252501D01*
X-24058Y252572D01*
X-24156Y252640D01*
X-24256Y252704D01*
X-24359Y252766D01*
X-24463Y252823D01*
X-24569Y252878D01*
X-24677Y252929D01*
X-24787Y252976D01*
X-24898Y253020D01*
X-25010Y253060D01*
X-25124Y253096D01*
X-25238Y253129D01*
X-25354Y253158D01*
X-25471Y253183D01*
X-25588Y253204D01*
X-25706Y253222D01*
X-25825Y253235D01*
X-25944Y253245D01*
X-26063Y253251D01*
X-26182Y253253D01*
X-26182Y253254D02*
X-26301Y253252D01*
X-26420Y253246D01*
X-26539Y253236D01*
X-26658Y253223D01*
X-26776Y253205D01*
X-26893Y253184D01*
X-27010Y253159D01*
X-27126Y253130D01*
X-27240Y253097D01*
X-27354Y253061D01*
X-27466Y253021D01*
X-27577Y252977D01*
X-27687Y252930D01*
X-27795Y252879D01*
X-27901Y252824D01*
X-28005Y252767D01*
X-28108Y252705D01*
X-28208Y252641D01*
X-28306Y252573D01*
X-28402Y252502D01*
X-28496Y252428D01*
X-28587Y252351D01*
X-28676Y252271D01*
X-28762Y252188D01*
X-28845Y252103D01*
X-28925Y252015D01*
X-29002Y251924D01*
X-29077Y251831D01*
X-29148Y251735D01*
X-29216Y251637D01*
X-29281Y251537D01*
X-29343Y251435D01*
X-29401Y251330D01*
X-29456Y251224D01*
X-29507Y251117D01*
X-29555Y251007D01*
X-29599Y250897D01*
X-29639Y250784D01*
X-29789Y250467D01*
X-29931Y250148D01*
X-30065Y249825D01*
X-30192Y249499D01*
X-30310Y249169D01*
X-30421Y248838D01*
X-30524Y248503D01*
X-30619Y248167D01*
X-30705Y247828D01*
X-30784Y247487D01*
X-30855Y247144D01*
X-30917Y246800D01*
X-30971Y246455D01*
X-31017Y246108D01*
X-31054Y245760D01*
X-31083Y245411D01*
X-31104Y245062D01*
X-31117Y244713D01*
X-31121Y244363D01*
X-21244Y244363D02*
X-21248Y244013D01*
X-21261Y243664D01*
X-21282Y243315D01*
X-21311Y242966D01*
X-21348Y242618D01*
X-21394Y242271D01*
X-21448Y241926D01*
X-21510Y241582D01*
X-21581Y241239D01*
X-21660Y240898D01*
X-21746Y240559D01*
X-21841Y240223D01*
X-21944Y239888D01*
X-22055Y239557D01*
X-22173Y239228D01*
X-22300Y238901D01*
X-22434Y238578D01*
X-22576Y238259D01*
X-22726Y237943D01*
X-22725Y237943D02*
X-22765Y237830D01*
X-22809Y237720D01*
X-22857Y237610D01*
X-22908Y237502D01*
X-22963Y237396D01*
X-23021Y237292D01*
X-23083Y237190D01*
X-23148Y237090D01*
X-23216Y236992D01*
X-23287Y236896D01*
X-23362Y236803D01*
X-23439Y236712D01*
X-23519Y236624D01*
X-23603Y236539D01*
X-23688Y236456D01*
X-23777Y236376D01*
X-23868Y236299D01*
X-23962Y236225D01*
X-24058Y236154D01*
X-24156Y236086D01*
X-24256Y236022D01*
X-24359Y235960D01*
X-24463Y235902D01*
X-24569Y235848D01*
X-24677Y235797D01*
X-24787Y235750D01*
X-24898Y235706D01*
X-25010Y235666D01*
X-25124Y235630D01*
X-25238Y235597D01*
X-25354Y235568D01*
X-25471Y235543D01*
X-25588Y235522D01*
X-25706Y235504D01*
X-25825Y235491D01*
X-25944Y235481D01*
X-26063Y235475D01*
X-26182Y235473D01*
X-29639Y237943D02*
X-29789Y238259D01*
X-29931Y238578D01*
X-30065Y238901D01*
X-30192Y239228D01*
X-30310Y239557D01*
X-30421Y239888D01*
X-30524Y240223D01*
X-30619Y240559D01*
X-30705Y240898D01*
X-30784Y241239D01*
X-30855Y241582D01*
X-30917Y241926D01*
X-30971Y242271D01*
X-31017Y242618D01*
X-31054Y242966D01*
X-31083Y243315D01*
X-31104Y243664D01*
X-31117Y244013D01*
X-31121Y244363D01*
X-29639Y237943D02*
X-29599Y237830D01*
X-29555Y237720D01*
X-29507Y237610D01*
X-29456Y237503D01*
X-29401Y237397D01*
X-29343Y237292D01*
X-29281Y237190D01*
X-29216Y237090D01*
X-29148Y236992D01*
X-29077Y236896D01*
X-29002Y236803D01*
X-28925Y236712D01*
X-28845Y236624D01*
X-28762Y236539D01*
X-28676Y236456D01*
X-28587Y236376D01*
X-28496Y236299D01*
X-28402Y236225D01*
X-28306Y236154D01*
X-28208Y236086D01*
X-28108Y236022D01*
X-28005Y235960D01*
X-27901Y235903D01*
X-27795Y235848D01*
X-27687Y235797D01*
X-27577Y235750D01*
X-27466Y235706D01*
X-27354Y235666D01*
X-27240Y235630D01*
X-27126Y235597D01*
X-27010Y235568D01*
X-26893Y235543D01*
X-26776Y235522D01*
X-26658Y235504D01*
X-26539Y235491D01*
X-26420Y235481D01*
X-26301Y235475D01*
X-26182Y235473D01*
X-22231Y239424D02*
X-30133Y249302D01*
X-41945Y243375D02*
X-47872Y243375D01*
X-41945Y243376D02*
X-41821Y243378D01*
X-41697Y243384D01*
X-41573Y243394D01*
X-41450Y243407D01*
X-41327Y243425D01*
X-41205Y243446D01*
X-41083Y243471D01*
X-40962Y243500D01*
X-40843Y243533D01*
X-40724Y243569D01*
X-40607Y243610D01*
X-40491Y243653D01*
X-40376Y243701D01*
X-40263Y243752D01*
X-40151Y243807D01*
X-40042Y243865D01*
X-39934Y243926D01*
X-39828Y243991D01*
X-39724Y244059D01*
X-39623Y244131D01*
X-39523Y244205D01*
X-39427Y244283D01*
X-39332Y244363D01*
X-39240Y244447D01*
X-39151Y244533D01*
X-39065Y244622D01*
X-38981Y244714D01*
X-38901Y244809D01*
X-38823Y244905D01*
X-38749Y245005D01*
X-38677Y245106D01*
X-38609Y245210D01*
X-38544Y245316D01*
X-38483Y245424D01*
X-38425Y245533D01*
X-38370Y245645D01*
X-38319Y245758D01*
X-38271Y245873D01*
X-38228Y245989D01*
X-38187Y246106D01*
X-38151Y246225D01*
X-38118Y246344D01*
X-38089Y246465D01*
X-38064Y246587D01*
X-38043Y246709D01*
X-38025Y246832D01*
X-38012Y246955D01*
X-38002Y247079D01*
X-37996Y247203D01*
X-37994Y247327D01*
X-37994Y248314D01*
X-37996Y248454D01*
X-38002Y248593D01*
X-38012Y248733D01*
X-38026Y248872D01*
X-38043Y249011D01*
X-38065Y249149D01*
X-38091Y249286D01*
X-38120Y249423D01*
X-38153Y249559D01*
X-38190Y249693D01*
X-38231Y249827D01*
X-38276Y249959D01*
X-38325Y250091D01*
X-38377Y250220D01*
X-38432Y250348D01*
X-38492Y250475D01*
X-38555Y250600D01*
X-38621Y250723D01*
X-38691Y250844D01*
X-38764Y250963D01*
X-38841Y251080D01*
X-38921Y251194D01*
X-39004Y251307D01*
X-39090Y251417D01*
X-39180Y251524D01*
X-39272Y251629D01*
X-39367Y251731D01*
X-39465Y251831D01*
X-39566Y251928D01*
X-39670Y252022D01*
X-39776Y252112D01*
X-39885Y252200D01*
X-39996Y252285D01*
X-40110Y252366D01*
X-40225Y252445D01*
X-40343Y252520D01*
X-40464Y252591D01*
X-40586Y252659D01*
X-40709Y252724D01*
X-40835Y252785D01*
X-40963Y252843D01*
X-41091Y252897D01*
X-41222Y252947D01*
X-41354Y252994D01*
X-41487Y253037D01*
X-41621Y253076D01*
X-41756Y253111D01*
X-41892Y253142D01*
X-42030Y253170D01*
X-42167Y253193D01*
X-42306Y253213D01*
X-42445Y253229D01*
X-42584Y253241D01*
X-42723Y253249D01*
X-42863Y253253D01*
X-43003Y253253D01*
X-43143Y253249D01*
X-43282Y253241D01*
X-43421Y253229D01*
X-43560Y253213D01*
X-43699Y253193D01*
X-43836Y253170D01*
X-43974Y253142D01*
X-44110Y253111D01*
X-44245Y253076D01*
X-44379Y253037D01*
X-44512Y252994D01*
X-44644Y252947D01*
X-44775Y252897D01*
X-44903Y252843D01*
X-45031Y252785D01*
X-45157Y252724D01*
X-45280Y252659D01*
X-45403Y252591D01*
X-45523Y252520D01*
X-45641Y252445D01*
X-45756Y252366D01*
X-45870Y252285D01*
X-45981Y252200D01*
X-46090Y252112D01*
X-46196Y252022D01*
X-46300Y251928D01*
X-46401Y251831D01*
X-46499Y251731D01*
X-46594Y251629D01*
X-46686Y251524D01*
X-46776Y251417D01*
X-46862Y251307D01*
X-46945Y251194D01*
X-47025Y251080D01*
X-47102Y250963D01*
X-47175Y250844D01*
X-47245Y250723D01*
X-47311Y250600D01*
X-47374Y250475D01*
X-47434Y250348D01*
X-47489Y250220D01*
X-47541Y250091D01*
X-47590Y249959D01*
X-47635Y249827D01*
X-47676Y249693D01*
X-47713Y249559D01*
X-47746Y249423D01*
X-47775Y249286D01*
X-47801Y249149D01*
X-47823Y249011D01*
X-47840Y248872D01*
X-47854Y248733D01*
X-47864Y248593D01*
X-47870Y248454D01*
X-47872Y248314D01*
X-47872Y243375D01*
X-47871Y243375D02*
X-47869Y243181D01*
X-47861Y242987D01*
X-47850Y242794D01*
X-47833Y242600D01*
X-47812Y242408D01*
X-47785Y242216D01*
X-47755Y242024D01*
X-47719Y241833D01*
X-47679Y241644D01*
X-47634Y241455D01*
X-47585Y241267D01*
X-47531Y241081D01*
X-47472Y240896D01*
X-47409Y240713D01*
X-47342Y240531D01*
X-47269Y240351D01*
X-47193Y240173D01*
X-47112Y239996D01*
X-47027Y239822D01*
X-46938Y239650D01*
X-46844Y239480D01*
X-46747Y239313D01*
X-46645Y239147D01*
X-46539Y238985D01*
X-46430Y238825D01*
X-46316Y238668D01*
X-46199Y238513D01*
X-46077Y238362D01*
X-45952Y238214D01*
X-45824Y238068D01*
X-45692Y237926D01*
X-45557Y237787D01*
X-45418Y237652D01*
X-45276Y237520D01*
X-45130Y237392D01*
X-44982Y237267D01*
X-44831Y237145D01*
X-44676Y237028D01*
X-44519Y236914D01*
X-44359Y236805D01*
X-44197Y236699D01*
X-44031Y236597D01*
X-43864Y236500D01*
X-43694Y236406D01*
X-43522Y236317D01*
X-43348Y236232D01*
X-43171Y236151D01*
X-42993Y236075D01*
X-42813Y236002D01*
X-42631Y235935D01*
X-42448Y235872D01*
X-42263Y235813D01*
X-42077Y235759D01*
X-41889Y235710D01*
X-41700Y235665D01*
X-41511Y235625D01*
X-41320Y235589D01*
X-41128Y235559D01*
X-40936Y235532D01*
X-40744Y235511D01*
X-40550Y235494D01*
X-40357Y235483D01*
X-40163Y235475D01*
X-39969Y235473D01*
X-55388Y235473D02*
X-55388Y253253D01*
X-60327Y253253D01*
X-60467Y253251D01*
X-60606Y253245D01*
X-60746Y253235D01*
X-60885Y253221D01*
X-61024Y253204D01*
X-61162Y253182D01*
X-61299Y253156D01*
X-61436Y253127D01*
X-61572Y253094D01*
X-61706Y253057D01*
X-61840Y253016D01*
X-61972Y252971D01*
X-62104Y252922D01*
X-62233Y252870D01*
X-62361Y252815D01*
X-62488Y252755D01*
X-62613Y252692D01*
X-62736Y252626D01*
X-62857Y252556D01*
X-62976Y252483D01*
X-63093Y252406D01*
X-63207Y252326D01*
X-63320Y252243D01*
X-63430Y252157D01*
X-63537Y252067D01*
X-63642Y251975D01*
X-63744Y251880D01*
X-63844Y251782D01*
X-63941Y251681D01*
X-64035Y251577D01*
X-64125Y251471D01*
X-64213Y251362D01*
X-64298Y251251D01*
X-64379Y251137D01*
X-64458Y251022D01*
X-64533Y250904D01*
X-64604Y250784D01*
X-64672Y250661D01*
X-64737Y250538D01*
X-64798Y250412D01*
X-64856Y250284D01*
X-64910Y250156D01*
X-64960Y250025D01*
X-65007Y249893D01*
X-65050Y249760D01*
X-65089Y249626D01*
X-65124Y249491D01*
X-65155Y249355D01*
X-65183Y249217D01*
X-65206Y249080D01*
X-65226Y248941D01*
X-65242Y248802D01*
X-65254Y248663D01*
X-65262Y248524D01*
X-65266Y248384D01*
X-65266Y248244D01*
X-65262Y248104D01*
X-65254Y247965D01*
X-65242Y247826D01*
X-65226Y247687D01*
X-65206Y247548D01*
X-65183Y247411D01*
X-65155Y247273D01*
X-65124Y247137D01*
X-65089Y247002D01*
X-65050Y246868D01*
X-65007Y246735D01*
X-64960Y246603D01*
X-64910Y246472D01*
X-64856Y246344D01*
X-64798Y246216D01*
X-64737Y246090D01*
X-64672Y245967D01*
X-64604Y245844D01*
X-64533Y245724D01*
X-64458Y245606D01*
X-64379Y245491D01*
X-64298Y245377D01*
X-64213Y245266D01*
X-64125Y245157D01*
X-64035Y245051D01*
X-63941Y244947D01*
X-63844Y244846D01*
X-63744Y244748D01*
X-63642Y244653D01*
X-63537Y244561D01*
X-63430Y244471D01*
X-63320Y244385D01*
X-63207Y244302D01*
X-63093Y244222D01*
X-62976Y244145D01*
X-62857Y244072D01*
X-62736Y244002D01*
X-62613Y243936D01*
X-62488Y243873D01*
X-62361Y243813D01*
X-62233Y243758D01*
X-62104Y243706D01*
X-61972Y243657D01*
X-61840Y243612D01*
X-61706Y243571D01*
X-61572Y243534D01*
X-61436Y243501D01*
X-61299Y243472D01*
X-61162Y243446D01*
X-61024Y243424D01*
X-60885Y243407D01*
X-60746Y243393D01*
X-60606Y243383D01*
X-60467Y243377D01*
X-60327Y243375D01*
X-55388Y243375D01*
X-61315Y243375D02*
X-65266Y235473D01*
X-76004Y243375D02*
X-81931Y243375D01*
X-76004Y243376D02*
X-75880Y243378D01*
X-75756Y243384D01*
X-75632Y243394D01*
X-75509Y243407D01*
X-75386Y243425D01*
X-75264Y243446D01*
X-75142Y243471D01*
X-75021Y243500D01*
X-74902Y243533D01*
X-74783Y243569D01*
X-74666Y243610D01*
X-74550Y243653D01*
X-74435Y243701D01*
X-74322Y243752D01*
X-74210Y243807D01*
X-74101Y243865D01*
X-73993Y243926D01*
X-73887Y243991D01*
X-73783Y244059D01*
X-73682Y244131D01*
X-73582Y244205D01*
X-73486Y244283D01*
X-73391Y244363D01*
X-73299Y244447D01*
X-73210Y244533D01*
X-73124Y244622D01*
X-73040Y244714D01*
X-72960Y244809D01*
X-72882Y244905D01*
X-72808Y245005D01*
X-72736Y245106D01*
X-72668Y245210D01*
X-72603Y245316D01*
X-72542Y245424D01*
X-72484Y245533D01*
X-72429Y245645D01*
X-72378Y245758D01*
X-72330Y245873D01*
X-72287Y245989D01*
X-72246Y246106D01*
X-72210Y246225D01*
X-72177Y246344D01*
X-72148Y246465D01*
X-72123Y246587D01*
X-72102Y246709D01*
X-72084Y246832D01*
X-72071Y246955D01*
X-72061Y247079D01*
X-72055Y247203D01*
X-72053Y247327D01*
X-72053Y248314D01*
X-72055Y248454D01*
X-72061Y248593D01*
X-72071Y248733D01*
X-72085Y248872D01*
X-72102Y249011D01*
X-72124Y249149D01*
X-72150Y249286D01*
X-72179Y249423D01*
X-72212Y249559D01*
X-72249Y249693D01*
X-72290Y249827D01*
X-72335Y249959D01*
X-72384Y250091D01*
X-72436Y250220D01*
X-72491Y250348D01*
X-72551Y250475D01*
X-72614Y250600D01*
X-72680Y250723D01*
X-72750Y250844D01*
X-72823Y250963D01*
X-72900Y251080D01*
X-72980Y251194D01*
X-73063Y251307D01*
X-73149Y251417D01*
X-73239Y251524D01*
X-73331Y251629D01*
X-73426Y251731D01*
X-73524Y251831D01*
X-73625Y251928D01*
X-73729Y252022D01*
X-73835Y252112D01*
X-73944Y252200D01*
X-74055Y252285D01*
X-74169Y252366D01*
X-74284Y252445D01*
X-74402Y252520D01*
X-74523Y252591D01*
X-74645Y252659D01*
X-74768Y252724D01*
X-74894Y252785D01*
X-75022Y252843D01*
X-75150Y252897D01*
X-75281Y252947D01*
X-75413Y252994D01*
X-75546Y253037D01*
X-75680Y253076D01*
X-75815Y253111D01*
X-75951Y253142D01*
X-76089Y253170D01*
X-76226Y253193D01*
X-76365Y253213D01*
X-76504Y253229D01*
X-76643Y253241D01*
X-76782Y253249D01*
X-76922Y253253D01*
X-77062Y253253D01*
X-77202Y253249D01*
X-77341Y253241D01*
X-77480Y253229D01*
X-77619Y253213D01*
X-77758Y253193D01*
X-77895Y253170D01*
X-78033Y253142D01*
X-78169Y253111D01*
X-78304Y253076D01*
X-78438Y253037D01*
X-78571Y252994D01*
X-78703Y252947D01*
X-78834Y252897D01*
X-78962Y252843D01*
X-79090Y252785D01*
X-79216Y252724D01*
X-79339Y252659D01*
X-79462Y252591D01*
X-79582Y252520D01*
X-79700Y252445D01*
X-79815Y252366D01*
X-79929Y252285D01*
X-80040Y252200D01*
X-80149Y252112D01*
X-80255Y252022D01*
X-80359Y251928D01*
X-80460Y251831D01*
X-80558Y251731D01*
X-80653Y251629D01*
X-80745Y251524D01*
X-80835Y251417D01*
X-80921Y251307D01*
X-81004Y251194D01*
X-81084Y251080D01*
X-81161Y250963D01*
X-81234Y250844D01*
X-81304Y250723D01*
X-81370Y250600D01*
X-81433Y250475D01*
X-81493Y250348D01*
X-81548Y250220D01*
X-81600Y250091D01*
X-81649Y249959D01*
X-81694Y249827D01*
X-81735Y249693D01*
X-81772Y249559D01*
X-81805Y249423D01*
X-81834Y249286D01*
X-81860Y249149D01*
X-81882Y249011D01*
X-81899Y248872D01*
X-81913Y248733D01*
X-81923Y248593D01*
X-81929Y248454D01*
X-81931Y248314D01*
X-81931Y243375D01*
X-81929Y243181D01*
X-81921Y242987D01*
X-81910Y242794D01*
X-81893Y242600D01*
X-81872Y242408D01*
X-81845Y242216D01*
X-81815Y242024D01*
X-81779Y241833D01*
X-81739Y241644D01*
X-81694Y241455D01*
X-81645Y241267D01*
X-81591Y241081D01*
X-81532Y240896D01*
X-81469Y240713D01*
X-81402Y240531D01*
X-81329Y240351D01*
X-81253Y240173D01*
X-81172Y239996D01*
X-81087Y239822D01*
X-80998Y239650D01*
X-80904Y239480D01*
X-80807Y239313D01*
X-80705Y239147D01*
X-80599Y238985D01*
X-80490Y238825D01*
X-80376Y238668D01*
X-80259Y238513D01*
X-80137Y238362D01*
X-80012Y238214D01*
X-79884Y238068D01*
X-79752Y237926D01*
X-79617Y237787D01*
X-79478Y237652D01*
X-79336Y237520D01*
X-79190Y237392D01*
X-79042Y237267D01*
X-78891Y237145D01*
X-78736Y237028D01*
X-78579Y236914D01*
X-78419Y236805D01*
X-78257Y236699D01*
X-78091Y236597D01*
X-77924Y236500D01*
X-77754Y236406D01*
X-77582Y236317D01*
X-77408Y236232D01*
X-77231Y236151D01*
X-77053Y236075D01*
X-76873Y236002D01*
X-76691Y235935D01*
X-76508Y235872D01*
X-76323Y235813D01*
X-76137Y235759D01*
X-75949Y235710D01*
X-75760Y235665D01*
X-75571Y235625D01*
X-75380Y235589D01*
X-75188Y235559D01*
X-74996Y235532D01*
X-74804Y235511D01*
X-74610Y235494D01*
X-74417Y235483D01*
X-74223Y235475D01*
X-74029Y235473D01*
X-88804Y249302D02*
X-93742Y253253D01*
X-93742Y235473D01*
X-88804Y235473D02*
X-98681Y235473D01*
X23667Y198945D02*
X43797Y198945D01*
D12*
X33840Y215798D02*
X33840Y222402D01*
D13*
X31681Y240168D02*
X31681Y241805D01*
X31681Y240168D02*
X31683Y240090D01*
X31688Y240012D01*
X31698Y239935D01*
X31711Y239858D01*
X31727Y239782D01*
X31747Y239707D01*
X31771Y239633D01*
X31798Y239560D01*
X31829Y239488D01*
X31863Y239418D01*
X31900Y239350D01*
X31941Y239283D01*
X31985Y239218D01*
X32031Y239156D01*
X32081Y239096D01*
X32133Y239038D01*
X32188Y238983D01*
X32246Y238931D01*
X32306Y238881D01*
X32368Y238835D01*
X32433Y238791D01*
X32499Y238750D01*
X32568Y238713D01*
X32638Y238679D01*
X32710Y238648D01*
X32783Y238621D01*
X32857Y238597D01*
X32932Y238577D01*
X33008Y238561D01*
X33085Y238548D01*
X33162Y238538D01*
X33240Y238533D01*
X33318Y238531D01*
X37410Y238531D01*
X37488Y238533D01*
X37566Y238538D01*
X37643Y238548D01*
X37720Y238561D01*
X37796Y238577D01*
X37871Y238597D01*
X37945Y238621D01*
X38018Y238648D01*
X38090Y238679D01*
X38160Y238713D01*
X38229Y238750D01*
X38295Y238791D01*
X38360Y238835D01*
X38422Y238881D01*
X38482Y238931D01*
X38540Y238983D01*
X38595Y239038D01*
X38647Y239096D01*
X38697Y239156D01*
X38743Y239218D01*
X38787Y239283D01*
X38828Y239350D01*
X38865Y239418D01*
X38899Y239488D01*
X38930Y239560D01*
X38957Y239633D01*
X38981Y239707D01*
X39001Y239782D01*
X39017Y239858D01*
X39030Y239935D01*
X39040Y240012D01*
X39045Y240090D01*
X39047Y240168D01*
X39047Y241805D01*
X37410Y244650D02*
X39047Y246696D01*
X31681Y246696D01*
X31681Y244650D02*
X31681Y248742D01*
X37410Y251965D02*
X39047Y254011D01*
X31681Y254011D01*
X31681Y251965D02*
X31681Y256058D01*
D12*
X22410Y222132D02*
X22410Y215528D01*
D13*
X18981Y239898D02*
X18981Y241535D01*
X18981Y239898D02*
X18983Y239820D01*
X18988Y239742D01*
X18998Y239665D01*
X19011Y239588D01*
X19027Y239512D01*
X19047Y239437D01*
X19071Y239363D01*
X19098Y239290D01*
X19129Y239218D01*
X19163Y239148D01*
X19200Y239080D01*
X19241Y239013D01*
X19285Y238948D01*
X19331Y238886D01*
X19381Y238826D01*
X19433Y238768D01*
X19488Y238713D01*
X19546Y238661D01*
X19606Y238611D01*
X19668Y238565D01*
X19733Y238521D01*
X19799Y238480D01*
X19868Y238443D01*
X19938Y238409D01*
X20010Y238378D01*
X20083Y238351D01*
X20157Y238327D01*
X20232Y238307D01*
X20308Y238291D01*
X20385Y238278D01*
X20462Y238268D01*
X20540Y238263D01*
X20618Y238261D01*
X24710Y238261D01*
X24788Y238263D01*
X24866Y238268D01*
X24943Y238278D01*
X25020Y238291D01*
X25096Y238307D01*
X25171Y238327D01*
X25245Y238351D01*
X25318Y238378D01*
X25390Y238409D01*
X25460Y238443D01*
X25529Y238480D01*
X25595Y238521D01*
X25660Y238565D01*
X25722Y238611D01*
X25782Y238661D01*
X25840Y238713D01*
X25895Y238768D01*
X25947Y238826D01*
X25997Y238886D01*
X26043Y238948D01*
X26087Y239013D01*
X26128Y239080D01*
X26165Y239148D01*
X26199Y239218D01*
X26230Y239290D01*
X26257Y239363D01*
X26281Y239437D01*
X26301Y239512D01*
X26317Y239588D01*
X26330Y239665D01*
X26340Y239742D01*
X26345Y239820D01*
X26347Y239898D01*
X26347Y241535D01*
X24710Y244380D02*
X26347Y246426D01*
X18981Y246426D01*
X18981Y244380D02*
X18981Y248472D01*
X22664Y251696D02*
X22817Y251698D01*
X22970Y251704D01*
X23122Y251713D01*
X23275Y251727D01*
X23427Y251744D01*
X23578Y251765D01*
X23729Y251790D01*
X23879Y251819D01*
X24029Y251851D01*
X24177Y251888D01*
X24325Y251928D01*
X24472Y251971D01*
X24617Y252019D01*
X24761Y252070D01*
X24904Y252124D01*
X25046Y252183D01*
X25185Y252244D01*
X25324Y252310D01*
X25324Y252309D02*
X25394Y252335D01*
X25464Y252365D01*
X25531Y252398D01*
X25597Y252434D01*
X25661Y252473D01*
X25723Y252516D01*
X25782Y252562D01*
X25840Y252610D01*
X25894Y252661D01*
X25947Y252715D01*
X25996Y252772D01*
X26043Y252831D01*
X26086Y252892D01*
X26127Y252955D01*
X26164Y253020D01*
X26199Y253087D01*
X26229Y253156D01*
X26257Y253226D01*
X26280Y253297D01*
X26301Y253369D01*
X26317Y253442D01*
X26330Y253516D01*
X26340Y253591D01*
X26345Y253666D01*
X26347Y253741D01*
X26345Y253816D01*
X26340Y253891D01*
X26330Y253966D01*
X26317Y254040D01*
X26301Y254113D01*
X26280Y254185D01*
X26257Y254256D01*
X26229Y254326D01*
X26199Y254395D01*
X26164Y254462D01*
X26127Y254527D01*
X26086Y254590D01*
X26043Y254651D01*
X25996Y254710D01*
X25947Y254767D01*
X25894Y254821D01*
X25840Y254872D01*
X25782Y254921D01*
X25723Y254966D01*
X25661Y255009D01*
X25597Y255048D01*
X25531Y255085D01*
X25463Y255117D01*
X25394Y255147D01*
X25324Y255173D01*
X25186Y255238D01*
X25046Y255300D01*
X24904Y255358D01*
X24761Y255413D01*
X24617Y255464D01*
X24472Y255512D01*
X24325Y255555D01*
X24178Y255595D01*
X24029Y255632D01*
X23879Y255664D01*
X23729Y255693D01*
X23578Y255718D01*
X23427Y255739D01*
X23275Y255756D01*
X23122Y255770D01*
X22970Y255779D01*
X22817Y255785D01*
X22664Y255787D01*
X22664Y251695D02*
X22511Y251697D01*
X22358Y251703D01*
X22205Y251712D01*
X22053Y251726D01*
X21901Y251743D01*
X21750Y251764D01*
X21599Y251789D01*
X21448Y251818D01*
X21299Y251850D01*
X21150Y251887D01*
X21003Y251927D01*
X20856Y251970D01*
X20711Y252018D01*
X20566Y252069D01*
X20424Y252124D01*
X20282Y252182D01*
X20142Y252244D01*
X20004Y252309D01*
X19933Y252335D01*
X19864Y252365D01*
X19797Y252398D01*
X19731Y252434D01*
X19667Y252473D01*
X19605Y252516D01*
X19546Y252562D01*
X19488Y252610D01*
X19434Y252661D01*
X19381Y252715D01*
X19332Y252772D01*
X19285Y252831D01*
X19242Y252892D01*
X19201Y252955D01*
X19164Y253020D01*
X19129Y253087D01*
X19099Y253156D01*
X19071Y253226D01*
X19048Y253297D01*
X19027Y253369D01*
X19011Y253442D01*
X18998Y253516D01*
X18988Y253591D01*
X18983Y253666D01*
X18981Y253741D01*
X20004Y255173D02*
X20142Y255238D01*
X20282Y255300D01*
X20424Y255358D01*
X20567Y255413D01*
X20711Y255464D01*
X20856Y255512D01*
X21003Y255555D01*
X21151Y255595D01*
X21299Y255632D01*
X21449Y255664D01*
X21599Y255693D01*
X21750Y255718D01*
X21901Y255739D01*
X22053Y255756D01*
X22206Y255770D01*
X22358Y255779D01*
X22511Y255785D01*
X22664Y255787D01*
X20004Y255173D02*
X19934Y255147D01*
X19864Y255117D01*
X19797Y255085D01*
X19731Y255048D01*
X19667Y255009D01*
X19605Y254966D01*
X19546Y254920D01*
X19488Y254872D01*
X19434Y254821D01*
X19381Y254767D01*
X19332Y254710D01*
X19285Y254651D01*
X19242Y254590D01*
X19201Y254527D01*
X19164Y254462D01*
X19129Y254395D01*
X19099Y254326D01*
X19071Y254256D01*
X19048Y254185D01*
X19027Y254113D01*
X19011Y254040D01*
X18998Y253966D01*
X18988Y253891D01*
X18983Y253816D01*
X18981Y253741D01*
X20618Y252105D02*
X24710Y255378D01*
X48641Y198501D02*
X56007Y198501D01*
X56007Y201775D01*
X52733Y201775D02*
X52733Y198501D01*
X52733Y204943D02*
X52733Y206989D01*
X52731Y207078D01*
X52725Y207167D01*
X52715Y207256D01*
X52702Y207344D01*
X52685Y207432D01*
X52663Y207519D01*
X52638Y207604D01*
X52610Y207689D01*
X52577Y207772D01*
X52541Y207854D01*
X52502Y207934D01*
X52459Y208012D01*
X52413Y208088D01*
X52363Y208163D01*
X52310Y208235D01*
X52254Y208304D01*
X52195Y208371D01*
X52134Y208436D01*
X52069Y208497D01*
X52002Y208556D01*
X51933Y208612D01*
X51861Y208665D01*
X51786Y208715D01*
X51710Y208761D01*
X51632Y208804D01*
X51552Y208843D01*
X51470Y208879D01*
X51387Y208912D01*
X51302Y208940D01*
X51217Y208965D01*
X51130Y208987D01*
X51042Y209004D01*
X50954Y209017D01*
X50865Y209027D01*
X50776Y209033D01*
X50687Y209035D01*
X50598Y209033D01*
X50509Y209027D01*
X50420Y209017D01*
X50332Y209004D01*
X50244Y208987D01*
X50157Y208965D01*
X50072Y208940D01*
X49987Y208912D01*
X49904Y208879D01*
X49822Y208843D01*
X49742Y208804D01*
X49664Y208761D01*
X49588Y208715D01*
X49513Y208665D01*
X49441Y208612D01*
X49372Y208556D01*
X49305Y208497D01*
X49240Y208436D01*
X49179Y208371D01*
X49120Y208304D01*
X49064Y208235D01*
X49011Y208163D01*
X48961Y208088D01*
X48915Y208012D01*
X48872Y207934D01*
X48833Y207854D01*
X48797Y207772D01*
X48764Y207689D01*
X48736Y207604D01*
X48711Y207519D01*
X48689Y207432D01*
X48672Y207344D01*
X48659Y207256D01*
X48649Y207167D01*
X48643Y207078D01*
X48641Y206989D01*
X48641Y204943D01*
X56007Y204943D01*
X56007Y206989D01*
X56005Y207068D01*
X55999Y207147D01*
X55990Y207226D01*
X55977Y207304D01*
X55959Y207381D01*
X55939Y207457D01*
X55914Y207532D01*
X55886Y207606D01*
X55855Y207679D01*
X55819Y207750D01*
X55781Y207819D01*
X55739Y207886D01*
X55694Y207951D01*
X55646Y208014D01*
X55595Y208075D01*
X55541Y208132D01*
X55485Y208188D01*
X55426Y208240D01*
X55364Y208290D01*
X55300Y208336D01*
X55234Y208380D01*
X55166Y208420D01*
X55096Y208456D01*
X55024Y208490D01*
X54950Y208520D01*
X54876Y208546D01*
X54800Y208569D01*
X54723Y208587D01*
X54646Y208603D01*
X54567Y208614D01*
X54489Y208622D01*
X54410Y208626D01*
X54330Y208626D01*
X54251Y208622D01*
X54173Y208614D01*
X54094Y208603D01*
X54017Y208587D01*
X53940Y208569D01*
X53864Y208546D01*
X53790Y208520D01*
X53716Y208490D01*
X53644Y208456D01*
X53574Y208420D01*
X53506Y208380D01*
X53440Y208336D01*
X53376Y208290D01*
X53314Y208240D01*
X53255Y208188D01*
X53199Y208132D01*
X53145Y208075D01*
X53094Y208014D01*
X53046Y207951D01*
X53001Y207886D01*
X52959Y207819D01*
X52921Y207750D01*
X52885Y207679D01*
X52854Y207606D01*
X52826Y207532D01*
X52801Y207457D01*
X52781Y207381D01*
X52763Y207304D01*
X52750Y207226D01*
X52741Y207147D01*
X52735Y207068D01*
X52733Y206989D01*
X54370Y211896D02*
X56007Y213943D01*
X48641Y213943D01*
X48641Y215989D02*
X48641Y211896D01*
D12*
X69850Y185928D02*
X69850Y179578D01*
D13*
X66319Y198450D02*
X73685Y198450D01*
X73685Y200496D01*
X73683Y200585D01*
X73677Y200674D01*
X73667Y200763D01*
X73654Y200851D01*
X73637Y200939D01*
X73615Y201026D01*
X73590Y201111D01*
X73562Y201196D01*
X73529Y201279D01*
X73493Y201361D01*
X73454Y201441D01*
X73411Y201519D01*
X73365Y201595D01*
X73315Y201670D01*
X73262Y201742D01*
X73206Y201811D01*
X73147Y201878D01*
X73086Y201943D01*
X73021Y202004D01*
X72954Y202063D01*
X72885Y202119D01*
X72813Y202172D01*
X72738Y202222D01*
X72662Y202268D01*
X72584Y202311D01*
X72504Y202350D01*
X72422Y202386D01*
X72339Y202419D01*
X72254Y202447D01*
X72169Y202472D01*
X72082Y202494D01*
X71994Y202511D01*
X71906Y202524D01*
X71817Y202534D01*
X71728Y202540D01*
X71639Y202542D01*
X71550Y202540D01*
X71461Y202534D01*
X71372Y202524D01*
X71284Y202511D01*
X71196Y202494D01*
X71109Y202472D01*
X71024Y202447D01*
X70939Y202419D01*
X70856Y202386D01*
X70774Y202350D01*
X70694Y202311D01*
X70616Y202268D01*
X70540Y202222D01*
X70465Y202172D01*
X70393Y202119D01*
X70324Y202063D01*
X70257Y202004D01*
X70192Y201943D01*
X70131Y201878D01*
X70072Y201811D01*
X70016Y201742D01*
X69963Y201670D01*
X69913Y201595D01*
X69867Y201519D01*
X69824Y201441D01*
X69785Y201361D01*
X69749Y201279D01*
X69716Y201196D01*
X69688Y201111D01*
X69663Y201026D01*
X69641Y200939D01*
X69624Y200851D01*
X69611Y200763D01*
X69601Y200674D01*
X69595Y200585D01*
X69593Y200496D01*
X69593Y198450D01*
X69593Y200906D02*
X66319Y202542D01*
X66319Y205714D02*
X66319Y207760D01*
X66321Y207849D01*
X66327Y207938D01*
X66337Y208027D01*
X66350Y208115D01*
X66367Y208203D01*
X66389Y208290D01*
X66414Y208375D01*
X66442Y208460D01*
X66475Y208543D01*
X66511Y208625D01*
X66550Y208705D01*
X66593Y208783D01*
X66639Y208859D01*
X66689Y208934D01*
X66742Y209006D01*
X66798Y209075D01*
X66857Y209142D01*
X66918Y209207D01*
X66983Y209268D01*
X67050Y209327D01*
X67119Y209383D01*
X67191Y209436D01*
X67266Y209486D01*
X67342Y209532D01*
X67420Y209575D01*
X67500Y209614D01*
X67582Y209650D01*
X67665Y209683D01*
X67750Y209711D01*
X67835Y209736D01*
X67922Y209758D01*
X68010Y209775D01*
X68098Y209788D01*
X68187Y209798D01*
X68276Y209804D01*
X68365Y209806D01*
X68454Y209804D01*
X68543Y209798D01*
X68632Y209788D01*
X68720Y209775D01*
X68808Y209758D01*
X68895Y209736D01*
X68980Y209711D01*
X69065Y209683D01*
X69148Y209650D01*
X69230Y209614D01*
X69310Y209575D01*
X69388Y209532D01*
X69464Y209486D01*
X69539Y209436D01*
X69611Y209383D01*
X69680Y209327D01*
X69747Y209268D01*
X69812Y209207D01*
X69873Y209142D01*
X69932Y209075D01*
X69988Y209006D01*
X70041Y208934D01*
X70091Y208859D01*
X70137Y208783D01*
X70180Y208705D01*
X70219Y208625D01*
X70255Y208543D01*
X70288Y208460D01*
X70316Y208375D01*
X70341Y208290D01*
X70363Y208203D01*
X70380Y208115D01*
X70393Y208027D01*
X70403Y207938D01*
X70409Y207849D01*
X70411Y207760D01*
X73685Y208170D02*
X73685Y205714D01*
X73685Y208170D02*
X73683Y208249D01*
X73677Y208328D01*
X73668Y208407D01*
X73655Y208485D01*
X73637Y208562D01*
X73617Y208638D01*
X73592Y208713D01*
X73564Y208787D01*
X73533Y208860D01*
X73497Y208931D01*
X73459Y209000D01*
X73417Y209067D01*
X73372Y209132D01*
X73324Y209195D01*
X73273Y209256D01*
X73219Y209313D01*
X73163Y209369D01*
X73104Y209421D01*
X73042Y209471D01*
X72978Y209517D01*
X72912Y209561D01*
X72844Y209601D01*
X72774Y209637D01*
X72702Y209671D01*
X72628Y209701D01*
X72554Y209727D01*
X72478Y209750D01*
X72401Y209768D01*
X72324Y209784D01*
X72245Y209795D01*
X72167Y209803D01*
X72088Y209807D01*
X72008Y209807D01*
X71929Y209803D01*
X71851Y209795D01*
X71772Y209784D01*
X71695Y209768D01*
X71618Y209750D01*
X71542Y209727D01*
X71468Y209701D01*
X71394Y209671D01*
X71322Y209637D01*
X71252Y209601D01*
X71184Y209561D01*
X71118Y209517D01*
X71054Y209471D01*
X70992Y209421D01*
X70933Y209369D01*
X70877Y209313D01*
X70823Y209256D01*
X70772Y209195D01*
X70724Y209132D01*
X70679Y209067D01*
X70637Y209000D01*
X70599Y208931D01*
X70563Y208860D01*
X70532Y208787D01*
X70504Y208713D01*
X70479Y208638D01*
X70459Y208562D01*
X70441Y208485D01*
X70428Y208407D01*
X70419Y208328D01*
X70413Y208249D01*
X70411Y208170D01*
X70412Y208170D02*
X70412Y206533D01*
X56817Y80899D02*
X61728Y73533D01*
X56817Y73533D02*
X61728Y80899D01*
X54003Y79262D02*
X51957Y80899D01*
X51957Y73533D01*
X54003Y73533D02*
X49911Y73533D01*
D11*
X38100Y72390D02*
X33120Y72390D01*
X-35560Y72390D02*
X-35560Y77370D01*
X-35560Y146050D02*
X-30580Y146050D01*
X38100Y146050D02*
X38100Y141070D01*
X38100Y77370D02*
X38100Y72390D01*
X-30580Y72390D02*
X-35560Y72390D01*
X-35560Y141070D02*
X-35560Y146050D01*
X33120Y146050D02*
X38100Y146050D01*
D14*
X31948Y143066D02*
X31950Y143162D01*
X31956Y143258D01*
X31966Y143354D01*
X31980Y143449D01*
X31997Y143544D01*
X32019Y143637D01*
X32044Y143730D01*
X32073Y143822D01*
X32106Y143912D01*
X32143Y144001D01*
X32183Y144088D01*
X32227Y144174D01*
X32274Y144258D01*
X32325Y144340D01*
X32378Y144419D01*
X32436Y144496D01*
X32496Y144571D01*
X32559Y144644D01*
X32625Y144714D01*
X32695Y144780D01*
X32766Y144845D01*
X32841Y144906D01*
X32917Y144964D01*
X32996Y145018D01*
X33078Y145070D01*
X33161Y145118D01*
X33246Y145162D01*
X33333Y145204D01*
X33422Y145241D01*
X33512Y145275D01*
X33603Y145305D01*
X33695Y145331D01*
X33789Y145354D01*
X33883Y145372D01*
X33978Y145387D01*
X34074Y145398D01*
X34170Y145405D01*
X34266Y145408D01*
X34362Y145407D01*
X34458Y145402D01*
X34554Y145393D01*
X34649Y145380D01*
X34744Y145364D01*
X34838Y145343D01*
X34931Y145319D01*
X35023Y145290D01*
X35114Y145258D01*
X35203Y145223D01*
X35291Y145183D01*
X35377Y145141D01*
X35461Y145094D01*
X35543Y145044D01*
X35623Y144991D01*
X35701Y144935D01*
X35777Y144875D01*
X35850Y144813D01*
X35920Y144747D01*
X35988Y144679D01*
X36053Y144608D01*
X36115Y144534D01*
X36173Y144458D01*
X36229Y144380D01*
X36281Y144299D01*
X36330Y144216D01*
X36376Y144131D01*
X36418Y144045D01*
X36456Y143957D01*
X36491Y143867D01*
X36522Y143776D01*
X36549Y143684D01*
X36573Y143590D01*
X36592Y143496D01*
X36608Y143401D01*
X36620Y143306D01*
X36628Y143210D01*
X36632Y143114D01*
X36632Y143018D01*
X36628Y142922D01*
X36620Y142826D01*
X36608Y142731D01*
X36592Y142636D01*
X36573Y142542D01*
X36549Y142448D01*
X36522Y142356D01*
X36491Y142265D01*
X36456Y142175D01*
X36418Y142087D01*
X36376Y142001D01*
X36330Y141916D01*
X36281Y141833D01*
X36229Y141752D01*
X36173Y141674D01*
X36115Y141598D01*
X36053Y141524D01*
X35988Y141453D01*
X35920Y141385D01*
X35850Y141319D01*
X35777Y141257D01*
X35701Y141197D01*
X35623Y141141D01*
X35543Y141088D01*
X35461Y141038D01*
X35377Y140991D01*
X35291Y140949D01*
X35203Y140909D01*
X35114Y140874D01*
X35023Y140842D01*
X34931Y140813D01*
X34838Y140789D01*
X34744Y140768D01*
X34649Y140752D01*
X34554Y140739D01*
X34458Y140730D01*
X34362Y140725D01*
X34266Y140724D01*
X34170Y140727D01*
X34074Y140734D01*
X33978Y140745D01*
X33883Y140760D01*
X33789Y140778D01*
X33695Y140801D01*
X33603Y140827D01*
X33512Y140857D01*
X33422Y140891D01*
X33333Y140928D01*
X33246Y140970D01*
X33161Y141014D01*
X33078Y141062D01*
X32996Y141114D01*
X32917Y141168D01*
X32841Y141226D01*
X32766Y141287D01*
X32695Y141352D01*
X32625Y141418D01*
X32559Y141488D01*
X32496Y141561D01*
X32436Y141636D01*
X32378Y141713D01*
X32325Y141792D01*
X32274Y141874D01*
X32227Y141958D01*
X32183Y142044D01*
X32143Y142131D01*
X32106Y142220D01*
X32073Y142310D01*
X32044Y142402D01*
X32019Y142495D01*
X31997Y142588D01*
X31980Y142683D01*
X31966Y142778D01*
X31956Y142874D01*
X31950Y142970D01*
X31948Y143066D01*
D15*
X-3864Y152287D02*
X-3864Y159258D01*
X-3864Y152287D02*
X-3866Y152184D01*
X-3872Y152082D01*
X-3882Y151980D01*
X-3895Y151878D01*
X-3913Y151777D01*
X-3935Y151676D01*
X-3960Y151577D01*
X-3989Y151478D01*
X-4022Y151381D01*
X-4058Y151285D01*
X-4099Y151190D01*
X-4142Y151097D01*
X-4190Y151006D01*
X-4240Y150917D01*
X-4295Y150830D01*
X-4352Y150745D01*
X-4413Y150662D01*
X-4477Y150581D01*
X-4543Y150503D01*
X-4613Y150428D01*
X-4686Y150355D01*
X-4761Y150285D01*
X-4839Y150219D01*
X-4920Y150155D01*
X-5003Y150094D01*
X-5088Y150037D01*
X-5175Y149982D01*
X-5264Y149932D01*
X-5355Y149884D01*
X-5448Y149841D01*
X-5543Y149800D01*
X-5639Y149764D01*
X-5736Y149731D01*
X-5835Y149702D01*
X-5934Y149677D01*
X-6035Y149655D01*
X-6136Y149637D01*
X-6238Y149624D01*
X-6340Y149614D01*
X-6442Y149608D01*
X-6545Y149606D01*
X-6648Y149608D01*
X-6750Y149614D01*
X-6852Y149624D01*
X-6954Y149637D01*
X-7055Y149655D01*
X-7156Y149677D01*
X-7255Y149702D01*
X-7354Y149731D01*
X-7451Y149764D01*
X-7547Y149800D01*
X-7642Y149841D01*
X-7735Y149884D01*
X-7826Y149932D01*
X-7915Y149982D01*
X-8002Y150037D01*
X-8087Y150094D01*
X-8170Y150155D01*
X-8251Y150219D01*
X-8329Y150285D01*
X-8404Y150355D01*
X-8477Y150428D01*
X-8547Y150503D01*
X-8613Y150581D01*
X-8677Y150662D01*
X-8738Y150745D01*
X-8795Y150830D01*
X-8850Y150917D01*
X-8900Y151006D01*
X-8948Y151097D01*
X-8991Y151190D01*
X-9032Y151285D01*
X-9068Y151381D01*
X-9101Y151478D01*
X-9130Y151577D01*
X-9155Y151676D01*
X-9177Y151777D01*
X-9195Y151878D01*
X-9208Y151980D01*
X-9218Y152082D01*
X-9224Y152184D01*
X-9226Y152287D01*
X-9226Y159258D01*
X-13313Y157113D02*
X-15994Y159258D01*
X-15994Y149606D01*
X-13313Y149606D02*
X-18675Y149606D01*
D12*
X-48260Y154178D02*
X-48260Y160528D01*
D13*
X-57429Y150874D02*
X-64795Y150874D01*
X-57429Y150874D02*
X-57429Y152920D01*
X-57430Y152920D02*
X-57432Y153009D01*
X-57438Y153098D01*
X-57448Y153187D01*
X-57461Y153275D01*
X-57478Y153363D01*
X-57500Y153450D01*
X-57525Y153535D01*
X-57553Y153620D01*
X-57586Y153703D01*
X-57622Y153785D01*
X-57661Y153865D01*
X-57704Y153943D01*
X-57750Y154019D01*
X-57800Y154094D01*
X-57853Y154166D01*
X-57909Y154235D01*
X-57968Y154302D01*
X-58029Y154367D01*
X-58094Y154428D01*
X-58161Y154487D01*
X-58230Y154543D01*
X-58302Y154596D01*
X-58377Y154646D01*
X-58453Y154692D01*
X-58531Y154735D01*
X-58611Y154774D01*
X-58693Y154810D01*
X-58776Y154843D01*
X-58861Y154871D01*
X-58946Y154896D01*
X-59033Y154918D01*
X-59121Y154935D01*
X-59209Y154948D01*
X-59298Y154958D01*
X-59387Y154964D01*
X-59476Y154966D01*
X-59565Y154964D01*
X-59654Y154958D01*
X-59743Y154948D01*
X-59831Y154935D01*
X-59919Y154918D01*
X-60006Y154896D01*
X-60091Y154871D01*
X-60176Y154843D01*
X-60259Y154810D01*
X-60341Y154774D01*
X-60421Y154735D01*
X-60499Y154692D01*
X-60575Y154646D01*
X-60650Y154596D01*
X-60722Y154543D01*
X-60791Y154487D01*
X-60858Y154428D01*
X-60923Y154367D01*
X-60984Y154302D01*
X-61043Y154235D01*
X-61099Y154166D01*
X-61152Y154094D01*
X-61202Y154019D01*
X-61248Y153943D01*
X-61291Y153865D01*
X-61330Y153785D01*
X-61366Y153703D01*
X-61399Y153620D01*
X-61427Y153535D01*
X-61452Y153450D01*
X-61474Y153363D01*
X-61491Y153275D01*
X-61504Y153187D01*
X-61514Y153098D01*
X-61520Y153009D01*
X-61522Y152920D01*
X-61522Y150874D01*
X-61522Y153329D02*
X-64795Y154966D01*
X-59271Y162230D02*
X-59186Y162228D01*
X-59101Y162222D01*
X-59017Y162212D01*
X-58933Y162199D01*
X-58849Y162181D01*
X-58767Y162160D01*
X-58686Y162135D01*
X-58606Y162106D01*
X-58527Y162073D01*
X-58450Y162037D01*
X-58375Y161997D01*
X-58301Y161954D01*
X-58230Y161908D01*
X-58161Y161858D01*
X-58094Y161805D01*
X-58030Y161749D01*
X-57969Y161690D01*
X-57910Y161629D01*
X-57854Y161565D01*
X-57801Y161498D01*
X-57751Y161429D01*
X-57705Y161358D01*
X-57662Y161284D01*
X-57622Y161209D01*
X-57586Y161132D01*
X-57553Y161053D01*
X-57524Y160973D01*
X-57499Y160892D01*
X-57478Y160810D01*
X-57460Y160726D01*
X-57447Y160642D01*
X-57437Y160558D01*
X-57431Y160473D01*
X-57429Y160388D01*
X-57431Y160292D01*
X-57437Y160196D01*
X-57447Y160101D01*
X-57460Y160006D01*
X-57478Y159911D01*
X-57499Y159818D01*
X-57524Y159725D01*
X-57553Y159634D01*
X-57585Y159543D01*
X-57621Y159454D01*
X-57661Y159367D01*
X-57704Y159281D01*
X-57750Y159197D01*
X-57800Y159115D01*
X-57854Y159035D01*
X-57910Y158958D01*
X-57970Y158883D01*
X-58032Y158810D01*
X-58098Y158740D01*
X-58166Y158672D01*
X-58237Y158607D01*
X-58310Y158546D01*
X-58386Y158487D01*
X-58465Y158431D01*
X-58545Y158379D01*
X-58628Y158330D01*
X-58712Y158284D01*
X-58798Y158242D01*
X-58886Y158204D01*
X-58975Y158169D01*
X-59066Y158137D01*
X-60703Y161616D02*
X-60644Y161676D01*
X-60582Y161733D01*
X-60518Y161788D01*
X-60451Y161839D01*
X-60382Y161888D01*
X-60312Y161934D01*
X-60239Y161977D01*
X-60165Y162017D01*
X-60089Y162053D01*
X-60011Y162086D01*
X-59932Y162116D01*
X-59852Y162143D01*
X-59771Y162166D01*
X-59689Y162185D01*
X-59607Y162201D01*
X-59523Y162214D01*
X-59439Y162223D01*
X-59355Y162228D01*
X-59271Y162230D01*
X-60703Y161616D02*
X-64795Y158138D01*
X-64795Y162230D01*
D12*
X-17272Y55880D02*
X-10922Y55880D01*
D13*
X-30810Y58445D02*
X-30810Y51079D01*
X-30810Y58445D02*
X-32856Y58445D01*
X-32945Y58443D01*
X-33034Y58437D01*
X-33123Y58427D01*
X-33211Y58414D01*
X-33299Y58397D01*
X-33386Y58375D01*
X-33471Y58350D01*
X-33556Y58322D01*
X-33639Y58289D01*
X-33721Y58253D01*
X-33801Y58214D01*
X-33879Y58171D01*
X-33955Y58125D01*
X-34030Y58075D01*
X-34102Y58022D01*
X-34171Y57966D01*
X-34238Y57907D01*
X-34303Y57846D01*
X-34364Y57781D01*
X-34423Y57714D01*
X-34479Y57645D01*
X-34532Y57573D01*
X-34582Y57498D01*
X-34628Y57422D01*
X-34671Y57344D01*
X-34710Y57264D01*
X-34746Y57182D01*
X-34779Y57099D01*
X-34807Y57014D01*
X-34832Y56929D01*
X-34854Y56842D01*
X-34871Y56754D01*
X-34884Y56666D01*
X-34894Y56577D01*
X-34900Y56488D01*
X-34902Y56399D01*
X-34900Y56310D01*
X-34894Y56221D01*
X-34884Y56132D01*
X-34871Y56044D01*
X-34854Y55956D01*
X-34832Y55869D01*
X-34807Y55784D01*
X-34779Y55699D01*
X-34746Y55616D01*
X-34710Y55534D01*
X-34671Y55454D01*
X-34628Y55376D01*
X-34582Y55300D01*
X-34532Y55225D01*
X-34479Y55153D01*
X-34423Y55084D01*
X-34364Y55017D01*
X-34303Y54952D01*
X-34238Y54891D01*
X-34171Y54832D01*
X-34102Y54776D01*
X-34030Y54723D01*
X-33955Y54673D01*
X-33879Y54627D01*
X-33801Y54584D01*
X-33721Y54545D01*
X-33639Y54509D01*
X-33556Y54476D01*
X-33471Y54448D01*
X-33386Y54423D01*
X-33299Y54401D01*
X-33211Y54384D01*
X-33123Y54371D01*
X-33034Y54361D01*
X-32945Y54355D01*
X-32856Y54353D01*
X-30810Y54353D01*
X-33266Y54353D02*
X-34902Y51079D01*
X-38074Y56808D02*
X-40120Y58445D01*
X-40120Y51079D01*
X-38074Y51079D02*
X-42166Y51079D01*
D12*
X56388Y128270D02*
X62992Y128270D01*
D13*
X86059Y125603D02*
X87695Y125603D01*
X87773Y125605D01*
X87851Y125610D01*
X87928Y125620D01*
X88005Y125633D01*
X88081Y125649D01*
X88156Y125669D01*
X88230Y125693D01*
X88303Y125720D01*
X88375Y125751D01*
X88445Y125785D01*
X88514Y125822D01*
X88580Y125863D01*
X88645Y125907D01*
X88707Y125953D01*
X88767Y126003D01*
X88825Y126055D01*
X88880Y126110D01*
X88932Y126168D01*
X88982Y126228D01*
X89028Y126290D01*
X89072Y126355D01*
X89113Y126422D01*
X89150Y126490D01*
X89184Y126560D01*
X89215Y126632D01*
X89242Y126705D01*
X89266Y126779D01*
X89286Y126854D01*
X89302Y126930D01*
X89315Y127007D01*
X89325Y127084D01*
X89330Y127162D01*
X89332Y127240D01*
X89332Y131332D01*
X89330Y131410D01*
X89325Y131488D01*
X89315Y131565D01*
X89302Y131642D01*
X89286Y131718D01*
X89266Y131793D01*
X89242Y131867D01*
X89215Y131940D01*
X89184Y132012D01*
X89150Y132082D01*
X89113Y132151D01*
X89072Y132217D01*
X89028Y132282D01*
X88982Y132344D01*
X88932Y132404D01*
X88880Y132462D01*
X88825Y132517D01*
X88767Y132569D01*
X88707Y132619D01*
X88645Y132665D01*
X88580Y132709D01*
X88514Y132750D01*
X88445Y132787D01*
X88375Y132821D01*
X88303Y132852D01*
X88230Y132879D01*
X88156Y132903D01*
X88081Y132923D01*
X88005Y132939D01*
X87928Y132952D01*
X87851Y132962D01*
X87773Y132967D01*
X87695Y132969D01*
X86059Y132969D01*
X83213Y129695D02*
X80758Y129695D01*
X80678Y129693D01*
X80598Y129687D01*
X80518Y129677D01*
X80439Y129664D01*
X80360Y129646D01*
X80283Y129625D01*
X80207Y129599D01*
X80132Y129570D01*
X80058Y129538D01*
X79986Y129502D01*
X79916Y129462D01*
X79849Y129419D01*
X79783Y129373D01*
X79720Y129323D01*
X79659Y129271D01*
X79600Y129216D01*
X79545Y129157D01*
X79493Y129097D01*
X79443Y129033D01*
X79397Y128967D01*
X79354Y128900D01*
X79314Y128830D01*
X79278Y128758D01*
X79246Y128684D01*
X79217Y128610D01*
X79191Y128533D01*
X79170Y128456D01*
X79152Y128377D01*
X79139Y128298D01*
X79129Y128218D01*
X79123Y128138D01*
X79121Y128058D01*
X79121Y127649D01*
X79123Y127560D01*
X79129Y127471D01*
X79139Y127382D01*
X79152Y127294D01*
X79169Y127206D01*
X79191Y127119D01*
X79216Y127034D01*
X79244Y126949D01*
X79277Y126866D01*
X79313Y126784D01*
X79352Y126704D01*
X79395Y126626D01*
X79441Y126550D01*
X79491Y126475D01*
X79544Y126403D01*
X79600Y126334D01*
X79659Y126267D01*
X79720Y126202D01*
X79785Y126141D01*
X79852Y126082D01*
X79921Y126026D01*
X79993Y125973D01*
X80068Y125923D01*
X80144Y125877D01*
X80222Y125834D01*
X80302Y125795D01*
X80384Y125759D01*
X80467Y125726D01*
X80552Y125698D01*
X80637Y125673D01*
X80724Y125651D01*
X80812Y125634D01*
X80900Y125621D01*
X80989Y125611D01*
X81078Y125605D01*
X81167Y125603D01*
X81256Y125605D01*
X81345Y125611D01*
X81434Y125621D01*
X81522Y125634D01*
X81610Y125651D01*
X81697Y125673D01*
X81782Y125698D01*
X81867Y125726D01*
X81950Y125759D01*
X82032Y125795D01*
X82112Y125834D01*
X82190Y125877D01*
X82266Y125923D01*
X82341Y125973D01*
X82413Y126026D01*
X82482Y126082D01*
X82549Y126141D01*
X82614Y126202D01*
X82675Y126267D01*
X82734Y126334D01*
X82790Y126403D01*
X82843Y126475D01*
X82893Y126550D01*
X82939Y126626D01*
X82982Y126704D01*
X83021Y126784D01*
X83057Y126866D01*
X83090Y126949D01*
X83118Y127034D01*
X83143Y127119D01*
X83165Y127206D01*
X83182Y127294D01*
X83195Y127382D01*
X83205Y127471D01*
X83211Y127560D01*
X83213Y127649D01*
X83213Y129695D01*
X83211Y129807D01*
X83205Y129918D01*
X83196Y130030D01*
X83183Y130141D01*
X83165Y130251D01*
X83145Y130361D01*
X83120Y130470D01*
X83092Y130578D01*
X83060Y130685D01*
X83024Y130791D01*
X82985Y130896D01*
X82942Y130999D01*
X82896Y131101D01*
X82846Y131201D01*
X82793Y131300D01*
X82736Y131396D01*
X82677Y131491D01*
X82614Y131583D01*
X82548Y131673D01*
X82479Y131761D01*
X82407Y131847D01*
X82332Y131930D01*
X82254Y132010D01*
X82174Y132088D01*
X82091Y132163D01*
X82005Y132235D01*
X81917Y132304D01*
X81827Y132370D01*
X81735Y132433D01*
X81640Y132492D01*
X81544Y132549D01*
X81445Y132602D01*
X81345Y132652D01*
X81243Y132698D01*
X81140Y132741D01*
X81035Y132780D01*
X80929Y132816D01*
X80822Y132848D01*
X80714Y132876D01*
X80605Y132901D01*
X80495Y132921D01*
X80385Y132939D01*
X80274Y132952D01*
X80162Y132961D01*
X80051Y132967D01*
X79939Y132969D01*
D12*
X62992Y137160D02*
X56388Y137160D01*
D13*
X86059Y135763D02*
X87695Y135763D01*
X87773Y135765D01*
X87851Y135770D01*
X87928Y135780D01*
X88005Y135793D01*
X88081Y135809D01*
X88156Y135829D01*
X88230Y135853D01*
X88303Y135880D01*
X88375Y135911D01*
X88445Y135945D01*
X88514Y135982D01*
X88580Y136023D01*
X88645Y136067D01*
X88707Y136113D01*
X88767Y136163D01*
X88825Y136215D01*
X88880Y136270D01*
X88932Y136328D01*
X88982Y136388D01*
X89028Y136450D01*
X89072Y136515D01*
X89113Y136582D01*
X89150Y136650D01*
X89184Y136720D01*
X89215Y136792D01*
X89242Y136865D01*
X89266Y136939D01*
X89286Y137014D01*
X89302Y137090D01*
X89315Y137167D01*
X89325Y137244D01*
X89330Y137322D01*
X89332Y137400D01*
X89332Y141492D01*
X89330Y141570D01*
X89325Y141648D01*
X89315Y141725D01*
X89302Y141802D01*
X89286Y141878D01*
X89266Y141953D01*
X89242Y142027D01*
X89215Y142100D01*
X89184Y142172D01*
X89150Y142242D01*
X89113Y142311D01*
X89072Y142377D01*
X89028Y142442D01*
X88982Y142504D01*
X88932Y142564D01*
X88880Y142622D01*
X88825Y142677D01*
X88767Y142729D01*
X88707Y142779D01*
X88645Y142825D01*
X88580Y142869D01*
X88514Y142910D01*
X88445Y142947D01*
X88375Y142981D01*
X88303Y143012D01*
X88230Y143039D01*
X88156Y143063D01*
X88081Y143083D01*
X88005Y143099D01*
X87928Y143112D01*
X87851Y143122D01*
X87773Y143127D01*
X87695Y143129D01*
X86059Y143129D01*
X83213Y141492D02*
X81167Y143129D01*
X81167Y135763D01*
X83213Y135763D02*
X79121Y135763D01*
D12*
X-49530Y112522D02*
X-49530Y105918D01*
D13*
X-53467Y82851D02*
X-53467Y81215D01*
X-53465Y81137D01*
X-53460Y81059D01*
X-53450Y80982D01*
X-53437Y80905D01*
X-53421Y80829D01*
X-53401Y80754D01*
X-53377Y80680D01*
X-53350Y80607D01*
X-53319Y80535D01*
X-53285Y80465D01*
X-53248Y80397D01*
X-53207Y80330D01*
X-53163Y80265D01*
X-53117Y80203D01*
X-53067Y80143D01*
X-53015Y80085D01*
X-52960Y80030D01*
X-52902Y79978D01*
X-52842Y79928D01*
X-52780Y79882D01*
X-52715Y79838D01*
X-52649Y79797D01*
X-52580Y79760D01*
X-52510Y79726D01*
X-52438Y79695D01*
X-52365Y79668D01*
X-52291Y79644D01*
X-52216Y79624D01*
X-52140Y79608D01*
X-52063Y79595D01*
X-51986Y79585D01*
X-51908Y79580D01*
X-51830Y79578D01*
X-47738Y79578D01*
X-47658Y79580D01*
X-47578Y79586D01*
X-47498Y79596D01*
X-47419Y79609D01*
X-47340Y79627D01*
X-47263Y79648D01*
X-47187Y79674D01*
X-47112Y79703D01*
X-47038Y79735D01*
X-46966Y79771D01*
X-46896Y79811D01*
X-46829Y79854D01*
X-46763Y79900D01*
X-46700Y79950D01*
X-46639Y80002D01*
X-46580Y80057D01*
X-46525Y80116D01*
X-46473Y80176D01*
X-46423Y80240D01*
X-46377Y80305D01*
X-46334Y80373D01*
X-46294Y80443D01*
X-46258Y80515D01*
X-46226Y80589D01*
X-46197Y80663D01*
X-46172Y80740D01*
X-46150Y80817D01*
X-46132Y80896D01*
X-46119Y80975D01*
X-46109Y81054D01*
X-46103Y81135D01*
X-46101Y81215D01*
X-46101Y82851D01*
X-46101Y85697D02*
X-46919Y85697D01*
X-46101Y85697D02*
X-46101Y89789D01*
X-53467Y87743D01*
D11*
X39535Y152603D02*
X39535Y172733D01*
D12*
X56388Y162560D02*
X62992Y162560D01*
D13*
X86059Y156083D02*
X87695Y156083D01*
X87773Y156085D01*
X87851Y156090D01*
X87928Y156100D01*
X88005Y156113D01*
X88081Y156129D01*
X88156Y156149D01*
X88230Y156173D01*
X88303Y156200D01*
X88375Y156231D01*
X88445Y156265D01*
X88514Y156302D01*
X88580Y156343D01*
X88645Y156387D01*
X88707Y156433D01*
X88767Y156483D01*
X88825Y156535D01*
X88880Y156590D01*
X88932Y156648D01*
X88982Y156708D01*
X89028Y156770D01*
X89072Y156835D01*
X89113Y156902D01*
X89150Y156970D01*
X89184Y157040D01*
X89215Y157112D01*
X89242Y157185D01*
X89266Y157259D01*
X89286Y157334D01*
X89302Y157410D01*
X89315Y157487D01*
X89325Y157564D01*
X89330Y157642D01*
X89332Y157720D01*
X89332Y161812D01*
X89330Y161890D01*
X89325Y161968D01*
X89315Y162045D01*
X89302Y162122D01*
X89286Y162198D01*
X89266Y162273D01*
X89242Y162347D01*
X89215Y162420D01*
X89184Y162492D01*
X89150Y162562D01*
X89113Y162631D01*
X89072Y162697D01*
X89028Y162762D01*
X88982Y162824D01*
X88932Y162884D01*
X88880Y162942D01*
X88825Y162997D01*
X88767Y163049D01*
X88707Y163099D01*
X88645Y163145D01*
X88580Y163189D01*
X88514Y163230D01*
X88445Y163267D01*
X88375Y163301D01*
X88303Y163332D01*
X88230Y163359D01*
X88156Y163383D01*
X88081Y163403D01*
X88005Y163419D01*
X87928Y163432D01*
X87851Y163442D01*
X87773Y163447D01*
X87695Y163449D01*
X86059Y163449D01*
X83213Y156083D02*
X81167Y156083D01*
X81078Y156085D01*
X80989Y156091D01*
X80900Y156101D01*
X80812Y156114D01*
X80724Y156131D01*
X80637Y156153D01*
X80552Y156178D01*
X80467Y156206D01*
X80384Y156239D01*
X80302Y156275D01*
X80222Y156314D01*
X80144Y156357D01*
X80068Y156403D01*
X79993Y156453D01*
X79921Y156506D01*
X79852Y156562D01*
X79785Y156621D01*
X79720Y156682D01*
X79659Y156747D01*
X79600Y156814D01*
X79544Y156883D01*
X79491Y156955D01*
X79441Y157030D01*
X79395Y157106D01*
X79352Y157184D01*
X79313Y157264D01*
X79277Y157346D01*
X79244Y157429D01*
X79216Y157514D01*
X79191Y157599D01*
X79169Y157686D01*
X79152Y157774D01*
X79139Y157862D01*
X79129Y157951D01*
X79123Y158040D01*
X79121Y158129D01*
X79123Y158218D01*
X79129Y158307D01*
X79139Y158396D01*
X79152Y158484D01*
X79169Y158572D01*
X79191Y158659D01*
X79216Y158744D01*
X79244Y158829D01*
X79277Y158912D01*
X79313Y158994D01*
X79352Y159074D01*
X79395Y159152D01*
X79441Y159228D01*
X79491Y159303D01*
X79544Y159375D01*
X79600Y159444D01*
X79659Y159511D01*
X79720Y159576D01*
X79785Y159637D01*
X79852Y159696D01*
X79921Y159752D01*
X79993Y159805D01*
X80068Y159855D01*
X80144Y159901D01*
X80222Y159944D01*
X80302Y159983D01*
X80384Y160019D01*
X80467Y160052D01*
X80552Y160080D01*
X80637Y160105D01*
X80724Y160127D01*
X80812Y160144D01*
X80900Y160157D01*
X80989Y160167D01*
X81078Y160173D01*
X81167Y160175D01*
X80758Y163449D02*
X83213Y163449D01*
X80758Y163449D02*
X80679Y163447D01*
X80600Y163441D01*
X80521Y163432D01*
X80443Y163419D01*
X80366Y163401D01*
X80290Y163381D01*
X80215Y163356D01*
X80141Y163328D01*
X80068Y163297D01*
X79997Y163261D01*
X79928Y163223D01*
X79861Y163181D01*
X79796Y163136D01*
X79733Y163088D01*
X79672Y163037D01*
X79615Y162983D01*
X79559Y162927D01*
X79507Y162868D01*
X79457Y162806D01*
X79411Y162742D01*
X79367Y162676D01*
X79327Y162608D01*
X79291Y162538D01*
X79257Y162466D01*
X79227Y162392D01*
X79201Y162318D01*
X79178Y162242D01*
X79160Y162165D01*
X79144Y162088D01*
X79133Y162009D01*
X79125Y161931D01*
X79121Y161852D01*
X79121Y161772D01*
X79125Y161693D01*
X79133Y161615D01*
X79144Y161536D01*
X79160Y161459D01*
X79178Y161382D01*
X79201Y161306D01*
X79227Y161232D01*
X79257Y161158D01*
X79291Y161086D01*
X79327Y161016D01*
X79367Y160948D01*
X79411Y160882D01*
X79457Y160818D01*
X79507Y160756D01*
X79559Y160697D01*
X79615Y160641D01*
X79672Y160587D01*
X79733Y160536D01*
X79796Y160488D01*
X79861Y160443D01*
X79928Y160401D01*
X79997Y160363D01*
X80068Y160327D01*
X80141Y160296D01*
X80215Y160268D01*
X80290Y160243D01*
X80366Y160223D01*
X80443Y160205D01*
X80521Y160192D01*
X80600Y160183D01*
X80679Y160177D01*
X80758Y160175D01*
X82395Y160175D01*
D11*
X39535Y158763D02*
X39535Y138633D01*
D12*
X56388Y148590D02*
X62992Y148590D01*
D13*
X86059Y145923D02*
X87695Y145923D01*
X87773Y145925D01*
X87851Y145930D01*
X87928Y145940D01*
X88005Y145953D01*
X88081Y145969D01*
X88156Y145989D01*
X88230Y146013D01*
X88303Y146040D01*
X88375Y146071D01*
X88445Y146105D01*
X88514Y146142D01*
X88580Y146183D01*
X88645Y146227D01*
X88707Y146273D01*
X88767Y146323D01*
X88825Y146375D01*
X88880Y146430D01*
X88932Y146488D01*
X88982Y146548D01*
X89028Y146610D01*
X89072Y146675D01*
X89113Y146742D01*
X89150Y146810D01*
X89184Y146880D01*
X89215Y146952D01*
X89242Y147025D01*
X89266Y147099D01*
X89286Y147174D01*
X89302Y147250D01*
X89315Y147327D01*
X89325Y147404D01*
X89330Y147482D01*
X89332Y147560D01*
X89332Y151652D01*
X89330Y151730D01*
X89325Y151808D01*
X89315Y151885D01*
X89302Y151962D01*
X89286Y152038D01*
X89266Y152113D01*
X89242Y152187D01*
X89215Y152260D01*
X89184Y152332D01*
X89150Y152402D01*
X89113Y152471D01*
X89072Y152537D01*
X89028Y152602D01*
X88982Y152664D01*
X88932Y152724D01*
X88880Y152782D01*
X88825Y152837D01*
X88767Y152889D01*
X88707Y152939D01*
X88645Y152985D01*
X88580Y153029D01*
X88514Y153070D01*
X88445Y153107D01*
X88375Y153141D01*
X88303Y153172D01*
X88230Y153199D01*
X88156Y153223D01*
X88081Y153243D01*
X88005Y153259D01*
X87928Y153272D01*
X87851Y153282D01*
X87773Y153287D01*
X87695Y153289D01*
X86059Y153289D01*
X80963Y153290D02*
X80878Y153288D01*
X80793Y153282D01*
X80709Y153272D01*
X80625Y153259D01*
X80541Y153241D01*
X80459Y153220D01*
X80378Y153195D01*
X80298Y153166D01*
X80219Y153133D01*
X80142Y153097D01*
X80067Y153057D01*
X79993Y153014D01*
X79922Y152968D01*
X79853Y152918D01*
X79786Y152865D01*
X79722Y152809D01*
X79661Y152750D01*
X79602Y152689D01*
X79546Y152625D01*
X79493Y152558D01*
X79443Y152489D01*
X79397Y152418D01*
X79354Y152344D01*
X79314Y152269D01*
X79278Y152192D01*
X79245Y152113D01*
X79216Y152033D01*
X79191Y151952D01*
X79170Y151870D01*
X79152Y151786D01*
X79139Y151702D01*
X79129Y151618D01*
X79123Y151533D01*
X79121Y151448D01*
X80963Y153289D02*
X81059Y153287D01*
X81155Y153281D01*
X81250Y153271D01*
X81345Y153258D01*
X81440Y153240D01*
X81533Y153219D01*
X81626Y153194D01*
X81717Y153165D01*
X81808Y153133D01*
X81897Y153097D01*
X81984Y153057D01*
X82070Y153014D01*
X82154Y152968D01*
X82236Y152918D01*
X82316Y152864D01*
X82393Y152808D01*
X82468Y152748D01*
X82541Y152686D01*
X82611Y152620D01*
X82679Y152552D01*
X82744Y152481D01*
X82805Y152408D01*
X82864Y152332D01*
X82920Y152253D01*
X82972Y152173D01*
X83021Y152090D01*
X83067Y152006D01*
X83109Y151920D01*
X83147Y151832D01*
X83182Y151743D01*
X83214Y151652D01*
X79735Y150016D02*
X79675Y150075D01*
X79618Y150137D01*
X79563Y150201D01*
X79512Y150268D01*
X79463Y150337D01*
X79417Y150407D01*
X79374Y150480D01*
X79334Y150554D01*
X79298Y150630D01*
X79265Y150708D01*
X79235Y150787D01*
X79208Y150867D01*
X79185Y150948D01*
X79166Y151030D01*
X79150Y151112D01*
X79137Y151196D01*
X79128Y151280D01*
X79123Y151364D01*
X79121Y151448D01*
X79735Y150015D02*
X83213Y145923D01*
X79121Y145923D01*
D11*
X-50787Y129375D02*
X-70917Y129375D01*
D12*
X-60960Y112522D02*
X-60960Y105918D01*
D13*
X-66167Y82851D02*
X-66167Y81215D01*
X-66165Y81137D01*
X-66160Y81059D01*
X-66150Y80982D01*
X-66137Y80905D01*
X-66121Y80829D01*
X-66101Y80754D01*
X-66077Y80680D01*
X-66050Y80607D01*
X-66019Y80535D01*
X-65985Y80465D01*
X-65948Y80397D01*
X-65907Y80330D01*
X-65863Y80265D01*
X-65817Y80203D01*
X-65767Y80143D01*
X-65715Y80085D01*
X-65660Y80030D01*
X-65602Y79978D01*
X-65542Y79928D01*
X-65480Y79882D01*
X-65415Y79838D01*
X-65349Y79797D01*
X-65280Y79760D01*
X-65210Y79726D01*
X-65138Y79695D01*
X-65065Y79668D01*
X-64991Y79644D01*
X-64916Y79624D01*
X-64840Y79608D01*
X-64763Y79595D01*
X-64686Y79585D01*
X-64608Y79580D01*
X-64530Y79578D01*
X-60438Y79578D01*
X-60358Y79580D01*
X-60278Y79586D01*
X-60198Y79596D01*
X-60119Y79609D01*
X-60040Y79627D01*
X-59963Y79648D01*
X-59887Y79674D01*
X-59812Y79703D01*
X-59738Y79735D01*
X-59666Y79771D01*
X-59596Y79811D01*
X-59529Y79854D01*
X-59463Y79900D01*
X-59400Y79950D01*
X-59339Y80002D01*
X-59280Y80057D01*
X-59225Y80116D01*
X-59173Y80176D01*
X-59123Y80240D01*
X-59077Y80305D01*
X-59034Y80373D01*
X-58994Y80443D01*
X-58958Y80515D01*
X-58926Y80589D01*
X-58897Y80663D01*
X-58872Y80740D01*
X-58850Y80817D01*
X-58832Y80896D01*
X-58819Y80975D01*
X-58809Y81054D01*
X-58803Y81135D01*
X-58801Y81215D01*
X-58801Y82851D01*
X-58801Y87334D02*
X-64530Y85697D01*
X-64530Y89789D01*
X-62893Y88561D02*
X-66167Y88561D01*
M02*
