G04 EAGLE Gerber RS-274X export*
G75*
%MOMM*%
%FSLAX34Y34*%
%LPD*%
%INSilkscreen Top*%
%IPPOS*%
%AMOC8*
5,1,8,0,0,1.08239X$1,22.5*%
G01*
%ADD10C,0.152400*%
%ADD11C,0.101600*%
%ADD12R,0.014731X0.014731*%
%ADD13R,0.147319X0.014731*%
%ADD14R,0.265175X0.014731*%
%ADD15R,0.383031X0.014731*%
%ADD16R,0.515619X0.014731*%
%ADD17R,0.633475X0.014731*%
%ADD18R,0.751331X0.014731*%
%ADD19R,0.883919X0.014731*%
%ADD20R,1.001775X0.014731*%
%ADD21R,1.119631X0.014731*%
%ADD22R,1.134363X0.014731*%
%ADD23R,1.149094X0.014731*%
%ADD24R,1.163825X0.014731*%
%ADD25R,1.178556X0.014731*%
%ADD26R,1.193288X0.014731*%
%ADD27R,1.222756X0.014731*%
%ADD28R,1.237488X0.014731*%
%ADD29R,1.266950X0.014731*%
%ADD30R,1.281681X0.014731*%
%ADD31R,1.311144X0.014731*%
%ADD32R,1.325881X0.014731*%
%ADD33R,1.355344X0.014731*%
%ADD34R,1.370075X0.014731*%
%ADD35R,1.384806X0.014731*%
%ADD36R,1.399538X0.014731*%
%ADD37R,1.414275X0.014731*%
%ADD38R,1.443738X0.014731*%
%ADD39R,1.458469X0.014731*%
%ADD40R,1.487931X0.014731*%
%ADD41R,1.502663X0.014731*%
%ADD42R,1.517394X0.014731*%
%ADD43R,1.532125X0.014731*%
%ADD44R,1.546856X0.014731*%
%ADD45R,1.576319X0.014731*%
%ADD46R,1.605788X0.014731*%
%ADD47R,1.620519X0.014731*%
%ADD48R,1.649981X0.014731*%
%ADD49R,1.664713X0.014731*%
%ADD50R,1.694175X0.014731*%
%ADD51R,1.708913X0.014731*%
%ADD52R,1.738375X0.014731*%
%ADD53R,1.753106X0.014731*%
%ADD54R,1.767838X0.014731*%
%ADD55R,1.782569X0.014731*%
%ADD56R,1.797306X0.014731*%
%ADD57R,0.117856X0.014731*%
%ADD58R,1.826769X0.014731*%
%ADD59R,0.235713X0.014731*%
%ADD60R,0.353569X0.014731*%
%ADD61R,1.856231X0.014731*%
%ADD62R,0.486156X0.014731*%
%ADD63R,1.870963X0.014731*%
%ADD64R,0.604013X0.014731*%
%ADD65R,0.721869X0.014731*%
%ADD66R,1.885694X0.014731*%
%ADD67R,0.839719X0.014731*%
%ADD68R,0.972306X0.014731*%
%ADD69R,1.090169X0.014731*%
%ADD70R,1.208025X0.014731*%
%ADD71R,1.252219X0.014731*%
%ADD72R,1.296412X0.014731*%
%ADD73R,1.340612X0.014731*%
%ADD74R,1.826763X0.014731*%
%ADD75R,1.414269X0.014731*%
%ADD76R,1.812031X0.014731*%
%ADD77R,1.429000X0.014731*%
%ADD78R,1.458462X0.014731*%
%ADD79R,1.473200X0.014731*%
%ADD80R,1.723644X0.014731*%
%ADD81R,1.694181X0.014731*%
%ADD82R,1.679450X0.014731*%
%ADD83R,1.561594X0.014731*%
%ADD84R,1.576325X0.014731*%
%ADD85R,1.591056X0.014731*%
%ADD86R,1.635250X0.014731*%
%ADD87R,1.561588X0.014731*%
%ADD88R,1.443731X0.014731*%
%ADD89R,1.797300X0.014731*%
%ADD90R,1.841500X0.014731*%
%ADD91R,1.311150X0.014731*%
%ADD92R,1.296419X0.014731*%
%ADD93R,1.193294X0.014731*%
%ADD94R,0.957575X0.014731*%
%ADD95R,0.589281X0.014731*%
%ADD96R,0.471425X0.014731*%
%ADD97R,0.220975X0.014731*%
%ADD98R,1.812038X0.014731*%
%ADD99R,0.103119X0.014731*%
%ADD100R,0.029463X0.014731*%
%ADD101R,0.162050X0.014731*%
%ADD102R,0.397763X0.014731*%
%ADD103R,0.648206X0.014731*%
%ADD104R,1.679444X0.014731*%
%ADD105R,1.016506X0.014731*%
%ADD106R,1.104900X0.014731*%
%ADD107R,1.222750X0.014731*%
%ADD108R,1.429006X0.014731*%
%ADD109R,1.208019X0.014731*%
%ADD110R,0.987044X0.014731*%
%ADD111R,0.854456X0.014731*%
%ADD112R,0.618744X0.014731*%
%ADD113R,0.500888X0.014731*%
%ADD114R,0.368300X0.014731*%
%ADD115R,0.132587X0.014731*%
%ADD116R,1.664719X0.014731*%
%ADD117R,1.075438X0.014731*%
%ADD118R,0.942844X0.014731*%
%ADD119R,0.707131X0.014731*%
%ADD120R,0.456694X0.014731*%
%ADD121R,0.088388X0.014731*%
%ADD122C,0.127000*%
%ADD123C,0.050800*%
%ADD124C,0.076200*%
%ADD125C,0.254000*%


D10*
X-80066Y180220D02*
X-75127Y180220D01*
X-74987Y180218D01*
X-74848Y180212D01*
X-74708Y180202D01*
X-74569Y180188D01*
X-74430Y180171D01*
X-74292Y180149D01*
X-74155Y180123D01*
X-74018Y180094D01*
X-73882Y180061D01*
X-73748Y180024D01*
X-73614Y179983D01*
X-73482Y179938D01*
X-73350Y179889D01*
X-73221Y179837D01*
X-73093Y179782D01*
X-72966Y179722D01*
X-72841Y179659D01*
X-72718Y179593D01*
X-72597Y179523D01*
X-72478Y179450D01*
X-72361Y179373D01*
X-72247Y179293D01*
X-72134Y179210D01*
X-72024Y179124D01*
X-71917Y179034D01*
X-71812Y178942D01*
X-71710Y178847D01*
X-71610Y178749D01*
X-71513Y178648D01*
X-71419Y178544D01*
X-71329Y178438D01*
X-71241Y178329D01*
X-71156Y178218D01*
X-71075Y178104D01*
X-70996Y177989D01*
X-70921Y177871D01*
X-70850Y177751D01*
X-70782Y177628D01*
X-70717Y177505D01*
X-70656Y177379D01*
X-70598Y177251D01*
X-70544Y177123D01*
X-70494Y176992D01*
X-70447Y176860D01*
X-70404Y176727D01*
X-70365Y176593D01*
X-70330Y176458D01*
X-70299Y176322D01*
X-70271Y176184D01*
X-70248Y176047D01*
X-70228Y175908D01*
X-70212Y175769D01*
X-70200Y175630D01*
X-70192Y175491D01*
X-70188Y175351D01*
X-70188Y175211D01*
X-70192Y175071D01*
X-70200Y174932D01*
X-70212Y174793D01*
X-70228Y174654D01*
X-70248Y174515D01*
X-70271Y174378D01*
X-70299Y174240D01*
X-70330Y174104D01*
X-70365Y173969D01*
X-70404Y173835D01*
X-70447Y173702D01*
X-70494Y173570D01*
X-70544Y173439D01*
X-70598Y173311D01*
X-70656Y173183D01*
X-70717Y173057D01*
X-70782Y172934D01*
X-70850Y172812D01*
X-70921Y172691D01*
X-70996Y172573D01*
X-71075Y172458D01*
X-71156Y172344D01*
X-71241Y172233D01*
X-71329Y172124D01*
X-71419Y172018D01*
X-71513Y171914D01*
X-71610Y171813D01*
X-71710Y171715D01*
X-71812Y171620D01*
X-71917Y171528D01*
X-72024Y171438D01*
X-72134Y171352D01*
X-72247Y171269D01*
X-72361Y171189D01*
X-72478Y171112D01*
X-72597Y171039D01*
X-72718Y170969D01*
X-72841Y170903D01*
X-72966Y170840D01*
X-73093Y170780D01*
X-73221Y170725D01*
X-73350Y170673D01*
X-73482Y170624D01*
X-73614Y170579D01*
X-73748Y170538D01*
X-73882Y170501D01*
X-74018Y170468D01*
X-74155Y170439D01*
X-74292Y170413D01*
X-74430Y170391D01*
X-74569Y170374D01*
X-74708Y170360D01*
X-74848Y170350D01*
X-74987Y170344D01*
X-75127Y170342D01*
X-75127Y170343D02*
X-80066Y170343D01*
X-80066Y188123D01*
X-75127Y188123D01*
X-75127Y188122D02*
X-75003Y188120D01*
X-74879Y188114D01*
X-74755Y188104D01*
X-74632Y188091D01*
X-74509Y188073D01*
X-74387Y188052D01*
X-74265Y188027D01*
X-74144Y187998D01*
X-74025Y187965D01*
X-73906Y187929D01*
X-73789Y187888D01*
X-73673Y187845D01*
X-73558Y187797D01*
X-73445Y187746D01*
X-73333Y187691D01*
X-73224Y187633D01*
X-73116Y187572D01*
X-73010Y187507D01*
X-72906Y187439D01*
X-72805Y187367D01*
X-72705Y187293D01*
X-72609Y187215D01*
X-72514Y187135D01*
X-72422Y187051D01*
X-72333Y186965D01*
X-72247Y186876D01*
X-72163Y186784D01*
X-72083Y186689D01*
X-72005Y186593D01*
X-71931Y186493D01*
X-71859Y186392D01*
X-71791Y186288D01*
X-71726Y186182D01*
X-71665Y186074D01*
X-71607Y185965D01*
X-71552Y185853D01*
X-71501Y185740D01*
X-71453Y185625D01*
X-71410Y185509D01*
X-71369Y185392D01*
X-71333Y185273D01*
X-71300Y185154D01*
X-71271Y185033D01*
X-71246Y184911D01*
X-71225Y184789D01*
X-71207Y184666D01*
X-71194Y184543D01*
X-71184Y184419D01*
X-71178Y184295D01*
X-71176Y184171D01*
X-71178Y184047D01*
X-71184Y183923D01*
X-71194Y183799D01*
X-71207Y183676D01*
X-71225Y183553D01*
X-71246Y183431D01*
X-71271Y183309D01*
X-71300Y183188D01*
X-71333Y183069D01*
X-71369Y182950D01*
X-71410Y182833D01*
X-71453Y182717D01*
X-71501Y182602D01*
X-71552Y182489D01*
X-71607Y182377D01*
X-71665Y182268D01*
X-71726Y182160D01*
X-71791Y182054D01*
X-71859Y181950D01*
X-71931Y181849D01*
X-72005Y181749D01*
X-72083Y181653D01*
X-72163Y181558D01*
X-72247Y181466D01*
X-72333Y181377D01*
X-72422Y181291D01*
X-72514Y181207D01*
X-72609Y181127D01*
X-72705Y181049D01*
X-72805Y180975D01*
X-72906Y180903D01*
X-73010Y180835D01*
X-73116Y180770D01*
X-73224Y180709D01*
X-73333Y180651D01*
X-73445Y180596D01*
X-73558Y180545D01*
X-73673Y180497D01*
X-73789Y180454D01*
X-73906Y180413D01*
X-74025Y180377D01*
X-74144Y180344D01*
X-74265Y180315D01*
X-74387Y180290D01*
X-74509Y180269D01*
X-74632Y180251D01*
X-74755Y180238D01*
X-74879Y180228D01*
X-75003Y180222D01*
X-75127Y180220D01*
X-79720Y136131D02*
X-79720Y119875D01*
X-79720Y136131D02*
X-75205Y136131D01*
X-75205Y136132D02*
X-75074Y136130D01*
X-74942Y136124D01*
X-74811Y136115D01*
X-74681Y136101D01*
X-74550Y136084D01*
X-74421Y136063D01*
X-74292Y136039D01*
X-74164Y136010D01*
X-74036Y135978D01*
X-73910Y135942D01*
X-73785Y135903D01*
X-73660Y135860D01*
X-73538Y135813D01*
X-73416Y135763D01*
X-73296Y135709D01*
X-73178Y135652D01*
X-73062Y135591D01*
X-72947Y135527D01*
X-72834Y135460D01*
X-72723Y135389D01*
X-72615Y135315D01*
X-72508Y135238D01*
X-72404Y135158D01*
X-72302Y135075D01*
X-72203Y134990D01*
X-72106Y134901D01*
X-72012Y134809D01*
X-71920Y134715D01*
X-71831Y134618D01*
X-71746Y134519D01*
X-71663Y134417D01*
X-71583Y134313D01*
X-71506Y134206D01*
X-71432Y134098D01*
X-71361Y133987D01*
X-71294Y133874D01*
X-71230Y133759D01*
X-71169Y133643D01*
X-71112Y133525D01*
X-71058Y133405D01*
X-71008Y133283D01*
X-70961Y133161D01*
X-70918Y133036D01*
X-70879Y132911D01*
X-70843Y132785D01*
X-70811Y132657D01*
X-70782Y132529D01*
X-70758Y132400D01*
X-70737Y132271D01*
X-70720Y132140D01*
X-70706Y132010D01*
X-70697Y131879D01*
X-70691Y131747D01*
X-70689Y131616D01*
X-70689Y124391D01*
X-70691Y124260D01*
X-70697Y124128D01*
X-70706Y123997D01*
X-70720Y123867D01*
X-70737Y123736D01*
X-70758Y123607D01*
X-70782Y123478D01*
X-70811Y123350D01*
X-70843Y123222D01*
X-70879Y123096D01*
X-70918Y122971D01*
X-70961Y122846D01*
X-71008Y122724D01*
X-71058Y122602D01*
X-71112Y122482D01*
X-71169Y122364D01*
X-71230Y122248D01*
X-71294Y122133D01*
X-71361Y122020D01*
X-71432Y121909D01*
X-71506Y121801D01*
X-71583Y121694D01*
X-71663Y121590D01*
X-71746Y121488D01*
X-71831Y121389D01*
X-71920Y121292D01*
X-72012Y121198D01*
X-72106Y121106D01*
X-72203Y121017D01*
X-72302Y120932D01*
X-72404Y120849D01*
X-72508Y120769D01*
X-72615Y120692D01*
X-72723Y120618D01*
X-72834Y120547D01*
X-72947Y120480D01*
X-73062Y120416D01*
X-73178Y120355D01*
X-73296Y120298D01*
X-73416Y120244D01*
X-73538Y120194D01*
X-73660Y120147D01*
X-73785Y120104D01*
X-73910Y120065D01*
X-74036Y120029D01*
X-74164Y119997D01*
X-74292Y119968D01*
X-74421Y119944D01*
X-74550Y119923D01*
X-74681Y119906D01*
X-74811Y119892D01*
X-74942Y119883D01*
X-75074Y119877D01*
X-75205Y119875D01*
X-79720Y119875D01*
X-76390Y145753D02*
X-72778Y145753D01*
X-76390Y145753D02*
X-76508Y145755D01*
X-76626Y145761D01*
X-76744Y145770D01*
X-76861Y145784D01*
X-76978Y145801D01*
X-77095Y145822D01*
X-77210Y145847D01*
X-77325Y145876D01*
X-77439Y145909D01*
X-77551Y145945D01*
X-77662Y145985D01*
X-77772Y146028D01*
X-77881Y146075D01*
X-77988Y146125D01*
X-78093Y146180D01*
X-78196Y146237D01*
X-78297Y146298D01*
X-78397Y146362D01*
X-78494Y146429D01*
X-78589Y146499D01*
X-78681Y146573D01*
X-78772Y146649D01*
X-78859Y146729D01*
X-78944Y146811D01*
X-79026Y146896D01*
X-79106Y146983D01*
X-79182Y147074D01*
X-79256Y147166D01*
X-79326Y147261D01*
X-79393Y147358D01*
X-79457Y147458D01*
X-79518Y147559D01*
X-79575Y147662D01*
X-79630Y147767D01*
X-79680Y147874D01*
X-79727Y147983D01*
X-79770Y148093D01*
X-79810Y148204D01*
X-79846Y148316D01*
X-79879Y148430D01*
X-79908Y148545D01*
X-79933Y148660D01*
X-79954Y148777D01*
X-79971Y148894D01*
X-79985Y149011D01*
X-79994Y149129D01*
X-80000Y149247D01*
X-80002Y149365D01*
X-80002Y158396D01*
X-80000Y158514D01*
X-79994Y158632D01*
X-79985Y158750D01*
X-79971Y158867D01*
X-79954Y158984D01*
X-79933Y159101D01*
X-79908Y159216D01*
X-79879Y159331D01*
X-79846Y159445D01*
X-79810Y159557D01*
X-79770Y159668D01*
X-79727Y159778D01*
X-79680Y159887D01*
X-79630Y159994D01*
X-79575Y160099D01*
X-79518Y160202D01*
X-79457Y160303D01*
X-79393Y160403D01*
X-79326Y160500D01*
X-79256Y160595D01*
X-79182Y160687D01*
X-79106Y160778D01*
X-79026Y160865D01*
X-78944Y160950D01*
X-78859Y161032D01*
X-78772Y161112D01*
X-78681Y161188D01*
X-78589Y161262D01*
X-78494Y161332D01*
X-78397Y161399D01*
X-78297Y161463D01*
X-78196Y161524D01*
X-78093Y161581D01*
X-77988Y161636D01*
X-77881Y161686D01*
X-77772Y161733D01*
X-77662Y161776D01*
X-77551Y161816D01*
X-77439Y161852D01*
X-77325Y161885D01*
X-77210Y161914D01*
X-77095Y161939D01*
X-76978Y161960D01*
X-76861Y161977D01*
X-76744Y161991D01*
X-76626Y162000D01*
X-76508Y162006D01*
X-76390Y162008D01*
X-76390Y162009D02*
X-72778Y162009D01*
D11*
X56718Y279952D02*
X59376Y278090D01*
X59470Y278027D01*
X59566Y277967D01*
X59664Y277910D01*
X59764Y277857D01*
X59866Y277807D01*
X59970Y277761D01*
X60075Y277719D01*
X60181Y277680D01*
X60289Y277645D01*
X60398Y277614D01*
X60508Y277586D01*
X60619Y277563D01*
X60730Y277543D01*
X60842Y277527D01*
X60955Y277515D01*
X61068Y277507D01*
X61181Y277503D01*
X61295Y277503D01*
X61408Y277507D01*
X61521Y277515D01*
X61634Y277527D01*
X61746Y277543D01*
X61857Y277563D01*
X61968Y277586D01*
X62078Y277614D01*
X62187Y277645D01*
X62295Y277680D01*
X62401Y277719D01*
X62506Y277761D01*
X62610Y277807D01*
X62712Y277857D01*
X62812Y277910D01*
X62910Y277967D01*
X63006Y278027D01*
X63100Y278090D01*
X63191Y278157D01*
X63281Y278226D01*
X63368Y278299D01*
X63452Y278375D01*
X63533Y278454D01*
X63612Y278535D01*
X63688Y278619D01*
X63761Y278706D01*
X63830Y278796D01*
X63897Y278887D01*
X63960Y278981D01*
X64020Y279077D01*
X64077Y279175D01*
X64130Y279275D01*
X64180Y279377D01*
X64226Y279481D01*
X64268Y279586D01*
X64307Y279692D01*
X64342Y279800D01*
X64373Y279909D01*
X64401Y280019D01*
X64424Y280130D01*
X64444Y280241D01*
X64460Y280353D01*
X64472Y280466D01*
X64480Y280579D01*
X64484Y280692D01*
X64484Y280806D01*
X64480Y280919D01*
X64472Y281032D01*
X64460Y281145D01*
X64444Y281257D01*
X64424Y281368D01*
X64401Y281479D01*
X64373Y281589D01*
X64342Y281698D01*
X64307Y281806D01*
X64268Y281912D01*
X64226Y282017D01*
X64180Y282121D01*
X64130Y282223D01*
X64077Y282323D01*
X64020Y282421D01*
X63960Y282517D01*
X63897Y282611D01*
X63830Y282702D01*
X63761Y282792D01*
X63688Y282879D01*
X63612Y282963D01*
X63533Y283044D01*
X63452Y283123D01*
X63368Y283199D01*
X63281Y283272D01*
X63192Y283341D01*
X63100Y283408D01*
X66610Y287289D02*
X63419Y289523D01*
X66609Y287289D02*
X66690Y287229D01*
X66769Y287167D01*
X66846Y287101D01*
X66920Y287033D01*
X66991Y286962D01*
X67059Y286888D01*
X67125Y286811D01*
X67187Y286732D01*
X67247Y286651D01*
X67303Y286567D01*
X67356Y286482D01*
X67405Y286394D01*
X67451Y286305D01*
X67494Y286213D01*
X67533Y286120D01*
X67568Y286026D01*
X67600Y285931D01*
X67628Y285834D01*
X67652Y285736D01*
X67672Y285638D01*
X67689Y285538D01*
X67701Y285438D01*
X67710Y285338D01*
X67715Y285238D01*
X67716Y285137D01*
X67713Y285036D01*
X67706Y284936D01*
X67695Y284836D01*
X67681Y284736D01*
X67662Y284637D01*
X67640Y284539D01*
X67614Y284442D01*
X67584Y284345D01*
X67551Y284251D01*
X67514Y284157D01*
X67473Y284065D01*
X67428Y283974D01*
X67381Y283886D01*
X67329Y283799D01*
X67275Y283715D01*
X67217Y283632D01*
X67156Y283552D01*
X67092Y283474D01*
X67025Y283399D01*
X66956Y283326D01*
X66883Y283257D01*
X66808Y283190D01*
X66730Y283126D01*
X66650Y283065D01*
X66567Y283007D01*
X66483Y282953D01*
X66396Y282901D01*
X66308Y282854D01*
X66217Y282809D01*
X66125Y282768D01*
X66031Y282731D01*
X65937Y282698D01*
X65840Y282668D01*
X65743Y282642D01*
X65645Y282620D01*
X65546Y282601D01*
X65446Y282587D01*
X65346Y282576D01*
X65246Y282569D01*
X65145Y282566D01*
X65044Y282567D01*
X64944Y282572D01*
X64844Y282581D01*
X64744Y282593D01*
X64644Y282610D01*
X64546Y282630D01*
X64448Y282654D01*
X64351Y282682D01*
X64256Y282714D01*
X64162Y282749D01*
X64069Y282788D01*
X63977Y282831D01*
X63888Y282877D01*
X63800Y282926D01*
X63715Y282979D01*
X63631Y283035D01*
X61504Y284525D01*
X72250Y283339D02*
X68739Y271534D01*
X78631Y278872D01*
X75443Y266840D02*
X78102Y264978D01*
X78196Y264915D01*
X78292Y264855D01*
X78390Y264798D01*
X78490Y264745D01*
X78592Y264695D01*
X78696Y264649D01*
X78801Y264607D01*
X78907Y264568D01*
X79015Y264533D01*
X79124Y264502D01*
X79234Y264474D01*
X79345Y264451D01*
X79456Y264431D01*
X79568Y264415D01*
X79681Y264403D01*
X79794Y264395D01*
X79907Y264391D01*
X80021Y264391D01*
X80134Y264395D01*
X80247Y264403D01*
X80360Y264415D01*
X80472Y264431D01*
X80583Y264451D01*
X80694Y264474D01*
X80804Y264502D01*
X80913Y264533D01*
X81021Y264568D01*
X81127Y264607D01*
X81232Y264649D01*
X81336Y264695D01*
X81438Y264745D01*
X81538Y264798D01*
X81636Y264855D01*
X81732Y264915D01*
X81826Y264978D01*
X81917Y265045D01*
X82007Y265114D01*
X82094Y265187D01*
X82178Y265263D01*
X82259Y265342D01*
X82338Y265423D01*
X82414Y265507D01*
X82487Y265594D01*
X82556Y265684D01*
X82623Y265775D01*
X82686Y265869D01*
X82746Y265965D01*
X82803Y266063D01*
X82856Y266163D01*
X82906Y266265D01*
X82952Y266369D01*
X82994Y266474D01*
X83033Y266580D01*
X83068Y266688D01*
X83099Y266797D01*
X83127Y266907D01*
X83150Y267018D01*
X83170Y267129D01*
X83186Y267241D01*
X83198Y267354D01*
X83206Y267467D01*
X83210Y267580D01*
X83210Y267694D01*
X83206Y267807D01*
X83198Y267920D01*
X83186Y268033D01*
X83170Y268145D01*
X83150Y268256D01*
X83127Y268367D01*
X83099Y268477D01*
X83068Y268586D01*
X83033Y268694D01*
X82994Y268800D01*
X82952Y268905D01*
X82906Y269009D01*
X82856Y269111D01*
X82803Y269211D01*
X82746Y269309D01*
X82686Y269405D01*
X82623Y269499D01*
X82556Y269590D01*
X82487Y269680D01*
X82414Y269767D01*
X82338Y269851D01*
X82259Y269932D01*
X82178Y270011D01*
X82094Y270087D01*
X82007Y270160D01*
X81918Y270229D01*
X81826Y270296D01*
X85335Y274177D02*
X82145Y276411D01*
X85335Y274177D02*
X85416Y274117D01*
X85495Y274055D01*
X85572Y273989D01*
X85646Y273921D01*
X85717Y273850D01*
X85785Y273776D01*
X85851Y273699D01*
X85913Y273620D01*
X85973Y273539D01*
X86029Y273455D01*
X86082Y273370D01*
X86131Y273282D01*
X86177Y273193D01*
X86220Y273101D01*
X86259Y273008D01*
X86294Y272914D01*
X86326Y272819D01*
X86354Y272722D01*
X86378Y272624D01*
X86398Y272526D01*
X86415Y272426D01*
X86427Y272326D01*
X86436Y272226D01*
X86441Y272126D01*
X86442Y272025D01*
X86439Y271924D01*
X86432Y271824D01*
X86421Y271724D01*
X86407Y271624D01*
X86388Y271525D01*
X86366Y271427D01*
X86340Y271330D01*
X86310Y271233D01*
X86277Y271139D01*
X86240Y271045D01*
X86199Y270953D01*
X86154Y270862D01*
X86107Y270774D01*
X86055Y270687D01*
X86001Y270603D01*
X85943Y270520D01*
X85882Y270440D01*
X85818Y270362D01*
X85751Y270287D01*
X85682Y270214D01*
X85609Y270145D01*
X85534Y270078D01*
X85456Y270014D01*
X85376Y269953D01*
X85293Y269895D01*
X85209Y269841D01*
X85122Y269789D01*
X85034Y269742D01*
X84943Y269697D01*
X84851Y269656D01*
X84757Y269619D01*
X84663Y269586D01*
X84566Y269556D01*
X84469Y269530D01*
X84371Y269508D01*
X84272Y269489D01*
X84172Y269475D01*
X84072Y269464D01*
X83972Y269457D01*
X83871Y269454D01*
X83770Y269455D01*
X83670Y269460D01*
X83570Y269469D01*
X83470Y269481D01*
X83370Y269498D01*
X83272Y269518D01*
X83174Y269542D01*
X83077Y269570D01*
X82982Y269602D01*
X82888Y269637D01*
X82795Y269676D01*
X82703Y269719D01*
X82614Y269765D01*
X82526Y269814D01*
X82441Y269867D01*
X82357Y269923D01*
X80230Y271413D01*
X150532Y139190D02*
X150532Y135944D01*
X150532Y139190D02*
X150530Y139303D01*
X150524Y139416D01*
X150514Y139529D01*
X150500Y139642D01*
X150483Y139754D01*
X150461Y139865D01*
X150436Y139975D01*
X150406Y140085D01*
X150373Y140193D01*
X150336Y140300D01*
X150296Y140406D01*
X150251Y140510D01*
X150203Y140613D01*
X150152Y140714D01*
X150097Y140813D01*
X150039Y140910D01*
X149977Y141005D01*
X149912Y141098D01*
X149844Y141188D01*
X149773Y141276D01*
X149698Y141362D01*
X149621Y141445D01*
X149541Y141525D01*
X149458Y141602D01*
X149372Y141677D01*
X149284Y141748D01*
X149194Y141816D01*
X149101Y141881D01*
X149006Y141943D01*
X148909Y142001D01*
X148810Y142056D01*
X148709Y142107D01*
X148606Y142155D01*
X148502Y142200D01*
X148396Y142240D01*
X148289Y142277D01*
X148181Y142310D01*
X148071Y142340D01*
X147961Y142365D01*
X147850Y142387D01*
X147738Y142404D01*
X147625Y142418D01*
X147512Y142428D01*
X147399Y142434D01*
X147286Y142436D01*
X147173Y142434D01*
X147060Y142428D01*
X146947Y142418D01*
X146834Y142404D01*
X146722Y142387D01*
X146611Y142365D01*
X146501Y142340D01*
X146391Y142310D01*
X146283Y142277D01*
X146176Y142240D01*
X146070Y142200D01*
X145966Y142155D01*
X145863Y142107D01*
X145762Y142056D01*
X145663Y142001D01*
X145566Y141943D01*
X145471Y141881D01*
X145378Y141816D01*
X145288Y141748D01*
X145200Y141677D01*
X145114Y141602D01*
X145031Y141525D01*
X144951Y141445D01*
X144874Y141362D01*
X144799Y141276D01*
X144728Y141188D01*
X144660Y141098D01*
X144595Y141005D01*
X144533Y140910D01*
X144475Y140813D01*
X144420Y140714D01*
X144369Y140613D01*
X144321Y140510D01*
X144276Y140406D01*
X144236Y140300D01*
X144199Y140193D01*
X144166Y140085D01*
X144136Y139975D01*
X144111Y139865D01*
X144089Y139754D01*
X144072Y139642D01*
X144058Y139529D01*
X144048Y139416D01*
X144042Y139303D01*
X144040Y139190D01*
X138848Y139839D02*
X138848Y135944D01*
X138848Y139839D02*
X138850Y139940D01*
X138856Y140040D01*
X138866Y140140D01*
X138879Y140240D01*
X138897Y140339D01*
X138918Y140438D01*
X138943Y140535D01*
X138972Y140632D01*
X139005Y140727D01*
X139041Y140821D01*
X139081Y140913D01*
X139124Y141004D01*
X139171Y141093D01*
X139221Y141180D01*
X139275Y141266D01*
X139332Y141349D01*
X139392Y141429D01*
X139455Y141508D01*
X139522Y141584D01*
X139591Y141657D01*
X139663Y141727D01*
X139737Y141795D01*
X139814Y141860D01*
X139894Y141921D01*
X139976Y141980D01*
X140060Y142035D01*
X140146Y142087D01*
X140234Y142136D01*
X140324Y142181D01*
X140416Y142223D01*
X140509Y142261D01*
X140604Y142295D01*
X140699Y142326D01*
X140796Y142353D01*
X140894Y142376D01*
X140993Y142396D01*
X141093Y142411D01*
X141193Y142423D01*
X141293Y142431D01*
X141394Y142435D01*
X141494Y142435D01*
X141595Y142431D01*
X141695Y142423D01*
X141795Y142411D01*
X141895Y142396D01*
X141994Y142376D01*
X142092Y142353D01*
X142189Y142326D01*
X142284Y142295D01*
X142379Y142261D01*
X142472Y142223D01*
X142564Y142181D01*
X142654Y142136D01*
X142742Y142087D01*
X142828Y142035D01*
X142912Y141980D01*
X142994Y141921D01*
X143074Y141860D01*
X143151Y141795D01*
X143225Y141727D01*
X143297Y141657D01*
X143366Y141584D01*
X143433Y141508D01*
X143496Y141429D01*
X143556Y141349D01*
X143613Y141266D01*
X143667Y141180D01*
X143717Y141093D01*
X143764Y141004D01*
X143807Y140913D01*
X143847Y140821D01*
X143883Y140727D01*
X143916Y140632D01*
X143945Y140535D01*
X143970Y140438D01*
X143991Y140339D01*
X144009Y140240D01*
X144022Y140140D01*
X144032Y140040D01*
X144038Y139940D01*
X144040Y139839D01*
X144041Y139839D02*
X144041Y137243D01*
X138848Y146725D02*
X150532Y150620D01*
X138848Y154515D01*
X150532Y158804D02*
X150532Y162050D01*
X150530Y162163D01*
X150524Y162276D01*
X150514Y162389D01*
X150500Y162502D01*
X150483Y162614D01*
X150461Y162725D01*
X150436Y162835D01*
X150406Y162945D01*
X150373Y163053D01*
X150336Y163160D01*
X150296Y163266D01*
X150251Y163370D01*
X150203Y163473D01*
X150152Y163574D01*
X150097Y163673D01*
X150039Y163770D01*
X149977Y163865D01*
X149912Y163958D01*
X149844Y164048D01*
X149773Y164136D01*
X149698Y164222D01*
X149621Y164305D01*
X149541Y164385D01*
X149458Y164462D01*
X149372Y164537D01*
X149284Y164608D01*
X149194Y164676D01*
X149101Y164741D01*
X149006Y164803D01*
X148909Y164861D01*
X148810Y164916D01*
X148709Y164967D01*
X148606Y165015D01*
X148502Y165060D01*
X148396Y165100D01*
X148289Y165137D01*
X148181Y165170D01*
X148071Y165200D01*
X147961Y165225D01*
X147850Y165247D01*
X147738Y165264D01*
X147625Y165278D01*
X147512Y165288D01*
X147399Y165294D01*
X147286Y165296D01*
X147173Y165294D01*
X147060Y165288D01*
X146947Y165278D01*
X146834Y165264D01*
X146722Y165247D01*
X146611Y165225D01*
X146501Y165200D01*
X146391Y165170D01*
X146283Y165137D01*
X146176Y165100D01*
X146070Y165060D01*
X145966Y165015D01*
X145863Y164967D01*
X145762Y164916D01*
X145663Y164861D01*
X145566Y164803D01*
X145471Y164741D01*
X145378Y164676D01*
X145288Y164608D01*
X145200Y164537D01*
X145114Y164462D01*
X145031Y164385D01*
X144951Y164305D01*
X144874Y164222D01*
X144799Y164136D01*
X144728Y164048D01*
X144660Y163958D01*
X144595Y163865D01*
X144533Y163770D01*
X144475Y163673D01*
X144420Y163574D01*
X144369Y163473D01*
X144321Y163370D01*
X144276Y163266D01*
X144236Y163160D01*
X144199Y163053D01*
X144166Y162945D01*
X144136Y162835D01*
X144111Y162725D01*
X144089Y162614D01*
X144072Y162502D01*
X144058Y162389D01*
X144048Y162276D01*
X144042Y162163D01*
X144040Y162050D01*
X138848Y162699D02*
X138848Y158804D01*
X138848Y162699D02*
X138850Y162800D01*
X138856Y162900D01*
X138866Y163000D01*
X138879Y163100D01*
X138897Y163199D01*
X138918Y163298D01*
X138943Y163395D01*
X138972Y163492D01*
X139005Y163587D01*
X139041Y163681D01*
X139081Y163773D01*
X139124Y163864D01*
X139171Y163953D01*
X139221Y164040D01*
X139275Y164126D01*
X139332Y164209D01*
X139392Y164289D01*
X139455Y164368D01*
X139522Y164444D01*
X139591Y164517D01*
X139663Y164587D01*
X139737Y164655D01*
X139814Y164720D01*
X139894Y164781D01*
X139976Y164840D01*
X140060Y164895D01*
X140146Y164947D01*
X140234Y164996D01*
X140324Y165041D01*
X140416Y165083D01*
X140509Y165121D01*
X140604Y165155D01*
X140699Y165186D01*
X140796Y165213D01*
X140894Y165236D01*
X140993Y165256D01*
X141093Y165271D01*
X141193Y165283D01*
X141293Y165291D01*
X141394Y165295D01*
X141494Y165295D01*
X141595Y165291D01*
X141695Y165283D01*
X141795Y165271D01*
X141895Y165256D01*
X141994Y165236D01*
X142092Y165213D01*
X142189Y165186D01*
X142284Y165155D01*
X142379Y165121D01*
X142472Y165083D01*
X142564Y165041D01*
X142654Y164996D01*
X142742Y164947D01*
X142828Y164895D01*
X142912Y164840D01*
X142994Y164781D01*
X143074Y164720D01*
X143151Y164655D01*
X143225Y164587D01*
X143297Y164517D01*
X143366Y164444D01*
X143433Y164368D01*
X143496Y164289D01*
X143556Y164209D01*
X143613Y164126D01*
X143667Y164040D01*
X143717Y163953D01*
X143764Y163864D01*
X143807Y163773D01*
X143847Y163681D01*
X143883Y163587D01*
X143916Y163492D01*
X143945Y163395D01*
X143970Y163298D01*
X143991Y163199D01*
X144009Y163100D01*
X144022Y163000D01*
X144032Y162900D01*
X144038Y162800D01*
X144040Y162699D01*
X144041Y162699D02*
X144041Y160103D01*
X66078Y13579D02*
X63419Y11717D01*
X66078Y13578D02*
X66169Y13645D01*
X66259Y13714D01*
X66346Y13787D01*
X66430Y13863D01*
X66511Y13942D01*
X66590Y14023D01*
X66666Y14107D01*
X66739Y14194D01*
X66808Y14284D01*
X66875Y14375D01*
X66938Y14469D01*
X66998Y14565D01*
X67055Y14663D01*
X67108Y14763D01*
X67158Y14865D01*
X67204Y14969D01*
X67246Y15074D01*
X67285Y15180D01*
X67320Y15288D01*
X67351Y15397D01*
X67379Y15507D01*
X67402Y15618D01*
X67422Y15729D01*
X67438Y15841D01*
X67450Y15954D01*
X67458Y16067D01*
X67462Y16180D01*
X67462Y16294D01*
X67458Y16407D01*
X67450Y16520D01*
X67438Y16633D01*
X67422Y16745D01*
X67402Y16856D01*
X67379Y16967D01*
X67351Y17077D01*
X67320Y17186D01*
X67285Y17294D01*
X67246Y17400D01*
X67204Y17505D01*
X67158Y17609D01*
X67108Y17711D01*
X67055Y17811D01*
X66998Y17909D01*
X66938Y18005D01*
X66875Y18099D01*
X66808Y18190D01*
X66739Y18280D01*
X66666Y18367D01*
X66590Y18451D01*
X66511Y18532D01*
X66430Y18611D01*
X66346Y18687D01*
X66259Y18760D01*
X66170Y18829D01*
X66078Y18896D01*
X65984Y18959D01*
X65888Y19019D01*
X65790Y19076D01*
X65690Y19129D01*
X65588Y19179D01*
X65484Y19225D01*
X65379Y19267D01*
X65273Y19306D01*
X65165Y19341D01*
X65056Y19372D01*
X64946Y19400D01*
X64835Y19423D01*
X64724Y19443D01*
X64612Y19459D01*
X64499Y19471D01*
X64386Y19479D01*
X64273Y19483D01*
X64159Y19483D01*
X64046Y19479D01*
X63933Y19471D01*
X63820Y19459D01*
X63708Y19443D01*
X63597Y19423D01*
X63486Y19400D01*
X63376Y19372D01*
X63267Y19341D01*
X63159Y19306D01*
X63053Y19267D01*
X62948Y19225D01*
X62844Y19179D01*
X62742Y19129D01*
X62642Y19076D01*
X62544Y19019D01*
X62448Y18959D01*
X62354Y18896D01*
X59908Y23522D02*
X56718Y21288D01*
X59908Y23522D02*
X59992Y23578D01*
X60077Y23631D01*
X60165Y23680D01*
X60254Y23726D01*
X60346Y23769D01*
X60439Y23808D01*
X60533Y23843D01*
X60628Y23875D01*
X60725Y23903D01*
X60823Y23927D01*
X60921Y23947D01*
X61021Y23964D01*
X61121Y23976D01*
X61221Y23985D01*
X61322Y23990D01*
X61422Y23991D01*
X61523Y23988D01*
X61623Y23981D01*
X61723Y23970D01*
X61823Y23956D01*
X61922Y23937D01*
X62020Y23915D01*
X62117Y23889D01*
X62214Y23859D01*
X62309Y23826D01*
X62402Y23789D01*
X62494Y23748D01*
X62585Y23703D01*
X62673Y23656D01*
X62760Y23604D01*
X62844Y23550D01*
X62927Y23492D01*
X63007Y23431D01*
X63085Y23367D01*
X63160Y23300D01*
X63233Y23231D01*
X63302Y23158D01*
X63369Y23083D01*
X63433Y23005D01*
X63494Y22925D01*
X63552Y22842D01*
X63606Y22758D01*
X63658Y22671D01*
X63705Y22583D01*
X63750Y22492D01*
X63791Y22400D01*
X63828Y22306D01*
X63861Y22212D01*
X63891Y22115D01*
X63917Y22018D01*
X63939Y21920D01*
X63958Y21821D01*
X63972Y21721D01*
X63983Y21621D01*
X63990Y21521D01*
X63993Y21420D01*
X63992Y21320D01*
X63987Y21219D01*
X63978Y21119D01*
X63966Y21019D01*
X63949Y20919D01*
X63929Y20821D01*
X63905Y20723D01*
X63877Y20626D01*
X63845Y20531D01*
X63810Y20437D01*
X63771Y20344D01*
X63728Y20252D01*
X63682Y20163D01*
X63633Y20075D01*
X63580Y19990D01*
X63524Y19906D01*
X63464Y19825D01*
X63402Y19746D01*
X63336Y19669D01*
X63268Y19595D01*
X63197Y19524D01*
X63123Y19456D01*
X63046Y19390D01*
X62967Y19328D01*
X62886Y19268D01*
X60760Y17779D01*
X65549Y27472D02*
X75441Y20134D01*
X71929Y31939D01*
X82145Y24829D02*
X84804Y26690D01*
X84895Y26757D01*
X84985Y26826D01*
X85072Y26899D01*
X85156Y26975D01*
X85237Y27054D01*
X85316Y27135D01*
X85392Y27219D01*
X85465Y27306D01*
X85534Y27396D01*
X85601Y27487D01*
X85664Y27581D01*
X85724Y27677D01*
X85781Y27775D01*
X85834Y27875D01*
X85884Y27977D01*
X85930Y28081D01*
X85972Y28186D01*
X86011Y28292D01*
X86046Y28400D01*
X86077Y28509D01*
X86105Y28619D01*
X86128Y28730D01*
X86148Y28841D01*
X86164Y28953D01*
X86176Y29066D01*
X86184Y29179D01*
X86188Y29292D01*
X86188Y29406D01*
X86184Y29519D01*
X86176Y29632D01*
X86164Y29745D01*
X86148Y29857D01*
X86128Y29968D01*
X86105Y30079D01*
X86077Y30189D01*
X86046Y30298D01*
X86011Y30406D01*
X85972Y30512D01*
X85930Y30617D01*
X85884Y30721D01*
X85834Y30823D01*
X85781Y30923D01*
X85724Y31021D01*
X85664Y31117D01*
X85601Y31211D01*
X85534Y31302D01*
X85465Y31392D01*
X85392Y31479D01*
X85316Y31563D01*
X85237Y31644D01*
X85156Y31723D01*
X85072Y31799D01*
X84985Y31872D01*
X84896Y31941D01*
X84804Y32008D01*
X84710Y32071D01*
X84614Y32131D01*
X84516Y32188D01*
X84416Y32241D01*
X84314Y32291D01*
X84210Y32337D01*
X84105Y32379D01*
X83999Y32418D01*
X83891Y32453D01*
X83782Y32484D01*
X83672Y32512D01*
X83561Y32535D01*
X83450Y32555D01*
X83338Y32571D01*
X83225Y32583D01*
X83112Y32591D01*
X82999Y32595D01*
X82885Y32595D01*
X82772Y32591D01*
X82659Y32583D01*
X82546Y32571D01*
X82434Y32555D01*
X82323Y32535D01*
X82212Y32512D01*
X82102Y32484D01*
X81993Y32453D01*
X81885Y32418D01*
X81779Y32379D01*
X81674Y32337D01*
X81570Y32291D01*
X81468Y32241D01*
X81368Y32188D01*
X81270Y32131D01*
X81174Y32071D01*
X81080Y32008D01*
X78634Y36634D02*
X75443Y34400D01*
X78634Y36634D02*
X78718Y36690D01*
X78803Y36743D01*
X78891Y36792D01*
X78980Y36838D01*
X79072Y36881D01*
X79165Y36920D01*
X79259Y36955D01*
X79354Y36987D01*
X79451Y37015D01*
X79549Y37039D01*
X79647Y37059D01*
X79747Y37076D01*
X79847Y37088D01*
X79947Y37097D01*
X80048Y37102D01*
X80148Y37103D01*
X80249Y37100D01*
X80349Y37093D01*
X80449Y37082D01*
X80549Y37068D01*
X80648Y37049D01*
X80746Y37027D01*
X80843Y37001D01*
X80940Y36971D01*
X81035Y36938D01*
X81128Y36901D01*
X81220Y36860D01*
X81311Y36815D01*
X81399Y36768D01*
X81486Y36716D01*
X81570Y36662D01*
X81653Y36604D01*
X81733Y36543D01*
X81811Y36479D01*
X81886Y36412D01*
X81959Y36343D01*
X82028Y36270D01*
X82095Y36195D01*
X82159Y36117D01*
X82220Y36037D01*
X82278Y35954D01*
X82332Y35870D01*
X82384Y35783D01*
X82431Y35695D01*
X82476Y35604D01*
X82517Y35512D01*
X82554Y35418D01*
X82587Y35324D01*
X82617Y35227D01*
X82643Y35130D01*
X82665Y35032D01*
X82684Y34933D01*
X82698Y34833D01*
X82709Y34733D01*
X82716Y34633D01*
X82719Y34532D01*
X82718Y34432D01*
X82713Y34331D01*
X82704Y34231D01*
X82692Y34131D01*
X82675Y34031D01*
X82655Y33933D01*
X82631Y33835D01*
X82603Y33738D01*
X82571Y33643D01*
X82536Y33549D01*
X82497Y33456D01*
X82454Y33364D01*
X82408Y33275D01*
X82359Y33187D01*
X82306Y33102D01*
X82250Y33018D01*
X82190Y32937D01*
X82128Y32858D01*
X82062Y32781D01*
X81994Y32707D01*
X81923Y32636D01*
X81849Y32568D01*
X81772Y32502D01*
X81693Y32440D01*
X81612Y32380D01*
X79485Y30891D01*
X-85824Y26690D02*
X-88482Y28552D01*
X-85824Y26690D02*
X-85730Y26627D01*
X-85634Y26567D01*
X-85536Y26510D01*
X-85436Y26457D01*
X-85334Y26407D01*
X-85230Y26361D01*
X-85125Y26319D01*
X-85019Y26280D01*
X-84911Y26245D01*
X-84802Y26214D01*
X-84692Y26186D01*
X-84581Y26163D01*
X-84470Y26143D01*
X-84358Y26127D01*
X-84245Y26115D01*
X-84132Y26107D01*
X-84019Y26103D01*
X-83905Y26103D01*
X-83792Y26107D01*
X-83679Y26115D01*
X-83566Y26127D01*
X-83454Y26143D01*
X-83343Y26163D01*
X-83232Y26186D01*
X-83122Y26214D01*
X-83013Y26245D01*
X-82905Y26280D01*
X-82799Y26319D01*
X-82694Y26361D01*
X-82590Y26407D01*
X-82488Y26457D01*
X-82388Y26510D01*
X-82290Y26567D01*
X-82194Y26627D01*
X-82100Y26690D01*
X-82009Y26757D01*
X-81919Y26826D01*
X-81832Y26899D01*
X-81748Y26975D01*
X-81667Y27054D01*
X-81588Y27135D01*
X-81512Y27219D01*
X-81439Y27306D01*
X-81370Y27396D01*
X-81303Y27487D01*
X-81240Y27581D01*
X-81180Y27677D01*
X-81123Y27775D01*
X-81070Y27875D01*
X-81020Y27977D01*
X-80974Y28081D01*
X-80932Y28186D01*
X-80893Y28292D01*
X-80858Y28400D01*
X-80827Y28509D01*
X-80799Y28619D01*
X-80776Y28730D01*
X-80756Y28841D01*
X-80740Y28953D01*
X-80728Y29066D01*
X-80720Y29179D01*
X-80716Y29292D01*
X-80716Y29406D01*
X-80720Y29519D01*
X-80728Y29632D01*
X-80740Y29745D01*
X-80756Y29857D01*
X-80776Y29968D01*
X-80799Y30079D01*
X-80827Y30189D01*
X-80858Y30298D01*
X-80893Y30406D01*
X-80932Y30512D01*
X-80974Y30617D01*
X-81020Y30721D01*
X-81070Y30823D01*
X-81123Y30923D01*
X-81180Y31021D01*
X-81240Y31117D01*
X-81303Y31211D01*
X-81370Y31302D01*
X-81439Y31392D01*
X-81512Y31479D01*
X-81588Y31563D01*
X-81667Y31644D01*
X-81748Y31723D01*
X-81832Y31799D01*
X-81919Y31872D01*
X-82008Y31941D01*
X-82100Y32008D01*
X-78590Y35889D02*
X-81781Y38123D01*
X-78591Y35889D02*
X-78510Y35829D01*
X-78431Y35767D01*
X-78354Y35701D01*
X-78280Y35633D01*
X-78209Y35562D01*
X-78141Y35488D01*
X-78075Y35411D01*
X-78013Y35332D01*
X-77953Y35251D01*
X-77897Y35167D01*
X-77844Y35082D01*
X-77795Y34994D01*
X-77749Y34905D01*
X-77706Y34813D01*
X-77667Y34720D01*
X-77632Y34626D01*
X-77600Y34531D01*
X-77572Y34434D01*
X-77548Y34336D01*
X-77528Y34238D01*
X-77511Y34138D01*
X-77499Y34038D01*
X-77490Y33938D01*
X-77485Y33837D01*
X-77484Y33737D01*
X-77487Y33636D01*
X-77494Y33536D01*
X-77505Y33436D01*
X-77519Y33336D01*
X-77538Y33237D01*
X-77560Y33139D01*
X-77586Y33042D01*
X-77616Y32945D01*
X-77649Y32851D01*
X-77686Y32757D01*
X-77727Y32665D01*
X-77772Y32574D01*
X-77819Y32486D01*
X-77871Y32399D01*
X-77925Y32315D01*
X-77983Y32232D01*
X-78044Y32152D01*
X-78108Y32074D01*
X-78175Y31999D01*
X-78244Y31926D01*
X-78317Y31857D01*
X-78392Y31790D01*
X-78470Y31726D01*
X-78550Y31665D01*
X-78633Y31607D01*
X-78717Y31553D01*
X-78804Y31501D01*
X-78892Y31454D01*
X-78983Y31409D01*
X-79075Y31368D01*
X-79168Y31331D01*
X-79263Y31298D01*
X-79360Y31268D01*
X-79457Y31242D01*
X-79555Y31220D01*
X-79654Y31201D01*
X-79754Y31187D01*
X-79854Y31176D01*
X-79954Y31169D01*
X-80055Y31166D01*
X-80155Y31167D01*
X-80256Y31172D01*
X-80356Y31181D01*
X-80456Y31193D01*
X-80556Y31210D01*
X-80654Y31230D01*
X-80752Y31254D01*
X-80849Y31282D01*
X-80944Y31314D01*
X-81038Y31349D01*
X-81131Y31388D01*
X-81223Y31431D01*
X-81312Y31477D01*
X-81400Y31526D01*
X-81485Y31579D01*
X-81569Y31635D01*
X-83696Y33125D01*
X-72949Y31939D02*
X-76461Y20134D01*
X-66569Y27472D01*
X-69756Y15440D02*
X-67098Y13578D01*
X-67004Y13515D01*
X-66908Y13455D01*
X-66810Y13398D01*
X-66710Y13345D01*
X-66608Y13295D01*
X-66504Y13249D01*
X-66399Y13207D01*
X-66293Y13168D01*
X-66185Y13133D01*
X-66076Y13102D01*
X-65966Y13074D01*
X-65855Y13051D01*
X-65744Y13031D01*
X-65632Y13015D01*
X-65519Y13003D01*
X-65406Y12995D01*
X-65293Y12991D01*
X-65179Y12991D01*
X-65066Y12995D01*
X-64953Y13003D01*
X-64840Y13015D01*
X-64728Y13031D01*
X-64617Y13051D01*
X-64506Y13074D01*
X-64396Y13102D01*
X-64287Y13133D01*
X-64179Y13168D01*
X-64073Y13207D01*
X-63968Y13249D01*
X-63864Y13295D01*
X-63762Y13345D01*
X-63662Y13398D01*
X-63564Y13455D01*
X-63468Y13515D01*
X-63374Y13578D01*
X-63283Y13645D01*
X-63193Y13714D01*
X-63106Y13787D01*
X-63022Y13863D01*
X-62941Y13942D01*
X-62862Y14023D01*
X-62786Y14107D01*
X-62713Y14194D01*
X-62644Y14284D01*
X-62577Y14375D01*
X-62514Y14469D01*
X-62454Y14565D01*
X-62397Y14663D01*
X-62344Y14763D01*
X-62294Y14865D01*
X-62248Y14969D01*
X-62206Y15074D01*
X-62167Y15180D01*
X-62132Y15288D01*
X-62101Y15397D01*
X-62073Y15507D01*
X-62050Y15618D01*
X-62030Y15729D01*
X-62014Y15841D01*
X-62002Y15954D01*
X-61994Y16067D01*
X-61990Y16180D01*
X-61990Y16294D01*
X-61994Y16407D01*
X-62002Y16520D01*
X-62014Y16633D01*
X-62030Y16745D01*
X-62050Y16856D01*
X-62073Y16967D01*
X-62101Y17077D01*
X-62132Y17186D01*
X-62167Y17294D01*
X-62206Y17400D01*
X-62248Y17505D01*
X-62294Y17609D01*
X-62344Y17711D01*
X-62397Y17811D01*
X-62454Y17909D01*
X-62514Y18005D01*
X-62577Y18099D01*
X-62644Y18190D01*
X-62713Y18280D01*
X-62786Y18367D01*
X-62862Y18451D01*
X-62941Y18532D01*
X-63022Y18611D01*
X-63106Y18687D01*
X-63193Y18760D01*
X-63282Y18829D01*
X-63374Y18896D01*
X-59864Y22777D02*
X-63055Y25011D01*
X-59865Y22777D02*
X-59784Y22717D01*
X-59705Y22655D01*
X-59628Y22589D01*
X-59554Y22521D01*
X-59483Y22450D01*
X-59415Y22376D01*
X-59349Y22299D01*
X-59287Y22220D01*
X-59227Y22139D01*
X-59171Y22055D01*
X-59118Y21970D01*
X-59069Y21882D01*
X-59023Y21793D01*
X-58980Y21701D01*
X-58941Y21608D01*
X-58906Y21514D01*
X-58874Y21419D01*
X-58846Y21322D01*
X-58822Y21224D01*
X-58802Y21126D01*
X-58785Y21026D01*
X-58773Y20926D01*
X-58764Y20826D01*
X-58759Y20725D01*
X-58758Y20625D01*
X-58761Y20524D01*
X-58768Y20424D01*
X-58779Y20324D01*
X-58793Y20224D01*
X-58812Y20125D01*
X-58834Y20027D01*
X-58860Y19930D01*
X-58890Y19833D01*
X-58923Y19739D01*
X-58960Y19645D01*
X-59001Y19553D01*
X-59046Y19462D01*
X-59093Y19374D01*
X-59145Y19287D01*
X-59199Y19203D01*
X-59257Y19120D01*
X-59318Y19040D01*
X-59382Y18962D01*
X-59449Y18887D01*
X-59518Y18814D01*
X-59591Y18745D01*
X-59666Y18678D01*
X-59744Y18614D01*
X-59824Y18553D01*
X-59907Y18495D01*
X-59991Y18441D01*
X-60078Y18389D01*
X-60166Y18342D01*
X-60257Y18297D01*
X-60349Y18256D01*
X-60442Y18219D01*
X-60537Y18186D01*
X-60634Y18156D01*
X-60731Y18130D01*
X-60829Y18108D01*
X-60928Y18089D01*
X-61028Y18075D01*
X-61128Y18064D01*
X-61228Y18057D01*
X-61329Y18054D01*
X-61429Y18055D01*
X-61530Y18060D01*
X-61630Y18069D01*
X-61730Y18081D01*
X-61830Y18098D01*
X-61928Y18118D01*
X-62026Y18142D01*
X-62123Y18170D01*
X-62218Y18202D01*
X-62312Y18237D01*
X-62405Y18276D01*
X-62497Y18319D01*
X-62586Y18365D01*
X-62674Y18414D01*
X-62759Y18467D01*
X-62843Y18523D01*
X-64970Y20013D01*
X-139868Y135944D02*
X-139868Y139190D01*
X-139870Y139303D01*
X-139876Y139416D01*
X-139886Y139529D01*
X-139900Y139642D01*
X-139917Y139754D01*
X-139939Y139865D01*
X-139964Y139975D01*
X-139994Y140085D01*
X-140027Y140193D01*
X-140064Y140300D01*
X-140104Y140406D01*
X-140149Y140510D01*
X-140197Y140613D01*
X-140248Y140714D01*
X-140303Y140813D01*
X-140361Y140910D01*
X-140423Y141005D01*
X-140488Y141098D01*
X-140556Y141188D01*
X-140627Y141276D01*
X-140702Y141362D01*
X-140779Y141445D01*
X-140859Y141525D01*
X-140942Y141602D01*
X-141028Y141677D01*
X-141116Y141748D01*
X-141206Y141816D01*
X-141299Y141881D01*
X-141394Y141943D01*
X-141491Y142001D01*
X-141590Y142056D01*
X-141691Y142107D01*
X-141794Y142155D01*
X-141898Y142200D01*
X-142004Y142240D01*
X-142111Y142277D01*
X-142219Y142310D01*
X-142329Y142340D01*
X-142439Y142365D01*
X-142550Y142387D01*
X-142662Y142404D01*
X-142775Y142418D01*
X-142888Y142428D01*
X-143001Y142434D01*
X-143114Y142436D01*
X-143227Y142434D01*
X-143340Y142428D01*
X-143453Y142418D01*
X-143566Y142404D01*
X-143678Y142387D01*
X-143789Y142365D01*
X-143899Y142340D01*
X-144009Y142310D01*
X-144117Y142277D01*
X-144224Y142240D01*
X-144330Y142200D01*
X-144434Y142155D01*
X-144537Y142107D01*
X-144638Y142056D01*
X-144737Y142001D01*
X-144834Y141943D01*
X-144929Y141881D01*
X-145022Y141816D01*
X-145112Y141748D01*
X-145200Y141677D01*
X-145286Y141602D01*
X-145369Y141525D01*
X-145449Y141445D01*
X-145526Y141362D01*
X-145601Y141276D01*
X-145672Y141188D01*
X-145740Y141098D01*
X-145805Y141005D01*
X-145867Y140910D01*
X-145925Y140813D01*
X-145980Y140714D01*
X-146031Y140613D01*
X-146079Y140510D01*
X-146124Y140406D01*
X-146164Y140300D01*
X-146201Y140193D01*
X-146234Y140085D01*
X-146264Y139975D01*
X-146289Y139865D01*
X-146311Y139754D01*
X-146328Y139642D01*
X-146342Y139529D01*
X-146352Y139416D01*
X-146358Y139303D01*
X-146360Y139190D01*
X-151552Y139839D02*
X-151552Y135944D01*
X-151552Y139839D02*
X-151550Y139940D01*
X-151544Y140040D01*
X-151534Y140140D01*
X-151521Y140240D01*
X-151503Y140339D01*
X-151482Y140438D01*
X-151457Y140535D01*
X-151428Y140632D01*
X-151395Y140727D01*
X-151359Y140821D01*
X-151319Y140913D01*
X-151276Y141004D01*
X-151229Y141093D01*
X-151179Y141180D01*
X-151125Y141266D01*
X-151068Y141349D01*
X-151008Y141429D01*
X-150945Y141508D01*
X-150878Y141584D01*
X-150809Y141657D01*
X-150737Y141727D01*
X-150663Y141795D01*
X-150586Y141860D01*
X-150506Y141921D01*
X-150424Y141980D01*
X-150340Y142035D01*
X-150254Y142087D01*
X-150166Y142136D01*
X-150076Y142181D01*
X-149984Y142223D01*
X-149891Y142261D01*
X-149796Y142295D01*
X-149701Y142326D01*
X-149604Y142353D01*
X-149506Y142376D01*
X-149407Y142396D01*
X-149307Y142411D01*
X-149207Y142423D01*
X-149107Y142431D01*
X-149006Y142435D01*
X-148906Y142435D01*
X-148805Y142431D01*
X-148705Y142423D01*
X-148605Y142411D01*
X-148505Y142396D01*
X-148406Y142376D01*
X-148308Y142353D01*
X-148211Y142326D01*
X-148116Y142295D01*
X-148021Y142261D01*
X-147928Y142223D01*
X-147836Y142181D01*
X-147746Y142136D01*
X-147658Y142087D01*
X-147572Y142035D01*
X-147488Y141980D01*
X-147406Y141921D01*
X-147326Y141860D01*
X-147249Y141795D01*
X-147175Y141727D01*
X-147103Y141657D01*
X-147034Y141584D01*
X-146967Y141508D01*
X-146904Y141429D01*
X-146844Y141349D01*
X-146787Y141266D01*
X-146733Y141180D01*
X-146683Y141093D01*
X-146636Y141004D01*
X-146593Y140913D01*
X-146553Y140821D01*
X-146517Y140727D01*
X-146484Y140632D01*
X-146455Y140535D01*
X-146430Y140438D01*
X-146409Y140339D01*
X-146391Y140240D01*
X-146378Y140140D01*
X-146368Y140040D01*
X-146362Y139940D01*
X-146360Y139839D01*
X-146359Y139839D02*
X-146359Y137243D01*
X-151552Y146725D02*
X-139868Y150620D01*
X-151552Y154515D01*
X-139868Y158804D02*
X-139868Y162050D01*
X-139870Y162163D01*
X-139876Y162276D01*
X-139886Y162389D01*
X-139900Y162502D01*
X-139917Y162614D01*
X-139939Y162725D01*
X-139964Y162835D01*
X-139994Y162945D01*
X-140027Y163053D01*
X-140064Y163160D01*
X-140104Y163266D01*
X-140149Y163370D01*
X-140197Y163473D01*
X-140248Y163574D01*
X-140303Y163673D01*
X-140361Y163770D01*
X-140423Y163865D01*
X-140488Y163958D01*
X-140556Y164048D01*
X-140627Y164136D01*
X-140702Y164222D01*
X-140779Y164305D01*
X-140859Y164385D01*
X-140942Y164462D01*
X-141028Y164537D01*
X-141116Y164608D01*
X-141206Y164676D01*
X-141299Y164741D01*
X-141394Y164803D01*
X-141491Y164861D01*
X-141590Y164916D01*
X-141691Y164967D01*
X-141794Y165015D01*
X-141898Y165060D01*
X-142004Y165100D01*
X-142111Y165137D01*
X-142219Y165170D01*
X-142329Y165200D01*
X-142439Y165225D01*
X-142550Y165247D01*
X-142662Y165264D01*
X-142775Y165278D01*
X-142888Y165288D01*
X-143001Y165294D01*
X-143114Y165296D01*
X-143227Y165294D01*
X-143340Y165288D01*
X-143453Y165278D01*
X-143566Y165264D01*
X-143678Y165247D01*
X-143789Y165225D01*
X-143899Y165200D01*
X-144009Y165170D01*
X-144117Y165137D01*
X-144224Y165100D01*
X-144330Y165060D01*
X-144434Y165015D01*
X-144537Y164967D01*
X-144638Y164916D01*
X-144737Y164861D01*
X-144834Y164803D01*
X-144929Y164741D01*
X-145022Y164676D01*
X-145112Y164608D01*
X-145200Y164537D01*
X-145286Y164462D01*
X-145369Y164385D01*
X-145449Y164305D01*
X-145526Y164222D01*
X-145601Y164136D01*
X-145672Y164048D01*
X-145740Y163958D01*
X-145805Y163865D01*
X-145867Y163770D01*
X-145925Y163673D01*
X-145980Y163574D01*
X-146031Y163473D01*
X-146079Y163370D01*
X-146124Y163266D01*
X-146164Y163160D01*
X-146201Y163053D01*
X-146234Y162945D01*
X-146264Y162835D01*
X-146289Y162725D01*
X-146311Y162614D01*
X-146328Y162502D01*
X-146342Y162389D01*
X-146352Y162276D01*
X-146358Y162163D01*
X-146360Y162050D01*
X-151552Y162699D02*
X-151552Y158804D01*
X-151552Y162699D02*
X-151550Y162800D01*
X-151544Y162900D01*
X-151534Y163000D01*
X-151521Y163100D01*
X-151503Y163199D01*
X-151482Y163298D01*
X-151457Y163395D01*
X-151428Y163492D01*
X-151395Y163587D01*
X-151359Y163681D01*
X-151319Y163773D01*
X-151276Y163864D01*
X-151229Y163953D01*
X-151179Y164040D01*
X-151125Y164126D01*
X-151068Y164209D01*
X-151008Y164289D01*
X-150945Y164368D01*
X-150878Y164444D01*
X-150809Y164517D01*
X-150737Y164587D01*
X-150663Y164655D01*
X-150586Y164720D01*
X-150506Y164781D01*
X-150424Y164840D01*
X-150340Y164895D01*
X-150254Y164947D01*
X-150166Y164996D01*
X-150076Y165041D01*
X-149984Y165083D01*
X-149891Y165121D01*
X-149796Y165155D01*
X-149701Y165186D01*
X-149604Y165213D01*
X-149506Y165236D01*
X-149407Y165256D01*
X-149307Y165271D01*
X-149207Y165283D01*
X-149107Y165291D01*
X-149006Y165295D01*
X-148906Y165295D01*
X-148805Y165291D01*
X-148705Y165283D01*
X-148605Y165271D01*
X-148505Y165256D01*
X-148406Y165236D01*
X-148308Y165213D01*
X-148211Y165186D01*
X-148116Y165155D01*
X-148021Y165121D01*
X-147928Y165083D01*
X-147836Y165041D01*
X-147746Y164996D01*
X-147658Y164947D01*
X-147572Y164895D01*
X-147488Y164840D01*
X-147406Y164781D01*
X-147326Y164720D01*
X-147249Y164655D01*
X-147175Y164587D01*
X-147103Y164517D01*
X-147034Y164444D01*
X-146967Y164368D01*
X-146904Y164289D01*
X-146844Y164209D01*
X-146787Y164126D01*
X-146733Y164040D01*
X-146683Y163953D01*
X-146636Y163864D01*
X-146593Y163773D01*
X-146553Y163681D01*
X-146517Y163587D01*
X-146484Y163492D01*
X-146455Y163395D01*
X-146430Y163298D01*
X-146409Y163199D01*
X-146391Y163100D01*
X-146378Y163000D01*
X-146368Y162900D01*
X-146362Y162800D01*
X-146360Y162699D01*
X-146359Y162699D02*
X-146359Y160103D01*
X-81781Y263117D02*
X-79122Y264979D01*
X-79122Y264978D02*
X-79031Y265045D01*
X-78941Y265114D01*
X-78854Y265187D01*
X-78770Y265263D01*
X-78689Y265342D01*
X-78610Y265423D01*
X-78534Y265507D01*
X-78461Y265594D01*
X-78392Y265683D01*
X-78325Y265775D01*
X-78262Y265869D01*
X-78202Y265965D01*
X-78145Y266063D01*
X-78092Y266163D01*
X-78042Y266265D01*
X-77996Y266369D01*
X-77954Y266474D01*
X-77915Y266580D01*
X-77880Y266688D01*
X-77849Y266797D01*
X-77821Y266907D01*
X-77798Y267018D01*
X-77778Y267129D01*
X-77762Y267241D01*
X-77750Y267354D01*
X-77742Y267467D01*
X-77738Y267580D01*
X-77738Y267694D01*
X-77742Y267807D01*
X-77750Y267920D01*
X-77762Y268033D01*
X-77778Y268145D01*
X-77798Y268256D01*
X-77821Y268367D01*
X-77849Y268477D01*
X-77880Y268586D01*
X-77915Y268694D01*
X-77954Y268800D01*
X-77996Y268905D01*
X-78042Y269009D01*
X-78092Y269111D01*
X-78145Y269211D01*
X-78202Y269309D01*
X-78262Y269405D01*
X-78325Y269499D01*
X-78392Y269590D01*
X-78461Y269680D01*
X-78534Y269767D01*
X-78610Y269851D01*
X-78689Y269932D01*
X-78770Y270011D01*
X-78854Y270087D01*
X-78941Y270160D01*
X-79031Y270229D01*
X-79122Y270296D01*
X-79216Y270359D01*
X-79312Y270419D01*
X-79410Y270476D01*
X-79510Y270529D01*
X-79612Y270579D01*
X-79716Y270625D01*
X-79821Y270667D01*
X-79927Y270706D01*
X-80035Y270741D01*
X-80144Y270772D01*
X-80254Y270800D01*
X-80365Y270823D01*
X-80476Y270843D01*
X-80588Y270859D01*
X-80701Y270871D01*
X-80814Y270879D01*
X-80927Y270883D01*
X-81041Y270883D01*
X-81154Y270879D01*
X-81267Y270871D01*
X-81380Y270859D01*
X-81492Y270843D01*
X-81603Y270823D01*
X-81714Y270800D01*
X-81824Y270772D01*
X-81933Y270741D01*
X-82041Y270706D01*
X-82147Y270667D01*
X-82252Y270625D01*
X-82356Y270579D01*
X-82458Y270529D01*
X-82558Y270476D01*
X-82656Y270419D01*
X-82752Y270359D01*
X-82846Y270296D01*
X-85292Y274922D02*
X-88482Y272688D01*
X-85292Y274922D02*
X-85208Y274978D01*
X-85123Y275031D01*
X-85035Y275080D01*
X-84946Y275126D01*
X-84854Y275169D01*
X-84761Y275208D01*
X-84667Y275243D01*
X-84572Y275275D01*
X-84475Y275303D01*
X-84377Y275327D01*
X-84279Y275347D01*
X-84179Y275364D01*
X-84079Y275376D01*
X-83979Y275385D01*
X-83879Y275390D01*
X-83778Y275391D01*
X-83677Y275388D01*
X-83577Y275381D01*
X-83477Y275370D01*
X-83377Y275356D01*
X-83278Y275337D01*
X-83180Y275315D01*
X-83083Y275289D01*
X-82986Y275259D01*
X-82892Y275226D01*
X-82798Y275189D01*
X-82706Y275148D01*
X-82615Y275103D01*
X-82527Y275056D01*
X-82440Y275004D01*
X-82356Y274950D01*
X-82273Y274892D01*
X-82193Y274831D01*
X-82115Y274767D01*
X-82040Y274700D01*
X-81967Y274631D01*
X-81898Y274558D01*
X-81831Y274483D01*
X-81767Y274405D01*
X-81706Y274325D01*
X-81648Y274242D01*
X-81594Y274158D01*
X-81542Y274071D01*
X-81495Y273983D01*
X-81450Y273892D01*
X-81409Y273800D01*
X-81372Y273706D01*
X-81339Y273612D01*
X-81309Y273515D01*
X-81283Y273418D01*
X-81261Y273320D01*
X-81242Y273221D01*
X-81228Y273121D01*
X-81217Y273021D01*
X-81210Y272921D01*
X-81207Y272820D01*
X-81208Y272719D01*
X-81213Y272619D01*
X-81222Y272519D01*
X-81234Y272419D01*
X-81251Y272319D01*
X-81271Y272221D01*
X-81295Y272123D01*
X-81323Y272026D01*
X-81355Y271931D01*
X-81390Y271837D01*
X-81429Y271744D01*
X-81472Y271652D01*
X-81518Y271563D01*
X-81567Y271475D01*
X-81620Y271390D01*
X-81676Y271306D01*
X-81736Y271225D01*
X-81798Y271146D01*
X-81864Y271069D01*
X-81932Y270995D01*
X-82003Y270924D01*
X-82077Y270856D01*
X-82154Y270790D01*
X-82233Y270728D01*
X-82314Y270668D01*
X-82313Y270668D02*
X-84440Y269179D01*
X-79651Y278872D02*
X-69759Y271534D01*
X-73270Y283339D01*
X-63055Y276229D02*
X-60396Y278090D01*
X-60305Y278157D01*
X-60215Y278226D01*
X-60128Y278299D01*
X-60044Y278375D01*
X-59963Y278454D01*
X-59884Y278535D01*
X-59808Y278619D01*
X-59735Y278706D01*
X-59666Y278795D01*
X-59599Y278887D01*
X-59536Y278981D01*
X-59476Y279077D01*
X-59419Y279175D01*
X-59366Y279275D01*
X-59316Y279377D01*
X-59270Y279481D01*
X-59228Y279586D01*
X-59189Y279692D01*
X-59154Y279800D01*
X-59123Y279909D01*
X-59095Y280019D01*
X-59072Y280130D01*
X-59052Y280241D01*
X-59036Y280353D01*
X-59024Y280466D01*
X-59016Y280579D01*
X-59012Y280692D01*
X-59012Y280806D01*
X-59016Y280919D01*
X-59024Y281032D01*
X-59036Y281145D01*
X-59052Y281257D01*
X-59072Y281368D01*
X-59095Y281479D01*
X-59123Y281589D01*
X-59154Y281698D01*
X-59189Y281806D01*
X-59228Y281912D01*
X-59270Y282017D01*
X-59316Y282121D01*
X-59366Y282223D01*
X-59419Y282323D01*
X-59476Y282421D01*
X-59536Y282517D01*
X-59599Y282611D01*
X-59666Y282702D01*
X-59735Y282792D01*
X-59808Y282879D01*
X-59884Y282963D01*
X-59963Y283044D01*
X-60044Y283123D01*
X-60128Y283199D01*
X-60215Y283272D01*
X-60305Y283341D01*
X-60396Y283408D01*
X-60490Y283471D01*
X-60586Y283531D01*
X-60684Y283588D01*
X-60784Y283641D01*
X-60886Y283691D01*
X-60990Y283737D01*
X-61095Y283779D01*
X-61201Y283818D01*
X-61309Y283853D01*
X-61418Y283884D01*
X-61528Y283912D01*
X-61639Y283935D01*
X-61750Y283955D01*
X-61862Y283971D01*
X-61975Y283983D01*
X-62088Y283991D01*
X-62201Y283995D01*
X-62315Y283995D01*
X-62428Y283991D01*
X-62541Y283983D01*
X-62654Y283971D01*
X-62766Y283955D01*
X-62877Y283935D01*
X-62988Y283912D01*
X-63098Y283884D01*
X-63207Y283853D01*
X-63315Y283818D01*
X-63421Y283779D01*
X-63526Y283737D01*
X-63630Y283691D01*
X-63732Y283641D01*
X-63832Y283588D01*
X-63930Y283531D01*
X-64026Y283471D01*
X-64120Y283408D01*
X-66566Y288034D02*
X-69756Y285800D01*
X-66566Y288034D02*
X-66482Y288090D01*
X-66397Y288143D01*
X-66309Y288192D01*
X-66220Y288238D01*
X-66128Y288281D01*
X-66035Y288320D01*
X-65941Y288355D01*
X-65846Y288387D01*
X-65749Y288415D01*
X-65651Y288439D01*
X-65553Y288459D01*
X-65453Y288476D01*
X-65353Y288488D01*
X-65253Y288497D01*
X-65153Y288502D01*
X-65052Y288503D01*
X-64951Y288500D01*
X-64851Y288493D01*
X-64751Y288482D01*
X-64651Y288468D01*
X-64552Y288449D01*
X-64454Y288427D01*
X-64357Y288401D01*
X-64260Y288371D01*
X-64166Y288338D01*
X-64072Y288301D01*
X-63980Y288260D01*
X-63889Y288215D01*
X-63801Y288168D01*
X-63714Y288116D01*
X-63630Y288062D01*
X-63547Y288004D01*
X-63467Y287943D01*
X-63389Y287879D01*
X-63314Y287812D01*
X-63241Y287743D01*
X-63172Y287670D01*
X-63105Y287595D01*
X-63041Y287517D01*
X-62980Y287437D01*
X-62922Y287354D01*
X-62868Y287270D01*
X-62816Y287183D01*
X-62769Y287095D01*
X-62724Y287004D01*
X-62683Y286912D01*
X-62646Y286818D01*
X-62613Y286724D01*
X-62583Y286627D01*
X-62557Y286530D01*
X-62535Y286432D01*
X-62516Y286333D01*
X-62502Y286233D01*
X-62491Y286133D01*
X-62484Y286033D01*
X-62481Y285932D01*
X-62482Y285831D01*
X-62487Y285731D01*
X-62496Y285631D01*
X-62508Y285531D01*
X-62525Y285431D01*
X-62545Y285333D01*
X-62569Y285235D01*
X-62597Y285138D01*
X-62629Y285043D01*
X-62664Y284949D01*
X-62703Y284856D01*
X-62746Y284764D01*
X-62792Y284675D01*
X-62841Y284587D01*
X-62894Y284502D01*
X-62950Y284418D01*
X-63010Y284337D01*
X-63072Y284258D01*
X-63138Y284181D01*
X-63206Y284107D01*
X-63277Y284036D01*
X-63351Y283968D01*
X-63428Y283902D01*
X-63507Y283840D01*
X-63588Y283780D01*
X-65714Y282291D01*
D10*
X88764Y223930D02*
X88764Y206150D01*
X88764Y223930D02*
X93703Y223930D01*
X93843Y223928D01*
X93982Y223922D01*
X94122Y223912D01*
X94261Y223898D01*
X94400Y223881D01*
X94538Y223859D01*
X94675Y223833D01*
X94812Y223804D01*
X94948Y223771D01*
X95082Y223734D01*
X95216Y223693D01*
X95348Y223648D01*
X95480Y223599D01*
X95609Y223547D01*
X95737Y223492D01*
X95864Y223432D01*
X95989Y223369D01*
X96112Y223303D01*
X96233Y223233D01*
X96352Y223160D01*
X96469Y223083D01*
X96583Y223003D01*
X96696Y222920D01*
X96806Y222834D01*
X96913Y222744D01*
X97018Y222652D01*
X97120Y222557D01*
X97220Y222459D01*
X97317Y222358D01*
X97411Y222254D01*
X97501Y222148D01*
X97589Y222039D01*
X97674Y221928D01*
X97755Y221814D01*
X97834Y221699D01*
X97909Y221581D01*
X97980Y221461D01*
X98048Y221338D01*
X98113Y221215D01*
X98174Y221089D01*
X98232Y220961D01*
X98286Y220833D01*
X98336Y220702D01*
X98383Y220570D01*
X98426Y220437D01*
X98465Y220303D01*
X98500Y220168D01*
X98531Y220032D01*
X98559Y219894D01*
X98582Y219757D01*
X98602Y219618D01*
X98618Y219479D01*
X98630Y219340D01*
X98638Y219201D01*
X98642Y219061D01*
X98642Y218921D01*
X98638Y218781D01*
X98630Y218642D01*
X98618Y218503D01*
X98602Y218364D01*
X98582Y218225D01*
X98559Y218088D01*
X98531Y217950D01*
X98500Y217814D01*
X98465Y217679D01*
X98426Y217545D01*
X98383Y217412D01*
X98336Y217280D01*
X98286Y217149D01*
X98232Y217021D01*
X98174Y216893D01*
X98113Y216767D01*
X98048Y216644D01*
X97980Y216522D01*
X97909Y216401D01*
X97834Y216283D01*
X97755Y216168D01*
X97674Y216054D01*
X97589Y215943D01*
X97501Y215834D01*
X97411Y215728D01*
X97317Y215624D01*
X97220Y215523D01*
X97120Y215425D01*
X97018Y215330D01*
X96913Y215238D01*
X96806Y215148D01*
X96696Y215062D01*
X96583Y214979D01*
X96469Y214899D01*
X96352Y214822D01*
X96233Y214749D01*
X96112Y214679D01*
X95989Y214613D01*
X95864Y214550D01*
X95737Y214490D01*
X95609Y214435D01*
X95480Y214383D01*
X95348Y214334D01*
X95216Y214289D01*
X95082Y214248D01*
X94948Y214211D01*
X94812Y214178D01*
X94675Y214149D01*
X94538Y214123D01*
X94400Y214101D01*
X94261Y214084D01*
X94122Y214070D01*
X93982Y214060D01*
X93843Y214054D01*
X93703Y214052D01*
X88764Y214052D01*
X104759Y219979D02*
X109698Y223930D01*
X109698Y206150D01*
X114636Y206150D02*
X104759Y206150D01*
X69156Y93083D02*
X69156Y75303D01*
X69156Y93083D02*
X74095Y93083D01*
X74095Y93084D02*
X74235Y93082D01*
X74374Y93076D01*
X74514Y93066D01*
X74653Y93052D01*
X74792Y93035D01*
X74930Y93013D01*
X75067Y92987D01*
X75204Y92958D01*
X75340Y92925D01*
X75474Y92888D01*
X75608Y92847D01*
X75740Y92802D01*
X75872Y92753D01*
X76001Y92701D01*
X76129Y92646D01*
X76256Y92586D01*
X76381Y92523D01*
X76504Y92457D01*
X76625Y92387D01*
X76744Y92314D01*
X76861Y92237D01*
X76975Y92157D01*
X77088Y92074D01*
X77198Y91988D01*
X77305Y91898D01*
X77410Y91806D01*
X77512Y91711D01*
X77612Y91613D01*
X77709Y91512D01*
X77803Y91408D01*
X77893Y91302D01*
X77981Y91193D01*
X78066Y91082D01*
X78147Y90968D01*
X78226Y90853D01*
X78301Y90735D01*
X78372Y90615D01*
X78440Y90492D01*
X78505Y90369D01*
X78566Y90243D01*
X78624Y90115D01*
X78678Y89987D01*
X78728Y89856D01*
X78775Y89724D01*
X78818Y89591D01*
X78857Y89457D01*
X78892Y89322D01*
X78923Y89186D01*
X78951Y89048D01*
X78974Y88911D01*
X78994Y88772D01*
X79010Y88633D01*
X79022Y88494D01*
X79030Y88355D01*
X79034Y88215D01*
X79034Y88075D01*
X79030Y87935D01*
X79022Y87796D01*
X79010Y87657D01*
X78994Y87518D01*
X78974Y87379D01*
X78951Y87242D01*
X78923Y87104D01*
X78892Y86968D01*
X78857Y86833D01*
X78818Y86699D01*
X78775Y86566D01*
X78728Y86434D01*
X78678Y86303D01*
X78624Y86175D01*
X78566Y86047D01*
X78505Y85921D01*
X78440Y85798D01*
X78372Y85676D01*
X78301Y85555D01*
X78226Y85437D01*
X78147Y85322D01*
X78066Y85208D01*
X77981Y85097D01*
X77893Y84988D01*
X77803Y84882D01*
X77709Y84778D01*
X77612Y84677D01*
X77512Y84579D01*
X77410Y84484D01*
X77305Y84392D01*
X77198Y84302D01*
X77088Y84216D01*
X76975Y84133D01*
X76861Y84053D01*
X76744Y83976D01*
X76625Y83903D01*
X76504Y83833D01*
X76381Y83767D01*
X76256Y83704D01*
X76129Y83644D01*
X76001Y83589D01*
X75872Y83537D01*
X75740Y83488D01*
X75608Y83443D01*
X75474Y83402D01*
X75340Y83365D01*
X75204Y83332D01*
X75067Y83303D01*
X74930Y83277D01*
X74792Y83255D01*
X74653Y83238D01*
X74514Y83224D01*
X74374Y83214D01*
X74235Y83208D01*
X74095Y83206D01*
X69156Y83206D01*
X90584Y93083D02*
X90716Y93081D01*
X90847Y93075D01*
X90979Y93065D01*
X91110Y93052D01*
X91240Y93034D01*
X91370Y93013D01*
X91500Y92988D01*
X91628Y92959D01*
X91756Y92926D01*
X91882Y92889D01*
X92008Y92849D01*
X92132Y92805D01*
X92255Y92757D01*
X92376Y92706D01*
X92496Y92651D01*
X92614Y92593D01*
X92730Y92531D01*
X92844Y92465D01*
X92957Y92397D01*
X93067Y92325D01*
X93175Y92250D01*
X93281Y92171D01*
X93385Y92090D01*
X93486Y92005D01*
X93584Y91918D01*
X93680Y91827D01*
X93773Y91734D01*
X93864Y91638D01*
X93951Y91540D01*
X94036Y91439D01*
X94117Y91335D01*
X94196Y91229D01*
X94271Y91121D01*
X94343Y91011D01*
X94411Y90898D01*
X94477Y90784D01*
X94539Y90668D01*
X94597Y90550D01*
X94652Y90430D01*
X94703Y90309D01*
X94751Y90186D01*
X94795Y90062D01*
X94835Y89936D01*
X94872Y89810D01*
X94905Y89682D01*
X94934Y89554D01*
X94959Y89424D01*
X94980Y89294D01*
X94998Y89164D01*
X95011Y89033D01*
X95021Y88901D01*
X95027Y88770D01*
X95029Y88638D01*
X90584Y93084D02*
X90434Y93082D01*
X90285Y93076D01*
X90136Y93066D01*
X89987Y93053D01*
X89838Y93035D01*
X89690Y93014D01*
X89542Y92988D01*
X89396Y92959D01*
X89250Y92926D01*
X89105Y92889D01*
X88961Y92848D01*
X88818Y92804D01*
X88676Y92756D01*
X88536Y92704D01*
X88397Y92649D01*
X88259Y92590D01*
X88124Y92527D01*
X87989Y92461D01*
X87857Y92391D01*
X87727Y92318D01*
X87598Y92241D01*
X87471Y92161D01*
X87347Y92078D01*
X87225Y91992D01*
X87105Y91902D01*
X86988Y91809D01*
X86873Y91714D01*
X86760Y91615D01*
X86650Y91513D01*
X86543Y91409D01*
X86439Y91302D01*
X86337Y91192D01*
X86239Y91079D01*
X86143Y90964D01*
X86051Y90846D01*
X85961Y90726D01*
X85875Y90604D01*
X85792Y90480D01*
X85712Y90353D01*
X85636Y90225D01*
X85563Y90094D01*
X85493Y89961D01*
X85427Y89827D01*
X85365Y89691D01*
X85306Y89554D01*
X85250Y89415D01*
X85199Y89274D01*
X85151Y89133D01*
X93547Y85181D02*
X93643Y85274D01*
X93735Y85370D01*
X93825Y85469D01*
X93912Y85570D01*
X93997Y85673D01*
X94078Y85778D01*
X94156Y85886D01*
X94231Y85996D01*
X94304Y86108D01*
X94373Y86222D01*
X94439Y86338D01*
X94501Y86456D01*
X94560Y86575D01*
X94616Y86696D01*
X94669Y86819D01*
X94718Y86943D01*
X94763Y87068D01*
X94806Y87195D01*
X94844Y87322D01*
X94879Y87451D01*
X94910Y87580D01*
X94938Y87711D01*
X94962Y87842D01*
X94983Y87974D01*
X94999Y88106D01*
X95012Y88239D01*
X95022Y88372D01*
X95027Y88505D01*
X95029Y88638D01*
X93547Y85181D02*
X85151Y75303D01*
X95029Y75303D01*
X107399Y82218D02*
X107399Y88145D01*
X107399Y82218D02*
X110856Y77773D01*
X107399Y82218D02*
X103942Y77773D01*
X107399Y82218D02*
X112832Y84193D01*
X107399Y82218D02*
X101966Y84193D01*
X-13446Y37910D02*
X-13446Y20130D01*
X-13446Y37910D02*
X-8508Y37910D01*
X-8368Y37908D01*
X-8229Y37902D01*
X-8089Y37892D01*
X-7950Y37878D01*
X-7811Y37861D01*
X-7673Y37839D01*
X-7536Y37813D01*
X-7399Y37784D01*
X-7263Y37751D01*
X-7129Y37714D01*
X-6995Y37673D01*
X-6863Y37628D01*
X-6731Y37579D01*
X-6602Y37527D01*
X-6474Y37472D01*
X-6347Y37412D01*
X-6222Y37349D01*
X-6099Y37283D01*
X-5978Y37213D01*
X-5859Y37140D01*
X-5742Y37063D01*
X-5628Y36983D01*
X-5515Y36900D01*
X-5405Y36814D01*
X-5298Y36724D01*
X-5193Y36632D01*
X-5091Y36537D01*
X-4991Y36439D01*
X-4894Y36338D01*
X-4800Y36234D01*
X-4710Y36128D01*
X-4622Y36019D01*
X-4537Y35908D01*
X-4456Y35794D01*
X-4377Y35679D01*
X-4302Y35561D01*
X-4231Y35441D01*
X-4163Y35318D01*
X-4098Y35195D01*
X-4037Y35069D01*
X-3979Y34941D01*
X-3925Y34813D01*
X-3875Y34682D01*
X-3828Y34550D01*
X-3785Y34417D01*
X-3746Y34283D01*
X-3711Y34148D01*
X-3680Y34012D01*
X-3652Y33874D01*
X-3629Y33737D01*
X-3609Y33598D01*
X-3593Y33459D01*
X-3581Y33320D01*
X-3573Y33181D01*
X-3569Y33041D01*
X-3569Y32901D01*
X-3573Y32761D01*
X-3581Y32622D01*
X-3593Y32483D01*
X-3609Y32344D01*
X-3629Y32205D01*
X-3652Y32068D01*
X-3680Y31930D01*
X-3711Y31794D01*
X-3746Y31659D01*
X-3785Y31525D01*
X-3828Y31392D01*
X-3875Y31260D01*
X-3925Y31129D01*
X-3979Y31001D01*
X-4037Y30873D01*
X-4098Y30747D01*
X-4163Y30624D01*
X-4231Y30502D01*
X-4302Y30381D01*
X-4377Y30263D01*
X-4456Y30148D01*
X-4537Y30034D01*
X-4622Y29923D01*
X-4710Y29814D01*
X-4800Y29708D01*
X-4894Y29604D01*
X-4991Y29503D01*
X-5091Y29405D01*
X-5193Y29310D01*
X-5298Y29218D01*
X-5405Y29128D01*
X-5515Y29042D01*
X-5628Y28959D01*
X-5742Y28879D01*
X-5859Y28802D01*
X-5978Y28729D01*
X-6099Y28659D01*
X-6222Y28593D01*
X-6347Y28530D01*
X-6474Y28470D01*
X-6602Y28415D01*
X-6731Y28363D01*
X-6863Y28314D01*
X-6995Y28269D01*
X-7129Y28228D01*
X-7263Y28191D01*
X-7399Y28158D01*
X-7536Y28129D01*
X-7673Y28103D01*
X-7811Y28081D01*
X-7950Y28064D01*
X-8089Y28050D01*
X-8229Y28040D01*
X-8368Y28034D01*
X-8508Y28032D01*
X-13446Y28032D01*
X2549Y20130D02*
X7488Y20130D01*
X7628Y20132D01*
X7767Y20138D01*
X7907Y20148D01*
X8046Y20162D01*
X8185Y20179D01*
X8323Y20201D01*
X8460Y20227D01*
X8597Y20256D01*
X8733Y20289D01*
X8867Y20326D01*
X9001Y20367D01*
X9133Y20412D01*
X9265Y20461D01*
X9394Y20513D01*
X9522Y20568D01*
X9649Y20628D01*
X9774Y20691D01*
X9897Y20757D01*
X10018Y20827D01*
X10137Y20900D01*
X10254Y20977D01*
X10368Y21057D01*
X10481Y21140D01*
X10591Y21226D01*
X10698Y21316D01*
X10803Y21408D01*
X10905Y21503D01*
X11005Y21601D01*
X11102Y21702D01*
X11196Y21806D01*
X11286Y21912D01*
X11374Y22021D01*
X11459Y22132D01*
X11540Y22246D01*
X11619Y22361D01*
X11694Y22479D01*
X11765Y22600D01*
X11833Y22722D01*
X11898Y22845D01*
X11959Y22971D01*
X12017Y23099D01*
X12071Y23227D01*
X12121Y23358D01*
X12168Y23490D01*
X12211Y23623D01*
X12250Y23757D01*
X12285Y23892D01*
X12316Y24028D01*
X12344Y24166D01*
X12367Y24303D01*
X12387Y24442D01*
X12403Y24581D01*
X12415Y24720D01*
X12423Y24859D01*
X12427Y24999D01*
X12427Y25139D01*
X12423Y25279D01*
X12415Y25418D01*
X12403Y25557D01*
X12387Y25696D01*
X12367Y25835D01*
X12344Y25972D01*
X12316Y26110D01*
X12285Y26246D01*
X12250Y26381D01*
X12211Y26515D01*
X12168Y26648D01*
X12121Y26780D01*
X12071Y26911D01*
X12017Y27039D01*
X11959Y27167D01*
X11898Y27293D01*
X11833Y27416D01*
X11765Y27539D01*
X11694Y27659D01*
X11619Y27777D01*
X11540Y27892D01*
X11459Y28006D01*
X11374Y28117D01*
X11286Y28226D01*
X11196Y28332D01*
X11102Y28436D01*
X11005Y28537D01*
X10905Y28635D01*
X10803Y28730D01*
X10698Y28822D01*
X10591Y28912D01*
X10481Y28998D01*
X10368Y29081D01*
X10254Y29161D01*
X10137Y29238D01*
X10018Y29311D01*
X9897Y29381D01*
X9774Y29447D01*
X9649Y29510D01*
X9522Y29570D01*
X9394Y29625D01*
X9265Y29677D01*
X9133Y29726D01*
X9001Y29771D01*
X8867Y29812D01*
X8733Y29849D01*
X8597Y29882D01*
X8460Y29911D01*
X8323Y29937D01*
X8185Y29959D01*
X8046Y29976D01*
X7907Y29990D01*
X7767Y30000D01*
X7628Y30006D01*
X7488Y30008D01*
X8475Y37910D02*
X2549Y37910D01*
X8475Y37910D02*
X8599Y37908D01*
X8723Y37902D01*
X8847Y37892D01*
X8970Y37879D01*
X9093Y37861D01*
X9215Y37840D01*
X9337Y37815D01*
X9458Y37786D01*
X9577Y37753D01*
X9696Y37717D01*
X9813Y37676D01*
X9929Y37633D01*
X10044Y37585D01*
X10157Y37534D01*
X10269Y37479D01*
X10378Y37421D01*
X10486Y37360D01*
X10592Y37295D01*
X10696Y37227D01*
X10797Y37155D01*
X10897Y37081D01*
X10993Y37003D01*
X11088Y36923D01*
X11180Y36839D01*
X11269Y36753D01*
X11355Y36664D01*
X11439Y36572D01*
X11519Y36477D01*
X11597Y36381D01*
X11671Y36281D01*
X11743Y36180D01*
X11811Y36076D01*
X11876Y35970D01*
X11937Y35862D01*
X11995Y35753D01*
X12050Y35641D01*
X12101Y35528D01*
X12149Y35413D01*
X12192Y35297D01*
X12233Y35180D01*
X12269Y35061D01*
X12302Y34942D01*
X12331Y34821D01*
X12356Y34699D01*
X12377Y34577D01*
X12395Y34454D01*
X12408Y34331D01*
X12418Y34207D01*
X12424Y34083D01*
X12426Y33959D01*
X12424Y33835D01*
X12418Y33711D01*
X12408Y33587D01*
X12395Y33464D01*
X12377Y33341D01*
X12356Y33219D01*
X12331Y33097D01*
X12302Y32976D01*
X12269Y32857D01*
X12233Y32738D01*
X12192Y32621D01*
X12149Y32505D01*
X12101Y32390D01*
X12050Y32277D01*
X11995Y32165D01*
X11937Y32056D01*
X11876Y31948D01*
X11811Y31842D01*
X11743Y31738D01*
X11671Y31637D01*
X11597Y31537D01*
X11519Y31441D01*
X11439Y31346D01*
X11355Y31254D01*
X11269Y31165D01*
X11180Y31079D01*
X11088Y30995D01*
X10993Y30915D01*
X10897Y30837D01*
X10797Y30763D01*
X10696Y30691D01*
X10592Y30623D01*
X10486Y30558D01*
X10378Y30497D01*
X10269Y30439D01*
X10157Y30384D01*
X10044Y30333D01*
X9929Y30285D01*
X9813Y30242D01*
X9696Y30201D01*
X9577Y30165D01*
X9458Y30132D01*
X9337Y30103D01*
X9215Y30078D01*
X9093Y30057D01*
X8970Y30039D01*
X8847Y30026D01*
X8723Y30016D01*
X8599Y30010D01*
X8475Y30008D01*
X4524Y30008D01*
X-110322Y75291D02*
X-110322Y93071D01*
X-105384Y93071D01*
X-105244Y93069D01*
X-105105Y93063D01*
X-104965Y93053D01*
X-104826Y93039D01*
X-104687Y93022D01*
X-104549Y93000D01*
X-104412Y92974D01*
X-104275Y92945D01*
X-104139Y92912D01*
X-104005Y92875D01*
X-103871Y92834D01*
X-103739Y92789D01*
X-103607Y92740D01*
X-103478Y92688D01*
X-103350Y92633D01*
X-103223Y92573D01*
X-103098Y92510D01*
X-102975Y92444D01*
X-102854Y92374D01*
X-102735Y92301D01*
X-102618Y92224D01*
X-102504Y92144D01*
X-102391Y92061D01*
X-102281Y91975D01*
X-102174Y91885D01*
X-102069Y91793D01*
X-101967Y91698D01*
X-101867Y91600D01*
X-101770Y91499D01*
X-101676Y91395D01*
X-101586Y91289D01*
X-101498Y91180D01*
X-101413Y91069D01*
X-101332Y90955D01*
X-101253Y90840D01*
X-101178Y90722D01*
X-101107Y90602D01*
X-101039Y90479D01*
X-100974Y90356D01*
X-100913Y90230D01*
X-100855Y90102D01*
X-100801Y89974D01*
X-100751Y89843D01*
X-100704Y89711D01*
X-100661Y89578D01*
X-100622Y89444D01*
X-100587Y89309D01*
X-100556Y89173D01*
X-100528Y89035D01*
X-100505Y88898D01*
X-100485Y88759D01*
X-100469Y88620D01*
X-100457Y88481D01*
X-100449Y88342D01*
X-100445Y88202D01*
X-100445Y88062D01*
X-100449Y87922D01*
X-100457Y87783D01*
X-100469Y87644D01*
X-100485Y87505D01*
X-100505Y87366D01*
X-100528Y87229D01*
X-100556Y87091D01*
X-100587Y86955D01*
X-100622Y86820D01*
X-100661Y86686D01*
X-100704Y86553D01*
X-100751Y86421D01*
X-100801Y86290D01*
X-100855Y86162D01*
X-100913Y86034D01*
X-100974Y85908D01*
X-101039Y85785D01*
X-101107Y85663D01*
X-101178Y85542D01*
X-101253Y85424D01*
X-101332Y85309D01*
X-101413Y85195D01*
X-101498Y85084D01*
X-101586Y84975D01*
X-101676Y84869D01*
X-101770Y84765D01*
X-101867Y84664D01*
X-101967Y84566D01*
X-102069Y84471D01*
X-102174Y84379D01*
X-102281Y84289D01*
X-102391Y84203D01*
X-102504Y84120D01*
X-102618Y84040D01*
X-102735Y83963D01*
X-102854Y83890D01*
X-102975Y83820D01*
X-103098Y83754D01*
X-103223Y83691D01*
X-103350Y83631D01*
X-103478Y83576D01*
X-103607Y83524D01*
X-103739Y83475D01*
X-103871Y83430D01*
X-104005Y83389D01*
X-104139Y83352D01*
X-104275Y83319D01*
X-104412Y83290D01*
X-104549Y83264D01*
X-104687Y83242D01*
X-104826Y83225D01*
X-104965Y83211D01*
X-105105Y83201D01*
X-105244Y83195D01*
X-105384Y83193D01*
X-110322Y83193D01*
X-94327Y79242D02*
X-90376Y93071D01*
X-94327Y79242D02*
X-84450Y79242D01*
X-87413Y83193D02*
X-87413Y75291D01*
X-110576Y204880D02*
X-110576Y222660D01*
X-105638Y222660D01*
X-105498Y222658D01*
X-105359Y222652D01*
X-105219Y222642D01*
X-105080Y222628D01*
X-104941Y222611D01*
X-104803Y222589D01*
X-104666Y222563D01*
X-104529Y222534D01*
X-104393Y222501D01*
X-104259Y222464D01*
X-104125Y222423D01*
X-103993Y222378D01*
X-103861Y222329D01*
X-103732Y222277D01*
X-103604Y222222D01*
X-103477Y222162D01*
X-103352Y222099D01*
X-103229Y222033D01*
X-103108Y221963D01*
X-102989Y221890D01*
X-102872Y221813D01*
X-102758Y221733D01*
X-102645Y221650D01*
X-102535Y221564D01*
X-102428Y221474D01*
X-102323Y221382D01*
X-102221Y221287D01*
X-102121Y221189D01*
X-102024Y221088D01*
X-101930Y220984D01*
X-101840Y220878D01*
X-101752Y220769D01*
X-101667Y220658D01*
X-101586Y220544D01*
X-101507Y220429D01*
X-101432Y220311D01*
X-101361Y220191D01*
X-101293Y220068D01*
X-101228Y219945D01*
X-101167Y219819D01*
X-101109Y219691D01*
X-101055Y219563D01*
X-101005Y219432D01*
X-100958Y219300D01*
X-100915Y219167D01*
X-100876Y219033D01*
X-100841Y218898D01*
X-100810Y218762D01*
X-100782Y218624D01*
X-100759Y218487D01*
X-100739Y218348D01*
X-100723Y218209D01*
X-100711Y218070D01*
X-100703Y217931D01*
X-100699Y217791D01*
X-100699Y217651D01*
X-100703Y217511D01*
X-100711Y217372D01*
X-100723Y217233D01*
X-100739Y217094D01*
X-100759Y216955D01*
X-100782Y216818D01*
X-100810Y216680D01*
X-100841Y216544D01*
X-100876Y216409D01*
X-100915Y216275D01*
X-100958Y216142D01*
X-101005Y216010D01*
X-101055Y215879D01*
X-101109Y215751D01*
X-101167Y215623D01*
X-101228Y215497D01*
X-101293Y215374D01*
X-101361Y215252D01*
X-101432Y215131D01*
X-101507Y215013D01*
X-101586Y214898D01*
X-101667Y214784D01*
X-101752Y214673D01*
X-101840Y214564D01*
X-101930Y214458D01*
X-102024Y214354D01*
X-102121Y214253D01*
X-102221Y214155D01*
X-102323Y214060D01*
X-102428Y213968D01*
X-102535Y213878D01*
X-102645Y213792D01*
X-102758Y213709D01*
X-102872Y213629D01*
X-102989Y213552D01*
X-103108Y213479D01*
X-103229Y213409D01*
X-103352Y213343D01*
X-103477Y213280D01*
X-103604Y213220D01*
X-103732Y213165D01*
X-103861Y213113D01*
X-103993Y213064D01*
X-104125Y213019D01*
X-104259Y212978D01*
X-104393Y212941D01*
X-104529Y212908D01*
X-104666Y212879D01*
X-104803Y212853D01*
X-104941Y212831D01*
X-105080Y212814D01*
X-105219Y212800D01*
X-105359Y212790D01*
X-105498Y212784D01*
X-105638Y212782D01*
X-110576Y212782D01*
X-94581Y204880D02*
X-88655Y204880D01*
X-88531Y204882D01*
X-88407Y204888D01*
X-88283Y204898D01*
X-88160Y204911D01*
X-88037Y204929D01*
X-87915Y204950D01*
X-87793Y204975D01*
X-87672Y205004D01*
X-87553Y205037D01*
X-87434Y205073D01*
X-87317Y205114D01*
X-87201Y205157D01*
X-87086Y205205D01*
X-86973Y205256D01*
X-86861Y205311D01*
X-86752Y205369D01*
X-86644Y205430D01*
X-86538Y205495D01*
X-86434Y205563D01*
X-86333Y205635D01*
X-86233Y205709D01*
X-86137Y205787D01*
X-86042Y205867D01*
X-85950Y205951D01*
X-85861Y206037D01*
X-85775Y206126D01*
X-85691Y206218D01*
X-85611Y206313D01*
X-85533Y206409D01*
X-85459Y206509D01*
X-85387Y206610D01*
X-85319Y206714D01*
X-85254Y206820D01*
X-85193Y206928D01*
X-85135Y207037D01*
X-85080Y207149D01*
X-85029Y207262D01*
X-84981Y207377D01*
X-84938Y207493D01*
X-84897Y207610D01*
X-84861Y207729D01*
X-84828Y207848D01*
X-84799Y207969D01*
X-84774Y208091D01*
X-84753Y208213D01*
X-84735Y208336D01*
X-84722Y208459D01*
X-84712Y208583D01*
X-84706Y208707D01*
X-84704Y208831D01*
X-84704Y210807D01*
X-84706Y210931D01*
X-84712Y211055D01*
X-84722Y211179D01*
X-84735Y211302D01*
X-84753Y211425D01*
X-84774Y211547D01*
X-84799Y211669D01*
X-84828Y211790D01*
X-84861Y211909D01*
X-84897Y212028D01*
X-84938Y212145D01*
X-84981Y212261D01*
X-85029Y212376D01*
X-85080Y212489D01*
X-85135Y212601D01*
X-85193Y212710D01*
X-85254Y212818D01*
X-85319Y212924D01*
X-85387Y213028D01*
X-85459Y213129D01*
X-85533Y213229D01*
X-85611Y213325D01*
X-85691Y213420D01*
X-85775Y213512D01*
X-85861Y213601D01*
X-85950Y213687D01*
X-86042Y213771D01*
X-86137Y213851D01*
X-86233Y213929D01*
X-86333Y214003D01*
X-86434Y214075D01*
X-86538Y214143D01*
X-86644Y214208D01*
X-86752Y214269D01*
X-86861Y214327D01*
X-86973Y214382D01*
X-87086Y214433D01*
X-87201Y214481D01*
X-87317Y214524D01*
X-87434Y214565D01*
X-87553Y214601D01*
X-87672Y214634D01*
X-87793Y214663D01*
X-87915Y214688D01*
X-88037Y214709D01*
X-88160Y214727D01*
X-88283Y214740D01*
X-88407Y214750D01*
X-88531Y214756D01*
X-88655Y214758D01*
X-94581Y214758D01*
X-94581Y222660D01*
X-84704Y222660D01*
X-13446Y263330D02*
X-13446Y281110D01*
X-8508Y281110D01*
X-8368Y281108D01*
X-8229Y281102D01*
X-8089Y281092D01*
X-7950Y281078D01*
X-7811Y281061D01*
X-7673Y281039D01*
X-7536Y281013D01*
X-7399Y280984D01*
X-7263Y280951D01*
X-7129Y280914D01*
X-6995Y280873D01*
X-6863Y280828D01*
X-6731Y280779D01*
X-6602Y280727D01*
X-6474Y280672D01*
X-6347Y280612D01*
X-6222Y280549D01*
X-6099Y280483D01*
X-5978Y280413D01*
X-5859Y280340D01*
X-5742Y280263D01*
X-5628Y280183D01*
X-5515Y280100D01*
X-5405Y280014D01*
X-5298Y279924D01*
X-5193Y279832D01*
X-5091Y279737D01*
X-4991Y279639D01*
X-4894Y279538D01*
X-4800Y279434D01*
X-4710Y279328D01*
X-4622Y279219D01*
X-4537Y279108D01*
X-4456Y278994D01*
X-4377Y278879D01*
X-4302Y278761D01*
X-4231Y278641D01*
X-4163Y278518D01*
X-4098Y278395D01*
X-4037Y278269D01*
X-3979Y278141D01*
X-3925Y278013D01*
X-3875Y277882D01*
X-3828Y277750D01*
X-3785Y277617D01*
X-3746Y277483D01*
X-3711Y277348D01*
X-3680Y277212D01*
X-3652Y277074D01*
X-3629Y276937D01*
X-3609Y276798D01*
X-3593Y276659D01*
X-3581Y276520D01*
X-3573Y276381D01*
X-3569Y276241D01*
X-3569Y276101D01*
X-3573Y275961D01*
X-3581Y275822D01*
X-3593Y275683D01*
X-3609Y275544D01*
X-3629Y275405D01*
X-3652Y275268D01*
X-3680Y275130D01*
X-3711Y274994D01*
X-3746Y274859D01*
X-3785Y274725D01*
X-3828Y274592D01*
X-3875Y274460D01*
X-3925Y274329D01*
X-3979Y274201D01*
X-4037Y274073D01*
X-4098Y273947D01*
X-4163Y273824D01*
X-4231Y273702D01*
X-4302Y273581D01*
X-4377Y273463D01*
X-4456Y273348D01*
X-4537Y273234D01*
X-4622Y273123D01*
X-4710Y273014D01*
X-4800Y272908D01*
X-4894Y272804D01*
X-4991Y272703D01*
X-5091Y272605D01*
X-5193Y272510D01*
X-5298Y272418D01*
X-5405Y272328D01*
X-5515Y272242D01*
X-5628Y272159D01*
X-5742Y272079D01*
X-5859Y272002D01*
X-5978Y271929D01*
X-6099Y271859D01*
X-6222Y271793D01*
X-6347Y271730D01*
X-6474Y271670D01*
X-6602Y271615D01*
X-6731Y271563D01*
X-6863Y271514D01*
X-6995Y271469D01*
X-7129Y271428D01*
X-7263Y271391D01*
X-7399Y271358D01*
X-7536Y271329D01*
X-7673Y271303D01*
X-7811Y271281D01*
X-7950Y271264D01*
X-8089Y271250D01*
X-8229Y271240D01*
X-8368Y271234D01*
X-8508Y271232D01*
X-13446Y271232D01*
X2549Y273208D02*
X8475Y273208D01*
X8599Y273206D01*
X8723Y273200D01*
X8847Y273190D01*
X8970Y273177D01*
X9093Y273159D01*
X9215Y273138D01*
X9337Y273113D01*
X9458Y273084D01*
X9577Y273051D01*
X9696Y273015D01*
X9813Y272974D01*
X9929Y272931D01*
X10044Y272883D01*
X10157Y272832D01*
X10269Y272777D01*
X10378Y272719D01*
X10486Y272658D01*
X10592Y272593D01*
X10696Y272525D01*
X10797Y272453D01*
X10897Y272379D01*
X10993Y272301D01*
X11088Y272221D01*
X11180Y272137D01*
X11269Y272051D01*
X11355Y271962D01*
X11439Y271870D01*
X11519Y271775D01*
X11597Y271679D01*
X11671Y271579D01*
X11743Y271478D01*
X11811Y271374D01*
X11876Y271268D01*
X11937Y271160D01*
X11995Y271051D01*
X12050Y270939D01*
X12101Y270826D01*
X12149Y270711D01*
X12192Y270595D01*
X12233Y270478D01*
X12269Y270359D01*
X12302Y270240D01*
X12331Y270119D01*
X12356Y269997D01*
X12377Y269875D01*
X12395Y269752D01*
X12408Y269629D01*
X12418Y269505D01*
X12424Y269381D01*
X12426Y269257D01*
X12426Y268269D01*
X12427Y268269D02*
X12425Y268129D01*
X12419Y267990D01*
X12409Y267850D01*
X12395Y267711D01*
X12378Y267572D01*
X12356Y267434D01*
X12330Y267297D01*
X12301Y267160D01*
X12268Y267024D01*
X12231Y266890D01*
X12190Y266756D01*
X12145Y266624D01*
X12096Y266492D01*
X12044Y266363D01*
X11989Y266235D01*
X11929Y266108D01*
X11866Y265983D01*
X11800Y265860D01*
X11730Y265739D01*
X11657Y265620D01*
X11580Y265503D01*
X11500Y265389D01*
X11417Y265276D01*
X11331Y265166D01*
X11241Y265059D01*
X11149Y264954D01*
X11054Y264852D01*
X10956Y264752D01*
X10855Y264655D01*
X10751Y264561D01*
X10645Y264471D01*
X10536Y264383D01*
X10425Y264298D01*
X10311Y264217D01*
X10196Y264138D01*
X10078Y264063D01*
X9958Y263992D01*
X9835Y263924D01*
X9712Y263859D01*
X9586Y263798D01*
X9458Y263740D01*
X9330Y263686D01*
X9199Y263636D01*
X9067Y263589D01*
X8934Y263546D01*
X8800Y263507D01*
X8665Y263472D01*
X8529Y263441D01*
X8391Y263413D01*
X8254Y263390D01*
X8115Y263370D01*
X7976Y263354D01*
X7837Y263342D01*
X7698Y263334D01*
X7558Y263330D01*
X7418Y263330D01*
X7278Y263334D01*
X7139Y263342D01*
X7000Y263354D01*
X6861Y263370D01*
X6722Y263390D01*
X6585Y263413D01*
X6447Y263441D01*
X6311Y263472D01*
X6176Y263507D01*
X6042Y263546D01*
X5909Y263589D01*
X5777Y263636D01*
X5646Y263686D01*
X5518Y263740D01*
X5390Y263798D01*
X5264Y263859D01*
X5141Y263924D01*
X5019Y263992D01*
X4898Y264063D01*
X4780Y264138D01*
X4665Y264217D01*
X4551Y264298D01*
X4440Y264383D01*
X4331Y264471D01*
X4225Y264561D01*
X4121Y264655D01*
X4020Y264752D01*
X3922Y264852D01*
X3827Y264954D01*
X3735Y265059D01*
X3645Y265166D01*
X3559Y265276D01*
X3476Y265389D01*
X3396Y265503D01*
X3319Y265620D01*
X3246Y265739D01*
X3176Y265860D01*
X3110Y265983D01*
X3047Y266108D01*
X2987Y266235D01*
X2932Y266363D01*
X2880Y266492D01*
X2831Y266624D01*
X2786Y266756D01*
X2745Y266890D01*
X2708Y267024D01*
X2675Y267160D01*
X2646Y267297D01*
X2620Y267434D01*
X2598Y267572D01*
X2581Y267711D01*
X2567Y267850D01*
X2557Y267990D01*
X2551Y268129D01*
X2549Y268269D01*
X2549Y273208D01*
X2551Y273402D01*
X2559Y273596D01*
X2570Y273789D01*
X2587Y273983D01*
X2608Y274175D01*
X2635Y274367D01*
X2665Y274559D01*
X2701Y274750D01*
X2741Y274939D01*
X2786Y275128D01*
X2835Y275316D01*
X2889Y275502D01*
X2948Y275687D01*
X3011Y275870D01*
X3078Y276052D01*
X3151Y276232D01*
X3227Y276410D01*
X3308Y276587D01*
X3393Y276761D01*
X3482Y276933D01*
X3576Y277103D01*
X3673Y277270D01*
X3775Y277436D01*
X3881Y277598D01*
X3990Y277758D01*
X4104Y277915D01*
X4221Y278070D01*
X4343Y278221D01*
X4468Y278369D01*
X4596Y278515D01*
X4728Y278657D01*
X4863Y278796D01*
X5002Y278931D01*
X5144Y279063D01*
X5290Y279191D01*
X5438Y279316D01*
X5589Y279438D01*
X5744Y279555D01*
X5901Y279669D01*
X6061Y279778D01*
X6223Y279884D01*
X6389Y279986D01*
X6556Y280083D01*
X6726Y280177D01*
X6898Y280266D01*
X7072Y280351D01*
X7249Y280432D01*
X7427Y280508D01*
X7607Y280581D01*
X7789Y280648D01*
X7972Y280711D01*
X8157Y280770D01*
X8343Y280824D01*
X8531Y280873D01*
X8720Y280918D01*
X8909Y280958D01*
X9100Y280994D01*
X9292Y281024D01*
X9484Y281051D01*
X9676Y281072D01*
X9870Y281089D01*
X10063Y281100D01*
X10257Y281108D01*
X10451Y281110D01*
D12*
X-34801Y82022D03*
D13*
X-35316Y82169D03*
D14*
X-35905Y82316D03*
D15*
X-36347Y82464D03*
D16*
X-36863Y82611D03*
D17*
X-37305Y82758D03*
D18*
X-37894Y82906D03*
D19*
X-38410Y83053D03*
D20*
X-38852Y83200D03*
D21*
X-39294Y83348D03*
D22*
X-39367Y83495D03*
D23*
X-39294Y83642D03*
D24*
X-39220Y83790D03*
D25*
X-39294Y83937D03*
D26*
X-39220Y84084D03*
D27*
X-39220Y84231D03*
D28*
X-39146Y84379D03*
X-39146Y84526D03*
D29*
X-39146Y84673D03*
D30*
X-39073Y84821D03*
D31*
X-39073Y84968D03*
X-39073Y85115D03*
D32*
X-38999Y85263D03*
D33*
X-38999Y85410D03*
D34*
X-38925Y85557D03*
D35*
X-38999Y85705D03*
D36*
X-38925Y85852D03*
D37*
X-38852Y85999D03*
D38*
X-38852Y86147D03*
X-38852Y86294D03*
D39*
X-38778Y86441D03*
D40*
X-38778Y86589D03*
D41*
X-38704Y86736D03*
D42*
X-38778Y86883D03*
D43*
X-38704Y87031D03*
D44*
X-38631Y87178D03*
D45*
X-38631Y87325D03*
X-38631Y87473D03*
D46*
X-38631Y87620D03*
D47*
X-38557Y87767D03*
X-38557Y87914D03*
D48*
X-38557Y88062D03*
D49*
X-38484Y88209D03*
D50*
X-38484Y88356D03*
X-38484Y88504D03*
D51*
X-38410Y88651D03*
D52*
X-38410Y88798D03*
D53*
X-38336Y88946D03*
D54*
X-38410Y89093D03*
D55*
X-38336Y89240D03*
D56*
X-38263Y89388D03*
D57*
X-17785Y89388D03*
D58*
X-38263Y89535D03*
D59*
X-18374Y89535D03*
D58*
X-38263Y89682D03*
D60*
X-18816Y89682D03*
D61*
X-38263Y89830D03*
D62*
X-19332Y89830D03*
D63*
X-38189Y89977D03*
D64*
X-19774Y89977D03*
D63*
X-38189Y90124D03*
D65*
X-20363Y90124D03*
D66*
X-38263Y90272D03*
D67*
X-20805Y90272D03*
D66*
X-38263Y90419D03*
D68*
X-21321Y90419D03*
D63*
X-38336Y90566D03*
D69*
X-21763Y90566D03*
D66*
X-38410Y90714D03*
D21*
X-21910Y90714D03*
D66*
X-38410Y90861D03*
D23*
X-21910Y90861D03*
D66*
X-38557Y91008D03*
D24*
X-21836Y91008D03*
D66*
X-38557Y91156D03*
D25*
X-21763Y91156D03*
D63*
X-38631Y91303D03*
D26*
X-21836Y91303D03*
D66*
X-38704Y91450D03*
D70*
X-21763Y91450D03*
D66*
X-38704Y91597D03*
D28*
X-21763Y91597D03*
D66*
X-38852Y91745D03*
D71*
X-21689Y91745D03*
D66*
X-38852Y91892D03*
D71*
X-21689Y91892D03*
D63*
X-38925Y92039D03*
D30*
X-21689Y92039D03*
D66*
X-38999Y92187D03*
D72*
X-21615Y92187D03*
D66*
X-38999Y92334D03*
D32*
X-21615Y92334D03*
D66*
X-39146Y92481D03*
D32*
X-21615Y92481D03*
D66*
X-39146Y92629D03*
D73*
X-21542Y92629D03*
D63*
X-39220Y92776D03*
D34*
X-21542Y92776D03*
D61*
X-39146Y92923D03*
D35*
X-21468Y92923D03*
D61*
X-39146Y93071D03*
D36*
X-21542Y93071D03*
D74*
X-39146Y93218D03*
D75*
X-21468Y93218D03*
D76*
X-39073Y93365D03*
D77*
X-21394Y93365D03*
D55*
X-39073Y93513D03*
D78*
X-21394Y93513D03*
D55*
X-39073Y93660D03*
D78*
X-21394Y93660D03*
D54*
X-38999Y93807D03*
D79*
X-21321Y93807D03*
D52*
X-38999Y93955D03*
D41*
X-21321Y93955D03*
D80*
X-38925Y94102D03*
D41*
X-21321Y94102D03*
D51*
X-38999Y94249D03*
D43*
X-21321Y94249D03*
D81*
X-38925Y94397D03*
D44*
X-21247Y94397D03*
D82*
X-38852Y94544D03*
D83*
X-21173Y94544D03*
D48*
X-38852Y94691D03*
D84*
X-21247Y94691D03*
D48*
X-38852Y94839D03*
D85*
X-21173Y94839D03*
D86*
X-38778Y94986D03*
D47*
X-21173Y94986D03*
D46*
X-38778Y95133D03*
D86*
X-21100Y95133D03*
D46*
X-38778Y95280D03*
D86*
X-21100Y95280D03*
D84*
X-38778Y95428D03*
D49*
X-21100Y95428D03*
D87*
X-38704Y95575D03*
D82*
X-21026Y95575D03*
D44*
X-38631Y95722D03*
D51*
X-21026Y95722D03*
D43*
X-38704Y95870D03*
D51*
X-21026Y95870D03*
D42*
X-38631Y96017D03*
D80*
X-20952Y96017D03*
D40*
X-38631Y96164D03*
D53*
X-20952Y96164D03*
D79*
X-38557Y96312D03*
D54*
X-20879Y96312D03*
D79*
X-38557Y96459D03*
D55*
X-20952Y96459D03*
D88*
X-38557Y96606D03*
D89*
X-20879Y96606D03*
D77*
X-38484Y96754D03*
D76*
X-20805Y96754D03*
D36*
X-38484Y96901D03*
D90*
X-20805Y96901D03*
D36*
X-38484Y97048D03*
D90*
X-20805Y97048D03*
D35*
X-38410Y97196D03*
D63*
X-20805Y97196D03*
D33*
X-38410Y97343D03*
D66*
X-20731Y97343D03*
D73*
X-38336Y97490D03*
D63*
X-20805Y97490D03*
D32*
X-38410Y97638D03*
D66*
X-20879Y97638D03*
D91*
X-38336Y97785D03*
D66*
X-20879Y97785D03*
D92*
X-38263Y97932D03*
D63*
X-20952Y97932D03*
D29*
X-38263Y98080D03*
D66*
X-21026Y98080D03*
D29*
X-38263Y98227D03*
D66*
X-21026Y98227D03*
D71*
X-38189Y98374D03*
D66*
X-21173Y98374D03*
D27*
X-38189Y98522D03*
D66*
X-21173Y98522D03*
D70*
X-38115Y98669D03*
D63*
X-21247Y98669D03*
D93*
X-38189Y98816D03*
D66*
X-21321Y98816D03*
D25*
X-38115Y98963D03*
D66*
X-21321Y98963D03*
D24*
X-38042Y99111D03*
D66*
X-21468Y99111D03*
D23*
X-38115Y99258D03*
D66*
X-21468Y99258D03*
D22*
X-38042Y99405D03*
D63*
X-21542Y99405D03*
D69*
X-38115Y99553D03*
D66*
X-21615Y99553D03*
D94*
X-38631Y99700D03*
D66*
X-21615Y99700D03*
D67*
X-39220Y99847D03*
D66*
X-21763Y99847D03*
D65*
X-39662Y99995D03*
D66*
X-21763Y99995D03*
D95*
X-40178Y100142D03*
D61*
X-21763Y100142D03*
D96*
X-40620Y100289D03*
D90*
X-21689Y100289D03*
D60*
X-41209Y100437D03*
D90*
X-21689Y100437D03*
D97*
X-41725Y100584D03*
D98*
X-21689Y100584D03*
D99*
X-42167Y100731D03*
D56*
X-21615Y100731D03*
D100*
X-32370Y100879D03*
D55*
X-21689Y100879D03*
D101*
X-32885Y101026D03*
D54*
X-21615Y101026D03*
D14*
X-33401Y101173D03*
D53*
X-21542Y101173D03*
D102*
X-33917Y101321D03*
D80*
X-21542Y101321D03*
D16*
X-34359Y101468D03*
D80*
X-21542Y101468D03*
D103*
X-34874Y101615D03*
D81*
X-21542Y101615D03*
D18*
X-35390Y101763D03*
D104*
X-21468Y101763D03*
D19*
X-35905Y101910D03*
D49*
X-21394Y101910D03*
D105*
X-36421Y102057D03*
D48*
X-21468Y102057D03*
D106*
X-36863Y102205D03*
D86*
X-21394Y102205D03*
D22*
X-36863Y102352D03*
D47*
X-21321Y102352D03*
D23*
X-36789Y102499D03*
D85*
X-21321Y102499D03*
D24*
X-36716Y102646D03*
D85*
X-21321Y102646D03*
D25*
X-36789Y102794D03*
D87*
X-21321Y102794D03*
D26*
X-36716Y102941D03*
D44*
X-21247Y102941D03*
D107*
X-36716Y103088D03*
D43*
X-21173Y103088D03*
D28*
X-36642Y103236D03*
D42*
X-21247Y103236D03*
D28*
X-36642Y103383D03*
D41*
X-21173Y103383D03*
D29*
X-36642Y103530D03*
D79*
X-21173Y103530D03*
D30*
X-36568Y103678D03*
D39*
X-21100Y103678D03*
D31*
X-36568Y103825D03*
D39*
X-21100Y103825D03*
D31*
X-36568Y103972D03*
D108*
X-21100Y103972D03*
D32*
X-36495Y104120D03*
D75*
X-21026Y104120D03*
D33*
X-36495Y104267D03*
D35*
X-21026Y104267D03*
D34*
X-36421Y104414D03*
D35*
X-21026Y104414D03*
X-36495Y104562D03*
D34*
X-20952Y104562D03*
D36*
X-36421Y104709D03*
D73*
X-20952Y104709D03*
D75*
X-36347Y104856D03*
D73*
X-20952Y104856D03*
D38*
X-36347Y105004D03*
D91*
X-20952Y105004D03*
D38*
X-36347Y105151D03*
D72*
X-20879Y105151D03*
D79*
X-36347Y105298D03*
D30*
X-20805Y105298D03*
D40*
X-36274Y105446D03*
D29*
X-20879Y105446D03*
D41*
X-36200Y105593D03*
D71*
X-20805Y105593D03*
D42*
X-36274Y105740D03*
D27*
X-20805Y105740D03*
D43*
X-36200Y105888D03*
D109*
X-20731Y105888D03*
D87*
X-36200Y106035D03*
D109*
X-20731Y106035D03*
D45*
X-36126Y106182D03*
D25*
X-20731Y106182D03*
D45*
X-36126Y106329D03*
D24*
X-20658Y106329D03*
D46*
X-36126Y106477D03*
D23*
X-20584Y106477D03*
D47*
X-36053Y106624D03*
D22*
X-20658Y106624D03*
D47*
X-36053Y106771D03*
D106*
X-20658Y106771D03*
D48*
X-36053Y106919D03*
D110*
X-21100Y106919D03*
D49*
X-35979Y107066D03*
D111*
X-21615Y107066D03*
D50*
X-35979Y107213D03*
D18*
X-22131Y107213D03*
D50*
X-35979Y107361D03*
D112*
X-22647Y107361D03*
D51*
X-35905Y107508D03*
D113*
X-23089Y107508D03*
D52*
X-35905Y107655D03*
D114*
X-23604Y107655D03*
D53*
X-35832Y107803D03*
D14*
X-24120Y107803D03*
D54*
X-35905Y107950D03*
D115*
X-24635Y107950D03*
D55*
X-35832Y108097D03*
D12*
X-25077Y108097D03*
D56*
X-35758Y108245D03*
D58*
X-35758Y108392D03*
X-35758Y108539D03*
D61*
X-35758Y108687D03*
D63*
X-35684Y108834D03*
X-35684Y108981D03*
D66*
X-35758Y109129D03*
X-35758Y109276D03*
X-35905Y109423D03*
X-35905Y109571D03*
D63*
X-35979Y109718D03*
D66*
X-36053Y109865D03*
X-36053Y110012D03*
X-36200Y110160D03*
X-36200Y110307D03*
D63*
X-36274Y110454D03*
D66*
X-36347Y110602D03*
X-36347Y110749D03*
D63*
X-36421Y110896D03*
D66*
X-36495Y111044D03*
X-36495Y111191D03*
X-36642Y111338D03*
X-36642Y111486D03*
D63*
X-36716Y111633D03*
D61*
X-36642Y111780D03*
X-36642Y111928D03*
D74*
X-36642Y112075D03*
D76*
X-36568Y112222D03*
D55*
X-36568Y112370D03*
X-36568Y112517D03*
D54*
X-36495Y112664D03*
D52*
X-36495Y112812D03*
D80*
X-36421Y112959D03*
D51*
X-36495Y113106D03*
D81*
X-36421Y113254D03*
D82*
X-36347Y113401D03*
D116*
X-36421Y113548D03*
D48*
X-36347Y113695D03*
D47*
X-36347Y113843D03*
D46*
X-36274Y113990D03*
X-36274Y114137D03*
D84*
X-36274Y114285D03*
D87*
X-36200Y114432D03*
D43*
X-36200Y114579D03*
X-36200Y114727D03*
D42*
X-36126Y114874D03*
D40*
X-36126Y115021D03*
D79*
X-36053Y115169D03*
X-36053Y115316D03*
D88*
X-36053Y115463D03*
D77*
X-35979Y115611D03*
D36*
X-35979Y115758D03*
X-35979Y115905D03*
D35*
X-35905Y116053D03*
D33*
X-35905Y116200D03*
D73*
X-35832Y116347D03*
D32*
X-35905Y116495D03*
D91*
X-35832Y116642D03*
D92*
X-35758Y116789D03*
D29*
X-35758Y116937D03*
X-35758Y117084D03*
D28*
X-35758Y117231D03*
D27*
X-35684Y117378D03*
D70*
X-35611Y117526D03*
D93*
X-35684Y117673D03*
D25*
X-35611Y117820D03*
D23*
X-35611Y117968D03*
X-35611Y118115D03*
D22*
X-35537Y118262D03*
D117*
X-35684Y118410D03*
D118*
X-36200Y118557D03*
D67*
X-36716Y118704D03*
D119*
X-37231Y118852D03*
D95*
X-37673Y118999D03*
D120*
X-38189Y119146D03*
D60*
X-38704Y119294D03*
D97*
X-39220Y119441D03*
D121*
X-39736Y119588D03*
D122*
X-28702Y229362D02*
X-34036Y234696D01*
X-39370Y229362D02*
X-34036Y224028D01*
X-39370Y229362D02*
X-34036Y234696D01*
X-44450Y194310D02*
X-44436Y195432D01*
X-44395Y196553D01*
X-44326Y197673D01*
X-44230Y198791D01*
X-44106Y199907D01*
X-43955Y201019D01*
X-43777Y202126D01*
X-43572Y203230D01*
X-43339Y204327D01*
X-43080Y205419D01*
X-42794Y206504D01*
X-42481Y207582D01*
X-42142Y208652D01*
X-41777Y209713D01*
X-41386Y210764D01*
X-40970Y211806D01*
X-40528Y212838D01*
X-40060Y213858D01*
X-39568Y214866D01*
X-39051Y215862D01*
X-38510Y216845D01*
X-37945Y217815D01*
X-37357Y218770D01*
X-36745Y219711D01*
X-36110Y220636D01*
X-35453Y221545D01*
X-34773Y222438D01*
X-34072Y223314D01*
X-33350Y224173D01*
X-32606Y225014D01*
X-31843Y225836D01*
X-31059Y226639D01*
X-30256Y227423D01*
X-29434Y228186D01*
X-28593Y228930D01*
X-27734Y229652D01*
X-26858Y230353D01*
X-25965Y231033D01*
X-25056Y231690D01*
X-24131Y232325D01*
X-23190Y232937D01*
X-22235Y233525D01*
X-21265Y234090D01*
X-20282Y234631D01*
X-19286Y235148D01*
X-18278Y235640D01*
X-17258Y236108D01*
X-16226Y236550D01*
X-15184Y236966D01*
X-14133Y237357D01*
X-13072Y237722D01*
X-12002Y238061D01*
X-10924Y238374D01*
X-9839Y238660D01*
X-8747Y238919D01*
X-7650Y239152D01*
X-6546Y239357D01*
X-5439Y239535D01*
X-4327Y239686D01*
X-3211Y239810D01*
X-2093Y239906D01*
X-973Y239975D01*
X148Y240016D01*
X1270Y240030D01*
X2392Y240016D01*
X3513Y239975D01*
X4633Y239906D01*
X5751Y239810D01*
X6867Y239686D01*
X7979Y239535D01*
X9086Y239357D01*
X10190Y239152D01*
X11287Y238919D01*
X12379Y238660D01*
X13464Y238374D01*
X14542Y238061D01*
X15612Y237722D01*
X16673Y237357D01*
X17724Y236966D01*
X18766Y236550D01*
X19798Y236108D01*
X20818Y235640D01*
X21826Y235148D01*
X22822Y234631D01*
X23805Y234090D01*
X24775Y233525D01*
X25730Y232937D01*
X26671Y232325D01*
X27596Y231690D01*
X28505Y231033D01*
X29398Y230353D01*
X30274Y229652D01*
X31133Y228930D01*
X31974Y228186D01*
X32796Y227423D01*
X33599Y226639D01*
X34383Y225836D01*
X35146Y225014D01*
X35890Y224173D01*
X36612Y223314D01*
X37313Y222438D01*
X37993Y221545D01*
X38650Y220636D01*
X39285Y219711D01*
X39897Y218770D01*
X40485Y217815D01*
X41050Y216845D01*
X41591Y215862D01*
X42108Y214866D01*
X42600Y213858D01*
X43068Y212838D01*
X43510Y211806D01*
X43926Y210764D01*
X44317Y209713D01*
X44682Y208652D01*
X45021Y207582D01*
X45334Y206504D01*
X45620Y205419D01*
X45879Y204327D01*
X46112Y203230D01*
X46317Y202126D01*
X46495Y201019D01*
X46646Y199907D01*
X46770Y198791D01*
X46866Y197673D01*
X46935Y196553D01*
X46976Y195432D01*
X46990Y194310D01*
X46976Y193188D01*
X46935Y192067D01*
X46866Y190947D01*
X46770Y189829D01*
X46646Y188713D01*
X46495Y187601D01*
X46317Y186494D01*
X46112Y185390D01*
X45879Y184293D01*
X45620Y183201D01*
X45334Y182116D01*
X45021Y181038D01*
X44682Y179968D01*
X44317Y178907D01*
X43926Y177856D01*
X43510Y176814D01*
X43068Y175782D01*
X42600Y174762D01*
X42108Y173754D01*
X41591Y172758D01*
X41050Y171775D01*
X40485Y170805D01*
X39897Y169850D01*
X39285Y168909D01*
X38650Y167984D01*
X37993Y167075D01*
X37313Y166182D01*
X36612Y165306D01*
X35890Y164447D01*
X35146Y163606D01*
X34383Y162784D01*
X33599Y161981D01*
X32796Y161197D01*
X31974Y160434D01*
X31133Y159690D01*
X30274Y158968D01*
X29398Y158267D01*
X28505Y157587D01*
X27596Y156930D01*
X26671Y156295D01*
X25730Y155683D01*
X24775Y155095D01*
X23805Y154530D01*
X22822Y153989D01*
X21826Y153472D01*
X20818Y152980D01*
X19798Y152512D01*
X18766Y152070D01*
X17724Y151654D01*
X16673Y151263D01*
X15612Y150898D01*
X14542Y150559D01*
X13464Y150246D01*
X12379Y149960D01*
X11287Y149701D01*
X10190Y149468D01*
X9086Y149263D01*
X7979Y149085D01*
X6867Y148934D01*
X5751Y148810D01*
X4633Y148714D01*
X3513Y148645D01*
X2392Y148604D01*
X1270Y148590D01*
X148Y148604D01*
X-973Y148645D01*
X-2093Y148714D01*
X-3211Y148810D01*
X-4327Y148934D01*
X-5439Y149085D01*
X-6546Y149263D01*
X-7650Y149468D01*
X-8747Y149701D01*
X-9839Y149960D01*
X-10924Y150246D01*
X-12002Y150559D01*
X-13072Y150898D01*
X-14133Y151263D01*
X-15184Y151654D01*
X-16226Y152070D01*
X-17258Y152512D01*
X-18278Y152980D01*
X-19286Y153472D01*
X-20282Y153989D01*
X-21265Y154530D01*
X-22235Y155095D01*
X-23190Y155683D01*
X-24131Y156295D01*
X-25056Y156930D01*
X-25965Y157587D01*
X-26858Y158267D01*
X-27734Y158968D01*
X-28593Y159690D01*
X-29434Y160434D01*
X-30256Y161197D01*
X-31059Y161981D01*
X-31843Y162784D01*
X-32606Y163606D01*
X-33350Y164447D01*
X-34072Y165306D01*
X-34773Y166182D01*
X-35453Y167075D01*
X-36110Y167984D01*
X-36745Y168909D01*
X-37357Y169850D01*
X-37945Y170805D01*
X-38510Y171775D01*
X-39051Y172758D01*
X-39568Y173754D01*
X-40060Y174762D01*
X-40528Y175782D01*
X-40970Y176814D01*
X-41386Y177856D01*
X-41777Y178907D01*
X-42142Y179968D01*
X-42481Y181038D01*
X-42794Y182116D01*
X-43080Y183201D01*
X-43339Y184293D01*
X-43572Y185390D01*
X-43777Y186494D01*
X-43955Y187601D01*
X-44106Y188713D01*
X-44230Y189829D01*
X-44326Y190947D01*
X-44395Y192067D01*
X-44436Y193188D01*
X-44450Y194310D01*
D123*
X-37338Y194310D02*
X-37326Y195257D01*
X-37291Y196204D01*
X-37233Y197150D01*
X-37152Y198094D01*
X-37048Y199036D01*
X-36920Y199975D01*
X-36770Y200910D01*
X-36596Y201842D01*
X-36400Y202769D01*
X-36181Y203691D01*
X-35939Y204607D01*
X-35676Y205517D01*
X-35389Y206421D01*
X-35081Y207317D01*
X-34751Y208205D01*
X-34399Y209085D01*
X-34026Y209956D01*
X-33631Y210817D01*
X-33216Y211669D01*
X-32779Y212510D01*
X-32322Y213340D01*
X-31845Y214158D01*
X-31348Y214965D01*
X-30831Y215759D01*
X-30295Y216541D01*
X-29740Y217309D01*
X-29166Y218063D01*
X-28574Y218803D01*
X-27964Y219528D01*
X-27337Y220238D01*
X-26692Y220932D01*
X-26030Y221610D01*
X-25352Y222272D01*
X-24658Y222917D01*
X-23948Y223544D01*
X-23223Y224154D01*
X-22483Y224746D01*
X-21729Y225320D01*
X-20961Y225875D01*
X-20179Y226411D01*
X-19385Y226928D01*
X-18578Y227425D01*
X-17760Y227902D01*
X-16930Y228359D01*
X-16089Y228796D01*
X-15237Y229211D01*
X-14376Y229606D01*
X-13505Y229979D01*
X-12625Y230331D01*
X-11737Y230661D01*
X-10841Y230969D01*
X-9937Y231256D01*
X-9027Y231519D01*
X-8111Y231761D01*
X-7189Y231980D01*
X-6262Y232176D01*
X-5330Y232350D01*
X-4395Y232500D01*
X-3456Y232628D01*
X-2514Y232732D01*
X-1570Y232813D01*
X-624Y232871D01*
X323Y232906D01*
X1270Y232918D01*
X2217Y232906D01*
X3164Y232871D01*
X4110Y232813D01*
X5054Y232732D01*
X5996Y232628D01*
X6935Y232500D01*
X7870Y232350D01*
X8802Y232176D01*
X9729Y231980D01*
X10651Y231761D01*
X11567Y231519D01*
X12477Y231256D01*
X13381Y230969D01*
X14277Y230661D01*
X15165Y230331D01*
X16045Y229979D01*
X16916Y229606D01*
X17777Y229211D01*
X18629Y228796D01*
X19470Y228359D01*
X20300Y227902D01*
X21118Y227425D01*
X21925Y226928D01*
X22719Y226411D01*
X23501Y225875D01*
X24269Y225320D01*
X25023Y224746D01*
X25763Y224154D01*
X26488Y223544D01*
X27198Y222917D01*
X27892Y222272D01*
X28570Y221610D01*
X29232Y220932D01*
X29877Y220238D01*
X30504Y219528D01*
X31114Y218803D01*
X31706Y218063D01*
X32280Y217309D01*
X32835Y216541D01*
X33371Y215759D01*
X33888Y214965D01*
X34385Y214158D01*
X34862Y213340D01*
X35319Y212510D01*
X35756Y211669D01*
X36171Y210817D01*
X36566Y209956D01*
X36939Y209085D01*
X37291Y208205D01*
X37621Y207317D01*
X37929Y206421D01*
X38216Y205517D01*
X38479Y204607D01*
X38721Y203691D01*
X38940Y202769D01*
X39136Y201842D01*
X39310Y200910D01*
X39460Y199975D01*
X39588Y199036D01*
X39692Y198094D01*
X39773Y197150D01*
X39831Y196204D01*
X39866Y195257D01*
X39878Y194310D01*
X39866Y193363D01*
X39831Y192416D01*
X39773Y191470D01*
X39692Y190526D01*
X39588Y189584D01*
X39460Y188645D01*
X39310Y187710D01*
X39136Y186778D01*
X38940Y185851D01*
X38721Y184929D01*
X38479Y184013D01*
X38216Y183103D01*
X37929Y182199D01*
X37621Y181303D01*
X37291Y180415D01*
X36939Y179535D01*
X36566Y178664D01*
X36171Y177803D01*
X35756Y176951D01*
X35319Y176110D01*
X34862Y175280D01*
X34385Y174462D01*
X33888Y173655D01*
X33371Y172861D01*
X32835Y172079D01*
X32280Y171311D01*
X31706Y170557D01*
X31114Y169817D01*
X30504Y169092D01*
X29877Y168382D01*
X29232Y167688D01*
X28570Y167010D01*
X27892Y166348D01*
X27198Y165703D01*
X26488Y165076D01*
X25763Y164466D01*
X25023Y163874D01*
X24269Y163300D01*
X23501Y162745D01*
X22719Y162209D01*
X21925Y161692D01*
X21118Y161195D01*
X20300Y160718D01*
X19470Y160261D01*
X18629Y159824D01*
X17777Y159409D01*
X16916Y159014D01*
X16045Y158641D01*
X15165Y158289D01*
X14277Y157959D01*
X13381Y157651D01*
X12477Y157364D01*
X11567Y157101D01*
X10651Y156859D01*
X9729Y156640D01*
X8802Y156444D01*
X7870Y156270D01*
X6935Y156120D01*
X5996Y155992D01*
X5054Y155888D01*
X4110Y155807D01*
X3164Y155749D01*
X2217Y155714D01*
X1270Y155702D01*
X323Y155714D01*
X-624Y155749D01*
X-1570Y155807D01*
X-2514Y155888D01*
X-3456Y155992D01*
X-4395Y156120D01*
X-5330Y156270D01*
X-6262Y156444D01*
X-7189Y156640D01*
X-8111Y156859D01*
X-9027Y157101D01*
X-9937Y157364D01*
X-10841Y157651D01*
X-11737Y157959D01*
X-12625Y158289D01*
X-13505Y158641D01*
X-14376Y159014D01*
X-15237Y159409D01*
X-16089Y159824D01*
X-16930Y160261D01*
X-17760Y160718D01*
X-18578Y161195D01*
X-19385Y161692D01*
X-20179Y162209D01*
X-20961Y162745D01*
X-21729Y163300D01*
X-22483Y163874D01*
X-23223Y164466D01*
X-23948Y165076D01*
X-24658Y165703D01*
X-25352Y166348D01*
X-26030Y167010D01*
X-26692Y167688D01*
X-27337Y168382D01*
X-27964Y169092D01*
X-28574Y169817D01*
X-29166Y170557D01*
X-29740Y171311D01*
X-30295Y172079D01*
X-30831Y172861D01*
X-31348Y173655D01*
X-31845Y174462D01*
X-32322Y175280D01*
X-32779Y176110D01*
X-33216Y176951D01*
X-33631Y177803D01*
X-34026Y178664D01*
X-34399Y179535D01*
X-34751Y180415D01*
X-35081Y181303D01*
X-35389Y182199D01*
X-35676Y183103D01*
X-35939Y184013D01*
X-36181Y184929D01*
X-36400Y185851D01*
X-36596Y186778D01*
X-36770Y187710D01*
X-36920Y188645D01*
X-37048Y189584D01*
X-37152Y190526D01*
X-37233Y191470D01*
X-37291Y192416D01*
X-37326Y193363D01*
X-37338Y194310D01*
D11*
X43383Y165862D02*
X43383Y159258D01*
X43385Y159158D01*
X43391Y159059D01*
X43401Y158959D01*
X43414Y158861D01*
X43432Y158762D01*
X43453Y158665D01*
X43478Y158569D01*
X43507Y158473D01*
X43540Y158379D01*
X43576Y158286D01*
X43616Y158195D01*
X43660Y158105D01*
X43707Y158017D01*
X43757Y157931D01*
X43811Y157847D01*
X43868Y157765D01*
X43928Y157686D01*
X43992Y157608D01*
X44058Y157534D01*
X44127Y157462D01*
X44199Y157393D01*
X44273Y157327D01*
X44351Y157263D01*
X44430Y157203D01*
X44512Y157146D01*
X44596Y157092D01*
X44682Y157042D01*
X44770Y156995D01*
X44860Y156951D01*
X44951Y156911D01*
X45044Y156875D01*
X45138Y156842D01*
X45234Y156813D01*
X45330Y156788D01*
X45427Y156767D01*
X45526Y156749D01*
X45624Y156736D01*
X45724Y156726D01*
X45823Y156720D01*
X45923Y156718D01*
X46023Y156720D01*
X46122Y156726D01*
X46222Y156736D01*
X46320Y156749D01*
X46419Y156767D01*
X46516Y156788D01*
X46612Y156813D01*
X46708Y156842D01*
X46802Y156875D01*
X46895Y156911D01*
X46986Y156951D01*
X47076Y156995D01*
X47164Y157042D01*
X47250Y157092D01*
X47334Y157146D01*
X47416Y157203D01*
X47495Y157263D01*
X47573Y157327D01*
X47647Y157393D01*
X47719Y157462D01*
X47788Y157534D01*
X47854Y157608D01*
X47918Y157686D01*
X47978Y157765D01*
X48035Y157847D01*
X48089Y157931D01*
X48139Y158017D01*
X48186Y158105D01*
X48230Y158195D01*
X48270Y158286D01*
X48306Y158379D01*
X48339Y158473D01*
X48368Y158569D01*
X48393Y158665D01*
X48414Y158762D01*
X48432Y158861D01*
X48445Y158959D01*
X48455Y159059D01*
X48461Y159158D01*
X48463Y159258D01*
X48463Y165862D01*
X55626Y165862D02*
X55720Y165860D01*
X55815Y165854D01*
X55909Y165844D01*
X56002Y165831D01*
X56095Y165813D01*
X56187Y165792D01*
X56278Y165767D01*
X56368Y165738D01*
X56457Y165706D01*
X56544Y165669D01*
X56630Y165630D01*
X56714Y165586D01*
X56796Y165540D01*
X56876Y165490D01*
X56954Y165436D01*
X57030Y165380D01*
X57103Y165320D01*
X57174Y165258D01*
X57242Y165192D01*
X57308Y165124D01*
X57370Y165053D01*
X57430Y164980D01*
X57486Y164904D01*
X57540Y164826D01*
X57590Y164746D01*
X57636Y164664D01*
X57680Y164580D01*
X57719Y164494D01*
X57756Y164407D01*
X57788Y164318D01*
X57817Y164228D01*
X57842Y164137D01*
X57863Y164045D01*
X57881Y163952D01*
X57894Y163859D01*
X57904Y163765D01*
X57910Y163670D01*
X57912Y163576D01*
X55626Y165862D02*
X55520Y165860D01*
X55415Y165854D01*
X55310Y165845D01*
X55205Y165832D01*
X55101Y165815D01*
X54998Y165794D01*
X54895Y165770D01*
X54793Y165741D01*
X54693Y165710D01*
X54593Y165674D01*
X54495Y165636D01*
X54399Y165593D01*
X54303Y165547D01*
X54210Y165498D01*
X54119Y165446D01*
X54029Y165390D01*
X53941Y165331D01*
X53856Y165269D01*
X53773Y165204D01*
X53692Y165136D01*
X53614Y165065D01*
X53539Y164991D01*
X53466Y164915D01*
X53396Y164836D01*
X53329Y164755D01*
X53264Y164671D01*
X53203Y164585D01*
X53145Y164497D01*
X53090Y164407D01*
X53039Y164315D01*
X52990Y164221D01*
X52945Y164125D01*
X52904Y164028D01*
X52866Y163930D01*
X52832Y163830D01*
X57150Y161798D02*
X57217Y161865D01*
X57282Y161934D01*
X57344Y162006D01*
X57403Y162079D01*
X57459Y162156D01*
X57513Y162234D01*
X57563Y162314D01*
X57610Y162396D01*
X57654Y162480D01*
X57694Y162566D01*
X57732Y162653D01*
X57766Y162741D01*
X57796Y162831D01*
X57823Y162921D01*
X57847Y163013D01*
X57867Y163106D01*
X57883Y163199D01*
X57896Y163293D01*
X57905Y163387D01*
X57910Y163481D01*
X57912Y163576D01*
X57150Y161798D02*
X52832Y156718D01*
X57912Y156718D01*
D122*
X-19010Y66000D02*
X-19010Y63500D01*
X-19010Y61000D01*
X-19010Y63500D02*
X-14010Y66000D01*
X-14010Y61000D02*
X-19010Y63500D01*
X-14010Y61000D02*
X-14010Y66000D01*
X-4010Y68500D02*
X-4010Y58500D01*
X-29010Y58500D01*
X-29010Y68500D01*
X-4010Y68500D01*
D124*
X-22159Y71261D02*
X-22159Y78627D01*
X-20113Y78627D01*
X-20024Y78625D01*
X-19935Y78619D01*
X-19846Y78609D01*
X-19758Y78596D01*
X-19670Y78579D01*
X-19583Y78557D01*
X-19498Y78532D01*
X-19413Y78504D01*
X-19330Y78471D01*
X-19248Y78435D01*
X-19168Y78396D01*
X-19090Y78353D01*
X-19014Y78307D01*
X-18939Y78257D01*
X-18867Y78204D01*
X-18798Y78148D01*
X-18731Y78089D01*
X-18666Y78028D01*
X-18605Y77963D01*
X-18546Y77896D01*
X-18490Y77827D01*
X-18437Y77755D01*
X-18387Y77680D01*
X-18341Y77604D01*
X-18298Y77526D01*
X-18259Y77446D01*
X-18223Y77364D01*
X-18190Y77281D01*
X-18162Y77196D01*
X-18137Y77111D01*
X-18115Y77024D01*
X-18098Y76936D01*
X-18085Y76848D01*
X-18075Y76759D01*
X-18069Y76670D01*
X-18067Y76581D01*
X-18067Y73307D01*
X-18069Y73218D01*
X-18075Y73129D01*
X-18085Y73040D01*
X-18098Y72952D01*
X-18115Y72864D01*
X-18137Y72777D01*
X-18162Y72692D01*
X-18190Y72607D01*
X-18223Y72524D01*
X-18259Y72442D01*
X-18298Y72362D01*
X-18341Y72284D01*
X-18387Y72208D01*
X-18437Y72133D01*
X-18490Y72061D01*
X-18546Y71992D01*
X-18605Y71925D01*
X-18666Y71860D01*
X-18731Y71799D01*
X-18798Y71740D01*
X-18867Y71684D01*
X-18939Y71631D01*
X-19014Y71581D01*
X-19090Y71535D01*
X-19168Y71492D01*
X-19248Y71453D01*
X-19330Y71417D01*
X-19413Y71384D01*
X-19498Y71356D01*
X-19583Y71331D01*
X-19670Y71309D01*
X-19758Y71292D01*
X-19846Y71279D01*
X-19935Y71269D01*
X-20024Y71263D01*
X-20113Y71261D01*
X-22159Y71261D01*
X-14600Y76990D02*
X-12554Y78627D01*
X-12554Y71261D01*
X-14600Y71261D02*
X-10508Y71261D01*
D10*
X74930Y128270D02*
X87630Y128270D01*
X93980Y121920D01*
X93980Y109220D01*
X87630Y102870D01*
X68580Y109220D02*
X68580Y121920D01*
X74930Y128270D01*
X68580Y109220D02*
X74930Y102870D01*
X87630Y102870D01*
X53340Y106680D02*
X53340Y122936D01*
X57856Y122936D01*
X57989Y122934D01*
X58121Y122928D01*
X58253Y122918D01*
X58385Y122905D01*
X58517Y122887D01*
X58647Y122866D01*
X58778Y122841D01*
X58907Y122812D01*
X59035Y122779D01*
X59163Y122743D01*
X59289Y122703D01*
X59414Y122659D01*
X59538Y122611D01*
X59660Y122560D01*
X59781Y122505D01*
X59900Y122447D01*
X60018Y122385D01*
X60133Y122320D01*
X60247Y122251D01*
X60358Y122180D01*
X60467Y122104D01*
X60574Y122026D01*
X60679Y121945D01*
X60781Y121860D01*
X60881Y121773D01*
X60978Y121683D01*
X61073Y121590D01*
X61164Y121494D01*
X61253Y121396D01*
X61339Y121295D01*
X61422Y121191D01*
X61502Y121085D01*
X61578Y120977D01*
X61652Y120867D01*
X61722Y120754D01*
X61789Y120640D01*
X61852Y120523D01*
X61912Y120405D01*
X61969Y120285D01*
X62022Y120163D01*
X62071Y120040D01*
X62117Y119916D01*
X62159Y119790D01*
X62197Y119663D01*
X62232Y119535D01*
X62263Y119406D01*
X62290Y119277D01*
X62313Y119146D01*
X62333Y119015D01*
X62348Y118883D01*
X62360Y118751D01*
X62368Y118619D01*
X62372Y118486D01*
X62372Y118354D01*
X62368Y118221D01*
X62360Y118089D01*
X62348Y117957D01*
X62333Y117825D01*
X62313Y117694D01*
X62290Y117563D01*
X62263Y117434D01*
X62232Y117305D01*
X62197Y117177D01*
X62159Y117050D01*
X62117Y116924D01*
X62071Y116800D01*
X62022Y116677D01*
X61969Y116555D01*
X61912Y116435D01*
X61852Y116317D01*
X61789Y116200D01*
X61722Y116086D01*
X61652Y115973D01*
X61578Y115863D01*
X61502Y115755D01*
X61422Y115649D01*
X61339Y115545D01*
X61253Y115444D01*
X61164Y115346D01*
X61073Y115250D01*
X60978Y115157D01*
X60881Y115067D01*
X60781Y114980D01*
X60679Y114895D01*
X60574Y114814D01*
X60467Y114736D01*
X60358Y114660D01*
X60247Y114589D01*
X60133Y114520D01*
X60018Y114455D01*
X59900Y114393D01*
X59781Y114335D01*
X59660Y114280D01*
X59538Y114229D01*
X59414Y114181D01*
X59289Y114137D01*
X59163Y114097D01*
X59035Y114061D01*
X58907Y114028D01*
X58778Y113999D01*
X58647Y113974D01*
X58517Y113953D01*
X58385Y113935D01*
X58253Y113922D01*
X58121Y113912D01*
X57989Y113906D01*
X57856Y113904D01*
X57856Y113905D02*
X53340Y113905D01*
X58759Y113905D02*
X62371Y106680D01*
D125*
X46482Y81280D02*
X39878Y81280D01*
D124*
X39671Y64643D02*
X38035Y64643D01*
X37957Y64645D01*
X37879Y64650D01*
X37802Y64660D01*
X37725Y64673D01*
X37649Y64689D01*
X37574Y64709D01*
X37500Y64733D01*
X37427Y64760D01*
X37355Y64791D01*
X37285Y64825D01*
X37217Y64862D01*
X37150Y64903D01*
X37085Y64947D01*
X37023Y64993D01*
X36963Y65043D01*
X36905Y65095D01*
X36850Y65150D01*
X36798Y65208D01*
X36748Y65268D01*
X36702Y65330D01*
X36658Y65395D01*
X36617Y65462D01*
X36580Y65530D01*
X36546Y65600D01*
X36515Y65672D01*
X36488Y65745D01*
X36464Y65819D01*
X36444Y65894D01*
X36428Y65970D01*
X36415Y66047D01*
X36405Y66124D01*
X36400Y66202D01*
X36398Y66280D01*
X36398Y70372D01*
X36400Y70452D01*
X36406Y70532D01*
X36416Y70612D01*
X36429Y70691D01*
X36447Y70770D01*
X36468Y70847D01*
X36494Y70923D01*
X36523Y70998D01*
X36555Y71072D01*
X36591Y71144D01*
X36631Y71214D01*
X36674Y71281D01*
X36720Y71347D01*
X36770Y71410D01*
X36822Y71471D01*
X36877Y71530D01*
X36936Y71585D01*
X36996Y71637D01*
X37060Y71687D01*
X37126Y71733D01*
X37193Y71776D01*
X37263Y71816D01*
X37335Y71852D01*
X37409Y71884D01*
X37483Y71913D01*
X37560Y71939D01*
X37637Y71960D01*
X37716Y71978D01*
X37795Y71991D01*
X37875Y72001D01*
X37955Y72007D01*
X38035Y72009D01*
X39671Y72009D01*
X42517Y66689D02*
X42519Y66778D01*
X42525Y66867D01*
X42535Y66956D01*
X42548Y67044D01*
X42565Y67132D01*
X42587Y67219D01*
X42612Y67304D01*
X42640Y67389D01*
X42673Y67472D01*
X42709Y67554D01*
X42748Y67634D01*
X42791Y67712D01*
X42837Y67788D01*
X42887Y67863D01*
X42940Y67935D01*
X42996Y68004D01*
X43055Y68071D01*
X43116Y68136D01*
X43181Y68197D01*
X43248Y68256D01*
X43317Y68312D01*
X43389Y68365D01*
X43464Y68415D01*
X43540Y68461D01*
X43618Y68504D01*
X43698Y68543D01*
X43780Y68579D01*
X43863Y68612D01*
X43948Y68640D01*
X44033Y68665D01*
X44120Y68687D01*
X44208Y68704D01*
X44296Y68717D01*
X44385Y68727D01*
X44474Y68733D01*
X44563Y68735D01*
X44652Y68733D01*
X44741Y68727D01*
X44830Y68717D01*
X44918Y68704D01*
X45006Y68687D01*
X45093Y68665D01*
X45178Y68640D01*
X45263Y68612D01*
X45346Y68579D01*
X45428Y68543D01*
X45508Y68504D01*
X45586Y68461D01*
X45662Y68415D01*
X45737Y68365D01*
X45809Y68312D01*
X45878Y68256D01*
X45945Y68197D01*
X46010Y68136D01*
X46071Y68071D01*
X46130Y68004D01*
X46186Y67935D01*
X46239Y67863D01*
X46289Y67788D01*
X46335Y67712D01*
X46378Y67634D01*
X46417Y67554D01*
X46453Y67472D01*
X46486Y67389D01*
X46514Y67304D01*
X46539Y67219D01*
X46561Y67132D01*
X46578Y67044D01*
X46591Y66956D01*
X46601Y66867D01*
X46607Y66778D01*
X46609Y66689D01*
X46607Y66600D01*
X46601Y66511D01*
X46591Y66422D01*
X46578Y66334D01*
X46561Y66246D01*
X46539Y66159D01*
X46514Y66074D01*
X46486Y65989D01*
X46453Y65906D01*
X46417Y65824D01*
X46378Y65744D01*
X46335Y65666D01*
X46289Y65590D01*
X46239Y65515D01*
X46186Y65443D01*
X46130Y65374D01*
X46071Y65307D01*
X46010Y65242D01*
X45945Y65181D01*
X45878Y65122D01*
X45809Y65066D01*
X45737Y65013D01*
X45662Y64963D01*
X45586Y64917D01*
X45508Y64874D01*
X45428Y64835D01*
X45346Y64799D01*
X45263Y64766D01*
X45178Y64738D01*
X45093Y64713D01*
X45006Y64691D01*
X44918Y64674D01*
X44830Y64661D01*
X44741Y64651D01*
X44652Y64645D01*
X44563Y64643D01*
X44474Y64645D01*
X44385Y64651D01*
X44296Y64661D01*
X44208Y64674D01*
X44120Y64691D01*
X44033Y64713D01*
X43948Y64738D01*
X43863Y64766D01*
X43780Y64799D01*
X43698Y64835D01*
X43618Y64874D01*
X43540Y64917D01*
X43464Y64963D01*
X43389Y65013D01*
X43317Y65066D01*
X43248Y65122D01*
X43181Y65181D01*
X43116Y65242D01*
X43055Y65307D01*
X42996Y65374D01*
X42940Y65443D01*
X42887Y65515D01*
X42837Y65590D01*
X42791Y65666D01*
X42748Y65744D01*
X42709Y65824D01*
X42673Y65906D01*
X42640Y65989D01*
X42612Y66074D01*
X42587Y66159D01*
X42565Y66246D01*
X42548Y66334D01*
X42535Y66422D01*
X42525Y66511D01*
X42519Y66600D01*
X42517Y66689D01*
X42926Y70372D02*
X42928Y70451D01*
X42934Y70530D01*
X42943Y70609D01*
X42956Y70687D01*
X42974Y70764D01*
X42994Y70840D01*
X43019Y70915D01*
X43047Y70989D01*
X43078Y71062D01*
X43114Y71133D01*
X43152Y71202D01*
X43194Y71269D01*
X43239Y71334D01*
X43287Y71397D01*
X43338Y71458D01*
X43392Y71515D01*
X43448Y71571D01*
X43507Y71623D01*
X43569Y71673D01*
X43633Y71719D01*
X43699Y71763D01*
X43767Y71803D01*
X43837Y71839D01*
X43909Y71873D01*
X43983Y71903D01*
X44057Y71929D01*
X44133Y71952D01*
X44210Y71970D01*
X44287Y71986D01*
X44366Y71997D01*
X44444Y72005D01*
X44523Y72009D01*
X44603Y72009D01*
X44682Y72005D01*
X44760Y71997D01*
X44839Y71986D01*
X44916Y71970D01*
X44993Y71952D01*
X45069Y71929D01*
X45143Y71903D01*
X45217Y71873D01*
X45289Y71839D01*
X45359Y71803D01*
X45427Y71763D01*
X45493Y71719D01*
X45557Y71673D01*
X45619Y71623D01*
X45678Y71571D01*
X45734Y71515D01*
X45788Y71458D01*
X45839Y71397D01*
X45887Y71334D01*
X45932Y71269D01*
X45974Y71202D01*
X46012Y71133D01*
X46048Y71062D01*
X46079Y70989D01*
X46107Y70915D01*
X46132Y70840D01*
X46152Y70764D01*
X46170Y70687D01*
X46183Y70609D01*
X46192Y70530D01*
X46198Y70451D01*
X46200Y70372D01*
X46198Y70293D01*
X46192Y70214D01*
X46183Y70135D01*
X46170Y70057D01*
X46152Y69980D01*
X46132Y69904D01*
X46107Y69829D01*
X46079Y69755D01*
X46048Y69682D01*
X46012Y69611D01*
X45974Y69542D01*
X45932Y69475D01*
X45887Y69410D01*
X45839Y69347D01*
X45788Y69286D01*
X45734Y69229D01*
X45678Y69173D01*
X45619Y69121D01*
X45557Y69071D01*
X45493Y69025D01*
X45427Y68981D01*
X45359Y68941D01*
X45289Y68905D01*
X45217Y68871D01*
X45143Y68841D01*
X45069Y68815D01*
X44993Y68792D01*
X44916Y68774D01*
X44839Y68758D01*
X44760Y68747D01*
X44682Y68739D01*
X44603Y68735D01*
X44523Y68735D01*
X44444Y68739D01*
X44366Y68747D01*
X44287Y68758D01*
X44210Y68774D01*
X44133Y68792D01*
X44057Y68815D01*
X43983Y68841D01*
X43909Y68871D01*
X43837Y68905D01*
X43767Y68941D01*
X43699Y68981D01*
X43633Y69025D01*
X43569Y69071D01*
X43507Y69121D01*
X43448Y69173D01*
X43392Y69229D01*
X43338Y69286D01*
X43287Y69347D01*
X43239Y69410D01*
X43194Y69475D01*
X43152Y69542D01*
X43114Y69611D01*
X43078Y69682D01*
X43047Y69755D01*
X43019Y69829D01*
X42994Y69904D01*
X42974Y69980D01*
X42956Y70057D01*
X42943Y70135D01*
X42934Y70214D01*
X42928Y70293D01*
X42926Y70372D01*
D10*
X-85090Y172720D02*
X-85090Y185420D01*
X-85090Y172720D02*
X-91440Y166370D01*
X-104140Y166370D01*
X-110490Y172720D01*
X-91440Y166370D02*
X-85090Y160020D01*
X-85090Y147320D01*
X-91440Y140970D01*
X-104140Y140970D01*
X-110490Y147320D01*
X-110490Y160020D01*
X-104140Y166370D01*
X-104140Y191770D02*
X-91440Y191770D01*
X-85090Y185420D01*
X-104140Y191770D02*
X-110490Y185420D01*
X-110490Y172720D01*
X-91440Y140970D02*
X-85090Y134620D01*
X-85090Y121920D01*
X-91440Y115570D01*
X-104140Y115570D01*
X-110490Y121920D01*
X-110490Y134620D01*
X-104140Y140970D01*
D125*
X3810Y127508D02*
X3810Y121158D01*
D124*
X381Y96213D02*
X7747Y96213D01*
X381Y96213D02*
X381Y98259D01*
X383Y98348D01*
X389Y98437D01*
X399Y98526D01*
X412Y98614D01*
X429Y98702D01*
X451Y98789D01*
X476Y98874D01*
X504Y98959D01*
X537Y99042D01*
X573Y99124D01*
X612Y99204D01*
X655Y99282D01*
X701Y99358D01*
X751Y99433D01*
X804Y99505D01*
X860Y99574D01*
X919Y99641D01*
X980Y99706D01*
X1045Y99767D01*
X1112Y99826D01*
X1181Y99882D01*
X1253Y99935D01*
X1328Y99985D01*
X1404Y100031D01*
X1482Y100074D01*
X1562Y100113D01*
X1644Y100149D01*
X1727Y100182D01*
X1812Y100210D01*
X1897Y100235D01*
X1984Y100257D01*
X2072Y100274D01*
X2160Y100287D01*
X2249Y100297D01*
X2338Y100303D01*
X2427Y100305D01*
X2516Y100303D01*
X2605Y100297D01*
X2694Y100287D01*
X2782Y100274D01*
X2870Y100257D01*
X2957Y100235D01*
X3042Y100210D01*
X3127Y100182D01*
X3210Y100149D01*
X3292Y100113D01*
X3372Y100074D01*
X3450Y100031D01*
X3526Y99985D01*
X3601Y99935D01*
X3673Y99882D01*
X3742Y99826D01*
X3809Y99767D01*
X3874Y99706D01*
X3935Y99641D01*
X3994Y99574D01*
X4050Y99505D01*
X4103Y99433D01*
X4153Y99358D01*
X4199Y99282D01*
X4242Y99204D01*
X4281Y99124D01*
X4317Y99042D01*
X4350Y98959D01*
X4378Y98874D01*
X4403Y98789D01*
X4425Y98702D01*
X4442Y98614D01*
X4455Y98526D01*
X4465Y98437D01*
X4471Y98348D01*
X4473Y98259D01*
X4473Y96213D01*
X4473Y98668D02*
X7747Y100305D01*
X6110Y103477D02*
X381Y105114D01*
X6110Y103477D02*
X6110Y107569D01*
X4473Y106341D02*
X7747Y106341D01*
D125*
X21590Y121158D02*
X21590Y127508D01*
D124*
X18161Y96213D02*
X25527Y96213D01*
X18161Y96213D02*
X18161Y98259D01*
X18163Y98348D01*
X18169Y98437D01*
X18179Y98526D01*
X18192Y98614D01*
X18209Y98702D01*
X18231Y98789D01*
X18256Y98874D01*
X18284Y98959D01*
X18317Y99042D01*
X18353Y99124D01*
X18392Y99204D01*
X18435Y99282D01*
X18481Y99358D01*
X18531Y99433D01*
X18584Y99505D01*
X18640Y99574D01*
X18699Y99641D01*
X18760Y99706D01*
X18825Y99767D01*
X18892Y99826D01*
X18961Y99882D01*
X19033Y99935D01*
X19108Y99985D01*
X19184Y100031D01*
X19262Y100074D01*
X19342Y100113D01*
X19424Y100149D01*
X19507Y100182D01*
X19592Y100210D01*
X19677Y100235D01*
X19764Y100257D01*
X19852Y100274D01*
X19940Y100287D01*
X20029Y100297D01*
X20118Y100303D01*
X20207Y100305D01*
X20296Y100303D01*
X20385Y100297D01*
X20474Y100287D01*
X20562Y100274D01*
X20650Y100257D01*
X20737Y100235D01*
X20822Y100210D01*
X20907Y100182D01*
X20990Y100149D01*
X21072Y100113D01*
X21152Y100074D01*
X21230Y100031D01*
X21306Y99985D01*
X21381Y99935D01*
X21453Y99882D01*
X21522Y99826D01*
X21589Y99767D01*
X21654Y99706D01*
X21715Y99641D01*
X21774Y99574D01*
X21830Y99505D01*
X21883Y99433D01*
X21933Y99358D01*
X21979Y99282D01*
X22022Y99204D01*
X22061Y99124D01*
X22097Y99042D01*
X22130Y98959D01*
X22158Y98874D01*
X22183Y98789D01*
X22205Y98702D01*
X22222Y98614D01*
X22235Y98526D01*
X22245Y98437D01*
X22251Y98348D01*
X22253Y98259D01*
X22253Y96213D01*
X22253Y98668D02*
X25527Y100305D01*
X25527Y103477D02*
X25527Y105932D01*
X25525Y106010D01*
X25520Y106088D01*
X25510Y106165D01*
X25497Y106242D01*
X25481Y106318D01*
X25461Y106393D01*
X25437Y106467D01*
X25410Y106540D01*
X25379Y106612D01*
X25345Y106682D01*
X25308Y106751D01*
X25267Y106817D01*
X25223Y106882D01*
X25177Y106944D01*
X25127Y107004D01*
X25075Y107062D01*
X25020Y107117D01*
X24962Y107169D01*
X24902Y107219D01*
X24840Y107265D01*
X24775Y107309D01*
X24709Y107350D01*
X24640Y107387D01*
X24570Y107421D01*
X24498Y107452D01*
X24425Y107479D01*
X24351Y107503D01*
X24276Y107523D01*
X24200Y107539D01*
X24123Y107552D01*
X24046Y107562D01*
X23968Y107567D01*
X23890Y107569D01*
X23072Y107569D01*
X22992Y107567D01*
X22912Y107561D01*
X22832Y107551D01*
X22753Y107538D01*
X22674Y107520D01*
X22597Y107499D01*
X22521Y107473D01*
X22446Y107444D01*
X22372Y107412D01*
X22300Y107376D01*
X22230Y107336D01*
X22163Y107293D01*
X22097Y107247D01*
X22034Y107197D01*
X21973Y107145D01*
X21914Y107090D01*
X21859Y107031D01*
X21807Y106971D01*
X21757Y106907D01*
X21711Y106841D01*
X21668Y106774D01*
X21628Y106704D01*
X21592Y106632D01*
X21560Y106558D01*
X21531Y106484D01*
X21505Y106407D01*
X21484Y106330D01*
X21466Y106251D01*
X21453Y106172D01*
X21443Y106092D01*
X21437Y106012D01*
X21435Y105932D01*
X21435Y103477D01*
X18161Y103477D01*
X18161Y107569D01*
M02*
