M48
;GenerationSoftware,Autodesk,EAGLE,9.6.2*%
;CreationDate,2021-04-21T13:03:21Z*%
FMAT,2
ICI,OFF
METRIC,TZ,000.000
T3C0.254
T2C0.350
T1C0.813
%
G90
M71
T1
X32004Y29591
X34544Y27051
X37084Y29591
X34544Y32131
T2
X35179Y45339
X41529Y32893
X42418Y45593
X25400Y40640
X45085Y34417
X25527Y44069
X28702Y32512
X40005Y44958
X34925Y35433
X22361Y39955
X33381Y34905
X21573Y29401
X29464Y40989
X42164Y31623
X32693Y48355
X37402Y48704
X45339Y38354
X45506Y28831
X42291Y25146
X40767Y25146
X35560Y21844
X39751Y34798
X40259Y33762
X27432Y39497
X31242Y45593
X24765Y39497
T3
X45665Y40996
M30